<svg width="15" height="18" viewBox="0 0 15 18" fill="none" xmlns="http://www.w3.org/2000/svg">
<path d="M0 14.7843V18.0004H14.4V14.7843C14.3985 13.4893 13.8739 12.2478 12.9412 11.3321C12.0085 10.4165 10.7439 9.90161 9.42499 9.90039H4.97501C3.65609 9.90161 2.39154 10.4165 1.45884 11.3321C0.526144 12.2478 0.00148663 13.4893 0 14.7843Z" fill="white"/>
<path d="M10.8001 3.59913C10.7999 2.88715 10.5886 2.19122 10.193 1.59931C9.79729 1.00741 9.23498 0.546126 8.57715 0.273785C7.91932 0.00144294 7.19551 -0.0697242 6.49724 0.0692811C5.79897 0.208286 5.15759 0.551221 4.65421 1.05472C4.15083 1.55823 3.80804 2.19969 3.66921 2.898C3.53037 3.5963 3.60172 4.3201 3.87422 4.97786C4.14672 5.63563 4.60814 6.19782 5.20014 6.59335C5.79214 6.98889 6.48812 7.2 7.2001 7.2C8.15475 7.19908 9.07002 6.81937 9.74497 6.14426C10.4199 5.46914 10.7994 4.55377 10.8001 3.59913Z" fill="white"/>
</svg>
