<svg width="127" height="16" viewBox="0 0 127 16" fill="none" xmlns="http://www.w3.org/2000/svg">
<path d="M27.7666 8.53761V8.56355C27.7971 8.95763 27.7402 9.35369 27.6001 9.72197C27.4601 10.0903 27.2405 10.4212 26.9579 10.6899C26.4019 11.2085 25.6438 11.4678 24.6582 11.4678C24.2133 11.4842 23.7698 11.405 23.3564 11.2353C22.943 11.0656 22.5687 10.8092 22.2575 10.4824C21.9503 10.1411 21.7118 9.74098 21.5557 9.30489C21.3995 8.8688 21.3289 8.40538 21.3477 7.9412V6.25569C21.3134 5.32346 21.6301 4.41346 22.2322 3.71446C22.5349 3.39053 22.9005 3.13544 23.3053 2.9657C23.7102 2.79596 24.1453 2.71535 24.5824 2.72909C25.5933 2.72909 26.3767 2.98839 26.9579 3.48108C27.2487 3.74435 27.4756 4.0737 27.6204 4.44287C27.7652 4.81205 27.8239 5.21083 27.7919 5.60741V5.63335H26.1745C26.2106 5.41392 26.195 5.18882 26.129 4.97684C26.063 4.76486 25.9486 4.57215 25.7952 4.4148C25.6419 4.25745 25.4541 4.14002 25.2475 4.07232C25.0409 4.00462 24.8215 3.98862 24.6077 4.02563C24.3779 4.01664 24.1498 4.06931 23.9459 4.17846C23.7421 4.2876 23.5695 4.44944 23.4452 4.64797C23.1463 5.1171 22.9963 5.66964 23.0156 6.22976V7.9412C22.9964 8.50943 23.1463 9.07019 23.4452 9.54892C23.5854 9.74959 23.7719 9.91147 23.988 10.0201C24.2041 10.1287 24.4431 10.1806 24.6835 10.1713C24.8849 10.1877 25.0874 10.1617 25.2787 10.0948C25.4699 10.0279 25.6458 9.92153 25.7954 9.7823C26.0737 9.44336 26.21 9.00523 26.1745 8.56355H27.7666V8.53761ZM36.9148 7.86341C36.9418 8.82413 36.5965 9.75666 35.9545 10.4565C35.6296 10.7953 35.2391 11.0603 34.8081 11.2345C34.3772 11.4087 33.9154 11.4882 33.4526 11.4678C32.9902 11.4857 32.5291 11.405 32.0985 11.2309C31.6679 11.0569 31.2771 10.7932 30.9508 10.4565C30.3088 9.75666 29.9634 8.82413 29.9905 7.86341V6.33349C29.9675 5.37348 30.3123 4.44251 30.9508 3.74039C31.2706 3.40036 31.6561 3.13249 32.0825 2.9539C32.5089 2.77531 32.967 2.68991 33.4274 2.70315C33.8925 2.6814 34.3568 2.76279 34.7885 2.94179C35.2203 3.12078 35.6093 3.39317 35.9292 3.74039C36.2522 4.0833 36.5038 4.48998 36.6689 4.93574C36.834 5.3815 36.909 5.85704 36.8895 6.33349V7.86341H36.9148ZM35.2469 6.30755C35.2741 5.72263 35.1046 5.14588 34.7667 4.67391C34.6091 4.46517 34.4056 4.29763 34.1728 4.18496C33.94 4.0723 33.6846 4.01771 33.4274 4.02563C33.1729 4.01167 32.9191 4.06374 32.6894 4.17705C32.4597 4.29036 32.2615 4.46124 32.1133 4.67391C31.7827 5.14959 31.614 5.72368 31.6331 6.30755V7.83748C31.606 8.43042 31.7752 9.01533 32.1133 9.49705C32.2657 9.70518 32.4646 9.87269 32.6933 9.98551C32.922 10.0983 33.1737 10.1531 33.4274 10.1453C33.6854 10.1592 33.9428 10.1073 34.1765 9.99413C34.4103 9.88101 34.613 9.71022 34.7667 9.49705C35.1073 9.01663 35.2768 8.43078 35.2469 7.83748V6.30755ZM41.2109 11.3382H39.543V2.83281H41.2109V11.3382ZM50.7887 11.3382H49.1208L45.785 5.60741H45.7597V11.3382H44.0918V2.83281H45.7597L49.0955 8.56355H49.1208V2.83281H50.7887V11.3382ZM59.1535 4.15529H56.778V11.3382H55.1101V4.15529H52.7851V2.83281H59.1535V4.15529ZM66.0273 7.6041H62.9442V10.0416H66.6085V11.3382H61.3015V2.83281H66.6085V4.15529H62.9694V6.28162H66.0525V7.6041H66.0273ZM70.6519 10.0416H74.3668V11.3382H68.984V2.83281H70.6519V10.0416V10.0416ZM81.4427 7.6041H78.3596V10.0416H82.0239V11.3382H76.717V2.83281H82.0239V4.15529H78.3849V6.28162H81.468V7.6041H81.4427ZM90.7678 10.1972C90.4555 10.5896 90.0572 10.9006 89.6053 11.1048C88.9861 11.3879 88.3116 11.521 87.6342 11.4937C87.1821 11.5177 86.7302 11.4444 86.3074 11.2786C85.8847 11.1128 85.5003 10.8581 85.1791 10.531C84.8578 10.2038 84.6068 9.8113 84.4421 9.37871C84.2773 8.94612 84.2026 8.48298 84.2225 8.019V6.22976C84.2016 5.76708 84.2739 5.30494 84.4347 4.87218C84.5956 4.43942 84.8417 4.04531 85.1576 3.71446C85.4653 3.39009 85.8353 3.13497 86.2443 2.96533C86.6533 2.79569 87.0922 2.71524 87.5331 2.72909C88.5439 2.72909 89.3273 2.98839 89.858 3.48108C90.1261 3.72679 90.336 4.03202 90.4718 4.37353C90.6075 4.71505 90.6655 5.08384 90.6414 5.45184V5.47776H89.0746C89.0842 5.28352 89.0555 5.08929 88.9904 4.90663C88.9253 4.72398 88.825 4.55665 88.6956 4.4146C88.5447 4.27713 88.3687 4.17191 88.1778 4.10512C87.9869 4.03834 87.7849 4.01131 87.5836 4.02563C87.3467 4.02269 87.1123 4.07482 86.8978 4.17811C86.6834 4.2814 86.4945 4.43317 86.3453 4.62204C86.0305 5.07494 85.8706 5.62198 85.8905 6.1779V7.96713C85.8628 8.53612 86.0329 9.0967 86.3706 9.54892C86.5244 9.7455 86.7214 9.90199 86.9454 10.0056C87.1693 10.1093 87.414 10.1571 87.6594 10.1453C87.9759 10.1535 88.2915 10.1098 88.5945 10.0157C88.7924 9.95548 88.9741 9.84897 89.1252 9.70451V8.04493H87.5331V6.8521H90.7931V10.1972H90.7678ZM95.0639 7.9412V11.3382H93.396V2.83281H96.2769C97.212 2.83281 97.9701 3.06619 98.5008 3.50701C98.7656 3.72847 98.9765 4.01011 99.1168 4.32965C99.2572 4.6492 99.3232 4.99788 99.3095 5.3481C99.3211 5.75461 99.206 6.15431 98.981 6.48907C98.7197 6.82748 98.3812 7.09465 97.9954 7.267C98.4259 7.37824 98.8028 7.64528 99.0568 8.019C99.2809 8.41174 99.3946 8.86052 99.3853 9.31554V9.93788C99.3833 10.1923 99.4173 10.4456 99.4864 10.6899C99.527 10.9138 99.6433 11.1158 99.8149 11.2604V11.39H98.0965C97.927 11.2258 97.8196 11.0053 97.7932 10.7677C97.7441 10.4939 97.7187 10.2162 97.7174 9.93788V9.34148C97.7373 9.16168 97.7179 8.97958 97.6606 8.80845C97.6033 8.63733 97.5094 8.48148 97.386 8.35229C97.2625 8.2231 97.1124 8.12381 96.9468 8.06167C96.7812 7.99952 96.6041 7.97608 96.4286 7.99306H95.0639V7.9412ZM95.0639 6.64465H96.2517C96.6223 6.67294 96.9905 6.5624 97.2878 6.33349C97.409 6.21889 97.5037 6.0779 97.5649 5.92085C97.6262 5.7638 97.6524 5.59469 97.6416 5.4259C97.6473 5.25382 97.6189 5.08233 97.5581 4.92186C97.4973 4.76139 97.4053 4.61527 97.2878 4.49239C97.1501 4.36916 96.9896 4.27578 96.8159 4.21784C96.6422 4.15991 96.4589 4.13864 96.2769 4.15529H95.0639V6.64465ZM106.36 9.52299H103.681L103.125 11.3641H101.382L104.187 2.85874H105.88L108.66 11.3641H106.916L106.36 9.52299ZM104.086 8.17458H105.956L105.046 5.16659H105.021L104.086 8.17458ZM112.349 8.25237V11.3382H110.682V2.83281H113.866C114.826 2.83281 115.559 3.09212 116.115 3.5848C116.385 3.83043 116.597 4.13495 116.737 4.476C116.877 4.81704 116.941 5.18594 116.924 5.55556C116.935 5.92443 116.869 6.2915 116.729 6.63164C116.59 6.97178 116.38 7.27697 116.115 7.52631C115.559 8.019 114.826 8.27831 113.866 8.27831H112.349V8.25237ZM112.349 6.95583H113.866C114.059 6.96783 114.253 6.93956 114.435 6.87271C114.618 6.80586 114.785 6.70182 114.927 6.56686C115.162 6.29572 115.288 5.94391 115.281 5.58149C115.292 5.21054 115.166 4.849 114.927 4.57018C114.788 4.43124 114.621 4.32463 114.438 4.25753C114.254 4.19043 114.059 4.16441 113.866 4.18121H112.349V6.95583ZM126.046 11.3382H124.379V7.81154H120.992V11.3382H119.324V2.83281H120.992V6.48907H124.379V2.83281H126.046V11.3382Z" fill="white"/>
<g clip-path="url(#clip0_5_142092)">
<path d="M10.2691 11.4321L7.50572 12.5908V12.4739C6.95409 12.6001 6.3918 12.6783 5.82562 12.7078C3.21703 12.6865 1.16111 11.3683 1.12795 9.8162V9.24214C1.97906 10.4328 3.72548 11.2407 5.82562 11.2088C6.51564 11.2313 7.20519 11.1525 7.87048 10.975L8.11366 10.4009C7.37297 10.625 6.60205 10.7432 5.82562 10.7517C3.21703 10.7517 1.16111 9.44412 1.12795 7.86014V7.39238C1.97906 8.49798 3.72548 9.29529 5.82562 9.24214C6.73574 9.28776 7.64431 9.12756 8.47842 8.77438L8.6 8.20032C7.7438 8.61229 6.79333 8.80974 5.83667 8.77438C3.22808 8.80628 1.17216 7.49869 1.139 5.88282V5.41506C1.99011 6.54192 3.73654 7.34986 5.83667 7.38175C6.96937 7.35148 8.08029 7.07528 9.08635 6.57382L9.20794 5.88282C8.36788 6.47814 7.14096 6.87148 5.83667 6.92463C3.22808 6.87148 1.17216 5.55326 1.139 3.91613C1.16111 2.3534 3.22808 1.04582 5.83667 1.02456C7.38414 1.04582 8.83212 1.56673 9.68323 2.41719L9.77166 2.55539H10.3796L10.2912 2.41719C9.44006 1.30096 7.72679 0.567438 5.83667 0.567438C2.9407 0.556807 0.641602 2.07701 0.641602 3.9055V9.9225C0.741082 11.7085 2.98491 13.1649 5.81456 13.1649C7.68258 13.1755 9.37374 12.4633 10.2691 11.4321Z" fill="white" stroke="white" stroke-width="0.142857" stroke-miterlimit="10"/>
<path d="M9.1424 15.5035L10.1151 11.5275L7.3186 12.6969L9.02081 5.8082H5.74902L6.60013 2.41699H17.0455L16.1944 5.8082H12.79L12.0605 7.67922L15.8297 6.15902L9.1424 15.5035ZM10.8446 10.7196L10.3583 13.0584L14.3706 7.22209L11.0878 8.62535L12.5468 5.35108H15.8297L16.4376 2.89538H6.95384L6.3459 5.35108H9.62874L8.04812 11.889L10.8446 10.7196Z" fill="white" stroke="white" stroke-width="0.142857" stroke-miterlimit="10"/>
</g>
<defs>
<clipPath id="clip0_5_142092">
<rect width="16.4286" height="15" fill="white" transform="translate(0.629883 0.556641)"/>
</clipPath>
</defs>
</svg>
