<svg width="30" height="21" viewBox="0 0 30 21" fill="none" xmlns="http://www.w3.org/2000/svg">
<path fill-rule="evenodd" clip-rule="evenodd" d="M10.6737 0.18717C8.84634 0.387689 6.70266 1.22449 4.8945 2.44313C4.69729 2.57602 4.51367 2.70244 4.48644 2.72403C4.30473 2.86802 3.61408 4.16127 3.17131 5.18647C1.75921 8.45618 0.874483 12.2901 0.552897 16.5333C0.518589 16.986 0.518749 17.091 0.553853 17.1483C0.640738 17.29 1.45318 18.0687 1.83063 18.3719C3.10205 19.3936 4.54173 20.1108 6.27366 20.5854C7.06069 20.8011 8.10583 20.9759 8.71061 20.9929L8.99537 21.001L9.51365 20.3155C9.79873 19.9384 10.0329 19.6222 10.034 19.6128C10.0351 19.6033 9.8244 19.5122 9.56572 19.4103C8.2898 18.9079 7.14018 18.242 6.06775 17.3842C5.683 17.0765 4.75883 16.2003 4.57744 15.9712C4.48976 15.8605 4.51967 15.876 4.85837 16.1161C6.89649 17.5615 9.08296 18.425 11.7358 18.8321C13.6335 19.1234 15.9524 19.1286 17.8796 18.846C20.376 18.4799 22.5264 17.6725 24.4637 16.3738C24.7092 16.2092 24.9818 16.0208 25.0695 15.9551L25.2289 15.8358L25.1272 15.9654C24.9482 16.1937 24.0274 17.069 23.6334 17.3854C22.5852 18.2271 21.4115 18.907 20.1434 19.4071C19.8891 19.5074 19.6763 19.5937 19.6705 19.599C19.6647 19.6043 19.8951 19.9219 20.1826 20.3048L20.7053 21.001L20.9903 20.9929C21.5986 20.9758 22.6388 20.8013 23.44 20.5822C25.1674 20.1095 26.5913 19.3966 27.8947 18.3515C28.2485 18.0679 29.0663 17.2813 29.1498 17.1444C29.1943 17.0714 29.1818 16.838 29.0694 15.6444C28.7049 11.7724 27.8466 8.23781 26.53 5.18647C26.1288 4.25676 25.4202 2.91964 25.2359 2.74456C25.197 2.70758 24.9643 2.54382 24.7188 2.38064C22.9351 1.19506 20.8376 0.398179 18.9316 0.182005L18.7561 0.162109L18.6032 0.470014C18.5191 0.63935 18.4564 0.78404 18.4639 0.791533C18.4714 0.799026 18.6909 0.861104 18.9517 0.929464C20.6617 1.37766 22.1214 2.08663 23.5 3.13852C23.8659 3.4177 24.5486 3.99623 24.5319 4.01294C24.5253 4.01954 24.1772 3.8541 23.7584 3.64525C20.4849 2.01292 17.9163 1.41598 14.452 1.48249C11.2452 1.54409 8.97736 2.12416 5.87877 3.67542C5.49501 3.86755 5.17559 4.01932 5.16896 4.01272C5.1542 3.99792 5.63103 3.58541 6.08235 3.2225C6.99418 2.48936 7.99541 1.90898 9.06899 1.49123C9.60082 1.2843 10.4088 1.02062 10.8495 0.910174C11.027 0.865728 11.1901 0.818252 11.212 0.804702C11.2417 0.786368 11.2127 0.70111 11.0991 0.472374C10.9331 0.13826 10.9593 0.155828 10.6737 0.18717ZM11.2431 9.398C12.5259 9.8286 13.2103 11.3902 12.7402 12.8137C12.2099 14.4196 10.4831 15.0029 9.26518 13.9877C8.71798 13.5315 8.39365 12.8413 8.3551 12.051C8.3346 11.6307 8.37449 11.3119 8.49013 10.972C8.72158 10.2915 9.15661 9.778 9.73809 9.49895C10.2162 9.26948 10.753 9.23348 11.2431 9.398ZM19.4542 9.3306C20.0937 9.44456 20.6891 9.90219 21.0225 10.5359C21.278 11.0216 21.3742 11.4723 21.346 12.051C21.2979 13.0384 20.7807 13.8927 19.9999 14.2748C19.6948 14.4241 19.4464 14.4828 19.1071 14.4855C17.9383 14.495 16.9748 13.5327 16.8296 12.2107C16.6794 10.8439 17.4866 9.59626 18.6926 9.33076C18.9426 9.27573 19.146 9.2757 19.4542 9.3306Z" fill="#8EFE1C"/>
</svg>
