<svg width="176" height="104" viewBox="0 0 176 104" fill="none" xmlns="http://www.w3.org/2000/svg">
<g clip-path="url(#clip0_5_151263)">
<path d="M2.60652 3.3258e-06C2.33347 -0.000485574 2.06301 0.0529322 1.81065 0.157198C1.55829 0.261464 1.329 0.414529 1.13592 0.607605C0.942846 0.80068 0.789787 1.02997 0.685521 1.28233C0.581255 1.53469 0.527835 1.80515 0.528324 2.0782V12.3393L87.8126 73.8502L175.097 12.3393V2.0782C175.097 1.80515 175.044 1.53469 174.94 1.28233C174.835 1.02997 174.682 0.80068 174.489 0.607605C174.296 0.414529 174.067 0.261464 173.815 0.157198C173.562 0.0529322 173.292 -0.000485574 173.019 3.3258e-06H2.60652ZM0.528324 22.5373V98.2431L47.0948 55.332L0.528324 22.5373ZM175.097 22.5373L128.53 55.332L175.097 98.2616V22.5373ZM53.9751 60.2047L6.63303 103.91H168.992L121.65 60.2047L90.2174 82.3486C89.5132 82.8504 88.67 83.1202 87.8052 83.1202C86.9404 83.1202 86.0972 82.8504 85.393 82.3486L53.9603 60.2047H53.9751Z" fill="#8EFE1C"/>
</g>
<defs>
<clipPath id="clip0_5_151263">
<rect width="174.569" height="103.91" fill="white" transform="translate(0.52832)"/>
</clipPath>
</defs>
</svg>
