<svg width="22" height="22" viewBox="0 0 22 22" fill="none" xmlns="http://www.w3.org/2000/svg">
<circle cx="11.0824" cy="10.9164" r="10.4808" fill="#8EFE1C"/>
<path fill-rule="evenodd" clip-rule="evenodd" d="M6.96936 6.1489C6.87537 6.18649 6.9022 6.16154 6.3756 6.70099C6.28154 6.79734 6.10648 6.9761 5.98657 7.09823C5.28248 7.81536 5.23353 7.86744 5.20212 7.93288C5.18799 7.96232 5.17203 8.00713 5.16665 8.03245C5.14328 8.14263 5.19106 8.28214 5.28241 8.3704C5.32556 8.4121 5.34746 8.42567 5.4193 8.45521C5.45089 8.46821 5.81802 8.46909 10.2958 8.46697L15.1381 8.46467L15.1894 8.44013C15.2347 8.4184 15.3336 8.32276 16.0547 7.60319C16.5025 7.15636 16.8853 6.76964 16.9055 6.74381C16.9438 6.69464 16.9783 6.62748 16.9789 6.60123C16.979 6.59275 16.9846 6.5762 16.9914 6.56446C17.005 6.54068 17.0086 6.45716 16.9963 6.44959C16.992 6.44693 16.9845 6.426 16.9795 6.40308C16.971 6.36313 16.9271 6.28018 16.8954 6.24411C16.8694 6.21445 16.7885 6.16623 16.733 6.1472L16.6796 6.12891L11.848 6.1295L7.01633 6.13011L6.96936 6.1489ZM5.44492 9.75826C5.33033 9.79306 5.28138 9.82805 5.22406 9.91614C5.17697 9.98852 5.16308 10.0354 5.1632 10.1215C5.16337 10.2415 5.18443 10.2874 5.29052 10.399C5.43984 10.5562 5.61328 10.7346 6.02147 11.1506C6.24038 11.3737 6.51342 11.6535 6.62824 11.7724C6.83851 11.9902 6.88742 12.0321 6.96841 12.064L7.01262 12.0814L11.85 12.0815C16.2679 12.0815 16.691 12.0803 16.7284 12.0678C16.8488 12.0275 16.9561 11.9168 16.9792 11.8089C16.9843 11.785 16.992 11.7655 16.9963 11.7655C17.0006 11.7655 17.0042 11.7386 17.0042 11.7057C17.0042 11.6728 17.0005 11.6459 16.996 11.6459C16.9915 11.6459 16.9852 11.6315 16.9821 11.6139C16.9749 11.5745 16.9504 11.5245 16.9162 11.4794C16.9019 11.4606 16.5325 11.0866 16.0953 10.6483C15.2983 9.84935 15.2455 9.79982 15.1507 9.76132C15.114 9.74639 14.9296 9.74573 10.3043 9.74425C5.67504 9.74276 5.49426 9.74328 5.44492 9.75826ZM7.07184 13.3594C7.00447 13.3694 6.95102 13.3862 6.90858 13.4109C6.86438 13.4367 6.50355 13.7972 5.97869 14.3402C5.91058 14.4107 5.76974 14.5548 5.66571 14.6605C5.23942 15.0939 5.22252 15.1131 5.1826 15.2098C5.15694 15.272 5.15662 15.3812 5.18192 15.4463C5.21252 15.5251 5.22733 15.5486 5.27681 15.5973C5.32575 15.6455 5.38818 15.6828 5.44065 15.6951C5.48802 15.7063 15.0436 15.7044 15.1046 15.6932C15.2121 15.6736 15.1885 15.6952 16.0917 14.7907C16.9876 13.8935 16.9648 13.9184 16.9821 13.8216C16.9853 13.8039 16.9915 13.7895 16.996 13.7895C17.009 13.7895 17.0055 13.7 16.9914 13.6731C16.9844 13.6596 16.9786 13.6424 16.9786 13.6347C16.9785 13.6083 16.9354 13.5267 16.9008 13.4874C16.8623 13.4437 16.7824 13.3952 16.7125 13.3732C16.67 13.3599 16.3394 13.3588 11.88 13.3576C9.24726 13.3568 7.08359 13.3577 7.07184 13.3594Z" fill="black"/>
</svg>
