<svg width="17" height="17" viewBox="0 0 17 17" fill="none" xmlns="http://www.w3.org/2000/svg">
<circle cx="8.84361" cy="9.04478" r="7.869" fill="black"/>
<path d="M9.52414 10.7915L9.61858 5.20187H7.93637L8.03081 10.7915H9.52414ZM7.81832 12.9932C7.81832 13.245 7.90292 13.4575 8.07212 13.6306C8.24133 13.7998 8.47546 13.8844 8.77452 13.8844C9.06571 13.8844 9.29787 13.7998 9.47101 13.6306C9.64415 13.4575 9.73072 13.245 9.73072 12.9932C9.73072 12.7335 9.64415 12.517 9.47101 12.3439C9.29787 12.1707 9.06571 12.0842 8.77452 12.0842C8.47546 12.0842 8.24133 12.1707 8.07212 12.3439C7.90292 12.517 7.81832 12.7335 7.81832 12.9932Z" fill="#8EFE1C"/>
</svg>
