<svg width="22" height="21" viewBox="0 0 22 21" fill="none" xmlns="http://www.w3.org/2000/svg">
<circle cx="10.6342" cy="10.4806" r="10.4806" fill="#8EFE1C"/>
<path d="M11.5688 4.47932V6.55398H10.4501V4.47932H11.5688ZM11.4272 16.0422V17.9469H10.3085V16.0422H11.4272ZM12.0503 13.6985C12.0503 13.4341 12.0055 13.2123 11.9158 13.0329C11.8308 12.8535 11.6892 12.6954 11.491 12.5585C11.2927 12.4216 11.0307 12.287 10.705 12.1549C10.0819 11.9094 9.5343 11.6545 9.06225 11.3901C8.5902 11.1211 8.222 10.7859 7.95765 10.3847C7.69331 9.98343 7.56113 9.4689 7.56113 8.84107C7.56113 8.25573 7.70275 7.74827 7.98598 7.31871C8.26921 6.88442 8.66101 6.54926 9.16138 6.31324C9.66648 6.07721 10.2495 5.9592 10.9103 5.9592C11.4154 5.9592 11.8757 6.03473 12.2911 6.18579C12.7065 6.33684 13.0629 6.55398 13.3603 6.83721C13.6624 7.12045 13.8937 7.46976 14.0542 7.88517C14.2147 8.29585 14.2949 8.76554 14.2949 9.29424H12.0787C12.0787 9.01573 12.0503 8.77498 11.9937 8.572C11.937 8.3643 11.8544 8.19436 11.7459 8.06219C11.6373 7.92529 11.5098 7.8238 11.3635 7.75771C11.2219 7.69163 11.0614 7.65858 10.882 7.65858C10.6224 7.65858 10.41 7.71287 10.2447 7.82144C10.0795 7.92529 9.95915 8.06691 9.88362 8.24629C9.80809 8.42566 9.77033 8.62629 9.77033 8.84815C9.77033 9.07473 9.81045 9.273 9.8907 9.44293C9.97567 9.61287 10.1173 9.76865 10.3155 9.91026C10.5138 10.0519 10.7852 10.1959 11.1298 10.3422C11.7435 10.5924 12.2864 10.8567 12.7584 11.1352C13.2305 11.409 13.5987 11.7465 13.863 12.1478C14.1321 12.5443 14.2666 13.0565 14.2666 13.6843C14.2666 14.298 14.1226 14.8196 13.8347 15.2492C13.5515 15.6787 13.1526 16.0068 12.638 16.2334C12.1282 16.4552 11.5382 16.5662 10.8678 16.5662C10.4194 16.5662 9.97567 16.5095 9.53666 16.3962C9.10238 16.2782 8.70585 16.087 8.3471 15.8227C7.98834 15.5583 7.70275 15.2067 7.49032 14.7677C7.2779 14.3287 7.17169 13.7905 7.17169 13.1533H9.38797C9.38797 13.4837 9.42809 13.7598 9.50834 13.9817C9.59331 14.1988 9.70424 14.3735 9.84114 14.5057C9.98275 14.6331 10.1409 14.7252 10.3155 14.7818C10.4949 14.8385 10.679 14.8668 10.8678 14.8668C11.1369 14.8668 11.3588 14.8149 11.5334 14.711C11.7081 14.6072 11.8379 14.4679 11.9229 14.2933C12.0078 14.1139 12.0503 13.9156 12.0503 13.6985Z" fill="black"/>
</svg>
