<svg width="17" height="18" viewBox="0 0 17 18" fill="none" xmlns="http://www.w3.org/2000/svg">
<circle cx="8.41587" cy="9.15415" r="7.869" fill="#8EFE1C"/>
<path d="M9.0964 10.9011L9.19084 5.31149H7.50863L7.60307 10.9011H9.0964ZM7.39058 13.1028C7.39058 13.3546 7.47518 13.5671 7.64439 13.7402C7.81359 13.9095 8.04773 13.9941 8.34679 13.9941C8.63798 13.9941 8.87014 13.9095 9.04328 13.7402C9.21642 13.5671 9.30299 13.3546 9.30299 13.1028C9.30299 12.8431 9.21642 12.6266 9.04328 12.4535C8.87014 12.2804 8.63798 12.1938 8.34679 12.1938C8.04773 12.1938 7.81359 12.2804 7.64439 12.4535C7.47518 12.6266 7.39058 12.8431 7.39058 13.1028Z" fill="black"/>
</svg>
