<svg width="25" height="25" viewBox="0 0 25 25" fill="none" xmlns="http://www.w3.org/2000/svg">
<path d="M0 0V24.1798H24.2999V7.54125L16.7587 0H0Z" fill="#8EFE1C"/>
<path d="M3.6001 8.7059H5.3401V15.4019H3.6001V8.7059ZM3.6001 8.7059H5.3401V15.4019H3.6001V8.7059ZM8.6281 11.7899C8.4781 10.7639 8.4001 10.1999 8.4001 10.0859C8.3281 9.5399 8.2621 9.0659 8.1901 8.6579H5.9161V15.3539H7.4401V10.9319L8.0821 15.3539H9.1681L9.7681 10.8359V15.3539H11.2921V8.6579H9.0301L8.6281 11.7899ZM8.6281 11.7899C8.4781 10.7639 8.4001 10.1999 8.4001 10.0859C8.3281 9.5399 8.2621 9.0659 8.1901 8.6579H5.9161V15.3539H7.4401V10.9319L8.0821 15.3539H9.1681L9.7681 10.8359V15.3539H11.2921V8.6579H9.0301L8.6281 11.7899ZM14.1721 10.0499C14.1986 10.2487 14.2086 10.4494 14.2021 10.6499V13.2479C14.2228 13.5247 14.1944 13.803 14.1181 14.0699C14.0581 14.1659 13.9021 14.2199 13.6561 14.2199V9.8039C13.7871 9.79244 13.9189 9.81303 14.0401 9.8639C14.0746 9.88306 14.1044 9.90972 14.1272 9.94191C14.1501 9.9741 14.1654 10.011 14.1721 10.0499V10.0499ZM14.9581 15.2879C15.1485 15.25 15.3274 15.1678 15.4801 15.0479C15.6282 14.9271 15.7316 14.7602 15.7741 14.5739C15.8538 14.1792 15.886 13.7763 15.8701 13.3739V11.0159C15.8786 10.5909 15.8565 10.1658 15.8041 9.7439C15.7604 9.50375 15.6446 9.28262 15.472 9.11002C15.2994 8.93742 15.0783 8.82156 14.8381 8.7779C14.3025 8.67537 13.7569 8.6351 13.2121 8.6579H11.9161V15.3539H14.0221C14.3353 15.3548 14.6481 15.3328 14.9581 15.2879V15.2879ZM14.1721 10.0499C14.1986 10.2487 14.2086 10.4494 14.2021 10.6499V13.2479C14.2228 13.5247 14.1944 13.803 14.1181 14.0699C14.0581 14.1659 13.9021 14.2199 13.6561 14.2199V9.8039C13.7871 9.79244 13.9189 9.81303 14.0401 9.8639C14.0746 9.88306 14.1044 9.90972 14.1272 9.94191C14.1501 9.9741 14.1654 10.011 14.1721 10.0499V10.0499ZM14.9581 15.2879C15.1485 15.25 15.3274 15.1678 15.4801 15.0479C15.6282 14.9271 15.7316 14.7602 15.7741 14.5739C15.8538 14.1792 15.886 13.7763 15.8701 13.3739V11.0159C15.8786 10.5909 15.8565 10.1658 15.8041 9.7439C15.7604 9.50375 15.6446 9.28262 15.472 9.11002C15.2994 8.93742 15.0783 8.82156 14.8381 8.7779C14.3025 8.67537 13.7569 8.6351 13.2121 8.6579H11.9161V15.3539H14.0221C14.3353 15.3548 14.6481 15.3328 14.9581 15.2879V15.2879ZM18.6721 14.2859C18.6421 14.3699 18.5041 14.4119 18.3961 14.4119C18.3529 14.4169 18.3092 14.408 18.2714 14.3864C18.2336 14.3648 18.2037 14.3317 18.1861 14.2919C18.1413 14.1075 18.1251 13.9172 18.1381 13.7279V11.9579C18.1273 11.7709 18.1414 11.5832 18.1801 11.3999C18.1968 11.3611 18.2259 11.3289 18.2628 11.3083C18.2996 11.2877 18.3423 11.2798 18.3841 11.2859C18.4861 11.2859 18.6301 11.3279 18.6661 11.4119C18.7131 11.5939 18.7314 11.7822 18.7201 11.9699V13.6859C18.7233 13.887 18.7073 14.0879 18.6721 14.2859V14.2859ZM16.4581 15.2939H18.0001C18.0661 15.0419 18.1021 14.8979 18.1081 14.8679C18.2331 15.0377 18.3983 15.1737 18.5889 15.2638C18.7796 15.3538 18.9896 15.3951 19.2001 15.3839C19.455 15.3896 19.7051 15.3139 19.9141 15.1679C20.0957 15.0471 20.2294 14.8667 20.2921 14.6579C20.3572 14.3625 20.3854 14.0602 20.3761 13.7579V11.8799C20.3913 11.6161 20.3913 11.3517 20.3761 11.0879C20.3563 10.9509 20.3027 10.821 20.2201 10.7099C20.1219 10.5742 19.9864 10.47 19.8301 10.4099C19.6395 10.3335 19.4354 10.2968 19.2301 10.3019C19.0244 10.3041 18.8209 10.3448 18.6301 10.4219C18.4509 10.5054 18.2929 10.6285 18.1681 10.7819V8.5979H16.4881L16.4581 15.2939ZM18.6721 14.2859C18.6421 14.3699 18.5041 14.4119 18.3961 14.4119C18.3529 14.4169 18.3092 14.408 18.2714 14.3864C18.2336 14.3648 18.2037 14.3317 18.1861 14.2919C18.1413 14.1075 18.1251 13.9172 18.1381 13.7279V11.9579C18.1273 11.7709 18.1414 11.5832 18.1801 11.3999C18.1968 11.3611 18.2259 11.3289 18.2628 11.3083C18.2996 11.2877 18.3423 11.2798 18.3841 11.2859C18.4861 11.2859 18.6301 11.3279 18.6661 11.4119C18.7131 11.5939 18.7314 11.7822 18.7201 11.9699V13.6859C18.7233 13.887 18.7073 14.0879 18.6721 14.2859V14.2859ZM16.4581 15.2939H18.0001C18.0661 15.0419 18.1021 14.8979 18.1081 14.8679C18.2331 15.0377 18.3983 15.1737 18.5889 15.2638C18.7796 15.3538 18.9896 15.3951 19.2001 15.3839C19.455 15.3896 19.7051 15.3139 19.9141 15.1679C20.0957 15.0471 20.2294 14.8667 20.2921 14.6579C20.3572 14.3625 20.3854 14.0602 20.3761 13.7579V11.8799C20.3913 11.6161 20.3913 11.3517 20.3761 11.0879C20.3563 10.9509 20.3027 10.821 20.2201 10.7099C20.1219 10.5742 19.9864 10.47 19.8301 10.4099C19.6395 10.3335 19.4354 10.2968 19.2301 10.3019C19.0244 10.3041 18.8209 10.3448 18.6301 10.4219C18.4509 10.5054 18.2929 10.6285 18.1681 10.7819V8.5979H16.4881L16.4581 15.2939Z" fill="black"/>
</svg>
