<svg width="33" height="33" viewBox="0 0 33 33" fill="none" xmlns="http://www.w3.org/2000/svg">
<path d="M0 0.000488281V32.4733H32.6341V10.1282L22.5064 0.000488281H0Z" fill="#7F1CFE"/>
<path d="M15.7136 9.99695C18.1251 9.99695 18.4108 10.0062 19.3631 10.0496C20.2437 10.0898 20.7219 10.2369 21.0402 10.3606C21.4618 10.5244 21.7626 10.7201 22.0787 11.0362C22.3947 11.3522 22.5904 11.6531 22.7543 12.0747C22.878 12.3929 23.0251 12.8711 23.0653 13.7517C23.1087 14.7041 23.1179 14.9897 23.1179 17.4013C23.1179 19.8128 23.1087 20.0985 23.0653 21.0508C23.0251 21.9314 22.878 22.4096 22.7543 22.7279C22.5904 23.1495 22.3947 23.4503 22.0787 23.7664C21.7626 24.0824 21.4618 24.2781 21.0402 24.442C20.7219 24.5657 20.2437 24.7128 19.3631 24.7529C18.4109 24.7964 18.1253 24.8056 15.7136 24.8056C13.3018 24.8056 13.0162 24.7964 12.064 24.7529C11.1834 24.7128 10.7052 24.5657 10.3869 24.442C9.96536 24.2781 9.6645 24.0824 9.34847 23.7664C9.03244 23.4503 8.83669 23.1495 8.67285 22.7279C8.54916 22.4096 8.40203 21.9314 8.36188 21.0508C8.31843 20.0985 8.30921 19.8128 8.30921 17.4013C8.30921 14.9897 8.31843 14.7041 8.36188 13.7517C8.40203 12.8711 8.54916 12.3929 8.67285 12.0747C8.83669 11.6531 9.0324 11.3522 9.34847 11.0362C9.6645 10.7201 9.96536 10.5244 10.3869 10.3606C10.7052 10.2369 11.1834 10.0898 12.064 10.0496C13.0163 10.0062 13.302 9.99695 15.7136 9.99695ZM15.7136 8.36963C13.2607 8.36963 12.9531 8.38003 11.9898 8.42398C11.0285 8.46783 10.372 8.62052 9.79747 8.84376C9.20356 9.07457 8.69988 9.38339 8.19775 9.88549C7.69565 10.3876 7.38683 10.8913 7.15605 11.4852C6.93277 12.0597 6.78008 12.7162 6.73624 13.6775C6.69228 14.6409 6.68188 14.9484 6.68188 17.4013C6.68188 19.8541 6.69228 20.1617 6.73624 21.125C6.78008 22.0863 6.93277 22.7429 7.15605 23.3174C7.38683 23.9113 7.69565 24.4149 8.19775 24.9171C8.69988 25.4192 9.20356 25.728 9.79747 25.9588C10.372 26.182 11.0285 26.3347 11.9898 26.3786C12.9531 26.4225 13.2607 26.4329 15.7136 26.4329C18.1664 26.4329 18.474 26.4225 19.4373 26.3786C20.3986 26.3347 21.0552 26.182 21.6297 25.9588C22.2236 25.728 22.7272 25.4192 23.2294 24.9171C23.7315 24.4149 24.0403 23.9113 24.2711 23.3174C24.4944 22.7429 24.647 22.0863 24.6909 21.125C24.7348 20.1617 24.7452 19.8541 24.7452 17.4013C24.7452 14.9484 24.7348 14.6409 24.6909 13.6775C24.647 12.7162 24.4944 12.0597 24.2711 11.4852C24.0403 10.8913 23.7315 10.3876 23.2294 9.88549C22.7272 9.38339 22.2236 9.07457 21.6297 8.84376C21.0552 8.62052 20.3986 8.46783 19.4373 8.42398C18.474 8.38003 18.1664 8.36963 15.7136 8.36963Z" fill="white"/>
<path d="M15.7136 12.7681C13.1521 12.7681 11.0757 14.8445 11.0757 17.4059C11.0757 19.9674 13.1521 22.0438 15.7136 22.0438C18.275 22.0438 20.3515 19.9674 20.3515 17.4059C20.3515 14.8445 18.275 12.7681 15.7136 12.7681ZM15.7136 20.4165C14.0509 20.4165 12.703 19.0686 12.703 17.4059C12.703 15.7433 14.0509 14.3954 15.7136 14.3954C17.3763 14.3954 18.7241 15.7433 18.7241 17.4059C18.7241 19.0686 17.3763 20.4165 15.7136 20.4165Z" fill="white"/>
<path d="M21.6217 12.5819C21.6217 13.1804 21.1365 13.6657 20.5379 13.6657C19.9393 13.6657 19.4541 13.1804 19.4541 12.5819C19.4541 11.9833 19.9393 11.498 20.5379 11.498C21.1365 11.498 21.6217 11.9833 21.6217 12.5819Z" fill="white"/>
</svg>
