<svg width="33" height="34" viewBox="0 0 33 34" fill="none" xmlns="http://www.w3.org/2000/svg">
<path d="M0.0585938 0.640976V33.1138H32.6927V10.7687L22.565 0.640976H0.0585938Z" fill="#8EFE1C"/>
<path d="M15.7719 10.6375C18.1835 10.6375 18.4691 10.6467 19.4215 10.6901C20.3021 10.7303 20.7803 10.8774 21.0985 11.0011C21.5201 11.1649 21.821 11.3606 22.137 11.6767C22.4531 11.9927 22.6488 12.2936 22.8126 12.7152C22.9363 13.0334 23.0834 13.5116 23.1236 14.3922C23.1671 15.3446 23.1763 15.6302 23.1763 18.0418C23.1763 20.4533 23.1671 20.739 23.1236 21.6913C23.0834 22.5719 22.9363 23.0501 22.8126 23.3684C22.6488 23.79 22.4531 24.0908 22.137 24.4069C21.821 24.7229 21.5201 24.9186 21.0985 25.0825C20.7803 25.2062 20.3021 25.3533 19.4215 25.3934C18.4693 25.4369 18.1837 25.4461 15.7719 25.4461C13.3602 25.4461 13.0746 25.4369 12.1223 25.3934C11.2418 25.3533 10.7635 25.2062 10.4453 25.0825C10.0237 24.9186 9.72285 24.7229 9.40682 24.4069C9.09079 24.0908 8.89504 23.79 8.7312 23.3684C8.60751 23.0501 8.46038 22.5719 8.42023 21.6913C8.37678 20.739 8.36756 20.4533 8.36756 18.0418C8.36756 15.6302 8.37678 15.3446 8.42023 14.3922C8.46038 13.5116 8.60751 13.0334 8.7312 12.7152C8.89504 12.2936 9.09075 11.9927 9.40682 11.6767C9.72285 11.3606 10.0237 11.1649 10.4453 11.0011C10.7635 10.8774 11.2418 10.7303 12.1223 10.6901C13.0747 10.6467 13.3604 10.6375 15.7719 10.6375ZM15.7719 9.01013C13.3191 9.01013 13.0115 9.02053 12.0482 9.06448C11.0868 9.10833 10.4303 9.26102 9.85582 9.48426C9.26191 9.71507 8.75823 10.0239 8.2561 10.526C7.754 11.0281 7.44518 11.5318 7.2144 12.1257C6.99112 12.7002 6.83843 13.3567 6.79458 14.318C6.75063 15.2814 6.74023 15.5889 6.74023 18.0418C6.74023 20.4946 6.75063 20.8022 6.79458 21.7655C6.83843 22.7268 6.99112 23.3834 7.2144 23.9579C7.44518 24.5518 7.754 25.0554 8.2561 25.5576C8.75823 26.0597 9.26191 26.3685 9.85582 26.5993C10.4303 26.8225 11.0868 26.9752 12.0482 27.0191C13.0115 27.063 13.3191 27.0734 15.7719 27.0734C18.2248 27.0734 18.5323 27.063 19.4957 27.0191C20.457 26.9752 21.1135 26.8225 21.688 26.5993C22.2819 26.3685 22.7856 26.0597 23.2877 25.5576C23.7898 25.0554 24.0986 24.5518 24.3295 23.9579C24.5527 23.3834 24.7054 22.7268 24.7492 21.7655C24.7932 20.8022 24.8036 20.4946 24.8036 18.0418C24.8036 15.5889 24.7932 15.2814 24.7492 14.318C24.7054 13.3567 24.5527 12.7002 24.3295 12.1257C24.0986 11.5318 23.7898 11.0281 23.2877 10.526C22.7856 10.0239 22.2819 9.71507 21.688 9.48426C21.1135 9.26102 20.457 9.10833 19.4957 9.06448C18.5323 9.02053 18.2248 9.01013 15.7719 9.01013Z" fill="black"/>
<path d="M15.7727 13.4088C13.2112 13.4088 11.1348 15.4852 11.1348 18.0467C11.1348 20.6081 13.2112 22.6846 15.7727 22.6846C18.3341 22.6846 20.4105 20.6081 20.4105 18.0467C20.4105 15.4852 18.3341 13.4088 15.7727 13.4088ZM15.7727 21.0572C14.11 21.0572 12.7621 19.7094 12.7621 18.0467C12.7621 16.384 14.11 15.0361 15.7727 15.0361C17.4353 15.0361 18.7832 16.384 18.7832 18.0467C18.7832 19.7094 17.4353 21.0572 15.7727 21.0572Z" fill="black"/>
<path d="M21.6802 13.2222C21.6802 13.8208 21.1949 14.306 20.5964 14.306C19.9978 14.306 19.5126 13.8208 19.5126 13.2222C19.5126 12.6237 19.9978 12.1384 20.5964 12.1384C21.1949 12.1384 21.6802 12.6237 21.6802 13.2222Z" fill="black"/>
</svg>
