<svg width="22" height="22" viewBox="0 0 22 22" fill="none" xmlns="http://www.w3.org/2000/svg">
<path fill-rule="evenodd" clip-rule="evenodd" d="M1.80726 0.111377C0.522952 0.565088 -0.245181 1.90418 0.071029 3.13842C0.285289 3.97473 0.786461 4.60024 1.51815 4.94468C2.83605 5.56495 4.36606 4.9922 5.00723 3.63857C5.1869 3.2593 5.19869 3.19374 5.19869 2.5762C5.19869 1.93545 5.19279 1.90615 4.97484 1.46512C4.7055 0.920182 4.27828 0.502441 3.69821 0.21684C3.34859 0.0447408 3.23598 0.0199677 2.73207 0.0041274C2.27205 -0.0103432 2.09304 0.0104403 1.80726 0.111377ZM15.3519 6.982C14.1386 7.24033 13.0082 7.97011 12.3981 8.88902C12.2776 9.07059 12.156 9.21911 12.1278 9.21911C12.0997 9.21911 12.0767 8.77695 12.0767 8.23654V7.25396H9.9329H7.78911L7.7866 11.4373C7.78518 13.7382 7.78005 15.8351 7.77517 16.0971C7.77023 16.3591 7.77136 17.7593 7.77767 19.2086L7.78911 21.8437H10.0183H12.2474L12.2694 17.6603C12.2891 13.9021 12.3022 13.4285 12.3983 13.0005C12.6763 11.7627 13.2691 11.1171 14.3176 10.9101C15.5182 10.673 16.5587 11.0642 16.9713 11.9077C17.3481 12.6779 17.3365 12.5142 17.3611 17.3923L17.3835 21.8437H19.643H21.9024L21.9022 17.3626C21.9021 14.7722 21.8761 12.5925 21.8407 12.1966C21.5727 9.20565 20.4943 7.64467 18.2997 7.07115C17.6771 6.90846 15.9437 6.85605 15.3519 6.982ZM0.345375 14.5488V21.8437H2.60827H4.87116V14.5488V7.25396H2.60827H0.345375V14.5488Z" fill="white"/>
</svg>
