<svg width="31" height="31" viewBox="0 0 31 31" fill="none" xmlns="http://www.w3.org/2000/svg">
<path fill-rule="evenodd" clip-rule="evenodd" d="M2.99158 0.967856C0.697275 2.00992 0.059602 4.94784 1.71853 6.83248C2.73059 7.98226 4.45898 8.36435 5.85624 7.74722C8.797 6.44822 8.82755 2.31416 5.90625 0.9934C5.11085 0.633746 3.75332 0.621852 2.99158 0.967856ZM21.4415 10.4825C20.2002 10.9057 19.0944 11.6056 18.3444 12.4425L17.7039 13.1573L17.6181 12.4425C17.5708 12.0494 17.5316 11.4997 17.531 11.2209L17.5298 10.7141H14.5563H11.5829V20.7833V30.8525H14.5563H17.5298L17.5399 27.5074C17.5456 25.6675 17.5951 22.8546 17.65 21.2564C17.7611 18.0266 17.7885 17.9184 18.7681 16.8558C19.4834 16.0797 20.3257 15.7944 21.6509 15.8795C22.9504 15.9629 23.6418 16.4077 24.2156 17.5299C24.6137 18.3082 24.624 18.3786 24.7133 20.9731C24.7634 22.4298 24.8099 25.2485 24.8164 27.2371L24.8283 30.8525H27.8694H30.9104V23.6432C30.9104 16.9577 30.8913 16.3596 30.6489 15.4116C30.2949 14.0272 29.8035 13.1064 28.9295 12.1903C27.603 10.7995 25.9553 10.1761 23.6119 10.179C22.6401 10.1801 22.1123 10.2539 21.4415 10.4825ZM1.40104 10.8042C1.35144 10.8537 1.31089 15.3848 1.31089 20.8735V30.8525H4.41952H7.52814V20.7833V10.7141H4.50967C2.84939 10.7141 1.45051 10.7546 1.40104 10.8042Z" fill="#8EFE1C"/>
</svg>
