<svg width="34" height="34" viewBox="0 0 34 34" fill="none" xmlns="http://www.w3.org/2000/svg">
<path d="M0.517578 0.558594V33.0314H33.1517V10.6863L23.024 0.558594H0.517578Z" fill="#8EFE1C"/>
<path d="M8.77001 9.88703C9.09635 9.55518 9.49884 9.35348 9.97045 9.28547C10.3648 9.22861 10.8472 9.27167 11.2034 9.39553C11.6404 9.54752 12.032 9.88314 12.2378 10.282C12.4098 10.6155 12.4701 10.8673 12.4677 11.2413C12.4641 11.8066 12.3043 12.1957 11.9175 12.5808C11.6546 12.8424 11.4253 12.9776 11.0572 13.0879C10.7535 13.1788 10.1773 13.2032 9.85875 13.1387C8.83256 12.9308 8.18909 12.1224 8.24785 11.115C8.27684 10.6177 8.44854 10.2139 8.77001 9.88703Z" fill="black"/>
<path d="M18.9043 14.9531C19.3947 14.6175 19.8803 14.441 20.6228 14.3284C20.7658 14.3067 21.5618 14.3138 21.7608 14.3386C22.6654 14.451 23.4344 14.7963 24.025 15.3554C24.8308 16.1181 25.2829 17.2003 25.3985 18.6435C25.4147 18.8457 25.4246 20.2439 25.4246 22.327V25.6846H23.5292H21.6337L21.6337 22.5192C21.6336 20.3749 21.6246 19.2805 21.6058 19.1264C21.4937 18.2078 21.1158 17.635 20.4754 17.4128C20.1698 17.3068 19.7314 17.2882 19.4006 17.3673C18.8488 17.4992 18.3971 17.8786 18.1109 18.4502C17.9214 18.8288 17.9341 18.5633 17.9252 22.317L17.9173 25.6846H16.0288H14.1404V20.1246V14.5647L16.0291 14.5647H17.9179L17.9246 15.2617L17.9313 15.9587L18.0564 15.7861C18.2285 15.5488 18.6753 15.1097 18.9043 14.9531Z" fill="black"/>
<path d="M8.46674 25.6846V20.1246V14.5647H10.3495H12.2323V20.1246V25.6846H10.3495H8.46674Z" fill="black"/>
</svg>
