<svg width="35" height="20" viewBox="0 0 35 20" fill="none" xmlns="http://www.w3.org/2000/svg">
<path fill-rule="evenodd" clip-rule="evenodd" d="M7.59203 1.24024C1.55587 2.96953 -1.22824 9.86149 1.94083 15.2301C3.07202 17.1464 4.93793 18.6712 7.05448 19.4086C8.42433 19.886 11.0262 19.9915 12.4305 19.6267C15.9709 18.7071 18.681 15.9032 19.4254 12.3893C20.481 7.40625 17.4249 2.47808 12.4852 1.19813C11.2301 0.872957 8.80114 0.893856 7.59203 1.24024ZM23.9509 1.71724C22.663 2.39817 21.5038 4.22505 20.8559 6.59454C20.3798 8.33598 20.3798 12.4741 20.8559 14.2155C21.7403 17.4501 23.3954 19.395 25.2636 19.395C26.7429 19.395 27.869 18.468 28.8848 16.4146C30.5314 13.0856 30.5314 7.72451 28.8848 4.39547C28.2068 3.02516 27.2893 1.96788 26.4867 1.63257C25.7677 1.33213 24.6057 1.37086 23.9509 1.71724ZM31.8682 2.8071C31.0149 4.4574 30.5492 9.03381 30.8477 12.8395C31.0344 15.2199 31.4087 17.1144 31.8682 18.003C32.2249 18.6925 32.7773 18.647 33.1569 17.8966C34.5829 15.0776 34.5829 5.73243 33.1569 2.91344C32.7773 2.16305 32.2249 2.11756 31.8682 2.8071Z" fill="white"/>
</svg>
