<svg width="35" height="20" viewBox="0 0 35 20" fill="none" xmlns="http://www.w3.org/2000/svg">
<path fill-rule="evenodd" clip-rule="evenodd" d="M7.49805 1.20997C1.46188 2.93933 -1.32223 9.83153 1.84684 15.2003C2.97803 17.1167 4.84394 18.6415 6.9605 19.379C8.33035 19.8563 10.9322 19.9619 12.3365 19.5971C15.877 18.6775 18.587 15.8734 19.3314 12.3594C20.387 7.3762 17.3309 2.44786 12.3912 1.16787C11.1361 0.84268 8.70716 0.86358 7.49805 1.20997ZM23.857 1.68699C22.569 2.36795 21.4099 4.19489 20.762 6.56447C20.2859 8.30596 20.2859 12.4442 20.762 14.1857C21.6464 17.4204 23.3014 19.3653 25.1697 19.3653C26.6489 19.3653 27.7751 18.4383 28.7908 16.3849C30.4375 13.0557 30.4375 7.69447 28.7908 4.36531C28.1128 2.99496 27.1954 1.93764 26.3928 1.60232C25.6737 1.30187 24.5118 1.3406 23.857 1.68699ZM31.7743 2.77689C30.9209 4.42725 30.4553 9.00381 30.7537 12.8097C30.9404 15.1902 31.3148 17.0847 31.7743 17.9733C32.131 18.6629 32.6834 18.6174 33.063 17.867C34.4889 15.0479 34.4889 5.70232 33.063 2.88323C32.6834 2.13282 32.131 2.08733 31.7743 2.77689Z" fill="#8EFE1C"/>
</svg>
