<svg width="239" height="167" viewBox="0 0 239 167" fill="none" xmlns="http://www.w3.org/2000/svg">
<g opacity="0.3">
<path d="M10.9316 0V8.37389" stroke="#323232" stroke-width="1.5"/>
<path d="M10.9316 13.4883V21.8622" stroke="#323232" stroke-width="1.5"/>
<path d="M0 10.9307L8.37389 10.9307" stroke="#323232" stroke-width="1.5"/>
<path d="M13.4883 10.9316L21.8622 10.9316" stroke="#323232" stroke-width="1.5"/>
<path d="M83.0801 0V8.37389" stroke="white" stroke-width="1.5"/>
<path d="M83.0801 13.4883V21.8622" stroke="white" stroke-width="1.5"/>
<path d="M72.1484 10.9307L80.5223 10.9307" stroke="white" stroke-width="1.5"/>
<path d="M85.6367 10.9316L94.0106 10.9316" stroke="white" stroke-width="1.5"/>
<path d="M155.229 0V8.37389" stroke="white" stroke-width="1.5"/>
<path d="M155.229 13.4883V21.8622" stroke="white" stroke-width="1.5"/>
<path d="M144.297 10.9307L152.671 10.9307" stroke="white" stroke-width="1.5"/>
<path d="M157.785 10.9316L166.159 10.9316" stroke="white" stroke-width="1.5"/>
<path d="M227.377 0V8.37389" stroke="#323232" stroke-width="1.5"/>
<path d="M227.377 13.4883V21.8622" stroke="#323232" stroke-width="1.5"/>
<path d="M216.445 10.9307L224.819 10.9307" stroke="#323232" stroke-width="1.5"/>
<path d="M229.934 10.9316L238.307 10.9316" stroke="#323232" stroke-width="1.5"/>
<path d="M10.9316 72.1475V80.5213" stroke="#323232" stroke-width="1.5"/>
<path d="M10.9316 85.6357V94.0096" stroke="#323232" stroke-width="1.5"/>
<path d="M0 83.0781L8.37389 83.0781" stroke="#323232" stroke-width="1.5"/>
<path d="M13.4883 83.0781L21.8622 83.0781" stroke="#323232" stroke-width="1.5"/>
<path d="M83.0801 72.1484V80.5223" stroke="#323232" stroke-width="1.5"/>
<path d="M83.0801 85.6367V94.0106" stroke="#323232" stroke-width="1.5"/>
<path d="M72.1484 83.0791L80.5223 83.0791" stroke="#323232" stroke-width="1.5"/>
<path d="M85.6367 83.0801L94.0106 83.0801" stroke="#323232" stroke-width="1.5"/>
<path d="M155.229 72.1484V80.5223" stroke="white" stroke-width="1.5"/>
<path d="M155.229 85.6367V94.0106" stroke="white" stroke-width="1.5"/>
<path d="M144.297 83.0791L152.671 83.0791" stroke="white" stroke-width="1.5"/>
<path d="M157.785 83.0801L166.159 83.0801" stroke="white" stroke-width="1.5"/>
<path d="M227.377 72.1475V80.5213" stroke="#8EFE1C" stroke-width="1.5"/>
<path d="M227.377 85.6357V94.0096" stroke="#8EFE1C" stroke-width="1.5"/>
<path d="M216.445 83.0781L224.819 83.0781" stroke="#8EFE1C" stroke-width="1.5"/>
<path d="M229.934 83.0781L238.307 83.0781" stroke="#8EFE1C" stroke-width="1.5"/>
<path d="M10.9316 144.295V152.669" stroke="#8EFE1C" stroke-width="1.5"/>
<path d="M10.9316 157.783V166.157" stroke="#8EFE1C" stroke-width="1.5"/>
<path d="M0 155.227L8.37389 155.227" stroke="#8EFE1C" stroke-width="1.5"/>
<path d="M13.4883 155.227L21.8622 155.227" stroke="#8EFE1C" stroke-width="1.5"/>
<path d="M83.0801 144.295V152.669" stroke="#323232" stroke-width="1.5"/>
<path d="M83.0801 157.783V166.157" stroke="#323232" stroke-width="1.5"/>
<path d="M72.1484 155.226L80.5223 155.226" stroke="#323232" stroke-width="1.5"/>
<path d="M85.6367 155.227L94.0106 155.227" stroke="#323232" stroke-width="1.5"/>
<path d="M155.229 144.295V152.669" stroke="#323232" stroke-width="1.5"/>
<path d="M155.229 157.783V166.157" stroke="#323232" stroke-width="1.5"/>
<path d="M144.297 155.227L152.671 155.227" stroke="#323232" stroke-width="1.5"/>
<path d="M157.785 155.227L166.159 155.227" stroke="#323232" stroke-width="1.5"/>
<path d="M227.377 144.295V152.669" stroke="#323232" stroke-width="1.5"/>
<path d="M227.377 157.783V166.157" stroke="#323232" stroke-width="1.5"/>
<path d="M216.445 155.226L224.819 155.226" stroke="#323232" stroke-width="1.5"/>
<path d="M229.934 155.227L238.307 155.227" stroke="#323232" stroke-width="1.5"/>
</g>
</svg>
