<svg width="1232" height="67" viewBox="0 0 1232 67" fill="none" xmlns="http://www.w3.org/2000/svg">
<path d="M83.6948 21.2412V66.3661H65.663V21.0938C65.663 19.4154 64.132 18.0205 62.5897 18.0205H50.852V66.3661H32.8315V18.0205H18.0205V66.3661H0V0H62.5897C74.1913 0.0113408 83.6948 9.50355 83.6948 21.2412Z" fill="white"/>
<path d="M110.371 0.0107422H173.108V18.0312H110.371C108.693 18.0312 107.434 19.4261 107.434 21.1046C107.434 22.783 108.693 24.1779 110.371 24.1779H173.108V42.1984H110.371C108.693 42.1984 107.434 43.5933 107.434 45.2717C107.434 46.9502 108.693 48.3451 110.371 48.3451H173.108V66.3656H110.371C98.7697 66.3656 89.4136 56.862 89.2775 45.2717C89.2775 40.9396 90.6724 36.7548 93.19 33.2619C90.6724 29.6328 89.2775 25.4367 89.2775 21.1046C89.4249 9.50297 98.781 0.0107422 110.371 0.0107422Z" fill="white"/>
<path d="M178.695 21.1046C178.695 9.50297 188.198 0.0107422 199.789 0.0107422H262.378V18.0312H199.789C198.11 18.0312 196.852 19.4261 196.715 21.1046V45.2717C196.852 46.9502 198.11 48.3451 199.789 48.3451H262.378V66.3656H199.789C188.187 66.3656 178.695 56.862 178.695 45.2717V21.1046Z" fill="white"/>
<path d="M333.636 0.0107422H351.656V66.3769H333.636V42.2097H285.993V66.3769H267.973V0.0107422H285.993V24.1779H333.636V0.0107422Z" fill="white"/>
<path d="M419.835 0.0107422C431.573 0.0107422 440.929 9.36688 440.929 21.1046V66.3769H423.045V42.2097H375.266V66.3769H357.246V21.1046C357.246 9.36688 366.749 0.0107422 378.34 0.0107422H419.835ZM423.056 24.1779V21.1046C422.92 19.29 421.525 18.0312 419.847 18.0312H378.351C376.672 18.0312 375.278 19.29 375.278 21.1046V24.1779H423.056Z" fill="white"/>
<path d="M495.559 18.0318C493.881 18.0318 492.486 19.4267 492.486 21.1052C492.486 22.7836 493.881 24.1785 495.559 24.1785H558.149V42.199H495.559C493.881 42.199 492.486 43.5939 492.486 45.2723V66.3661H474.465V45.2723C474.465 40.9401 475.86 36.7554 478.242 33.115C475.871 29.6221 474.465 25.426 474.465 21.0938C474.465 9.49221 483.969 0 495.559 0H558.149V18.0205H495.559V18.0318Z" fill="#8EFE1C"/>
<path d="M581.623 0.0107422V66.0934H563.738V0.0107422H581.623Z" fill="#8EFE1C"/>
<path d="M670.907 24.1779V45.2717C670.907 56.8733 661.55 66.3656 649.949 66.3656H608.317C596.715 66.3656 587.359 56.862 587.223 45.2717V21.1046C587.359 9.50297 596.727 0.0107422 608.317 0.0107422H670.907V18.0312H608.317C606.639 18.0312 605.38 19.4261 605.38 21.1046V45.2717C605.38 46.9502 606.639 48.3451 608.317 48.3451H649.949C651.627 48.3451 652.886 46.9502 652.886 45.2717V42.1984H629.139V24.1779H670.907Z" fill="#8EFE1C"/>
<path d="M742.162 0.0107422H760.182V66.3769H742.162V42.2097H694.508V66.3769H676.487V0.0107422H694.508V24.1779H742.15V0.0107422H742.162Z" fill="#8EFE1C"/>
<path d="M849.456 18.0312H816.624V66.3769H798.456V18.0312H765.761V0.0107422H849.456V18.0312Z" fill="#8EFE1C"/>
<path d="M880.189 21.1046C880.189 9.50297 889.692 0.0107422 901.282 0.0107422H963.872V18.0312H901.282C899.604 18.0312 898.345 19.4261 898.209 21.1046V45.2717C898.345 46.9502 899.604 48.3451 901.282 48.3451H963.872V66.3656H901.282C889.681 66.3656 880.189 56.862 880.189 45.2717V21.1046Z" fill="white"/>
<path d="M1053.16 48.3457V66.3661H990.573C978.972 66.3661 969.479 56.8626 969.479 45.2723V0H987.5V45.2723C987.5 46.9507 988.895 48.3457 990.573 48.3457H1053.16Z" fill="white"/>
<path d="M1142.44 0.0107422V45.2831C1142.44 56.8847 1132.93 66.3769 1121.34 66.3769H1079.85C1068.24 66.3769 1058.75 56.8733 1058.75 45.2831V0.0107422H1076.77V45.2831C1076.77 46.9615 1078.17 48.3564 1079.85 48.3564H1121.34C1123.02 48.3564 1124.42 46.9615 1124.42 45.2831V0.0107422H1142.44Z" fill="white"/>
<path d="M1227.93 33.2625C1230.3 36.7554 1231.71 40.9515 1231.71 45.2723C1231.71 56.8739 1222.2 66.3661 1210.61 66.3661H1148.02V0H1210.61C1222.21 0 1231.71 9.50355 1231.71 21.0938C1231.71 25.4373 1230.31 29.6221 1227.93 33.2625ZM1210.61 24.1785C1212.29 24.1785 1213.69 22.7836 1213.69 21.1052C1213.69 19.4267 1212.29 18.0318 1210.61 18.0318H1166.04V24.1785H1210.61ZM1210.61 48.3457C1212.29 48.3457 1213.69 46.9507 1213.69 45.2723C1213.69 43.5939 1212.29 42.199 1210.61 42.199H1166.04V48.3457H1210.61Z" fill="white"/>
</svg>
