<svg width="275" height="87" viewBox="0 0 275 87" fill="none" xmlns="http://www.w3.org/2000/svg">
<path d="M58.5742 42.1689L46.3516 56.2421H58.5742V42.1689Z" fill="#8EFE1C"/>
<path d="M253.277 56.2093H261.532V48.4668L253.277 56.2093Z" fill="#8EFE1C"/>
<path d="M122.87 36.7553L94.102 64.7847H112.769L160.306 19.8148H189.63L209.032 0.884766H149.539L122 26.248L122.87 36.7553Z" fill="#8EFE1C"/>
<path d="M29.1303 56.2124L61.4643 24.0173H62.2908V56.2416H65.1581L100.597 20.8794H101.548V38.4636H93.8275L76.5615 56.2124H97.792L119.114 35.5561L118.159 25.0414L144.367 0.885061H97.002L80.2078 16.0152V0H79.6995H78.1488H51.0557H46.8059H41.0823L49.8012 10.4013L33.4459 26.9359H30.948L1.67145 56.2124H4.48024H29.1303Z" fill="#8EFE1C"/>
<path d="M274.065 1H214.141L193.437 21.1443V46.2881L203.524 56.3566H249.24H249.379L259.59 46.1454H262.563L268.195 40.5132H244.493L241.779 37.7959H213.307V28.6673L222.406 19.9301H241.453L231.297 30.0827H245.546H247.978H251.101L263.77 17.4175H260.669L274.065 4.14892V1Z" fill="#8EFE1C"/>
<path d="M6.4252 68.4717L2.6582 76.4957H6.12896L9.89596 68.4717H6.4252Z" fill="#8EFE1C"/>
<path d="M12.3842 68.4717L8.61719 76.4957H12.0879L15.8549 68.4717H12.3842Z" fill="#8EFE1C"/>
<path d="M18.3412 68.4717L14.5742 76.4957H18.045L21.8156 68.4717H18.3412Z" fill="#8EFE1C"/>
<path d="M24.2982 68.4717L20.5312 76.4957H24.0057L27.7727 68.4717H24.2982Z" fill="#8EFE1C"/>
<path d="M30.2611 68.4717L26.4941 76.4957H29.9649L33.7319 68.4717H30.2611Z" fill="#8EFE1C"/>
<path d="M39.7514 68.4717H36.2807L32.5137 76.4957H35.9844L39.7514 68.4717Z" fill="#8EFE1C"/>
<path d="M42.6537 76.4957V68.4717L38.8867 76.4957H42.6537Z" fill="#8EFE1C"/>
<path d="M0 68.3623V76.3827L3.767 68.3623H0Z" fill="#8EFE1C"/>
<path d="M249.247 64.5107H119.893V65.0593H248.698V68.5557H261.795V68.0071H249.247V64.5107Z" fill="#8EFE1C"/>
<path d="M89.0774 64.5107H0.183594V65.0593H89.0774V64.5107Z" fill="#8EFE1C"/>
<path d="M231.777 85.9684H52.5663L46.049 80.1826H34.375V80.7312H45.8406L52.3578 86.517H231.992L244.826 74.4187H261.796V73.8701H244.606L231.777 85.9684Z" fill="#8EFE1C"/>
<path d="M57.1555 75.4019L53.0996 72.4834V78.3241L57.1555 75.4019Z" fill="#8EFE1C"/>
<path d="M175.951 39.2354H181.982L183.862 37.3556V32.0452L177.783 25.9668H165.242L163.6 27.6089H157.171L146.912 37.1361H173.855L175.951 39.2354Z" fill="#8EFE1C"/>
<path d="M186.978 48.2064L179.51 40.7383H169.697L177.304 48.2064H186.978Z" fill="#8EFE1C"/>
<path d="M167.225 40.3946L165.792 38.9609H156.744L154.425 41.2175H151.671L136.365 56.5195H151.876L153.723 58.3665H161.849L159.307 55.8283V48.3163L167.225 40.3946Z" fill="#8EFE1C"/>
<path d="M169.697 58.3666H170.963L175.684 54.1498V49.1649L168.352 41.6602L163.158 46.8498L163.173 53.9742L169.697 58.3666Z" fill="#8EFE1C"/>
<path d="M72.0366 79.604V73.3171C72.0366 71.6823 70.7127 70.3584 69.0998 70.3584H60.3809V79.6003H62.8898V72.8673H64.9525V79.6003H67.4613V72.8673H69.0961C69.3083 72.8673 69.5241 73.0611 69.5241 73.2952V79.6003H72.0366V79.604Z" fill="#8EFE1C"/>
<path d="M75.753 72.8712H84.4902V70.3623H75.753C74.1364 70.3623 72.8344 71.6862 72.8125 73.2991C72.8125 73.9025 73.0063 74.4877 73.3574 74.9924C73.0063 75.4788 72.8125 76.064 72.8125 76.6675C72.8308 78.284 74.1364 79.6042 75.753 79.6042H84.4902V77.0954H75.753C75.5189 77.0954 75.3433 76.9015 75.3433 76.6675C75.3433 76.4334 75.5189 76.2396 75.753 76.2396H84.4902V73.7307H75.753C75.5189 73.7307 75.3433 73.5368 75.3433 73.3028C75.3433 73.0687 75.5189 72.8712 75.753 72.8712Z" fill="#8EFE1C"/>
<path d="M88.21 72.8712H96.9289V70.3623H88.21C86.5935 70.3623 85.2695 71.6862 85.2695 73.2991V76.6675C85.2695 78.284 86.5935 79.6042 88.21 79.6042H96.9289V77.0954H88.21C87.9759 77.0954 87.8004 76.9015 87.7821 76.6675V73.2991C87.8004 73.065 87.9759 72.8712 88.21 72.8712Z" fill="#8EFE1C"/>
<path d="M109.361 79.6042V70.3623H106.852V73.727H100.218V70.3623H97.7051V79.6042H100.218V76.2396H106.852V79.6042H109.361Z" fill="#8EFE1C"/>
<path d="M121.798 79.6042V73.2991C121.798 71.6643 120.493 70.3623 118.858 70.3623H113.079C111.463 70.3623 110.143 71.6643 110.143 73.2991V79.6042H112.651V76.2359H119.308V79.6042H121.798ZM112.651 73.727V73.2991C112.651 73.0467 112.845 72.8712 113.079 72.8712H118.858C119.092 72.8712 119.286 73.0467 119.304 73.2991V73.727H112.651Z" fill="#8EFE1C"/>
<path d="M126.468 79.6045H128.977V76.6677C128.977 76.4336 129.171 76.2398 129.405 76.2398H138.124V73.7309H129.405C129.171 73.7309 128.977 73.5371 128.977 73.303C128.977 73.0689 129.171 72.8751 129.405 72.8751H138.124V70.3662H129.405C127.789 70.3662 126.465 71.6901 126.465 73.303C126.465 73.9065 126.659 74.4916 126.991 74.978C126.662 75.4827 126.465 76.0679 126.465 76.6714V79.6045H126.468Z" fill="#8EFE1C"/>
<path d="M141.395 70.3623H138.904V79.5677H141.395V70.3623Z" fill="#8EFE1C"/>
<path d="M145.111 72.8712H153.83V70.3623H145.111C143.494 70.3623 142.192 71.6862 142.174 73.2991V76.6675C142.192 78.284 143.498 79.6042 145.111 79.6042H150.911C152.528 79.6042 153.83 78.2803 153.83 76.6675V73.7307H148.011V76.2396H151.317V76.6675C151.317 76.9015 151.141 77.0954 150.907 77.0954H145.107C144.873 77.0954 144.697 76.9015 144.697 76.6675V73.2991C144.705 73.065 144.877 72.8712 145.111 72.8712Z" fill="#8EFE1C"/>
<path d="M154.607 70.3623V79.6042H157.116V76.2396H163.754V79.6042H166.263V70.3623H163.754V73.727H157.116V70.3623H154.607Z" fill="#8EFE1C"/>
<path d="M174.127 79.6042V72.8712H178.699V70.3623H167.043V72.8712H171.596V79.6042H174.127Z" fill="#8EFE1C"/>
<path d="M185.921 72.8712H194.64V70.3623H185.921C184.304 70.3623 182.98 71.6862 182.98 73.2991V76.6675C182.98 78.284 184.304 79.6042 185.921 79.6042H194.64V77.0954H185.921C185.687 77.0954 185.511 76.9015 185.493 76.6675V73.2991C185.511 73.065 185.687 72.8712 185.921 72.8712Z" fill="#8EFE1C"/>
<path d="M195.416 70.3623V76.6675C195.416 78.284 196.74 79.6042 198.353 79.6042H207.072V77.0954H198.353C198.119 77.0954 197.925 76.9015 197.925 76.6675V70.3623H195.416Z" fill="#8EFE1C"/>
<path d="M207.854 70.3623V76.6675C207.854 78.284 209.177 79.6042 210.79 79.6042H216.569C218.185 79.6042 219.509 78.2803 219.509 76.6675V70.3623H216.997V76.6675C216.997 76.9015 216.803 77.0954 216.569 77.0954H210.79C210.556 77.0954 210.362 76.9015 210.362 76.6675V70.3623H207.854Z" fill="#8EFE1C"/>
<path d="M229.004 70.3623H220.285V79.6042H229.004C230.621 79.6042 231.941 78.2803 231.941 76.6675C231.941 76.064 231.747 75.4788 231.414 74.9924C231.743 74.4877 231.941 73.9025 231.941 73.2991C231.945 71.6862 230.621 70.3623 229.004 70.3623ZM229.004 77.0954H222.798V76.2396H229.004C229.238 76.2396 229.432 76.4334 229.432 76.6675C229.432 76.9015 229.238 77.0954 229.004 77.0954ZM229.004 73.727H222.798V72.8712H229.004C229.238 72.8712 229.432 73.065 229.432 73.2991C229.432 73.5332 229.238 73.727 229.004 73.727Z" fill="#8EFE1C"/>
</svg>
