<svg width="151" height="37" viewBox="0 0 151 37" fill="none" xmlns="http://www.w3.org/2000/svg">
<path d="M31.5663 31.8716V24.1299L24.8401 31.8716H31.5663Z" fill="#8EFE1C"/>
<path d="M143.255 31.8529V27.5938L138.712 31.8529H143.255Z" fill="#8EFE1C"/>
<path d="M81.6263 1.41992L66.4692 15.3723L66.9503 21.1524L51.1169 36.5715H61.3914L87.5494 11.8334H103.687L114.364 1.41992H81.6263Z" fill="#8EFE1C"/>
<path d="M50.968 22.0915L41.4644 31.8552H53.1477L64.8813 20.4921L64.358 14.708L78.7804 1.41949H52.7129L43.471 9.74263V0.932617H43.1912H42.3399H27.4304H25.0897H21.9419L26.74 6.6544L17.7376 15.7501H16.365L0.253906 31.8552H1.7996H15.3627L33.1563 14.1446H33.6131V31.8713H35.189L54.6934 12.4184H55.2166V22.0915H50.968Z" fill="#8EFE1C"/>
<path d="M150.154 1.41992H117.177L105.782 12.5013V26.333L111.335 31.8717H136.49H136.569L142.188 26.2546H143.822L146.924 23.1563H133.88L132.385 21.6614H116.716V16.6398L121.726 11.8334H132.206L126.619 17.4184H134.458H135.796H137.515L144.487 10.4512H142.782L150.154 3.15215V1.41992Z" fill="#8EFE1C"/>
<path d="M96.1594 22.5159H99.4782L100.515 21.4818V18.5605L97.1698 15.2168H90.2685L89.3648 16.1201H85.8246L80.1792 21.3611H95.0062L96.1594 22.5159Z" fill="#8EFE1C"/>
<path d="M92.7199 23.3428L96.9042 27.451H102.228L98.1198 23.3428H92.7199Z" fill="#8EFE1C"/>
<path d="M87.002 27.5116L91.3593 23.1539L90.5683 22.3652H85.5891L84.3151 23.6066H82.7976L74.3748 32.0243H82.9123L83.9287 33.0403H88.3987L87.002 31.644V27.5116Z" fill="#8EFE1C"/>
<path d="M89.1212 26.7045L89.1293 30.6236L92.7198 33.0399H93.4141L96.0124 30.7202V27.978L91.9771 23.8496L89.1212 26.7045Z" fill="#8EFE1C"/>
</svg>
