<svg width="258" height="146" viewBox="0 0 258 146" fill="none" xmlns="http://www.w3.org/2000/svg">
<path d="M48.9355 12.4195V38.8036H38.3925V12.3333C38.3925 11.352 37.4973 10.5364 36.5956 10.5364H29.7326V38.8036H19.1963V10.5364H10.5364V38.8036H0V0H36.5956C43.3789 0.00663083 48.9355 5.55663 48.9355 12.4195Z" fill="white"/>
<path d="M64.5332 0.00585938H101.215V10.5423H64.5332C63.5518 10.5423 62.8158 11.3578 62.8158 12.3392C62.8158 13.3206 63.5518 14.1362 64.5332 14.1362H101.215V24.6726H64.5332C63.5518 24.6726 62.8158 25.4881 62.8158 26.4695C62.8158 27.4509 63.5518 28.2665 64.5332 28.2665H101.215V38.8029H64.5332C57.7498 38.8029 52.2794 33.2462 52.1998 26.4695C52.1998 23.9365 53.0154 21.4898 54.4875 19.4475C53.0154 17.3256 52.1998 14.8722 52.1998 12.3392C52.286 5.55587 57.7565 0.00585938 64.5332 0.00585938Z" fill="white"/>
<path d="M104.481 12.3392C104.481 5.55587 110.038 0.00585938 116.814 0.00585938H153.41V10.5423H116.814C115.833 10.5423 115.097 11.3578 115.017 12.3392V26.4695C115.097 27.4509 115.833 28.2665 116.814 28.2665H153.41V38.8029H116.814C110.031 38.8029 104.481 33.2462 104.481 26.4695V12.3392Z" fill="white"/>
<path d="M195.073 0.00585938H205.61V38.8095H195.073V24.6792H167.217V38.8095H156.681V0.00585938H167.217V14.1362H195.073V0.00585938Z" fill="white"/>
<path d="M245.474 0.00585938C252.337 0.00585938 257.808 5.4763 257.808 12.3392V38.8095H247.351V24.6792H219.415V38.8095H208.879V12.3392C208.879 5.4763 214.435 0.00585938 221.212 0.00585938H245.474ZM247.357 14.1362V12.3392C247.278 11.2783 246.462 10.5423 245.481 10.5423H221.219C220.237 10.5423 219.422 11.2783 219.422 12.3392V14.1362H247.357Z" fill="white"/>
<path d="M26 119.339C26 112.556 31.5566 107.006 38.3333 107.006H74.9289V117.542H38.3333C37.352 117.542 36.616 118.358 36.5364 119.339V133.47C36.616 134.451 37.352 135.266 38.3333 135.266H74.9289V145.803H38.3333C31.55 145.803 26 140.246 26 133.47V119.339Z" fill="white"/>
<path d="M127.138 135.267V145.804H90.5426C83.7593 145.804 78.2092 140.247 78.2092 133.47V107H88.7456V133.47C88.7456 134.452 89.5612 135.267 90.5426 135.267H127.138Z" fill="white"/>
<path d="M179.334 107.006V133.476C179.334 140.259 173.778 145.809 167.001 145.809H142.739C135.956 145.809 130.406 140.253 130.406 133.476V107.006H140.942V133.476C140.942 134.458 141.757 135.273 142.739 135.273H167.001C167.982 135.273 168.798 134.458 168.798 133.476V107.006H179.334Z" fill="white"/>
<path d="M229.323 126.448C230.708 128.491 231.531 130.944 231.531 133.47C231.531 140.254 225.974 145.804 219.197 145.804H182.602V107H219.197C225.981 107 231.531 112.557 231.531 119.333C231.531 121.873 230.715 124.32 229.323 126.448ZM219.197 121.137C220.179 121.137 220.994 120.321 220.994 119.34C220.994 118.359 220.179 117.543 219.197 117.543H193.138V121.137H219.197ZM219.197 135.267C220.179 135.267 220.994 134.452 220.994 133.47C220.994 132.489 220.179 131.673 219.197 131.673H193.138V135.267H219.197Z" fill="white"/>
<path d="M31.3333 64.543C30.352 64.543 29.5364 65.3586 29.5364 66.34C29.5364 67.3213 30.352 68.1369 31.3333 68.1369H67.9289V78.6733H31.3333C30.352 78.6733 29.5364 79.4889 29.5364 80.4703V92.8036H19V80.4703C19 77.9373 19.8156 75.4905 21.2081 73.362C19.8222 71.3197 19 68.8663 19 66.3333C19 59.55 24.5566 54 31.3333 54H67.9289V64.5364H31.3333V64.543Z" fill="#8EFE1C"/>
<path d="M81.6549 54.0068V92.6447H71.1981V54.0068H81.6549Z" fill="#8EFE1C"/>
<path d="M133.858 68.1371V80.4705C133.858 87.2538 128.387 92.8038 121.604 92.8038H97.2622C90.4789 92.8038 85.0084 87.2472 84.9288 80.4705V66.3402C85.0084 59.5568 90.4855 54.0068 97.2622 54.0068H133.858V64.5432H97.2622C96.2808 64.5432 95.5448 65.3588 95.5448 66.3402V80.4705C95.5448 81.4518 96.2808 82.2674 97.2622 82.2674H121.604C122.585 82.2674 123.321 81.4518 123.321 80.4705V78.6735H109.436V68.1371H133.858Z" fill="#8EFE1C"/>
<path d="M175.519 54.0068H186.055V92.8105H175.519V78.6802H147.656V92.8105H137.12V54.0068H147.656V68.1371H175.512V54.0068H175.519Z" fill="#8EFE1C"/>
<path d="M238.253 64.5432H219.057V92.8105H208.434V64.5432H189.318V54.0068H238.253V64.5432Z" fill="#8EFE1C"/>
</svg>
