<svg width="150" height="37" viewBox="0 0 150 37" fill="none" xmlns="http://www.w3.org/2000/svg">
<path d="M31.3151 31.7847V24.043L24.5889 31.7847H31.3151Z" fill="white"/>
<path d="M143.005 31.7679V27.5088L138.463 31.7679H143.005Z" fill="white"/>
<path d="M81.3765 1.33301L66.2195 15.2854L66.7005 21.0655L50.8672 36.4845H61.1416L87.2997 11.7465H103.437L114.114 1.33301H81.3765Z" fill="white"/>
<path d="M50.718 22.0056L41.2144 31.7693H52.8977L64.6313 20.4062L64.108 14.622L78.5304 1.33355H52.4629L43.221 9.6567V0.84668H42.9412H42.0899H27.1804H24.8397H21.6919L26.49 6.56846L17.4876 15.6642H16.115L0.00390625 31.7693H1.5496H15.1127L32.9063 14.0587H33.3631V31.7853H34.939L54.4434 12.3325H54.9666V22.0056H50.718Z" fill="white"/>
<path d="M149.906 1.33301H116.929L105.533 12.4144V26.2461L111.086 31.7848H136.242H136.32L141.94 26.1676H143.574L146.675 23.0693H133.631L132.136 21.5745H116.468V16.5529L121.477 11.7465H131.957L126.37 17.3315H134.209H135.547H137.266L144.238 10.3643H142.533L149.906 3.06524V1.33301Z" fill="white"/>
<path d="M95.908 22.4309H99.2268L100.263 21.3968V18.4756L96.9183 15.1318H90.017L89.1134 16.0352H85.5731L79.9277 21.2761H94.7547L95.908 22.4309Z" fill="white"/>
<path d="M92.4707 23.2568L96.655 27.3651H101.978L97.8706 23.2568H92.4707Z" fill="white"/>
<path d="M86.7522 27.4257L91.1095 23.068L90.3186 22.2793H85.3393L84.0654 23.5206H82.5478L74.125 31.9383H82.6626L83.6789 32.9543H88.149L86.7522 31.5581V27.4257Z" fill="white"/>
<path d="M88.8711 26.6195L88.8791 30.5386L92.4697 32.9549H93.164L95.7623 30.6352V27.893L91.727 23.7646L88.8711 26.6195Z" fill="white"/>
</svg>
