<svg width="230" height="62" viewBox="0 0 230 62" fill="none" xmlns="http://www.w3.org/2000/svg">
<path d="M0.991211 1.4292H182.912L173.901 10.0618H0.991211V1.4292Z" fill="#3B4449" stroke="#3B4449" stroke-width="1.5"/>
<path d="M174.131 10.0021H0.991211V25.5149L5.25156 29.8013V42.2524L0.991211 46.5389V60.4188H214.76L229.164 45.9265V10.0021H214.76L206.239 1.4292H183.112L174.131 10.0021Z" fill="black" fill-opacity="0.4" stroke="#3B4449" stroke-width="1.5"/>
<path d="M7.46568 26.5712L0.991211 20.1333V51.7862L7.46568 45.3484V26.5712Z" fill="#3B4449" stroke="#3B4449" stroke-width="1.5"/>
<path d="M56.3735 29.7329H54.5219L54.5063 37.3423C54.4959 37.6965 54.449 38.022 54.3656 38.3188C54.2823 38.6105 54.1599 38.8631 53.9985 39.0767C53.837 39.285 53.6365 39.4465 53.3969 39.561C53.1625 39.6704 52.8917 39.7251 52.5844 39.7251C52.2823 39.7251 52.0167 39.6704 51.7875 39.561C51.5636 39.4465 51.3735 39.2902 51.2172 39.0923C51.0558 38.884 50.9334 38.6313 50.85 38.3345C50.7667 38.0324 50.7224 37.7017 50.7172 37.3423L50.7016 29.7329H48.85L48.8344 37.3423C48.8396 37.9308 48.9308 38.4673 49.1078 38.9517C49.2901 39.436 49.5453 39.8501 49.8735 40.1938C50.1964 40.5376 50.587 40.8032 51.0453 40.9907C51.5037 41.173 52.0167 41.2642 52.5844 41.2642C53.1625 41.2642 53.6834 41.1704 54.1469 40.9829C54.6156 40.7954 55.0167 40.5298 55.35 40.186C55.6781 39.8423 55.9308 39.4308 56.1078 38.9517C56.2901 38.4673 56.3813 37.9308 56.3813 37.3423L56.3735 29.7329ZM58.6313 41.1079H60.4985V35.0767C60.5818 34.936 60.6781 34.8058 60.7875 34.686C60.8969 34.5662 61.0141 34.4647 61.1391 34.3813C61.3005 34.272 61.4802 34.1886 61.6781 34.1313C61.8761 34.0688 62.0896 34.0376 62.3188 34.0376C62.5948 34.0376 62.8396 34.0688 63.0531 34.1313C63.2667 34.1886 63.449 34.2876 63.6 34.4282C63.7511 34.5688 63.8656 34.7563 63.9438 34.9907C64.0219 35.2251 64.061 35.5168 64.061 35.8657V41.1079H65.9281V35.8345C65.9281 35.2407 65.8578 34.7355 65.7172 34.3188C65.5766 33.897 65.3787 33.5506 65.1235 33.2798C64.8683 33.009 64.561 32.811 64.2016 32.686C63.8422 32.561 63.4464 32.4985 63.0141 32.4985C62.686 32.4985 62.3735 32.5454 62.0766 32.6392C61.7797 32.7329 61.5063 32.8657 61.2563 33.0376C61.1 33.147 60.9516 33.272 60.811 33.4126C60.6755 33.548 60.5505 33.6965 60.436 33.8579L60.3188 32.6548H58.6313V41.1079ZM73.6391 41.1079H75.5453V40.9751C75.4412 40.7563 75.3604 40.4959 75.3031 40.1938C75.2511 39.8866 75.225 39.5428 75.225 39.1626V35.4048C75.225 34.9256 75.1365 34.5037 74.9594 34.1392C74.7823 33.7694 74.5375 33.4647 74.225 33.2251C73.9125 32.9855 73.5401 32.8058 73.1078 32.686C72.6808 32.561 72.2198 32.4985 71.725 32.4985C71.1729 32.4985 70.6808 32.5715 70.2485 32.7173C69.8214 32.8579 69.462 33.0506 69.1703 33.2954C68.8683 33.535 68.6391 33.811 68.4828 34.1235C68.3266 34.436 68.2459 34.7616 68.2406 35.1001H70.1156C70.1156 34.9386 70.1443 34.7876 70.2016 34.647C70.2641 34.5011 70.3578 34.3787 70.4828 34.2798C70.6078 34.1704 70.7641 34.0845 70.9516 34.022C71.1443 33.9595 71.3683 33.9282 71.6235 33.9282C71.9047 33.9282 72.1521 33.9647 72.3656 34.0376C72.5844 34.1053 72.7693 34.2043 72.9203 34.3345C73.061 34.4647 73.1677 34.6183 73.2406 34.7954C73.3188 34.9725 73.3578 35.1704 73.3578 35.3892V35.9595H71.9985C71.3891 35.9595 70.8422 36.0168 70.3578 36.1313C69.8787 36.2459 69.475 36.4126 69.1469 36.6313C68.7927 36.8657 68.5219 37.1626 68.3344 37.522C68.1521 37.8761 68.061 38.285 68.061 38.7485C68.061 39.1079 68.1313 39.4438 68.2719 39.7563C68.4177 40.0636 68.6209 40.3267 68.8813 40.5454C69.1365 40.7694 69.4438 40.9465 69.8031 41.0767C70.1677 41.2017 70.5688 41.2642 71.0063 41.2642C71.2771 41.2642 71.5297 41.2381 71.7641 41.186C71.9985 41.134 72.2172 41.061 72.4203 40.9673C72.6235 40.8787 72.8058 40.7746 72.9672 40.6548C73.1339 40.5298 73.2823 40.3996 73.4125 40.2642C73.4386 40.4256 73.4672 40.5819 73.4985 40.7329C73.5349 40.8787 73.5818 41.0037 73.6391 41.1079ZM71.3656 39.7642C71.1261 39.7642 70.9177 39.7355 70.7406 39.6782C70.5636 39.6157 70.4151 39.5324 70.2953 39.4282C70.1755 39.3241 70.0844 39.1991 70.0219 39.0532C69.9594 38.9022 69.9281 38.7407 69.9281 38.5688C69.9281 38.3605 69.9646 38.173 70.0375 38.0063C70.1156 37.8397 70.2328 37.6965 70.3891 37.5767C70.5662 37.436 70.8031 37.3293 71.1 37.2563C71.3969 37.1782 71.7485 37.1392 72.1547 37.1392H73.3578V38.7017C73.2901 38.8371 73.1938 38.9673 73.0688 39.0923C72.9438 39.2173 72.7953 39.3293 72.6235 39.4282C72.4516 39.5272 72.2589 39.6079 72.0453 39.6704C71.837 39.7329 71.6104 39.7642 71.3656 39.7642ZM85.2797 36.9673V36.8032C85.2797 36.3241 85.2354 35.8709 85.1469 35.4438C85.0636 35.0168 84.9386 34.6287 84.7719 34.2798C84.6469 34.0298 84.5011 33.8006 84.3344 33.5923C84.1729 33.3787 83.988 33.1991 83.7797 33.0532C83.5349 32.8761 83.2589 32.7407 82.9516 32.647C82.6495 32.548 82.3162 32.4985 81.9516 32.4985C81.6755 32.4985 81.4177 32.5272 81.1781 32.5845C80.9438 32.6366 80.7276 32.7173 80.5297 32.8267C80.3787 32.91 80.238 33.0063 80.1078 33.1157C79.9776 33.2251 79.8578 33.3475 79.7485 33.4829V29.1079H77.8813V41.1079H79.5688L79.6547 40.186C79.7485 40.3006 79.8448 40.4074 79.9438 40.5063C80.0479 40.6001 80.1573 40.6886 80.2719 40.772C80.4959 40.9334 80.7485 41.0558 81.0297 41.1392C81.311 41.2225 81.6235 41.2642 81.9672 41.2642C82.3058 41.2642 82.6183 41.2199 82.9047 41.1313C83.1964 41.048 83.4594 40.9282 83.6938 40.772C83.9854 40.5793 84.2354 40.3371 84.4438 40.0454C84.6521 39.7537 84.8188 39.4282 84.9438 39.0688C85.0531 38.7668 85.1365 38.4386 85.1938 38.0845C85.2511 37.7303 85.2797 37.3579 85.2797 36.9673ZM83.4125 36.8032V36.9673C83.4125 37.2017 83.3995 37.4282 83.3735 37.647C83.3474 37.8657 83.3084 38.0688 83.2563 38.2563C83.1938 38.5063 83.1026 38.7329 82.9828 38.936C82.8683 39.134 82.7198 39.298 82.5375 39.4282C82.4021 39.522 82.2485 39.5975 82.0766 39.6548C81.9047 39.7069 81.712 39.7329 81.4985 39.7329C81.2641 39.7329 81.0505 39.7043 80.8578 39.647C80.6703 39.5845 80.5037 39.5011 80.3578 39.397C80.2276 39.298 80.1104 39.186 80.0063 39.061C79.9073 38.9308 79.8214 38.7876 79.7485 38.6313V35.1313C79.811 34.9959 79.8839 34.8709 79.9672 34.7563C80.0558 34.6366 80.1547 34.5324 80.2641 34.4438C80.4151 34.3136 80.5922 34.2147 80.7953 34.147C80.9985 34.0741 81.2276 34.0376 81.4828 34.0376C81.6912 34.0376 81.8787 34.061 82.0453 34.1079C82.212 34.1548 82.3604 34.2251 82.4906 34.3188C82.6886 34.4543 82.8448 34.6209 82.9594 34.8188C83.0792 35.0116 83.1755 35.2277 83.2485 35.4673C83.3005 35.6652 83.3396 35.8787 83.3656 36.1079C83.3969 36.3319 83.4125 36.5636 83.4125 36.8032ZM87.8188 29.1079V30.6626H90.4906V39.561H87.8188V41.1079H94.936V39.561H92.3735V29.1079H87.8188ZM101.014 41.2642C101.837 41.2642 102.538 41.1027 103.116 40.7798C103.699 40.4569 104.131 40.0923 104.413 39.686L103.413 38.7173C103.152 39.0506 102.821 39.3084 102.42 39.4907C102.019 39.6678 101.587 39.7563 101.123 39.7563C100.785 39.7563 100.472 39.6991 100.186 39.5845C99.9047 39.4699 99.6599 39.3084 99.4516 39.1001C99.2433 38.9022 99.0792 38.6782 98.9594 38.4282C98.8396 38.1782 98.7511 37.8683 98.6938 37.4985V37.4595H104.553V36.6548C104.553 36.0506 104.472 35.4933 104.311 34.9829C104.15 34.4725 103.91 34.0324 103.592 33.6626C103.275 33.298 102.881 33.0142 102.413 32.811C101.944 32.6027 101.405 32.4985 100.795 32.4985C100.248 32.4985 99.7328 32.6027 99.2485 32.811C98.7693 33.0142 98.3474 33.3058 97.9828 33.686C97.6183 34.0662 97.3318 34.5246 97.1235 35.061C96.9151 35.5975 96.811 36.1965 96.811 36.8579V37.1782C96.811 37.7563 96.9099 38.2954 97.1078 38.7954C97.311 39.2902 97.5974 39.7199 97.9672 40.0845C98.337 40.4543 98.7797 40.7433 99.2953 40.9517C99.8162 41.16 100.389 41.2642 101.014 41.2642ZM100.788 34.0142C101.1 34.0142 101.373 34.0688 101.608 34.1782C101.847 34.2824 102.045 34.423 102.202 34.6001C102.363 34.7824 102.488 34.9959 102.577 35.2407C102.665 35.4803 102.709 35.7225 102.709 35.9673V36.0923H98.7328C98.7901 35.7694 98.8787 35.4803 98.9985 35.2251C99.1183 34.9699 99.2667 34.7511 99.4438 34.5688C99.6209 34.3918 99.8214 34.2563 100.045 34.1626C100.275 34.0636 100.522 34.0142 100.788 34.0142ZM120.038 30.5923H118.163V32.6548H116.116V34.0532H118.163V38.2095C118.163 38.7511 118.233 39.2147 118.373 39.6001C118.519 39.9855 118.72 40.3006 118.975 40.5454C119.23 40.7954 119.535 40.9803 119.889 41.1001C120.248 41.2147 120.642 41.272 121.069 41.272C121.303 41.272 121.538 41.259 121.772 41.2329C122.011 41.2121 122.241 41.1808 122.459 41.1392C122.678 41.0975 122.881 41.048 123.069 40.9907C123.261 40.9282 123.426 40.8553 123.561 40.772L123.358 39.4829C123.264 39.5037 123.147 39.5298 123.006 39.561C122.871 39.5871 122.725 39.6105 122.569 39.6313C122.407 39.6574 122.241 39.6782 122.069 39.6938C121.897 39.7095 121.73 39.7173 121.569 39.7173C121.345 39.7173 121.139 39.6912 120.952 39.6392C120.764 39.5871 120.603 39.4985 120.467 39.3735C120.332 39.2537 120.225 39.0897 120.147 38.8813C120.074 38.6678 120.038 38.4048 120.038 38.0923V34.0532H123.217V32.6548H120.038V30.5923ZM125.553 36.8032V36.9673C125.553 37.5871 125.642 38.1574 125.819 38.6782C125.996 39.1991 126.254 39.6522 126.592 40.0376C126.926 40.423 127.337 40.7251 127.827 40.9438C128.316 41.1626 128.871 41.272 129.491 41.272C130.105 41.272 130.655 41.1626 131.139 40.9438C131.629 40.7251 132.04 40.423 132.373 40.0376C132.707 39.6522 132.962 39.1991 133.139 38.6782C133.316 38.1574 133.405 37.5871 133.405 36.9673V36.8032C133.405 36.1886 133.316 35.6209 133.139 35.1001C132.962 34.5741 132.707 34.1183 132.373 33.7329C132.035 33.3475 131.621 33.0454 131.131 32.8267C130.647 32.6079 130.095 32.4985 129.475 32.4985C128.855 32.4985 128.303 32.6079 127.819 32.8267C127.334 33.0454 126.926 33.3475 126.592 33.7329C126.254 34.1183 125.996 34.5741 125.819 35.1001C125.642 35.6209 125.553 36.1886 125.553 36.8032ZM127.42 36.9673V36.8032C127.42 36.4334 127.459 36.0793 127.538 35.7407C127.621 35.4022 127.748 35.1053 127.92 34.8501C128.087 34.5949 128.298 34.3918 128.553 34.2407C128.814 34.0897 129.121 34.0142 129.475 34.0142C129.834 34.0142 130.142 34.0897 130.397 34.2407C130.657 34.3918 130.873 34.5949 131.045 34.8501C131.207 35.1053 131.329 35.4022 131.413 35.7407C131.496 36.0793 131.538 36.4334 131.538 36.8032V36.9673C131.538 37.3475 131.496 37.7069 131.413 38.0454C131.334 38.384 131.212 38.6808 131.045 38.936C130.879 39.1912 130.665 39.3944 130.405 39.5454C130.144 39.6912 129.84 39.7642 129.491 39.7642C129.131 39.7642 128.821 39.6912 128.561 39.5454C128.301 39.3944 128.087 39.1912 127.92 38.936C127.748 38.6808 127.621 38.384 127.538 38.0454C127.459 37.7069 127.42 37.3475 127.42 36.9673ZM147.295 29.7329H144.967V41.1079H146.725V37.2485L146.623 32.3579L148.209 37.6001H149.186L150.936 32.1704L150.827 37.2485V41.1079H152.592V29.7329H150.256L148.702 34.6001L147.295 29.7329ZM155.155 32.6548V34.2095H157.756V39.561H155.155V41.1079H162.123V39.561H159.639V32.6548H155.155ZM157.584 30.4673C157.584 30.6652 157.631 30.8397 157.725 30.9907C157.824 31.1366 157.967 31.2381 158.155 31.2954C158.337 31.3527 158.504 31.3657 158.655 31.3345C158.806 31.3032 158.936 31.2381 159.045 31.1392C159.264 31.0819 159.431 30.9699 159.545 30.8032C159.66 30.6313 159.699 30.4308 159.663 30.2017C159.636 29.9777 159.535 29.7954 159.358 29.6548C159.186 29.509 158.959 29.436 158.678 29.436C158.511 29.436 158.36 29.4621 158.225 29.5142C158.095 29.561 157.983 29.6287 157.889 29.7173C157.79 29.811 157.715 29.923 157.663 30.0532C157.61 30.1782 157.584 30.3162 157.584 30.4673ZM164.334 41.1079H166.202V35.0767C166.285 34.936 166.381 34.8058 166.491 34.686C166.6 34.5662 166.717 34.4647 166.842 34.3813C167.004 34.272 167.183 34.1886 167.381 34.1313C167.579 34.0688 167.793 34.0376 168.022 34.0376C168.298 34.0376 168.543 34.0688 168.756 34.1313C168.97 34.1886 169.152 34.2876 169.303 34.4282C169.454 34.5688 169.569 34.7563 169.647 34.9907C169.725 35.2251 169.764 35.5168 169.764 35.8657V41.1079H171.631V35.8345C171.631 35.2407 171.561 34.7355 171.42 34.3188C171.28 33.897 171.082 33.5506 170.827 33.2798C170.571 33.009 170.264 32.811 169.905 32.686C169.545 32.561 169.15 32.4985 168.717 32.4985C168.389 32.4985 168.077 32.5454 167.78 32.6392C167.483 32.7329 167.209 32.8657 166.959 33.0376C166.803 33.147 166.655 33.272 166.514 33.4126C166.379 33.548 166.254 33.6965 166.139 33.8579L166.022 32.6548H164.334V41.1079ZM177.694 30.5923H175.819V32.6548H173.772V34.0532H175.819V38.2095C175.819 38.7511 175.889 39.2147 176.03 39.6001C176.176 39.9855 176.376 40.3006 176.631 40.5454C176.886 40.7954 177.191 40.9803 177.545 41.1001C177.905 41.2147 178.298 41.272 178.725 41.272C178.959 41.272 179.194 41.259 179.428 41.2329C179.668 41.2121 179.897 41.1808 180.116 41.1392C180.334 41.0975 180.538 41.048 180.725 40.9907C180.918 40.9282 181.082 40.8553 181.217 40.772L181.014 39.4829C180.92 39.5037 180.803 39.5298 180.663 39.561C180.527 39.5871 180.381 39.6105 180.225 39.6313C180.064 39.6574 179.897 39.6782 179.725 39.6938C179.553 39.7095 179.386 39.7173 179.225 39.7173C179.001 39.7173 178.795 39.6912 178.608 39.6392C178.42 39.5871 178.259 39.4985 178.123 39.3735C177.988 39.2537 177.881 39.0897 177.803 38.8813C177.73 38.6678 177.694 38.4048 177.694 38.0923V34.0532H180.873V32.6548H177.694V30.5923Z" fill="#3B4449"/>
</svg>
