<svg width="422" height="547" viewBox="0 0 422 547" fill="none" xmlns="http://www.w3.org/2000/svg">
<g filter="url(#filter0_bd_134_1873)">
<path d="M350.533 482.08L386.11 440.491C386.885 439.585 387.311 438.432 387.311 437.24V35.9817C387.311 33.2203 385.072 30.9817 382.311 30.9817H80.0074C78.6074 30.9817 77.2715 31.5686 76.3246 32.5998L36.6278 75.8275C35.7806 76.75 35.3105 77.9569 35.3105 79.2094L35.3106 477.212C35.3106 479.973 37.5491 482.212 40.3106 482.212H53.9433C55.3895 482.212 56.7648 481.586 57.7144 480.495L73.3158 462.575C74.2654 461.484 75.6407 460.858 77.0869 460.858H90.7704C92.1816 460.858 93.527 461.454 94.4748 462.5L112.322 482.188C113.27 483.233 114.615 483.83 116.027 483.83H168.635C170.023 483.83 171.348 484.406 172.293 485.421L191.828 506.39C192.773 507.405 194.099 507.982 195.486 507.982H272.067C273.494 507.982 274.853 507.372 275.802 506.306L294.319 485.505C295.268 484.439 296.627 483.83 298.054 483.83H346.733C348.194 483.83 349.583 483.19 350.533 482.08Z" fill="black" fill-opacity="0.2" shape-rendering="crispEdges"/>
<path d="M350.533 482.08L386.11 440.491C386.885 439.585 387.311 438.432 387.311 437.24V35.9817C387.311 33.2203 385.072 30.9817 382.311 30.9817H80.0074C78.6074 30.9817 77.2715 31.5686 76.3246 32.5998L36.6278 75.8275C35.7806 76.75 35.3105 77.9569 35.3105 79.2094L35.3106 477.212C35.3106 479.973 37.5491 482.212 40.3106 482.212H53.9433C55.3895 482.212 56.7648 481.586 57.7144 480.495L73.3158 462.575C74.2654 461.484 75.6407 460.858 77.0869 460.858H90.7704C92.1816 460.858 93.527 461.454 94.4748 462.5L112.322 482.188C113.27 483.233 114.615 483.83 116.027 483.83H168.635C170.023 483.83 171.348 484.406 172.293 485.421L191.828 506.39C192.773 507.405 194.099 507.982 195.486 507.982H272.067C273.494 507.982 274.853 507.372 275.802 506.306L294.319 485.505C295.268 484.439 296.627 483.83 298.054 483.83H346.733C348.194 483.83 349.583 483.19 350.533 482.08Z" stroke="url(#paint0_linear_134_1873)" shape-rendering="crispEdges"/>
</g>
<defs>
<filter id="filter0_bd_134_1873" x="-129.189" y="-133.518" width="681" height="806" filterUnits="userSpaceOnUse" color-interpolation-filters="sRGB">
<feFlood flood-opacity="0" result="BackgroundImageFix"/>
<feGaussianBlur in="BackgroundImage" stdDeviation="82"/>
<feComposite in2="SourceAlpha" operator="in" result="effect1_backgroundBlur_134_1873"/>
<feColorMatrix in="SourceAlpha" type="matrix" values="0 0 0 0 0 0 0 0 0 0 0 0 0 0 0 0 0 0 127 0" result="hardAlpha"/>
<feOffset dy="4"/>
<feGaussianBlur stdDeviation="17"/>
<feComposite in2="hardAlpha" operator="out"/>
<feColorMatrix type="matrix" values="0 0 0 0 0 0 0 0 0 0 0 0 0 0 0 0 0 0 0.25 0"/>
<feBlend mode="normal" in2="effect1_backgroundBlur_134_1873" result="effect2_dropShadow_134_1873"/>
<feBlend mode="normal" in="SourceGraphic" in2="effect2_dropShadow_134_1873" result="shape"/>
</filter>
<linearGradient id="paint0_linear_134_1873" x1="3.34306" y1="-80.2761" x2="632.559" y2="132.039" gradientUnits="userSpaceOnUse">
<stop stop-color="white"/>
<stop offset="1" stop-color="white" stop-opacity="0"/>
</linearGradient>
</defs>
</svg>
