<svg width="816" height="517" viewBox="0 0 816 517" fill="none" xmlns="http://www.w3.org/2000/svg">
<g filter="url(#filter0_bd_134_189)">
<path d="M716.101 454.032L779.145 387.506C780.025 386.577 780.516 385.346 780.516 384.066V36.3835C780.516 33.6221 778.277 31.3835 775.516 31.3835H81.3867C80.014 31.3835 78.7017 31.9479 77.7575 32.9443L35.8864 77.128C35.0062 78.0568 34.5156 79.2877 34.5156 80.5673V450.592C34.5156 453.354 36.7542 455.592 39.5156 455.592H91.6039C92.9766 455.592 94.2889 455.028 95.2332 454.032L110.444 437.981C111.388 436.984 112.701 436.42 114.073 436.42H131.66C133.032 436.42 134.345 436.984 135.289 437.981L150.5 454.032C151.444 455.028 152.756 455.592 154.129 455.592H208.205C209.578 455.592 210.89 456.157 211.835 457.153L230.475 476.823C231.419 477.819 232.731 478.384 234.104 478.384H351.819C353.192 478.384 354.504 477.819 355.448 476.823L374.088 457.153C375.033 456.157 376.345 455.592 377.718 455.592H712.472C713.844 455.592 715.157 455.028 716.101 454.032Z" fill="black" fill-opacity="0.2" shape-rendering="crispEdges"/>
<path d="M716.101 454.032L779.145 387.506C780.025 386.577 780.516 385.346 780.516 384.066V36.3835C780.516 33.6221 778.277 31.3835 775.516 31.3835H81.3867C80.014 31.3835 78.7017 31.9479 77.7575 32.9443L35.8864 77.128C35.0062 78.0568 34.5156 79.2877 34.5156 80.5673V450.592C34.5156 453.354 36.7542 455.592 39.5156 455.592H91.6039C92.9766 455.592 94.2889 455.028 95.2332 454.032L110.444 437.981C111.388 436.984 112.701 436.42 114.073 436.42H131.66C133.032 436.42 134.345 436.984 135.289 437.981L150.5 454.032C151.444 455.028 152.756 455.592 154.129 455.592H208.205C209.578 455.592 210.89 456.157 211.835 457.153L230.475 476.823C231.419 477.819 232.731 478.384 234.104 478.384H351.819C353.192 478.384 354.504 477.819 355.448 476.823L374.088 457.153C375.033 456.157 376.345 455.592 377.718 455.592H712.472C713.844 455.592 715.157 455.028 716.101 454.032Z" stroke="url(#paint0_linear_134_189)" shape-rendering="crispEdges"/>
</g>
<defs>
<filter id="filter0_bd_134_189" x="-129.984" y="-133.116" width="1075" height="776" filterUnits="userSpaceOnUse" color-interpolation-filters="sRGB">
<feFlood flood-opacity="0" result="BackgroundImageFix"/>
<feGaussianBlur in="BackgroundImage" stdDeviation="82"/>
<feComposite in2="SourceAlpha" operator="in" result="effect1_backgroundBlur_134_189"/>
<feColorMatrix in="SourceAlpha" type="matrix" values="0 0 0 0 0 0 0 0 0 0 0 0 0 0 0 0 0 0 127 0" result="hardAlpha"/>
<feOffset dy="4"/>
<feGaussianBlur stdDeviation="17"/>
<feComposite in2="hardAlpha" operator="out"/>
<feColorMatrix type="matrix" values="0 0 0 0 0 0 0 0 0 0 0 0 0 0 0 0 0 0 0.25 0"/>
<feBlend mode="normal" in2="effect1_backgroundBlur_134_189" result="effect2_dropShadow_134_189"/>
<feBlend mode="normal" in="SourceGraphic" in2="effect2_dropShadow_134_189" result="shape"/>
</filter>
<linearGradient id="paint0_linear_134_189" x1="49.4806" y1="-61.4732" x2="862.297" y2="504.269" gradientUnits="userSpaceOnUse">
<stop stop-color="white"/>
<stop offset="1" stop-color="white" stop-opacity="0"/>
</linearGradient>
</defs>
</svg>
