<svg width="29" height="22" viewBox="0 0 29 22" fill="none" xmlns="http://www.w3.org/2000/svg">
<path fill-rule="evenodd" clip-rule="evenodd" d="M10.2909 0.828772C8.46353 1.02929 6.31985 1.86609 4.51168 3.08473C4.31448 3.21762 4.13086 3.34404 4.10363 3.36563C3.92192 3.50962 3.23127 4.80287 2.78849 5.82807C1.3764 9.09778 0.49167 12.9317 0.170084 17.1749C0.135777 17.6276 0.135936 17.7326 0.171041 17.7899C0.257926 17.9316 1.07037 18.7103 1.44782 19.0135C2.71924 20.0352 4.15892 20.7524 5.89084 21.227C6.67788 21.4427 7.72302 21.6175 8.3278 21.6345L8.61256 21.6426L9.13084 20.9571C9.41592 20.58 9.65005 20.2638 9.65116 20.2544C9.65228 20.2449 9.44158 20.1538 9.18291 20.0519C7.90699 19.5495 6.75737 18.8836 5.68494 18.0258C5.30019 17.7181 4.37602 16.8419 4.19463 16.6128C4.10694 16.5021 4.13685 16.5176 4.47556 16.7577C6.51367 18.2031 8.70015 19.0666 11.353 19.4737C13.2507 19.765 15.5696 19.7702 17.4968 19.4876C19.9932 19.1215 22.1436 18.3141 24.0809 17.0154C24.3264 16.8508 24.599 16.6624 24.6867 16.5967L24.8461 16.4774L24.7444 16.607C24.5654 16.8354 23.6445 17.7106 23.2506 18.027C22.2024 18.8687 21.0287 19.5486 19.7606 20.0487C19.5063 20.149 19.2935 20.2353 19.2877 20.2406C19.2819 20.2459 19.5123 20.5635 19.7998 20.9464L20.3225 21.6426L20.6075 21.6345C21.2158 21.6174 22.256 21.443 23.0572 21.2238C24.7846 20.7511 26.2085 20.0382 27.5119 18.9931C27.8657 18.7095 28.6835 17.9229 28.767 17.786C28.8114 17.713 28.7989 17.4796 28.6866 16.2861C28.3221 12.414 27.4638 8.87941 26.1472 5.82807C25.746 4.89836 25.0374 3.56124 24.8531 3.38616C24.8142 3.34918 24.5815 3.18542 24.336 3.02224C22.5523 1.83666 20.4548 1.03978 18.5488 0.823607L18.3733 0.803711L18.2204 1.11162C18.1363 1.28095 18.0736 1.42564 18.0811 1.43313C18.0886 1.44063 18.3081 1.50271 18.5689 1.57107C20.2789 2.01926 21.7386 2.72823 23.1172 3.78012C23.4831 4.0593 24.1658 4.63784 24.1491 4.65454C24.1425 4.66114 23.7944 4.4957 23.3756 4.28686C20.1021 2.65452 17.5335 2.05758 14.0692 2.12409C10.8624 2.1857 8.59454 2.76576 5.49596 4.31702C5.1122 4.50915 4.79278 4.66092 4.78615 4.65432C4.77138 4.63953 5.24821 4.22701 5.69954 3.86411C6.61137 3.13096 7.6126 2.55058 8.68618 2.13283C9.21801 1.9259 10.026 1.66222 10.4667 1.55178C10.6442 1.50733 10.8073 1.45985 10.8292 1.4463C10.8589 1.42797 10.8299 1.34271 10.7163 1.11398C10.5503 0.779862 10.5765 0.79743 10.2909 0.828772ZM10.8603 10.0396C12.1431 10.4702 12.8275 12.0318 12.3574 13.4553C11.827 15.0612 10.1003 15.6445 8.88236 14.6293C8.33517 14.1731 8.01084 13.4829 7.97229 12.6927C7.95179 12.2723 7.99167 11.9535 8.10732 11.6136C8.33877 10.9331 8.7738 10.4196 9.35527 10.1406C9.83341 9.91108 10.3702 9.87508 10.8603 10.0396ZM19.0714 9.9722C19.7108 10.0862 20.3063 10.5438 20.6397 11.1775C20.8952 11.6632 20.9914 12.1139 20.9632 12.6927C20.9151 13.68 20.3979 14.5343 19.6171 14.9164C19.312 15.0657 19.0636 15.1244 18.7243 15.1271C17.5555 15.1366 16.592 14.1743 16.4468 12.8523C16.2966 11.4855 17.1038 10.2379 18.3098 9.97236C18.5598 9.91733 18.7632 9.9173 19.0714 9.9722Z" fill="#8EFE1C"/>
</svg>
