<svg width="24" height="24" viewBox="0 0 24 24" fill="none" xmlns="http://www.w3.org/2000/svg">
<path fill-rule="evenodd" clip-rule="evenodd" d="M2.60746 0.951137C0.865382 1.74238 0.381194 3.97316 1.64082 5.40417C2.40929 6.27721 3.72166 6.56733 4.78261 6.09874C7.01554 5.11241 7.03874 1.97339 4.82058 0.970534C4.21663 0.697446 3.18585 0.688415 2.60746 0.951137ZM16.6166 8.17568C15.6741 8.49701 14.8344 9.0284 14.2649 9.66386L13.7786 10.2066L13.7134 9.66386C13.6775 9.36543 13.6477 8.94805 13.6473 8.73633L13.6464 8.35148H11.3886H9.13087V15.9971V23.6427H11.3886H13.6464L13.6541 21.1027C13.6584 19.7057 13.696 17.5698 13.7376 16.3563C13.822 13.9039 13.8428 13.8217 14.5867 13.0149C15.1298 12.4256 15.7693 12.209 16.7756 12.2736C17.7623 12.337 18.2872 12.6747 18.723 13.5268C19.0252 14.1177 19.033 14.1712 19.1009 16.1412C19.1389 17.2473 19.1742 19.3876 19.1792 20.8975L19.1882 23.6427H21.4973H23.8064V18.1687C23.8064 13.0923 23.7919 12.6382 23.6078 11.9183C23.339 10.8671 22.9659 10.168 22.3023 9.47236C21.295 8.41634 20.0439 7.94303 18.2646 7.94519C17.5267 7.94601 17.1259 8.00204 16.6166 8.17568ZM1.39976 8.41993C1.36209 8.45749 1.3313 11.898 1.3313 16.0656V23.6427H3.6917H6.05209V15.9971V8.35148H3.76015C2.49949 8.35148 1.43732 8.38227 1.39976 8.41993Z" fill="#8EFE1C"/>
</svg>
