<svg width="34" height="20" viewBox="0 0 34 20" fill="none" xmlns="http://www.w3.org/2000/svg">
<path fill-rule="evenodd" clip-rule="evenodd" d="M7.36329 1.05714C1.32712 2.78649 -1.457 9.6787 1.71207 15.0475C2.84327 16.9639 4.70918 18.4887 6.82573 19.2262C8.19558 19.7035 10.7974 19.8091 12.2017 19.4442C15.7422 18.5246 18.4523 15.7206 19.1967 12.2066C20.2523 7.22337 17.1961 2.29503 12.2564 1.01503C11.0014 0.689848 8.57239 0.710748 7.36329 1.05714ZM23.7222 1.53416C22.4343 2.21511 21.2751 4.04205 20.6272 6.41163C20.1511 8.15313 20.1511 12.2914 20.6272 14.0329C21.5116 17.2675 23.1667 19.2125 25.0349 19.2125C26.5142 19.2125 27.6403 18.2855 28.6561 16.232C30.3027 12.9029 30.3027 7.54164 28.6561 4.21248C27.9781 2.84213 27.0606 1.78481 26.258 1.44948C25.539 1.14904 24.377 1.18777 23.7222 1.53416ZM31.6395 2.62405C30.7862 4.27442 30.3205 8.85098 30.619 12.6568C30.8057 15.0373 31.18 16.9319 31.6395 17.8205C31.9962 18.51 32.5486 18.4645 32.9282 17.7141C34.3542 14.895 34.3542 5.54949 32.9282 2.7304C32.5486 1.97998 31.9962 1.9345 31.6395 2.62405Z" fill="#8EFE1C"/>
</svg>
