<svg width="24" height="20" viewBox="0 0 24 20" fill="none" xmlns="http://www.w3.org/2000/svg">
<path fill-rule="evenodd" clip-rule="evenodd" d="M23.2407 3.0182C22.3867 3.39758 21.4677 3.65308 20.5038 3.76845C21.4878 3.17846 22.2435 2.24471 22.5989 1.1321C21.6791 1.67873 20.6578 2.07438 19.5731 2.28885C18.7036 1.36284 17.4641 0.783691 16.0944 0.783691C13.4627 0.783691 11.3289 2.91754 11.3289 5.54924C11.3289 5.92243 11.3715 6.28633 11.4528 6.63552C7.49173 6.43731 3.98052 4.53961 1.6299 1.65628C1.21955 2.36008 0.984949 3.17847 0.984949 4.05184C0.984949 5.70487 1.82501 7.16357 3.10484 8.01835C2.32285 7.99358 1.58886 7.7791 0.945461 7.42217V7.48179C0.945461 9.7914 2.58919 11.717 4.76793 12.156C4.36841 12.2644 3.94722 12.3232 3.51287 12.3232C3.20549 12.3232 2.90663 12.293 2.61552 12.2373C3.22175 14.1303 4.98239 15.5085 7.06744 15.5472C5.43688 16.8247 3.38202 17.5874 1.14909 17.5874C0.763512 17.5874 0.384132 17.5649 0.0117188 17.52C2.12077 18.8719 4.62546 19.6616 7.31675 19.6616C16.082 19.6616 20.8754 12.3999 20.8754 6.10283C20.8754 5.8961 20.8715 5.69016 20.8615 5.48653C21.7937 4.81293 22.602 3.97363 23.2407 3.0182Z" fill="#8EFE1C"/>
</svg>
