<svg width="34" height="33" viewBox="0 0 34 33" fill="none" xmlns="http://www.w3.org/2000/svg">
<path d="M0.865479 0V32.4728H33.4996V10.1277L23.3719 0H0.865479Z" fill="#7F1CFE"/>
<path fill-rule="evenodd" clip-rule="evenodd" d="M27.34 11.8788C26.5932 12.2105 25.7896 12.4339 24.9466 12.5348C25.8072 12.0189 26.4679 11.2024 26.7787 10.2295C25.9744 10.7075 25.0814 11.0534 24.1328 11.241C23.3725 10.4312 22.2886 9.9248 21.0909 9.9248C18.7896 9.9248 16.9237 11.7907 16.9237 14.092C16.9237 14.4183 16.9609 14.7365 17.032 15.0419C13.5683 14.8686 10.4979 13.2091 8.44236 10.6878C8.08353 11.3033 7.87839 12.0189 7.87839 12.7826C7.87839 14.2281 8.61298 15.5036 9.73213 16.2511C9.04832 16.2294 8.40648 16.0419 7.84386 15.7298V15.7819C7.84386 17.8015 9.28122 19.4853 11.1864 19.8692C10.8371 19.964 10.4688 20.0155 10.0889 20.0155C9.82015 20.0155 9.55881 19.989 9.30424 19.9403C9.83436 21.5957 11.374 22.8008 13.1972 22.8347C11.7714 23.9518 9.97451 24.6187 8.02192 24.6187C7.68475 24.6187 7.353 24.599 7.02734 24.5598C8.87161 25.7419 11.0618 26.4325 13.4152 26.4325C21.08 26.4325 25.2716 20.0825 25.2716 14.5761C25.2716 14.3953 25.2682 14.2152 25.2594 14.0372C26.0746 13.4481 26.7814 12.7142 27.34 11.8788Z" fill="white"/>
</svg>
