<svg width="25" height="20" viewBox="0 0 25 20" fill="none" xmlns="http://www.w3.org/2000/svg">
<path fill-rule="evenodd" clip-rule="evenodd" d="M24.0434 3.20127C23.1894 3.58066 22.2704 3.83615 21.3064 3.95151C22.2905 3.36154 23.0462 2.4278 23.4016 1.31521C22.4818 1.86182 21.4605 2.25747 20.3758 2.47193C19.5063 1.54593 18.2668 0.966797 16.8971 0.966797C14.2654 0.966797 12.1316 3.10062 12.1316 5.73229C12.1316 6.10547 12.1742 6.46937 12.2555 6.81855C8.29445 6.62035 4.78324 4.72267 2.43263 1.83937C2.02228 2.54316 1.78768 3.36155 1.78768 4.2349C1.78768 5.88792 2.62774 7.3466 3.90757 8.20137C3.12558 8.17659 2.39159 7.96212 1.74819 7.60519V7.66481C1.74819 9.97439 3.39192 11.8999 5.57065 12.3389C5.17114 12.4473 4.74995 12.5062 4.3156 12.5062C4.00822 12.5062 3.70936 12.476 3.41824 12.4202C4.02448 14.3133 5.78512 15.6914 7.87016 15.7301C6.2396 17.0076 4.18475 17.7703 1.95182 17.7703C1.56625 17.7703 1.18687 17.7478 0.814453 17.7029C2.9235 19.0547 5.42819 19.8445 8.11947 19.8445C16.8847 19.8445 21.6781 12.5828 21.6781 6.28587C21.6781 6.07914 21.6742 5.8732 21.6642 5.66958C22.5963 4.99598 23.4047 4.15669 24.0434 3.20127Z" fill="white"/>
</svg>
