<svg width="34" height="34" viewBox="0 0 34 34" fill="none" xmlns="http://www.w3.org/2000/svg">
<path d="M0.924194 0.640686V33.1135H33.5583V10.7684L23.4306 0.640686H0.924194Z" fill="#8EFE1C"/>
<path fill-rule="evenodd" clip-rule="evenodd" d="M27.3989 12.5197C26.6522 12.8514 25.8485 13.0749 25.0056 13.1757C25.8661 12.6598 26.5269 11.8433 26.8377 10.8704C26.0333 11.3484 25.1403 11.6944 24.1918 11.8819C23.4315 11.0722 22.3475 10.5657 21.1498 10.5657C18.8486 10.5657 16.9826 12.4317 16.9826 14.7329C16.9826 15.0593 17.0199 15.3775 17.091 15.6828C13.6272 15.5095 10.5568 13.8501 8.50132 11.3288C8.14249 11.9442 7.93735 12.6598 7.93735 13.4235C7.93735 14.869 8.67194 16.1446 9.79109 16.892C9.10728 16.8704 8.46544 16.6828 7.90282 16.3707V16.4228C7.90282 18.4425 9.34018 20.1263 11.2454 20.5101C10.896 20.6049 10.5277 20.6564 10.1479 20.6564C9.87911 20.6564 9.61777 20.63 9.3632 20.5812C9.89332 22.2366 11.4329 23.4417 13.2562 23.4756C11.8303 24.5927 10.0335 25.2596 8.08088 25.2596C7.74371 25.2596 7.41196 25.24 7.0863 25.2007C8.93057 26.3828 11.1208 27.0734 13.4742 27.0734C21.139 27.0734 25.3306 20.7234 25.3306 15.217C25.3306 15.0362 25.3272 14.8562 25.3184 14.6781C26.1336 14.0891 26.8404 13.3552 27.3989 12.5197Z" fill="black"/>
</svg>
