<svg width="24" height="20" viewBox="0 0 24 20" fill="none" xmlns="http://www.w3.org/2000/svg">
<path fill-rule="evenodd" clip-rule="evenodd" d="M23.7554 2.96302C22.9014 3.34241 21.9823 3.59791 21.0184 3.71327C22.0025 3.12329 22.7581 2.18954 23.1135 1.07693C22.1937 1.62355 21.1725 2.0192 20.0878 2.23367C19.2183 1.30766 17.9787 0.728516 16.6091 0.728516C13.9774 0.728516 11.8436 2.86237 11.8436 5.49406C11.8436 5.86726 11.8861 6.23116 11.9674 6.58035C8.00638 6.38214 4.49517 4.48443 2.14455 1.6011C1.73419 2.3049 1.4996 3.1233 1.4996 3.99666C1.4996 5.6497 2.33966 7.1084 3.61949 7.96318C2.8375 7.9384 2.10351 7.72393 1.46011 7.367V7.42661C1.46011 9.73622 3.10384 11.6618 5.28257 12.1008C4.88306 12.2092 4.46187 12.268 4.02752 12.268C3.72014 12.268 3.42128 12.2378 3.13016 12.1821C3.7364 14.0752 5.49704 15.4533 7.58209 15.492C5.95153 16.7696 3.89667 17.5322 1.66374 17.5322C1.27816 17.5322 0.898781 17.5098 0.526367 17.4648C2.63542 18.8167 5.14011 19.6064 7.8314 19.6064C16.5967 19.6064 21.39 12.3447 21.39 6.04766C21.39 5.84093 21.3862 5.63498 21.3761 5.43135C22.3083 4.75775 23.1166 3.91845 23.7554 2.96302Z" fill="#8EFE1C"/>
</svg>
