<svg width="301" height="293" viewBox="0 0 301 293" fill="none" xmlns="http://www.w3.org/2000/svg">
<path d="M153.634 27.3623V0.711274H153.36L142.395 4.77482V8.63703L149.223 6.12934V27.3623H153.634Z" fill="#8EFE1C"/>
<path d="M62.5469 44.9873H59.8203V56.3623H61.8359V52.9951L61.7422 47.8857L63.0781 52.6123H64.1641L65.6562 47.6748L65.5625 52.9951V56.3623H67.5781V44.9873H64.8516L63.625 49.2607L62.5469 44.9873ZM74.8203 56.3623H77.0234V56.2295C76.9141 56.016 76.8307 55.7607 76.7734 55.4639C76.7161 55.167 76.6875 54.792 76.6875 54.3389V50.7139C76.6875 50.2243 76.5964 49.7946 76.4141 49.4248C76.2318 49.0498 75.9792 48.7399 75.6562 48.4951C75.3333 48.2503 74.9505 48.0654 74.5078 47.9404C74.0703 47.8154 73.5964 47.7529 73.0859 47.7529C72.5182 47.7529 72.013 47.8258 71.5703 47.9717C71.1328 48.1123 70.763 48.305 70.4609 48.5498C70.1536 48.7946 69.9193 49.0785 69.7578 49.4014C69.6016 49.7243 69.5234 50.0654 69.5234 50.4248H71.6953C71.6953 50.2738 71.7161 50.1357 71.7578 50.0107C71.8047 49.8857 71.875 49.779 71.9688 49.6904C72.0729 49.5915 72.2083 49.516 72.375 49.4639C72.5417 49.4066 72.7396 49.3779 72.9688 49.3779C73.2292 49.3779 73.4557 49.4118 73.6484 49.4795C73.8464 49.542 74.0104 49.6331 74.1406 49.7529C74.2656 49.8675 74.3594 50.0055 74.4219 50.167C74.4844 50.3232 74.5156 50.5003 74.5156 50.6982V51.1982H73.3047C72.6797 51.1982 72.125 51.2555 71.6406 51.3701C71.1615 51.4795 70.7578 51.641 70.4297 51.8545C70.0651 52.0889 69.7917 52.3883 69.6094 52.7529C69.4271 53.1123 69.3359 53.5264 69.3359 53.9951C69.3359 54.3597 69.4089 54.6982 69.5547 55.0107C69.7005 55.318 69.9036 55.5837 70.1641 55.8076C70.4245 56.0316 70.7344 56.2061 71.0938 56.3311C71.4583 56.4561 71.8568 56.5186 72.2891 56.5186C72.5547 56.5186 72.8021 56.4925 73.0312 56.4404C73.2604 56.3936 73.4714 56.3258 73.6641 56.2373C73.8516 56.154 74.0234 56.055 74.1797 55.9404C74.3359 55.8258 74.474 55.7035 74.5938 55.5732C74.6198 55.7243 74.651 55.8675 74.6875 56.0029C74.724 56.1383 74.7682 56.2581 74.8203 56.3623ZM72.75 54.8389C72.5469 54.8389 72.3672 54.8154 72.2109 54.7686C72.0599 54.7165 71.9323 54.6488 71.8281 54.5654C71.724 54.4769 71.6432 54.3701 71.5859 54.2451C71.5339 54.1149 71.5078 53.9743 71.5078 53.8232C71.5078 53.6305 71.5443 53.4535 71.6172 53.292C71.6901 53.1253 71.8021 52.9821 71.9531 52.8623C72.1042 52.7477 72.2995 52.6592 72.5391 52.5967C72.7786 52.529 73.0677 52.4951 73.4062 52.4951H74.5156V53.9482C74.4531 54.0576 74.3672 54.167 74.2578 54.2764C74.1484 54.3805 74.0182 54.4743 73.8672 54.5576C73.7161 54.641 73.5469 54.7087 73.3594 54.7607C73.1719 54.8128 72.9688 54.8389 72.75 54.8389ZM84.6016 54.042C84.6016 54.1722 84.5677 54.292 84.5 54.4014C84.4375 54.5107 84.3411 54.6071 84.2109 54.6904C84.0755 54.7738 83.901 54.8415 83.6875 54.8936C83.4792 54.9404 83.2344 54.9639 82.9531 54.9639C82.7188 54.9639 82.4896 54.9404 82.2656 54.8936C82.0469 54.8467 81.8516 54.7712 81.6797 54.667C81.5078 54.568 81.3672 54.4378 81.2578 54.2764C81.1484 54.1097 81.0859 53.9118 81.0703 53.6826H79C79 54.0264 79.0833 54.3701 79.25 54.7139C79.4219 55.0524 79.6719 55.3545 80 55.6201C80.3281 55.891 80.7344 56.1097 81.2188 56.2764C81.7083 56.443 82.2708 56.5264 82.9062 56.5264C83.4844 56.5264 84.0078 56.4639 84.4766 56.3389C84.9453 56.2087 85.3464 56.029 85.6797 55.7998C86.0078 55.5706 86.2604 55.2998 86.4375 54.9873C86.6198 54.6696 86.7109 54.3232 86.7109 53.9482C86.7109 53.542 86.6198 53.193 86.4375 52.9014C86.2604 52.6045 86.013 52.3519 85.6953 52.1436C85.3776 51.9404 85 51.7738 84.5625 51.6436C84.125 51.5133 83.651 51.4066 83.1406 51.3232C82.7865 51.2712 82.4948 51.2113 82.2656 51.1436C82.0365 51.0706 81.8568 50.9899 81.7266 50.9014C81.5911 50.818 81.4974 50.7243 81.4453 50.6201C81.3932 50.5107 81.3672 50.3936 81.3672 50.2686C81.3672 50.1436 81.3958 50.0264 81.4531 49.917C81.5156 49.8024 81.6042 49.7035 81.7188 49.6201C81.8438 49.5264 82.0052 49.4535 82.2031 49.4014C82.401 49.3493 82.6328 49.3232 82.8984 49.3232C83.2109 49.3232 83.4766 49.3623 83.6953 49.4404C83.9193 49.5186 84.0964 49.6227 84.2266 49.7529C84.3203 49.8519 84.3906 49.9639 84.4375 50.0889C84.4844 50.2087 84.5078 50.3389 84.5078 50.4795H86.6797C86.6797 50.0889 86.5938 49.7269 86.4219 49.3936C86.25 49.0602 86.0026 48.7712 85.6797 48.5264C85.3516 48.2868 84.9531 48.0993 84.4844 47.9639C84.0156 47.8232 83.487 47.7529 82.8984 47.7529C82.3359 47.7529 81.8307 47.8232 81.3828 47.9639C80.9349 48.1045 80.5547 48.2946 80.2422 48.5342C79.9297 48.7738 79.6901 49.0524 79.5234 49.3701C79.3568 49.6878 79.2734 50.0212 79.2734 50.3701C79.2734 50.7295 79.3542 51.0472 79.5156 51.3232C79.6823 51.5993 79.9115 51.8415 80.2031 52.0498C80.4948 52.2633 80.8438 52.4456 81.25 52.5967C81.6615 52.7425 82.1146 52.8649 82.6094 52.9639C83 53.0368 83.3229 53.1097 83.5781 53.1826C83.8333 53.2555 84.0391 53.3337 84.1953 53.417C84.3464 53.5055 84.4505 53.5993 84.5078 53.6982C84.5703 53.7972 84.6016 53.9118 84.6016 54.042ZM94.2109 54.042C94.2109 54.1722 94.1771 54.292 94.1094 54.4014C94.0469 54.5107 93.9505 54.6071 93.8203 54.6904C93.6849 54.7738 93.5104 54.8415 93.2969 54.8936C93.0885 54.9404 92.8438 54.9639 92.5625 54.9639C92.3281 54.9639 92.099 54.9404 91.875 54.8936C91.6562 54.8467 91.4609 54.7712 91.2891 54.667C91.1172 54.568 90.9766 54.4378 90.8672 54.2764C90.7578 54.1097 90.6953 53.9118 90.6797 53.6826H88.6094C88.6094 54.0264 88.6927 54.3701 88.8594 54.7139C89.0312 55.0524 89.2812 55.3545 89.6094 55.6201C89.9375 55.891 90.3438 56.1097 90.8281 56.2764C91.3177 56.443 91.8802 56.5264 92.5156 56.5264C93.0938 56.5264 93.6172 56.4639 94.0859 56.3389C94.5547 56.2087 94.9557 56.029 95.2891 55.7998C95.6172 55.5706 95.8698 55.2998 96.0469 54.9873C96.2292 54.6696 96.3203 54.3232 96.3203 53.9482C96.3203 53.542 96.2292 53.193 96.0469 52.9014C95.8698 52.6045 95.6224 52.3519 95.3047 52.1436C94.987 51.9404 94.6094 51.7738 94.1719 51.6436C93.7344 51.5133 93.2604 51.4066 92.75 51.3232C92.3958 51.2712 92.1042 51.2113 91.875 51.1436C91.6458 51.0706 91.4661 50.9899 91.3359 50.9014C91.2005 50.818 91.1068 50.7243 91.0547 50.6201C91.0026 50.5107 90.9766 50.3936 90.9766 50.2686C90.9766 50.1436 91.0052 50.0264 91.0625 49.917C91.125 49.8024 91.2135 49.7035 91.3281 49.6201C91.4531 49.5264 91.6146 49.4535 91.8125 49.4014C92.0104 49.3493 92.2422 49.3232 92.5078 49.3232C92.8203 49.3232 93.0859 49.3623 93.3047 49.4404C93.5286 49.5186 93.7057 49.6227 93.8359 49.7529C93.9297 49.8519 94 49.9639 94.0469 50.0889C94.0938 50.2087 94.1172 50.3389 94.1172 50.4795H96.2891C96.2891 50.0889 96.2031 49.7269 96.0312 49.3936C95.8594 49.0602 95.612 48.7712 95.2891 48.5264C94.9609 48.2868 94.5625 48.0993 94.0938 47.9639C93.625 47.8232 93.0964 47.7529 92.5078 47.7529C91.9453 47.7529 91.4401 47.8232 90.9922 47.9639C90.5443 48.1045 90.1641 48.2946 89.8516 48.5342C89.5391 48.7738 89.2995 49.0524 89.1328 49.3701C88.9661 49.6878 88.8828 50.0212 88.8828 50.3701C88.8828 50.7295 88.9635 51.0472 89.125 51.3232C89.2917 51.5993 89.5208 51.8415 89.8125 52.0498C90.1042 52.2633 90.4531 52.4456 90.8594 52.5967C91.2708 52.7425 91.724 52.8649 92.2188 52.9639C92.6094 53.0368 92.9323 53.1097 93.1875 53.1826C93.4427 53.2555 93.6484 53.3337 93.8047 53.417C93.9557 53.5055 94.0599 53.5993 94.1172 53.6982C94.1797 53.7972 94.2109 53.9118 94.2109 54.042ZM98.9453 47.9092V49.6826H101.352V54.5967H98.9453V56.3623H105.836V54.5967H103.547V47.9092H98.9453ZM101.195 45.7451C101.195 45.9118 101.224 46.068 101.281 46.2139C101.344 46.3545 101.43 46.4743 101.539 46.5732C101.648 46.6774 101.779 46.7581 101.93 46.8154C102.086 46.8727 102.258 46.9014 102.445 46.9014C102.831 46.9014 103.135 46.7946 103.359 46.5811C103.589 46.3623 103.703 46.0837 103.703 45.7451C103.703 45.4066 103.589 45.1305 103.359 44.917C103.135 44.6982 102.831 44.5889 102.445 44.5889C102.258 44.5889 102.086 44.6175 101.93 44.6748C101.779 44.7321 101.648 44.8102 101.539 44.9092C101.43 45.0133 101.344 45.1383 101.281 45.2842C101.224 45.4248 101.195 45.5785 101.195 45.7451ZM110.664 56.3623H112.703L115.914 47.9092H113.648L111.797 53.8701L111.68 54.4639L111.562 53.8701L109.703 47.9092H107.438L110.664 56.3623ZM121.688 56.5186C122.505 56.5186 123.214 56.3597 123.812 56.042C124.411 55.7243 124.849 55.3701 125.125 54.9795L124.039 53.8076C123.789 54.1305 123.464 54.3727 123.062 54.5342C122.661 54.6956 122.247 54.7764 121.82 54.7764C121.518 54.7764 121.24 54.7295 120.984 54.6357C120.729 54.542 120.503 54.4092 120.305 54.2373C120.112 54.0706 119.958 53.8857 119.844 53.6826C119.729 53.4743 119.635 53.2008 119.562 52.8623V52.8389H125.297V51.917C125.297 51.2972 125.211 50.7321 125.039 50.2217C124.867 49.7061 124.617 49.266 124.289 48.9014C123.956 48.5368 123.549 48.2555 123.07 48.0576C122.596 47.8545 122.055 47.7529 121.445 47.7529C120.857 47.7529 120.312 47.8597 119.812 48.0732C119.312 48.2868 118.88 48.5863 118.516 48.9717C118.151 49.3571 117.867 49.818 117.664 50.3545C117.461 50.8857 117.359 51.4743 117.359 52.1201V52.4326C117.359 53.0003 117.461 53.5342 117.664 54.0342C117.872 54.529 118.167 54.9587 118.547 55.3232C118.927 55.693 119.383 55.9847 119.914 56.1982C120.445 56.4118 121.036 56.5186 121.688 56.5186ZM121.43 49.5107C121.706 49.5107 121.948 49.555 122.156 49.6436C122.37 49.7269 122.549 49.8415 122.695 49.9873C122.841 50.1383 122.956 50.3154 123.039 50.5186C123.122 50.7217 123.164 50.9378 123.164 51.167V51.3389H119.602C119.654 51.0628 119.732 50.8128 119.836 50.5889C119.94 50.3649 120.07 50.1722 120.227 50.0107C120.378 49.8493 120.555 49.7269 120.758 49.6436C120.961 49.555 121.185 49.5107 121.43 49.5107ZM144.625 52.7998H142.43C142.409 53.1436 142.352 53.4378 142.258 53.6826C142.164 53.9274 142.036 54.1279 141.875 54.2842C141.714 54.4404 141.518 54.555 141.289 54.6279C141.06 54.7008 140.802 54.7373 140.516 54.7373C140.302 54.7373 140.107 54.7139 139.93 54.667C139.758 54.6149 139.602 54.5368 139.461 54.4326C139.331 54.3389 139.214 54.2217 139.109 54.0811C139.01 53.9404 138.924 53.779 138.852 53.5967C138.747 53.3311 138.669 53.0212 138.617 52.667C138.57 52.3076 138.547 51.9014 138.547 51.4482V49.9014C138.547 49.568 138.562 49.2581 138.594 48.9717C138.625 48.68 138.674 48.4144 138.742 48.1748C138.831 47.8675 138.948 47.5993 139.094 47.3701C139.245 47.1357 139.427 46.9561 139.641 46.8311C139.766 46.7581 139.901 46.7035 140.047 46.667C140.198 46.6305 140.359 46.6123 140.531 46.6123C140.854 46.6123 141.13 46.6566 141.359 46.7451C141.594 46.8285 141.789 46.9535 141.945 47.1201C142.096 47.292 142.211 47.5055 142.289 47.7607C142.372 48.016 142.424 48.3128 142.445 48.6514H144.633C144.581 48.0576 144.456 47.5238 144.258 47.0498C144.06 46.5758 143.789 46.1748 143.445 45.8467C143.102 45.5186 142.685 45.266 142.195 45.0889C141.711 44.9118 141.156 44.8232 140.531 44.8232C140.109 44.8232 139.714 44.8779 139.344 44.9873C138.979 45.0915 138.643 45.2425 138.336 45.4404C137.992 45.6748 137.685 45.9613 137.414 46.2998C137.143 46.6383 136.924 47.0238 136.758 47.4561C136.612 47.8102 136.503 48.1956 136.43 48.6123C136.357 49.0238 136.32 49.4587 136.32 49.917V51.4482C136.32 51.9378 136.359 52.4014 136.438 52.8389C136.521 53.2764 136.638 53.6774 136.789 54.042C136.945 54.4066 137.135 54.7399 137.359 55.042C137.589 55.3441 137.849 55.6019 138.141 55.8154C138.458 56.0446 138.815 56.2217 139.211 56.3467C139.612 56.4665 140.047 56.5264 140.516 56.5264C141.109 56.5264 141.651 56.4404 142.141 56.2686C142.63 56.0915 143.052 55.8415 143.406 55.5186C143.76 55.1956 144.042 54.805 144.25 54.3467C144.464 53.8883 144.589 53.3727 144.625 52.7998ZM146.117 52.0576V52.2217C146.117 52.8415 146.206 53.4144 146.383 53.9404C146.56 54.4613 146.82 54.9144 147.164 55.2998C147.503 55.6852 147.919 55.9873 148.414 56.2061C148.914 56.4196 149.482 56.5264 150.117 56.5264C150.747 56.5264 151.31 56.4196 151.805 56.2061C152.299 55.9873 152.716 55.6852 153.055 55.2998C153.393 54.9144 153.651 54.4613 153.828 53.9404C154.005 53.4144 154.094 52.8415 154.094 52.2217V52.0576C154.094 51.443 154.005 50.8753 153.828 50.3545C153.651 49.8285 153.393 49.3727 153.055 48.9873C152.711 48.6019 152.292 48.2998 151.797 48.0811C151.302 47.8623 150.737 47.7529 150.102 47.7529C149.466 47.7529 148.901 47.8623 148.406 48.0811C147.917 48.2998 147.503 48.6019 147.164 48.9873C146.82 49.3727 146.56 49.8285 146.383 50.3545C146.206 50.8753 146.117 51.443 146.117 52.0576ZM148.289 52.2217V52.0576C148.289 51.7139 148.323 51.3883 148.391 51.0811C148.458 50.7738 148.565 50.5029 148.711 50.2686C148.857 50.0342 149.044 49.8493 149.273 49.7139C149.503 49.5785 149.779 49.5107 150.102 49.5107C150.43 49.5107 150.708 49.5785 150.938 49.7139C151.167 49.8493 151.354 50.0342 151.5 50.2686C151.641 50.5029 151.745 50.7738 151.812 51.0811C151.88 51.3883 151.914 51.7139 151.914 52.0576V52.2217C151.914 52.5758 151.88 52.9092 151.812 53.2217C151.745 53.529 151.641 53.7972 151.5 54.0264C151.354 54.2607 151.167 54.4456 150.938 54.5811C150.708 54.7165 150.435 54.7842 150.117 54.7842C149.789 54.7842 149.508 54.7165 149.273 54.5811C149.044 54.4456 148.857 54.2607 148.711 54.0264C148.565 53.7972 148.458 53.529 148.391 53.2217C148.323 52.9092 148.289 52.5758 148.289 52.2217ZM157.375 47.9092H155.508V56.3623H157.484V50.0342C157.51 49.9665 157.539 49.904 157.57 49.8467C157.602 49.7894 157.638 49.7399 157.68 49.6982C157.737 49.641 157.802 49.5967 157.875 49.5654C157.948 49.5342 158.031 49.5186 158.125 49.5186C158.208 49.5186 158.286 49.5316 158.359 49.5576C158.432 49.5785 158.497 49.6175 158.555 49.6748C158.607 49.7321 158.648 49.8128 158.68 49.917C158.711 50.0212 158.727 50.154 158.727 50.3154V56.3623H160.641V50.1279C160.641 50.0654 160.641 50.016 160.641 49.9795C160.641 49.943 160.641 49.9196 160.641 49.9092C160.667 49.8519 160.698 49.8024 160.734 49.7607C160.771 49.7139 160.812 49.6722 160.859 49.6357C160.917 49.5993 160.977 49.5706 161.039 49.5498C161.107 49.529 161.182 49.5186 161.266 49.5186C161.344 49.5186 161.419 49.5316 161.492 49.5576C161.57 49.5785 161.638 49.6175 161.695 49.6748C161.753 49.7373 161.797 49.8206 161.828 49.9248C161.865 50.029 161.883 50.1618 161.883 50.3232V56.3623H163.859V50.3311C163.859 49.8623 163.812 49.4665 163.719 49.1436C163.63 48.8154 163.505 48.5472 163.344 48.3389C163.177 48.1357 162.982 47.9873 162.758 47.8936C162.539 47.7998 162.302 47.7529 162.047 47.7529C161.844 47.7529 161.656 47.779 161.484 47.8311C161.312 47.8831 161.159 47.9561 161.023 48.0498C160.914 48.1227 160.812 48.2113 160.719 48.3154C160.63 48.4144 160.549 48.5264 160.477 48.6514C160.43 48.5212 160.372 48.4066 160.305 48.3076C160.242 48.2035 160.167 48.1149 160.078 48.042C159.964 47.943 159.828 47.8701 159.672 47.8232C159.516 47.7764 159.339 47.7529 159.141 47.7529C158.734 47.7529 158.388 47.8597 158.102 48.0732C157.82 48.2816 157.599 48.568 157.438 48.9326L157.375 47.9092ZM173.25 52.2217V52.0576C173.25 51.5472 173.203 51.068 173.109 50.6201C173.021 50.1722 172.883 49.7686 172.695 49.4092C172.576 49.1852 172.438 48.9795 172.281 48.792C172.125 48.5993 171.951 48.4352 171.758 48.2998C171.518 48.1227 171.245 47.9873 170.938 47.8936C170.635 47.7998 170.302 47.7529 169.938 47.7529C169.672 47.7529 169.424 47.7816 169.195 47.8389C168.971 47.891 168.763 47.9717 168.57 48.0811C168.435 48.154 168.307 48.2425 168.188 48.3467C168.068 48.4456 167.956 48.555 167.852 48.6748V44.3623H165.68V56.3623H167.633L167.734 55.4639C167.823 55.5785 167.917 55.6852 168.016 55.7842C168.115 55.8779 168.221 55.9639 168.336 56.042C168.549 56.1982 168.789 56.3154 169.055 56.3936C169.326 56.4769 169.625 56.5186 169.953 56.5186C170.312 56.5186 170.641 56.4717 170.938 56.3779C171.24 56.2894 171.51 56.1592 171.75 55.9873C172.016 55.805 172.245 55.5758 172.438 55.2998C172.635 55.0238 172.794 54.7165 172.914 54.3779C173.023 54.0706 173.107 53.7373 173.164 53.3779C173.221 53.0133 173.25 52.6279 173.25 52.2217ZM171.078 52.0576V52.2217C171.078 52.4404 171.068 52.6514 171.047 52.8545C171.031 53.0576 171.003 53.2451 170.961 53.417C170.909 53.6514 170.831 53.8623 170.727 54.0498C170.628 54.2321 170.497 54.3805 170.336 54.4951C170.221 54.5785 170.086 54.6436 169.93 54.6904C169.773 54.7373 169.599 54.7607 169.406 54.7607C169.182 54.7607 168.982 54.7347 168.805 54.6826C168.633 54.6305 168.482 54.555 168.352 54.4561C168.242 54.3779 168.146 54.2868 168.062 54.1826C167.984 54.0732 167.914 53.9535 167.852 53.8232V50.4561C167.898 50.3571 167.951 50.266 168.008 50.1826C168.065 50.0941 168.128 50.016 168.195 49.9482C168.336 49.8076 168.505 49.7008 168.703 49.6279C168.901 49.555 169.13 49.5186 169.391 49.5186C169.583 49.5186 169.755 49.542 169.906 49.5889C170.057 49.6305 170.193 49.6956 170.312 49.7842C170.495 49.9248 170.63 50.0811 170.719 50.2529C170.812 50.4196 170.888 50.6097 170.945 50.8232C170.992 51.0055 171.026 51.2008 171.047 51.4092C171.068 51.6175 171.078 51.8337 171.078 52.0576ZM180.523 56.3623H182.727V56.2295C182.617 56.016 182.534 55.7607 182.477 55.4639C182.419 55.167 182.391 54.792 182.391 54.3389V50.7139C182.391 50.2243 182.299 49.7946 182.117 49.4248C181.935 49.0498 181.682 48.7399 181.359 48.4951C181.036 48.2503 180.654 48.0654 180.211 47.9404C179.773 47.8154 179.299 47.7529 178.789 47.7529C178.221 47.7529 177.716 47.8258 177.273 47.9717C176.836 48.1123 176.466 48.305 176.164 48.5498C175.857 48.7946 175.622 49.0785 175.461 49.4014C175.305 49.7243 175.227 50.0654 175.227 50.4248H177.398C177.398 50.2738 177.419 50.1357 177.461 50.0107C177.508 49.8857 177.578 49.779 177.672 49.6904C177.776 49.5915 177.911 49.516 178.078 49.4639C178.245 49.4066 178.443 49.3779 178.672 49.3779C178.932 49.3779 179.159 49.4118 179.352 49.4795C179.549 49.542 179.714 49.6331 179.844 49.7529C179.969 49.8675 180.062 50.0055 180.125 50.167C180.188 50.3232 180.219 50.5003 180.219 50.6982V51.1982H179.008C178.383 51.1982 177.828 51.2555 177.344 51.3701C176.865 51.4795 176.461 51.641 176.133 51.8545C175.768 52.0889 175.495 52.3883 175.312 52.7529C175.13 53.1123 175.039 53.5264 175.039 53.9951C175.039 54.3597 175.112 54.6982 175.258 55.0107C175.404 55.318 175.607 55.5837 175.867 55.8076C176.128 56.0316 176.438 56.2061 176.797 56.3311C177.161 56.4561 177.56 56.5186 177.992 56.5186C178.258 56.5186 178.505 56.4925 178.734 56.4404C178.964 56.3936 179.174 56.3258 179.367 56.2373C179.555 56.154 179.727 56.055 179.883 55.9404C180.039 55.8258 180.177 55.7035 180.297 55.5732C180.323 55.7243 180.354 55.8675 180.391 56.0029C180.427 56.1383 180.471 56.2581 180.523 56.3623ZM178.453 54.8389C178.25 54.8389 178.07 54.8154 177.914 54.7686C177.763 54.7165 177.635 54.6488 177.531 54.5654C177.427 54.4769 177.346 54.3701 177.289 54.2451C177.237 54.1149 177.211 53.9743 177.211 53.8232C177.211 53.6305 177.247 53.4535 177.32 53.292C177.393 53.1253 177.505 52.9821 177.656 52.8623C177.807 52.7477 178.003 52.6592 178.242 52.5967C178.482 52.529 178.771 52.4951 179.109 52.4951H180.219V53.9482C180.156 54.0576 180.07 54.167 179.961 54.2764C179.852 54.3805 179.721 54.4743 179.57 54.5576C179.419 54.641 179.25 54.7087 179.062 54.7607C178.875 54.8128 178.672 54.8389 178.453 54.8389ZM188.836 45.8389H186.664V47.9092H184.734V49.5107H186.664V53.3545C186.664 53.9118 186.737 54.391 186.883 54.792C187.029 55.1878 187.237 55.5133 187.508 55.7686C187.773 56.029 188.094 56.2217 188.469 56.3467C188.849 56.4665 189.271 56.5264 189.734 56.5264C189.974 56.5264 190.216 56.5133 190.461 56.4873C190.711 56.4665 190.951 56.4352 191.18 56.3936C191.409 56.3519 191.625 56.2998 191.828 56.2373C192.031 56.1696 192.208 56.0915 192.359 56.0029L192.148 54.5107C192.049 54.5368 191.93 54.5628 191.789 54.5889C191.654 54.6149 191.508 54.6383 191.352 54.6592C191.19 54.6852 191.021 54.7061 190.844 54.7217C190.672 54.7373 190.503 54.7451 190.336 54.7451C190.107 54.7451 189.898 54.7191 189.711 54.667C189.529 54.6149 189.372 54.5264 189.242 54.4014C189.112 54.2816 189.01 54.1201 188.938 53.917C188.87 53.7087 188.836 53.4508 188.836 53.1436V49.5107H191.992V47.9092H188.836V45.8389ZM207.852 52.1123L209.992 56.3623H212.344V56.2607L209.898 51.5654C210.211 51.4248 210.492 51.2581 210.742 51.0654C210.997 50.8727 211.216 50.6462 211.398 50.3857C211.576 50.1305 211.711 49.8415 211.805 49.5186C211.904 49.1904 211.953 48.8232 211.953 48.417C211.953 47.8545 211.854 47.3597 211.656 46.9326C211.464 46.5055 211.188 46.1488 210.828 45.8623C210.464 45.5758 210.026 45.3597 209.516 45.2139C209.005 45.0628 208.435 44.9873 207.805 44.9873H203.992V56.3623H206.188V52.1123H207.852ZM206.188 50.3311V46.7686H207.805C208.107 46.7686 208.375 46.805 208.609 46.8779C208.844 46.9508 209.042 47.055 209.203 47.1904C209.385 47.3415 209.521 47.5342 209.609 47.7686C209.703 47.9977 209.75 48.2633 209.75 48.5654C209.75 48.8154 209.714 49.042 209.641 49.2451C209.573 49.4482 209.471 49.6227 209.336 49.7686C209.174 49.9508 208.964 50.0915 208.703 50.1904C208.448 50.2842 208.151 50.3311 207.812 50.3311H206.188ZM214.258 47.9092V49.6826H216.664V54.5967H214.258V56.3623H221.148V54.5967H218.859V47.9092H214.258ZM216.508 45.7451C216.508 45.9118 216.536 46.068 216.594 46.2139C216.656 46.3545 216.742 46.4743 216.852 46.5732C216.961 46.6774 217.091 46.7581 217.242 46.8154C217.398 46.8727 217.57 46.9014 217.758 46.9014C218.143 46.9014 218.448 46.7946 218.672 46.5811C218.901 46.3623 219.016 46.0837 219.016 45.7451C219.016 45.4066 218.901 45.1305 218.672 44.917C218.448 44.6982 218.143 44.5889 217.758 44.5889C217.57 44.5889 217.398 44.6175 217.242 44.6748C217.091 44.7321 216.961 44.8102 216.852 44.9092C216.742 45.0133 216.656 45.1383 216.594 45.2842C216.536 45.4248 216.508 45.5785 216.508 45.7451ZM223.289 56.3623H225.469V50.3545C225.542 50.2399 225.622 50.1357 225.711 50.042C225.799 49.9482 225.898 49.8675 226.008 49.7998C226.143 49.7061 226.297 49.6357 226.469 49.5889C226.646 49.542 226.839 49.5186 227.047 49.5186C227.297 49.5186 227.521 49.5446 227.719 49.5967C227.917 49.6436 228.086 49.7295 228.227 49.8545C228.367 49.9795 228.474 50.1514 228.547 50.3701C228.625 50.5837 228.664 50.8571 228.664 51.1904V56.3623H230.836V51.1592C230.836 50.5446 230.763 50.0238 230.617 49.5967C230.477 49.1644 230.279 48.8102 230.023 48.5342C229.763 48.2633 229.456 48.0654 229.102 47.9404C228.747 47.8154 228.357 47.7529 227.93 47.7529C227.596 47.7529 227.281 47.7998 226.984 47.8936C226.688 47.9873 226.414 48.1227 226.164 48.2998C226.018 48.404 225.88 48.5212 225.75 48.6514C225.62 48.7816 225.5 48.9248 225.391 49.0811L225.258 47.9092H223.289V56.3623ZM232.68 52.0732V52.2373C232.68 52.8519 232.758 53.4222 232.914 53.9482C233.076 54.4691 233.305 54.9196 233.602 55.2998C233.898 55.68 234.255 55.9795 234.672 56.1982C235.094 56.4118 235.568 56.5186 236.094 56.5186C236.359 56.5186 236.607 56.4899 236.836 56.4326C237.07 56.3753 237.284 56.2946 237.477 56.1904C237.607 56.1175 237.729 56.0342 237.844 55.9404C237.958 55.8467 238.068 55.7425 238.172 55.6279V56.1123C238.172 56.3988 238.13 56.6566 238.047 56.8857C237.969 57.1149 237.854 57.3076 237.703 57.4639C237.536 57.6357 237.328 57.766 237.078 57.8545C236.833 57.943 236.552 57.9873 236.234 57.9873C236.036 57.9873 235.844 57.9665 235.656 57.9248C235.474 57.8883 235.297 57.8311 235.125 57.7529C234.948 57.6748 234.779 57.5732 234.617 57.4482C234.456 57.3285 234.305 57.1878 234.164 57.0264L233.188 58.3467C233.37 58.5811 233.589 58.7816 233.844 58.9482C234.099 59.1201 234.37 59.2607 234.656 59.3701C234.943 59.4795 235.232 59.5602 235.523 59.6123C235.815 59.6644 236.089 59.6904 236.344 59.6904C236.938 59.6904 237.479 59.6097 237.969 59.4482C238.464 59.292 238.888 59.0602 239.242 58.7529C239.591 58.4456 239.862 58.068 240.055 57.6201C240.253 57.1722 240.352 56.6618 240.352 56.0889V47.9092H238.375L238.289 48.7139C238.185 48.5837 238.07 48.4665 237.945 48.3623C237.82 48.2529 237.685 48.1592 237.539 48.0811C237.346 47.9717 237.13 47.891 236.891 47.8389C236.656 47.7816 236.396 47.7529 236.109 47.7529C235.578 47.7529 235.102 47.8571 234.68 48.0654C234.258 48.2738 233.898 48.568 233.602 48.9482C233.305 49.3285 233.076 49.7842 232.914 50.3154C232.758 50.8467 232.68 51.4326 232.68 52.0732ZM234.859 52.2373V52.0732C234.859 51.7191 234.896 51.3883 234.969 51.0811C235.042 50.7686 235.154 50.4951 235.305 50.2607C235.451 50.0316 235.635 49.8519 235.859 49.7217C236.083 49.5863 236.349 49.5186 236.656 49.5186C236.823 49.5186 236.977 49.5342 237.117 49.5654C237.263 49.5967 237.396 49.641 237.516 49.6982C237.656 49.766 237.781 49.8545 237.891 49.9639C238 50.0732 238.094 50.2008 238.172 50.3467V53.9248C238.099 54.055 238.013 54.1722 237.914 54.2764C237.815 54.3805 237.701 54.4691 237.57 54.542C237.445 54.6097 237.305 54.6618 237.148 54.6982C236.997 54.7347 236.828 54.7529 236.641 54.7529C236.333 54.7529 236.068 54.6878 235.844 54.5576C235.62 54.4274 235.435 54.2477 235.289 54.0186C235.143 53.7946 235.034 53.5316 234.961 53.2295C234.893 52.9222 234.859 52.5915 234.859 52.2373Z" fill="white"/>
<path d="M103.682 128.862V111.711H99.1795L87.6662 129.723L87.776 132.413H99.3077V138.362H103.682V132.413H107.032V128.862H103.682ZM92.1324 128.862L98.7952 118.52L99.3077 117.569V128.862H92.1324ZM121.965 138.362V111.711H121.691L110.727 115.775V119.637L117.554 117.129V138.362H121.965ZM140.596 137.795V134.097H136.295V137.96C136.295 139.168 136.148 140.254 135.855 141.218C135.575 142.182 135.172 143.097 134.647 143.963L137.1 145.263C138.15 144.323 138.992 143.17 139.626 141.804C140.273 140.449 140.596 139.113 140.596 137.795ZM168.873 128.203V121.888C168.873 120.18 168.672 118.673 168.269 117.367C167.867 116.049 167.299 114.939 166.567 114.036C165.811 113.145 164.895 112.474 163.821 112.022C162.76 111.559 161.552 111.327 160.197 111.327C158.855 111.327 157.647 111.559 156.573 112.022C155.511 112.474 154.608 113.145 153.864 114.036C153.12 114.939 152.546 116.049 152.143 117.367C151.753 118.673 151.558 120.18 151.558 121.888V128.203C151.558 129.912 151.753 131.425 152.143 132.743C152.546 134.049 153.126 135.141 153.882 136.019C154.627 136.922 155.536 137.606 156.61 138.069C157.683 138.521 158.892 138.747 160.234 138.747C161.588 138.747 162.796 138.521 163.858 138.069C164.932 137.606 165.835 136.922 166.567 136.019C167.311 135.141 167.879 134.049 168.269 132.743C168.672 131.425 168.873 129.912 168.873 128.203ZM155.951 126.648C155.951 126.294 155.951 125.995 155.951 125.751C155.951 125.507 155.951 125.153 155.951 124.689V121.101C155.951 120.003 156.048 119.051 156.244 118.246C156.439 117.428 156.738 116.763 157.14 116.251C157.482 115.799 157.909 115.458 158.422 115.226C158.934 114.994 159.526 114.878 160.197 114.878C160.82 114.878 161.375 114.976 161.863 115.171C162.363 115.366 162.784 115.659 163.126 116.049C163.516 116.489 163.815 117.056 164.023 117.752C164.242 118.447 164.377 119.271 164.426 120.223L155.951 126.648ZM164.462 128.936C164.462 130.058 164.358 131.034 164.151 131.864C163.956 132.694 163.657 133.365 163.254 133.878C162.9 134.317 162.473 134.653 161.973 134.884C161.472 135.104 160.893 135.214 160.234 135.214C159.563 135.214 158.971 135.098 158.458 134.866C157.958 134.634 157.537 134.287 157.195 133.823C156.854 133.396 156.579 132.859 156.372 132.212C156.176 131.565 156.048 130.821 155.987 129.979L164.462 123.591C164.462 123.945 164.462 124.286 164.462 124.616C164.462 124.945 164.462 125.263 164.462 125.568V128.936ZM189.701 128.203V121.888C189.701 120.18 189.499 118.673 189.097 117.367C188.694 116.049 188.127 114.939 187.394 114.036C186.638 113.145 185.723 112.474 184.649 112.022C183.587 111.559 182.379 111.327 181.025 111.327C179.682 111.327 178.474 111.559 177.4 112.022C176.339 112.474 175.436 113.145 174.691 114.036C173.947 114.939 173.373 116.049 172.971 117.367C172.58 118.673 172.385 120.18 172.385 121.888V128.203C172.385 129.912 172.58 131.425 172.971 132.743C173.373 134.049 173.953 135.141 174.71 136.019C175.454 136.922 176.363 137.606 177.437 138.069C178.511 138.521 179.719 138.747 181.061 138.747C182.416 138.747 183.624 138.521 184.685 138.069C185.759 137.606 186.662 136.922 187.394 136.019C188.139 135.141 188.706 134.049 189.097 132.743C189.499 131.425 189.701 129.912 189.701 128.203ZM176.778 126.648C176.778 126.294 176.778 125.995 176.778 125.751C176.778 125.507 176.778 125.153 176.778 124.689V121.101C176.778 120.003 176.876 119.051 177.071 118.246C177.266 117.428 177.565 116.763 177.968 116.251C178.309 115.799 178.737 115.458 179.249 115.226C179.762 114.994 180.353 114.878 181.025 114.878C181.647 114.878 182.202 114.976 182.69 115.171C183.191 115.366 183.612 115.659 183.953 116.049C184.344 116.489 184.643 117.056 184.85 117.752C185.07 118.447 185.204 119.271 185.253 120.223L176.778 126.648ZM185.289 128.936C185.289 130.058 185.186 131.034 184.978 131.864C184.783 132.694 184.484 133.365 184.081 133.878C183.727 134.317 183.3 134.653 182.8 134.884C182.3 135.104 181.72 135.214 181.061 135.214C180.39 135.214 179.798 135.098 179.286 134.866C178.785 134.634 178.364 134.287 178.023 133.823C177.681 133.396 177.406 132.859 177.199 132.212C177.004 131.565 176.876 130.821 176.815 129.979L185.289 123.591C185.289 123.945 185.289 124.286 185.289 124.616C185.289 124.945 185.289 125.263 185.289 125.568V128.936ZM210.528 128.203V121.888C210.528 120.18 210.327 118.673 209.924 117.367C209.521 116.049 208.954 114.939 208.222 114.036C207.465 113.145 206.55 112.474 205.476 112.022C204.415 111.559 203.206 111.327 201.852 111.327C200.51 111.327 199.302 111.559 198.228 112.022C197.166 112.474 196.263 113.145 195.519 114.036C194.774 114.939 194.201 116.049 193.798 117.367C193.408 118.673 193.212 120.18 193.212 121.888V128.203C193.212 129.912 193.408 131.425 193.798 132.743C194.201 134.049 194.78 135.141 195.537 136.019C196.281 136.922 197.19 137.606 198.264 138.069C199.338 138.521 200.546 138.747 201.889 138.747C203.243 138.747 204.451 138.521 205.513 138.069C206.587 137.606 207.49 136.922 208.222 136.019C208.966 135.141 209.534 134.049 209.924 132.743C210.327 131.425 210.528 129.912 210.528 128.203ZM197.605 126.648C197.605 126.294 197.605 125.995 197.605 125.751C197.605 125.507 197.605 125.153 197.605 124.689V121.101C197.605 120.003 197.703 119.051 197.898 118.246C198.093 117.428 198.392 116.763 198.795 116.251C199.137 115.799 199.564 115.458 200.076 115.226C200.589 114.994 201.181 114.878 201.852 114.878C202.474 114.878 203.029 114.976 203.518 115.171C204.018 115.366 204.439 115.659 204.781 116.049C205.171 116.489 205.47 117.056 205.677 117.752C205.897 118.447 206.031 119.271 206.08 120.223L197.605 126.648ZM206.117 128.936C206.117 130.058 206.013 131.034 205.806 131.864C205.61 132.694 205.311 133.365 204.909 133.878C204.555 134.317 204.128 134.653 203.627 134.884C203.127 135.104 202.547 135.214 201.889 135.214C201.217 135.214 200.626 135.098 200.113 134.866C199.613 134.634 199.192 134.287 198.85 133.823C198.508 133.396 198.234 132.859 198.026 132.212C197.831 131.565 197.703 130.821 197.642 129.979L206.117 123.591C206.117 123.945 206.117 124.286 206.117 124.616C206.117 124.945 206.117 125.263 206.117 125.568V128.936Z" fill="#8EFE1C"/>
<path d="M67.3281 160.987H65.9297L65.9062 168.69C65.8958 169.029 65.8411 169.354 65.7422 169.667C65.6432 169.979 65.5 170.256 65.3125 170.495C65.1198 170.74 64.8828 170.935 64.6016 171.081C64.3203 171.222 63.9948 171.292 63.625 171.292C63.2552 171.292 62.9271 171.219 62.6406 171.073C62.3594 170.927 62.125 170.735 61.9375 170.495C61.7448 170.256 61.5964 169.979 61.4922 169.667C61.3932 169.354 61.3411 169.029 61.3359 168.69L61.3047 160.987H59.9297L59.9141 168.69C59.9193 169.222 60.013 169.722 60.1953 170.19C60.3776 170.654 60.6302 171.058 60.9531 171.401C61.276 171.75 61.6641 172.024 62.1172 172.222C62.5703 172.42 63.0729 172.519 63.625 172.519C64.1667 172.519 64.6641 172.42 65.1172 172.222C65.5703 172.019 65.9609 171.743 66.2891 171.394C66.6172 171.05 66.875 170.646 67.0625 170.183C67.25 169.719 67.3438 169.222 67.3438 168.69L67.3281 160.987ZM69.7969 172.362H71.2422V166.3C71.3411 166.118 71.4557 165.951 71.5859 165.8C71.7214 165.649 71.8672 165.516 72.0234 165.401C72.2161 165.271 72.4271 165.17 72.6562 165.097C72.8854 165.019 73.1328 164.979 73.3984 164.979C73.7057 164.979 73.9766 165.016 74.2109 165.089C74.4505 165.162 74.6536 165.279 74.8203 165.44C74.9818 165.602 75.1042 165.813 75.1875 166.073C75.2708 166.334 75.3125 166.651 75.3125 167.026V172.362H76.7578V166.995C76.7578 166.433 76.6875 165.948 76.5469 165.542C76.4115 165.131 76.2161 164.792 75.9609 164.526C75.7057 164.261 75.3958 164.065 75.0312 163.94C74.6719 163.815 74.2708 163.753 73.8281 163.753C73.5 163.758 73.1875 163.808 72.8906 163.901C72.599 163.99 72.3281 164.118 72.0781 164.284C71.9115 164.394 71.7526 164.524 71.6016 164.675C71.4557 164.821 71.3203 164.982 71.1953 165.159L71.0938 163.909H69.7969V172.362ZM79.6328 163.909V165.167H82.5078V171.112H79.6328V172.362H86.7109V171.112H83.9531V163.909H79.6328ZM82.3203 161.69C82.3203 161.925 82.3906 162.12 82.5312 162.276C82.6771 162.433 82.8958 162.511 83.1875 162.511C83.474 162.511 83.6901 162.433 83.8359 162.276C83.9818 162.12 84.0547 161.925 84.0547 161.69C84.0547 161.56 84.0339 161.44 83.9922 161.331C83.9505 161.222 83.888 161.131 83.8047 161.058C83.737 160.99 83.651 160.938 83.5469 160.901C83.4427 160.86 83.3229 160.839 83.1875 160.839C83.0521 160.839 82.9297 160.86 82.8203 160.901C82.7161 160.938 82.6302 160.99 82.5625 161.058C82.4792 161.136 82.4167 161.229 82.375 161.339C82.3385 161.448 82.3203 161.565 82.3203 161.69ZM88.75 168.065V168.229C88.75 168.834 88.8255 169.399 88.9766 169.925C89.1328 170.446 89.3568 170.899 89.6484 171.284C89.9401 171.67 90.2943 171.972 90.7109 172.19C91.1328 172.409 91.612 172.519 92.1484 172.519C92.4245 172.519 92.6823 172.493 92.9219 172.44C93.1615 172.388 93.3828 172.313 93.5859 172.214C93.7474 172.141 93.8958 172.052 94.0312 171.948C94.1719 171.844 94.3047 171.727 94.4297 171.597V175.612H95.875V163.909H94.5469L94.4844 164.745C94.375 164.62 94.2578 164.506 94.1328 164.401C94.0078 164.297 93.875 164.206 93.7344 164.128C93.5156 164.003 93.2734 163.909 93.0078 163.847C92.7474 163.784 92.4661 163.753 92.1641 163.753C91.6224 163.753 91.138 163.86 90.7109 164.073C90.2891 164.287 89.9323 164.584 89.6406 164.964C89.349 165.344 89.1276 165.8 88.9766 166.331C88.8255 166.857 88.75 167.435 88.75 168.065ZM90.1953 168.229V168.065C90.1953 167.654 90.2396 167.261 90.3281 166.886C90.4219 166.511 90.5651 166.177 90.7578 165.886C90.9453 165.599 91.1849 165.37 91.4766 165.198C91.7682 165.026 92.1146 164.94 92.5156 164.94C92.7396 164.94 92.9453 164.969 93.1328 165.026C93.3255 165.078 93.5026 165.154 93.6641 165.253C93.8203 165.352 93.9609 165.469 94.0859 165.604C94.2161 165.735 94.3307 165.881 94.4297 166.042V170.214C94.3255 170.386 94.2083 170.545 94.0781 170.69C93.9479 170.831 93.7995 170.951 93.6328 171.05C93.4766 171.138 93.3047 171.209 93.1172 171.261C92.9297 171.313 92.724 171.339 92.5 171.339C92.099 171.339 91.7526 171.256 91.4609 171.089C91.1745 170.917 90.9375 170.688 90.75 170.401C90.5625 170.115 90.4219 169.784 90.3281 169.409C90.2396 169.034 90.1953 168.641 90.1953 168.229ZM104.195 172.362H105.508V163.909H104.055V169.972C103.977 170.154 103.878 170.323 103.758 170.479C103.643 170.631 103.508 170.761 103.352 170.87C103.164 171.006 102.943 171.112 102.688 171.19C102.432 171.263 102.143 171.3 101.82 171.3C101.544 171.3 101.299 171.263 101.086 171.19C100.878 171.118 100.701 170.99 100.555 170.808C100.409 170.631 100.299 170.391 100.227 170.089C100.154 169.787 100.117 169.407 100.117 168.948V163.909H98.6719V168.933C98.6719 169.563 98.7396 170.104 98.875 170.558C99.0156 171.006 99.2135 171.375 99.4688 171.667C99.724 171.959 100.031 172.175 100.391 172.315C100.75 172.451 101.151 172.519 101.594 172.519C102.146 172.519 102.633 172.404 103.055 172.175C103.477 171.94 103.828 171.615 104.109 171.198L104.195 172.362ZM111.969 172.519C112.792 172.519 113.482 172.354 114.039 172.026C114.602 171.693 115.023 171.313 115.305 170.886L114.422 170.198C114.156 170.542 113.823 170.818 113.422 171.026C113.021 171.235 112.562 171.339 112.047 171.339C111.656 171.339 111.299 171.266 110.977 171.12C110.654 170.974 110.378 170.774 110.148 170.519C109.924 170.279 109.747 170.003 109.617 169.69C109.492 169.378 109.411 169.016 109.375 168.604V168.55H115.414V167.901C115.414 167.313 115.339 166.766 115.188 166.261C115.042 165.756 114.818 165.315 114.516 164.94C114.214 164.571 113.833 164.282 113.375 164.073C112.922 163.86 112.391 163.753 111.781 163.753C111.297 163.753 110.823 163.852 110.359 164.05C109.901 164.248 109.492 164.532 109.133 164.901C108.768 165.276 108.477 165.735 108.258 166.276C108.039 166.813 107.93 167.422 107.93 168.104V168.433C107.93 169.021 108.029 169.565 108.227 170.065C108.424 170.565 108.701 170.998 109.055 171.362C109.409 171.727 109.833 172.011 110.328 172.214C110.828 172.417 111.375 172.519 111.969 172.519ZM111.781 164.94C112.151 164.94 112.469 165.008 112.734 165.144C113.005 165.279 113.229 165.456 113.406 165.675C113.583 165.894 113.721 166.154 113.82 166.456C113.919 166.753 113.969 167.032 113.969 167.292V167.362H109.422C109.479 166.972 109.578 166.628 109.719 166.331C109.865 166.029 110.042 165.774 110.25 165.565C110.458 165.362 110.693 165.209 110.953 165.104C111.214 164.995 111.49 164.94 111.781 164.94ZM133.406 169.487C133.406 169.8 133.339 170.071 133.203 170.3C133.068 170.524 132.893 170.709 132.68 170.854C132.466 171.006 132.221 171.118 131.945 171.19C131.674 171.258 131.398 171.292 131.117 171.292C130.763 171.292 130.435 171.245 130.133 171.151C129.836 171.052 129.573 170.907 129.344 170.714C129.115 170.526 128.927 170.297 128.781 170.026C128.635 169.75 128.539 169.435 128.492 169.081H127.016C127.031 169.571 127.138 170.016 127.336 170.417C127.539 170.813 127.812 171.159 128.156 171.456C128.542 171.8 128.995 172.063 129.516 172.245C130.042 172.427 130.576 172.519 131.117 172.519C131.57 172.519 132.023 172.456 132.477 172.331C132.93 172.201 133.336 172.008 133.695 171.753C134.055 171.503 134.346 171.188 134.57 170.808C134.799 170.427 134.914 169.982 134.914 169.472C134.914 168.966 134.807 168.521 134.594 168.136C134.385 167.75 134.109 167.425 133.766 167.159C133.417 166.873 133.031 166.638 132.609 166.456C132.188 166.269 131.766 166.11 131.344 165.979C131.089 165.901 130.815 165.81 130.523 165.706C130.237 165.602 129.971 165.472 129.727 165.315C129.477 165.159 129.271 164.969 129.109 164.745C128.948 164.516 128.865 164.237 128.859 163.909C128.859 163.607 128.919 163.341 129.039 163.112C129.164 162.883 129.331 162.69 129.539 162.534C129.742 162.378 129.974 162.261 130.234 162.183C130.5 162.104 130.771 162.065 131.047 162.065C131.391 162.065 131.698 162.12 131.969 162.229C132.245 162.334 132.482 162.482 132.68 162.675C132.878 162.868 133.036 163.099 133.156 163.37C133.276 163.636 133.357 163.933 133.398 164.261H134.883C134.872 163.74 134.76 163.269 134.547 162.847C134.333 162.425 134.049 162.065 133.695 161.769C133.341 161.472 132.935 161.243 132.477 161.081C132.018 160.914 131.542 160.831 131.047 160.831C130.599 160.831 130.154 160.901 129.711 161.042C129.268 161.177 128.872 161.378 128.523 161.644C128.174 161.909 127.891 162.235 127.672 162.62C127.458 163.006 127.352 163.443 127.352 163.933C127.352 164.422 127.458 164.849 127.672 165.214C127.891 165.573 128.172 165.886 128.516 166.151C128.854 166.412 129.229 166.636 129.641 166.823C130.057 167.006 130.466 167.162 130.867 167.292C131.143 167.381 131.43 167.479 131.727 167.589C132.029 167.698 132.305 167.834 132.555 167.995C132.805 168.162 133.008 168.365 133.164 168.604C133.326 168.844 133.406 169.138 133.406 169.487ZM142.633 172.362H143.945V163.909H142.492V169.972C142.414 170.154 142.315 170.323 142.195 170.479C142.081 170.631 141.945 170.761 141.789 170.87C141.602 171.006 141.38 171.112 141.125 171.19C140.87 171.263 140.581 171.3 140.258 171.3C139.982 171.3 139.737 171.263 139.523 171.19C139.315 171.118 139.138 170.99 138.992 170.808C138.846 170.631 138.737 170.391 138.664 170.089C138.591 169.787 138.555 169.407 138.555 168.948V163.909H137.109V168.933C137.109 169.563 137.177 170.104 137.312 170.558C137.453 171.006 137.651 171.375 137.906 171.667C138.161 171.959 138.469 172.175 138.828 172.315C139.188 172.451 139.589 172.519 140.031 172.519C140.583 172.519 141.07 172.404 141.492 172.175C141.914 171.94 142.266 171.615 142.547 171.198L142.633 172.362ZM146.664 175.612H148.109V171.55C148.214 171.664 148.326 171.771 148.445 171.87C148.565 171.964 148.693 172.05 148.828 172.128C149.052 172.253 149.302 172.349 149.578 172.417C149.859 172.485 150.161 172.519 150.484 172.519C151.016 172.519 151.487 172.409 151.898 172.19C152.315 171.972 152.664 171.67 152.945 171.284C153.227 170.899 153.44 170.446 153.586 169.925C153.732 169.399 153.805 168.834 153.805 168.229V168.065C153.805 167.435 153.732 166.857 153.586 166.331C153.44 165.8 153.227 165.344 152.945 164.964C152.664 164.584 152.315 164.287 151.898 164.073C151.482 163.86 151.003 163.753 150.461 163.753C150.154 163.753 149.865 163.787 149.594 163.854C149.328 163.917 149.086 164.011 148.867 164.136C148.711 164.219 148.565 164.321 148.43 164.44C148.294 164.555 148.169 164.685 148.055 164.831L147.984 163.909H146.664V175.612ZM152.359 168.065V168.229C152.359 168.641 152.312 169.034 152.219 169.409C152.13 169.784 151.992 170.115 151.805 170.401C151.617 170.688 151.378 170.917 151.086 171.089C150.794 171.256 150.448 171.339 150.047 171.339C149.797 171.339 149.568 171.308 149.359 171.245C149.156 171.183 148.971 171.097 148.805 170.987C148.659 170.894 148.529 170.779 148.414 170.644C148.299 170.508 148.198 170.362 148.109 170.206V166.136C148.208 165.959 148.323 165.797 148.453 165.651C148.583 165.506 148.732 165.383 148.898 165.284C149.049 165.185 149.219 165.11 149.406 165.058C149.599 165.006 149.807 164.979 150.031 164.979C150.438 164.979 150.786 165.063 151.078 165.229C151.37 165.396 151.612 165.62 151.805 165.901C151.992 166.188 152.13 166.519 152.219 166.894C152.312 167.263 152.359 167.654 152.359 168.065ZM160.016 172.519C160.839 172.519 161.529 172.354 162.086 172.026C162.648 171.693 163.07 171.313 163.352 170.886L162.469 170.198C162.203 170.542 161.87 170.818 161.469 171.026C161.068 171.235 160.609 171.339 160.094 171.339C159.703 171.339 159.346 171.266 159.023 171.12C158.701 170.974 158.424 170.774 158.195 170.519C157.971 170.279 157.794 170.003 157.664 169.69C157.539 169.378 157.458 169.016 157.422 168.604V168.55H163.461V167.901C163.461 167.313 163.385 166.766 163.234 166.261C163.089 165.756 162.865 165.315 162.562 164.94C162.26 164.571 161.88 164.282 161.422 164.073C160.969 163.86 160.438 163.753 159.828 163.753C159.344 163.753 158.87 163.852 158.406 164.05C157.948 164.248 157.539 164.532 157.18 164.901C156.815 165.276 156.523 165.735 156.305 166.276C156.086 166.813 155.977 167.422 155.977 168.104V168.433C155.977 169.021 156.076 169.565 156.273 170.065C156.471 170.565 156.747 170.998 157.102 171.362C157.456 171.727 157.88 172.011 158.375 172.214C158.875 172.417 159.422 172.519 160.016 172.519ZM159.828 164.94C160.198 164.94 160.516 165.008 160.781 165.144C161.052 165.279 161.276 165.456 161.453 165.675C161.63 165.894 161.768 166.154 161.867 166.456C161.966 166.753 162.016 167.032 162.016 167.292V167.362H157.469C157.526 166.972 157.625 166.628 157.766 166.331C157.911 166.029 158.089 165.774 158.297 165.565C158.505 165.362 158.74 165.209 159 165.104C159.26 164.995 159.536 164.94 159.828 164.94ZM171.43 163.753C170.815 163.753 170.266 163.888 169.781 164.159C169.302 164.425 168.891 164.789 168.547 165.253L168.539 165.042L168.477 163.909H167.102V172.362H168.555V166.94C168.648 166.68 168.766 166.446 168.906 166.237C169.052 166.024 169.221 165.844 169.414 165.698C169.628 165.532 169.878 165.407 170.164 165.323C170.451 165.235 170.771 165.19 171.125 165.19C171.401 165.19 171.664 165.206 171.914 165.237C172.169 165.263 172.438 165.308 172.719 165.37L172.914 163.956C172.768 163.894 172.549 163.844 172.258 163.808C171.971 163.771 171.695 163.753 171.43 163.753ZM176.312 172.362H177.453L178.758 167.183L178.969 165.87L179.188 167.183L180.508 172.362H181.648L183.445 163.909H182.164L181.227 169.3L181.016 170.628L180.789 169.3L179.445 163.909H178.516L177.164 169.3L176.953 170.511L176.781 169.3L175.797 163.909H174.516L176.312 172.362ZM188.844 172.519C189.667 172.519 190.357 172.354 190.914 172.026C191.477 171.693 191.898 171.313 192.18 170.886L191.297 170.198C191.031 170.542 190.698 170.818 190.297 171.026C189.896 171.235 189.438 171.339 188.922 171.339C188.531 171.339 188.174 171.266 187.852 171.12C187.529 170.974 187.253 170.774 187.023 170.519C186.799 170.279 186.622 170.003 186.492 169.69C186.367 169.378 186.286 169.016 186.25 168.604V168.55H192.289V167.901C192.289 167.313 192.214 166.766 192.062 166.261C191.917 165.756 191.693 165.315 191.391 164.94C191.089 164.571 190.708 164.282 190.25 164.073C189.797 163.86 189.266 163.753 188.656 163.753C188.172 163.753 187.698 163.852 187.234 164.05C186.776 164.248 186.367 164.532 186.008 164.901C185.643 165.276 185.352 165.735 185.133 166.276C184.914 166.813 184.805 167.422 184.805 168.104V168.433C184.805 169.021 184.904 169.565 185.102 170.065C185.299 170.565 185.576 170.998 185.93 171.362C186.284 171.727 186.708 172.011 187.203 172.214C187.703 172.417 188.25 172.519 188.844 172.519ZM188.656 164.94C189.026 164.94 189.344 165.008 189.609 165.144C189.88 165.279 190.104 165.456 190.281 165.675C190.458 165.894 190.596 166.154 190.695 166.456C190.794 166.753 190.844 167.032 190.844 167.292V167.362H186.297C186.354 166.972 186.453 166.628 186.594 166.331C186.74 166.029 186.917 165.774 187.125 165.565C187.333 165.362 187.568 165.209 187.828 165.104C188.089 164.995 188.365 164.94 188.656 164.94ZM200.273 172.362H201.781V172.237C201.688 172.003 201.615 171.729 201.562 171.417C201.51 171.099 201.484 170.8 201.484 170.519V166.589C201.484 166.115 201.398 165.701 201.227 165.347C201.055 164.993 200.82 164.696 200.523 164.456C200.221 164.222 199.865 164.047 199.453 163.933C199.042 163.813 198.596 163.753 198.117 163.753C197.591 163.753 197.12 163.826 196.703 163.972C196.292 164.118 195.943 164.308 195.656 164.542C195.365 164.782 195.141 165.05 194.984 165.347C194.833 165.644 194.755 165.946 194.75 166.253H196.203C196.203 166.076 196.245 165.907 196.328 165.745C196.417 165.578 196.539 165.435 196.695 165.315C196.852 165.196 197.042 165.099 197.266 165.026C197.495 164.953 197.753 164.917 198.039 164.917C198.346 164.917 198.622 164.956 198.867 165.034C199.117 165.112 199.328 165.222 199.5 165.362C199.672 165.508 199.805 165.683 199.898 165.886C199.992 166.089 200.039 166.318 200.039 166.573V167.237H198.461C197.872 167.237 197.339 167.295 196.859 167.409C196.385 167.524 195.979 167.696 195.641 167.925C195.302 168.159 195.039 168.451 194.852 168.8C194.669 169.149 194.578 169.555 194.578 170.019C194.578 170.373 194.646 170.703 194.781 171.011C194.922 171.313 195.12 171.573 195.375 171.792C195.625 172.016 195.93 172.193 196.289 172.323C196.654 172.453 197.06 172.519 197.508 172.519C197.784 172.519 198.044 172.49 198.289 172.433C198.534 172.375 198.766 172.297 198.984 172.198C199.198 172.099 199.393 171.985 199.57 171.854C199.753 171.724 199.917 171.586 200.062 171.44C200.078 171.618 200.102 171.789 200.133 171.956C200.169 172.118 200.216 172.253 200.273 172.362ZM197.719 171.261C197.438 171.261 197.19 171.224 196.977 171.151C196.763 171.078 196.586 170.977 196.445 170.847C196.305 170.722 196.198 170.571 196.125 170.394C196.057 170.216 196.023 170.024 196.023 169.815C196.023 169.597 196.062 169.401 196.141 169.229C196.224 169.058 196.344 168.909 196.5 168.784C196.719 168.607 197.013 168.477 197.383 168.394C197.758 168.305 198.195 168.261 198.695 168.261H200.039V169.972C199.956 170.138 199.841 170.3 199.695 170.456C199.549 170.607 199.378 170.743 199.18 170.862C198.977 170.982 198.753 171.078 198.508 171.151C198.263 171.224 198 171.261 197.719 171.261ZM204.32 175.612H205.766V171.55C205.87 171.664 205.982 171.771 206.102 171.87C206.221 171.964 206.349 172.05 206.484 172.128C206.708 172.253 206.958 172.349 207.234 172.417C207.516 172.485 207.818 172.519 208.141 172.519C208.672 172.519 209.143 172.409 209.555 172.19C209.971 171.972 210.32 171.67 210.602 171.284C210.883 170.899 211.096 170.446 211.242 169.925C211.388 169.399 211.461 168.834 211.461 168.229V168.065C211.461 167.435 211.388 166.857 211.242 166.331C211.096 165.8 210.883 165.344 210.602 164.964C210.32 164.584 209.971 164.287 209.555 164.073C209.138 163.86 208.659 163.753 208.117 163.753C207.81 163.753 207.521 163.787 207.25 163.854C206.984 163.917 206.742 164.011 206.523 164.136C206.367 164.219 206.221 164.321 206.086 164.44C205.951 164.555 205.826 164.685 205.711 164.831L205.641 163.909H204.32V175.612ZM210.016 168.065V168.229C210.016 168.641 209.969 169.034 209.875 169.409C209.786 169.784 209.648 170.115 209.461 170.401C209.273 170.688 209.034 170.917 208.742 171.089C208.451 171.256 208.104 171.339 207.703 171.339C207.453 171.339 207.224 171.308 207.016 171.245C206.812 171.183 206.628 171.097 206.461 170.987C206.315 170.894 206.185 170.779 206.07 170.644C205.956 170.508 205.854 170.362 205.766 170.206V166.136C205.865 165.959 205.979 165.797 206.109 165.651C206.24 165.506 206.388 165.383 206.555 165.284C206.706 165.185 206.875 165.11 207.062 165.058C207.255 165.006 207.464 164.979 207.688 164.979C208.094 164.979 208.443 165.063 208.734 165.229C209.026 165.396 209.268 165.62 209.461 165.901C209.648 166.188 209.786 166.519 209.875 166.894C209.969 167.263 210.016 167.654 210.016 168.065ZM213.531 168.058V168.229C213.531 168.839 213.62 169.404 213.797 169.925C213.974 170.446 214.229 170.899 214.562 171.284C214.891 171.67 215.292 171.972 215.766 172.19C216.245 172.409 216.784 172.519 217.383 172.519C217.977 172.519 218.51 172.409 218.984 172.19C219.458 171.972 219.862 171.67 220.195 171.284C220.523 170.899 220.776 170.446 220.953 169.925C221.13 169.404 221.219 168.839 221.219 168.229V168.058C221.219 167.448 221.13 166.883 220.953 166.362C220.776 165.836 220.523 165.381 220.195 164.995C219.862 164.61 219.456 164.308 218.977 164.089C218.503 163.865 217.966 163.753 217.367 163.753C216.773 163.753 216.24 163.865 215.766 164.089C215.292 164.308 214.891 164.61 214.562 164.995C214.229 165.381 213.974 165.836 213.797 166.362C213.62 166.883 213.531 167.448 213.531 168.058ZM214.977 168.229V168.058C214.977 167.646 215.026 167.253 215.125 166.878C215.224 166.498 215.375 166.164 215.578 165.878C215.776 165.591 216.023 165.365 216.32 165.198C216.617 165.026 216.966 164.94 217.367 164.94C217.768 164.94 218.117 165.026 218.414 165.198C218.716 165.365 218.969 165.591 219.172 165.878C219.37 166.164 219.518 166.498 219.617 166.878C219.721 167.253 219.773 167.646 219.773 168.058V168.229C219.773 168.646 219.724 169.045 219.625 169.425C219.526 169.8 219.378 170.131 219.18 170.417C218.977 170.703 218.724 170.93 218.422 171.097C218.125 171.263 217.779 171.347 217.383 171.347C216.982 171.347 216.63 171.263 216.328 171.097C216.026 170.93 215.776 170.703 215.578 170.417C215.375 170.131 215.224 169.8 215.125 169.425C215.026 169.045 214.977 168.646 214.977 168.229ZM223.547 172.362H224.992V166.3C225.091 166.118 225.206 165.951 225.336 165.8C225.471 165.649 225.617 165.516 225.773 165.401C225.966 165.271 226.177 165.17 226.406 165.097C226.635 165.019 226.883 164.979 227.148 164.979C227.456 164.979 227.727 165.016 227.961 165.089C228.201 165.162 228.404 165.279 228.57 165.44C228.732 165.602 228.854 165.813 228.938 166.073C229.021 166.334 229.062 166.651 229.062 167.026V172.362H230.508V166.995C230.508 166.433 230.438 165.948 230.297 165.542C230.161 165.131 229.966 164.792 229.711 164.526C229.456 164.261 229.146 164.065 228.781 163.94C228.422 163.815 228.021 163.753 227.578 163.753C227.25 163.758 226.938 163.808 226.641 163.901C226.349 163.99 226.078 164.118 225.828 164.284C225.661 164.394 225.503 164.524 225.352 164.675C225.206 164.821 225.07 164.982 224.945 165.159L224.844 163.909H223.547V172.362ZM238.773 170.12C238.773 170.256 238.747 170.383 238.695 170.503C238.643 170.623 238.568 170.732 238.469 170.831C238.307 170.993 238.083 171.12 237.797 171.214C237.51 171.302 237.174 171.347 236.789 171.347C236.544 171.347 236.297 171.321 236.047 171.269C235.797 171.216 235.57 171.128 235.367 171.003C235.159 170.878 234.984 170.714 234.844 170.511C234.708 170.308 234.63 170.058 234.609 169.761H233.164C233.164 170.12 233.245 170.466 233.406 170.8C233.573 171.133 233.812 171.425 234.125 171.675C234.432 171.93 234.81 172.136 235.258 172.292C235.706 172.443 236.216 172.519 236.789 172.519C237.289 172.519 237.75 172.459 238.172 172.339C238.594 172.219 238.956 172.05 239.258 171.831C239.56 171.612 239.794 171.349 239.961 171.042C240.133 170.735 240.219 170.394 240.219 170.019C240.219 169.67 240.143 169.362 239.992 169.097C239.846 168.831 239.633 168.597 239.352 168.394C239.07 168.196 238.724 168.026 238.312 167.886C237.901 167.74 237.435 167.612 236.914 167.503C236.518 167.425 236.19 167.344 235.93 167.261C235.674 167.177 235.471 167.084 235.32 166.979C235.164 166.875 235.055 166.758 234.992 166.628C234.93 166.498 234.898 166.349 234.898 166.183C234.898 166.021 234.938 165.865 235.016 165.714C235.094 165.563 235.211 165.43 235.367 165.315C235.518 165.201 235.708 165.11 235.938 165.042C236.172 164.974 236.443 164.94 236.75 164.94C237.047 164.94 237.312 164.982 237.547 165.065C237.786 165.149 237.99 165.258 238.156 165.394C238.323 165.529 238.453 165.685 238.547 165.862C238.641 166.034 238.688 166.211 238.688 166.394H240.133C240.133 166.024 240.052 165.68 239.891 165.362C239.734 165.039 239.51 164.758 239.219 164.519C238.927 164.279 238.573 164.091 238.156 163.956C237.74 163.821 237.271 163.753 236.75 163.753C236.266 163.753 235.82 163.818 235.414 163.948C235.013 164.078 234.667 164.256 234.375 164.479C234.083 164.703 233.857 164.966 233.695 165.269C233.534 165.565 233.453 165.886 233.453 166.229C233.453 166.578 233.531 166.886 233.688 167.151C233.844 167.412 234.065 167.638 234.352 167.831C234.633 168.029 234.971 168.198 235.367 168.339C235.768 168.479 236.211 168.599 236.695 168.698C237.091 168.776 237.422 168.865 237.688 168.964C237.953 169.058 238.167 169.162 238.328 169.276C238.49 169.391 238.604 169.519 238.672 169.659C238.74 169.795 238.773 169.948 238.773 170.12Z" fill="white"/>
<path fill-rule="evenodd" clip-rule="evenodd" d="M126.713 224.536C119.926 225.457 114.316 230.048 112.23 236.389C111.761 237.817 111.322 240.382 111.322 241.701C111.322 243.787 111.899 246.783 112.675 248.729C114.173 252.484 116.853 255.434 120.353 257.181C122.329 258.167 123.886 258.606 126.642 258.954C128.035 259.13 128.502 259.139 129.695 259.013C133.7 258.589 136.821 257.474 140.197 255.262C142.593 253.691 144.556 252.033 148.022 248.652L150.186 246.54L151.901 248.209C155.8 252.004 157.892 253.798 160.23 255.353C163.466 257.504 166.075 258.513 169.552 258.957C171.309 259.182 172.561 259.103 174.963 258.616C181.651 257.26 186.812 252.438 188.532 245.937C188.675 245.396 188.881 244.245 188.989 243.379C189.21 241.618 189.105 239.838 188.649 237.61C187.42 231.598 183.309 226.962 177.633 225.185C173.461 223.879 168.618 224.148 164.38 225.92C160.818 227.41 157.483 229.878 152.354 234.821L150.241 236.857L148.113 234.791C145.297 232.058 143.376 230.359 141.599 229.03C136.537 225.243 131.874 223.835 126.713 224.536ZM130.616 231.538C134.497 232.06 137.331 233.854 143.122 239.458L145.475 241.735L143.154 244.002C138.546 248.501 135.372 250.639 131.972 251.531C130.236 251.986 127.649 252.016 126.168 251.597C122.049 250.434 119.42 247.236 118.971 242.844C118.855 241.704 118.953 240.18 119.204 239.209C120.079 235.837 122.723 233.02 125.99 231.979C127.691 231.438 128.965 231.316 130.616 231.538ZM172.973 231.538C175.042 231.817 176.826 232.628 178.299 233.961C179.688 235.217 180.625 236.748 181.178 238.663C181.597 240.113 181.601 243.005 181.186 244.425C180.132 248.025 177.369 250.697 173.714 251.647C172.435 251.98 169.755 251.953 168.409 251.594C166.133 250.987 163.734 249.635 161.288 247.583C159.962 246.47 155.162 241.882 155.106 241.673C155.065 241.519 158.857 237.793 160.288 236.58C164.958 232.624 169.028 231.007 172.973 231.538Z" fill="#8EFE1C"/>
<path d="M110.329 287.806H112.024C112.644 287.806 113.204 287.717 113.704 287.54C114.204 287.363 114.631 287.116 114.985 286.798C115.334 286.485 115.602 286.113 115.79 285.681C115.982 285.248 116.079 284.777 116.079 284.267C116.079 283.72 115.982 283.222 115.79 282.774C115.602 282.326 115.334 281.941 114.985 281.618C114.631 281.3 114.204 281.053 113.704 280.876C113.204 280.694 112.644 280.603 112.024 280.603H108.133V291.978H110.329V287.806ZM110.329 286.024V282.384H112.024C112.336 282.384 112.607 282.433 112.836 282.532C113.066 282.631 113.258 282.767 113.415 282.938C113.566 283.11 113.678 283.311 113.75 283.54C113.829 283.769 113.868 284.017 113.868 284.282C113.868 284.511 113.829 284.733 113.75 284.946C113.678 285.155 113.566 285.34 113.415 285.501C113.258 285.662 113.066 285.79 112.836 285.884C112.607 285.978 112.336 286.024 112.024 286.024H110.329ZM117.383 287.673V287.837C117.383 288.457 117.472 289.03 117.649 289.556C117.826 290.076 118.086 290.53 118.43 290.915C118.769 291.3 119.185 291.603 119.68 291.821C120.18 292.035 120.748 292.142 121.383 292.142C122.014 292.142 122.576 292.035 123.071 291.821C123.566 291.603 123.982 291.3 124.321 290.915C124.659 290.53 124.917 290.076 125.094 289.556C125.271 289.03 125.36 288.457 125.36 287.837V287.673C125.36 287.058 125.271 286.491 125.094 285.97C124.917 285.444 124.659 284.988 124.321 284.603C123.977 284.217 123.558 283.915 123.063 283.696C122.568 283.478 122.003 283.368 121.368 283.368C120.732 283.368 120.167 283.478 119.672 283.696C119.183 283.915 118.769 284.217 118.43 284.603C118.086 284.988 117.826 285.444 117.649 285.97C117.472 286.491 117.383 287.058 117.383 287.673ZM119.555 287.837V287.673C119.555 287.329 119.589 287.004 119.657 286.696C119.724 286.389 119.831 286.118 119.977 285.884C120.123 285.649 120.31 285.465 120.54 285.329C120.769 285.194 121.045 285.126 121.368 285.126C121.696 285.126 121.974 285.194 122.204 285.329C122.433 285.465 122.62 285.649 122.766 285.884C122.907 286.118 123.011 286.389 123.079 286.696C123.146 287.004 123.18 287.329 123.18 287.673V287.837C123.18 288.191 123.146 288.524 123.079 288.837C123.011 289.144 122.907 289.412 122.766 289.642C122.62 289.876 122.433 290.061 122.204 290.196C121.974 290.332 121.701 290.399 121.383 290.399C121.055 290.399 120.774 290.332 120.54 290.196C120.31 290.061 120.123 289.876 119.977 289.642C119.831 289.412 119.724 289.144 119.657 288.837C119.589 288.524 119.555 288.191 119.555 287.837ZM131.274 281.454H129.102V283.524H127.172V285.126H129.102V288.97C129.102 289.527 129.175 290.006 129.321 290.407C129.467 290.803 129.675 291.129 129.946 291.384C130.211 291.644 130.532 291.837 130.907 291.962C131.287 292.082 131.709 292.142 132.172 292.142C132.412 292.142 132.654 292.129 132.899 292.103C133.149 292.082 133.389 292.05 133.618 292.009C133.847 291.967 134.063 291.915 134.266 291.853C134.469 291.785 134.646 291.707 134.797 291.618L134.586 290.126C134.487 290.152 134.368 290.178 134.227 290.204C134.092 290.23 133.946 290.254 133.79 290.274C133.628 290.3 133.459 290.321 133.282 290.337C133.11 290.353 132.941 290.36 132.774 290.36C132.545 290.36 132.336 290.334 132.149 290.282C131.967 290.23 131.81 290.142 131.68 290.017C131.55 289.897 131.448 289.735 131.375 289.532C131.308 289.324 131.274 289.066 131.274 288.759V285.126H134.43V283.524H131.274V281.454ZM141 292.134C141.818 292.134 142.527 291.975 143.125 291.657C143.724 291.34 144.162 290.985 144.438 290.595L143.352 289.423C143.102 289.746 142.777 289.988 142.375 290.149C141.974 290.311 141.56 290.392 141.133 290.392C140.831 290.392 140.553 290.345 140.297 290.251C140.042 290.157 139.816 290.024 139.618 289.853C139.425 289.686 139.271 289.501 139.157 289.298C139.042 289.09 138.948 288.816 138.875 288.478V288.454H144.61V287.532C144.61 286.912 144.524 286.347 144.352 285.837C144.18 285.321 143.93 284.881 143.602 284.517C143.269 284.152 142.862 283.871 142.383 283.673C141.909 283.47 141.368 283.368 140.758 283.368C140.17 283.368 139.625 283.475 139.125 283.688C138.625 283.902 138.193 284.201 137.829 284.587C137.464 284.972 137.18 285.433 136.977 285.97C136.774 286.501 136.672 287.09 136.672 287.735V288.048C136.672 288.616 136.774 289.149 136.977 289.649C137.185 290.144 137.48 290.574 137.86 290.938C138.24 291.308 138.696 291.6 139.227 291.813C139.758 292.027 140.349 292.134 141 292.134ZM140.743 285.126C141.019 285.126 141.261 285.17 141.469 285.259C141.683 285.342 141.862 285.457 142.008 285.603C142.154 285.754 142.269 285.931 142.352 286.134C142.435 286.337 142.477 286.553 142.477 286.782V286.954H138.915C138.967 286.678 139.045 286.428 139.149 286.204C139.253 285.98 139.383 285.787 139.54 285.626C139.691 285.465 139.868 285.342 140.071 285.259C140.274 285.17 140.498 285.126 140.743 285.126ZM146.508 291.978H148.688V285.97C148.761 285.855 148.842 285.751 148.93 285.657C149.019 285.563 149.118 285.483 149.227 285.415C149.362 285.321 149.516 285.251 149.688 285.204C149.865 285.157 150.058 285.134 150.266 285.134C150.516 285.134 150.74 285.16 150.938 285.212C151.136 285.259 151.305 285.345 151.446 285.47C151.586 285.595 151.693 285.767 151.766 285.985C151.844 286.199 151.883 286.472 151.883 286.806V291.978H154.055V286.774C154.055 286.16 153.982 285.639 153.836 285.212C153.696 284.78 153.498 284.425 153.243 284.149C152.982 283.879 152.675 283.681 152.321 283.556C151.967 283.431 151.576 283.368 151.149 283.368C150.816 283.368 150.5 283.415 150.204 283.509C149.907 283.603 149.633 283.738 149.383 283.915C149.237 284.019 149.099 284.136 148.969 284.267C148.839 284.397 148.719 284.54 148.61 284.696L148.477 283.524H146.508V291.978ZM160.102 281.454H157.93V283.524H156V285.126H157.93V288.97C157.93 289.527 158.003 290.006 158.149 290.407C158.295 290.803 158.503 291.129 158.774 291.384C159.04 291.644 159.36 291.837 159.735 291.962C160.115 292.082 160.537 292.142 161 292.142C161.24 292.142 161.482 292.129 161.727 292.103C161.977 292.082 162.217 292.05 162.446 292.009C162.675 291.967 162.891 291.915 163.094 291.853C163.297 291.785 163.474 291.707 163.625 291.618L163.415 290.126C163.316 290.152 163.196 290.178 163.055 290.204C162.92 290.23 162.774 290.254 162.618 290.274C162.456 290.3 162.287 290.321 162.11 290.337C161.938 290.353 161.769 290.36 161.602 290.36C161.373 290.36 161.165 290.334 160.977 290.282C160.795 290.23 160.639 290.142 160.508 290.017C160.378 289.897 160.277 289.735 160.204 289.532C160.136 289.324 160.102 289.066 160.102 288.759V285.126H163.258V283.524H160.102V281.454ZM166.305 283.524V285.298H168.711V290.212H166.305V291.978H173.196V290.212H170.907V283.524H166.305ZM168.555 281.36C168.555 281.527 168.584 281.683 168.641 281.829C168.704 281.97 168.79 282.09 168.899 282.188C169.008 282.293 169.139 282.373 169.29 282.431C169.446 282.488 169.618 282.517 169.805 282.517C170.191 282.517 170.495 282.41 170.719 282.196C170.948 281.978 171.063 281.699 171.063 281.36C171.063 281.022 170.948 280.746 170.719 280.532C170.495 280.313 170.191 280.204 169.805 280.204C169.618 280.204 169.446 280.233 169.29 280.29C169.139 280.347 169.008 280.425 168.899 280.524C168.79 280.629 168.704 280.754 168.641 280.899C168.584 281.04 168.555 281.194 168.555 281.36ZM180.618 291.978H182.821V291.845C182.711 291.631 182.628 291.376 182.571 291.079C182.514 290.782 182.485 290.407 182.485 289.954V286.329C182.485 285.84 182.394 285.41 182.211 285.04C182.029 284.665 181.777 284.355 181.454 284.11C181.131 283.866 180.748 283.681 180.305 283.556C179.868 283.431 179.394 283.368 178.883 283.368C178.316 283.368 177.81 283.441 177.368 283.587C176.93 283.728 176.56 283.92 176.258 284.165C175.951 284.41 175.717 284.694 175.555 285.017C175.399 285.34 175.321 285.681 175.321 286.04H177.493C177.493 285.889 177.514 285.751 177.555 285.626C177.602 285.501 177.672 285.394 177.766 285.306C177.87 285.207 178.006 285.131 178.172 285.079C178.339 285.022 178.537 284.993 178.766 284.993C179.027 284.993 179.253 285.027 179.446 285.095C179.644 285.157 179.808 285.248 179.938 285.368C180.063 285.483 180.157 285.621 180.219 285.782C180.282 285.938 180.313 286.116 180.313 286.313V286.813H179.102C178.477 286.813 177.922 286.871 177.438 286.985C176.959 287.095 176.555 287.256 176.227 287.47C175.862 287.704 175.589 288.004 175.407 288.368C175.224 288.728 175.133 289.142 175.133 289.61C175.133 289.975 175.206 290.313 175.352 290.626C175.498 290.933 175.701 291.199 175.961 291.423C176.222 291.647 176.532 291.821 176.891 291.946C177.256 292.071 177.654 292.134 178.086 292.134C178.352 292.134 178.599 292.108 178.829 292.056C179.058 292.009 179.269 291.941 179.461 291.853C179.649 291.769 179.821 291.67 179.977 291.556C180.133 291.441 180.271 291.319 180.391 291.188C180.417 291.34 180.448 291.483 180.485 291.618C180.521 291.754 180.566 291.873 180.618 291.978ZM178.547 290.454C178.344 290.454 178.165 290.431 178.008 290.384C177.857 290.332 177.73 290.264 177.625 290.181C177.521 290.092 177.441 289.985 177.383 289.86C177.331 289.73 177.305 289.59 177.305 289.438C177.305 289.246 177.342 289.069 177.415 288.907C177.487 288.741 177.599 288.597 177.75 288.478C177.902 288.363 178.097 288.274 178.336 288.212C178.576 288.144 178.865 288.11 179.204 288.11H180.313V289.563C180.25 289.673 180.165 289.782 180.055 289.892C179.946 289.996 179.816 290.09 179.665 290.173C179.514 290.256 179.344 290.324 179.157 290.376C178.969 290.428 178.766 290.454 178.547 290.454ZM185.399 279.978V281.751H187.93V290.212H185.399V291.978H192.547V290.212H190.125V279.978H185.399Z" fill="white"/>
</svg>
