<svg width="828" height="91" viewBox="0 0 828 91" fill="none" xmlns="http://www.w3.org/2000/svg">
<path d="M17.8138 83.0801V52.7775H17.5016L5.03513 57.3978V61.7892L12.7981 58.9379V83.0801H17.8138Z" fill="#8EFE1C"/>
<path d="M42.059 53.4236H39.8701V64.1187H41.5228V60.49L41.4273 55.8917L42.9185 60.8205H43.8366L45.482 55.7154L45.3792 60.49V64.1187H47.0393V53.4236H44.843L43.3812 57.9999L42.059 53.4236ZM54.1203 64.1187H55.9126V63.9938C55.8147 63.7881 55.7388 63.5433 55.6849 63.2592C55.6359 62.9703 55.6115 62.6471 55.6115 62.2896V58.7564C55.6115 58.3059 55.5282 57.9093 55.3617 57.5665C55.1952 57.2188 54.9651 56.9323 54.6712 56.7071C54.3774 56.4818 54.0273 56.3128 53.6208 56.2002C53.2193 56.0827 52.7859 56.0239 52.3207 56.0239C51.8016 56.0239 51.3388 56.0925 50.9324 56.2296C50.5308 56.3618 50.1929 56.543 49.9187 56.7732C49.6347 56.9984 49.4192 57.258 49.2723 57.5518C49.1254 57.8456 49.0495 58.1517 49.0446 58.47H50.8075C50.8075 58.3182 50.8344 58.1762 50.8883 58.0439C50.9471 57.9068 51.0352 57.7917 51.1527 57.6987C51.2703 57.5959 51.4172 57.5151 51.5935 57.4563C51.7747 57.3975 51.9852 57.3681 52.2252 57.3681C52.4896 57.3681 52.7222 57.4024 52.923 57.471C53.1287 57.5346 53.3025 57.6277 53.4445 57.7501C53.5768 57.8725 53.6771 58.017 53.7457 58.1835C53.8192 58.35 53.8559 58.5361 53.8559 58.7418V59.278H52.5778C52.0048 59.278 51.4906 59.3318 51.0352 59.4396C50.5847 59.5473 50.2052 59.704 49.8967 59.9097C49.5637 60.1301 49.309 60.4092 49.1327 60.7471C48.9613 61.0801 48.8756 61.4645 48.8756 61.9003C48.8756 62.2382 48.9418 62.5541 49.074 62.8479C49.2111 63.1368 49.4021 63.3841 49.6469 63.5898C49.8869 63.8003 50.1758 63.9668 50.5137 64.0893C50.8565 64.2068 51.2335 64.2656 51.6449 64.2656C51.8995 64.2656 52.137 64.2411 52.3574 64.1921C52.5778 64.1431 52.7834 64.0746 52.9744 63.9864C53.1654 63.9032 53.3368 63.8052 53.4886 63.6926C53.6453 63.5751 53.7849 63.4527 53.9073 63.3253C53.9318 63.4771 53.9587 63.6241 53.9881 63.7661C54.0224 63.9032 54.0665 64.0207 54.1203 64.1187ZM51.9828 62.8552C51.7575 62.8552 51.5616 62.8283 51.3952 62.7744C51.2287 62.7157 51.0891 62.6373 50.9765 62.5394C50.8638 62.4414 50.7781 62.3239 50.7194 62.1868C50.6606 62.0448 50.6312 61.893 50.6312 61.7314C50.6312 61.5355 50.6655 61.3592 50.7341 61.2025C50.8075 61.0458 50.9177 60.9111 51.0646 60.7985C51.2311 60.6663 51.4539 60.5659 51.733 60.4973C52.0122 60.4239 52.3427 60.3871 52.7247 60.3871H53.8559V61.8562C53.7922 61.9836 53.7016 62.106 53.5841 62.2235C53.4666 62.341 53.327 62.4463 53.1654 62.5394C53.0038 62.6324 52.8226 62.7083 52.6218 62.7671C52.426 62.8258 52.2129 62.8552 51.9828 62.8552ZM63.2728 61.9664C63.2728 62.0937 63.2434 62.2113 63.1847 62.319C63.1308 62.4218 63.0475 62.5173 62.9349 62.6055C62.7978 62.7132 62.6142 62.7989 62.384 62.8626C62.1587 62.9262 61.8943 62.9581 61.5907 62.9581C61.3654 62.9581 61.1426 62.936 60.9222 62.892C60.7019 62.843 60.506 62.7646 60.3346 62.6569C60.1583 62.5541 60.0114 62.4194 59.8939 62.2529C59.7812 62.0815 59.7176 61.8734 59.7029 61.6285H57.9987C57.9987 61.9566 58.0771 62.2798 58.2338 62.5981C58.3905 62.9164 58.6207 63.198 58.9243 63.4429C59.223 63.6926 59.5927 63.8934 60.0334 64.0452C60.4791 64.197 60.9884 64.2729 61.5613 64.2729C62.0755 64.2729 62.5432 64.2141 62.9643 64.0966C63.3854 63.9791 63.7478 63.815 64.0514 63.6045C64.3501 63.3939 64.5803 63.1417 64.7419 62.8479C64.9084 62.5541 64.9916 62.2309 64.9916 61.8783C64.9916 61.5159 64.9133 61.2025 64.7566 60.9381C64.5999 60.6736 64.3795 60.4435 64.0955 60.2476C63.8115 60.0615 63.4687 59.9048 63.0671 59.7775C62.6656 59.6501 62.2224 59.5424 61.7376 59.4543C61.3899 59.3955 61.101 59.3294 60.8708 59.2559C60.6456 59.1825 60.4693 59.1017 60.342 59.0135C60.2048 58.9303 60.1093 58.8348 60.0555 58.7271C60.0016 58.6144 59.9747 58.4896 59.9747 58.3524C59.9747 58.2202 60.0065 58.0954 60.0702 57.9778C60.1338 57.8554 60.2293 57.7501 60.3566 57.662C60.484 57.564 60.6456 57.4881 60.8414 57.4343C61.0422 57.3755 61.2748 57.3461 61.5393 57.3461C61.8282 57.3461 62.0804 57.3853 62.2959 57.4636C62.5113 57.5371 62.6876 57.6375 62.8247 57.7648C62.9423 57.8725 63.0304 57.995 63.0892 58.1321C63.1528 58.2643 63.1847 58.4039 63.1847 58.5508H64.9402C64.9402 58.1933 64.8619 57.8603 64.7052 57.5518C64.5485 57.2433 64.3257 56.9764 64.0367 56.7511C63.7429 56.5259 63.3854 56.3496 62.9643 56.2223C62.5432 56.09 62.0681 56.0239 61.5393 56.0239C61.0447 56.0239 60.5942 56.0876 60.1877 56.2149C59.7861 56.3422 59.4434 56.5161 59.1593 56.7364C58.8704 56.9568 58.6476 57.2139 58.4909 57.5077C58.3391 57.7966 58.2632 58.1027 58.2632 58.4259C58.2632 58.7638 58.3391 59.0601 58.4909 59.3147C58.6427 59.5693 58.8533 59.7897 59.1226 59.9758C59.3968 60.1717 59.7225 60.3382 60.0996 60.4753C60.4815 60.6124 60.9027 60.7275 61.363 60.8205C61.7303 60.8891 62.0363 60.9625 62.2812 61.0409C62.526 61.1192 62.7243 61.2025 62.8761 61.2906C63.0182 61.3886 63.1185 61.4914 63.1773 61.5992C63.241 61.7069 63.2728 61.8293 63.2728 61.9664ZM72.3078 61.9664C72.3078 62.0937 72.2784 62.2113 72.2196 62.319C72.1657 62.4218 72.0825 62.5173 71.9699 62.6055C71.8327 62.7132 71.6491 62.7989 71.419 62.8626C71.1937 62.9262 70.9293 62.9581 70.6256 62.9581C70.4004 62.9581 70.1776 62.936 69.9572 62.892C69.7368 62.843 69.541 62.7646 69.3696 62.6569C69.1933 62.5541 69.0464 62.4194 68.9288 62.2529C68.8162 62.0815 68.7525 61.8734 68.7378 61.6285H67.0337C67.0337 61.9566 67.112 62.2798 67.2688 62.5981C67.4255 62.9164 67.6556 63.198 67.9592 63.4429C68.2579 63.6926 68.6277 63.8934 69.0684 64.0452C69.514 64.197 70.0233 64.2729 70.5963 64.2729C71.1104 64.2729 71.5781 64.2141 71.9992 64.0966C72.4204 63.9791 72.7828 63.815 73.0864 63.6045C73.3851 63.3939 73.6153 63.1417 73.7769 62.8479C73.9434 62.5541 74.0266 62.2309 74.0266 61.8783C74.0266 61.5159 73.9482 61.2025 73.7915 60.9381C73.6348 60.6736 73.4145 60.4435 73.1304 60.2476C72.8464 60.0615 72.5036 59.9048 72.1021 59.7775C71.7005 59.6501 71.2574 59.5424 70.7725 59.4543C70.4249 59.3955 70.1359 59.3294 69.9058 59.2559C69.6805 59.1825 69.5042 59.1017 69.3769 59.0135C69.2398 58.9303 69.1443 58.8348 69.0904 58.7271C69.0366 58.6144 69.0096 58.4896 69.0096 58.3524C69.0096 58.2202 69.0415 58.0954 69.1051 57.9778C69.1688 57.8554 69.2643 57.7501 69.3916 57.662C69.5189 57.564 69.6805 57.4881 69.8764 57.4343C70.0772 57.3755 70.3098 57.3461 70.5742 57.3461C70.8631 57.3461 71.1153 57.3853 71.3308 57.4636C71.5463 57.5371 71.7226 57.6375 71.8597 57.7648C71.9772 57.8725 72.0654 57.995 72.1241 58.1321C72.1878 58.2643 72.2196 58.4039 72.2196 58.5508H73.9752C73.9752 58.1933 73.8968 57.8603 73.7401 57.5518C73.5834 57.2433 73.3606 56.9764 73.0717 56.7511C72.7779 56.5259 72.4204 56.3496 71.9992 56.2223C71.5781 56.09 71.1031 56.0239 70.5742 56.0239C70.0796 56.0239 69.6291 56.0876 69.2227 56.2149C68.8211 56.3422 68.4783 56.5161 68.1943 56.7364C67.9054 56.9568 67.6825 57.2139 67.5258 57.5077C67.374 57.7966 67.2981 58.1027 67.2981 58.4259C67.2981 58.7638 67.374 59.0601 67.5258 59.3147C67.6776 59.5693 67.8882 59.7897 68.1576 59.9758C68.4318 60.1717 68.7574 60.3382 69.1345 60.4753C69.5165 60.6124 69.9376 60.7275 70.3979 60.8205C70.7652 60.8891 71.0713 60.9625 71.3161 61.0409C71.561 61.1192 71.7593 61.2025 71.9111 61.2906C72.0531 61.3886 72.1535 61.4914 72.2123 61.5992C72.2759 61.7069 72.3078 61.8293 72.3078 61.9664ZM76.5534 56.1708V57.6326H78.9995V62.6642H76.5534V64.1187H83.1056V62.6642H80.7698V56.1708H76.5534ZM78.8379 54.1141C78.8379 54.3002 78.882 54.4642 78.9701 54.6062C79.0632 54.7434 79.1978 54.8389 79.3741 54.8927C79.5455 54.9466 79.7022 54.9588 79.8442 54.9294C79.9862 54.9001 80.1087 54.8389 80.2115 54.7458C80.4172 54.6919 80.5739 54.5867 80.6816 54.43C80.7893 54.2684 80.8261 54.0798 80.7918 53.8644C80.7673 53.6538 80.6718 53.4824 80.5053 53.3502C80.3437 53.2131 80.1307 53.1445 79.8663 53.1445C79.7096 53.1445 79.5675 53.169 79.4402 53.2179C79.3178 53.262 79.2125 53.3257 79.1244 53.4089C79.0313 53.4971 78.9603 53.6024 78.9113 53.7248C78.8624 53.8423 78.8379 53.9721 78.8379 54.1141ZM87.7847 64.1187H89.3346L92.4491 56.1708H90.6274L88.6808 61.937L88.5633 62.4659L88.4458 61.937L86.4772 56.1708H84.6555L87.7847 64.1187ZM97.9288 64.2656C98.7025 64.2656 99.3612 64.1138 99.9048 63.8101C100.453 63.5065 100.86 63.1637 101.124 62.7818L100.184 61.8709C99.939 62.1843 99.6281 62.4267 99.251 62.5981C98.8739 62.7646 98.4675 62.8479 98.0317 62.8479C97.7133 62.8479 97.4195 62.794 97.1502 62.6863C96.8858 62.5785 96.6556 62.4267 96.4597 62.2309C96.2638 62.0448 96.1096 61.8342 95.997 61.5992C95.8843 61.3641 95.8011 61.0727 95.7472 60.725V60.6883H101.256V59.9317C101.256 59.3637 101.18 58.8397 101.029 58.3598C100.877 57.8799 100.652 57.4661 100.353 57.1184C100.054 56.7756 99.6844 56.5087 99.2437 56.3177C98.8029 56.1219 98.2961 56.0239 97.7231 56.0239C97.209 56.0239 96.7242 56.1219 96.2687 56.3177C95.8182 56.5087 95.4216 56.783 95.0788 57.1404C94.736 57.4979 94.4666 57.9289 94.2708 58.4332C94.0749 58.9376 93.9769 59.5008 93.9769 60.1227V60.4239C93.9769 60.9674 94.07 61.4743 94.2561 61.9444C94.4471 62.4096 94.7164 62.8136 95.0641 63.1564C95.4118 63.5041 95.828 63.7759 96.3128 63.9717C96.8025 64.1676 97.3412 64.2656 97.9288 64.2656ZM97.7158 57.4489C98.0096 57.4489 98.2667 57.5004 98.4871 57.6032C98.7123 57.7011 98.8984 57.8334 99.0453 57.9999C99.1971 58.1713 99.3147 58.372 99.3979 58.6022C99.4812 58.8275 99.5228 59.0552 99.5228 59.2853V59.4028H95.7839C95.8378 59.0992 95.9211 58.8275 96.0337 58.5875C96.1463 58.3475 96.2859 58.1419 96.4524 57.9705C96.6189 57.804 96.8074 57.6767 97.018 57.5885C97.2334 57.4955 97.4661 57.4489 97.7158 57.4489ZM47.1862 80.8279H45.4159C45.3865 81.1511 45.3229 81.4375 45.2249 81.6873C45.127 81.937 44.9972 82.1452 44.8356 82.3117C44.6691 82.4831 44.4684 82.6128 44.2333 82.701C43.9982 82.7891 43.7289 82.8332 43.4253 82.8332C43.1707 82.8332 42.9429 82.7989 42.7422 82.7304C42.5463 82.6569 42.3724 82.5516 42.2206 82.4145C42.0737 82.2872 41.9464 82.1354 41.8387 81.9591C41.7358 81.7828 41.6501 81.5869 41.5816 81.3714C41.4934 81.1119 41.4273 80.8254 41.3833 80.512C41.3441 80.1986 41.3245 79.8632 41.3245 79.5057V78.0292C41.3245 77.7403 41.3392 77.4587 41.3686 77.1845C41.4028 76.9054 41.4518 76.6434 41.5155 76.3985C41.5987 76.1194 41.704 75.8672 41.8313 75.642C41.9635 75.4118 42.1276 75.2257 42.3235 75.0837C42.4655 74.9662 42.6271 74.8756 42.8083 74.8119C42.9944 74.7483 43.2025 74.7164 43.4326 74.7164C43.7607 74.7164 44.0423 74.7654 44.2774 74.8633C44.5124 74.9564 44.7108 75.0935 44.8724 75.2747C45.0291 75.4559 45.1515 75.6762 45.2396 75.9358C45.3327 76.1904 45.3939 76.4769 45.4233 76.7952H47.1862C47.1323 76.2614 47.0123 75.7766 46.8263 75.3408C46.6451 74.905 46.3953 74.5328 46.077 74.2243C45.7636 73.9207 45.3841 73.6856 44.9385 73.5191C44.4977 73.3526 43.9958 73.2694 43.4326 73.2694C43.0164 73.2694 42.632 73.3257 42.2794 73.4383C41.9317 73.5509 41.6134 73.7076 41.3245 73.9084C41.0209 74.1288 40.7515 74.3957 40.5165 74.7091C40.2863 75.0176 40.0978 75.3628 39.9509 75.7448C39.8138 76.0876 39.7109 76.4524 39.6424 76.8393C39.5738 77.2261 39.5395 77.6277 39.5395 78.0439V79.5057C39.5395 79.9415 39.5738 80.3602 39.6424 80.7618C39.7158 81.1633 39.8236 81.5355 39.9656 81.8783C40.1076 82.226 40.2814 82.5467 40.4871 82.8405C40.6977 83.1295 40.9425 83.3768 41.2216 83.5824C41.5106 83.8028 41.8387 83.9742 42.2059 84.0966C42.5781 84.2141 42.9846 84.2729 43.4253 84.2729C43.964 84.2729 44.4537 84.1921 44.8944 84.0305C45.34 83.864 45.7244 83.629 46.0476 83.3253C46.3659 83.0266 46.623 82.6667 46.8189 82.2456C47.0148 81.8195 47.1372 81.347 47.1862 80.8279ZM48.7214 80.0713V80.2255C48.7214 80.8083 48.8046 81.3445 48.9711 81.8342C49.1376 82.3239 49.38 82.7499 49.6983 83.1123C50.0118 83.4747 50.3986 83.7587 50.8589 83.9644C51.3192 84.1701 51.8408 84.2729 52.4235 84.2729C53.0014 84.2729 53.518 84.1701 53.9734 83.9644C54.4337 83.7587 54.8206 83.4747 55.134 83.1123C55.4474 82.7499 55.6874 82.3239 55.8539 81.8342C56.0204 81.3445 56.1036 80.8083 56.1036 80.2255V80.0713C56.1036 79.4934 56.0204 78.9597 55.8539 78.47C55.6874 77.9754 55.4474 77.5469 55.134 77.1845C54.8157 76.8221 54.4264 76.5381 53.9661 76.3324C53.5107 76.1268 52.9916 76.0239 52.4088 76.0239C51.8261 76.0239 51.307 76.1268 50.8516 76.3324C50.3962 76.5381 50.0118 76.8221 49.6983 77.1845C49.38 77.5469 49.1376 77.9754 48.9711 78.47C48.8046 78.9597 48.7214 79.4934 48.7214 80.0713ZM50.477 80.2255V80.0713C50.477 79.7236 50.5137 79.3906 50.5871 79.0723C50.6655 78.754 50.7855 78.4749 50.9471 78.2349C51.1038 77.995 51.3021 77.804 51.5421 77.662C51.7869 77.52 52.0758 77.4489 52.4088 77.4489C52.7467 77.4489 53.0356 77.52 53.2756 77.662C53.5204 77.804 53.7237 77.995 53.8853 78.2349C54.0371 78.4749 54.1522 78.754 54.2305 79.0723C54.3089 79.3906 54.348 79.7236 54.348 80.0713V80.2255C54.348 80.583 54.3089 80.9209 54.2305 81.2392C54.1571 81.5575 54.042 81.8367 53.8853 82.0766C53.7286 82.3166 53.5278 82.5075 53.2829 82.6496C53.0381 82.7867 52.7516 82.8552 52.4235 82.8552C52.0856 82.8552 51.7943 82.7867 51.5494 82.6496C51.3046 82.5075 51.1038 82.3166 50.9471 82.0766C50.7855 81.8367 50.6655 81.5575 50.5871 81.2392C50.5137 80.9209 50.477 80.583 50.477 80.2255ZM59.0785 76.1708H57.5507V84.1187H59.1667V78.0146C59.1961 77.9411 59.2279 77.875 59.2622 77.8162C59.3013 77.7575 59.3454 77.706 59.3944 77.662C59.458 77.5983 59.534 77.5518 59.6221 77.5224C59.7151 77.4881 59.8204 77.471 59.938 77.471C60.0457 77.471 60.1412 77.4857 60.2244 77.5151C60.3126 77.5444 60.3885 77.591 60.4521 77.6546C60.5158 77.7183 60.5623 77.8064 60.5917 77.9191C60.626 78.0268 60.6431 78.159 60.6431 78.3157V84.1187H62.2297V78.2202C62.2297 78.1713 62.2297 78.1345 62.2297 78.11C62.2297 78.0807 62.2297 78.0562 62.2297 78.0366C62.2493 77.9533 62.2787 77.8799 62.3179 77.8162C62.3571 77.7477 62.406 77.6889 62.4648 77.6399C62.5285 77.5861 62.6019 77.5444 62.6852 77.5151C62.7684 77.4857 62.8664 77.471 62.979 77.471C63.0867 77.471 63.1847 77.4857 63.2728 77.5151C63.3658 77.5444 63.4442 77.591 63.5079 77.6546C63.5715 77.7232 63.6205 77.8138 63.6548 77.9264C63.689 78.0341 63.7062 78.1664 63.7062 78.3231V84.1187H65.3222V78.3378C65.3222 77.9215 65.2781 77.5665 65.19 77.2727C65.1067 76.9739 64.9868 76.7315 64.83 76.5455C64.6733 76.3692 64.4873 76.2394 64.2718 76.1561C64.0612 76.068 63.8286 76.0239 63.574 76.0239C63.3781 76.0239 63.1969 76.0484 63.0304 76.0974C62.8688 76.1463 62.7219 76.2149 62.5897 76.3031C62.4868 76.3716 62.3913 76.4549 62.3032 76.5528C62.2151 76.6507 62.1367 76.756 62.0681 76.8687C62.0192 76.7462 61.9604 76.6385 61.8919 76.5455C61.8233 76.4475 61.7449 76.3643 61.6568 76.2957C61.5442 76.2027 61.4095 76.1341 61.2528 76.09C61.0961 76.046 60.9198 76.0239 60.7239 76.0239C60.3469 76.0239 60.0237 76.1145 59.7543 76.2957C59.4899 76.4769 59.2818 76.7266 59.1299 77.0449L59.0785 76.1708ZM74.1001 80.2255V80.0713C74.1001 79.6208 74.0584 79.1947 73.9752 78.7932C73.8968 78.3916 73.7793 78.0268 73.6226 77.6987C73.5051 77.4636 73.368 77.2482 73.2113 77.0523C73.0594 76.8515 72.8856 76.6826 72.6897 76.5455C72.4596 76.379 72.2 76.2516 71.9111 76.1635C71.6271 76.0704 71.3137 76.0239 70.9709 76.0239C70.7113 76.0239 70.4689 76.0509 70.2437 76.1047C70.0233 76.1537 69.8201 76.2296 69.634 76.3324C69.492 76.4108 69.3598 76.5014 69.2373 76.6042C69.1149 76.7071 69.0023 76.8221 68.8994 76.9495V72.836H67.1439V84.1187H68.7305L68.8113 83.2519C68.8994 83.3596 68.99 83.46 69.0831 83.553C69.181 83.6412 69.2839 83.7244 69.3916 83.8028C69.6022 83.9546 69.8397 84.0697 70.1041 84.148C70.3685 84.2264 70.6624 84.2656 70.9856 84.2656C71.3039 84.2656 71.5977 84.2239 71.867 84.1407C72.1413 84.0623 72.3886 83.9497 72.6089 83.8028C72.8832 83.6216 73.1182 83.3939 73.3141 83.1197C73.51 82.8454 73.6667 82.5394 73.7842 82.2015C73.887 81.9175 73.9654 81.6089 74.0193 81.2759C74.0731 80.943 74.1001 80.5928 74.1001 80.2255ZM72.3445 80.0713V80.2255C72.3445 80.4459 72.3322 80.6589 72.3078 80.8646C72.2833 81.0703 72.2465 81.2613 72.1976 81.4375C72.1388 81.6726 72.0531 81.8856 71.9405 82.0766C71.8327 82.2627 71.6932 82.4169 71.5218 82.5394C71.3945 82.6275 71.25 82.6985 71.0884 82.7524C70.9268 82.8014 70.7456 82.8258 70.5448 82.8258C70.3245 82.8258 70.1237 82.7989 69.9425 82.745C69.7662 82.6863 69.6095 82.6079 69.4724 82.51C69.35 82.4169 69.2398 82.3117 69.1418 82.1941C69.0488 82.0717 68.968 81.937 68.8994 81.7901V78.4994C68.9582 78.372 69.0268 78.2545 69.1051 78.1468C69.1884 78.0341 69.2814 77.9362 69.3843 77.853C69.5263 77.7305 69.6928 77.6375 69.8837 77.5738C70.0747 77.5053 70.2902 77.471 70.5301 77.471C70.726 77.471 70.9023 77.493 71.059 77.5371C71.2157 77.5812 71.3553 77.6473 71.4777 77.7354C71.6638 77.8627 71.8107 78.0194 71.9184 78.2055C72.0311 78.3867 72.1217 78.5899 72.1902 78.8152C72.2392 79.0013 72.2759 79.2021 72.3004 79.4175C72.3298 79.6281 72.3445 79.846 72.3445 80.0713ZM81.2252 84.1187H83.0175V83.9938C82.9195 83.7881 82.8436 83.5433 82.7898 83.2592C82.7408 82.9703 82.7163 82.6471 82.7163 82.2896V78.7564C82.7163 78.3059 82.6331 77.9093 82.4666 77.5665C82.3001 77.2188 82.0699 76.9323 81.7761 76.7071C81.4823 76.4818 81.1321 76.3128 80.7257 76.2002C80.3241 76.0827 79.8907 76.0239 79.4255 76.0239C78.9065 76.0239 78.4437 76.0925 78.0372 76.2296C77.6357 76.3618 77.2978 76.543 77.0236 76.7732C76.7395 76.9984 76.5241 77.258 76.3772 77.5518C76.2302 77.8456 76.1543 78.1517 76.1494 78.47H77.9124C77.9124 78.3182 77.9393 78.1762 77.9932 78.0439C78.0519 77.9068 78.1401 77.7917 78.2576 77.6987C78.3751 77.5959 78.522 77.5151 78.6983 77.4563C78.8795 77.3975 79.0901 77.3681 79.33 77.3681C79.5945 77.3681 79.8271 77.4024 80.0279 77.471C80.2335 77.5346 80.4074 77.6277 80.5494 77.7501C80.6816 77.8725 80.782 78.017 80.8506 78.1835C80.924 78.35 80.9607 78.5361 80.9607 78.7418V79.278H79.6826C79.1097 79.278 78.5955 79.3318 78.1401 79.4396C77.6895 79.5473 77.31 79.704 77.0015 79.9097C76.6685 80.1301 76.4139 80.4092 76.2376 80.7471C76.0662 81.0801 75.9805 81.4645 75.9805 81.9003C75.9805 82.2382 76.0466 82.5541 76.1788 82.8479C76.3159 83.1368 76.5069 83.3841 76.7518 83.5898C76.9917 83.8003 77.2807 83.9668 77.6185 84.0893C77.9613 84.2068 78.3384 84.2656 78.7497 84.2656C79.0044 84.2656 79.2419 84.2411 79.4623 84.1921C79.6826 84.1431 79.8883 84.0746 80.0793 83.9864C80.2703 83.9032 80.4417 83.8052 80.5935 83.6926C80.7502 83.5751 80.8897 83.4527 81.0122 83.3253C81.0366 83.4771 81.0636 83.6241 81.093 83.7661C81.1272 83.9032 81.1713 84.0207 81.2252 84.1187ZM79.0876 82.8552C78.8624 82.8552 78.6665 82.8283 78.5 82.7744C78.3335 82.7157 78.1939 82.6373 78.0813 82.5394C77.9687 82.4414 77.883 82.3239 77.8242 82.1868C77.7655 82.0448 77.7361 81.893 77.7361 81.7314C77.7361 81.5355 77.7703 81.3592 77.8389 81.2025C77.9124 81.0458 78.0225 80.9111 78.1695 80.7985C78.336 80.6663 78.5588 80.5659 78.8379 80.4973C79.117 80.4239 79.4476 80.3871 79.8295 80.3871H80.9607V81.8562C80.8971 81.9836 80.8065 82.106 80.689 82.2235C80.5714 82.341 80.4319 82.4463 80.2703 82.5394C80.1087 82.6324 79.9275 82.7083 79.7267 82.7671C79.5308 82.8258 79.3178 82.8552 79.0876 82.8552ZM88.7102 74.2316H86.9473V76.1708H85.0228V77.4857H86.9473V81.3935C86.9473 81.9028 87.0134 82.3386 87.1456 82.701C87.2828 83.0634 87.4713 83.3596 87.7112 83.5898C87.9512 83.8248 88.2377 83.9987 88.5707 84.1113C88.9086 84.219 89.2783 84.2729 89.6798 84.2729C89.9002 84.2729 90.1206 84.2607 90.3409 84.2362C90.5662 84.2166 90.7817 84.1872 90.9873 84.148C91.193 84.1089 91.384 84.0623 91.5603 84.0085C91.7415 83.9497 91.8957 83.8811 92.023 83.8028L91.8321 82.5908C91.7439 82.6104 91.6337 82.6349 91.5015 82.6642C91.3742 82.6887 91.2371 82.7108 91.0902 82.7304C90.9384 82.7548 90.7817 82.7744 90.6201 82.7891C90.4585 82.8038 90.3018 82.8112 90.1499 82.8112C89.9394 82.8112 89.7459 82.7867 89.5697 82.7377C89.3934 82.6887 89.2416 82.6055 89.1142 82.488C88.9869 82.3753 88.8865 82.2211 88.8131 82.0252C88.7445 81.8244 88.7102 81.5771 88.7102 81.2833V77.4857H91.6998V76.1708H88.7102V74.2316ZM106.802 79.9685L108.852 84.1187H110.739V84.0232L108.455 79.5498C108.749 79.4175 109.016 79.2608 109.256 79.0796C109.496 78.8985 109.701 78.6879 109.873 78.4479C110.044 78.208 110.176 77.9386 110.269 77.6399C110.367 77.3412 110.416 77.0082 110.416 76.6409C110.416 76.1072 110.323 75.642 110.137 75.2453C109.951 74.8437 109.691 74.5083 109.358 74.239C109.021 73.9745 108.619 73.7738 108.154 73.6366C107.689 73.4995 107.179 73.4285 106.626 73.4236H103.232V84.1187H104.995V79.9685H106.802ZM104.995 78.5287V74.8633H106.626C106.929 74.8682 107.204 74.9099 107.449 74.9882C107.693 75.0617 107.902 75.1718 108.073 75.3188C108.259 75.4755 108.399 75.6713 108.492 75.9064C108.59 76.1366 108.639 76.4059 108.639 76.7144C108.639 76.9886 108.594 77.2335 108.506 77.4489C108.418 77.6644 108.296 77.8456 108.139 77.9925C107.963 78.1639 107.747 78.2961 107.493 78.3892C107.243 78.4773 106.961 78.5238 106.648 78.5287H104.995ZM112.693 76.1708V77.6326H115.139V82.6642H112.693V84.1187H119.245V82.6642H116.91V76.1708H112.693ZM114.978 74.1141C114.978 74.3002 115.022 74.4642 115.11 74.6062C115.203 74.7434 115.338 74.8389 115.514 74.8927C115.685 74.9466 115.842 74.9588 115.984 74.9294C116.126 74.9001 116.248 74.8389 116.351 74.7458C116.557 74.6919 116.714 74.5867 116.821 74.43C116.929 74.2684 116.966 74.0798 116.932 73.8644C116.907 73.6538 116.812 73.4824 116.645 73.3502C116.484 73.2131 116.271 73.1445 116.006 73.1445C115.849 73.1445 115.707 73.169 115.58 73.2179C115.458 73.262 115.352 73.3257 115.264 73.4089C115.171 73.4971 115.1 73.6024 115.051 73.7248C115.002 73.8423 114.978 73.9721 114.978 74.1141ZM121.324 84.1187H123.08V78.4479C123.158 78.3157 123.249 78.1933 123.352 78.0807C123.454 77.968 123.565 77.8725 123.682 77.7942C123.834 77.6914 124.003 77.613 124.189 77.5591C124.375 77.5004 124.576 77.471 124.791 77.471C125.051 77.471 125.281 77.5004 125.482 77.5591C125.683 77.613 125.854 77.706 125.996 77.8383C126.138 77.9705 126.246 78.1468 126.319 78.3671C126.393 78.5875 126.429 78.8617 126.429 79.1898V84.1187H128.185V79.1604C128.185 78.6022 128.119 78.1272 127.987 77.7354C127.854 77.3388 127.668 77.0131 127.428 76.7585C127.188 76.5038 126.899 76.3177 126.562 76.2002C126.224 76.0827 125.851 76.0239 125.445 76.0239C125.137 76.0239 124.843 76.068 124.564 76.1561C124.284 76.2443 124.027 76.3692 123.792 76.5308C123.645 76.6336 123.506 76.7511 123.374 76.8833C123.246 77.0107 123.129 77.1502 123.021 77.302L122.911 76.1708H121.324V84.1187ZM130.131 80.086V80.2402C130.131 80.8132 130.205 81.347 130.352 81.8416C130.504 82.3313 130.717 82.7548 130.991 83.1123C131.27 83.4747 131.605 83.7587 131.997 83.9644C132.389 84.1652 132.83 84.2656 133.319 84.2656C133.589 84.2656 133.838 84.2362 134.069 84.1774C134.299 84.1235 134.509 84.0427 134.7 83.935C134.828 83.8665 134.945 83.7857 135.053 83.6926C135.166 83.5996 135.273 83.4992 135.376 83.3914V83.9424C135.376 84.2411 135.332 84.508 135.244 84.743C135.161 84.9781 135.041 85.1764 134.884 85.338C134.713 85.5045 134.504 85.6318 134.26 85.72C134.02 85.8081 133.743 85.8522 133.43 85.8522C133.248 85.8522 133.07 85.8326 132.893 85.7934C132.717 85.7591 132.543 85.7028 132.372 85.6245C132.2 85.5461 132.031 85.4433 131.865 85.316C131.703 85.1935 131.552 85.0466 131.41 84.8752L130.58 85.9403C130.756 86.1754 130.966 86.3762 131.211 86.5427C131.456 86.7092 131.713 86.8438 131.982 86.9467C132.252 87.0495 132.521 87.1254 132.791 87.1744C133.06 87.2233 133.307 87.2478 133.532 87.2478C134.066 87.2478 134.553 87.1719 134.994 87.0201C135.44 86.8732 135.822 86.6577 136.14 86.3737C136.453 86.0848 136.696 85.7322 136.867 85.316C137.044 84.9046 137.132 84.4321 137.132 83.8983V76.1708H135.538L135.464 76.9715C135.366 76.854 135.261 76.7462 135.148 76.6483C135.036 76.5455 134.916 76.4573 134.788 76.3839C134.593 76.2663 134.375 76.1782 134.135 76.1194C133.895 76.0558 133.628 76.0239 133.334 76.0239C132.839 76.0239 132.394 76.1243 131.997 76.3251C131.605 76.521 131.27 76.7976 130.991 77.1551C130.712 77.5126 130.499 77.9411 130.352 78.4406C130.205 78.9352 130.131 79.4836 130.131 80.086ZM131.894 80.2402V80.086C131.894 79.7285 131.931 79.3931 132.005 79.0796C132.078 78.7613 132.193 78.4822 132.35 78.2423C132.502 78.0023 132.695 77.8138 132.93 77.6767C133.165 77.5395 133.447 77.471 133.775 77.471C133.961 77.471 134.132 77.493 134.289 77.5371C134.446 77.5763 134.588 77.6301 134.715 77.6987C134.857 77.7819 134.982 77.8823 135.09 77.9999C135.202 78.1174 135.298 78.2496 135.376 78.3965V81.8783C135.298 82.0203 135.207 82.1501 135.104 82.2676C135.001 82.3851 134.884 82.4855 134.752 82.5688C134.62 82.6471 134.47 82.7083 134.304 82.7524C134.142 82.7965 133.961 82.8185 133.76 82.8185C133.437 82.8185 133.158 82.7524 132.923 82.6202C132.688 82.4831 132.494 82.2945 132.342 82.0546C132.186 81.8244 132.071 81.5526 131.997 81.2392C131.929 80.9258 131.894 80.5928 131.894 80.2402Z" fill="white"/>
<path d="M281.854 72.2785V52.7775H276.735L263.644 73.2567L263.769 76.3161H276.88V83.0801H281.854V76.3161H285.663V72.2785H281.854ZM268.722 72.2785L276.298 60.5196L276.88 59.4374V72.2785H268.722ZM302.642 83.0801V52.7775H302.33L289.864 57.3978V61.7892L297.627 58.9379V83.0801H302.642ZM323.826 82.4349V78.2308H318.935V82.6222C318.935 83.9958 318.769 85.2307 318.436 86.3268C318.116 87.4229 317.659 88.4635 317.062 89.4486L319.851 90.9263C321.044 89.8579 322.001 88.5468 322.723 86.9928C323.458 85.4527 323.826 83.9334 323.826 82.4349ZM355.978 71.5293V64.3491C355.978 62.4066 355.749 60.6931 355.291 59.2085C354.833 57.71 354.188 56.4474 353.355 55.4206C352.495 54.4078 351.454 53.6447 350.233 53.1313C349.026 52.6041 347.653 52.3404 346.113 52.3404C344.586 52.3404 343.213 52.6041 341.992 53.1313C340.785 53.6447 339.758 54.4078 338.912 55.4206C338.065 56.4474 337.413 57.71 336.955 59.2085C336.511 60.6931 336.289 62.4066 336.289 64.3491V71.5293C336.289 73.4718 336.511 75.1922 336.955 76.6907C337.413 78.1753 338.072 79.4171 338.932 80.4161C339.779 81.4429 340.812 82.2198 342.033 82.7471C343.254 83.2605 344.628 83.5171 346.154 83.5171C347.694 83.5171 349.068 83.2605 350.275 82.7471C351.496 82.2198 352.523 81.4429 353.355 80.4161C354.202 79.4171 354.847 78.1753 355.291 76.6907C355.749 75.1922 355.978 73.4718 355.978 71.5293ZM341.284 69.7603C341.284 69.3579 341.284 69.018 341.284 68.7405C341.284 68.463 341.284 68.0606 341.284 67.5334V63.4542C341.284 62.2054 341.395 61.1232 341.617 60.2075C341.839 59.2778 342.179 58.5217 342.637 57.9389C343.025 57.4256 343.511 57.0371 344.094 56.7734C344.676 56.5098 345.349 56.378 346.113 56.378C346.82 56.378 347.451 56.489 348.006 56.711C348.575 56.933 349.054 57.266 349.442 57.71C349.886 58.2095 350.226 58.8547 350.462 59.6455C350.712 60.4364 350.865 61.3729 350.92 62.4552L341.284 69.7603ZM350.962 72.3618C350.962 73.6383 350.844 74.7483 350.608 75.6917C350.386 76.6352 350.046 77.3983 349.588 77.9811C349.186 78.4806 348.7 78.8621 348.131 79.1258C347.562 79.3755 346.903 79.5004 346.154 79.5004C345.391 79.5004 344.718 79.3686 344.135 79.1049C343.567 78.8413 343.088 78.4459 342.699 77.9186C342.311 77.433 341.999 76.8225 341.763 76.0872C341.541 75.3518 341.395 74.5054 341.326 73.5481L350.962 66.2846C350.962 66.687 350.962 67.0755 350.962 67.4501C350.962 67.8247 350.962 68.1855 350.962 68.5323V72.3618ZM379.658 71.5293V64.3491C379.658 62.4066 379.43 60.6931 378.972 59.2085C378.514 57.71 377.869 56.4474 377.036 55.4206C376.176 54.4078 375.135 53.6447 373.914 53.1313C372.707 52.6041 371.334 52.3404 369.794 52.3404C368.267 52.3404 366.894 52.6041 365.673 53.1313C364.466 53.6447 363.439 54.4078 362.592 55.4206C361.746 56.4474 361.094 57.71 360.636 59.2085C360.192 60.6931 359.97 62.4066 359.97 64.3491V71.5293C359.97 73.4718 360.192 75.1922 360.636 76.6907C361.094 78.1753 361.753 79.4171 362.613 80.4161C363.46 81.4429 364.493 82.2198 365.714 82.7471C366.935 83.2605 368.309 83.5171 369.835 83.5171C371.375 83.5171 372.749 83.2605 373.956 82.7471C375.177 82.2198 376.204 81.4429 377.036 80.4161C377.883 79.4171 378.528 78.1753 378.972 76.6907C379.43 75.1922 379.658 73.4718 379.658 71.5293ZM364.965 69.7603C364.965 69.3579 364.965 69.018 364.965 68.7405C364.965 68.463 364.965 68.0606 364.965 67.5334V63.4542C364.965 62.2054 365.076 61.1232 365.298 60.2075C365.52 59.2778 365.86 58.5217 366.318 57.9389C366.706 57.4256 367.192 57.0371 367.775 56.7734C368.357 56.5098 369.03 56.378 369.794 56.378C370.501 56.378 371.132 56.489 371.687 56.711C372.256 56.933 372.735 57.266 373.123 57.71C373.567 58.2095 373.907 58.8547 374.143 59.6455C374.393 60.4364 374.546 61.3729 374.601 62.4552L364.965 69.7603ZM374.643 72.3618C374.643 73.6383 374.525 74.7483 374.289 75.6917C374.067 76.6352 373.727 77.3983 373.269 77.9811C372.867 78.4806 372.381 78.8621 371.812 79.1258C371.243 79.3755 370.584 79.5004 369.835 79.5004C369.072 79.5004 368.399 79.3686 367.816 79.1049C367.247 78.8413 366.769 78.4459 366.38 77.9186C365.992 77.433 365.68 76.8225 365.444 76.0872C365.222 75.3518 365.076 74.5054 365.007 73.5481L374.643 66.2846C374.643 66.687 374.643 67.0755 374.643 67.4501C374.643 67.8247 374.643 68.1855 374.643 68.5323V72.3618ZM403.339 71.5293V64.3491C403.339 62.4066 403.111 60.6931 402.653 59.2085C402.195 57.71 401.55 56.4474 400.717 55.4206C399.857 54.4078 398.816 53.6447 397.595 53.1313C396.388 52.6041 395.015 52.3404 393.474 52.3404C391.948 52.3404 390.575 52.6041 389.354 53.1313C388.147 53.6447 387.12 54.4078 386.273 55.4206C385.427 56.4474 384.775 57.71 384.317 59.2085C383.873 60.6931 383.651 62.4066 383.651 64.3491V71.5293C383.651 73.4718 383.873 75.1922 384.317 76.6907C384.775 78.1753 385.434 79.4171 386.294 80.4161C387.141 81.4429 388.174 82.2198 389.395 82.7471C390.616 83.2605 391.99 83.5171 393.516 83.5171C395.056 83.5171 396.43 83.2605 397.637 82.7471C398.858 82.2198 399.885 81.4429 400.717 80.4161C401.563 79.4171 402.209 78.1753 402.653 76.6907C403.111 75.1922 403.339 73.4718 403.339 71.5293ZM388.646 69.7603C388.646 69.3579 388.646 69.018 388.646 68.7405C388.646 68.463 388.646 68.0606 388.646 67.5334V63.4542C388.646 62.2054 388.757 61.1232 388.979 60.2075C389.201 59.2778 389.541 58.5217 389.999 57.9389C390.387 57.4256 390.873 57.0371 391.456 56.7734C392.038 56.5098 392.711 56.378 393.474 56.378C394.182 56.378 394.813 56.489 395.368 56.711C395.937 56.933 396.416 57.266 396.804 57.71C397.248 58.2095 397.588 58.8547 397.824 59.6455C398.074 60.4364 398.227 61.3729 398.282 62.4552L388.646 69.7603ZM398.324 72.3618C398.324 73.6383 398.206 74.7483 397.97 75.6917C397.748 76.6352 397.408 77.3983 396.95 77.9811C396.548 78.4806 396.062 78.8621 395.493 79.1258C394.924 79.3755 394.265 79.5004 393.516 79.5004C392.753 79.5004 392.08 79.3686 391.497 79.1049C390.928 78.8413 390.45 78.4459 390.061 77.9186C389.673 77.433 389.361 76.8225 389.125 76.0872C388.903 75.3518 388.757 74.5054 388.688 73.5481L398.324 66.2846C398.324 66.687 398.324 67.0755 398.324 67.4501C398.324 67.8247 398.324 68.1855 398.324 68.5323V72.3618Z" fill="#8EFE1C"/>
<path d="M431.62 53.4236H429.879L429.864 60.5781C429.855 60.9111 429.811 61.2172 429.732 61.4963C429.654 61.7705 429.539 62.008 429.387 62.2088C429.235 62.4047 429.047 62.5565 428.821 62.6642C428.601 62.7671 428.346 62.8185 428.057 62.8185C427.773 62.8185 427.524 62.7671 427.308 62.6642C427.098 62.5565 426.919 62.4096 426.772 62.2235C426.62 62.0276 426.505 61.7901 426.427 61.511C426.348 61.227 426.307 60.916 426.302 60.5781L426.287 53.4236H424.546L424.532 60.5781C424.536 61.1315 424.622 61.6359 424.789 62.0913C424.96 62.5467 425.2 62.936 425.509 63.2592C425.812 63.5824 426.179 63.8322 426.61 64.0085C427.041 64.1799 427.524 64.2656 428.057 64.2656C428.601 64.2656 429.091 64.1774 429.527 64.0011C429.967 63.8248 430.344 63.5751 430.658 63.2519C430.966 62.9287 431.204 62.5418 431.37 62.0913C431.542 61.6359 431.627 61.1315 431.627 60.5781L431.62 53.4236ZM433.743 64.1187H435.498V58.4479C435.577 58.3157 435.667 58.1933 435.77 58.0807C435.873 57.968 435.983 57.8725 436.101 57.7942C436.253 57.6914 436.421 57.613 436.608 57.5591C436.794 57.5004 436.994 57.471 437.21 57.471C437.469 57.471 437.7 57.5004 437.9 57.5591C438.101 57.613 438.273 57.706 438.415 57.8383C438.557 57.9705 438.664 58.1468 438.738 58.3671C438.811 58.5875 438.848 58.8617 438.848 59.1898V64.1187H440.604V59.1604C440.604 58.6022 440.537 58.1272 440.405 57.7354C440.273 57.3388 440.087 57.0131 439.847 56.7585C439.607 56.5038 439.318 56.3177 438.98 56.2002C438.642 56.0827 438.27 56.0239 437.864 56.0239C437.555 56.0239 437.261 56.068 436.982 56.1561C436.703 56.2443 436.446 56.3692 436.211 56.5308C436.064 56.6336 435.924 56.7511 435.792 56.8833C435.665 57.0107 435.547 57.1502 435.44 57.302L435.329 56.1708H433.743V64.1187ZM443.182 56.1708V57.6326H445.628V62.6642H443.182V64.1187H449.734V62.6642H447.398V56.1708H443.182ZM445.466 54.1141C445.466 54.3002 445.51 54.4642 445.598 54.6062C445.691 54.7434 445.826 54.8389 446.002 54.8927C446.174 54.9466 446.331 54.9588 446.473 54.9294C446.615 54.9001 446.737 54.8389 446.84 54.7458C447.046 54.6919 447.202 54.5867 447.31 54.43C447.418 54.2684 447.454 54.0798 447.42 53.8644C447.396 53.6538 447.3 53.4824 447.134 53.3502C446.972 53.2131 446.759 53.1445 446.495 53.1445C446.338 53.1445 446.196 53.169 446.069 53.2179C445.946 53.262 445.841 53.3257 445.753 53.4089C445.66 53.4971 445.589 53.6024 445.54 53.7248C445.491 53.8423 445.466 53.9721 445.466 54.1141ZM451.585 60.0786V60.2329C451.585 60.8058 451.656 61.3396 451.798 61.8342C451.94 62.3239 452.146 62.7499 452.415 63.1123C452.684 63.4747 453.013 63.7587 453.399 63.9644C453.791 64.1652 454.239 64.2656 454.744 64.2656C454.988 64.2656 455.216 64.2411 455.427 64.1921C455.637 64.148 455.833 64.0819 456.014 63.9938C456.156 63.9252 456.289 63.8444 456.411 63.7514C456.538 63.6534 456.656 63.5433 456.764 63.4208V67.1744H458.527V56.1708H456.955L456.859 56.9715C456.756 56.8491 456.646 56.7364 456.529 56.6336C456.411 56.5308 456.286 56.4426 456.154 56.3692C455.958 56.2565 455.743 56.1708 455.508 56.1121C455.277 56.0533 455.028 56.0239 454.758 56.0239C454.249 56.0239 453.796 56.1243 453.399 56.3251C453.008 56.521 452.68 56.7952 452.415 57.1478C452.141 57.5053 451.933 57.9338 451.791 58.4332C451.654 58.9327 451.585 59.4812 451.585 60.0786ZM453.341 60.2329V60.0786C453.341 59.7212 453.375 59.3833 453.443 59.065C453.517 58.7467 453.632 58.4675 453.789 58.2276C453.936 57.9925 454.124 57.804 454.354 57.662C454.589 57.52 454.871 57.4489 455.199 57.4489C455.385 57.4489 455.556 57.471 455.713 57.5151C455.875 57.5542 456.019 57.613 456.147 57.6914C456.279 57.7697 456.394 57.8627 456.492 57.9705C456.595 58.0782 456.685 58.1982 456.764 58.3304V61.9444C456.685 62.0815 456.595 62.2088 456.492 62.3264C456.389 62.439 456.271 62.5345 456.139 62.6128C456.007 62.6863 455.863 62.745 455.706 62.7891C455.549 62.8283 455.375 62.8479 455.184 62.8479C454.856 62.8479 454.575 62.7793 454.34 62.6422C454.109 62.5002 453.921 62.3092 453.774 62.0693C453.627 61.8293 453.517 61.5526 453.443 61.2392C453.375 60.9209 453.341 60.5855 453.341 60.2329ZM466.056 64.1187H467.65V56.1708H465.887V61.7975C465.818 61.9444 465.735 62.0791 465.637 62.2015C465.539 62.319 465.426 62.4218 465.299 62.51C465.147 62.6079 464.971 62.6863 464.77 62.745C464.569 62.7989 464.342 62.8258 464.087 62.8258C463.842 62.8258 463.629 62.794 463.448 62.7304C463.267 62.6667 463.117 62.559 463 62.4072C462.882 62.2602 462.797 62.0644 462.743 61.8195C462.689 61.5698 462.662 61.2613 462.662 60.894V56.1708H460.906V60.8793C460.906 61.4767 460.973 61.9909 461.105 62.4218C461.237 62.8479 461.423 63.198 461.663 63.4722C461.908 63.7465 462.199 63.9497 462.537 64.0819C462.88 64.2092 463.257 64.2729 463.668 64.2729C464.148 64.2729 464.582 64.1627 464.969 63.9424C465.355 63.7171 465.683 63.4061 465.953 63.0095L466.056 64.1187ZM473.592 64.2656C474.366 64.2656 475.024 64.1138 475.568 63.8101C476.117 63.5065 476.523 63.1637 476.787 62.7818L475.847 61.8709C475.602 62.1843 475.291 62.4267 474.914 62.5981C474.537 62.7646 474.131 62.8479 473.695 62.8479C473.377 62.8479 473.083 62.794 472.813 62.6863C472.549 62.5785 472.319 62.4267 472.123 62.2309C471.927 62.0448 471.773 61.8342 471.66 61.5992C471.548 61.3641 471.464 61.0727 471.41 60.725V60.6883H476.92V59.9317C476.92 59.3637 476.844 58.8397 476.692 58.3598C476.54 57.8799 476.315 57.4661 476.016 57.1184C475.717 56.7756 475.348 56.5087 474.907 56.3177C474.466 56.1219 473.959 56.0239 473.386 56.0239C472.872 56.0239 472.387 56.1219 471.932 56.3177C471.482 56.5087 471.085 56.783 470.742 57.1404C470.399 57.4979 470.13 57.9289 469.934 58.4332C469.738 58.9376 469.64 59.5008 469.64 60.1227V60.4239C469.64 60.9674 469.733 61.4743 469.919 61.9444C470.11 62.4096 470.38 62.8136 470.727 63.1564C471.075 63.5041 471.491 63.7759 471.976 63.9717C472.466 64.1676 473.004 64.2656 473.592 64.2656ZM473.379 57.4489C473.673 57.4489 473.93 57.5004 474.15 57.6032C474.376 57.7011 474.562 57.8334 474.709 57.9999C474.86 58.1713 474.978 58.372 475.061 58.6022C475.144 58.8275 475.186 59.0552 475.186 59.2853V59.4028H471.447C471.501 59.0992 471.584 58.8275 471.697 58.5875C471.81 58.3475 471.949 58.1419 472.116 57.9705C472.282 57.804 472.471 57.6767 472.681 57.5885C472.897 57.4955 473.129 57.4489 473.379 57.4489ZM430.239 81.3641C430.239 81.5992 430.188 81.8073 430.085 81.9885C429.987 82.1696 429.855 82.3215 429.688 82.4439C429.517 82.5712 429.314 82.6667 429.078 82.7304C428.848 82.794 428.599 82.8258 428.329 82.8258C428.011 82.8258 427.717 82.7867 427.448 82.7083C427.183 82.63 426.953 82.51 426.757 82.3484C426.557 82.1917 426.397 81.9934 426.28 81.7534C426.167 81.5086 426.099 81.2221 426.074 80.894H424.311C424.316 81.4082 424.419 81.8636 424.62 82.2602C424.825 82.6569 425.102 83.0021 425.45 83.296C425.827 83.6094 426.27 83.8493 426.779 84.0158C427.289 84.1774 427.805 84.2582 428.329 84.2582C428.824 84.2582 429.294 84.197 429.74 84.0746C430.185 83.9473 430.577 83.7587 430.915 83.509C431.248 83.269 431.512 82.9679 431.708 82.6055C431.909 82.2431 432.009 81.8244 432.009 81.3494C432.009 80.8352 431.894 80.3822 431.664 79.9905C431.439 79.5938 431.138 79.2535 430.761 78.9695C430.457 78.7442 430.124 78.5532 429.762 78.3965C429.404 78.2349 429.037 78.1002 428.66 77.9925C428.361 77.9044 428.075 77.8089 427.8 77.706C427.531 77.6032 427.291 77.4832 427.08 77.3461C426.875 77.209 426.711 77.0498 426.588 76.8687C426.466 76.6826 426.402 76.4671 426.397 76.2223C426.397 75.9921 426.444 75.784 426.537 75.5979C426.63 75.4118 426.76 75.2526 426.926 75.1204C427.093 74.9931 427.289 74.8952 427.514 74.8266C427.744 74.7532 427.994 74.7164 428.263 74.7164C428.572 74.7164 428.843 74.7629 429.078 74.856C429.318 74.9441 429.522 75.0666 429.688 75.2233C429.85 75.3849 429.975 75.5783 430.063 75.8036C430.156 76.0239 430.215 76.2688 430.239 76.5381H431.987C431.987 76.0533 431.889 75.6126 431.693 75.2159C431.502 74.8144 431.24 74.4691 430.907 74.1802C430.574 73.8962 430.183 73.6758 429.732 73.5191C429.287 73.3575 428.804 73.2767 428.285 73.2767C427.795 73.2767 427.328 73.3453 426.882 73.4824C426.441 73.6146 426.055 73.808 425.722 74.0627C425.389 74.3222 425.124 74.6356 424.928 75.0029C424.732 75.3653 424.634 75.7742 424.634 76.2296C424.634 76.6507 424.718 77.0303 424.884 77.3681C425.056 77.7011 425.291 77.9999 425.589 78.2643C425.888 78.5238 426.248 78.7589 426.669 78.9695C427.095 79.1751 427.56 79.349 428.065 79.491C428.393 79.584 428.689 79.6893 428.954 79.8069C429.223 79.9195 429.456 80.0468 429.651 80.1888C429.837 80.3406 429.982 80.512 430.085 80.703C430.188 80.894 430.239 81.1143 430.239 81.3641ZM438.951 84.1187H440.545V76.1708H438.782V81.7975C438.713 81.9444 438.63 82.0791 438.532 82.2015C438.434 82.319 438.322 82.4218 438.194 82.51C438.042 82.6079 437.866 82.6863 437.665 82.745C437.465 82.7989 437.237 82.8258 436.982 82.8258C436.737 82.8258 436.524 82.794 436.343 82.7304C436.162 82.6667 436.013 82.559 435.895 82.4072C435.778 82.2602 435.692 82.0644 435.638 81.8195C435.584 81.5698 435.557 81.2613 435.557 80.894V76.1708H433.802V80.8793C433.802 81.4767 433.868 81.9909 434 82.4218C434.132 82.8479 434.318 83.198 434.558 83.4722C434.803 83.7465 435.094 83.9497 435.432 84.0819C435.775 84.2092 436.152 84.2729 436.564 84.2729C437.043 84.2729 437.477 84.1627 437.864 83.9424C438.251 83.7171 438.579 83.4061 438.848 83.0095L438.951 84.1187ZM442.792 87.1744H444.548V83.3988C444.641 83.5016 444.741 83.5971 444.849 83.6853C444.957 83.7734 445.07 83.8518 445.187 83.9203C445.388 84.033 445.606 84.1187 445.841 84.1774C446.081 84.2362 446.343 84.2656 446.627 84.2656C447.126 84.2656 447.569 84.1627 447.956 83.9571C448.343 83.7514 448.669 83.4674 448.933 83.105C449.198 82.7475 449.396 82.3215 449.528 81.8269C449.665 81.3323 449.734 80.7985 449.734 80.2255V80.0713C449.734 79.4739 449.665 78.9278 449.528 78.4332C449.391 77.9338 449.193 77.5053 448.933 77.1478C448.669 76.7903 448.341 76.5136 447.949 76.3177C447.562 76.1219 447.114 76.0239 446.605 76.0239C446.345 76.0239 446.1 76.0533 445.87 76.1121C445.64 76.1659 445.43 76.2443 445.239 76.3471C445.092 76.4255 444.954 76.5185 444.827 76.6263C444.7 76.734 444.582 76.854 444.475 76.9862L444.408 76.1708H442.792V87.1744ZM447.978 80.0713V80.2255C447.978 80.5781 447.944 80.9136 447.876 81.2319C447.807 81.5453 447.697 81.8244 447.545 82.0693C447.398 82.3092 447.207 82.5002 446.972 82.6422C446.742 82.7793 446.463 82.8479 446.135 82.8479C445.934 82.8479 445.75 82.8258 445.584 82.7818C445.417 82.7328 445.268 82.6691 445.136 82.5908C445.008 82.5075 444.896 82.4096 444.798 82.297C444.7 82.1843 444.617 82.0595 444.548 81.9224V78.3892C444.626 78.2423 444.717 78.11 444.82 77.9925C444.928 77.875 445.052 77.777 445.194 77.6987C445.317 77.6252 445.456 77.5689 445.613 77.5297C445.77 77.4906 445.939 77.471 446.12 77.471C446.448 77.471 446.73 77.5395 446.965 77.6767C447.2 77.8138 447.393 77.9999 447.545 78.2349C447.692 78.47 447.8 78.7467 447.868 79.065C447.942 79.3784 447.978 79.7138 447.978 80.0713ZM455.522 84.2656C456.296 84.2656 456.955 84.1138 457.498 83.8101C458.047 83.5065 458.453 83.1637 458.717 82.7818L457.777 81.8709C457.532 82.1843 457.221 82.4267 456.844 82.5981C456.467 82.7646 456.061 82.8479 455.625 82.8479C455.307 82.8479 455.013 82.794 454.744 82.6863C454.479 82.5785 454.249 82.4267 454.053 82.2309C453.857 82.0448 453.703 81.8342 453.59 81.5992C453.478 81.3641 453.394 81.0727 453.341 80.725V80.6883H458.85V79.9317C458.85 79.3637 458.774 78.8397 458.622 78.3598C458.47 77.8799 458.245 77.4661 457.946 77.1184C457.648 76.7756 457.278 76.5087 456.837 76.3177C456.396 76.1219 455.889 76.0239 455.317 76.0239C454.802 76.0239 454.318 76.1219 453.862 76.3177C453.412 76.5087 453.015 76.783 452.672 77.1404C452.329 77.4979 452.06 77.9289 451.864 78.4332C451.668 78.9376 451.57 79.5008 451.57 80.1227V80.4239C451.57 80.9674 451.663 81.4743 451.849 81.9444C452.04 82.4096 452.31 82.8136 452.657 83.1564C453.005 83.5041 453.421 83.7759 453.906 83.9717C454.396 84.1676 454.935 84.2656 455.522 84.2656ZM455.309 77.4489C455.603 77.4489 455.86 77.5004 456.08 77.6032C456.306 77.7011 456.492 77.8334 456.639 77.9999C456.791 78.1713 456.908 78.372 456.991 78.6022C457.075 78.8275 457.116 79.0552 457.116 79.2853V79.4028H453.377C453.431 79.0992 453.514 78.8275 453.627 78.5875C453.74 78.3475 453.879 78.1419 454.046 77.9705C454.212 77.804 454.401 77.6767 454.611 77.5885C454.827 77.4955 455.059 77.4489 455.309 77.4489ZM466.342 76.0239C465.794 76.0239 465.292 76.1512 464.836 76.4059C464.386 76.6605 463.999 77.0107 463.676 77.4563L463.668 77.2727L463.595 76.1708H461.95V84.1187H463.705V79.2119C463.798 78.9768 463.913 78.7687 464.05 78.5875C464.187 78.4063 464.354 78.257 464.55 78.1394C464.731 78.017 464.939 77.9264 465.174 77.8676C465.409 77.8089 465.674 77.7795 465.967 77.7795C466.227 77.7795 466.487 77.7942 466.746 77.8236C467.011 77.853 467.277 77.897 467.547 77.9558L467.797 76.2223C467.645 76.1684 467.434 76.1219 467.165 76.0827C466.9 76.0435 466.626 76.0239 466.342 76.0239ZM470.544 84.1187H472.035L473.041 79.6085L473.217 78.6242L473.401 79.6085L474.429 84.1187H475.921L477.456 76.1708H475.862L475.149 81.0189L475.01 81.9885L474.841 81.0262L473.805 76.1708H472.652L471.616 81.0409L471.455 81.9591L471.33 81.0409L470.595 76.1708H469.009L470.544 84.1187ZM482.627 84.2656C483.401 84.2656 484.059 84.1138 484.603 83.8101C485.151 83.5065 485.558 83.1637 485.822 82.7818L484.882 81.8709C484.637 82.1843 484.326 82.4267 483.949 82.5981C483.572 82.7646 483.166 82.8479 482.73 82.8479C482.412 82.8479 482.118 82.794 481.848 82.6863C481.584 82.5785 481.354 82.4267 481.158 82.2309C480.962 82.0448 480.808 81.8342 480.695 81.5992C480.583 81.3641 480.499 81.0727 480.445 80.725V80.6883H485.955V79.9317C485.955 79.3637 485.879 78.8397 485.727 78.3598C485.575 77.8799 485.35 77.4661 485.051 77.1184C484.752 76.7756 484.383 76.5087 483.942 76.3177C483.501 76.1219 482.994 76.0239 482.421 76.0239C481.907 76.0239 481.422 76.1219 480.967 76.3177C480.516 76.5087 480.12 76.783 479.777 77.1404C479.434 77.4979 479.165 77.9289 478.969 78.4332C478.773 78.9376 478.675 79.5008 478.675 80.1227V80.4239C478.675 80.9674 478.768 81.4743 478.954 81.9444C479.145 82.4096 479.415 82.8136 479.762 83.1564C480.11 83.5041 480.526 83.7759 481.011 83.9717C481.501 84.1676 482.039 84.2656 482.627 84.2656ZM482.414 77.4489C482.708 77.4489 482.965 77.5004 483.185 77.6032C483.411 77.7011 483.597 77.8334 483.744 77.9999C483.895 78.1713 484.013 78.372 484.096 78.6022C484.179 78.8275 484.221 79.0552 484.221 79.2853V79.4028H480.482C480.536 79.0992 480.619 78.8275 480.732 78.5875C480.845 78.3475 480.984 78.1419 481.151 77.9705C481.317 77.804 481.506 77.6767 481.716 77.5885C481.932 77.4955 482.164 77.4489 482.414 77.4489ZM493.028 84.1187H494.821V83.9938C494.723 83.7881 494.647 83.5433 494.593 83.2592C494.544 82.9703 494.519 82.6471 494.519 82.2896V78.7564C494.519 78.3059 494.436 77.9093 494.27 77.5665C494.103 77.2188 493.873 76.9323 493.579 76.7071C493.285 76.4818 492.935 76.3128 492.529 76.2002C492.127 76.0827 491.694 76.0239 491.229 76.0239C490.71 76.0239 490.247 76.0925 489.84 76.2296C489.439 76.3618 489.101 76.543 488.827 76.7732C488.543 76.9984 488.327 77.258 488.18 77.5518C488.033 77.8456 487.957 78.1517 487.953 78.47H489.715C489.715 78.3182 489.742 78.1762 489.796 78.0439C489.855 77.9068 489.943 77.7917 490.061 77.6987C490.178 77.5959 490.325 77.5151 490.501 77.4563C490.683 77.3975 490.893 77.3681 491.133 77.3681C491.398 77.3681 491.63 77.4024 491.831 77.471C492.037 77.5346 492.21 77.6277 492.352 77.7501C492.485 77.8725 492.585 78.017 492.654 78.1835C492.727 78.35 492.764 78.5361 492.764 78.7418V79.278H491.486C490.913 79.278 490.399 79.3318 489.943 79.4396C489.493 79.5473 489.113 79.704 488.805 79.9097C488.472 80.1301 488.217 80.4092 488.041 80.7471C487.869 81.0801 487.784 81.4645 487.784 81.9003C487.784 82.2382 487.85 82.5541 487.982 82.8479C488.119 83.1368 488.31 83.3841 488.555 83.5898C488.795 83.8003 489.084 83.9668 489.422 84.0893C489.764 84.2068 490.141 84.2656 490.553 84.2656C490.807 84.2656 491.045 84.2411 491.265 84.1921C491.486 84.1431 491.691 84.0746 491.882 83.9864C492.073 83.9032 492.245 83.8052 492.397 83.6926C492.553 83.5751 492.693 83.4527 492.815 83.3253C492.84 83.4771 492.867 83.6241 492.896 83.7661C492.93 83.9032 492.974 84.0207 493.028 84.1187ZM490.891 82.8552C490.665 82.8552 490.47 82.8283 490.303 82.7744C490.137 82.7157 489.997 82.6373 489.884 82.5394C489.772 82.4414 489.686 82.3239 489.627 82.1868C489.569 82.0448 489.539 81.893 489.539 81.7314C489.539 81.5355 489.573 81.3592 489.642 81.2025C489.715 81.0458 489.826 80.9111 489.973 80.7985C490.139 80.6663 490.362 80.5659 490.641 80.4973C490.92 80.4239 491.251 80.3871 491.633 80.3871H492.764V81.8562C492.7 81.9836 492.61 82.106 492.492 82.2235C492.375 82.341 492.235 82.4463 492.073 82.5394C491.912 82.6324 491.731 82.7083 491.53 82.7671C491.334 82.8258 491.121 82.8552 490.891 82.8552ZM497.002 87.1744H498.758V83.3988C498.851 83.5016 498.951 83.5971 499.059 83.6853C499.167 83.7734 499.279 83.8518 499.397 83.9203C499.598 84.033 499.816 84.1187 500.051 84.1774C500.291 84.2362 500.552 84.2656 500.837 84.2656C501.336 84.2656 501.779 84.1627 502.166 83.9571C502.553 83.7514 502.879 83.4674 503.143 83.105C503.407 82.7475 503.606 82.3215 503.738 81.8269C503.875 81.3323 503.944 80.7985 503.944 80.2255V80.0713C503.944 79.4739 503.875 78.9278 503.738 78.4332C503.601 77.9338 503.403 77.5053 503.143 77.1478C502.879 76.7903 502.55 76.5136 502.159 76.3177C501.772 76.1219 501.324 76.0239 500.814 76.0239C500.555 76.0239 500.31 76.0533 500.08 76.1121C499.85 76.1659 499.639 76.2443 499.448 76.3471C499.301 76.4255 499.164 76.5185 499.037 76.6263C498.91 76.734 498.792 76.854 498.684 76.9862L498.618 76.1708H497.002V87.1744ZM502.188 80.0713V80.2255C502.188 80.5781 502.154 80.9136 502.085 81.2319C502.017 81.5453 501.907 81.8244 501.755 82.0693C501.608 82.3092 501.417 82.5002 501.182 82.6422C500.952 82.7793 500.672 82.8479 500.344 82.8479C500.144 82.8479 499.96 82.8258 499.793 82.7818C499.627 82.7328 499.478 82.6691 499.345 82.5908C499.218 82.5075 499.105 82.4096 499.007 82.297C498.91 82.1843 498.826 82.0595 498.758 81.9224V78.3892C498.836 78.2423 498.927 78.11 499.03 77.9925C499.137 77.875 499.262 77.777 499.404 77.6987C499.527 77.6252 499.666 77.5689 499.823 77.5297C499.98 77.4906 500.148 77.471 500.33 77.471C500.658 77.471 500.939 77.5395 501.174 77.6767C501.409 77.8138 501.603 77.9999 501.755 78.2349C501.902 78.47 502.009 78.7467 502.078 79.065C502.151 79.3784 502.188 79.7138 502.188 80.0713ZM505.699 80.0713V80.2255C505.699 80.8083 505.782 81.3445 505.949 81.8342C506.115 82.3239 506.358 82.7499 506.676 83.1123C506.99 83.4747 507.376 83.7587 507.837 83.9644C508.297 84.1701 508.819 84.2729 509.401 84.2729C509.979 84.2729 510.496 84.1701 510.951 83.9644C511.412 83.7587 511.798 83.4747 512.112 83.1123C512.425 82.7499 512.665 82.3239 512.832 81.8342C512.998 81.3445 513.081 80.8083 513.081 80.2255V80.0713C513.081 79.4934 512.998 78.9597 512.832 78.47C512.665 77.9754 512.425 77.5469 512.112 77.1845C511.794 76.8221 511.404 76.5381 510.944 76.3324C510.488 76.1268 509.969 76.0239 509.387 76.0239C508.804 76.0239 508.285 76.1268 507.829 76.3324C507.374 76.5381 506.99 76.8221 506.676 77.1845C506.358 77.5469 506.115 77.9754 505.949 78.47C505.782 78.9597 505.699 79.4934 505.699 80.0713ZM507.455 80.2255V80.0713C507.455 79.7236 507.492 79.3906 507.565 79.0723C507.643 78.754 507.763 78.4749 507.925 78.2349C508.082 77.995 508.28 77.804 508.52 77.662C508.765 77.52 509.054 77.4489 509.387 77.4489C509.725 77.4489 510.013 77.52 510.253 77.662C510.498 77.804 510.702 77.995 510.863 78.2349C511.015 78.4749 511.13 78.754 511.208 79.0723C511.287 79.3906 511.326 79.7236 511.326 80.0713V80.2255C511.326 80.583 511.287 80.9209 511.208 81.2392C511.135 81.5575 511.02 81.8367 510.863 82.0766C510.706 82.3166 510.506 82.5075 510.261 82.6496C510.016 82.7867 509.729 82.8552 509.401 82.8552C509.063 82.8552 508.772 82.7867 508.527 82.6496C508.282 82.5075 508.082 82.3166 507.925 82.0766C507.763 81.8367 507.643 81.5575 507.565 81.2392C507.492 80.9209 507.455 80.583 507.455 80.2255ZM515.057 84.1187H516.813V78.4479C516.891 78.3157 516.982 78.1933 517.085 78.0807C517.188 77.968 517.298 77.8725 517.415 77.7942C517.567 77.6914 517.736 77.613 517.922 77.5591C518.108 77.5004 518.309 77.471 518.524 77.471C518.784 77.471 519.014 77.5004 519.215 77.5591C519.416 77.613 519.587 77.706 519.729 77.8383C519.871 77.9705 519.979 78.1468 520.052 78.3671C520.126 78.5875 520.163 78.8617 520.163 79.1898V84.1187H521.918V79.1604C521.918 78.6022 521.852 78.1272 521.72 77.7354C521.588 77.3388 521.401 77.0131 521.161 76.7585C520.922 76.5038 520.633 76.3177 520.295 76.2002C519.957 76.0827 519.585 76.0239 519.178 76.0239C518.87 76.0239 518.576 76.068 518.297 76.1561C518.018 76.2443 517.761 76.3692 517.525 76.5308C517.379 76.6336 517.239 76.7511 517.107 76.8833C516.979 77.0107 516.862 77.1502 516.754 77.302L516.644 76.1708H515.057V84.1187ZM529.286 81.9664C529.286 82.0937 529.256 82.2113 529.197 82.319C529.144 82.4218 529.06 82.5173 528.948 82.6055C528.811 82.7132 528.627 82.7989 528.397 82.8626C528.172 82.9262 527.907 82.9581 527.603 82.9581C527.378 82.9581 527.155 82.936 526.935 82.892C526.715 82.843 526.519 82.7646 526.347 82.6569C526.171 82.5541 526.024 82.4194 525.907 82.2529C525.794 82.0815 525.73 81.8734 525.716 81.6285H524.012C524.012 81.9566 524.09 82.2798 524.247 82.5981C524.403 82.9164 524.633 83.198 524.937 83.4429C525.236 83.6926 525.606 83.8934 526.046 84.0452C526.492 84.197 527.001 84.2729 527.574 84.2729C528.088 84.2729 528.556 84.2141 528.977 84.0966C529.398 83.9791 529.761 83.815 530.064 83.6045C530.363 83.3939 530.593 83.1417 530.755 82.8479C530.921 82.5541 531.004 82.2309 531.004 81.8783C531.004 81.5159 530.926 81.2025 530.769 80.9381C530.613 80.6736 530.392 80.4435 530.108 80.2476C529.824 80.0615 529.481 79.9048 529.08 79.7775C528.678 79.6501 528.235 79.5424 527.75 79.4543C527.403 79.3955 527.114 79.3294 526.884 79.2559C526.658 79.1825 526.482 79.1017 526.355 79.0135C526.218 78.9303 526.122 78.8348 526.068 78.7271C526.014 78.6144 525.987 78.4896 525.987 78.3524C525.987 78.2202 526.019 78.0954 526.083 77.9778C526.147 77.8554 526.242 77.7501 526.369 77.662C526.497 77.564 526.658 77.4881 526.854 77.4343C527.055 77.3755 527.288 77.3461 527.552 77.3461C527.841 77.3461 528.093 77.3853 528.309 77.4636C528.524 77.5371 528.7 77.6375 528.838 77.7648C528.955 77.8725 529.043 77.995 529.102 78.1321C529.166 78.2643 529.197 78.4039 529.197 78.5508H530.953C530.953 78.1933 530.875 77.8603 530.718 77.5518C530.561 77.2433 530.338 76.9764 530.05 76.7511C529.756 76.5259 529.398 76.3496 528.977 76.2223C528.556 76.09 528.081 76.0239 527.552 76.0239C527.057 76.0239 526.607 76.0876 526.2 76.2149C525.799 76.3422 525.456 76.5161 525.172 76.7364C524.883 76.9568 524.66 77.2139 524.504 77.5077C524.352 77.7966 524.276 78.1027 524.276 78.4259C524.276 78.7638 524.352 79.0601 524.504 79.3147C524.655 79.5693 524.866 79.7897 525.135 79.9758C525.41 80.1717 525.735 80.3382 526.112 80.4753C526.494 80.6124 526.915 80.7275 527.376 80.8205C527.743 80.8891 528.049 80.9625 528.294 81.0409C528.539 81.1192 528.737 81.2025 528.889 81.2906C529.031 81.3886 529.131 81.4914 529.19 81.5992C529.254 81.7069 529.286 81.8293 529.286 81.9664Z" fill="white"/>
<path fill-rule="evenodd" clip-rule="evenodd" d="M667.503 53.3067C661.589 54.1094 656.702 58.1096 654.885 63.6342C654.476 64.8782 654.094 67.1129 654.094 68.2619C654.094 70.0794 654.596 72.6902 655.272 74.3849C656.577 77.6568 658.912 80.2266 661.962 81.7487C663.683 82.6077 665.04 82.9902 667.441 83.2937C668.655 83.4472 669.062 83.455 670.101 83.3451C673.591 82.9756 676.309 82.0045 679.251 80.0768C681.338 78.7084 683.049 77.2637 686.068 74.3181L687.954 72.4784L689.448 73.9326C692.845 77.2385 694.667 78.8016 696.705 80.1562C699.524 82.0305 701.797 82.9095 704.826 83.2965C706.357 83.4922 707.448 83.4234 709.54 82.9992C715.367 81.818 719.864 77.6163 721.363 71.9524C721.487 71.4817 721.666 70.4787 721.761 69.7237C721.953 68.1897 721.862 66.6392 721.465 64.6978C720.394 59.4595 716.813 55.4205 711.867 53.8723C708.232 52.7344 704.013 52.9687 700.321 54.5132C697.217 55.8113 694.311 57.9616 689.843 62.2675L688.002 64.0415L686.147 62.2417C683.694 59.8609 682.02 58.3803 680.473 57.2225C676.062 53.9232 671.999 52.6966 667.503 53.3067ZM670.903 59.4075C674.284 59.8619 676.754 61.4256 681.8 66.3081L683.85 68.2919L681.828 70.2665C677.813 74.1869 675.047 76.0491 672.084 76.8262C670.572 77.2229 668.319 77.2487 667.028 76.8843C663.439 75.8709 661.149 73.0848 660.758 69.2577C660.657 68.2645 660.742 66.9365 660.961 66.0914C661.723 63.1529 664.027 60.6988 666.873 59.7922C668.355 59.3202 669.465 59.2142 670.903 59.4075ZM707.807 59.4079C709.61 59.6508 711.164 60.3576 712.447 61.5183C713.657 62.6132 714.474 63.9466 714.956 65.6149C715.321 66.8789 715.324 69.3979 714.962 70.6351C714.045 73.7722 711.637 76.0996 708.452 76.928C707.338 77.2179 705.004 77.1945 703.831 76.8815C701.848 76.3526 699.757 75.1749 697.626 73.3864C696.471 72.4172 692.289 68.4194 692.241 68.2378C692.205 68.1038 695.508 64.8573 696.755 63.8008C700.824 60.3542 704.37 58.9446 707.807 59.4079Z" fill="#8EFE1C"/>
<path d="M746.139 70.0712H747.953C748.492 70.0712 748.987 69.9929 749.437 69.8361C749.893 69.6794 750.284 69.4566 750.612 69.1677C750.941 68.8837 751.195 68.5433 751.376 68.1467C751.558 67.7451 751.648 67.2971 751.648 66.8025C751.648 66.2883 751.558 65.8255 751.376 65.4142C751.195 65.0028 750.941 64.6527 750.612 64.3638C750.284 64.0748 749.893 63.852 749.437 63.6953C748.987 63.5386 748.492 63.4578 747.953 63.4529H744.376V74.1479H746.139V70.0712ZM746.139 68.6315V64.8926H747.953C748.252 64.8975 748.519 64.9465 748.754 65.0395C748.994 65.1326 749.197 65.2648 749.364 65.4362C749.53 65.6076 749.655 65.8108 749.738 66.0459C749.826 66.276 749.871 66.5331 749.871 66.8172C749.871 67.0767 749.826 67.3166 749.738 67.537C749.655 67.7574 749.53 67.9484 749.364 68.11C749.197 68.2716 748.994 68.3989 748.754 68.4919C748.519 68.5801 748.252 68.6266 747.953 68.6315H746.139ZM753 70.1006V70.2548C753 70.8376 753.083 71.3738 753.249 71.8635C753.416 72.3532 753.658 72.7792 753.977 73.1416C754.29 73.504 754.677 73.788 755.137 73.9937C755.598 74.1994 756.119 74.3022 756.702 74.3022C757.28 74.3022 757.796 74.1994 758.252 73.9937C758.712 73.788 759.099 73.504 759.412 73.1416C759.726 72.7792 759.966 72.3532 760.132 71.8635C760.299 71.3738 760.382 70.8376 760.382 70.2548V70.1006C760.382 69.5227 760.299 68.989 760.132 68.4993C759.966 68.0047 759.726 67.5762 759.412 67.2138C759.094 66.8514 758.705 66.5674 758.244 66.3617C757.789 66.1561 757.27 66.0532 756.687 66.0532C756.104 66.0532 755.585 66.1561 755.13 66.3617C754.674 66.5674 754.29 66.8514 753.977 67.2138C753.658 67.5762 753.416 68.0047 753.249 68.4993C753.083 68.989 753 69.5227 753 70.1006ZM754.755 70.2548V70.1006C754.755 69.7529 754.792 69.4199 754.865 69.1016C754.944 68.7833 755.064 68.5042 755.225 68.2642C755.382 68.0243 755.58 67.8333 755.82 67.6913C756.065 67.5493 756.354 67.4782 756.687 67.4782C757.025 67.4782 757.314 67.5493 757.554 67.6913C757.799 67.8333 758.002 68.0243 758.164 68.2642C758.315 68.5042 758.43 68.7833 758.509 69.1016C758.587 69.4199 758.626 69.7529 758.626 70.1006V70.2548C758.626 70.6123 758.587 70.9502 758.509 71.2685C758.435 71.5868 758.32 71.866 758.164 72.1059C758.007 72.3459 757.806 72.5368 757.561 72.6789C757.316 72.816 757.03 72.8845 756.702 72.8845C756.364 72.8845 756.073 72.816 755.828 72.6789C755.583 72.5368 755.382 72.3459 755.225 72.1059C755.064 71.866 754.944 71.5868 754.865 71.2685C754.792 70.9502 754.755 70.6123 754.755 70.2548ZM765.884 64.2609H764.121V66.2001H762.196V67.515H764.121V71.4228C764.121 71.9321 764.187 72.3679 764.319 72.7303C764.456 73.0926 764.645 73.3889 764.885 73.6191C765.125 73.8541 765.411 74.028 765.744 74.1406C766.082 74.2483 766.452 74.3022 766.853 74.3022C767.074 74.3022 767.294 74.29 767.514 74.2655C767.74 74.2459 767.955 74.2165 768.161 74.1773C768.366 74.1382 768.557 74.0916 768.734 74.0378C768.915 73.979 769.069 73.9104 769.197 73.8321L769.006 72.6201C768.917 72.6397 768.807 72.6642 768.675 72.6935C768.548 72.718 768.411 72.7401 768.264 72.7597C768.112 72.7841 767.955 72.8037 767.794 72.8184C767.632 72.8331 767.475 72.8405 767.323 72.8405C767.113 72.8405 766.919 72.816 766.743 72.767C766.567 72.718 766.415 72.6348 766.288 72.5173C766.16 72.4046 766.06 72.2504 765.987 72.0545C765.918 71.8537 765.884 71.6064 765.884 71.3126V67.515H768.873V66.2001H765.884V64.2609ZM775.102 74.2949C775.876 74.2949 776.535 74.1431 777.078 73.8394C777.627 73.5358 778.033 73.193 778.298 72.8111L777.357 71.9002C777.113 72.2136 776.802 72.456 776.424 72.6274C776.047 72.7939 775.641 72.8772 775.205 72.8772C774.887 72.8772 774.593 72.8233 774.324 72.7156C774.059 72.6078 773.829 72.456 773.633 72.2602C773.437 72.0741 773.283 71.8635 773.17 71.6284C773.058 71.3934 772.975 71.102 772.921 70.7543V70.7176H778.43V69.961C778.43 69.393 778.354 68.869 778.202 68.3891C778.05 67.9092 777.825 67.4954 777.526 67.1477C777.228 66.8049 776.858 66.538 776.417 66.347C775.976 66.1512 775.47 66.0532 774.897 66.0532C774.382 66.0532 773.898 66.1512 773.442 66.347C772.992 66.538 772.595 66.8123 772.252 67.1697C771.909 67.5272 771.64 67.9582 771.444 68.4625C771.248 68.9669 771.15 69.5301 771.15 70.152V70.4532C771.15 70.9967 771.243 71.5036 771.43 71.9737C771.621 72.4389 771.89 72.8429 772.238 73.1857C772.585 73.5334 773.001 73.8052 773.486 74.001C773.976 74.1969 774.515 74.2949 775.102 74.2949ZM774.889 67.4782C775.183 67.4782 775.44 67.5297 775.661 67.6325C775.886 67.7304 776.072 67.8627 776.219 68.0292C776.371 68.2006 776.488 68.4013 776.571 68.6315C776.655 68.8567 776.696 69.0845 776.696 69.3146V69.4321H772.957C773.011 69.1285 773.095 68.8567 773.207 68.6168C773.32 68.3768 773.459 68.1712 773.626 67.9998C773.792 67.8333 773.981 67.706 774.191 67.6178C774.407 67.5248 774.64 67.4782 774.889 67.4782ZM780.428 74.1479H782.183V68.4772C782.262 68.345 782.352 68.2226 782.455 68.11C782.558 67.9973 782.668 67.9018 782.786 67.8235C782.937 67.7206 783.106 67.6423 783.293 67.5884C783.479 67.5297 783.679 67.5003 783.895 67.5003C784.154 67.5003 784.385 67.5297 784.585 67.5884C784.786 67.6423 784.957 67.7353 785.099 67.8676C785.242 67.9998 785.349 68.1761 785.423 68.3964C785.496 68.6168 785.533 68.891 785.533 69.2191V74.1479H787.288V69.1897C787.288 68.6315 787.222 68.1565 787.09 67.7647C786.958 67.3681 786.772 67.0424 786.532 66.7878C786.292 66.5331 786.003 66.347 785.665 66.2295C785.327 66.112 784.955 66.0532 784.549 66.0532C784.24 66.0532 783.946 66.0973 783.667 66.1854C783.388 66.2736 783.131 66.3985 782.896 66.5601C782.749 66.6629 782.609 66.7804 782.477 66.9126C782.35 67.04 782.232 67.1795 782.125 67.3313L782.014 66.2001H780.428V74.1479ZM792.989 64.2609H791.226V66.2001H789.301V67.515H791.226V71.4228C791.226 71.9321 791.292 72.3679 791.424 72.7303C791.561 73.0926 791.75 73.3889 791.99 73.6191C792.23 73.8541 792.516 74.028 792.849 74.1406C793.187 74.2483 793.557 74.3022 793.958 74.3022C794.179 74.3022 794.399 74.29 794.619 74.2655C794.845 74.2459 795.06 74.2165 795.266 74.1773C795.471 74.1382 795.662 74.0916 795.839 74.0378C796.02 73.979 796.174 73.9104 796.301 73.8321L796.11 72.6201C796.022 72.6397 795.912 72.6642 795.78 72.6935C795.653 72.718 795.515 72.7401 795.368 72.7597C795.217 72.7841 795.06 72.8037 794.898 72.8184C794.737 72.8331 794.58 72.8405 794.428 72.8405C794.218 72.8405 794.024 72.816 793.848 72.767C793.672 72.718 793.52 72.6348 793.393 72.5173C793.265 72.4046 793.165 72.2504 793.091 72.0545C793.023 71.8537 792.989 71.6064 792.989 71.3126V67.515H795.978V66.2001H792.989V64.2609ZM798.902 66.2001V67.6619H801.348V72.6935H798.902V74.1479H805.454V72.6935H803.118V66.2001H798.902ZM801.186 64.1434C801.186 64.3295 801.23 64.4935 801.318 64.6355C801.411 64.7727 801.546 64.8681 801.722 64.922C801.894 64.9759 802.05 64.9881 802.192 64.9587C802.334 64.9294 802.457 64.8681 802.56 64.7751C802.765 64.7212 802.922 64.616 803.03 64.4593C803.138 64.2977 803.174 64.1091 803.14 63.8936C803.116 63.6831 803.02 63.5117 802.854 63.3795C802.692 63.2423 802.479 63.1738 802.214 63.1738C802.058 63.1738 801.916 63.1983 801.788 63.2472C801.666 63.2913 801.561 63.355 801.473 63.4382C801.38 63.5264 801.309 63.6317 801.26 63.7541C801.211 63.8716 801.186 64.0014 801.186 64.1434ZM812.608 74.1479H814.401V74.0231C814.303 73.8174 814.227 73.5726 814.173 73.2885C814.124 72.9996 814.099 72.6764 814.099 72.3189V68.7857C814.099 68.3352 814.016 67.9386 813.85 67.5958C813.683 67.2481 813.453 66.9616 813.159 66.7364C812.865 66.5111 812.515 66.3421 812.109 66.2295C811.707 66.112 811.274 66.0532 810.809 66.0532C810.29 66.0532 809.827 66.1218 809.42 66.2589C809.019 66.3911 808.681 66.5723 808.407 66.8025C808.123 67.0277 807.907 67.2873 807.76 67.5811C807.613 67.8749 807.538 68.181 807.533 68.4993H809.296C809.296 68.3475 809.322 68.2054 809.376 68.0732C809.435 67.9361 809.523 67.821 809.641 67.728C809.758 67.6252 809.905 67.5444 810.082 67.4856C810.263 67.4268 810.473 67.3974 810.713 67.3974C810.978 67.3974 811.21 67.4317 811.411 67.5003C811.617 67.5639 811.791 67.657 811.933 67.7794C812.065 67.9018 812.165 68.0463 812.234 68.2128C812.307 68.3793 812.344 68.5654 812.344 68.7711V69.3073H811.066C810.493 69.3073 809.979 69.3611 809.523 69.4689C809.073 69.5766 808.693 69.7333 808.385 69.939C808.052 70.1593 807.797 70.4385 807.621 70.7764C807.449 71.1094 807.364 71.4938 807.364 71.9296C807.364 72.2675 807.43 72.5834 807.562 72.8772C807.699 73.1661 807.89 73.4134 808.135 73.6191C808.375 73.8296 808.664 73.9961 809.002 74.1186C809.345 74.2361 809.722 74.2949 810.133 74.2949C810.388 74.2949 810.625 74.2704 810.845 74.2214C811.066 74.1724 811.271 74.1039 811.462 74.0157C811.653 73.9325 811.825 73.8345 811.977 73.7219C812.133 73.6044 812.273 73.482 812.395 73.3546C812.42 73.5064 812.447 73.6534 812.476 73.7954C812.51 73.9325 812.554 74.05 812.608 74.1479ZM810.471 72.8845C810.246 72.8845 810.05 72.8576 809.883 72.8037C809.717 72.745 809.577 72.6666 809.464 72.5687C809.352 72.4707 809.266 72.3532 809.207 72.2161C809.149 72.0741 809.119 71.9223 809.119 71.7607C809.119 71.5648 809.154 71.3885 809.222 71.2318C809.296 71.0751 809.406 70.9404 809.553 70.8278C809.719 70.6956 809.942 70.5952 810.221 70.5266C810.5 70.4532 810.831 70.4164 811.213 70.4164H812.344V71.8855C812.28 72.0129 812.19 72.1353 812.072 72.2528C811.955 72.3703 811.815 72.4756 811.653 72.5687C811.492 72.6617 811.311 72.7376 811.11 72.7964C810.914 72.8551 810.701 72.8845 810.471 72.8845ZM816.905 62.8653V64.327H819.418V72.6935H816.905V74.1479H823.597V72.6935H821.188V62.8653H816.905Z" fill="white"/>
<path d="M254.328 5.6651L251.475 14.6348L248.36 5.6651H244.854L241.74 14.6348L238.887 5.6651H234.99L239.764 18.7188H243.512L246.57 9.63714L249.61 18.7188H253.395L258.151 5.6651H254.328ZM271.48 5.6651V10.5322H263.647V5.6651H259.843V18.7188H263.647V13.6651H271.48V18.7188H275.284V5.6651H271.48ZM290.355 18.7188H294.402L287.651 5.6651H283.492L276.742 18.7188H280.732L281.963 16.2199H289.124L290.355 18.7188ZM283.269 13.5159L285.544 8.89121L287.8 13.5159H283.269ZM307.196 5.6651H292.576V8.70473H297.965V18.7188H301.769V8.70473H307.196V5.6651ZM317.151 18.7188V5.6651H313.347V18.7188H317.151ZM327.317 10.439C324.986 10.2525 323.476 10.1406 323.476 9.26418C323.476 8.33177 325.322 8.08935 326.851 8.08935C328.884 8.108 330.636 8.51825 332.091 9.5439L334.012 7.17559C332.222 5.90752 329.648 5.23619 326.851 5.23619C322.711 5.23619 319.69 6.76533 319.69 9.56254C319.69 12.4716 323.215 13.3295 327.093 13.6651C329.779 13.8889 330.823 14.1686 330.823 15.0078C330.823 15.8656 329.704 16.2759 327.466 16.2759C324.856 16.2759 322.711 15.5486 321.163 14.2432L319.168 16.5929C321.219 18.2339 324.035 19.1477 327.392 19.1477C332.128 19.1477 334.608 17.3201 334.608 14.6348C334.608 11.6325 331.588 10.7933 327.317 10.439ZM355.615 5.6651L350.674 11.9309L345.769 5.6651H341.611V18.7188H345.284V10.3831L350.487 16.7607H350.674L355.876 10.3831V18.7188H359.662V5.6651H355.615ZM366.465 15.8097V13.4973H374.689V10.7187H366.465V8.5742H376.442V5.6651H362.717V18.7188H376.647V15.8097H366.465ZM386.242 16.0521C383.556 16.0521 381.766 14.6908 381.766 12.1919C381.766 9.69308 383.556 8.33177 386.242 8.33177C387.994 8.33177 389.318 8.96581 390.176 10.3085L393.458 8.63014C392.284 6.76533 389.673 5.23619 386.297 5.23619C381.225 5.23619 377.906 7.79098 377.906 12.1919C377.906 16.5929 381.225 19.1477 386.148 19.1477C389.673 19.1477 392.302 17.6558 393.514 15.7351L390.251 14.0567C389.337 15.4553 387.994 16.0521 386.242 16.0521ZM407.042 5.6651V10.5322H399.21V5.6651H395.406V18.7188H399.21V13.6651H407.042V18.7188H410.846V5.6651H407.042ZM425.918 18.7188H429.964L423.214 5.6651H419.055L412.305 18.7188H416.295L417.526 16.2199H424.687L425.918 18.7188ZM418.831 13.5159L421.106 8.89121L423.363 13.5159H418.831ZM445.078 8.66744V5.6651H431.409V18.7188H435.213V14.1127H443.456V11.1476H435.213V8.66744H445.078ZM450.857 18.7188V5.6651H447.052V18.7188H450.857ZM469.321 11.1663H461.47V13.833H465.796V15.0078C464.882 15.8469 463.614 16.164 462.011 16.164C458.841 16.164 457.05 14.7654 457.05 12.1919C457.05 9.63714 458.785 8.23853 461.955 8.23853C463.708 8.23853 464.882 8.68608 466.001 9.69308L468.78 7.64179C467.419 6.37372 465.088 5.23619 461.861 5.23619C456.509 5.23619 453.19 7.77233 453.19 12.1919C453.19 16.6115 456.509 19.1477 461.861 19.1477C465.349 19.1477 467.922 17.9915 469.321 16.2572V11.1663ZM483.383 5.6651V10.5322H475.551V5.6651H471.746V18.7188H475.551V13.6651H483.383V18.7188H487.187V5.6651H483.383ZM503.638 5.6651H489.018V8.70473H494.407V18.7188H498.212V8.70473H503.638V5.6651ZM512.626 16.0521C509.941 16.0521 508.15 14.6908 508.15 12.1919C508.15 9.69308 509.941 8.33177 512.626 8.33177C514.379 8.33177 515.703 8.96581 516.561 10.3085L519.843 8.63014C518.668 6.76533 516.057 5.23619 512.682 5.23619C507.61 5.23619 504.29 7.79098 504.29 12.1919C504.29 16.5929 507.61 19.1477 512.533 19.1477C516.057 19.1477 518.687 17.6558 519.899 15.7351L516.635 14.0567C515.722 15.4553 514.379 16.0521 512.626 16.0521ZM525.595 15.6605V5.6651H521.79V18.7188H534.378V15.6605H525.595ZM546.836 5.6651V12.2665C546.836 14.5416 545.587 16.0148 543.07 16.0148C540.552 16.0148 539.284 14.5416 539.284 12.2665V5.6651H535.48V12.5649C535.48 16.5369 538.202 19.1477 543.07 19.1477C547.937 19.1477 550.641 16.5369 550.641 12.5649V5.6651H546.836ZM565.077 11.9122C567.035 11.8003 568.06 10.5136 568.06 9.0404C568.06 6.95181 566.028 5.6651 562.82 5.6651H553.477V18.7188H563.566C566.774 18.7188 568.806 17.3947 568.806 15.1383C568.806 13.1243 567.128 12.0427 565.077 11.9122ZM557.244 8.31312H562.186C563.454 8.31312 564.293 8.59284 564.293 9.58119C564.293 10.5882 563.454 10.8679 562.186 10.8679H557.244V8.31312ZM562.764 16.0707H557.244V13.3295H562.764C564.107 13.3295 564.909 13.6278 564.909 14.6908C564.909 15.7537 564.107 16.0707 562.764 16.0707ZM575.116 14.3178H578.025V12.826C580.897 12.6395 583.023 11.4833 583.023 9.24553C583.023 6.46696 579.722 5.27349 576.627 5.27349C573.606 5.27349 571.536 6.41102 569.988 7.95881L571.946 9.99145C573.158 8.70473 574.687 8.0334 576.515 8.0334C577.82 8.0334 579.144 8.31312 579.144 9.33877C579.144 10.4017 577.727 10.8306 575.116 11.129V14.3178ZM576.552 18.9612C577.802 18.9612 578.678 18.178 578.678 17.115C578.678 16.0707 577.802 15.2502 576.552 15.2502C575.284 15.2502 574.408 16.0707 574.408 17.115C574.408 18.178 575.284 18.9612 576.552 18.9612Z" fill="white"/>
</svg>
