<svg width="301" height="297" viewBox="0 0 301 297" fill="none" xmlns="http://www.w3.org/2000/svg">
<path d="M153.634 27.3623V0.711274H153.36L142.395 4.77482V8.63703L149.223 6.12934V27.3623H153.634Z" fill="#8EFE1C"/>
<path d="M43.3281 44.9873H40.6016V56.3623H42.6172V52.9951L42.5234 47.8857L43.8594 52.6123H44.9453L46.4375 47.6748L46.3438 52.9951V56.3623H48.3594V44.9873H45.6328L44.4062 49.2607L43.3281 44.9873ZM55.6016 56.3623H57.8047V56.2295C57.6953 56.016 57.612 55.7607 57.5547 55.4639C57.4974 55.167 57.4688 54.792 57.4688 54.3389V50.7139C57.4688 50.2243 57.3776 49.7946 57.1953 49.4248C57.013 49.0498 56.7604 48.7399 56.4375 48.4951C56.1146 48.2503 55.7318 48.0654 55.2891 47.9404C54.8516 47.8154 54.3776 47.7529 53.8672 47.7529C53.2995 47.7529 52.7943 47.8258 52.3516 47.9717C51.9141 48.1123 51.5443 48.305 51.2422 48.5498C50.9349 48.7946 50.7005 49.0785 50.5391 49.4014C50.3828 49.7243 50.3047 50.0654 50.3047 50.4248H52.4766C52.4766 50.2738 52.4974 50.1357 52.5391 50.0107C52.5859 49.8857 52.6562 49.779 52.75 49.6904C52.8542 49.5915 52.9896 49.516 53.1562 49.4639C53.3229 49.4066 53.5208 49.3779 53.75 49.3779C54.0104 49.3779 54.237 49.4118 54.4297 49.4795C54.6276 49.542 54.7917 49.6331 54.9219 49.7529C55.0469 49.8675 55.1406 50.0055 55.2031 50.167C55.2656 50.3232 55.2969 50.5003 55.2969 50.6982V51.1982H54.0859C53.4609 51.1982 52.9062 51.2555 52.4219 51.3701C51.9427 51.4795 51.5391 51.641 51.2109 51.8545C50.8464 52.0889 50.5729 52.3883 50.3906 52.7529C50.2083 53.1123 50.1172 53.5264 50.1172 53.9951C50.1172 54.3597 50.1901 54.6982 50.3359 55.0107C50.4818 55.318 50.6849 55.5837 50.9453 55.8076C51.2057 56.0316 51.5156 56.2061 51.875 56.3311C52.2396 56.4561 52.638 56.5186 53.0703 56.5186C53.3359 56.5186 53.5833 56.4925 53.8125 56.4404C54.0417 56.3936 54.2526 56.3258 54.4453 56.2373C54.6328 56.154 54.8047 56.055 54.9609 55.9404C55.1172 55.8258 55.2552 55.7035 55.375 55.5732C55.401 55.7243 55.4323 55.8675 55.4688 56.0029C55.5052 56.1383 55.5495 56.2581 55.6016 56.3623ZM53.5312 54.8389C53.3281 54.8389 53.1484 54.8154 52.9922 54.7686C52.8411 54.7165 52.7135 54.6488 52.6094 54.5654C52.5052 54.4769 52.4245 54.3701 52.3672 54.2451C52.3151 54.1149 52.2891 53.9743 52.2891 53.8232C52.2891 53.6305 52.3255 53.4535 52.3984 53.292C52.4714 53.1253 52.5833 52.9821 52.7344 52.8623C52.8854 52.7477 53.0807 52.6592 53.3203 52.5967C53.5599 52.529 53.849 52.4951 54.1875 52.4951H55.2969V53.9482C55.2344 54.0576 55.1484 54.167 55.0391 54.2764C54.9297 54.3805 54.7995 54.4743 54.6484 54.5576C54.4974 54.641 54.3281 54.7087 54.1406 54.7607C53.9531 54.8128 53.75 54.8389 53.5312 54.8389ZM65.3828 54.042C65.3828 54.1722 65.349 54.292 65.2812 54.4014C65.2188 54.5107 65.1224 54.6071 64.9922 54.6904C64.8568 54.7738 64.6823 54.8415 64.4688 54.8936C64.2604 54.9404 64.0156 54.9639 63.7344 54.9639C63.5 54.9639 63.2708 54.9404 63.0469 54.8936C62.8281 54.8467 62.6328 54.7712 62.4609 54.667C62.2891 54.568 62.1484 54.4378 62.0391 54.2764C61.9297 54.1097 61.8672 53.9118 61.8516 53.6826H59.7812C59.7812 54.0264 59.8646 54.3701 60.0312 54.7139C60.2031 55.0524 60.4531 55.3545 60.7812 55.6201C61.1094 55.891 61.5156 56.1097 62 56.2764C62.4896 56.443 63.0521 56.5264 63.6875 56.5264C64.2656 56.5264 64.7891 56.4639 65.2578 56.3389C65.7266 56.2087 66.1276 56.029 66.4609 55.7998C66.7891 55.5706 67.0417 55.2998 67.2188 54.9873C67.401 54.6696 67.4922 54.3232 67.4922 53.9482C67.4922 53.542 67.401 53.193 67.2188 52.9014C67.0417 52.6045 66.7943 52.3519 66.4766 52.1436C66.1589 51.9404 65.7812 51.7738 65.3438 51.6436C64.9062 51.5133 64.4323 51.4066 63.9219 51.3232C63.5677 51.2712 63.276 51.2113 63.0469 51.1436C62.8177 51.0706 62.638 50.9899 62.5078 50.9014C62.3724 50.818 62.2786 50.7243 62.2266 50.6201C62.1745 50.5107 62.1484 50.3936 62.1484 50.2686C62.1484 50.1436 62.1771 50.0264 62.2344 49.917C62.2969 49.8024 62.3854 49.7035 62.5 49.6201C62.625 49.5264 62.7865 49.4535 62.9844 49.4014C63.1823 49.3493 63.4141 49.3232 63.6797 49.3232C63.9922 49.3232 64.2578 49.3623 64.4766 49.4404C64.7005 49.5186 64.8776 49.6227 65.0078 49.7529C65.1016 49.8519 65.1719 49.9639 65.2188 50.0889C65.2656 50.2087 65.2891 50.3389 65.2891 50.4795H67.4609C67.4609 50.0889 67.375 49.7269 67.2031 49.3936C67.0312 49.0602 66.7839 48.7712 66.4609 48.5264C66.1328 48.2868 65.7344 48.0993 65.2656 47.9639C64.7969 47.8232 64.2682 47.7529 63.6797 47.7529C63.1172 47.7529 62.612 47.8232 62.1641 47.9639C61.7161 48.1045 61.3359 48.2946 61.0234 48.5342C60.7109 48.7738 60.4714 49.0524 60.3047 49.3701C60.138 49.6878 60.0547 50.0212 60.0547 50.3701C60.0547 50.7295 60.1354 51.0472 60.2969 51.3232C60.4635 51.5993 60.6927 51.8415 60.9844 52.0498C61.276 52.2633 61.625 52.4456 62.0312 52.5967C62.4427 52.7425 62.8958 52.8649 63.3906 52.9639C63.7812 53.0368 64.1042 53.1097 64.3594 53.1826C64.6146 53.2555 64.8203 53.3337 64.9766 53.417C65.1276 53.5055 65.2318 53.5993 65.2891 53.6982C65.3516 53.7972 65.3828 53.9118 65.3828 54.042ZM74.9922 54.042C74.9922 54.1722 74.9583 54.292 74.8906 54.4014C74.8281 54.5107 74.7318 54.6071 74.6016 54.6904C74.4661 54.7738 74.2917 54.8415 74.0781 54.8936C73.8698 54.9404 73.625 54.9639 73.3438 54.9639C73.1094 54.9639 72.8802 54.9404 72.6562 54.8936C72.4375 54.8467 72.2422 54.7712 72.0703 54.667C71.8984 54.568 71.7578 54.4378 71.6484 54.2764C71.5391 54.1097 71.4766 53.9118 71.4609 53.6826H69.3906C69.3906 54.0264 69.474 54.3701 69.6406 54.7139C69.8125 55.0524 70.0625 55.3545 70.3906 55.6201C70.7188 55.891 71.125 56.1097 71.6094 56.2764C72.099 56.443 72.6615 56.5264 73.2969 56.5264C73.875 56.5264 74.3984 56.4639 74.8672 56.3389C75.3359 56.2087 75.737 56.029 76.0703 55.7998C76.3984 55.5706 76.651 55.2998 76.8281 54.9873C77.0104 54.6696 77.1016 54.3232 77.1016 53.9482C77.1016 53.542 77.0104 53.193 76.8281 52.9014C76.651 52.6045 76.4036 52.3519 76.0859 52.1436C75.7682 51.9404 75.3906 51.7738 74.9531 51.6436C74.5156 51.5133 74.0417 51.4066 73.5312 51.3232C73.1771 51.2712 72.8854 51.2113 72.6562 51.1436C72.4271 51.0706 72.2474 50.9899 72.1172 50.9014C71.9818 50.818 71.888 50.7243 71.8359 50.6201C71.7839 50.5107 71.7578 50.3936 71.7578 50.2686C71.7578 50.1436 71.7865 50.0264 71.8438 49.917C71.9062 49.8024 71.9948 49.7035 72.1094 49.6201C72.2344 49.5264 72.3958 49.4535 72.5938 49.4014C72.7917 49.3493 73.0234 49.3232 73.2891 49.3232C73.6016 49.3232 73.8672 49.3623 74.0859 49.4404C74.3099 49.5186 74.487 49.6227 74.6172 49.7529C74.7109 49.8519 74.7812 49.9639 74.8281 50.0889C74.875 50.2087 74.8984 50.3389 74.8984 50.4795H77.0703C77.0703 50.0889 76.9844 49.7269 76.8125 49.3936C76.6406 49.0602 76.3932 48.7712 76.0703 48.5264C75.7422 48.2868 75.3438 48.0993 74.875 47.9639C74.4062 47.8232 73.8776 47.7529 73.2891 47.7529C72.7266 47.7529 72.2214 47.8232 71.7734 47.9639C71.3255 48.1045 70.9453 48.2946 70.6328 48.5342C70.3203 48.7738 70.0807 49.0524 69.9141 49.3701C69.7474 49.6878 69.6641 50.0212 69.6641 50.3701C69.6641 50.7295 69.7448 51.0472 69.9062 51.3232C70.0729 51.5993 70.3021 51.8415 70.5938 52.0498C70.8854 52.2633 71.2344 52.4456 71.6406 52.5967C72.0521 52.7425 72.5052 52.8649 73 52.9639C73.3906 53.0368 73.7135 53.1097 73.9688 53.1826C74.224 53.2555 74.4297 53.3337 74.5859 53.417C74.737 53.5055 74.8411 53.5993 74.8984 53.6982C74.9609 53.7972 74.9922 53.9118 74.9922 54.042ZM79.7266 47.9092V49.6826H82.1328V54.5967H79.7266V56.3623H86.6172V54.5967H84.3281V47.9092H79.7266ZM81.9766 45.7451C81.9766 45.9118 82.0052 46.068 82.0625 46.2139C82.125 46.3545 82.2109 46.4743 82.3203 46.5732C82.4297 46.6774 82.5599 46.7581 82.7109 46.8154C82.8672 46.8727 83.0391 46.9014 83.2266 46.9014C83.612 46.9014 83.9167 46.7946 84.1406 46.5811C84.3698 46.3623 84.4844 46.0837 84.4844 45.7451C84.4844 45.4066 84.3698 45.1305 84.1406 44.917C83.9167 44.6982 83.612 44.5889 83.2266 44.5889C83.0391 44.5889 82.8672 44.6175 82.7109 44.6748C82.5599 44.7321 82.4297 44.8102 82.3203 44.9092C82.2109 45.0133 82.125 45.1383 82.0625 45.2842C82.0052 45.4248 81.9766 45.5785 81.9766 45.7451ZM91.4453 56.3623H93.4844L96.6953 47.9092H94.4297L92.5781 53.8701L92.4609 54.4639L92.3438 53.8701L90.4844 47.9092H88.2188L91.4453 56.3623ZM102.469 56.5186C103.286 56.5186 103.995 56.3597 104.594 56.042C105.193 55.7243 105.63 55.3701 105.906 54.9795L104.82 53.8076C104.57 54.1305 104.245 54.3727 103.844 54.5342C103.443 54.6956 103.029 54.7764 102.602 54.7764C102.299 54.7764 102.021 54.7295 101.766 54.6357C101.51 54.542 101.284 54.4092 101.086 54.2373C100.893 54.0706 100.74 53.8857 100.625 53.6826C100.51 53.4743 100.417 53.2008 100.344 52.8623V52.8389H106.078V51.917C106.078 51.2972 105.992 50.7321 105.82 50.2217C105.648 49.7061 105.398 49.266 105.07 48.9014C104.737 48.5368 104.331 48.2555 103.852 48.0576C103.378 47.8545 102.836 47.7529 102.227 47.7529C101.638 47.7529 101.094 47.8597 100.594 48.0732C100.094 48.2868 99.6615 48.5863 99.2969 48.9717C98.9323 49.3571 98.6484 49.818 98.4453 50.3545C98.2422 50.8857 98.1406 51.4743 98.1406 52.1201V52.4326C98.1406 53.0003 98.2422 53.5342 98.4453 54.0342C98.6536 54.529 98.9479 54.9587 99.3281 55.3232C99.7083 55.693 100.164 55.9847 100.695 56.1982C101.227 56.4118 101.818 56.5186 102.469 56.5186ZM102.211 49.5107C102.487 49.5107 102.729 49.555 102.938 49.6436C103.151 49.7269 103.331 49.8415 103.477 49.9873C103.622 50.1383 103.737 50.3154 103.82 50.5186C103.904 50.7217 103.945 50.9378 103.945 51.167V51.3389H100.383C100.435 51.0628 100.513 50.8128 100.617 50.5889C100.721 50.3649 100.852 50.1722 101.008 50.0107C101.159 49.8493 101.336 49.7269 101.539 49.6436C101.742 49.555 101.966 49.5107 102.211 49.5107ZM125.008 56.3623V44.9873H122.805L122.797 52.292L119.656 44.9873H117.445V56.3623H119.656V49.0264L122.82 56.3623H125.008ZM134.336 51.6514V49.8701H129.461V46.7764H134.945V44.9873H127.258V56.3623H129.461V51.6514H134.336ZM145.086 46.7764V44.9873H135.914V46.7764H139.375V56.3623H141.578V46.7764H145.086ZM163.844 52.7998H161.648C161.628 53.1436 161.57 53.4378 161.477 53.6826C161.383 53.9274 161.255 54.1279 161.094 54.2842C160.932 54.4404 160.737 54.555 160.508 54.6279C160.279 54.7008 160.021 54.7373 159.734 54.7373C159.521 54.7373 159.326 54.7139 159.148 54.667C158.977 54.6149 158.82 54.5368 158.68 54.4326C158.549 54.3389 158.432 54.2217 158.328 54.0811C158.229 53.9404 158.143 53.779 158.07 53.5967C157.966 53.3311 157.888 53.0212 157.836 52.667C157.789 52.3076 157.766 51.9014 157.766 51.4482V49.9014C157.766 49.568 157.781 49.2581 157.812 48.9717C157.844 48.68 157.893 48.4144 157.961 48.1748C158.049 47.8675 158.167 47.5993 158.312 47.3701C158.464 47.1357 158.646 46.9561 158.859 46.8311C158.984 46.7581 159.12 46.7035 159.266 46.667C159.417 46.6305 159.578 46.6123 159.75 46.6123C160.073 46.6123 160.349 46.6566 160.578 46.7451C160.812 46.8285 161.008 46.9535 161.164 47.1201C161.315 47.292 161.43 47.5055 161.508 47.7607C161.591 48.016 161.643 48.3128 161.664 48.6514H163.852C163.799 48.0576 163.674 47.5238 163.477 47.0498C163.279 46.5758 163.008 46.1748 162.664 45.8467C162.32 45.5186 161.904 45.266 161.414 45.0889C160.93 44.9118 160.375 44.8232 159.75 44.8232C159.328 44.8232 158.932 44.8779 158.562 44.9873C158.198 45.0915 157.862 45.2425 157.555 45.4404C157.211 45.6748 156.904 45.9613 156.633 46.2998C156.362 46.6383 156.143 47.0238 155.977 47.4561C155.831 47.8102 155.721 48.1956 155.648 48.6123C155.576 49.0238 155.539 49.4587 155.539 49.917V51.4482C155.539 51.9378 155.578 52.4014 155.656 52.8389C155.74 53.2764 155.857 53.6774 156.008 54.042C156.164 54.4066 156.354 54.7399 156.578 55.042C156.807 55.3441 157.068 55.6019 157.359 55.8154C157.677 56.0446 158.034 56.2217 158.43 56.3467C158.831 56.4665 159.266 56.5264 159.734 56.5264C160.328 56.5264 160.87 56.4404 161.359 56.2686C161.849 56.0915 162.271 55.8415 162.625 55.5186C162.979 55.1956 163.26 54.805 163.469 54.3467C163.682 53.8883 163.807 53.3727 163.844 52.7998ZM165.336 52.0576V52.2217C165.336 52.8415 165.424 53.4144 165.602 53.9404C165.779 54.4613 166.039 54.9144 166.383 55.2998C166.721 55.6852 167.138 55.9873 167.633 56.2061C168.133 56.4196 168.701 56.5264 169.336 56.5264C169.966 56.5264 170.529 56.4196 171.023 56.2061C171.518 55.9873 171.935 55.6852 172.273 55.2998C172.612 54.9144 172.87 54.4613 173.047 53.9404C173.224 53.4144 173.312 52.8415 173.312 52.2217V52.0576C173.312 51.443 173.224 50.8753 173.047 50.3545C172.87 49.8285 172.612 49.3727 172.273 48.9873C171.93 48.6019 171.51 48.2998 171.016 48.0811C170.521 47.8623 169.956 47.7529 169.32 47.7529C168.685 47.7529 168.12 47.8623 167.625 48.0811C167.135 48.2998 166.721 48.6019 166.383 48.9873C166.039 49.3727 165.779 49.8285 165.602 50.3545C165.424 50.8753 165.336 51.443 165.336 52.0576ZM167.508 52.2217V52.0576C167.508 51.7139 167.542 51.3883 167.609 51.0811C167.677 50.7738 167.784 50.5029 167.93 50.2686C168.076 50.0342 168.263 49.8493 168.492 49.7139C168.721 49.5785 168.997 49.5107 169.32 49.5107C169.648 49.5107 169.927 49.5785 170.156 49.7139C170.385 49.8493 170.573 50.0342 170.719 50.2686C170.859 50.5029 170.964 50.7738 171.031 51.0811C171.099 51.3883 171.133 51.7139 171.133 52.0576V52.2217C171.133 52.5758 171.099 52.9092 171.031 53.2217C170.964 53.529 170.859 53.7972 170.719 54.0264C170.573 54.2607 170.385 54.4456 170.156 54.5811C169.927 54.7165 169.654 54.7842 169.336 54.7842C169.008 54.7842 168.727 54.7165 168.492 54.5811C168.263 54.4456 168.076 54.2607 167.93 54.0264C167.784 53.7972 167.677 53.529 167.609 53.2217C167.542 52.9092 167.508 52.5758 167.508 52.2217ZM176.594 47.9092H174.727V56.3623H176.703V50.0342C176.729 49.9665 176.758 49.904 176.789 49.8467C176.82 49.7894 176.857 49.7399 176.898 49.6982C176.956 49.641 177.021 49.5967 177.094 49.5654C177.167 49.5342 177.25 49.5186 177.344 49.5186C177.427 49.5186 177.505 49.5316 177.578 49.5576C177.651 49.5785 177.716 49.6175 177.773 49.6748C177.826 49.7321 177.867 49.8128 177.898 49.917C177.93 50.0212 177.945 50.154 177.945 50.3154V56.3623H179.859V50.1279C179.859 50.0654 179.859 50.016 179.859 49.9795C179.859 49.943 179.859 49.9196 179.859 49.9092C179.885 49.8519 179.917 49.8024 179.953 49.7607C179.99 49.7139 180.031 49.6722 180.078 49.6357C180.135 49.5993 180.195 49.5706 180.258 49.5498C180.326 49.529 180.401 49.5186 180.484 49.5186C180.562 49.5186 180.638 49.5316 180.711 49.5576C180.789 49.5785 180.857 49.6175 180.914 49.6748C180.971 49.7373 181.016 49.8206 181.047 49.9248C181.083 50.029 181.102 50.1618 181.102 50.3232V56.3623H183.078V50.3311C183.078 49.8623 183.031 49.4665 182.938 49.1436C182.849 48.8154 182.724 48.5472 182.562 48.3389C182.396 48.1357 182.201 47.9873 181.977 47.8936C181.758 47.7998 181.521 47.7529 181.266 47.7529C181.062 47.7529 180.875 47.779 180.703 47.8311C180.531 47.8831 180.378 47.9561 180.242 48.0498C180.133 48.1227 180.031 48.2113 179.938 48.3154C179.849 48.4144 179.768 48.5264 179.695 48.6514C179.648 48.5212 179.591 48.4066 179.523 48.3076C179.461 48.2035 179.385 48.1149 179.297 48.042C179.182 47.943 179.047 47.8701 178.891 47.8232C178.734 47.7764 178.557 47.7529 178.359 47.7529C177.953 47.7529 177.607 47.8597 177.32 48.0732C177.039 48.2816 176.818 48.568 176.656 48.9326L176.594 47.9092ZM192.469 52.2217V52.0576C192.469 51.5472 192.422 51.068 192.328 50.6201C192.24 50.1722 192.102 49.7686 191.914 49.4092C191.794 49.1852 191.656 48.9795 191.5 48.792C191.344 48.5993 191.169 48.4352 190.977 48.2998C190.737 48.1227 190.464 47.9873 190.156 47.8936C189.854 47.7998 189.521 47.7529 189.156 47.7529C188.891 47.7529 188.643 47.7816 188.414 47.8389C188.19 47.891 187.982 47.9717 187.789 48.0811C187.654 48.154 187.526 48.2425 187.406 48.3467C187.286 48.4456 187.174 48.555 187.07 48.6748V44.3623H184.898V56.3623H186.852L186.953 55.4639C187.042 55.5785 187.135 55.6852 187.234 55.7842C187.333 55.8779 187.44 55.9639 187.555 56.042C187.768 56.1982 188.008 56.3154 188.273 56.3936C188.544 56.4769 188.844 56.5186 189.172 56.5186C189.531 56.5186 189.859 56.4717 190.156 56.3779C190.458 56.2894 190.729 56.1592 190.969 55.9873C191.234 55.805 191.464 55.5758 191.656 55.2998C191.854 55.0238 192.013 54.7165 192.133 54.3779C192.242 54.0706 192.326 53.7373 192.383 53.3779C192.44 53.0133 192.469 52.6279 192.469 52.2217ZM190.297 52.0576V52.2217C190.297 52.4404 190.286 52.6514 190.266 52.8545C190.25 53.0576 190.221 53.2451 190.18 53.417C190.128 53.6514 190.049 53.8623 189.945 54.0498C189.846 54.2321 189.716 54.3805 189.555 54.4951C189.44 54.5785 189.305 54.6436 189.148 54.6904C188.992 54.7373 188.818 54.7607 188.625 54.7607C188.401 54.7607 188.201 54.7347 188.023 54.6826C187.852 54.6305 187.701 54.555 187.57 54.4561C187.461 54.3779 187.365 54.2868 187.281 54.1826C187.203 54.0732 187.133 53.9535 187.07 53.8232V50.4561C187.117 50.3571 187.169 50.266 187.227 50.1826C187.284 50.0941 187.346 50.016 187.414 49.9482C187.555 49.8076 187.724 49.7008 187.922 49.6279C188.12 49.555 188.349 49.5186 188.609 49.5186C188.802 49.5186 188.974 49.542 189.125 49.5889C189.276 49.6305 189.411 49.6956 189.531 49.7842C189.714 49.9248 189.849 50.0811 189.938 50.2529C190.031 50.4196 190.107 50.6097 190.164 50.8232C190.211 51.0055 190.245 51.2008 190.266 51.4092C190.286 51.6175 190.297 51.8337 190.297 52.0576ZM199.742 56.3623H201.945V56.2295C201.836 56.016 201.753 55.7607 201.695 55.4639C201.638 55.167 201.609 54.792 201.609 54.3389V50.7139C201.609 50.2243 201.518 49.7946 201.336 49.4248C201.154 49.0498 200.901 48.7399 200.578 48.4951C200.255 48.2503 199.872 48.0654 199.43 47.9404C198.992 47.8154 198.518 47.7529 198.008 47.7529C197.44 47.7529 196.935 47.8258 196.492 47.9717C196.055 48.1123 195.685 48.305 195.383 48.5498C195.076 48.7946 194.841 49.0785 194.68 49.4014C194.523 49.7243 194.445 50.0654 194.445 50.4248H196.617C196.617 50.2738 196.638 50.1357 196.68 50.0107C196.727 49.8857 196.797 49.779 196.891 49.6904C196.995 49.5915 197.13 49.516 197.297 49.4639C197.464 49.4066 197.661 49.3779 197.891 49.3779C198.151 49.3779 198.378 49.4118 198.57 49.4795C198.768 49.542 198.932 49.6331 199.062 49.7529C199.188 49.8675 199.281 50.0055 199.344 50.167C199.406 50.3232 199.438 50.5003 199.438 50.6982V51.1982H198.227C197.602 51.1982 197.047 51.2555 196.562 51.3701C196.083 51.4795 195.68 51.641 195.352 51.8545C194.987 52.0889 194.714 52.3883 194.531 52.7529C194.349 53.1123 194.258 53.5264 194.258 53.9951C194.258 54.3597 194.331 54.6982 194.477 55.0107C194.622 55.318 194.826 55.5837 195.086 55.8076C195.346 56.0316 195.656 56.2061 196.016 56.3311C196.38 56.4561 196.779 56.5186 197.211 56.5186C197.477 56.5186 197.724 56.4925 197.953 56.4404C198.182 56.3936 198.393 56.3258 198.586 56.2373C198.773 56.154 198.945 56.055 199.102 55.9404C199.258 55.8258 199.396 55.7035 199.516 55.5732C199.542 55.7243 199.573 55.8675 199.609 56.0029C199.646 56.1383 199.69 56.2581 199.742 56.3623ZM197.672 54.8389C197.469 54.8389 197.289 54.8154 197.133 54.7686C196.982 54.7165 196.854 54.6488 196.75 54.5654C196.646 54.4769 196.565 54.3701 196.508 54.2451C196.456 54.1149 196.43 53.9743 196.43 53.8232C196.43 53.6305 196.466 53.4535 196.539 53.292C196.612 53.1253 196.724 52.9821 196.875 52.8623C197.026 52.7477 197.221 52.6592 197.461 52.5967C197.701 52.529 197.99 52.4951 198.328 52.4951H199.438V53.9482C199.375 54.0576 199.289 54.167 199.18 54.2764C199.07 54.3805 198.94 54.4743 198.789 54.5576C198.638 54.641 198.469 54.7087 198.281 54.7607C198.094 54.8128 197.891 54.8389 197.672 54.8389ZM208.055 45.8389H205.883V47.9092H203.953V49.5107H205.883V53.3545C205.883 53.9118 205.956 54.391 206.102 54.792C206.247 55.1878 206.456 55.5133 206.727 55.7686C206.992 56.029 207.312 56.2217 207.688 56.3467C208.068 56.4665 208.49 56.5264 208.953 56.5264C209.193 56.5264 209.435 56.5133 209.68 56.4873C209.93 56.4665 210.169 56.4352 210.398 56.3936C210.628 56.3519 210.844 56.2998 211.047 56.2373C211.25 56.1696 211.427 56.0915 211.578 56.0029L211.367 54.5107C211.268 54.5368 211.148 54.5628 211.008 54.5889C210.872 54.6149 210.727 54.6383 210.57 54.6592C210.409 54.6852 210.24 54.7061 210.062 54.7217C209.891 54.7373 209.721 54.7451 209.555 54.7451C209.326 54.7451 209.117 54.7191 208.93 54.667C208.747 54.6149 208.591 54.5264 208.461 54.4014C208.331 54.2816 208.229 54.1201 208.156 53.917C208.089 53.7087 208.055 53.4508 208.055 53.1436V49.5107H211.211V47.9092H208.055V45.8389ZM227.07 52.1123L229.211 56.3623H231.562V56.2607L229.117 51.5654C229.43 51.4248 229.711 51.2581 229.961 51.0654C230.216 50.8727 230.435 50.6462 230.617 50.3857C230.794 50.1305 230.93 49.8415 231.023 49.5186C231.122 49.1904 231.172 48.8232 231.172 48.417C231.172 47.8545 231.073 47.3597 230.875 46.9326C230.682 46.5055 230.406 46.1488 230.047 45.8623C229.682 45.5758 229.245 45.3597 228.734 45.2139C228.224 45.0628 227.654 44.9873 227.023 44.9873H223.211V56.3623H225.406V52.1123H227.07ZM225.406 50.3311V46.7686H227.023C227.326 46.7686 227.594 46.805 227.828 46.8779C228.062 46.9508 228.26 47.055 228.422 47.1904C228.604 47.3415 228.74 47.5342 228.828 47.7686C228.922 47.9977 228.969 48.2633 228.969 48.5654C228.969 48.8154 228.932 49.042 228.859 49.2451C228.792 49.4482 228.69 49.6227 228.555 49.7686C228.393 49.9508 228.182 50.0915 227.922 50.1904C227.667 50.2842 227.37 50.3311 227.031 50.3311H225.406ZM233.477 47.9092V49.6826H235.883V54.5967H233.477V56.3623H240.367V54.5967H238.078V47.9092H233.477ZM235.727 45.7451C235.727 45.9118 235.755 46.068 235.812 46.2139C235.875 46.3545 235.961 46.4743 236.07 46.5732C236.18 46.6774 236.31 46.7581 236.461 46.8154C236.617 46.8727 236.789 46.9014 236.977 46.9014C237.362 46.9014 237.667 46.7946 237.891 46.5811C238.12 46.3623 238.234 46.0837 238.234 45.7451C238.234 45.4066 238.12 45.1305 237.891 44.917C237.667 44.6982 237.362 44.5889 236.977 44.5889C236.789 44.5889 236.617 44.6175 236.461 44.6748C236.31 44.7321 236.18 44.8102 236.07 44.9092C235.961 45.0133 235.875 45.1383 235.812 45.2842C235.755 45.4248 235.727 45.5785 235.727 45.7451ZM242.508 56.3623H244.688V50.3545C244.76 50.2399 244.841 50.1357 244.93 50.042C245.018 49.9482 245.117 49.8675 245.227 49.7998C245.362 49.7061 245.516 49.6357 245.688 49.5889C245.865 49.542 246.057 49.5186 246.266 49.5186C246.516 49.5186 246.74 49.5446 246.938 49.5967C247.135 49.6436 247.305 49.7295 247.445 49.8545C247.586 49.9795 247.693 50.1514 247.766 50.3701C247.844 50.5837 247.883 50.8571 247.883 51.1904V56.3623H250.055V51.1592C250.055 50.5446 249.982 50.0238 249.836 49.5967C249.695 49.1644 249.497 48.8102 249.242 48.5342C248.982 48.2633 248.674 48.0654 248.32 47.9404C247.966 47.8154 247.576 47.7529 247.148 47.7529C246.815 47.7529 246.5 47.7998 246.203 47.8936C245.906 47.9873 245.633 48.1227 245.383 48.2998C245.237 48.404 245.099 48.5212 244.969 48.6514C244.839 48.7816 244.719 48.9248 244.609 49.0811L244.477 47.9092H242.508V56.3623ZM251.898 52.0732V52.2373C251.898 52.8519 251.977 53.4222 252.133 53.9482C252.294 54.4691 252.523 54.9196 252.82 55.2998C253.117 55.68 253.474 55.9795 253.891 56.1982C254.312 56.4118 254.786 56.5186 255.312 56.5186C255.578 56.5186 255.826 56.4899 256.055 56.4326C256.289 56.3753 256.503 56.2946 256.695 56.1904C256.826 56.1175 256.948 56.0342 257.062 55.9404C257.177 55.8467 257.286 55.7425 257.391 55.6279V56.1123C257.391 56.3988 257.349 56.6566 257.266 56.8857C257.188 57.1149 257.073 57.3076 256.922 57.4639C256.755 57.6357 256.547 57.766 256.297 57.8545C256.052 57.943 255.771 57.9873 255.453 57.9873C255.255 57.9873 255.062 57.9665 254.875 57.9248C254.693 57.8883 254.516 57.8311 254.344 57.7529C254.167 57.6748 253.997 57.5732 253.836 57.4482C253.674 57.3285 253.523 57.1878 253.383 57.0264L252.406 58.3467C252.589 58.5811 252.807 58.7816 253.062 58.9482C253.318 59.1201 253.589 59.2607 253.875 59.3701C254.161 59.4795 254.451 59.5602 254.742 59.6123C255.034 59.6644 255.307 59.6904 255.562 59.6904C256.156 59.6904 256.698 59.6097 257.188 59.4482C257.682 59.292 258.107 59.0602 258.461 58.7529C258.81 58.4456 259.081 58.068 259.273 57.6201C259.471 57.1722 259.57 56.6618 259.57 56.0889V47.9092H257.594L257.508 48.7139C257.404 48.5837 257.289 48.4665 257.164 48.3623C257.039 48.2529 256.904 48.1592 256.758 48.0811C256.565 47.9717 256.349 47.891 256.109 47.8389C255.875 47.7816 255.615 47.7529 255.328 47.7529C254.797 47.7529 254.32 47.8571 253.898 48.0654C253.477 48.2738 253.117 48.568 252.82 48.9482C252.523 49.3285 252.294 49.7842 252.133 50.3154C251.977 50.8467 251.898 51.4326 251.898 52.0732ZM254.078 52.2373V52.0732C254.078 51.7191 254.115 51.3883 254.188 51.0811C254.26 50.7686 254.372 50.4951 254.523 50.2607C254.669 50.0316 254.854 49.8519 255.078 49.7217C255.302 49.5863 255.568 49.5186 255.875 49.5186C256.042 49.5186 256.195 49.5342 256.336 49.5654C256.482 49.5967 256.615 49.641 256.734 49.6982C256.875 49.766 257 49.8545 257.109 49.9639C257.219 50.0732 257.312 50.2008 257.391 50.3467V53.9248C257.318 54.055 257.232 54.1722 257.133 54.2764C257.034 54.3805 256.919 54.4691 256.789 54.542C256.664 54.6097 256.523 54.6618 256.367 54.6982C256.216 54.7347 256.047 54.7529 255.859 54.7529C255.552 54.7529 255.286 54.6878 255.062 54.5576C254.839 54.4274 254.654 54.2477 254.508 54.0186C254.362 53.7946 254.253 53.5316 254.18 53.2295C254.112 52.9222 254.078 52.5915 254.078 52.2373Z" fill="white"/>
<path d="M103.682 128.862V111.711H99.1795L87.6662 129.723L87.776 132.413H99.3077V138.362H103.682V132.413H107.032V128.862H103.682ZM92.1324 128.862L98.7952 118.52L99.3077 117.569V128.862H92.1324ZM121.965 138.362V111.711H121.691L110.727 115.775V119.637L117.554 117.129V138.362H121.965ZM140.596 137.795V134.097H136.295V137.96C136.295 139.168 136.148 140.254 135.855 141.218C135.575 142.182 135.172 143.097 134.647 143.963L137.1 145.263C138.15 144.323 138.992 143.17 139.626 141.804C140.273 140.449 140.596 139.113 140.596 137.795ZM168.873 128.203V121.888C168.873 120.18 168.672 118.673 168.269 117.367C167.867 116.049 167.299 114.939 166.567 114.036C165.811 113.145 164.895 112.474 163.821 112.022C162.76 111.559 161.552 111.327 160.197 111.327C158.855 111.327 157.647 111.559 156.573 112.022C155.511 112.474 154.608 113.145 153.864 114.036C153.12 114.939 152.546 116.049 152.143 117.367C151.753 118.673 151.558 120.18 151.558 121.888V128.203C151.558 129.912 151.753 131.425 152.143 132.743C152.546 134.049 153.126 135.141 153.882 136.019C154.627 136.922 155.536 137.606 156.61 138.069C157.683 138.521 158.892 138.747 160.234 138.747C161.588 138.747 162.796 138.521 163.858 138.069C164.932 137.606 165.835 136.922 166.567 136.019C167.311 135.141 167.879 134.049 168.269 132.743C168.672 131.425 168.873 129.912 168.873 128.203ZM155.951 126.648C155.951 126.294 155.951 125.995 155.951 125.751C155.951 125.507 155.951 125.153 155.951 124.689V121.101C155.951 120.003 156.048 119.051 156.244 118.246C156.439 117.428 156.738 116.763 157.14 116.251C157.482 115.799 157.909 115.458 158.422 115.226C158.934 114.994 159.526 114.878 160.197 114.878C160.82 114.878 161.375 114.976 161.863 115.171C162.363 115.366 162.784 115.659 163.126 116.049C163.516 116.489 163.815 117.056 164.023 117.752C164.242 118.447 164.377 119.271 164.426 120.223L155.951 126.648ZM164.462 128.936C164.462 130.058 164.358 131.034 164.151 131.864C163.956 132.694 163.657 133.365 163.254 133.878C162.9 134.317 162.473 134.653 161.973 134.884C161.472 135.104 160.893 135.214 160.234 135.214C159.563 135.214 158.971 135.098 158.458 134.866C157.958 134.634 157.537 134.287 157.195 133.823C156.854 133.396 156.579 132.859 156.372 132.212C156.176 131.565 156.048 130.821 155.987 129.979L164.462 123.591C164.462 123.945 164.462 124.286 164.462 124.616C164.462 124.945 164.462 125.263 164.462 125.568V128.936ZM189.701 128.203V121.888C189.701 120.18 189.499 118.673 189.097 117.367C188.694 116.049 188.127 114.939 187.394 114.036C186.638 113.145 185.723 112.474 184.649 112.022C183.587 111.559 182.379 111.327 181.025 111.327C179.682 111.327 178.474 111.559 177.4 112.022C176.339 112.474 175.436 113.145 174.691 114.036C173.947 114.939 173.373 116.049 172.971 117.367C172.58 118.673 172.385 120.18 172.385 121.888V128.203C172.385 129.912 172.58 131.425 172.971 132.743C173.373 134.049 173.953 135.141 174.71 136.019C175.454 136.922 176.363 137.606 177.437 138.069C178.511 138.521 179.719 138.747 181.061 138.747C182.416 138.747 183.624 138.521 184.685 138.069C185.759 137.606 186.662 136.922 187.394 136.019C188.139 135.141 188.706 134.049 189.097 132.743C189.499 131.425 189.701 129.912 189.701 128.203ZM176.778 126.648C176.778 126.294 176.778 125.995 176.778 125.751C176.778 125.507 176.778 125.153 176.778 124.689V121.101C176.778 120.003 176.876 119.051 177.071 118.246C177.266 117.428 177.565 116.763 177.968 116.251C178.309 115.799 178.737 115.458 179.249 115.226C179.762 114.994 180.353 114.878 181.025 114.878C181.647 114.878 182.202 114.976 182.69 115.171C183.191 115.366 183.612 115.659 183.953 116.049C184.344 116.489 184.643 117.056 184.85 117.752C185.07 118.447 185.204 119.271 185.253 120.223L176.778 126.648ZM185.289 128.936C185.289 130.058 185.186 131.034 184.978 131.864C184.783 132.694 184.484 133.365 184.081 133.878C183.727 134.317 183.3 134.653 182.8 134.884C182.3 135.104 181.72 135.214 181.061 135.214C180.39 135.214 179.798 135.098 179.286 134.866C178.785 134.634 178.364 134.287 178.023 133.823C177.681 133.396 177.406 132.859 177.199 132.212C177.004 131.565 176.876 130.821 176.815 129.979L185.289 123.591C185.289 123.945 185.289 124.286 185.289 124.616C185.289 124.945 185.289 125.263 185.289 125.568V128.936ZM210.528 128.203V121.888C210.528 120.18 210.327 118.673 209.924 117.367C209.521 116.049 208.954 114.939 208.222 114.036C207.465 113.145 206.55 112.474 205.476 112.022C204.415 111.559 203.206 111.327 201.852 111.327C200.51 111.327 199.302 111.559 198.228 112.022C197.166 112.474 196.263 113.145 195.519 114.036C194.774 114.939 194.201 116.049 193.798 117.367C193.408 118.673 193.212 120.18 193.212 121.888V128.203C193.212 129.912 193.408 131.425 193.798 132.743C194.201 134.049 194.78 135.141 195.537 136.019C196.281 136.922 197.19 137.606 198.264 138.069C199.338 138.521 200.546 138.747 201.889 138.747C203.243 138.747 204.451 138.521 205.513 138.069C206.587 137.606 207.49 136.922 208.222 136.019C208.966 135.141 209.534 134.049 209.924 132.743C210.327 131.425 210.528 129.912 210.528 128.203ZM197.605 126.648C197.605 126.294 197.605 125.995 197.605 125.751C197.605 125.507 197.605 125.153 197.605 124.689V121.101C197.605 120.003 197.703 119.051 197.898 118.246C198.093 117.428 198.392 116.763 198.795 116.251C199.137 115.799 199.564 115.458 200.076 115.226C200.589 114.994 201.181 114.878 201.852 114.878C202.474 114.878 203.029 114.976 203.518 115.171C204.018 115.366 204.439 115.659 204.781 116.049C205.171 116.489 205.47 117.056 205.677 117.752C205.897 118.447 206.031 119.271 206.08 120.223L197.605 126.648ZM206.117 128.936C206.117 130.058 206.013 131.034 205.806 131.864C205.61 132.694 205.311 133.365 204.909 133.878C204.555 134.317 204.128 134.653 203.627 134.884C203.127 135.104 202.547 135.214 201.889 135.214C201.217 135.214 200.626 135.098 200.113 134.866C199.613 134.634 199.192 134.287 198.85 133.823C198.508 133.396 198.234 132.859 198.026 132.212C197.831 131.565 197.703 130.821 197.642 129.979L206.117 123.591C206.117 123.945 206.117 124.286 206.117 124.616C206.117 124.945 206.117 125.263 206.117 125.568V128.936Z" fill="#8EFE1C"/>
<path d="M52.9141 160.987H51.5156L51.4922 168.69C51.4818 169.029 51.4271 169.354 51.3281 169.667C51.2292 169.979 51.0859 170.256 50.8984 170.495C50.7057 170.74 50.4688 170.935 50.1875 171.081C49.9062 171.222 49.5807 171.292 49.2109 171.292C48.8411 171.292 48.513 171.219 48.2266 171.073C47.9453 170.927 47.7109 170.735 47.5234 170.495C47.3307 170.256 47.1823 169.979 47.0781 169.667C46.9792 169.354 46.9271 169.029 46.9219 168.69L46.8906 160.987H45.5156L45.5 168.69C45.5052 169.222 45.599 169.722 45.7812 170.19C45.9635 170.654 46.2161 171.058 46.5391 171.401C46.862 171.75 47.25 172.024 47.7031 172.222C48.1562 172.42 48.6589 172.519 49.2109 172.519C49.7526 172.519 50.25 172.42 50.7031 172.222C51.1562 172.019 51.5469 171.743 51.875 171.394C52.2031 171.05 52.4609 170.646 52.6484 170.183C52.8359 169.719 52.9297 169.222 52.9297 168.69L52.9141 160.987ZM55.3828 172.362H56.8281V166.3C56.9271 166.118 57.0417 165.951 57.1719 165.8C57.3073 165.649 57.4531 165.516 57.6094 165.401C57.8021 165.271 58.013 165.17 58.2422 165.097C58.4714 165.019 58.7188 164.979 58.9844 164.979C59.2917 164.979 59.5625 165.016 59.7969 165.089C60.0365 165.162 60.2396 165.279 60.4062 165.44C60.5677 165.602 60.6901 165.813 60.7734 166.073C60.8568 166.334 60.8984 166.651 60.8984 167.026V172.362H62.3438V166.995C62.3438 166.433 62.2734 165.948 62.1328 165.542C61.9974 165.131 61.8021 164.792 61.5469 164.526C61.2917 164.261 60.9818 164.065 60.6172 163.94C60.2578 163.815 59.8568 163.753 59.4141 163.753C59.0859 163.758 58.7734 163.808 58.4766 163.901C58.1849 163.99 57.9141 164.118 57.6641 164.284C57.4974 164.394 57.3385 164.524 57.1875 164.675C57.0417 164.821 56.9062 164.982 56.7812 165.159L56.6797 163.909H55.3828V172.362ZM65.2188 163.909V165.167H68.0938V171.112H65.2188V172.362H72.2969V171.112H69.5391V163.909H65.2188ZM67.9062 161.69C67.9062 161.925 67.9766 162.12 68.1172 162.276C68.263 162.433 68.4818 162.511 68.7734 162.511C69.0599 162.511 69.276 162.433 69.4219 162.276C69.5677 162.12 69.6406 161.925 69.6406 161.69C69.6406 161.56 69.6198 161.44 69.5781 161.331C69.5365 161.222 69.474 161.131 69.3906 161.058C69.3229 160.99 69.237 160.938 69.1328 160.901C69.0286 160.86 68.9089 160.839 68.7734 160.839C68.638 160.839 68.5156 160.86 68.4062 160.901C68.3021 160.938 68.2161 160.99 68.1484 161.058C68.0651 161.136 68.0026 161.229 67.9609 161.339C67.9245 161.448 67.9062 161.565 67.9062 161.69ZM74.3359 168.065V168.229C74.3359 168.834 74.4115 169.399 74.5625 169.925C74.7188 170.446 74.9427 170.899 75.2344 171.284C75.526 171.67 75.8802 171.972 76.2969 172.19C76.7188 172.409 77.1979 172.519 77.7344 172.519C78.0104 172.519 78.2682 172.493 78.5078 172.44C78.7474 172.388 78.9688 172.313 79.1719 172.214C79.3333 172.141 79.4818 172.052 79.6172 171.948C79.7578 171.844 79.8906 171.727 80.0156 171.597V175.612H81.4609V163.909H80.1328L80.0703 164.745C79.9609 164.62 79.8438 164.506 79.7188 164.401C79.5938 164.297 79.4609 164.206 79.3203 164.128C79.1016 164.003 78.8594 163.909 78.5938 163.847C78.3333 163.784 78.0521 163.753 77.75 163.753C77.2083 163.753 76.724 163.86 76.2969 164.073C75.875 164.287 75.5182 164.584 75.2266 164.964C74.9349 165.344 74.7135 165.8 74.5625 166.331C74.4115 166.857 74.3359 167.435 74.3359 168.065ZM75.7812 168.229V168.065C75.7812 167.654 75.8255 167.261 75.9141 166.886C76.0078 166.511 76.151 166.177 76.3438 165.886C76.5312 165.599 76.7708 165.37 77.0625 165.198C77.3542 165.026 77.7005 164.94 78.1016 164.94C78.3255 164.94 78.5312 164.969 78.7188 165.026C78.9115 165.078 79.0885 165.154 79.25 165.253C79.4062 165.352 79.5469 165.469 79.6719 165.604C79.8021 165.735 79.9167 165.881 80.0156 166.042V170.214C79.9115 170.386 79.7943 170.545 79.6641 170.69C79.5339 170.831 79.3854 170.951 79.2188 171.05C79.0625 171.138 78.8906 171.209 78.7031 171.261C78.5156 171.313 78.3099 171.339 78.0859 171.339C77.6849 171.339 77.3385 171.256 77.0469 171.089C76.7604 170.917 76.5234 170.688 76.3359 170.401C76.1484 170.115 76.0078 169.784 75.9141 169.409C75.8255 169.034 75.7812 168.641 75.7812 168.229ZM89.7812 172.362H91.0938V163.909H89.6406V169.972C89.5625 170.154 89.4635 170.323 89.3438 170.479C89.2292 170.631 89.0938 170.761 88.9375 170.87C88.75 171.006 88.5286 171.112 88.2734 171.19C88.0182 171.263 87.7292 171.3 87.4062 171.3C87.1302 171.3 86.8854 171.263 86.6719 171.19C86.4635 171.118 86.2865 170.99 86.1406 170.808C85.9948 170.631 85.8854 170.391 85.8125 170.089C85.7396 169.787 85.7031 169.407 85.7031 168.948V163.909H84.2578V168.933C84.2578 169.563 84.3255 170.104 84.4609 170.558C84.6016 171.006 84.7995 171.375 85.0547 171.667C85.3099 171.959 85.6172 172.175 85.9766 172.315C86.3359 172.451 86.737 172.519 87.1797 172.519C87.7318 172.519 88.2188 172.404 88.6406 172.175C89.0625 171.94 89.4141 171.615 89.6953 171.198L89.7812 172.362ZM97.5547 172.519C98.3776 172.519 99.0677 172.354 99.625 172.026C100.188 171.693 100.609 171.313 100.891 170.886L100.008 170.198C99.7422 170.542 99.4089 170.818 99.0078 171.026C98.6068 171.235 98.1484 171.339 97.6328 171.339C97.2422 171.339 96.8854 171.266 96.5625 171.12C96.2396 170.974 95.9635 170.774 95.7344 170.519C95.5104 170.279 95.3333 170.003 95.2031 169.69C95.0781 169.378 94.9974 169.016 94.9609 168.604V168.55H101V167.901C101 167.313 100.924 166.766 100.773 166.261C100.628 165.756 100.404 165.315 100.102 164.94C99.7995 164.571 99.4193 164.282 98.9609 164.073C98.5078 163.86 97.9766 163.753 97.3672 163.753C96.8828 163.753 96.4089 163.852 95.9453 164.05C95.487 164.248 95.0781 164.532 94.7188 164.901C94.3542 165.276 94.0625 165.735 93.8438 166.276C93.625 166.813 93.5156 167.422 93.5156 168.104V168.433C93.5156 169.021 93.6146 169.565 93.8125 170.065C94.0104 170.565 94.2865 170.998 94.6406 171.362C94.9948 171.727 95.4193 172.011 95.9141 172.214C96.4141 172.417 96.9609 172.519 97.5547 172.519ZM97.3672 164.94C97.737 164.94 98.0547 165.008 98.3203 165.144C98.5911 165.279 98.8151 165.456 98.9922 165.675C99.1693 165.894 99.3073 166.154 99.4062 166.456C99.5052 166.753 99.5547 167.032 99.5547 167.292V167.362H95.0078C95.0651 166.972 95.1641 166.628 95.3047 166.331C95.4505 166.029 95.6276 165.774 95.8359 165.565C96.0443 165.362 96.2786 165.209 96.5391 165.104C96.7995 164.995 97.0755 164.94 97.3672 164.94ZM118.469 169.417L119.367 172.362H120.805L117.195 160.987H115.984L112.312 172.362H113.758L114.672 169.417H118.469ZM115.062 168.159L116.586 163.222L118.086 168.159H115.062ZM122.648 160.987V162.245H125.312V171.112H122.648V172.362H129.523V171.112H126.797V162.245H129.523V160.987H122.648ZM147.82 169.487C147.82 169.8 147.753 170.071 147.617 170.3C147.482 170.524 147.307 170.709 147.094 170.854C146.88 171.006 146.635 171.118 146.359 171.19C146.089 171.258 145.812 171.292 145.531 171.292C145.177 171.292 144.849 171.245 144.547 171.151C144.25 171.052 143.987 170.907 143.758 170.714C143.529 170.526 143.341 170.297 143.195 170.026C143.049 169.75 142.953 169.435 142.906 169.081H141.43C141.445 169.571 141.552 170.016 141.75 170.417C141.953 170.813 142.227 171.159 142.57 171.456C142.956 171.8 143.409 172.063 143.93 172.245C144.456 172.427 144.99 172.519 145.531 172.519C145.984 172.519 146.438 172.456 146.891 172.331C147.344 172.201 147.75 172.008 148.109 171.753C148.469 171.503 148.76 171.188 148.984 170.808C149.214 170.427 149.328 169.982 149.328 169.472C149.328 168.966 149.221 168.521 149.008 168.136C148.799 167.75 148.523 167.425 148.18 167.159C147.831 166.873 147.445 166.638 147.023 166.456C146.602 166.269 146.18 166.11 145.758 165.979C145.503 165.901 145.229 165.81 144.938 165.706C144.651 165.602 144.385 165.472 144.141 165.315C143.891 165.159 143.685 164.969 143.523 164.745C143.362 164.516 143.279 164.237 143.273 163.909C143.273 163.607 143.333 163.341 143.453 163.112C143.578 162.883 143.745 162.69 143.953 162.534C144.156 162.378 144.388 162.261 144.648 162.183C144.914 162.104 145.185 162.065 145.461 162.065C145.805 162.065 146.112 162.12 146.383 162.229C146.659 162.334 146.896 162.482 147.094 162.675C147.292 162.868 147.451 163.099 147.57 163.37C147.69 163.636 147.771 163.933 147.812 164.261H149.297C149.286 163.74 149.174 163.269 148.961 162.847C148.747 162.425 148.464 162.065 148.109 161.769C147.755 161.472 147.349 161.243 146.891 161.081C146.432 160.914 145.956 160.831 145.461 160.831C145.013 160.831 144.568 160.901 144.125 161.042C143.682 161.177 143.286 161.378 142.938 161.644C142.589 161.909 142.305 162.235 142.086 162.62C141.872 163.006 141.766 163.443 141.766 163.933C141.766 164.422 141.872 164.849 142.086 165.214C142.305 165.573 142.586 165.886 142.93 166.151C143.268 166.412 143.643 166.636 144.055 166.823C144.471 167.006 144.88 167.162 145.281 167.292C145.557 167.381 145.844 167.479 146.141 167.589C146.443 167.698 146.719 167.834 146.969 167.995C147.219 168.162 147.422 168.365 147.578 168.604C147.74 168.844 147.82 169.138 147.82 169.487ZM157.047 172.362H158.359V163.909H156.906V169.972C156.828 170.154 156.729 170.323 156.609 170.479C156.495 170.631 156.359 170.761 156.203 170.87C156.016 171.006 155.794 171.112 155.539 171.19C155.284 171.263 154.995 171.3 154.672 171.3C154.396 171.3 154.151 171.263 153.938 171.19C153.729 171.118 153.552 170.99 153.406 170.808C153.26 170.631 153.151 170.391 153.078 170.089C153.005 169.787 152.969 169.407 152.969 168.948V163.909H151.523V168.933C151.523 169.563 151.591 170.104 151.727 170.558C151.867 171.006 152.065 171.375 152.32 171.667C152.576 171.959 152.883 172.175 153.242 172.315C153.602 172.451 154.003 172.519 154.445 172.519C154.997 172.519 155.484 172.404 155.906 172.175C156.328 171.94 156.68 171.615 156.961 171.198L157.047 172.362ZM161.078 175.612H162.523V171.55C162.628 171.664 162.74 171.771 162.859 171.87C162.979 171.964 163.107 172.05 163.242 172.128C163.466 172.253 163.716 172.349 163.992 172.417C164.273 172.485 164.576 172.519 164.898 172.519C165.43 172.519 165.901 172.409 166.312 172.19C166.729 171.972 167.078 171.67 167.359 171.284C167.641 170.899 167.854 170.446 168 169.925C168.146 169.399 168.219 168.834 168.219 168.229V168.065C168.219 167.435 168.146 166.857 168 166.331C167.854 165.8 167.641 165.344 167.359 164.964C167.078 164.584 166.729 164.287 166.312 164.073C165.896 163.86 165.417 163.753 164.875 163.753C164.568 163.753 164.279 163.787 164.008 163.854C163.742 163.917 163.5 164.011 163.281 164.136C163.125 164.219 162.979 164.321 162.844 164.44C162.708 164.555 162.583 164.685 162.469 164.831L162.398 163.909H161.078V175.612ZM166.773 168.065V168.229C166.773 168.641 166.727 169.034 166.633 169.409C166.544 169.784 166.406 170.115 166.219 170.401C166.031 170.688 165.792 170.917 165.5 171.089C165.208 171.256 164.862 171.339 164.461 171.339C164.211 171.339 163.982 171.308 163.773 171.245C163.57 171.183 163.385 171.097 163.219 170.987C163.073 170.894 162.943 170.779 162.828 170.644C162.714 170.508 162.612 170.362 162.523 170.206V166.136C162.622 165.959 162.737 165.797 162.867 165.651C162.997 165.506 163.146 165.383 163.312 165.284C163.464 165.185 163.633 165.11 163.82 165.058C164.013 165.006 164.221 164.979 164.445 164.979C164.852 164.979 165.201 165.063 165.492 165.229C165.784 165.396 166.026 165.62 166.219 165.901C166.406 166.188 166.544 166.519 166.633 166.894C166.727 167.263 166.773 167.654 166.773 168.065ZM174.43 172.519C175.253 172.519 175.943 172.354 176.5 172.026C177.062 171.693 177.484 171.313 177.766 170.886L176.883 170.198C176.617 170.542 176.284 170.818 175.883 171.026C175.482 171.235 175.023 171.339 174.508 171.339C174.117 171.339 173.76 171.266 173.438 171.12C173.115 170.974 172.839 170.774 172.609 170.519C172.385 170.279 172.208 170.003 172.078 169.69C171.953 169.378 171.872 169.016 171.836 168.604V168.55H177.875V167.901C177.875 167.313 177.799 166.766 177.648 166.261C177.503 165.756 177.279 165.315 176.977 164.94C176.674 164.571 176.294 164.282 175.836 164.073C175.383 163.86 174.852 163.753 174.242 163.753C173.758 163.753 173.284 163.852 172.82 164.05C172.362 164.248 171.953 164.532 171.594 164.901C171.229 165.276 170.938 165.735 170.719 166.276C170.5 166.813 170.391 167.422 170.391 168.104V168.433C170.391 169.021 170.49 169.565 170.688 170.065C170.885 170.565 171.161 170.998 171.516 171.362C171.87 171.727 172.294 172.011 172.789 172.214C173.289 172.417 173.836 172.519 174.43 172.519ZM174.242 164.94C174.612 164.94 174.93 165.008 175.195 165.144C175.466 165.279 175.69 165.456 175.867 165.675C176.044 165.894 176.182 166.154 176.281 166.456C176.38 166.753 176.43 167.032 176.43 167.292V167.362H171.883C171.94 166.972 172.039 166.628 172.18 166.331C172.326 166.029 172.503 165.774 172.711 165.565C172.919 165.362 173.154 165.209 173.414 165.104C173.674 164.995 173.951 164.94 174.242 164.94ZM185.844 163.753C185.229 163.753 184.68 163.888 184.195 164.159C183.716 164.425 183.305 164.789 182.961 165.253L182.953 165.042L182.891 163.909H181.516V172.362H182.969V166.94C183.062 166.68 183.18 166.446 183.32 166.237C183.466 166.024 183.635 165.844 183.828 165.698C184.042 165.532 184.292 165.407 184.578 165.323C184.865 165.235 185.185 165.19 185.539 165.19C185.815 165.19 186.078 165.206 186.328 165.237C186.583 165.263 186.852 165.308 187.133 165.37L187.328 163.956C187.182 163.894 186.964 163.844 186.672 163.808C186.385 163.771 186.109 163.753 185.844 163.753ZM190.727 172.362H191.867L193.172 167.183L193.383 165.87L193.602 167.183L194.922 172.362H196.062L197.859 163.909H196.578L195.641 169.3L195.43 170.628L195.203 169.3L193.859 163.909H192.93L191.578 169.3L191.367 170.511L191.195 169.3L190.211 163.909H188.93L190.727 172.362ZM203.258 172.519C204.081 172.519 204.771 172.354 205.328 172.026C205.891 171.693 206.312 171.313 206.594 170.886L205.711 170.198C205.445 170.542 205.112 170.818 204.711 171.026C204.31 171.235 203.852 171.339 203.336 171.339C202.945 171.339 202.589 171.266 202.266 171.12C201.943 170.974 201.667 170.774 201.438 170.519C201.214 170.279 201.036 170.003 200.906 169.69C200.781 169.378 200.701 169.016 200.664 168.604V168.55H206.703V167.901C206.703 167.313 206.628 166.766 206.477 166.261C206.331 165.756 206.107 165.315 205.805 164.94C205.503 164.571 205.122 164.282 204.664 164.073C204.211 163.86 203.68 163.753 203.07 163.753C202.586 163.753 202.112 163.852 201.648 164.05C201.19 164.248 200.781 164.532 200.422 164.901C200.057 165.276 199.766 165.735 199.547 166.276C199.328 166.813 199.219 167.422 199.219 168.104V168.433C199.219 169.021 199.318 169.565 199.516 170.065C199.714 170.565 199.99 170.998 200.344 171.362C200.698 171.727 201.122 172.011 201.617 172.214C202.117 172.417 202.664 172.519 203.258 172.519ZM203.07 164.94C203.44 164.94 203.758 165.008 204.023 165.144C204.294 165.279 204.518 165.456 204.695 165.675C204.872 165.894 205.01 166.154 205.109 166.456C205.208 166.753 205.258 167.032 205.258 167.292V167.362H200.711C200.768 166.972 200.867 166.628 201.008 166.331C201.154 166.029 201.331 165.774 201.539 165.565C201.747 165.362 201.982 165.209 202.242 165.104C202.503 164.995 202.779 164.94 203.07 164.94ZM214.688 172.362H216.195V172.237C216.102 172.003 216.029 171.729 215.977 171.417C215.924 171.099 215.898 170.8 215.898 170.519V166.589C215.898 166.115 215.812 165.701 215.641 165.347C215.469 164.993 215.234 164.696 214.938 164.456C214.635 164.222 214.279 164.047 213.867 163.933C213.456 163.813 213.01 163.753 212.531 163.753C212.005 163.753 211.534 163.826 211.117 163.972C210.706 164.118 210.357 164.308 210.07 164.542C209.779 164.782 209.555 165.05 209.398 165.347C209.247 165.644 209.169 165.946 209.164 166.253H210.617C210.617 166.076 210.659 165.907 210.742 165.745C210.831 165.578 210.953 165.435 211.109 165.315C211.266 165.196 211.456 165.099 211.68 165.026C211.909 164.953 212.167 164.917 212.453 164.917C212.76 164.917 213.036 164.956 213.281 165.034C213.531 165.112 213.742 165.222 213.914 165.362C214.086 165.508 214.219 165.683 214.312 165.886C214.406 166.089 214.453 166.318 214.453 166.573V167.237H212.875C212.286 167.237 211.753 167.295 211.273 167.409C210.799 167.524 210.393 167.696 210.055 167.925C209.716 168.159 209.453 168.451 209.266 168.8C209.083 169.149 208.992 169.555 208.992 170.019C208.992 170.373 209.06 170.703 209.195 171.011C209.336 171.313 209.534 171.573 209.789 171.792C210.039 172.016 210.344 172.193 210.703 172.323C211.068 172.453 211.474 172.519 211.922 172.519C212.198 172.519 212.458 172.49 212.703 172.433C212.948 172.375 213.18 172.297 213.398 172.198C213.612 172.099 213.807 171.985 213.984 171.854C214.167 171.724 214.331 171.586 214.477 171.44C214.492 171.618 214.516 171.789 214.547 171.956C214.583 172.118 214.63 172.253 214.688 172.362ZM212.133 171.261C211.852 171.261 211.604 171.224 211.391 171.151C211.177 171.078 211 170.977 210.859 170.847C210.719 170.722 210.612 170.571 210.539 170.394C210.471 170.216 210.438 170.024 210.438 169.815C210.438 169.597 210.477 169.401 210.555 169.229C210.638 169.058 210.758 168.909 210.914 168.784C211.133 168.607 211.427 168.477 211.797 168.394C212.172 168.305 212.609 168.261 213.109 168.261H214.453V169.972C214.37 170.138 214.255 170.3 214.109 170.456C213.964 170.607 213.792 170.743 213.594 170.862C213.391 170.982 213.167 171.078 212.922 171.151C212.677 171.224 212.414 171.261 212.133 171.261ZM218.734 175.612H220.18V171.55C220.284 171.664 220.396 171.771 220.516 171.87C220.635 171.964 220.763 172.05 220.898 172.128C221.122 172.253 221.372 172.349 221.648 172.417C221.93 172.485 222.232 172.519 222.555 172.519C223.086 172.519 223.557 172.409 223.969 172.19C224.385 171.972 224.734 171.67 225.016 171.284C225.297 170.899 225.51 170.446 225.656 169.925C225.802 169.399 225.875 168.834 225.875 168.229V168.065C225.875 167.435 225.802 166.857 225.656 166.331C225.51 165.8 225.297 165.344 225.016 164.964C224.734 164.584 224.385 164.287 223.969 164.073C223.552 163.86 223.073 163.753 222.531 163.753C222.224 163.753 221.935 163.787 221.664 163.854C221.398 163.917 221.156 164.011 220.938 164.136C220.781 164.219 220.635 164.321 220.5 164.44C220.365 164.555 220.24 164.685 220.125 164.831L220.055 163.909H218.734V175.612ZM224.43 168.065V168.229C224.43 168.641 224.383 169.034 224.289 169.409C224.201 169.784 224.062 170.115 223.875 170.401C223.688 170.688 223.448 170.917 223.156 171.089C222.865 171.256 222.518 171.339 222.117 171.339C221.867 171.339 221.638 171.308 221.43 171.245C221.227 171.183 221.042 171.097 220.875 170.987C220.729 170.894 220.599 170.779 220.484 170.644C220.37 170.508 220.268 170.362 220.18 170.206V166.136C220.279 165.959 220.393 165.797 220.523 165.651C220.654 165.506 220.802 165.383 220.969 165.284C221.12 165.185 221.289 165.11 221.477 165.058C221.669 165.006 221.878 164.979 222.102 164.979C222.508 164.979 222.857 165.063 223.148 165.229C223.44 165.396 223.682 165.62 223.875 165.901C224.062 166.188 224.201 166.519 224.289 166.894C224.383 167.263 224.43 167.654 224.43 168.065ZM227.945 168.058V168.229C227.945 168.839 228.034 169.404 228.211 169.925C228.388 170.446 228.643 170.899 228.977 171.284C229.305 171.67 229.706 171.972 230.18 172.19C230.659 172.409 231.198 172.519 231.797 172.519C232.391 172.519 232.924 172.409 233.398 172.19C233.872 171.972 234.276 171.67 234.609 171.284C234.938 170.899 235.19 170.446 235.367 169.925C235.544 169.404 235.633 168.839 235.633 168.229V168.058C235.633 167.448 235.544 166.883 235.367 166.362C235.19 165.836 234.938 165.381 234.609 164.995C234.276 164.61 233.87 164.308 233.391 164.089C232.917 163.865 232.38 163.753 231.781 163.753C231.188 163.753 230.654 163.865 230.18 164.089C229.706 164.308 229.305 164.61 228.977 164.995C228.643 165.381 228.388 165.836 228.211 166.362C228.034 166.883 227.945 167.448 227.945 168.058ZM229.391 168.229V168.058C229.391 167.646 229.44 167.253 229.539 166.878C229.638 166.498 229.789 166.164 229.992 165.878C230.19 165.591 230.438 165.365 230.734 165.198C231.031 165.026 231.38 164.94 231.781 164.94C232.182 164.94 232.531 165.026 232.828 165.198C233.13 165.365 233.383 165.591 233.586 165.878C233.784 166.164 233.932 166.498 234.031 166.878C234.135 167.253 234.188 167.646 234.188 168.058V168.229C234.188 168.646 234.138 169.045 234.039 169.425C233.94 169.8 233.792 170.131 233.594 170.417C233.391 170.703 233.138 170.93 232.836 171.097C232.539 171.263 232.193 171.347 231.797 171.347C231.396 171.347 231.044 171.263 230.742 171.097C230.44 170.93 230.19 170.703 229.992 170.417C229.789 170.131 229.638 169.8 229.539 169.425C229.44 169.045 229.391 168.646 229.391 168.229ZM237.961 172.362H239.406V166.3C239.505 166.118 239.62 165.951 239.75 165.8C239.885 165.649 240.031 165.516 240.188 165.401C240.38 165.271 240.591 165.17 240.82 165.097C241.049 165.019 241.297 164.979 241.562 164.979C241.87 164.979 242.141 165.016 242.375 165.089C242.615 165.162 242.818 165.279 242.984 165.44C243.146 165.602 243.268 165.813 243.352 166.073C243.435 166.334 243.477 166.651 243.477 167.026V172.362H244.922V166.995C244.922 166.433 244.852 165.948 244.711 165.542C244.576 165.131 244.38 164.792 244.125 164.526C243.87 164.261 243.56 164.065 243.195 163.94C242.836 163.815 242.435 163.753 241.992 163.753C241.664 163.758 241.352 163.808 241.055 163.901C240.763 163.99 240.492 164.118 240.242 164.284C240.076 164.394 239.917 164.524 239.766 164.675C239.62 164.821 239.484 164.982 239.359 165.159L239.258 163.909H237.961V172.362ZM253.188 170.12C253.188 170.256 253.161 170.383 253.109 170.503C253.057 170.623 252.982 170.732 252.883 170.831C252.721 170.993 252.497 171.12 252.211 171.214C251.924 171.302 251.589 171.347 251.203 171.347C250.958 171.347 250.711 171.321 250.461 171.269C250.211 171.216 249.984 171.128 249.781 171.003C249.573 170.878 249.398 170.714 249.258 170.511C249.122 170.308 249.044 170.058 249.023 169.761H247.578C247.578 170.12 247.659 170.466 247.82 170.8C247.987 171.133 248.227 171.425 248.539 171.675C248.846 171.93 249.224 172.136 249.672 172.292C250.12 172.443 250.63 172.519 251.203 172.519C251.703 172.519 252.164 172.459 252.586 172.339C253.008 172.219 253.37 172.05 253.672 171.831C253.974 171.612 254.208 171.349 254.375 171.042C254.547 170.735 254.633 170.394 254.633 170.019C254.633 169.67 254.557 169.362 254.406 169.097C254.26 168.831 254.047 168.597 253.766 168.394C253.484 168.196 253.138 168.026 252.727 167.886C252.315 167.74 251.849 167.612 251.328 167.503C250.932 167.425 250.604 167.344 250.344 167.261C250.089 167.177 249.885 167.084 249.734 166.979C249.578 166.875 249.469 166.758 249.406 166.628C249.344 166.498 249.312 166.349 249.312 166.183C249.312 166.021 249.352 165.865 249.43 165.714C249.508 165.563 249.625 165.43 249.781 165.315C249.932 165.201 250.122 165.11 250.352 165.042C250.586 164.974 250.857 164.94 251.164 164.94C251.461 164.94 251.727 164.982 251.961 165.065C252.201 165.149 252.404 165.258 252.57 165.394C252.737 165.529 252.867 165.685 252.961 165.862C253.055 166.034 253.102 166.211 253.102 166.394H254.547C254.547 166.024 254.466 165.68 254.305 165.362C254.148 165.039 253.924 164.758 253.633 164.519C253.341 164.279 252.987 164.091 252.57 163.956C252.154 163.821 251.685 163.753 251.164 163.753C250.68 163.753 250.234 163.818 249.828 163.948C249.427 164.078 249.081 164.256 248.789 164.479C248.497 164.703 248.271 164.966 248.109 165.269C247.948 165.565 247.867 165.886 247.867 166.229C247.867 166.578 247.945 166.886 248.102 167.151C248.258 167.412 248.479 167.638 248.766 167.831C249.047 168.029 249.385 168.198 249.781 168.339C250.182 168.479 250.625 168.599 251.109 168.698C251.505 168.776 251.836 168.865 252.102 168.964C252.367 169.058 252.581 169.162 252.742 169.276C252.904 169.391 253.018 169.519 253.086 169.659C253.154 169.795 253.188 169.948 253.188 170.12Z" fill="white"/>
<path fill-rule="evenodd" clip-rule="evenodd" d="M126.713 224.536C119.926 225.457 114.316 230.048 112.23 236.389C111.761 237.817 111.322 240.382 111.322 241.701C111.322 243.787 111.899 246.783 112.675 248.729C114.173 252.484 116.853 255.434 120.353 257.181C122.329 258.167 123.886 258.606 126.642 258.954C128.035 259.13 128.502 259.139 129.695 259.013C133.7 258.589 136.821 257.474 140.197 255.262C142.593 253.691 144.556 252.033 148.022 248.652L150.186 246.54L151.901 248.209C155.8 252.004 157.892 253.798 160.23 255.353C163.466 257.504 166.075 258.513 169.552 258.957C171.309 259.182 172.561 259.103 174.963 258.616C181.651 257.26 186.812 252.438 188.532 245.937C188.675 245.396 188.881 244.245 188.989 243.379C189.21 241.618 189.105 239.838 188.649 237.61C187.42 231.598 183.309 226.962 177.633 225.185C173.461 223.879 168.618 224.148 164.38 225.92C160.818 227.41 157.483 229.878 152.354 234.821L150.241 236.857L148.113 234.791C145.297 232.058 143.376 230.359 141.599 229.03C136.537 225.243 131.874 223.835 126.713 224.536ZM130.616 231.538C134.497 232.06 137.331 233.854 143.122 239.458L145.475 241.735L143.154 244.002C138.546 248.501 135.372 250.639 131.972 251.531C130.236 251.986 127.649 252.016 126.168 251.597C122.049 250.434 119.42 247.236 118.971 242.844C118.855 241.704 118.953 240.18 119.204 239.209C120.079 235.837 122.723 233.02 125.99 231.979C127.691 231.438 128.965 231.316 130.616 231.538ZM172.973 231.538C175.042 231.817 176.826 232.628 178.299 233.961C179.688 235.217 180.625 236.748 181.178 238.663C181.597 240.113 181.601 243.005 181.186 244.425C180.132 248.025 177.369 250.697 173.714 251.647C172.435 251.98 169.755 251.953 168.409 251.594C166.133 250.987 163.734 249.635 161.288 247.583C159.962 246.47 155.162 241.882 155.106 241.673C155.065 241.519 158.857 237.793 160.288 236.58C164.958 232.624 169.028 231.007 172.973 231.538Z" fill="#8EFE1C"/>
<path d="M47.5156 286.016V284.281H42.8438V281.414H48.2812V279.625H40.6406V291H48.3047V289.227H42.8438V286.016H47.5156ZM50.2031 291H52.3828V284.992C52.4557 284.878 52.5365 284.773 52.625 284.68C52.7135 284.586 52.8125 284.505 52.9219 284.438C53.0573 284.344 53.2109 284.273 53.3828 284.227C53.5599 284.18 53.7526 284.156 53.9609 284.156C54.2109 284.156 54.4349 284.182 54.6328 284.234C54.8307 284.281 55 284.367 55.1406 284.492C55.2812 284.617 55.388 284.789 55.4609 285.008C55.5391 285.221 55.5781 285.495 55.5781 285.828V291H57.75V285.797C57.75 285.182 57.6771 284.661 57.5312 284.234C57.3906 283.802 57.1927 283.448 56.9375 283.172C56.6771 282.901 56.3698 282.703 56.0156 282.578C55.6615 282.453 55.2708 282.391 54.8438 282.391C54.5104 282.391 54.1953 282.438 53.8984 282.531C53.6016 282.625 53.3281 282.76 53.0781 282.938C52.9323 283.042 52.7943 283.159 52.6641 283.289C52.5339 283.419 52.4141 283.562 52.3047 283.719L52.1719 282.547H50.2031V291ZM63.7969 280.477H61.625V282.547H59.6953V284.148H61.625V287.992C61.625 288.549 61.6979 289.029 61.8438 289.43C61.9896 289.826 62.1979 290.151 62.4688 290.406C62.7344 290.667 63.0547 290.859 63.4297 290.984C63.8099 291.104 64.2318 291.164 64.6953 291.164C64.9349 291.164 65.1771 291.151 65.4219 291.125C65.6719 291.104 65.9115 291.073 66.1406 291.031C66.3698 290.99 66.5859 290.938 66.7891 290.875C66.9922 290.807 67.1693 290.729 67.3203 290.641L67.1094 289.148C67.0104 289.174 66.8906 289.201 66.75 289.227C66.6146 289.253 66.4688 289.276 66.3125 289.297C66.151 289.323 65.9818 289.344 65.8047 289.359C65.6328 289.375 65.4635 289.383 65.2969 289.383C65.0677 289.383 64.8594 289.357 64.6719 289.305C64.4896 289.253 64.3333 289.164 64.2031 289.039C64.0729 288.919 63.9714 288.758 63.8984 288.555C63.8307 288.346 63.7969 288.089 63.7969 287.781V284.148H66.9531V282.547H63.7969V280.477ZM73.5234 291.156C74.3411 291.156 75.0495 290.997 75.6484 290.68C76.2474 290.362 76.6849 290.008 76.9609 289.617L75.875 288.445C75.625 288.768 75.2995 289.01 74.8984 289.172C74.4974 289.333 74.0833 289.414 73.6562 289.414C73.3542 289.414 73.0755 289.367 72.8203 289.273C72.5651 289.18 72.3385 289.047 72.1406 288.875C71.9479 288.708 71.7943 288.523 71.6797 288.32C71.5651 288.112 71.4714 287.839 71.3984 287.5V287.477H77.1328V286.555C77.1328 285.935 77.0469 285.37 76.875 284.859C76.7031 284.344 76.4531 283.904 76.125 283.539C75.7917 283.174 75.3854 282.893 74.9062 282.695C74.4323 282.492 73.8906 282.391 73.2812 282.391C72.6927 282.391 72.1484 282.497 71.6484 282.711C71.1484 282.924 70.7161 283.224 70.3516 283.609C69.987 283.995 69.7031 284.456 69.5 284.992C69.2969 285.523 69.1953 286.112 69.1953 286.758V287.07C69.1953 287.638 69.2969 288.172 69.5 288.672C69.7083 289.167 70.0026 289.596 70.3828 289.961C70.763 290.331 71.2188 290.622 71.75 290.836C72.2812 291.049 72.8724 291.156 73.5234 291.156ZM73.2656 284.148C73.5417 284.148 73.7839 284.193 73.9922 284.281C74.2057 284.365 74.3854 284.479 74.5312 284.625C74.6771 284.776 74.7917 284.953 74.875 285.156C74.9583 285.359 75 285.576 75 285.805V285.977H71.4375C71.4896 285.701 71.5677 285.451 71.6719 285.227C71.776 285.003 71.9062 284.81 72.0625 284.648C72.2135 284.487 72.3906 284.365 72.5938 284.281C72.7969 284.193 73.0208 284.148 73.2656 284.148ZM85.1016 282.391C84.5339 282.391 84.0104 282.529 83.5312 282.805C83.0521 283.076 82.6406 283.451 82.2969 283.93L82.2812 283.742L82.1953 282.547H80.1719V291H82.3438V285.922C82.4427 285.682 82.5677 285.474 82.7188 285.297C82.8698 285.12 83.0521 284.974 83.2656 284.859C83.4427 284.76 83.6432 284.688 83.8672 284.641C84.0964 284.589 84.3516 284.562 84.6328 284.562C84.9036 284.562 85.1875 284.581 85.4844 284.617C85.7865 284.648 86.0807 284.698 86.3672 284.766L86.6875 282.602C86.5156 282.549 86.2891 282.503 86.0078 282.461C85.7318 282.414 85.4297 282.391 85.1016 282.391ZM92.625 280.477H90.4531V282.547H88.5234V284.148H90.4531V287.992C90.4531 288.549 90.526 289.029 90.6719 289.43C90.8177 289.826 91.026 290.151 91.2969 290.406C91.5625 290.667 91.8828 290.859 92.2578 290.984C92.638 291.104 93.0599 291.164 93.5234 291.164C93.763 291.164 94.0052 291.151 94.25 291.125C94.5 291.104 94.7396 291.073 94.9688 291.031C95.1979 290.99 95.4141 290.938 95.6172 290.875C95.8203 290.807 95.9974 290.729 96.1484 290.641L95.9375 289.148C95.8385 289.174 95.7188 289.201 95.5781 289.227C95.4427 289.253 95.2969 289.276 95.1406 289.297C94.9792 289.323 94.8099 289.344 94.6328 289.359C94.4609 289.375 94.2917 289.383 94.125 289.383C93.8958 289.383 93.6875 289.357 93.5 289.305C93.3177 289.253 93.1615 289.164 93.0312 289.039C92.901 288.919 92.7995 288.758 92.7266 288.555C92.6589 288.346 92.625 288.089 92.625 287.781V284.148H95.7812V282.547H92.625V280.477ZM103.531 291H105.734V290.867C105.625 290.654 105.542 290.398 105.484 290.102C105.427 289.805 105.398 289.43 105.398 288.977V285.352C105.398 284.862 105.307 284.432 105.125 284.062C104.943 283.688 104.69 283.378 104.367 283.133C104.044 282.888 103.661 282.703 103.219 282.578C102.781 282.453 102.307 282.391 101.797 282.391C101.229 282.391 100.724 282.464 100.281 282.609C99.8438 282.75 99.474 282.943 99.1719 283.188C98.8646 283.432 98.6302 283.716 98.4688 284.039C98.3125 284.362 98.2344 284.703 98.2344 285.062H100.406C100.406 284.911 100.427 284.773 100.469 284.648C100.516 284.523 100.586 284.417 100.68 284.328C100.784 284.229 100.919 284.154 101.086 284.102C101.253 284.044 101.451 284.016 101.68 284.016C101.94 284.016 102.167 284.049 102.359 284.117C102.557 284.18 102.721 284.271 102.852 284.391C102.977 284.505 103.07 284.643 103.133 284.805C103.195 284.961 103.227 285.138 103.227 285.336V285.836H102.016C101.391 285.836 100.836 285.893 100.352 286.008C99.8724 286.117 99.4688 286.279 99.1406 286.492C98.776 286.727 98.5026 287.026 98.3203 287.391C98.138 287.75 98.0469 288.164 98.0469 288.633C98.0469 288.997 98.1198 289.336 98.2656 289.648C98.4115 289.956 98.6146 290.221 98.875 290.445C99.1354 290.669 99.4453 290.844 99.8047 290.969C100.169 291.094 100.568 291.156 101 291.156C101.266 291.156 101.513 291.13 101.742 291.078C101.971 291.031 102.182 290.964 102.375 290.875C102.562 290.792 102.734 290.693 102.891 290.578C103.047 290.464 103.185 290.341 103.305 290.211C103.331 290.362 103.362 290.505 103.398 290.641C103.435 290.776 103.479 290.896 103.531 291ZM101.461 289.477C101.258 289.477 101.078 289.453 100.922 289.406C100.771 289.354 100.643 289.286 100.539 289.203C100.435 289.115 100.354 289.008 100.297 288.883C100.245 288.753 100.219 288.612 100.219 288.461C100.219 288.268 100.255 288.091 100.328 287.93C100.401 287.763 100.513 287.62 100.664 287.5C100.815 287.385 101.01 287.297 101.25 287.234C101.49 287.167 101.779 287.133 102.117 287.133H103.227V288.586C103.164 288.695 103.078 288.805 102.969 288.914C102.859 289.018 102.729 289.112 102.578 289.195C102.427 289.279 102.258 289.346 102.07 289.398C101.883 289.451 101.68 289.477 101.461 289.477ZM108.438 282.547V284.32H110.844V289.234H108.438V291H115.328V289.234H113.039V282.547H108.438ZM110.688 280.383C110.688 280.549 110.716 280.706 110.773 280.852C110.836 280.992 110.922 281.112 111.031 281.211C111.141 281.315 111.271 281.396 111.422 281.453C111.578 281.51 111.75 281.539 111.938 281.539C112.323 281.539 112.628 281.432 112.852 281.219C113.081 281 113.195 280.721 113.195 280.383C113.195 280.044 113.081 279.768 112.852 279.555C112.628 279.336 112.323 279.227 111.938 279.227C111.75 279.227 111.578 279.255 111.422 279.312C111.271 279.37 111.141 279.448 111.031 279.547C110.922 279.651 110.836 279.776 110.773 279.922C110.716 280.062 110.688 280.216 110.688 280.383ZM117.469 291H119.648V284.992C119.721 284.878 119.802 284.773 119.891 284.68C119.979 284.586 120.078 284.505 120.188 284.438C120.323 284.344 120.477 284.273 120.648 284.227C120.826 284.18 121.018 284.156 121.227 284.156C121.477 284.156 121.701 284.182 121.898 284.234C122.096 284.281 122.266 284.367 122.406 284.492C122.547 284.617 122.654 284.789 122.727 285.008C122.805 285.221 122.844 285.495 122.844 285.828V291H125.016V285.797C125.016 285.182 124.943 284.661 124.797 284.234C124.656 283.802 124.458 283.448 124.203 283.172C123.943 282.901 123.635 282.703 123.281 282.578C122.927 282.453 122.536 282.391 122.109 282.391C121.776 282.391 121.461 282.438 121.164 282.531C120.867 282.625 120.594 282.76 120.344 282.938C120.198 283.042 120.06 283.159 119.93 283.289C119.799 283.419 119.68 283.562 119.57 283.719L119.438 282.547H117.469V291ZM128.43 282.547H126.562V291H128.539V284.672C128.565 284.604 128.594 284.542 128.625 284.484C128.656 284.427 128.693 284.378 128.734 284.336C128.792 284.279 128.857 284.234 128.93 284.203C129.003 284.172 129.086 284.156 129.18 284.156C129.263 284.156 129.341 284.169 129.414 284.195C129.487 284.216 129.552 284.255 129.609 284.312C129.661 284.37 129.703 284.451 129.734 284.555C129.766 284.659 129.781 284.792 129.781 284.953V291H131.695V284.766C131.695 284.703 131.695 284.654 131.695 284.617C131.695 284.581 131.695 284.557 131.695 284.547C131.721 284.49 131.753 284.44 131.789 284.398C131.826 284.352 131.867 284.31 131.914 284.273C131.971 284.237 132.031 284.208 132.094 284.188C132.161 284.167 132.237 284.156 132.32 284.156C132.398 284.156 132.474 284.169 132.547 284.195C132.625 284.216 132.693 284.255 132.75 284.312C132.807 284.375 132.852 284.458 132.883 284.562C132.919 284.667 132.938 284.799 132.938 284.961V291H134.914V284.969C134.914 284.5 134.867 284.104 134.773 283.781C134.685 283.453 134.56 283.185 134.398 282.977C134.232 282.773 134.036 282.625 133.812 282.531C133.594 282.438 133.357 282.391 133.102 282.391C132.898 282.391 132.711 282.417 132.539 282.469C132.367 282.521 132.214 282.594 132.078 282.688C131.969 282.76 131.867 282.849 131.773 282.953C131.685 283.052 131.604 283.164 131.531 283.289C131.484 283.159 131.427 283.044 131.359 282.945C131.297 282.841 131.221 282.753 131.133 282.68C131.018 282.581 130.883 282.508 130.727 282.461C130.57 282.414 130.393 282.391 130.195 282.391C129.789 282.391 129.443 282.497 129.156 282.711C128.875 282.919 128.654 283.206 128.492 283.57L128.43 282.547ZM140.789 291.156C141.607 291.156 142.315 290.997 142.914 290.68C143.513 290.362 143.951 290.008 144.227 289.617L143.141 288.445C142.891 288.768 142.565 289.01 142.164 289.172C141.763 289.333 141.349 289.414 140.922 289.414C140.62 289.414 140.341 289.367 140.086 289.273C139.831 289.18 139.604 289.047 139.406 288.875C139.214 288.708 139.06 288.523 138.945 288.32C138.831 288.112 138.737 287.839 138.664 287.5V287.477H144.398V286.555C144.398 285.935 144.312 285.37 144.141 284.859C143.969 284.344 143.719 283.904 143.391 283.539C143.057 283.174 142.651 282.893 142.172 282.695C141.698 282.492 141.156 282.391 140.547 282.391C139.958 282.391 139.414 282.497 138.914 282.711C138.414 282.924 137.982 283.224 137.617 283.609C137.253 283.995 136.969 284.456 136.766 284.992C136.562 285.523 136.461 286.112 136.461 286.758V287.07C136.461 287.638 136.562 288.172 136.766 288.672C136.974 289.167 137.268 289.596 137.648 289.961C138.029 290.331 138.484 290.622 139.016 290.836C139.547 291.049 140.138 291.156 140.789 291.156ZM140.531 284.148C140.807 284.148 141.049 284.193 141.258 284.281C141.471 284.365 141.651 284.479 141.797 284.625C141.943 284.776 142.057 284.953 142.141 285.156C142.224 285.359 142.266 285.576 142.266 285.805V285.977H138.703C138.755 285.701 138.833 285.451 138.938 285.227C139.042 285.003 139.172 284.81 139.328 284.648C139.479 284.487 139.656 284.365 139.859 284.281C140.062 284.193 140.286 284.148 140.531 284.148ZM146.297 291H148.477V284.992C148.549 284.878 148.63 284.773 148.719 284.68C148.807 284.586 148.906 284.505 149.016 284.438C149.151 284.344 149.305 284.273 149.477 284.227C149.654 284.18 149.846 284.156 150.055 284.156C150.305 284.156 150.529 284.182 150.727 284.234C150.924 284.281 151.094 284.367 151.234 284.492C151.375 284.617 151.482 284.789 151.555 285.008C151.633 285.221 151.672 285.495 151.672 285.828V291H153.844V285.797C153.844 285.182 153.771 284.661 153.625 284.234C153.484 283.802 153.286 283.448 153.031 283.172C152.771 282.901 152.464 282.703 152.109 282.578C151.755 282.453 151.365 282.391 150.938 282.391C150.604 282.391 150.289 282.438 149.992 282.531C149.695 282.625 149.422 282.76 149.172 282.938C149.026 283.042 148.888 283.159 148.758 283.289C148.628 283.419 148.508 283.562 148.398 283.719L148.266 282.547H146.297V291ZM159.891 280.477H157.719V282.547H155.789V284.148H157.719V287.992C157.719 288.549 157.792 289.029 157.938 289.43C158.083 289.826 158.292 290.151 158.562 290.406C158.828 290.667 159.148 290.859 159.523 290.984C159.904 291.104 160.326 291.164 160.789 291.164C161.029 291.164 161.271 291.151 161.516 291.125C161.766 291.104 162.005 291.073 162.234 291.031C162.464 290.99 162.68 290.938 162.883 290.875C163.086 290.807 163.263 290.729 163.414 290.641L163.203 289.148C163.104 289.174 162.984 289.201 162.844 289.227C162.708 289.253 162.562 289.276 162.406 289.297C162.245 289.323 162.076 289.344 161.898 289.359C161.727 289.375 161.557 289.383 161.391 289.383C161.161 289.383 160.953 289.357 160.766 289.305C160.583 289.253 160.427 289.164 160.297 289.039C160.167 288.919 160.065 288.758 159.992 288.555C159.924 288.346 159.891 288.089 159.891 287.781V284.148H163.047V282.547H159.891V280.477ZM177.383 286.828H179.078C179.698 286.828 180.258 286.74 180.758 286.562C181.258 286.385 181.685 286.138 182.039 285.82C182.388 285.508 182.656 285.135 182.844 284.703C183.036 284.271 183.133 283.799 183.133 283.289C183.133 282.742 183.036 282.245 182.844 281.797C182.656 281.349 182.388 280.964 182.039 280.641C181.685 280.323 181.258 280.076 180.758 279.898C180.258 279.716 179.698 279.625 179.078 279.625H175.188V291H177.383V286.828ZM177.383 285.047V281.406H179.078C179.391 281.406 179.661 281.456 179.891 281.555C180.12 281.654 180.312 281.789 180.469 281.961C180.62 282.133 180.732 282.333 180.805 282.562C180.883 282.792 180.922 283.039 180.922 283.305C180.922 283.534 180.883 283.755 180.805 283.969C180.732 284.177 180.62 284.362 180.469 284.523C180.312 284.685 180.12 284.812 179.891 284.906C179.661 285 179.391 285.047 179.078 285.047H177.383ZM184.438 286.695V286.859C184.438 287.479 184.526 288.052 184.703 288.578C184.88 289.099 185.141 289.552 185.484 289.938C185.823 290.323 186.24 290.625 186.734 290.844C187.234 291.057 187.802 291.164 188.438 291.164C189.068 291.164 189.63 291.057 190.125 290.844C190.62 290.625 191.036 290.323 191.375 289.938C191.714 289.552 191.971 289.099 192.148 288.578C192.326 288.052 192.414 287.479 192.414 286.859V286.695C192.414 286.081 192.326 285.513 192.148 284.992C191.971 284.466 191.714 284.01 191.375 283.625C191.031 283.24 190.612 282.938 190.117 282.719C189.622 282.5 189.057 282.391 188.422 282.391C187.786 282.391 187.221 282.5 186.727 282.719C186.237 282.938 185.823 283.24 185.484 283.625C185.141 284.01 184.88 284.466 184.703 284.992C184.526 285.513 184.438 286.081 184.438 286.695ZM186.609 286.859V286.695C186.609 286.352 186.643 286.026 186.711 285.719C186.779 285.411 186.885 285.141 187.031 284.906C187.177 284.672 187.365 284.487 187.594 284.352C187.823 284.216 188.099 284.148 188.422 284.148C188.75 284.148 189.029 284.216 189.258 284.352C189.487 284.487 189.674 284.672 189.82 284.906C189.961 285.141 190.065 285.411 190.133 285.719C190.201 286.026 190.234 286.352 190.234 286.695V286.859C190.234 287.214 190.201 287.547 190.133 287.859C190.065 288.167 189.961 288.435 189.82 288.664C189.674 288.898 189.487 289.083 189.258 289.219C189.029 289.354 188.755 289.422 188.438 289.422C188.109 289.422 187.828 289.354 187.594 289.219C187.365 289.083 187.177 288.898 187.031 288.664C186.885 288.435 186.779 288.167 186.711 287.859C186.643 287.547 186.609 287.214 186.609 286.859ZM198.328 280.477H196.156V282.547H194.227V284.148H196.156V287.992C196.156 288.549 196.229 289.029 196.375 289.43C196.521 289.826 196.729 290.151 197 290.406C197.266 290.667 197.586 290.859 197.961 290.984C198.341 291.104 198.763 291.164 199.227 291.164C199.466 291.164 199.708 291.151 199.953 291.125C200.203 291.104 200.443 291.073 200.672 291.031C200.901 290.99 201.117 290.938 201.32 290.875C201.523 290.807 201.701 290.729 201.852 290.641L201.641 289.148C201.542 289.174 201.422 289.201 201.281 289.227C201.146 289.253 201 289.276 200.844 289.297C200.682 289.323 200.513 289.344 200.336 289.359C200.164 289.375 199.995 289.383 199.828 289.383C199.599 289.383 199.391 289.357 199.203 289.305C199.021 289.253 198.865 289.164 198.734 289.039C198.604 288.919 198.503 288.758 198.43 288.555C198.362 288.346 198.328 288.089 198.328 287.781V284.148H201.484V282.547H198.328V280.477ZM208.055 291.156C208.872 291.156 209.581 290.997 210.18 290.68C210.779 290.362 211.216 290.008 211.492 289.617L210.406 288.445C210.156 288.768 209.831 289.01 209.43 289.172C209.029 289.333 208.615 289.414 208.188 289.414C207.885 289.414 207.607 289.367 207.352 289.273C207.096 289.18 206.87 289.047 206.672 288.875C206.479 288.708 206.326 288.523 206.211 288.32C206.096 288.112 206.003 287.839 205.93 287.5V287.477H211.664V286.555C211.664 285.935 211.578 285.37 211.406 284.859C211.234 284.344 210.984 283.904 210.656 283.539C210.323 283.174 209.917 282.893 209.438 282.695C208.964 282.492 208.422 282.391 207.812 282.391C207.224 282.391 206.68 282.497 206.18 282.711C205.68 282.924 205.247 283.224 204.883 283.609C204.518 283.995 204.234 284.456 204.031 284.992C203.828 285.523 203.727 286.112 203.727 286.758V287.07C203.727 287.638 203.828 288.172 204.031 288.672C204.24 289.167 204.534 289.596 204.914 289.961C205.294 290.331 205.75 290.622 206.281 290.836C206.812 291.049 207.404 291.156 208.055 291.156ZM207.797 284.148C208.073 284.148 208.315 284.193 208.523 284.281C208.737 284.365 208.917 284.479 209.062 284.625C209.208 284.776 209.323 284.953 209.406 285.156C209.49 285.359 209.531 285.576 209.531 285.805V285.977H205.969C206.021 285.701 206.099 285.451 206.203 285.227C206.307 285.003 206.438 284.81 206.594 284.648C206.745 284.487 206.922 284.365 207.125 284.281C207.328 284.193 207.552 284.148 207.797 284.148ZM213.562 291H215.742V284.992C215.815 284.878 215.896 284.773 215.984 284.68C216.073 284.586 216.172 284.505 216.281 284.438C216.417 284.344 216.57 284.273 216.742 284.227C216.919 284.18 217.112 284.156 217.32 284.156C217.57 284.156 217.794 284.182 217.992 284.234C218.19 284.281 218.359 284.367 218.5 284.492C218.641 284.617 218.747 284.789 218.82 285.008C218.898 285.221 218.938 285.495 218.938 285.828V291H221.109V285.797C221.109 285.182 221.036 284.661 220.891 284.234C220.75 283.802 220.552 283.448 220.297 283.172C220.036 282.901 219.729 282.703 219.375 282.578C219.021 282.453 218.63 282.391 218.203 282.391C217.87 282.391 217.555 282.438 217.258 282.531C216.961 282.625 216.688 282.76 216.438 282.938C216.292 283.042 216.154 283.159 216.023 283.289C215.893 283.419 215.773 283.562 215.664 283.719L215.531 282.547H213.562V291ZM227.156 280.477H224.984V282.547H223.055V284.148H224.984V287.992C224.984 288.549 225.057 289.029 225.203 289.43C225.349 289.826 225.557 290.151 225.828 290.406C226.094 290.667 226.414 290.859 226.789 290.984C227.169 291.104 227.591 291.164 228.055 291.164C228.294 291.164 228.536 291.151 228.781 291.125C229.031 291.104 229.271 291.073 229.5 291.031C229.729 290.99 229.945 290.938 230.148 290.875C230.352 290.807 230.529 290.729 230.68 290.641L230.469 289.148C230.37 289.174 230.25 289.201 230.109 289.227C229.974 289.253 229.828 289.276 229.672 289.297C229.51 289.323 229.341 289.344 229.164 289.359C228.992 289.375 228.823 289.383 228.656 289.383C228.427 289.383 228.219 289.357 228.031 289.305C227.849 289.253 227.693 289.164 227.562 289.039C227.432 288.919 227.331 288.758 227.258 288.555C227.19 288.346 227.156 288.089 227.156 287.781V284.148H230.312V282.547H227.156V280.477ZM233.359 282.547V284.32H235.766V289.234H233.359V291H240.25V289.234H237.961V282.547H233.359ZM235.609 280.383C235.609 280.549 235.638 280.706 235.695 280.852C235.758 280.992 235.844 281.112 235.953 281.211C236.062 281.315 236.193 281.396 236.344 281.453C236.5 281.51 236.672 281.539 236.859 281.539C237.245 281.539 237.549 281.432 237.773 281.219C238.003 281 238.117 280.721 238.117 280.383C238.117 280.044 238.003 279.768 237.773 279.555C237.549 279.336 237.245 279.227 236.859 279.227C236.672 279.227 236.5 279.255 236.344 279.312C236.193 279.37 236.062 279.448 235.953 279.547C235.844 279.651 235.758 279.776 235.695 279.922C235.638 280.062 235.609 280.216 235.609 280.383ZM247.672 291H249.875V290.867C249.766 290.654 249.682 290.398 249.625 290.102C249.568 289.805 249.539 289.43 249.539 288.977V285.352C249.539 284.862 249.448 284.432 249.266 284.062C249.083 283.688 248.831 283.378 248.508 283.133C248.185 282.888 247.802 282.703 247.359 282.578C246.922 282.453 246.448 282.391 245.938 282.391C245.37 282.391 244.865 282.464 244.422 282.609C243.984 282.75 243.615 282.943 243.312 283.188C243.005 283.432 242.771 283.716 242.609 284.039C242.453 284.362 242.375 284.703 242.375 285.062H244.547C244.547 284.911 244.568 284.773 244.609 284.648C244.656 284.523 244.727 284.417 244.82 284.328C244.924 284.229 245.06 284.154 245.227 284.102C245.393 284.044 245.591 284.016 245.82 284.016C246.081 284.016 246.307 284.049 246.5 284.117C246.698 284.18 246.862 284.271 246.992 284.391C247.117 284.505 247.211 284.643 247.273 284.805C247.336 284.961 247.367 285.138 247.367 285.336V285.836H246.156C245.531 285.836 244.977 285.893 244.492 286.008C244.013 286.117 243.609 286.279 243.281 286.492C242.917 286.727 242.643 287.026 242.461 287.391C242.279 287.75 242.188 288.164 242.188 288.633C242.188 288.997 242.26 289.336 242.406 289.648C242.552 289.956 242.755 290.221 243.016 290.445C243.276 290.669 243.586 290.844 243.945 290.969C244.31 291.094 244.708 291.156 245.141 291.156C245.406 291.156 245.654 291.13 245.883 291.078C246.112 291.031 246.323 290.964 246.516 290.875C246.703 290.792 246.875 290.693 247.031 290.578C247.188 290.464 247.326 290.341 247.445 290.211C247.471 290.362 247.503 290.505 247.539 290.641C247.576 290.776 247.62 290.896 247.672 291ZM245.602 289.477C245.398 289.477 245.219 289.453 245.062 289.406C244.911 289.354 244.784 289.286 244.68 289.203C244.576 289.115 244.495 289.008 244.438 288.883C244.385 288.753 244.359 288.612 244.359 288.461C244.359 288.268 244.396 288.091 244.469 287.93C244.542 287.763 244.654 287.62 244.805 287.5C244.956 287.385 245.151 287.297 245.391 287.234C245.63 287.167 245.919 287.133 246.258 287.133H247.367V288.586C247.305 288.695 247.219 288.805 247.109 288.914C247 289.018 246.87 289.112 246.719 289.195C246.568 289.279 246.398 289.346 246.211 289.398C246.023 289.451 245.82 289.477 245.602 289.477ZM252.453 279V280.773H254.984V289.234H252.453V291H259.602V289.234H257.18V279H252.453Z" fill="white"/>
</svg>
