<svg width="1920" height="1080" viewBox="0 0 1920 1080" fill="none" xmlns="http://www.w3.org/2000/svg">
<g clip-path="url(#clip0_1_25276)">
<circle cx="788.894" cy="916.711" r="1.76488" transform="rotate(180 788.894 916.711)" fill="#8EFE1C"/>
<circle cx="764.556" cy="916.711" r="1.76488" transform="rotate(180 764.556 916.711)" fill="#8EFE1C"/>
<circle cx="788.894" cy="892.184" r="1.76488" transform="rotate(180 788.894 892.184)" fill="#8EFE1C"/>
<circle cx="764.556" cy="892.184" r="1.76488" transform="rotate(180 764.556 892.184)" fill="#8EFE1C"/>
<circle cx="683.455" cy="916.711" r="1.76488" transform="rotate(180 683.455 916.711)" fill="#8EFE1C"/>
<circle cx="683.455" cy="892.184" r="1.76488" transform="rotate(180 683.455 892.184)" fill="#8EFE1C"/>
<circle cx="614.641" cy="904.321" r="1.76488" transform="rotate(180 614.641 904.321)" fill="#8EFE1C"/>
<circle cx="1428.89" cy="183.598" r="2.46914" fill="#8EFE1C"/>
<circle cx="1458.88" cy="183.598" r="2.46914" fill="#8EFE1C"/>
<circle cx="1488.88" cy="183.598" r="2.46914" fill="#8EFE1C"/>
<g opacity="0.7">
<path d="M254.23 200.789V214.441" stroke="#323232" stroke-width="1.49964"/>
<path d="M254.23 222.779V236.431" stroke="#323232" stroke-width="1.49964"/>
<path d="M236.41 218.61L250.062 218.61" stroke="#323232" stroke-width="1.49964"/>
<path d="M258.398 218.609L272.05 218.609" stroke="#323232" stroke-width="1.49964"/>
<path d="M371.854 200.789V214.441" stroke="white" stroke-width="1.49964"/>
<path d="M371.854 222.779V236.431" stroke="white" stroke-width="1.49964"/>
<path d="M354.034 218.61L367.686 218.61" stroke="white" stroke-width="1.49964"/>
<path d="M376.022 218.609L389.674 218.609" stroke="white" stroke-width="1.49964"/>
<path d="M489.48 200.789V214.441" stroke="white" stroke-width="1.49964"/>
<path d="M489.48 222.779V236.431" stroke="white" stroke-width="1.49964"/>
<path d="M471.66 218.61L485.312 218.61" stroke="white" stroke-width="1.49964"/>
<path d="M493.648 218.609L507.3 218.609" stroke="white" stroke-width="1.49964"/>
<path d="M607.104 200.789V214.441" stroke="#323232" stroke-width="1.49964"/>
<path d="M607.104 222.779V236.431" stroke="#323232" stroke-width="1.49964"/>
<path d="M589.284 218.61L602.936 218.61" stroke="#323232" stroke-width="1.49964"/>
<path d="M611.272 218.609L624.924 218.609" stroke="#323232" stroke-width="1.49964"/>
<path d="M254.23 318.411V332.063" stroke="#323232" stroke-width="1.49964"/>
<path d="M254.23 340.401V354.053" stroke="#323232" stroke-width="1.49964"/>
<path d="M236.41 336.231L250.062 336.231" stroke="#323232" stroke-width="1.49964"/>
<path d="M258.398 336.231L272.05 336.231" stroke="#323232" stroke-width="1.49964"/>
<path d="M371.854 318.412V332.064" stroke="#323232" stroke-width="1.49964"/>
<path d="M371.854 340.402V354.054" stroke="#323232" stroke-width="1.49964"/>
<path d="M354.034 336.233L367.686 336.233" stroke="#323232" stroke-width="1.49964"/>
<path d="M376.022 336.233L389.674 336.233" stroke="#323232" stroke-width="1.49964"/>
<path d="M489.48 318.412V332.064" stroke="white" stroke-width="1.49964"/>
<path d="M489.48 340.402V354.054" stroke="white" stroke-width="1.49964"/>
<path d="M471.66 336.233L485.312 336.233" stroke="white" stroke-width="1.49964"/>
<path d="M493.648 336.233L507.3 336.233" stroke="white" stroke-width="1.49964"/>
<path d="M607.104 318.411V332.063" stroke="#8EFE1C" stroke-width="1.49964"/>
<path d="M607.104 340.401V354.053" stroke="#8EFE1C" stroke-width="1.49964"/>
<path d="M589.284 336.231L602.936 336.231" stroke="#8EFE1C" stroke-width="1.49964"/>
<path d="M611.272 336.231L624.924 336.231" stroke="#8EFE1C" stroke-width="1.49964"/>
<path d="M254.23 436.033V449.685" stroke="#8EFE1C" stroke-width="1.49964"/>
<path d="M254.23 458.022V471.674" stroke="#8EFE1C" stroke-width="1.49964"/>
<path d="M236.41 453.854L250.062 453.854" stroke="#8EFE1C" stroke-width="1.49964"/>
<path d="M258.398 453.854L272.05 453.854" stroke="#8EFE1C" stroke-width="1.49964"/>
<path d="M371.854 436.034V449.686" stroke="#323232" stroke-width="1.49964"/>
<path d="M371.854 458.024V471.676" stroke="#323232" stroke-width="1.49964"/>
<path d="M354.034 453.855L367.686 453.855" stroke="#323232" stroke-width="1.49964"/>
<path d="M376.022 453.854L389.674 453.854" stroke="#323232" stroke-width="1.49964"/>
<path d="M489.48 436.033V449.685" stroke="#323232" stroke-width="1.49964"/>
<path d="M489.48 458.022V471.674" stroke="#323232" stroke-width="1.49964"/>
<path d="M471.66 453.854L485.312 453.854" stroke="#323232" stroke-width="1.49964"/>
<path d="M493.648 453.854L507.3 453.854" stroke="#323232" stroke-width="1.49964"/>
<path d="M607.104 436.034V449.686" stroke="#323232" stroke-width="1.49964"/>
<path d="M607.104 458.024V471.676" stroke="#323232" stroke-width="1.49964"/>
<path d="M589.284 453.855L602.936 453.855" stroke="#323232" stroke-width="1.49964"/>
<path d="M611.272 453.854L624.924 453.854" stroke="#323232" stroke-width="1.49964"/>
</g>
</g>
<defs>
<clipPath id="clip0_1_25276">
<rect width="1920" height="1080" fill="white"/>
</clipPath>
</defs>
</svg>
