<svg width="177" height="40" viewBox="0 0 177 40" fill="none" xmlns="http://www.w3.org/2000/svg">
<path d="M1.57322 37.8057H1.52851V38.2857H1.57557C1.87051 38.2857 2.1223 38.2426 2.33095 38.1563C2.54117 38.07 2.7106 37.9516 2.83924 37.801C2.99769 37.6174 3.10829 37.4033 3.17104 37.1585C3.23379 36.9138 3.26517 36.6565 3.26517 36.3867V36.189C3.26517 35.9929 3.23928 35.8062 3.18751 35.629C3.13574 35.4501 3.05965 35.2979 2.95925 35.1724C2.86355 35.0563 2.74668 34.9646 2.60863 34.8971C2.47214 34.8297 2.31526 34.7959 2.13799 34.7959C1.96228 34.7959 1.8054 34.8281 1.66735 34.8924C1.53086 34.9552 1.41555 35.0407 1.32143 35.1489C1.2273 35.2587 1.15513 35.3866 1.10493 35.5325C1.0563 35.6768 1.03198 35.8313 1.03198 35.9961C1.03198 36.1482 1.05238 36.2933 1.09317 36.4314C1.13396 36.5694 1.19592 36.6918 1.27907 36.7985C1.36065 36.9036 1.46262 36.9875 1.58498 37.0503C1.70892 37.113 1.85403 37.1444 2.02033 37.1444C2.1019 37.1444 2.17642 37.1366 2.24388 37.1209C2.31291 37.1052 2.37566 37.084 2.43214 37.0573C2.48547 37.0322 2.53411 37.0032 2.57803 36.9703C2.62353 36.9358 2.66353 36.8989 2.69805 36.8597V36.8714C2.6855 37.0048 2.65726 37.1295 2.61333 37.2456C2.56941 37.3601 2.50038 37.4621 2.40625 37.5515C2.3184 37.6331 2.20623 37.6958 2.06974 37.7398C1.93326 37.7837 1.76775 37.8057 1.57322 37.8057ZM2.14034 36.6997C2.04621 36.6997 1.96463 36.68 1.89561 36.6408C1.82815 36.6 1.77167 36.5467 1.72618 36.4808C1.67911 36.4134 1.6446 36.3365 1.62264 36.2502C1.60067 36.1639 1.58969 36.0737 1.58969 35.9796C1.58969 35.8823 1.60146 35.7898 1.62499 35.7019C1.65009 35.6125 1.68617 35.5348 1.73324 35.4689C1.77873 35.403 1.83521 35.3513 1.90267 35.3136C1.97169 35.2744 2.05013 35.2548 2.13799 35.2548C2.21643 35.2548 2.29016 35.2736 2.35919 35.3113C2.42821 35.3474 2.48861 35.4007 2.54038 35.4713C2.59058 35.5419 2.63059 35.6297 2.6604 35.7348C2.69177 35.84 2.70746 35.9608 2.70746 36.0972V36.2926C2.68393 36.3506 2.65334 36.4047 2.61568 36.4549C2.5796 36.5036 2.53724 36.5459 2.48861 36.582C2.43998 36.6197 2.38586 36.6487 2.32624 36.6691C2.2682 36.6895 2.20623 36.6997 2.14034 36.6997ZM6.14313 35.7466C6.14313 35.5944 6.11646 35.4595 6.06312 35.3419C6.00978 35.2226 5.93683 35.123 5.84427 35.043C5.74857 34.9614 5.6364 34.9002 5.50776 34.8595C5.38069 34.8171 5.24185 34.7959 5.09125 34.7959C4.93907 34.7959 4.79867 34.8171 4.67003 34.8595C4.54295 34.9002 4.43392 34.9614 4.34293 35.043C4.25037 35.1246 4.17742 35.2242 4.12408 35.3419C4.07231 35.4595 4.04643 35.5944 4.04643 35.7466C4.04643 35.8313 4.05819 35.9121 4.08173 35.989C4.10526 36.0659 4.1382 36.1365 4.18056 36.2008C4.22135 36.2635 4.27077 36.3208 4.32881 36.3726C4.38843 36.4243 4.45432 36.4683 4.52648 36.5043C4.44177 36.5436 4.36489 36.5914 4.29587 36.6479C4.22841 36.7028 4.17036 36.7648 4.12173 36.8338C4.0731 36.906 4.03545 36.9844 4.00878 37.0691C3.98368 37.1538 3.97113 37.2432 3.97113 37.3374C3.97113 37.4974 3.99936 37.6386 4.05584 37.761C4.11389 37.8817 4.1939 37.9829 4.29587 38.0645C4.39627 38.1477 4.51471 38.2104 4.6512 38.2528C4.78925 38.2951 4.93829 38.3163 5.09831 38.3163C5.25519 38.3163 5.40108 38.2951 5.536 38.2528C5.67249 38.2104 5.79172 38.1477 5.89369 38.0645C5.99409 37.9829 6.07331 37.881 6.13136 37.7586C6.18941 37.6362 6.21843 37.4958 6.21843 37.3374C6.21843 37.226 6.20039 37.1225 6.1643 37.0268C6.12822 36.9311 6.07802 36.8456 6.0137 36.7703C5.96821 36.7138 5.91487 36.6644 5.85368 36.622C5.79407 36.5781 5.72896 36.5396 5.65837 36.5067C5.71798 36.4769 5.77211 36.4424 5.82074 36.4032C5.86937 36.3639 5.91251 36.3216 5.95016 36.2761C6.01135 36.2055 6.05841 36.1255 6.09136 36.0361C6.12587 35.9466 6.14313 35.8502 6.14313 35.7466ZM5.65601 37.3068C5.65601 37.3946 5.6419 37.4731 5.61366 37.5421C5.58542 37.6096 5.54777 37.6676 5.5007 37.7162C5.4505 37.7633 5.39089 37.7994 5.32186 37.8245C5.2544 37.8496 5.17988 37.8621 5.09831 37.8621C5.01202 37.8621 4.93437 37.8504 4.86534 37.8268C4.79788 37.8017 4.73984 37.7664 4.6912 37.7209C4.641 37.6739 4.60257 37.6158 4.5759 37.5468C4.54923 37.4762 4.53589 37.397 4.53589 37.3091C4.53589 37.2229 4.54844 37.1452 4.57354 37.0762C4.60021 37.0056 4.63786 36.9444 4.6865 36.8926C4.73513 36.844 4.79318 36.8063 4.86063 36.7797C4.92966 36.753 5.00732 36.7397 5.0936 36.7397C5.17675 36.7397 5.25283 36.753 5.32186 36.7797C5.39089 36.8063 5.4505 36.844 5.5007 36.8926C5.54934 36.9444 5.58699 37.0056 5.61366 37.0762C5.6419 37.1452 5.65601 37.2221 5.65601 37.3068ZM5.58307 35.7678C5.58307 35.8447 5.5713 35.9153 5.54777 35.9796C5.52424 36.0423 5.49129 36.0957 5.44893 36.1396C5.40658 36.1851 5.35559 36.2204 5.29598 36.2455C5.23636 36.2706 5.16969 36.2831 5.09595 36.2831C5.02222 36.2831 4.95555 36.2706 4.89593 36.2455C4.83632 36.2204 4.78533 36.1851 4.74297 36.1396C4.69905 36.0957 4.6661 36.0423 4.64414 35.9796C4.62218 35.9153 4.6112 35.8447 4.6112 35.7678C4.6112 35.6894 4.62218 35.618 4.64414 35.5537C4.6661 35.4893 4.69748 35.4352 4.73827 35.3913C4.78063 35.3474 4.83083 35.3136 4.88887 35.2901C4.94849 35.265 5.01516 35.2524 5.08889 35.2524C5.1642 35.2524 5.23165 35.265 5.29127 35.2901C5.35088 35.3152 5.40265 35.3497 5.44658 35.3936C5.48894 35.4407 5.52188 35.4956 5.54541 35.5584C5.57052 35.6211 5.58307 35.6909 5.58307 35.7678ZM8.42808 38.2692V34.843H8.39278L6.98322 35.3654V35.8619L7.86096 35.5395V38.2692H8.42808ZM9.88471 36.5702L10.3342 36.6808C10.364 36.6526 10.3946 36.6267 10.4259 36.6032C10.4589 36.5781 10.495 36.5561 10.5342 36.5373C10.5718 36.52 10.615 36.5059 10.6636 36.4949C10.7138 36.4839 10.7726 36.4785 10.8401 36.4785C10.9421 36.4785 11.0315 36.4957 11.1084 36.5302C11.1852 36.5632 11.2496 36.6102 11.3013 36.6714C11.3531 36.7326 11.3915 36.8048 11.4166 36.8879C11.4433 36.9695 11.4566 37.0597 11.4566 37.1585C11.4566 37.2605 11.4457 37.3554 11.4237 37.4433C11.4017 37.5296 11.3688 37.6033 11.3249 37.6645C11.2778 37.7272 11.2198 37.7759 11.1507 37.8104C11.0817 37.8449 11.0001 37.8621 10.906 37.8621C10.746 37.8621 10.6142 37.8174 10.5107 37.728C10.4087 37.6386 10.3475 37.5099 10.3271 37.3421H9.77881C9.78823 37.5005 9.82509 37.6409 9.88941 37.7633C9.9553 37.8841 10.0392 37.9853 10.1412 38.0669C10.2432 38.15 10.3601 38.2128 10.4918 38.2551C10.6236 38.2959 10.7617 38.3163 10.906 38.3163C11.0958 38.3163 11.2605 38.2865 11.4002 38.2269C11.5398 38.1673 11.6551 38.0857 11.7461 37.9822C11.8386 37.8786 11.9069 37.7578 11.9508 37.6198C11.9963 37.4801 12.0191 37.3319 12.0191 37.175C12.0191 36.9977 11.9955 36.8385 11.9485 36.6973C11.9014 36.5545 11.8339 36.433 11.7461 36.3326C11.6567 36.2337 11.5476 36.1576 11.419 36.1043C11.2919 36.051 11.1476 36.0243 10.986 36.0243C10.8668 36.0243 10.7609 36.0392 10.6683 36.069C10.5773 36.0988 10.5036 36.1302 10.4471 36.1631L10.5365 35.3419H11.9108V34.843H10.0683L9.88471 36.5702ZM14.2169 38.2692V34.843H14.1816L12.7721 35.3654V35.8619L13.6498 35.5395V38.2692H14.2169ZM17.269 34.8265H17.2031C16.9365 34.8265 16.6996 34.8681 16.4925 34.9512C16.2854 35.0344 16.1113 35.1536 15.9701 35.3089C15.8038 35.4893 15.6846 35.705 15.6124 35.956C15.5418 36.2055 15.5065 36.4683 15.5065 36.7444V36.9773C15.5065 37.1609 15.5332 37.3358 15.5865 37.5021C15.6398 37.6668 15.7183 37.8104 15.8218 37.9327C15.9191 38.0504 16.0383 38.1437 16.1795 38.2128C16.3207 38.2818 16.4815 38.3163 16.6619 38.3163C16.8376 38.3163 16.9937 38.2865 17.1302 38.2269C17.2683 38.1657 17.3851 38.0818 17.4808 37.9751C17.575 37.87 17.6463 37.7468 17.695 37.6056C17.7452 37.4629 17.7703 37.3099 17.7703 37.1468C17.7703 36.9977 17.7507 36.8542 17.7114 36.7161C17.6738 36.5781 17.6142 36.4557 17.5326 36.349C17.4526 36.2424 17.3506 36.1576 17.2267 36.0949C17.1043 36.0321 16.96 36.0008 16.7937 36.0008C16.7153 36.0008 16.6407 36.0102 16.5701 36.029C16.4995 36.0463 16.4352 36.0698 16.3772 36.0996C16.316 36.131 16.2603 36.1671 16.2101 36.2078C16.1599 36.2471 16.116 36.2878 16.0783 36.3302C16.0909 36.1843 16.123 36.0478 16.1748 35.9208C16.2281 35.7937 16.3027 35.6846 16.3984 35.5937C16.4925 35.5027 16.6078 35.4321 16.7443 35.3819C16.8823 35.3301 17.0447 35.3042 17.2314 35.3042H17.269V34.8265ZM16.6549 36.4573C16.7458 36.4573 16.8259 36.4761 16.8949 36.5138C16.9655 36.5498 17.0243 36.6 17.0714 36.6644C17.1184 36.7287 17.1537 36.804 17.1773 36.8903C17.2024 36.975 17.2149 37.0652 17.2149 37.1609C17.2149 37.2613 17.2024 37.3546 17.1773 37.4409C17.1522 37.5256 17.1153 37.5994 17.0667 37.6621C17.018 37.7233 16.9592 37.7719 16.8902 37.808C16.8211 37.8425 16.7427 37.8598 16.6549 37.8598C16.5748 37.8598 16.4995 37.8417 16.4289 37.8057C16.3584 37.7696 16.2964 37.717 16.243 37.648C16.1897 37.579 16.1473 37.4927 16.116 37.3891C16.0862 37.2856 16.0713 37.1656 16.0713 37.0291V36.855C16.0964 36.7969 16.1277 36.7444 16.1654 36.6973C16.203 36.6502 16.2454 36.6087 16.2925 36.5726C16.3442 36.5365 16.4007 36.5083 16.4619 36.4879C16.5231 36.4675 16.5874 36.4573 16.6549 36.4573ZM20.1635 34.8265H20.0976C19.8309 34.8265 19.594 34.8681 19.3869 34.9512C19.1798 35.0344 19.0057 35.1536 18.8645 35.3089C18.6982 35.4893 18.579 35.705 18.5068 35.956C18.4362 36.2055 18.4009 36.4683 18.4009 36.7444V36.9773C18.4009 37.1609 18.4276 37.3358 18.4809 37.5021C18.5343 37.6668 18.6127 37.8104 18.7163 37.9327C18.8135 38.0504 18.9327 38.1437 19.0739 38.2128C19.2151 38.2818 19.3759 38.3163 19.5563 38.3163C19.7321 38.3163 19.8881 38.2865 20.0246 38.2269C20.1627 38.1657 20.2796 38.0818 20.3753 37.9751C20.4694 37.87 20.5408 37.7468 20.5894 37.6056C20.6396 37.4629 20.6647 37.3099 20.6647 37.1468C20.6647 36.9977 20.6451 36.8542 20.6059 36.7161C20.5682 36.5781 20.5086 36.4557 20.427 36.349C20.347 36.2424 20.245 36.1576 20.1211 36.0949C19.9987 36.0321 19.8544 36.0008 19.6881 36.0008C19.6097 36.0008 19.5352 36.0102 19.4646 36.029C19.394 36.0463 19.3297 36.0698 19.2716 36.0996C19.2104 36.131 19.1547 36.1671 19.1045 36.2078C19.0543 36.2471 19.0104 36.2878 18.9728 36.3302C18.9853 36.1843 19.0175 36.0478 19.0692 35.9208C19.1226 35.7937 19.1971 35.6846 19.2928 35.5937C19.3869 35.5027 19.5022 35.4321 19.6387 35.3819C19.7768 35.3301 19.9391 35.3042 20.1258 35.3042H20.1635V34.8265ZM19.5493 36.4573C19.6403 36.4573 19.7203 36.4761 19.7893 36.5138C19.8599 36.5498 19.9187 36.6 19.9658 36.6644C20.0129 36.7287 20.0482 36.804 20.0717 36.8903C20.0968 36.975 20.1093 37.0652 20.1093 37.1609C20.1093 37.2613 20.0968 37.3546 20.0717 37.4409C20.0466 37.5256 20.0097 37.5994 19.9611 37.6621C19.9125 37.7233 19.8536 37.7719 19.7846 37.808C19.7156 37.8425 19.6371 37.8598 19.5493 37.8598C19.4693 37.8598 19.394 37.8417 19.3234 37.8057C19.2528 37.7696 19.1908 37.717 19.1375 37.648C19.0841 37.579 19.0418 37.4927 19.0104 37.3891C18.9806 37.2856 18.9657 37.1656 18.9657 37.0291V36.855C18.9908 36.7969 19.0222 36.7444 19.0598 36.6973C19.0975 36.6502 19.1398 36.6087 19.1869 36.5726C19.2387 36.5365 19.2951 36.5083 19.3563 36.4879C19.4175 36.4675 19.4818 36.4573 19.5493 36.4573ZM22.9002 38.2692V34.843H22.8649L21.4554 35.3654V35.8619L22.3331 35.5395V38.2692H22.9002Z" fill="#2E3539"/>
<path d="M47.856 38.2692V34.843H47.8207L46.4112 35.3654V35.8619L47.2889 35.5395V38.2692H47.856ZM50.7504 38.2692V34.843H50.7151L49.3056 35.3654V35.8619L50.1833 35.5395V38.2692H50.7504ZM52.7177 36.302V36.7444H53.0542C53.1515 36.7444 53.2393 36.7561 53.3178 36.7797C53.3978 36.8016 53.466 36.8353 53.5225 36.8808C53.579 36.9279 53.6221 36.9867 53.6519 37.0573C53.6817 37.1279 53.6966 37.2126 53.6966 37.3115C53.6966 37.3993 53.6833 37.4778 53.6566 37.5468C53.6315 37.6143 53.5947 37.6707 53.546 37.7162C53.4958 37.7649 53.4339 37.8017 53.3601 37.8268C53.288 37.8504 53.2064 37.8621 53.1154 37.8621C53.0307 37.8621 52.953 37.8496 52.8824 37.8245C52.8134 37.7994 52.7538 37.7641 52.7036 37.7186C52.6518 37.6747 52.6118 37.6213 52.5836 37.5586C52.5569 37.4942 52.5436 37.4244 52.5436 37.3491H51.9812C51.9812 37.5091 52.0118 37.6496 52.0729 37.7703C52.1357 37.8896 52.2188 37.99 52.3224 38.0716C52.4259 38.1531 52.5459 38.2143 52.6824 38.2551C52.8189 38.2959 52.9609 38.3163 53.1083 38.3163C53.2715 38.3163 53.4229 38.2943 53.5625 38.2504C53.7037 38.2049 53.8261 38.139 53.9296 38.0527C54.0316 37.968 54.1116 37.8637 54.1696 37.7398C54.2293 37.6143 54.2591 37.4715 54.2591 37.3115C54.2591 37.2252 54.2489 37.142 54.2285 37.062C54.2081 36.9805 54.1751 36.9044 54.1296 36.8338C54.0841 36.7647 54.0253 36.7028 53.9531 36.6479C53.8825 36.5914 53.7963 36.5459 53.6943 36.5114C53.7806 36.4722 53.8559 36.4243 53.9202 36.3678C53.9845 36.3114 54.0379 36.251 54.0802 36.1866C54.1226 36.1208 54.154 36.0525 54.1743 35.9819C54.1963 35.9113 54.2073 35.8407 54.2073 35.7701C54.2073 35.6101 54.1806 35.4697 54.1273 35.3489C54.0739 35.2281 53.9986 35.1261 53.9014 35.043C53.8057 34.9614 53.6896 34.9002 53.5531 34.8594C53.4182 34.8171 53.2699 34.7959 53.1083 34.7959C52.9499 34.7959 52.804 34.8194 52.6707 34.8665C52.5389 34.9136 52.4244 34.9787 52.3271 35.0618C52.2298 35.1465 52.1537 35.2462 52.0988 35.3607C52.0439 35.4752 52.0165 35.6007 52.0165 35.7372H52.5789C52.5789 35.6635 52.5922 35.5968 52.6189 35.5372C52.6471 35.4776 52.6856 35.4266 52.7342 35.3842C52.7813 35.3418 52.8369 35.3097 52.9013 35.2877C52.9672 35.2642 53.0385 35.2524 53.1154 35.2524C53.2017 35.2524 53.2778 35.2642 53.3437 35.2877C53.4111 35.3113 53.4668 35.3442 53.5107 35.3866C53.5547 35.4321 53.5876 35.487 53.6096 35.5513C53.6331 35.6156 53.6449 35.6886 53.6449 35.7701C53.6449 35.8454 53.6323 35.916 53.6072 35.9819C53.5837 36.0462 53.5492 36.1004 53.5037 36.1443C53.4551 36.1945 53.3931 36.2337 53.3178 36.2619C53.2425 36.2886 53.1546 36.302 53.0542 36.302H52.7177ZM56.8664 37.0479V34.843H56.2875L54.8074 37.1585L54.8215 37.5044H56.304V38.2692H56.8664V37.5044H57.297V37.0479H56.8664ZM55.3815 37.0479L56.2381 35.7184L56.304 35.596V37.0479H55.3815ZM59.5914 34.8265H59.5255C59.2588 34.8265 59.0219 34.8681 58.8148 34.9512C58.6078 35.0344 58.4336 35.1536 58.2924 35.3089C58.1261 35.4893 58.0069 35.705 57.9348 35.956C57.8642 36.2055 57.8289 36.4682 57.8289 36.7444V36.9773C57.8289 37.1609 57.8555 37.3358 57.9089 37.5021C57.9622 37.6668 58.0406 37.8104 58.1442 37.9327C58.2415 38.0504 58.3607 38.1437 58.5019 38.2127C58.6431 38.2818 58.8039 38.3163 58.9843 38.3163C59.16 38.3163 59.3161 38.2865 59.4526 38.2269C59.5906 38.1657 59.7075 38.0818 59.8032 37.9751C59.8973 37.87 59.9687 37.7468 60.0173 37.6056C60.0675 37.4629 60.0926 37.3099 60.0926 37.1468C60.0926 36.9977 60.073 36.8542 60.0338 36.7161C59.9962 36.5781 59.9365 36.4557 59.855 36.349C59.775 36.2423 59.673 36.1576 59.549 36.0949C59.4267 36.0321 59.2824 36.0007 59.1161 36.0007C59.0376 36.0007 58.9631 36.0102 58.8925 36.029C58.8219 36.0462 58.7576 36.0698 58.6995 36.0996C58.6384 36.131 58.5827 36.167 58.5325 36.2078C58.4823 36.247 58.4383 36.2878 58.4007 36.3302C58.4132 36.1843 58.4454 36.0478 58.4972 35.9207C58.5505 35.7937 58.625 35.6846 58.7207 35.5936C58.8148 35.5027 58.9302 35.4321 59.0666 35.3819C59.2047 35.3301 59.3671 35.3042 59.5538 35.3042H59.5914V34.8265ZM58.9772 36.4573C59.0682 36.4573 59.1482 36.4761 59.2172 36.5137C59.2878 36.5498 59.3467 36.6 59.3937 36.6643C59.4408 36.7287 59.4761 36.804 59.4996 36.8903C59.5247 36.975 59.5373 37.0652 59.5373 37.1609C59.5373 37.2613 59.5247 37.3546 59.4996 37.4409C59.4745 37.5256 59.4377 37.5993 59.389 37.6621C59.3404 37.7233 59.2816 37.7719 59.2125 37.808C59.1435 37.8425 59.0651 37.8598 58.9772 37.8598C58.8972 37.8598 58.8219 37.8417 58.7513 37.8056C58.6807 37.7696 58.6187 37.717 58.5654 37.648C58.5121 37.579 58.4697 37.4927 58.4383 37.3891C58.4085 37.2856 58.3936 37.1656 58.3936 37.0291V36.855C58.4187 36.7969 58.4501 36.7444 58.4878 36.6973C58.5254 36.6502 58.5678 36.6087 58.6148 36.5726C58.6666 36.5365 58.7231 36.5083 58.7843 36.4879C58.8454 36.4675 58.9098 36.4573 58.9772 36.4573ZM62.6553 37.0479V34.843H62.0764L60.5962 37.1585L60.6103 37.5044H62.0929V38.2692H62.6553V37.5044H63.0859V37.0479H62.6553ZM61.1704 37.0479L62.027 35.7184L62.0929 35.596V37.0479H61.1704ZM65.5497 37.0479V34.843H64.9708L63.4906 37.1585L63.5048 37.5044H64.9873V38.2692H65.5497V37.5044H65.9803V37.0479H65.5497ZM64.0648 37.0479L64.9214 35.7184L64.9873 35.596V37.0479H64.0648ZM68.117 38.2692V34.843H68.0817L66.6722 35.3654V35.8619L67.5499 35.5395V38.2692H68.117ZM70.0843 36.302V36.7444H70.4208C70.5181 36.7444 70.6059 36.7561 70.6844 36.7797C70.7644 36.8016 70.8326 36.8353 70.8891 36.8808C70.9456 36.9279 70.9887 36.9867 71.0185 37.0573C71.0483 37.1279 71.0632 37.2126 71.0632 37.3115C71.0632 37.3993 71.0499 37.4778 71.0232 37.5468C70.9981 37.6143 70.9613 37.6707 70.9126 37.7162C70.8624 37.7649 70.8005 37.8017 70.7267 37.8268C70.6546 37.8504 70.573 37.8621 70.482 37.8621C70.3973 37.8621 70.3196 37.8496 70.249 37.8245C70.18 37.7994 70.1204 37.7641 70.0702 37.7186C70.0184 37.6747 69.9784 37.6213 69.9502 37.5586C69.9235 37.4942 69.9102 37.4244 69.9102 37.3491H69.3478C69.3478 37.5091 69.3783 37.6496 69.4395 37.7703C69.5023 37.8896 69.5854 37.99 69.689 38.0716C69.7925 38.1531 69.9125 38.2143 70.049 38.2551C70.1855 38.2959 70.3275 38.3163 70.4749 38.3163C70.6381 38.3163 70.7895 38.2943 70.9291 38.2504C71.0703 38.2049 71.1927 38.139 71.2962 38.0527C71.3982 37.968 71.4782 37.8637 71.5362 37.7398C71.5958 37.6143 71.6257 37.4715 71.6257 37.3115C71.6257 37.2252 71.6155 37.142 71.5951 37.062C71.5747 36.9805 71.5417 36.9044 71.4962 36.8338C71.4507 36.7647 71.3919 36.7028 71.3197 36.6479C71.2491 36.5914 71.1629 36.5459 71.0609 36.5114C71.1472 36.4722 71.2225 36.4243 71.2868 36.3678C71.3511 36.3114 71.4045 36.251 71.4468 36.1866C71.4892 36.1208 71.5205 36.0525 71.5409 35.9819C71.5629 35.9113 71.5739 35.8407 71.5739 35.7701C71.5739 35.6101 71.5472 35.4697 71.4939 35.3489C71.4405 35.2281 71.3652 35.1261 71.268 35.043C71.1723 34.9614 71.0562 34.9002 70.9197 34.8594C70.7848 34.8171 70.6365 34.7959 70.4749 34.7959C70.3165 34.7959 70.1706 34.8194 70.0372 34.8665C69.9055 34.9136 69.7909 34.9787 69.6937 35.0618C69.5964 35.1465 69.5203 35.2462 69.4654 35.3607C69.4105 35.4752 69.3831 35.6007 69.3831 35.7372H69.9455C69.9455 35.6635 69.9588 35.5968 69.9855 35.5372C70.0137 35.4776 70.0521 35.4266 70.1008 35.3842C70.1478 35.3418 70.2035 35.3097 70.2679 35.2877C70.3337 35.2642 70.4051 35.2524 70.482 35.2524C70.5683 35.2524 70.6444 35.2642 70.7103 35.2877C70.7777 35.3113 70.8334 35.3442 70.8773 35.3866C70.9213 35.4321 70.9542 35.487 70.9762 35.5513C70.9997 35.6156 71.0115 35.6886 71.0115 35.7701C71.0115 35.8454 70.9989 35.916 70.9738 35.9819C70.9503 36.0462 70.9158 36.1004 70.8703 36.1443C70.8216 36.1945 70.7597 36.2337 70.6844 36.2619C70.6091 36.2886 70.5212 36.302 70.4208 36.302H70.0843Z" fill="#2E3539"/>
<path d="M99.9888 38.2692V34.843H99.9535L98.544 35.3654V35.8619L99.4217 35.5395V38.2692H99.9888ZM103.542 38.2692V37.8151H101.947L102.709 37.0009C102.81 36.8942 102.902 36.7906 102.987 36.6902C103.073 36.5898 103.148 36.4902 103.21 36.3914C103.272 36.2925 103.319 36.1929 103.354 36.0925C103.39 35.9905 103.408 35.8854 103.408 35.7772C103.408 35.6329 103.384 35.5011 103.337 35.3819C103.29 35.2611 103.222 35.1575 103.133 35.0712C103.042 34.9849 102.93 34.9175 102.796 34.8689C102.664 34.8202 102.515 34.7959 102.347 34.7959C102.168 34.7959 102.006 34.8249 101.86 34.883C101.715 34.941 101.593 35.0195 101.493 35.1183C101.391 35.2171 101.312 35.3332 101.257 35.4666C101.202 35.5983 101.175 35.7388 101.175 35.8878H101.74C101.74 35.789 101.752 35.7011 101.777 35.6242C101.802 35.5458 101.84 35.4791 101.89 35.4242C101.939 35.3724 102 35.3324 102.074 35.3042C102.147 35.276 102.235 35.2618 102.335 35.2618C102.413 35.2618 102.484 35.2752 102.547 35.3018C102.611 35.3285 102.666 35.3654 102.711 35.4124C102.757 35.4595 102.791 35.516 102.815 35.5819C102.839 35.6478 102.85 35.7207 102.85 35.8007C102.85 35.8603 102.842 35.92 102.824 35.9796C102.809 36.0376 102.782 36.1004 102.744 36.1678C102.705 36.2353 102.654 36.3098 102.591 36.3914C102.529 36.4714 102.451 36.5624 102.358 36.6643L101.243 37.8786V38.2692H103.542ZM105.778 38.2692V34.843H105.742L104.333 35.3654V35.8619L105.211 35.5395V38.2692H105.778ZM107.606 37.8056H107.561V38.2857H107.608C107.903 38.2857 108.155 38.2426 108.364 38.1563C108.574 38.07 108.744 37.9515 108.872 37.8009C109.031 37.6174 109.141 37.4032 109.204 37.1585C109.267 36.9138 109.298 36.6565 109.298 36.3867V36.189C109.298 35.9929 109.272 35.8062 109.22 35.6289C109.169 35.4501 109.093 35.2979 108.992 35.1724C108.896 35.0563 108.78 34.9646 108.642 34.8971C108.505 34.8296 108.348 34.7959 108.171 34.7959C107.995 34.7959 107.838 34.8281 107.7 34.8924C107.564 34.9551 107.448 35.0406 107.354 35.1489C107.26 35.2587 107.188 35.3866 107.138 35.5325C107.089 35.6768 107.065 35.8313 107.065 35.996C107.065 36.1482 107.085 36.2933 107.126 36.4314C107.167 36.5694 107.229 36.6918 107.312 36.7985C107.394 36.9036 107.496 36.9875 107.618 37.0503C107.742 37.113 107.887 37.1444 108.053 37.1444C108.135 37.1444 108.209 37.1366 108.277 37.1209C108.346 37.1052 108.409 37.084 108.465 37.0573C108.518 37.0322 108.567 37.0032 108.611 36.9703C108.656 36.9357 108.696 36.8989 108.731 36.8597V36.8714C108.718 37.0048 108.69 37.1295 108.646 37.2456C108.602 37.3601 108.533 37.4621 108.439 37.5515C108.351 37.6331 108.239 37.6958 108.103 37.7398C107.966 37.7837 107.801 37.8056 107.606 37.8056ZM108.173 36.6996C108.079 36.6996 107.998 36.68 107.929 36.6408C107.861 36.6 107.805 36.5467 107.759 36.4808C107.712 36.4133 107.678 36.3365 107.656 36.2502C107.634 36.1639 107.623 36.0737 107.623 35.9796C107.623 35.8823 107.634 35.7897 107.658 35.7019C107.683 35.6125 107.719 35.5348 107.766 35.4689C107.812 35.403 107.868 35.3513 107.936 35.3136C108.005 35.2744 108.083 35.2548 108.171 35.2548C108.249 35.2548 108.323 35.2736 108.392 35.3113C108.461 35.3473 108.522 35.4007 108.573 35.4713C108.623 35.5419 108.663 35.6297 108.693 35.7348C108.725 35.8399 108.74 35.9607 108.74 36.0972V36.2925C108.717 36.3506 108.686 36.4047 108.649 36.4549C108.613 36.5035 108.57 36.5459 108.522 36.582C108.473 36.6196 108.419 36.6487 108.359 36.6691C108.301 36.6894 108.239 36.6996 108.173 36.6996ZM110.639 36.302V36.7444H110.976C111.073 36.7444 111.161 36.7561 111.239 36.7797C111.319 36.8016 111.388 36.8353 111.444 36.8808C111.501 36.9279 111.544 36.9867 111.574 37.0573C111.603 37.1279 111.618 37.2126 111.618 37.3115C111.618 37.3993 111.605 37.4778 111.578 37.5468C111.553 37.6143 111.516 37.6707 111.468 37.7162C111.418 37.7649 111.356 37.8017 111.282 37.8268C111.21 37.8504 111.128 37.8621 111.037 37.8621C110.952 37.8621 110.875 37.8496 110.804 37.8245C110.735 37.7994 110.675 37.7641 110.625 37.7186C110.574 37.6747 110.533 37.6213 110.505 37.5586C110.479 37.4942 110.465 37.4244 110.465 37.3491H109.903C109.903 37.5091 109.933 37.6496 109.995 37.7703C110.057 37.8896 110.141 37.99 110.244 38.0716C110.348 38.1531 110.468 38.2143 110.604 38.2551C110.741 38.2959 110.883 38.3163 111.03 38.3163C111.193 38.3163 111.345 38.2943 111.484 38.2504C111.625 38.2049 111.748 38.139 111.851 38.0527C111.953 37.968 112.033 37.8637 112.091 37.7398C112.151 37.6143 112.181 37.4715 112.181 37.3115C112.181 37.2252 112.171 37.142 112.15 37.062C112.13 36.9805 112.097 36.9044 112.051 36.8338C112.006 36.7647 111.947 36.7028 111.875 36.6479C111.804 36.5914 111.718 36.5459 111.616 36.5114C111.702 36.4722 111.778 36.4243 111.842 36.3678C111.906 36.3114 111.96 36.251 112.002 36.1866C112.044 36.1208 112.076 36.0525 112.096 35.9819C112.118 35.9113 112.129 35.8407 112.129 35.7701C112.129 35.6101 112.102 35.4697 112.049 35.3489C111.996 35.2281 111.92 35.1261 111.823 35.043C111.727 34.9614 111.611 34.9002 111.475 34.8594C111.34 34.8171 111.192 34.7959 111.03 34.7959C110.872 34.7959 110.726 34.8194 110.592 34.8665C110.461 34.9136 110.346 34.9787 110.249 35.0618C110.151 35.1465 110.075 35.2462 110.021 35.3607C109.966 35.4752 109.938 35.6007 109.938 35.7372H110.501C110.501 35.6635 110.514 35.5968 110.541 35.5372C110.569 35.4776 110.607 35.4266 110.656 35.3842C110.703 35.3418 110.759 35.3097 110.823 35.2877C110.889 35.2642 110.96 35.2524 111.037 35.2524C111.123 35.2524 111.199 35.2642 111.265 35.2877C111.333 35.3113 111.388 35.3442 111.432 35.3866C111.476 35.4321 111.509 35.487 111.531 35.5513C111.555 35.6156 111.567 35.6886 111.567 35.7701C111.567 35.8454 111.554 35.916 111.529 35.9819C111.505 36.0462 111.471 36.1004 111.425 36.1443C111.377 36.1945 111.315 36.2337 111.239 36.2619C111.164 36.2886 111.076 36.302 110.976 36.302H110.639ZM113.534 36.302V36.7444H113.87C113.968 36.7444 114.055 36.7561 114.134 36.7797C114.214 36.8016 114.282 36.8353 114.339 36.8808C114.395 36.9279 114.438 36.9867 114.468 37.0573C114.498 37.1279 114.513 37.2126 114.513 37.3115C114.513 37.3993 114.499 37.4778 114.473 37.5468C114.448 37.6143 114.411 37.6707 114.362 37.7162C114.312 37.7649 114.25 37.8017 114.176 37.8268C114.104 37.8504 114.023 37.8621 113.932 37.8621C113.847 37.8621 113.769 37.8496 113.699 37.8245C113.63 37.7994 113.57 37.7641 113.52 37.7186C113.468 37.6747 113.428 37.6213 113.4 37.5586C113.373 37.4942 113.36 37.4244 113.36 37.3491H112.797C112.797 37.5091 112.828 37.6496 112.889 37.7703C112.952 37.8896 113.035 37.99 113.138 38.0716C113.242 38.1531 113.362 38.2143 113.499 38.2551C113.635 38.2959 113.777 38.3163 113.924 38.3163C114.088 38.3163 114.239 38.2943 114.379 38.2504C114.52 38.2049 114.642 38.139 114.746 38.0527C114.848 37.968 114.928 37.8637 114.986 37.7398C115.045 37.6143 115.075 37.4715 115.075 37.3115C115.075 37.2252 115.065 37.142 115.045 37.062C115.024 36.9805 114.991 36.9044 114.946 36.8338C114.9 36.7647 114.841 36.7028 114.769 36.6479C114.699 36.5914 114.612 36.5459 114.51 36.5114C114.597 36.4722 114.672 36.4243 114.736 36.3678C114.801 36.3114 114.854 36.251 114.896 36.1866C114.939 36.1208 114.97 36.0525 114.99 35.9819C115.012 35.9113 115.023 35.8407 115.023 35.7701C115.023 35.6101 114.997 35.4697 114.943 35.3489C114.89 35.2281 114.815 35.1261 114.717 35.043C114.622 34.9614 114.506 34.9002 114.369 34.8594C114.234 34.8171 114.086 34.7959 113.924 34.7959C113.766 34.7959 113.62 34.8194 113.487 34.8665C113.355 34.9136 113.24 34.9787 113.143 35.0618C113.046 35.1465 112.97 35.2462 112.915 35.3607C112.86 35.4752 112.833 35.6007 112.833 35.7372H113.395C113.395 35.6635 113.408 35.5968 113.435 35.5372C113.463 35.4776 113.502 35.4266 113.55 35.3842C113.597 35.3418 113.653 35.3097 113.717 35.2877C113.783 35.2642 113.855 35.2524 113.932 35.2524C114.018 35.2524 114.094 35.2642 114.16 35.2877C114.227 35.3113 114.283 35.3442 114.327 35.3866C114.371 35.4321 114.404 35.487 114.426 35.5513C114.449 35.6156 114.461 35.6886 114.461 35.7701C114.461 35.8454 114.448 35.916 114.423 35.9819C114.4 36.0462 114.365 36.1004 114.32 36.1443C114.271 36.1945 114.209 36.2337 114.134 36.2619C114.059 36.2886 113.971 36.302 113.87 36.302H113.534ZM118.043 35.1583V34.843H115.673V35.3136H117.45L116.08 38.2692H116.673L118.043 35.1583ZM120.577 37.0479V34.843H119.998L118.518 37.1585L118.532 37.5044H120.015V38.2692H120.577V37.5044H121.008V37.0479H120.577ZM119.092 37.0479L119.949 35.7184L120.015 35.596V37.0479H119.092ZM123.754 35.7466C123.754 35.5944 123.727 35.4595 123.674 35.3418C123.62 35.2226 123.547 35.123 123.455 35.043C123.359 34.9614 123.247 34.9002 123.118 34.8594C122.991 34.8171 122.852 34.7959 122.702 34.7959C122.55 34.7959 122.409 34.8171 122.281 34.8594C122.154 34.9002 122.045 34.9614 121.954 35.043C121.861 35.1246 121.788 35.2242 121.735 35.3418C121.683 35.4595 121.657 35.5944 121.657 35.7466C121.657 35.8313 121.669 35.9121 121.692 35.989C121.716 36.0658 121.749 36.1364 121.791 36.2008C121.832 36.2635 121.881 36.3208 121.939 36.3725C121.999 36.4243 122.065 36.4682 122.137 36.5043C122.052 36.5435 121.976 36.5914 121.906 36.6479C121.839 36.7028 121.781 36.7647 121.732 36.8338C121.684 36.9059 121.646 36.9844 121.619 37.0691C121.594 37.1538 121.582 37.2432 121.582 37.3374C121.582 37.4974 121.61 37.6386 121.666 37.7609C121.725 37.8817 121.805 37.9829 121.906 38.0645C122.007 38.1476 122.125 38.2104 122.262 38.2528C122.4 38.2951 122.549 38.3163 122.709 38.3163C122.866 38.3163 123.012 38.2951 123.147 38.2528C123.283 38.2104 123.402 38.1476 123.504 38.0645C123.605 37.9829 123.684 37.8809 123.742 37.7586C123.8 37.6362 123.829 37.4958 123.829 37.3374C123.829 37.226 123.811 37.1224 123.775 37.0267C123.739 36.931 123.689 36.8455 123.624 36.7702C123.579 36.7138 123.525 36.6643 123.464 36.622C123.405 36.5781 123.34 36.5396 123.269 36.5067C123.329 36.4769 123.383 36.4424 123.431 36.4031C123.48 36.3639 123.523 36.3216 123.561 36.2761C123.622 36.2055 123.669 36.1255 123.702 36.036C123.736 35.9466 123.754 35.8501 123.754 35.7466ZM123.267 37.3068C123.267 37.3946 123.253 37.4731 123.224 37.5421C123.196 37.6095 123.158 37.6676 123.111 37.7162C123.061 37.7633 123.002 37.7994 122.932 37.8245C122.865 37.8496 122.791 37.8621 122.709 37.8621C122.623 37.8621 122.545 37.8504 122.476 37.8268C122.409 37.8017 122.35 37.7664 122.302 37.7209C122.252 37.6739 122.213 37.6158 122.187 37.5468C122.16 37.4762 122.147 37.397 122.147 37.3091C122.147 37.2228 122.159 37.1452 122.184 37.0762C122.211 37.0056 122.248 36.9444 122.297 36.8926C122.346 36.844 122.404 36.8063 122.471 36.7797C122.54 36.753 122.618 36.7396 122.704 36.7396C122.787 36.7396 122.863 36.753 122.932 36.7797C123.002 36.8063 123.061 36.844 123.111 36.8926C123.16 36.9444 123.198 37.0056 123.224 37.0762C123.253 37.1452 123.267 37.2221 123.267 37.3068ZM123.194 35.7678C123.194 35.8446 123.182 35.9152 123.158 35.9796C123.135 36.0423 123.102 36.0957 123.06 36.1396C123.017 36.1851 122.966 36.2204 122.907 36.2455C122.847 36.2706 122.78 36.2831 122.707 36.2831C122.633 36.2831 122.566 36.2706 122.507 36.2455C122.447 36.2204 122.396 36.1851 122.354 36.1396C122.31 36.0957 122.277 36.0423 122.255 35.9796C122.233 35.9152 122.222 35.8446 122.222 35.7678C122.222 35.6893 122.233 35.618 122.255 35.5536C122.277 35.4893 122.308 35.4352 122.349 35.3913C122.391 35.3473 122.441 35.3136 122.5 35.2901C122.559 35.265 122.626 35.2524 122.7 35.2524C122.775 35.2524 122.842 35.265 122.902 35.2901C122.962 35.3152 123.013 35.3497 123.057 35.3936C123.1 35.4407 123.133 35.4956 123.156 35.5583C123.181 35.6211 123.194 35.6909 123.194 35.7678Z" fill="#2E3539"/>
<path d="M150.992 38.2692V34.843H150.956L149.547 35.3654V35.8619L150.425 35.5395V38.2692H150.992ZM153.886 38.2692V34.843H153.851L152.441 35.3654V35.8619L153.319 35.5395V38.2692H153.886ZM156.781 38.2692V34.843H156.745L155.336 35.3654V35.8619L156.213 35.5395V38.2692H156.781ZM158.748 36.302V36.7444H159.084C159.182 36.7444 159.27 36.7561 159.348 36.7797C159.428 36.8016 159.496 36.8354 159.553 36.8809C159.609 36.9279 159.652 36.9867 159.682 37.0573C159.712 37.1279 159.727 37.2127 159.727 37.3115C159.727 37.3993 159.713 37.4778 159.687 37.5468C159.662 37.6143 159.625 37.6707 159.576 37.7162C159.526 37.7649 159.464 37.8017 159.39 37.8268C159.318 37.8504 159.237 37.8621 159.146 37.8621C159.061 37.8621 158.983 37.8496 158.913 37.8245C158.844 37.7994 158.784 37.7641 158.734 37.7186C158.682 37.6747 158.642 37.6213 158.614 37.5586C158.587 37.4943 158.574 37.4244 158.574 37.3491H158.011C158.011 37.5092 158.042 37.6496 158.103 37.7704C158.166 37.8896 158.249 37.99 158.353 38.0716C158.456 38.1532 158.576 38.2143 158.713 38.2551C158.849 38.2959 158.991 38.3163 159.139 38.3163C159.302 38.3163 159.453 38.2943 159.593 38.2504C159.734 38.2049 159.856 38.139 159.96 38.0527C160.062 37.968 160.142 37.8637 160.2 37.7398C160.259 37.6143 160.289 37.4715 160.289 37.3115C160.289 37.2252 160.279 37.1421 160.259 37.0621C160.238 36.9805 160.205 36.9044 160.16 36.8338C160.114 36.7648 160.055 36.7028 159.983 36.6479C159.913 36.5914 159.826 36.5459 159.724 36.5114C159.811 36.4722 159.886 36.4243 159.95 36.3679C160.015 36.3114 160.068 36.251 160.11 36.1867C160.153 36.1208 160.184 36.0525 160.205 35.9819C160.226 35.9113 160.237 35.8407 160.237 35.7701C160.237 35.6101 160.211 35.4697 160.157 35.3489C160.104 35.2281 160.029 35.1262 159.932 35.043C159.836 34.9614 159.72 34.9002 159.583 34.8595C159.448 34.8171 159.3 34.7959 159.139 34.7959C158.98 34.7959 158.834 34.8195 158.701 34.8665C158.569 34.9136 158.455 34.9787 158.357 35.0618C158.26 35.1465 158.184 35.2462 158.129 35.3607C158.074 35.4752 158.047 35.6007 158.047 35.7372H158.609C158.609 35.6635 158.622 35.5968 158.649 35.5372C158.677 35.4776 158.716 35.4266 158.764 35.3842C158.811 35.3419 158.867 35.3097 158.931 35.2877C158.997 35.2642 159.069 35.2524 159.146 35.2524C159.232 35.2524 159.308 35.2642 159.374 35.2877C159.441 35.3113 159.497 35.3442 159.541 35.3866C159.585 35.4321 159.618 35.487 159.64 35.5513C159.663 35.6156 159.675 35.6886 159.675 35.7701C159.675 35.8454 159.662 35.916 159.637 35.9819C159.614 36.0463 159.579 36.1004 159.534 36.1443C159.485 36.1945 159.423 36.2337 159.348 36.262C159.273 36.2886 159.185 36.302 159.084 36.302H158.748ZM163.228 38.2692V37.8151H161.633L162.395 37.0009C162.496 36.8942 162.588 36.7906 162.673 36.6902C162.759 36.5898 162.834 36.4902 162.897 36.3914C162.958 36.2926 163.006 36.1929 163.04 36.0925C163.076 35.9906 163.094 35.8855 163.094 35.7772C163.094 35.6329 163.071 35.5011 163.024 35.3819C162.977 35.2611 162.908 35.1575 162.819 35.0712C162.728 34.985 162.616 34.9175 162.482 34.8689C162.351 34.8202 162.201 34.7959 162.033 34.7959C161.854 34.7959 161.692 34.8249 161.546 34.883C161.402 34.941 161.279 35.0195 161.179 35.1183C161.077 35.2171 160.998 35.3332 160.943 35.4666C160.889 35.5984 160.861 35.7388 160.861 35.8878H161.426C161.426 35.789 161.438 35.7011 161.463 35.6242C161.489 35.5458 161.526 35.4791 161.576 35.4242C161.625 35.3725 161.686 35.3325 161.76 35.3042C161.834 35.276 161.921 35.2619 162.021 35.2619C162.1 35.2619 162.17 35.2752 162.233 35.3019C162.297 35.3285 162.352 35.3654 162.398 35.4125C162.443 35.4595 162.478 35.516 162.501 35.5819C162.525 35.6478 162.537 35.7207 162.537 35.8007C162.537 35.8604 162.528 35.92 162.511 35.9796C162.495 36.0376 162.468 36.1004 162.431 36.1678C162.391 36.2353 162.34 36.3098 162.278 36.3914C162.215 36.4714 162.137 36.5624 162.045 36.6644L160.929 37.8786V38.2692H163.228ZM166.123 38.2692V37.8151H164.527L165.29 37.0009C165.39 36.8942 165.483 36.7906 165.567 36.6902C165.654 36.5898 165.728 36.4902 165.791 36.3914C165.852 36.2926 165.9 36.1929 165.935 36.0925C165.971 35.9906 165.989 35.8855 165.989 35.7772C165.989 35.6329 165.965 35.5011 165.918 35.3819C165.871 35.2611 165.803 35.1575 165.713 35.0712C165.622 34.985 165.51 34.9175 165.377 34.8689C165.245 34.8202 165.095 34.7959 164.927 34.7959C164.749 34.7959 164.586 34.8249 164.44 34.883C164.296 34.941 164.174 35.0195 164.073 35.1183C163.971 35.2171 163.893 35.3332 163.838 35.4666C163.783 35.5984 163.755 35.7388 163.755 35.8878H164.32C164.32 35.789 164.333 35.7011 164.358 35.6242C164.383 35.5458 164.421 35.4791 164.471 35.4242C164.519 35.3725 164.581 35.3325 164.654 35.3042C164.728 35.276 164.815 35.2619 164.916 35.2619C164.994 35.2619 165.065 35.2752 165.127 35.3019C165.192 35.3285 165.247 35.3654 165.292 35.4125C165.338 35.4595 165.372 35.516 165.396 35.5819C165.419 35.6478 165.431 35.7207 165.431 35.8007C165.431 35.8604 165.422 35.92 165.405 35.9796C165.389 36.0376 165.363 36.1004 165.325 36.1678C165.286 36.2353 165.235 36.3098 165.172 36.3914C165.109 36.4714 165.032 36.5624 164.939 36.6644L163.824 37.8786V38.2692H166.123ZM166.921 36.5702L167.37 36.6808C167.4 36.6526 167.43 36.6267 167.462 36.6032C167.495 36.5781 167.531 36.5561 167.57 36.5373C167.608 36.52 167.651 36.5059 167.699 36.4949C167.75 36.4839 167.808 36.4785 167.876 36.4785C167.978 36.4785 168.067 36.4957 168.144 36.5302C168.221 36.5632 168.285 36.6102 168.337 36.6714C168.389 36.7326 168.427 36.8048 168.452 36.8879C168.479 36.9695 168.492 37.0597 168.492 37.1585C168.492 37.2605 168.481 37.3554 168.46 37.4433C168.438 37.5296 168.405 37.6033 168.361 37.6645C168.314 37.7272 168.256 37.7759 168.187 37.8104C168.118 37.8449 168.036 37.8621 167.942 37.8621C167.782 37.8621 167.65 37.8174 167.546 37.728C167.445 37.6386 167.383 37.5099 167.363 37.3421H166.815C166.824 37.5005 166.861 37.6409 166.925 37.7633C166.991 37.8841 167.075 37.9853 167.177 38.0669C167.279 38.15 167.396 38.2128 167.528 38.2551C167.659 38.2959 167.797 38.3163 167.942 38.3163C168.132 38.3163 168.296 38.2865 168.436 38.2269C168.576 38.1673 168.691 38.0857 168.782 37.9822C168.874 37.8786 168.943 37.7578 168.987 37.6198C169.032 37.4801 169.055 37.3319 169.055 37.175C169.055 36.9977 169.031 36.8385 168.984 36.6973C168.937 36.5545 168.87 36.433 168.782 36.3326C168.692 36.2337 168.583 36.1576 168.455 36.1043C168.328 36.051 168.183 36.0243 168.022 36.0243C167.903 36.0243 167.797 36.0392 167.704 36.069C167.613 36.0988 167.539 36.1302 167.483 36.1631L167.572 35.3419H168.947V34.843H167.104L166.921 36.5702ZM169.815 36.5702L170.264 36.6808C170.294 36.6526 170.325 36.6267 170.356 36.6032C170.389 36.5781 170.425 36.5561 170.464 36.5373C170.502 36.52 170.545 36.5059 170.594 36.4949C170.644 36.4839 170.703 36.4785 170.77 36.4785C170.872 36.4785 170.962 36.4957 171.039 36.5302C171.116 36.5632 171.18 36.6102 171.232 36.6714C171.283 36.7326 171.322 36.8048 171.347 36.8879C171.374 36.9695 171.387 37.0597 171.387 37.1585C171.387 37.2605 171.376 37.3554 171.354 37.4433C171.332 37.5296 171.299 37.6033 171.255 37.6645C171.208 37.7272 171.15 37.7759 171.081 37.8104C171.012 37.8449 170.93 37.8621 170.836 37.8621C170.676 37.8621 170.544 37.8174 170.441 37.728C170.339 37.6386 170.278 37.5099 170.257 37.3421H169.709C169.718 37.5005 169.755 37.6409 169.82 37.7633C169.886 37.8841 169.969 37.9853 170.071 38.0669C170.173 38.15 170.29 38.2128 170.422 38.2551C170.554 38.2959 170.692 38.3163 170.836 38.3163C171.026 38.3163 171.191 38.2865 171.33 38.2269C171.47 38.1673 171.585 38.0857 171.676 37.9822C171.769 37.8786 171.837 37.7578 171.881 37.6198C171.927 37.4801 171.949 37.3319 171.949 37.175C171.949 36.9977 171.926 36.8385 171.879 36.6973C171.832 36.5545 171.764 36.433 171.676 36.3326C171.587 36.2337 171.478 36.1576 171.349 36.1043C171.222 36.051 171.078 36.0243 170.916 36.0243C170.797 36.0243 170.691 36.0392 170.599 36.069C170.508 36.0988 170.434 36.1302 170.377 36.1631L170.467 35.3419H171.841V34.843H169.999L169.815 36.5702ZM174.305 34.8265H174.239C173.972 34.8265 173.735 34.8681 173.528 34.9512C173.321 35.0344 173.147 35.1536 173.006 35.3089C172.84 35.4893 172.72 35.705 172.648 35.956C172.578 36.2055 172.542 36.4683 172.542 36.7444V36.9773C172.542 37.1609 172.569 37.3358 172.622 37.5021C172.676 37.6668 172.754 37.8104 172.858 37.9327C172.955 38.0504 173.074 38.1437 173.215 38.2128C173.357 38.2818 173.517 38.3163 173.698 38.3163C173.873 38.3163 174.03 38.2865 174.166 38.2269C174.304 38.1657 174.421 38.0818 174.517 37.9751C174.611 37.87 174.682 37.7468 174.731 37.6056C174.781 37.4629 174.806 37.3099 174.806 37.1468C174.806 36.9977 174.786 36.8542 174.747 36.7161C174.71 36.5781 174.65 36.4557 174.568 36.349C174.488 36.2424 174.386 36.1576 174.263 36.0949C174.14 36.0321 173.996 36.0008 173.83 36.0008C173.751 36.0008 173.677 36.0102 173.606 36.029C173.535 36.0463 173.471 36.0698 173.413 36.0996C173.352 36.131 173.296 36.1671 173.246 36.2078C173.196 36.2471 173.152 36.2878 173.114 36.3302C173.127 36.1843 173.159 36.0478 173.211 35.9208C173.264 35.7937 173.338 35.6846 173.434 35.5937C173.528 35.5027 173.644 35.4321 173.78 35.3819C173.918 35.3301 174.081 35.3042 174.267 35.3042H174.305V34.8265ZM173.691 36.4573C173.782 36.4573 173.862 36.4761 173.931 36.5138C174.001 36.5498 174.06 36.6 174.107 36.6644C174.154 36.7287 174.19 36.804 174.213 36.8903C174.238 36.975 174.251 37.0652 174.251 37.1609C174.251 37.2613 174.238 37.3546 174.213 37.4409C174.188 37.5256 174.151 37.5994 174.102 37.6621C174.054 37.7233 173.995 37.7719 173.926 37.808C173.857 37.8425 173.779 37.8598 173.691 37.8598C173.611 37.8598 173.535 37.8417 173.465 37.8057C173.394 37.7696 173.332 37.717 173.279 37.648C173.226 37.579 173.183 37.4927 173.152 37.3891C173.122 37.2856 173.107 37.1656 173.107 37.0291V36.855C173.132 36.7969 173.164 36.7444 173.201 36.6973C173.239 36.6502 173.281 36.6087 173.328 36.5726C173.38 36.5365 173.437 36.5083 173.498 36.4879C173.559 36.4675 173.623 36.4573 173.691 36.4573Z" fill="#2E3539"/>
<circle cx="111.556" cy="16.2275" r="10.0235" transform="rotate(-45 111.556 16.2275)" stroke="#2E3539" stroke-width="2.80967"/>
<line x1="104.269" y1="9.12577" x2="118.278" y2="23.1354" stroke="#2E3539" stroke-width="2.80967"/>
<path fill-rule="evenodd" clip-rule="evenodd" d="M44.511 16.2273C47.449 11.0296 53.026 7.521 59.4226 7.521C65.8191 7.521 71.3962 11.0296 74.3342 16.2273C71.3962 21.425 65.8191 24.9337 59.4226 24.9337C53.026 24.9337 47.449 21.425 44.511 16.2273Z" fill="#2E3539"/>
<circle cx="59.4224" cy="16.2276" r="5.11575" fill="black"/>
<circle cx="57.1459" cy="13.3885" r="2.83922" fill="#2E3539"/>
<rect x="150.025" y="16.248" width="6.99155" height="6.99155" rx="3.49577" transform="rotate(-45 150.025 16.248)" stroke="#2E3539" stroke-width="1.76447"/>
<rect x="157.574" y="23.7983" width="6.99155" height="6.99155" rx="3.49577" transform="rotate(-45 157.574 23.7983)" stroke="#2E3539" stroke-width="1.76447"/>
<rect x="165.167" y="16.2082" width="6.99155" height="6.99155" rx="3.49577" transform="rotate(-45 165.167 16.2082)" stroke="#2E3539" stroke-width="1.76447"/>
<rect x="157.614" y="8.65814" width="6.99155" height="6.99155" rx="3.49577" transform="rotate(-45 157.614 8.65814)" stroke="#2E3539" stroke-width="1.76447"/>
<circle cx="12.4682" cy="16.2275" r="10.1007" stroke="#2E3539" stroke-width="1.76447"/>
<path d="M16.1491 16.2275C16.1491 19.1733 15.6514 21.7988 14.8801 23.6551C14.4937 24.5852 14.056 25.2802 13.6151 25.7291C13.1771 26.175 12.7901 26.3282 12.4683 26.3282C12.1465 26.3282 11.7595 26.175 11.3216 25.7291C10.8806 25.2802 10.4429 24.5852 10.0565 23.6551C9.28524 21.7988 8.78751 19.1733 8.78751 16.2275C8.78751 13.2818 9.28524 10.6562 10.0565 8.79993C10.4429 7.86982 10.8806 7.17485 11.3216 6.72595C11.7595 6.28009 12.1465 6.12686 12.4683 6.12686C12.7901 6.12686 13.1771 6.28009 13.6151 6.72595C14.056 7.17485 14.4937 7.86982 14.8801 8.79993C15.6514 10.6562 16.1491 13.2818 16.1491 16.2275Z" stroke="#2E3539" stroke-width="1.76447"/>
<line x1="1.91602" y1="16.0977" x2="22.4909" y2="16.0977" stroke="#2E3539" stroke-width="1.76447"/>
</svg>
