<svg width="410" height="123" viewBox="0 0 410 123" fill="none" xmlns="http://www.w3.org/2000/svg">
<g style="mix-blend-mode:exclusion">
<path d="M66.2975 100.803L69.8894 104.017C72.6116 101.068 75.8632 99.4045 79.8709 99.4045C83.3493 99.4045 86.7899 100.577 86.7899 102.845C86.7899 105.038 83.4627 106.021 79.1147 107.496C71.2883 110.029 66.4866 114.263 65.7304 119.179V121.863H93.4821V116.986H73.1409C74.0105 115.133 77.7158 113.356 82.631 111.73C88.6426 109.802 92.915 107.269 92.915 102.732C92.915 97.2116 86.374 94.6028 80.06 94.6028C73.8971 94.6028 68.8307 97.2872 66.2975 100.803ZM113.303 122.695C123.322 122.695 129.41 117.439 129.41 108.63C129.41 99.8204 123.322 94.565 113.303 94.565C103.322 94.565 97.2343 99.8204 97.2343 108.63C97.2343 117.439 103.322 122.695 113.303 122.695ZM113.341 117.477C107.178 117.477 103.397 114.452 103.397 108.63C103.397 102.807 107.178 99.7826 113.341 99.7826C119.466 99.7826 123.247 102.807 123.247 108.63C123.247 114.452 119.466 117.477 113.341 117.477ZM133.312 100.803L136.904 104.017C139.626 101.068 142.878 99.4045 146.886 99.4045C150.364 99.4045 153.805 100.577 153.805 102.845C153.805 105.038 150.477 106.021 146.129 107.496C138.303 110.029 133.501 114.263 132.745 119.179V121.863H160.497V116.986H140.156C141.025 115.133 144.73 113.356 149.646 111.73C155.657 109.802 159.93 107.269 159.93 102.732C159.93 97.2116 153.389 94.6028 147.075 94.6028C140.912 94.6028 135.845 97.2872 133.312 100.803ZM164.438 100.803L168.03 104.017C170.752 101.068 174.004 99.4045 178.011 99.4045C181.49 99.4045 184.93 100.577 184.93 102.845C184.93 105.038 181.603 106.021 177.255 107.496C169.429 110.029 164.627 114.263 163.871 119.179V121.863H191.623V116.986H171.281C172.151 115.133 175.856 113.356 180.771 111.73C186.783 109.802 191.055 107.269 191.055 102.732C191.055 97.2116 184.515 94.6028 178.2 94.6028C172.038 94.6028 166.971 97.2872 164.438 100.803Z" fill="#8EFE1C"/>
</g>
<g style="mix-blend-mode:exclusion">
<path d="M205.712 62.9918L205.756 62.4547L205.755 62.4546L205.712 62.9918ZM204.654 57.0558L204.648 57.5947L204.649 57.5947L204.654 57.0558ZM215.467 60.2318L215.139 60.6595L215.56 60.9819L215.889 60.5665L215.467 60.2318ZM218.794 56.035L219.216 56.3698L219.555 55.9429L219.124 55.6091L218.794 56.035ZM205.183 68.5119L205.23 67.975L205.229 67.9749L205.183 68.5119ZM193.046 70.667L193.411 70.2701L192.997 69.8899L192.634 70.3194L193.046 70.667ZM189.568 74.7882L189.156 74.4406L188.81 74.8509L189.219 75.1987L189.568 74.7882ZM205.755 62.4546C203.103 62.2448 200.9 62.0867 199.351 61.7075C198.578 61.518 198.03 61.287 197.684 61.012C197.364 60.7576 197.215 60.468 197.215 60.0805H196.137C196.137 60.8273 196.461 61.4168 197.014 61.8559C197.541 62.2745 198.267 62.5515 199.095 62.7543C200.751 63.1597 203.066 63.3229 205.67 63.529L205.755 62.4546ZM197.215 60.0805C197.215 59.6632 197.395 59.3101 197.768 58.9912C198.154 58.6603 198.734 58.3818 199.471 58.1632C200.942 57.727 202.875 57.576 204.648 57.5947L204.659 56.517C202.841 56.4978 200.785 56.6493 199.165 57.1299C198.356 57.3698 197.615 57.7033 197.067 58.1723C196.505 58.6533 196.137 59.288 196.137 60.0805H197.215ZM204.649 57.5947C208.887 57.6319 212.351 58.5232 215.139 60.6595L215.795 59.804C212.76 57.4789 209.04 56.5554 204.658 56.5169L204.649 57.5947ZM215.889 60.5665L219.216 56.3698L218.372 55.7002L215.045 59.897L215.889 60.5665ZM219.124 55.6091C215.637 52.9052 210.517 51.4505 204.654 51.4505V52.5283C210.36 52.5283 215.222 53.9471 218.464 56.4609L219.124 55.6091ZM204.654 51.4505C200.515 51.4505 196.894 52.2153 194.288 53.7255C191.663 55.2473 190.05 57.5438 190.05 60.5342H191.128C191.128 58.0046 192.464 56.0287 194.829 54.658C197.214 53.2759 200.626 52.5283 204.654 52.5283V51.4505ZM190.05 60.5342C190.05 62.0739 190.531 63.361 191.386 64.4213C192.234 65.4722 193.43 66.2766 194.831 66.901C197.622 68.1453 201.348 68.7267 205.137 69.0489L205.229 67.9749C201.456 67.6543 197.885 67.0826 195.27 65.9166C193.967 65.3358 192.932 64.6208 192.225 63.7445C191.526 62.8778 191.128 61.8302 191.128 60.5342H190.05ZM205.136 69.0488C208.19 69.3143 210.327 69.5948 211.696 70.0617C212.377 70.2936 212.814 70.5547 213.079 70.8372C213.328 71.1029 213.453 71.4168 213.453 71.8391H214.531C214.531 71.1649 214.316 70.5808 213.865 70.0998C213.429 69.6356 212.806 69.3012 212.044 69.0416C210.531 68.5255 208.263 68.2388 205.23 67.975L205.136 69.0488ZM213.453 71.8391C213.453 72.2653 213.325 72.6164 213.07 72.9199C212.807 73.2334 212.386 73.5226 211.764 73.7665C210.508 74.2581 208.568 74.5139 205.901 74.5139V75.5917C208.603 75.5917 210.709 75.3371 212.157 74.7701C212.886 74.4846 213.481 74.1075 213.896 73.6128C214.319 73.1081 214.531 72.5093 214.531 71.8391H213.453ZM205.901 74.5139C200.593 74.5139 196.539 73.1438 193.411 70.2701L192.682 71.0639C196.056 74.164 200.396 75.5917 205.901 75.5917V74.5139ZM192.634 70.3194L189.156 74.4406L189.98 75.1357L193.458 71.0146L192.634 70.3194ZM189.219 75.1987C193.379 78.7365 198.954 80.6581 205.75 80.6581V79.5803C199.162 79.5803 193.848 77.7211 189.917 74.3777L189.219 75.1987ZM205.75 80.6581C210.497 80.6581 214.195 79.7409 216.724 78.1046C219.274 76.4542 220.618 74.0787 220.618 71.2719H219.541C219.541 73.6828 218.408 75.7309 216.138 77.1997C213.846 78.6827 210.379 79.5803 205.75 79.5803V80.6581ZM220.618 71.2719C220.618 69.7192 220.221 68.4068 219.464 67.3111C218.71 66.2205 217.624 65.378 216.297 64.7207C213.66 63.4146 209.979 62.7956 205.756 62.4547L205.669 63.529C209.877 63.8686 213.379 64.4783 215.818 65.6865C217.03 66.2864 217.954 67.0224 218.577 67.9238C219.196 68.8202 219.541 69.9134 219.541 71.2719H220.618ZM224.997 52.8212V52.2823H224.458V52.8212H224.997ZM224.997 79.2874H224.458V79.8263H224.997V79.2874ZM231.046 79.2874V79.8263H231.585V79.2874H231.046ZM231.046 70.7426V70.2037H230.507V70.7426H231.046ZM231.046 65.7519H230.507V66.2907H231.046V65.7519ZM231.046 57.8876V57.3487H230.507V57.8876H231.046ZM243.107 52.2823H224.997V53.3601H243.107V52.2823ZM224.458 52.8212V79.2874H225.535V52.8212H224.458ZM224.997 79.8263H231.046V78.7485H224.997V79.8263ZM231.585 79.2874V70.7426H230.507V79.2874H231.585ZM231.046 71.2815H243.107V70.2037H231.046V71.2815ZM243.107 71.2815C246.582 71.2815 249.547 70.491 251.656 68.8891C253.785 67.2721 254.988 64.8679 254.988 61.7819H253.911C253.911 64.5563 252.845 66.6325 251.004 68.0308C249.144 69.444 246.437 70.2037 243.107 70.2037V71.2815ZM254.988 61.7819C254.988 58.7321 253.784 56.3293 251.658 54.7041C249.549 53.0929 246.585 52.2823 243.107 52.2823V53.3601C246.434 53.3601 249.141 54.1375 251.003 55.5605C252.847 56.9694 253.911 59.047 253.911 61.7819H254.988ZM242.615 65.213H231.046V66.2907H242.615V65.213ZM231.585 65.7519V57.8876H230.507V65.7519H231.585ZM231.046 58.4265H242.615V57.3487H231.046V58.4265ZM242.615 58.4265C244.29 58.4265 245.584 58.654 246.447 59.1796C247.257 59.6735 247.748 60.4686 247.748 61.8197H248.826C248.826 60.1461 248.182 58.9752 247.008 58.2593C245.885 57.575 244.343 57.3487 242.615 57.3487V58.4265ZM247.748 61.8197C247.748 63.1708 247.257 63.9659 246.447 64.4599C245.584 64.9855 244.29 65.213 242.615 65.213V66.2907C244.343 66.2907 245.885 66.0645 247.008 65.3802C248.182 64.6643 248.826 63.4933 248.826 61.8197H247.748ZM289.548 79.2874V79.8263H290.729L289.955 78.9343L289.548 79.2874ZM281.382 69.873L281.259 69.3481L280.389 69.5508L280.975 70.2261L281.382 69.873ZM259.15 52.8212V52.2823H258.611V52.8212H259.15ZM259.15 79.2874H258.611V79.8263H259.15V79.2874ZM265.162 79.2874V79.8263H265.701V79.2874H265.162ZM265.162 70.2889V69.75H264.623V70.2889H265.162ZM274.727 70.2889L275.139 69.9412L274.978 69.75H274.727V70.2889ZM282.327 79.2874L281.915 79.6351L282.077 79.8263H282.327V79.2874ZM265.124 65.2981H264.585V65.837H265.124V65.2981ZM265.124 57.8876V57.3487H264.585V57.8876H265.124ZM289.955 78.9343L281.789 69.5199L280.975 70.2261L289.141 79.6405L289.955 78.9343ZM281.504 70.3979C283.773 69.8698 285.721 68.8726 287.107 67.3859C288.5 65.8912 289.293 63.9335 289.293 61.5551H288.215C288.215 63.6759 287.515 65.3667 286.318 66.651C285.114 67.9433 283.376 68.8554 281.259 69.3481L281.504 70.3979ZM289.293 61.5551C289.293 58.5074 287.99 56.162 285.823 54.5963C283.676 53.0449 280.718 52.2823 277.412 52.2823V53.3601C280.57 53.3601 283.284 54.091 285.192 55.4698C287.08 56.8343 288.215 58.8558 288.215 61.5551H289.293ZM277.412 52.2823H259.15V53.3601H277.412V52.2823ZM258.611 52.8212V79.2874H259.689V52.8212H258.611ZM259.15 79.8263H265.162V78.7485H259.15V79.8263ZM265.701 79.2874V70.2889H264.623V79.2874H265.701ZM265.162 70.8278H274.727V69.75H265.162V70.8278ZM274.316 70.6366L281.915 79.6351L282.739 78.9397L275.139 69.9412L274.316 70.6366ZM282.327 79.8263H289.548V78.7485H282.327V79.8263ZM265.663 65.2981V57.8876H264.585V65.2981H265.663ZM265.124 58.4265H277.071V57.3487H265.124V58.4265ZM277.071 58.4265C278.639 58.4265 279.9 58.6173 280.757 59.1031C281.174 59.3397 281.489 59.6434 281.704 60.0312C281.921 60.4213 282.053 60.9275 282.053 61.5929H283.13C283.13 60.7837 282.969 60.0895 282.647 59.5084C282.323 58.925 281.854 58.4867 281.288 58.1656C280.179 57.536 278.68 57.3487 277.071 57.3487V58.4265ZM282.053 61.5929C282.053 62.2583 281.921 62.7645 281.704 63.1546C281.489 63.5424 281.174 63.8461 280.757 64.0827C279.9 64.5685 278.639 64.7593 277.071 64.7593V65.837C278.68 65.837 280.179 65.6497 281.288 65.0201C281.854 64.6991 282.323 64.2608 282.647 63.6774C282.969 63.0962 283.13 62.402 283.13 61.5929H282.053ZM277.071 64.7593H265.124V65.837H277.071V64.7593ZM300.424 79.2874V79.8263H300.963V79.2874H300.424ZM300.424 52.8212H300.963V52.2823H300.424V52.8212ZM294.374 52.8212V52.2823H293.835V52.8212H294.374ZM294.374 79.2874H293.835V79.8263H294.374V79.2874ZM300.963 79.2874V52.8212H299.885V79.2874H300.963ZM300.424 52.2823H294.374V53.3601H300.424V52.2823ZM293.835 52.8212V79.2874H294.913V52.8212H293.835ZM294.374 79.8263H300.424V78.7485H294.374V79.8263ZM331.792 52.8212V52.2823H331.253V52.8212H331.792ZM331.792 70.9695L331.408 71.3473L332.331 72.2861V70.9695H331.792ZM313.946 52.8212L314.33 52.4434L314.172 52.2823H313.946V52.8212ZM307.519 52.8212V52.2823H306.98V52.8212H307.519ZM307.519 79.2874H306.98V79.8263H307.519V79.2874ZM313.379 79.2874V79.8263H313.918V79.2874H313.379ZM313.379 60.1561L313.762 59.7766L312.84 58.8478V60.1561H313.379ZM332.359 79.2874L331.977 79.667L332.135 79.8263H332.359V79.2874ZM337.652 79.2874V79.8263H338.191V79.2874H337.652ZM337.652 52.8212H338.191V52.2823H337.652V52.8212ZM331.253 52.8212V70.9695H332.331V52.8212H331.253ZM332.176 70.5916L314.33 52.4434L313.562 53.1991L331.408 71.3473L332.176 70.5916ZM313.946 52.2823H307.519V53.3601H313.946V52.2823ZM306.98 52.8212V79.2874H308.058V52.8212H306.98ZM307.519 79.8263H313.379V78.7485H307.519V79.8263ZM313.918 79.2874V60.1561H312.84V79.2874H313.918ZM312.997 60.5357L331.977 79.667L332.742 78.9079L313.762 59.7766L312.997 60.5357ZM332.359 79.8263H337.652V78.7485H332.359V79.8263ZM338.191 79.2874V52.8212H337.113V79.2874H338.191ZM337.652 52.2823H331.792V53.3601H337.652V52.2823ZM375.21 64.3529H375.749V63.814H375.21V64.3529ZM359.557 64.3529V63.814H359.018V64.3529H359.557ZM359.557 69.2681H359.018V69.807H359.557V69.2681ZM369.539 69.2681H370.077V68.7292H369.539V69.2681ZM369.539 71.8391L369.952 72.1841L370.077 72.0342V71.8391H369.539ZM369.198 60.4586L368.82 60.8428L369.146 61.1632L369.515 60.8943L369.198 60.4586ZM373.924 57.018L374.242 57.4537L374.759 57.0772L374.3 56.6315L373.924 57.018ZM375.21 73.9186L375.644 74.2382L375.749 74.0957V73.9186H375.21ZM375.21 63.814H359.557V64.8918H375.21V63.814ZM359.018 64.3529V69.2681H360.096V64.3529H359.018ZM359.557 69.807H369.539V68.7292H359.557V69.807ZM369 69.2681V71.8391H370.077V69.2681H369ZM369.125 71.4941C367.391 73.5741 364.348 74.4383 360.427 74.4383V75.5161C364.445 75.5161 367.905 74.6411 369.952 72.1841L369.125 71.4941ZM360.427 74.4383C356.977 74.4383 354.314 73.6948 352.525 72.3023C350.757 70.9265 349.774 68.8642 349.774 66.0543H348.696C348.696 69.1427 349.793 71.5418 351.863 73.1528C353.911 74.7472 356.844 75.5161 360.427 75.5161V74.4383ZM349.774 66.0543C349.774 63.2392 350.733 61.1765 352.458 59.8027C354.204 58.4131 356.808 57.6703 360.2 57.6703V56.5925C356.672 56.5925 353.794 57.3621 351.787 58.9594C349.761 60.5726 348.696 62.9713 348.696 66.0543H349.774ZM360.2 57.6703C364.09 57.6703 366.631 58.6889 368.82 60.8428L369.576 60.0744C367.153 57.6913 364.325 56.5925 360.2 56.5925V57.6703ZM369.515 60.8943L374.242 57.4537L373.607 56.5823L368.881 60.0229L369.515 60.8943ZM374.3 56.6315C371.553 53.9635 366.806 51.4505 360.162 51.4505V52.5283C366.524 52.5283 371.002 54.9305 373.549 57.4045L374.3 56.6315ZM360.162 51.4505C354.768 51.4505 350.361 52.7744 347.292 55.2872C344.208 57.8113 342.533 61.4881 342.533 66.0543H343.611C343.611 61.7733 345.169 58.4176 347.974 56.1211C350.794 53.8132 354.931 52.5283 360.162 52.5283V51.4505ZM342.533 66.0543C342.533 70.6205 344.208 74.2974 347.292 76.8215C350.361 79.3342 354.768 80.6581 360.162 80.6581V79.5803C354.931 79.5803 350.794 78.2954 347.974 75.9875C345.169 73.691 343.611 70.3354 343.611 66.0543H342.533ZM360.162 80.6581C367.468 80.6581 372.869 78.0032 375.644 74.2382L374.776 73.5989C372.257 77.0176 367.224 79.5803 360.162 79.5803V80.6581ZM375.749 73.9186V64.3529H374.671V73.9186H375.749Z" fill="#8EFE1C"/>
</g>
<g style="mix-blend-mode:exclusion" filter="url(#filter0_b_1_49372)">
<path d="M47.4645 21.2282H31.8473V26.1321H41.8061V28.6972C39.92 30.9606 36.6758 31.8282 32.715 31.8282C25.6985 31.8282 21.5491 28.8104 21.5491 22.9257C21.5491 17.041 25.5854 14.0231 32.4886 14.0231C36.4872 14.0231 39.1655 15.0794 41.4666 17.3427L46.1819 13.91C43.5413 11.3448 38.9392 8.89287 32.4509 8.89287C21.8508 8.89287 15.4003 14.0986 15.4003 22.9257C15.4003 31.7528 21.8508 36.9585 32.4509 36.9585C39.6182 36.9585 44.8239 34.3556 47.4645 30.772V21.2282ZM76.579 36.1286H83.105L69.1099 9.72277H62.5085L48.5134 36.1286H54.9639L57.7931 30.5457H73.7498L76.579 36.1286ZM60.2828 25.6417L65.7526 14.8908L71.2224 25.6417H60.2828ZM115.581 9.72277L104.415 23.6801L93.2494 9.72277H86.6857V36.1286H92.5327V17.7577L104.114 31.9037H104.415L115.996 17.7577V36.1286H122.032V9.72277H115.581ZM135.122 31.0738V25.2645H152.512V20.2097H135.122V14.7776H155.944V9.72277H129.124V36.1286H156.322V31.0738H135.122ZM202.333 36.1286L194.185 26.7357C198.56 25.7172 201.54 22.9257 201.54 18.4367C201.54 12.7029 196.674 9.72277 190.224 9.72277H172.004V36.1286H178.002V27.1506H187.545L195.128 36.1286H202.333ZM177.964 22.1712V14.7776H189.884C193.053 14.7776 195.392 15.5321 195.392 18.4744C195.392 21.4168 193.053 22.1712 189.884 22.1712H177.964ZM213.145 31.0738V25.2645H230.536V20.2097H213.145V14.7776H233.968V9.72277H207.148V36.1286H234.346V31.0738H213.145ZM245.601 30.9229V9.72277H239.565V36.1286H264.274V30.9229H245.601ZM274.482 31.0738V25.2645H291.872V20.2097H274.482V14.7776H295.304V9.72277H268.484V36.1286H295.682V31.0738H274.482ZM325.497 36.1286H332.023L318.028 9.72277H311.426L297.431 36.1286H303.882L306.711 30.5457H322.668L325.497 36.1286ZM309.201 25.6417L314.67 14.8908L320.14 25.6417H309.201ZM348.339 19.8702C343.095 19.4552 339.323 19.2289 339.323 16.9655C339.323 14.5513 343.699 13.91 347.283 13.9477C351.583 13.9854 355.167 14.8908 358.071 17.1164L361.391 12.9292C358.034 10.3263 353.054 8.89287 347.283 8.89287C339.135 8.89287 333.25 11.9107 333.25 17.4182C333.25 23.0766 340.266 24.7364 347.811 25.3777C353.884 25.9058 356.6 26.5093 356.6 28.6972C356.6 30.8852 353.884 31.9037 348.528 31.9037C343.133 31.9037 338.946 30.5079 335.702 27.5278L332.231 31.6396C336.268 35.0724 341.7 36.9585 348.377 36.9585C357.732 36.9585 362.674 33.3371 362.674 28.1314C362.674 22.3221 356.751 20.5492 348.339 19.8702ZM373.577 31.0738V25.2645H390.967V20.2097H373.577V14.7776H394.4V9.72277H367.579V36.1286H394.777V31.0738H373.577Z" fill="white" fill-opacity="0.08"/>
<path d="M47.4645 21.2282H47.7339V20.9587H47.4645V21.2282ZM31.8473 21.2282V20.9587H31.5779V21.2282H31.8473ZM31.8473 26.1321H31.5779V26.4016H31.8473V26.1321ZM41.8061 26.1321H42.0756V25.8627H41.8061V26.1321ZM41.8061 28.6972L42.0131 28.8697L42.0756 28.7948V28.6972H41.8061ZM41.4666 17.3427L41.2777 17.5348L41.4405 17.695L41.6252 17.5606L41.4666 17.3427ZM46.1819 13.91L46.3405 14.1278L46.5991 13.9396L46.3697 13.7167L46.1819 13.91ZM47.4645 30.772L47.6814 30.9318L47.7339 30.8605V30.772H47.4645ZM47.4645 20.9587H31.8473V21.4976H47.4645V20.9587ZM31.5779 21.2282V26.1321H32.1168V21.2282H31.5779ZM31.8473 26.4016H41.8061V25.8627H31.8473V26.4016ZM41.5367 26.1321V28.6972H42.0756V26.1321H41.5367ZM41.5991 28.5247C39.7915 30.6939 36.6517 31.5588 32.715 31.5588V32.0977C36.6999 32.0977 40.0484 31.2274 42.0131 28.8697L41.5991 28.5247ZM32.715 31.5588C29.2398 31.5588 26.5159 30.8107 24.6664 29.3711C22.8275 27.9399 21.8185 25.7984 21.8185 22.9257H21.2796C21.2796 25.9377 22.3454 28.2475 24.3354 29.7964C26.3146 31.3369 29.1737 32.0977 32.715 32.0977V31.5588ZM21.8185 22.9257C21.8185 20.0503 22.8011 17.9087 24.5979 16.4785C26.4046 15.0404 29.0709 14.2926 32.4886 14.2926V13.7537C29.0031 13.7537 26.1996 14.5148 24.2623 16.0568C22.3152 17.6067 21.2796 19.9163 21.2796 22.9257H21.8185ZM32.4886 14.2926C36.4284 14.2926 39.0348 15.3288 41.2777 17.5348L41.6555 17.1506C39.2962 14.83 36.5461 13.7537 32.4886 13.7537V14.2926ZM41.6252 17.5606L46.3405 14.1278L46.0233 13.6921L41.308 17.1249L41.6252 17.5606ZM46.3697 13.7167C43.6792 11.1031 39.0098 8.62342 32.4509 8.62342V9.16232C38.8685 9.16232 43.4035 11.5866 45.9942 14.1032L46.3697 13.7167ZM32.4509 8.62342C27.1102 8.62342 22.7801 9.9346 19.7799 12.3906C16.7727 14.8523 15.1308 18.4408 15.1308 22.9257H15.6697C15.6697 18.5834 17.2531 15.1555 20.1212 12.8076C22.9963 10.454 27.1915 9.16232 32.4509 9.16232V8.62342ZM15.1308 22.9257C15.1308 27.4105 16.7727 30.999 19.7799 33.4607C22.7801 35.9168 27.1102 37.2279 32.4509 37.2279V36.6891C27.1915 36.6891 22.9963 35.3974 20.1212 33.0438C17.2531 30.6958 15.6697 27.2679 15.6697 22.9257H15.1308ZM32.4509 37.2279C39.6792 37.2279 44.977 34.6021 47.6814 30.9318L47.2476 30.6122C44.6708 34.1092 39.5572 36.6891 32.4509 36.6891V37.2279ZM47.7339 30.772V21.2282H47.1951V30.772H47.7339ZM76.579 36.1286L76.3386 36.2504L76.4135 36.398H76.579V36.1286ZM83.105 36.1286V36.398H83.5528L83.3431 36.0024L83.105 36.1286ZM69.1099 9.72277L69.348 9.59659L69.2721 9.45332H69.1099V9.72277ZM62.5085 9.72277V9.45332H62.3463L62.2704 9.59659L62.5085 9.72277ZM48.5134 36.1286L48.2753 36.0024L48.0656 36.398H48.5134V36.1286ZM54.9639 36.1286V36.398H55.1295L55.2043 36.2504L54.9639 36.1286ZM57.7931 30.5457V30.2762H57.6276L57.5528 30.4239L57.7931 30.5457ZM73.7498 30.5457L73.9901 30.4239L73.9153 30.2762H73.7498V30.5457ZM60.2828 25.6417L60.0427 25.5195L59.8434 25.9112H60.2828V25.6417ZM65.7526 14.8908L65.9928 14.7686L65.7526 14.2966L65.5125 14.7686L65.7526 14.8908ZM71.2224 25.6417V25.9112H71.6618L71.4625 25.5195L71.2224 25.6417ZM76.579 36.398H83.105V35.8592H76.579V36.398ZM83.3431 36.0024L69.348 9.59659L68.8718 9.84895L82.8669 36.2548L83.3431 36.0024ZM69.1099 9.45332H62.5085V9.99221H69.1099V9.45332ZM62.2704 9.59659L48.2753 36.0024L48.7514 36.2548L62.7465 9.84895L62.2704 9.59659ZM48.5134 36.398H54.9639V35.8592H48.5134V36.398ZM55.2043 36.2504L58.0335 30.6675L57.5528 30.4239L54.7236 36.0068L55.2043 36.2504ZM57.7931 30.8151H73.7498V30.2762H57.7931V30.8151ZM73.5094 30.6675L76.3386 36.2504L76.8193 36.0068L73.9901 30.4239L73.5094 30.6675ZM60.523 25.7639L65.9928 15.0129L65.5125 14.7686L60.0427 25.5195L60.523 25.7639ZM65.5125 15.0129L70.9822 25.7639L71.4625 25.5195L65.9928 14.7686L65.5125 15.0129ZM71.2224 25.3723H60.2828V25.9112H71.2224V25.3723ZM115.581 9.72277V9.45332H115.452L115.371 9.55444L115.581 9.72277ZM104.415 23.6801L104.205 23.8485L104.415 24.1115L104.626 23.8485L104.415 23.6801ZM93.2495 9.72277L93.4599 9.55444L93.379 9.45332H93.2495V9.72277ZM86.6857 9.72277V9.45332H86.4163V9.72277H86.6857ZM86.6857 36.1286H86.4163V36.398H86.6857V36.1286ZM92.5327 36.1286V36.398H92.8022V36.1286H92.5327ZM92.5327 17.7577L92.7412 17.587L92.2633 17.0032V17.7577H92.5327ZM104.114 31.9037L103.905 32.0744L103.986 32.1731H104.114V31.9037ZM104.415 31.9037V32.1731H104.543L104.624 32.0744L104.415 31.9037ZM115.996 17.7577H116.266V17.0032L115.788 17.587L115.996 17.7577ZM115.996 36.1286H115.727V36.398H115.996V36.1286ZM122.032 36.1286V36.398H122.301V36.1286H122.032ZM122.032 9.72277H122.301V9.45332H122.032V9.72277ZM115.371 9.55444L104.205 23.5118L104.626 23.8485L115.792 9.89109L115.371 9.55444ZM104.626 23.5118L93.4599 9.55444L93.039 9.89109L104.205 23.8485L104.626 23.5118ZM93.2495 9.45332H86.6857V9.99221H93.2495V9.45332ZM86.4163 9.72277V36.1286H86.9552V9.72277H86.4163ZM86.6857 36.398H92.5327V35.8592H86.6857V36.398ZM92.8022 36.1286V17.7577H92.2633V36.1286H92.8022ZM92.3242 17.9284L103.905 32.0744L104.322 31.733L92.7412 17.587L92.3242 17.9284ZM104.114 32.1731H104.415V31.6342H104.114V32.1731ZM104.624 32.0744L116.205 17.9284L115.788 17.587L104.207 31.733L104.624 32.0744ZM115.727 17.7577V36.1286H116.266V17.7577H115.727ZM115.996 36.398H122.032V35.8592H115.996V36.398ZM122.301 36.1286V9.72277H121.762V36.1286H122.301ZM122.032 9.45332H115.581V9.99221H122.032V9.45332ZM135.122 31.0738H134.852V31.3432H135.122V31.0738ZM135.122 25.2645V24.995H134.852V25.2645H135.122ZM152.512 25.2645V25.5339H152.781V25.2645H152.512ZM152.512 20.2097H152.781V19.9402H152.512V20.2097ZM135.122 20.2097H134.852V20.4791H135.122V20.2097ZM135.122 14.7776V14.5082H134.852V14.7776H135.122ZM155.944 14.7776V15.047H156.214V14.7776H155.944ZM155.944 9.72277H156.214V9.45332H155.944V9.72277ZM129.124 9.72277V9.45332H128.854V9.72277H129.124ZM129.124 36.1286H128.854V36.398H129.124V36.1286ZM156.322 36.1286V36.398H156.591V36.1286H156.322ZM156.322 31.0738H156.591V30.8043H156.322V31.0738ZM135.391 31.0738V25.2645H134.852V31.0738H135.391ZM135.122 25.5339H152.512V24.995H135.122V25.5339ZM152.781 25.2645V20.2097H152.242V25.2645H152.781ZM152.512 19.9402H135.122V20.4791H152.512V19.9402ZM135.391 20.2097V14.7776H134.852V20.2097H135.391ZM135.122 15.047H155.944V14.5082H135.122V15.047ZM156.214 14.7776V9.72277H155.675V14.7776H156.214ZM155.944 9.45332H129.124V9.99221H155.944V9.45332ZM128.854 9.72277V36.1286H129.393V9.72277H128.854ZM129.124 36.398H156.322V35.8592H129.124V36.398ZM156.591 36.1286V31.0738H156.052V36.1286H156.591ZM156.322 30.8043H135.122V31.3432H156.322V30.8043ZM202.333 36.1286V36.398H202.923L202.536 35.952L202.333 36.1286ZM194.185 26.7357L194.123 26.4732L193.688 26.5746L193.981 26.9122L194.185 26.7357ZM172.004 9.72277V9.45332H171.734V9.72277H172.004ZM172.004 36.1286H171.734V36.398H172.004V36.1286ZM178.002 36.1286V36.398H178.271V36.1286H178.002ZM178.002 27.1506V26.8812H177.732V27.1506H178.002ZM187.545 27.1506L187.751 26.9768L187.671 26.8812H187.545V27.1506ZM195.128 36.1286L194.922 36.3025L195.003 36.398H195.128V36.1286ZM177.964 22.1712H177.694V22.4407H177.964V22.1712ZM177.964 14.7776V14.5082H177.694V14.7776H177.964ZM202.536 35.952L194.388 26.5591L193.981 26.9122L202.129 36.3052L202.536 35.952ZM194.246 26.9981C196.472 26.48 198.363 25.5062 199.701 24.0713C201.042 22.6324 201.81 20.7456 201.81 18.4367H201.271C201.271 20.6168 200.549 22.3702 199.306 23.7039C198.06 25.0416 196.273 25.9728 194.123 26.4732L194.246 26.9981ZM201.81 18.4367C201.81 15.4827 200.551 13.2232 198.459 11.7111C196.376 10.2063 193.486 9.45332 190.224 9.45332V9.99221C193.412 9.99221 196.18 10.7293 198.143 12.1479C200.096 13.5594 201.271 15.6569 201.271 18.4367H201.81ZM190.224 9.45332H172.004V9.99221H190.224V9.45332ZM171.734 9.72277V36.1286H172.273V9.72277H171.734ZM172.004 36.398H178.002V35.8592H172.004V36.398ZM178.271 36.1286V27.1506H177.732V36.1286H178.271ZM178.002 27.4201H187.545V26.8812H178.002V27.4201ZM187.34 27.3245L194.922 36.3025L195.333 35.9547L187.751 26.9768L187.34 27.3245ZM195.128 36.398H202.333V35.8592H195.128V36.398ZM178.233 22.1712V14.7776H177.694V22.1712H178.233ZM177.964 15.047H189.884V14.5082H177.964V15.047ZM189.884 15.047C191.458 15.047 192.776 15.2365 193.693 15.757C194.146 16.0141 194.499 16.3506 194.741 16.7862C194.983 17.2229 195.122 17.7748 195.122 18.4744H195.661C195.661 17.7029 195.508 17.057 195.212 16.5248C194.916 15.9914 194.487 15.5876 193.959 15.2883C192.915 14.6959 191.479 14.5082 189.884 14.5082V15.047ZM195.122 18.4744C195.122 19.1741 194.983 19.7259 194.741 20.1626C194.499 20.5983 194.146 20.9348 193.693 21.1918C192.776 21.7123 191.458 21.9018 189.884 21.9018V22.4407C191.479 22.4407 192.915 22.2529 193.959 21.6606C194.487 21.3612 194.916 20.9574 195.212 20.4241C195.508 19.8918 195.661 19.2459 195.661 18.4744H195.122ZM189.884 21.9018H177.964V22.4407H189.884V21.9018ZM213.145 31.0738H212.876V31.3432H213.145V31.0738ZM213.145 25.2645V24.995H212.876V25.2645H213.145ZM230.536 25.2645V25.5339H230.805V25.2645H230.536ZM230.536 20.2097H230.805V19.9402H230.536V20.2097ZM213.145 20.2097H212.876V20.4791H213.145V20.2097ZM213.145 14.7776V14.5082H212.876V14.7776H213.145ZM233.968 14.7776V15.047H234.238V14.7776H233.968ZM233.968 9.72277H234.238V9.45332H233.968V9.72277ZM207.148 9.72277V9.45332H206.878V9.72277H207.148ZM207.148 36.1286H206.878V36.398H207.148V36.1286ZM234.346 36.1286V36.398H234.615V36.1286H234.346ZM234.346 31.0738H234.615V30.8043H234.346V31.0738ZM213.415 31.0738V25.2645H212.876V31.0738H213.415ZM213.145 25.5339H230.536V24.995H213.145V25.5339ZM230.805 25.2645V20.2097H230.266V25.2645H230.805ZM230.536 19.9402H213.145V20.4791H230.536V19.9402ZM213.415 20.2097V14.7776H212.876V20.2097H213.415ZM213.145 15.047H233.968V14.5082H213.145V15.047ZM234.238 14.7776V9.72277H233.699V14.7776H234.238ZM233.968 9.45332H207.148V9.99221H233.968V9.45332ZM206.878 9.72277V36.1286H207.417V9.72277H206.878ZM207.148 36.398H234.346V35.8592H207.148V36.398ZM234.615 36.1286V31.0738H234.076V36.1286H234.615ZM234.346 30.8043H213.145V31.3432H234.346V30.8043ZM245.601 30.9229H245.332V31.1923H245.601V30.9229ZM245.601 9.72277H245.871V9.45332H245.601V9.72277ZM239.565 9.72277V9.45332H239.296V9.72277H239.565ZM239.565 36.1286H239.296V36.398H239.565V36.1286ZM264.274 36.1286V36.398H264.543V36.1286H264.274ZM264.274 30.9229H264.543V30.6534H264.274V30.9229ZM245.871 30.9229V9.72277H245.332V30.9229H245.871ZM245.601 9.45332H239.565V9.99221H245.601V9.45332ZM239.296 9.72277V36.1286H239.835V9.72277H239.296ZM239.565 36.398H264.274V35.8592H239.565V36.398ZM264.543 36.1286V30.9229H264.004V36.1286H264.543ZM264.274 30.6534H245.601V31.1923H264.274V30.6534ZM274.482 31.0738H274.212V31.3432H274.482V31.0738ZM274.482 25.2645V24.995H274.212V25.2645H274.482ZM291.872 25.2645V25.5339H292.141V25.2645H291.872ZM291.872 20.2097H292.141V19.9402H291.872V20.2097ZM274.482 20.2097H274.212V20.4791H274.482V20.2097ZM274.482 14.7776V14.5082H274.212V14.7776H274.482ZM295.304 14.7776V15.047H295.574V14.7776H295.304ZM295.304 9.72277H295.574V9.45332H295.304V9.72277ZM268.484 9.72277V9.45332H268.214V9.72277H268.484ZM268.484 36.1286H268.214V36.398H268.484V36.1286ZM295.682 36.1286V36.398H295.951V36.1286H295.682ZM295.682 31.0738H295.951V30.8043H295.682V31.0738ZM274.751 31.0738V25.2645H274.212V31.0738H274.751ZM274.482 25.5339H291.872V24.995H274.482V25.5339ZM292.141 25.2645V20.2097H291.602V25.2645H292.141ZM291.872 19.9402H274.482V20.4791H291.872V19.9402ZM274.751 20.2097V14.7776H274.212V20.2097H274.751ZM274.482 15.047H295.304V14.5082H274.482V15.047ZM295.574 14.7776V9.72277H295.035V14.7776H295.574ZM295.304 9.45332H268.484V9.99221H295.304V9.45332ZM268.214 9.72277V36.1286H268.753V9.72277H268.214ZM268.484 36.398H295.682V35.8592H268.484V36.398ZM295.951 36.1286V31.0738H295.412V36.1286H295.951ZM295.682 30.8043H274.482V31.3432H295.682V30.8043ZM325.497 36.1286L325.256 36.2504L325.331 36.398H325.497V36.1286ZM332.023 36.1286V36.398H332.47L332.261 36.0024L332.023 36.1286ZM318.028 9.72277L318.266 9.59659L318.19 9.45332H318.028V9.72277ZM311.426 9.72277V9.45332H311.264L311.188 9.59659L311.426 9.72277ZM297.431 36.1286L297.193 36.0024L296.983 36.398H297.431V36.1286ZM303.882 36.1286V36.398H304.047L304.122 36.2504L303.882 36.1286ZM306.711 30.5457V30.2762H306.545L306.471 30.4239L306.711 30.5457ZM322.668 30.5457L322.908 30.4239L322.833 30.2762H322.668V30.5457ZM309.201 25.6417L308.96 25.5195L308.761 25.9112H309.201V25.6417ZM314.67 14.8908L314.91 14.7686L314.67 14.2966L314.43 14.7686L314.67 14.8908ZM320.14 25.6417V25.9112H320.58L320.38 25.5195L320.14 25.6417ZM325.497 36.398H332.023V35.8592H325.497V36.398ZM332.261 36.0024L318.266 9.59659L317.79 9.84895L331.785 36.2548L332.261 36.0024ZM318.028 9.45332H311.426V9.99221H318.028V9.45332ZM311.188 9.59659L297.193 36.0024L297.669 36.2548L311.664 9.84895L311.188 9.59659ZM297.431 36.398H303.882V35.8592H297.431V36.398ZM304.122 36.2504L306.951 30.6675L306.471 30.4239L303.641 36.0068L304.122 36.2504ZM306.711 30.8151H322.668V30.2762H306.711V30.8151ZM322.427 30.6675L325.256 36.2504L325.737 36.0068L322.908 30.4239L322.427 30.6675ZM309.441 25.7639L314.91 15.0129L314.43 14.7686L308.96 25.5195L309.441 25.7639ZM314.43 15.0129L319.9 25.7639L320.38 25.5195L314.91 14.7686L314.43 15.0129ZM320.14 25.3723H309.201V25.9112H320.14V25.3723ZM348.339 19.8702L348.361 19.6016L348.36 19.6015L348.339 19.8702ZM347.283 13.9477L347.28 14.2171L347.28 14.2171L347.283 13.9477ZM358.071 17.1164L357.907 17.3303L358.118 17.4915L358.283 17.2838L358.071 17.1164ZM361.391 12.9292L361.602 13.0966L361.771 12.8831L361.556 12.7162L361.391 12.9292ZM347.811 25.3777L347.834 25.1092L347.834 25.1092L347.811 25.3777ZM335.702 27.5278L335.884 27.3294L335.677 27.1393L335.496 27.354L335.702 27.5278ZM332.231 31.6396L332.025 31.4658L331.852 31.671L332.057 31.8449L332.231 31.6396ZM348.36 19.6015C345.727 19.3931 343.501 19.2341 341.929 18.8493C341.143 18.6569 340.553 18.415 340.162 18.1049C339.785 17.8051 339.593 17.4415 339.593 16.9655H339.054C339.054 17.6212 339.333 18.1347 339.827 18.5268C340.308 18.9087 340.988 19.1737 341.801 19.3727C343.426 19.7706 345.708 19.9322 348.318 20.1388L348.36 19.6015ZM339.593 16.9655C339.593 16.4558 339.819 16.0334 340.238 15.6749C340.664 15.3104 341.283 15.0188 342.036 14.7954C343.54 14.3491 345.499 14.1984 347.28 14.2171L347.286 13.6783C345.482 13.6593 343.462 13.8103 341.882 14.2788C341.094 14.5128 340.394 14.8319 339.888 15.2655C339.374 15.705 339.054 16.2681 339.054 16.9655H339.593ZM347.28 14.2171C351.545 14.2545 355.064 15.1518 357.907 17.3303L358.235 16.9025C355.269 14.6297 351.621 13.7163 347.285 13.6783L347.28 14.2171ZM358.283 17.2838L361.602 13.0966L361.18 12.7618L357.86 16.949L358.283 17.2838ZM361.556 12.7162C358.137 10.0658 353.093 8.62342 347.283 8.62342V9.16232C353.015 9.16232 357.93 10.5868 361.226 13.1421L361.556 12.7162ZM347.283 8.62342C343.181 8.62342 339.621 9.38216 337.076 10.8571C334.521 12.3378 332.98 14.5492 332.98 17.4182H333.519C333.519 14.7796 334.921 12.7284 337.346 11.3233C339.78 9.91248 343.236 9.16232 347.283 9.16232V8.62342ZM332.98 17.4182C332.98 18.8937 333.44 20.1183 334.254 21.128C335.065 22.133 336.218 22.9133 337.591 23.5254C340.333 24.7474 344.011 25.3251 347.788 25.6461L347.834 25.1092C344.066 24.7889 340.464 24.2161 337.811 23.0332C336.487 22.4429 335.414 21.7073 334.674 20.7896C333.937 19.8767 333.519 18.7718 333.519 17.4182H332.98ZM347.787 25.6461C350.829 25.9106 352.994 26.1919 354.396 26.6701C355.095 26.9083 355.577 27.187 355.884 27.5142C356.183 27.8328 356.331 28.2132 356.331 28.6972H356.87C356.87 28.0873 356.677 27.5718 356.277 27.1454C355.885 26.7275 355.309 26.4121 354.57 26.16C353.096 25.6573 350.866 25.3728 347.834 25.1092L347.787 25.6461ZM356.331 28.6972C356.331 29.1832 356.182 29.5952 355.886 29.9481C355.585 30.3059 355.122 30.6164 354.474 30.87C353.174 31.3793 351.197 31.6342 348.528 31.6342V32.1731C351.215 32.1731 353.274 31.9188 354.671 31.3718C355.372 31.0974 355.922 30.743 356.298 30.2945C356.679 29.841 356.87 29.3052 356.87 28.6972H356.331ZM348.528 31.6342C343.183 31.6342 339.067 30.2529 335.884 27.3294L335.52 27.7263C338.825 30.763 343.084 32.1731 348.528 32.1731V31.6342ZM335.496 27.354L332.025 31.4658L332.437 31.8134L335.908 27.7016L335.496 27.354ZM332.057 31.8449C336.15 35.3262 341.648 37.2279 348.377 37.2279V36.6891C341.752 36.6891 336.385 34.8185 332.406 31.4344L332.057 31.8449ZM348.377 37.2279C353.084 37.2279 356.716 36.3177 359.18 34.7233C361.655 33.1219 362.943 30.8333 362.943 28.1314H362.404C362.404 30.6353 361.222 32.7602 358.887 34.2709C356.541 35.7886 353.025 36.6891 348.377 36.6891V37.2279ZM362.943 28.1314C362.943 26.6305 362.559 25.3757 361.838 24.3321C361.119 23.2911 360.075 22.477 358.78 21.8355C356.199 20.5567 352.57 19.9414 348.361 19.6016L348.317 20.1387C352.519 20.4779 356.058 21.0886 358.541 22.3184C359.778 22.9312 360.741 23.692 361.395 24.6385C362.047 25.5824 362.404 26.7276 362.404 28.1314H362.943ZM373.577 31.0738H373.308V31.3432H373.577V31.0738ZM373.577 25.2645V24.995H373.308V25.2645H373.577ZM390.967 25.2645V25.5339H391.237V25.2645H390.967ZM390.967 20.2097H391.237V19.9402H390.967V20.2097ZM373.577 20.2097H373.308V20.4791H373.577V20.2097ZM373.577 14.7776V14.5082H373.308V14.7776H373.577ZM394.4 14.7776V15.047H394.669V14.7776H394.4ZM394.4 9.72277H394.669V9.45332H394.4V9.72277ZM367.579 9.72277V9.45332H367.31V9.72277H367.579ZM367.579 36.1286H367.31V36.398H367.579V36.1286ZM394.777 36.1286V36.398H395.047V36.1286H394.777ZM394.777 31.0738H395.047V30.8043H394.777V31.0738ZM373.847 31.0738V25.2645H373.308V31.0738H373.847ZM373.577 25.5339H390.967V24.995H373.577V25.5339ZM391.237 25.2645V20.2097H390.698V25.2645H391.237ZM390.967 19.9402H373.577V20.4791H390.967V19.9402ZM373.847 20.2097V14.7776H373.308V20.2097H373.847ZM373.577 15.047H394.4V14.5082H373.577V15.047ZM394.669 14.7776V9.72277H394.131V14.7776H394.669ZM394.4 9.45332H367.579V9.99221H394.4V9.45332ZM367.31 9.72277V36.1286H367.849V9.72277H367.31ZM367.579 36.398H394.777V35.8592H367.579V36.398ZM395.047 36.1286V31.0738H394.508V36.1286H395.047ZM394.777 30.8043H373.577V31.3432H394.777V30.8043Z" fill="#545454"/>
</g>
<defs>
<filter id="filter0_b_1_49372" x="13.8432" y="7.33564" width="382.491" height="31.1801" filterUnits="userSpaceOnUse" color-interpolation-filters="sRGB">
<feFlood flood-opacity="0" result="BackgroundImageFix"/>
<feGaussianBlur in="BackgroundImage" stdDeviation="0.778619"/>
<feComposite in2="SourceAlpha" operator="in" result="effect1_backgroundBlur_1_49372"/>
<feBlend mode="normal" in="SourceGraphic" in2="effect1_backgroundBlur_1_49372" result="shape"/>
</filter>
</defs>
</svg>
