<svg width="1520" height="457" viewBox="0 0 1520 457" fill="none" xmlns="http://www.w3.org/2000/svg">

<g style="mix-blend-mode:exclusion" filter="url(#filter0_b_98_2)">
<path d="M175.474 79.1821H117.527V97.3777H154.479V106.895C147.48 115.293 135.443 118.513 120.747 118.513C94.713 118.513 79.3167 107.315 79.3167 85.4806C79.3167 63.6458 94.2931 52.4485 119.907 52.4485C134.743 52.4485 144.681 56.3676 153.219 64.7656L170.715 52.0286C160.917 42.5109 143.841 33.4131 119.767 33.4131C80.4364 33.4131 56.5022 52.7285 56.5022 85.4806C56.5022 118.233 80.4364 137.548 119.767 137.548C146.361 137.548 165.676 127.89 175.474 114.594V79.1821ZM283.5 134.469H307.714L255.787 36.4924H231.293L179.365 134.469H203.299L213.797 113.754H273.003L283.5 134.469ZM223.035 95.5581L243.33 55.6677L263.625 95.5581H223.035ZM428.214 36.4924L386.784 88.2799L345.354 36.4924H321V134.469H342.695V66.3052L385.665 118.793H386.784L429.754 66.3052V134.469H452.149V36.4924H428.214ZM500.717 115.713V94.1585H565.241V75.403H500.717V55.2478H577.978V36.4924H478.462V134.469H579.378V115.713H500.717ZM750.097 134.469L719.865 99.6172C736.101 95.8381 747.158 85.4806 747.158 68.8246C747.158 47.5497 729.102 36.4924 705.168 36.4924H637.564V134.469H659.819V101.157H695.231L723.364 134.469H750.097ZM659.679 82.6812V55.2478H703.908C715.666 55.2478 724.344 58.0472 724.344 68.9645C724.344 79.8819 715.666 82.6812 703.908 82.6812H659.679ZM790.217 115.713V94.1585H854.742V75.403H790.217V55.2478H867.479V36.4924H767.963V134.469H868.878V115.713H790.217ZM910.641 115.153V36.4924H888.246V134.469H979.924V115.153H910.641ZM1017.8 115.713V94.1585H1082.32V75.403H1017.8V55.2478H1095.06V36.4924H995.545V134.469H1096.46V115.713H1017.8ZM1207.09 134.469H1231.3L1179.37 36.4924H1154.88L1102.95 134.469H1126.89L1137.38 113.754H1196.59L1207.09 134.469ZM1146.62 95.5581L1166.92 55.6677L1187.21 95.5581H1146.62ZM1291.84 74.1433C1272.38 72.6037 1258.39 71.7639 1258.39 63.3659C1258.39 54.4081 1274.62 52.0286 1287.92 52.1686C1303.88 52.3086 1317.17 55.6677 1327.95 63.9258L1340.27 48.3895C1327.81 38.7318 1309.34 33.4131 1287.92 33.4131C1257.69 33.4131 1235.85 44.6104 1235.85 65.0455C1235.85 86.0404 1261.89 92.1989 1289.88 94.5784C1312.41 96.5379 1322.49 98.7774 1322.49 106.895C1322.49 115.013 1312.41 118.793 1292.54 118.793C1272.52 118.793 1256.99 113.614 1244.95 102.556L1232.07 117.813C1247.05 130.55 1267.21 137.548 1291.98 137.548C1326.69 137.548 1345.03 124.111 1345.03 104.796C1345.03 83.2411 1323.05 76.6627 1291.84 74.1433ZM1385.48 115.713V94.1585H1450.01V75.403H1385.48V55.2478H1462.75V36.4924H1363.23V134.469H1464.15V115.713H1385.48Z" fill="white" fill-opacity="0.08"/>
<path d="M175.474 79.1821H176.473V78.1823H175.474V79.1821ZM117.527 79.1821V78.1823H116.528V79.1821H117.527ZM117.527 97.3777H116.528V98.3774H117.527V97.3777ZM154.479 97.3777H155.478V96.3779H154.479V97.3777ZM154.479 106.895L155.247 107.535L155.478 107.257V106.895H154.479ZM153.219 64.7656L152.518 65.4783L153.122 66.0727L153.807 65.5738L153.219 64.7656ZM170.715 52.0286L171.303 52.8369L172.263 52.1384L171.411 51.3115L170.715 52.0286ZM175.474 114.594L176.278 115.187L176.473 114.922V114.594H175.474ZM175.474 78.1823H117.527V80.1818H175.474V78.1823ZM116.528 79.1821V97.3777H118.527V79.1821H116.528ZM117.527 98.3774H154.479V96.3779H117.527V98.3774ZM153.479 97.3777V106.895H155.478V97.3777H153.479ZM153.711 106.255C147.004 114.304 135.354 117.513 120.747 117.513V119.512C135.533 119.512 147.957 116.283 155.247 107.535L153.711 106.255ZM120.747 117.513C107.853 117.513 97.7458 114.737 90.8831 109.396C84.0602 104.085 80.3165 96.1396 80.3165 85.4806H78.3169C78.3169 96.6563 82.2714 105.227 89.655 110.974C96.9989 116.69 107.607 119.512 120.747 119.512V117.513ZM80.3165 85.4806C80.3165 74.8117 83.9624 66.8653 90.6292 61.5587C97.3329 56.2228 107.226 53.4483 119.907 53.4483V51.4488C106.974 51.4488 96.572 54.2729 89.384 59.9943C82.1592 65.745 78.3169 74.3147 78.3169 85.4806H80.3165ZM119.907 53.4483C134.525 53.4483 144.196 57.2929 152.518 65.4783L153.92 64.0528C145.166 55.4422 134.962 51.4488 119.907 51.4488V53.4483ZM153.807 65.5738L171.303 52.8369L170.126 51.2204L152.63 63.9573L153.807 65.5738ZM171.411 51.3115C161.429 41.614 144.103 32.4134 119.767 32.4134V34.4129C143.579 34.4129 160.406 43.4079 170.018 52.7457L171.411 51.3115ZM119.767 32.4134C99.9509 32.4134 83.8843 37.2784 72.7523 46.3912C61.5946 55.5252 55.5024 68.84 55.5024 85.4806H57.502C57.502 69.369 63.377 56.6501 74.0189 47.9384C84.6867 39.2055 100.253 34.4129 119.767 34.4129V32.4134ZM55.5024 85.4806C55.5024 102.121 61.5946 115.436 72.7523 124.57C83.8843 133.683 99.9509 138.548 119.767 138.548V136.548C100.253 136.548 84.6867 131.756 74.0189 123.023C63.377 114.311 57.502 101.592 57.502 85.4806H55.5024ZM119.767 138.548C146.587 138.548 166.244 128.805 176.278 115.187L174.669 114C165.108 126.976 146.134 136.548 119.767 136.548V138.548ZM176.473 114.594V79.1821H174.474V114.594H176.473ZM283.5 134.469L282.608 134.921L282.886 135.469H283.5V134.469ZM307.714 134.469V135.469H309.376L308.598 134.001L307.714 134.469ZM255.787 36.4924L256.67 36.0242L256.388 35.4926H255.787V36.4924ZM231.293 36.4924V35.4926H230.691L230.409 36.0242L231.293 36.4924ZM179.365 134.469L178.482 134.001L177.704 135.469H179.365V134.469ZM203.299 134.469V135.469H203.914L204.191 134.921L203.299 134.469ZM213.797 113.754V112.754H213.183L212.905 113.302L213.797 113.754ZM273.003 113.754L273.894 113.302L273.617 112.754H273.003V113.754ZM223.035 95.5581L222.144 95.1048L221.404 96.5579H223.035V95.5581ZM243.33 55.6677L244.221 55.2144L243.33 53.463L242.439 55.2144L243.33 55.6677ZM263.625 95.5581V96.5579H265.255L264.516 95.1048L263.625 95.5581ZM283.5 135.469H307.714V133.469H283.5V135.469ZM308.598 134.001L256.67 36.0242L254.903 36.9606L306.831 134.937L308.598 134.001ZM255.787 35.4926H231.293V37.4921H255.787V35.4926ZM230.409 36.0242L178.482 134.001L180.249 134.937L232.176 36.9606L230.409 36.0242ZM179.365 135.469H203.299V133.469H179.365V135.469ZM204.191 134.921L214.689 114.206L212.905 113.302L202.408 134.017L204.191 134.921ZM213.797 114.754H273.003V112.754H213.797V114.754ZM272.111 114.206L282.608 134.921L284.392 134.017L273.894 113.302L272.111 114.206ZM223.926 96.0115L244.221 56.1211L242.439 55.2144L222.144 95.1048L223.926 96.0115ZM242.439 56.1211L262.734 96.0115L264.516 95.1048L244.221 55.2144L242.439 56.1211ZM263.625 94.5584H223.035V96.5579H263.625V94.5584ZM428.214 36.4924V35.4926H427.734L427.434 35.8678L428.214 36.4924ZM386.784 88.2799L386.004 88.9044L386.784 89.8803L387.565 88.9044L386.784 88.2799ZM345.354 36.4924L346.135 35.8678L345.835 35.4926H345.354V36.4924ZM321 36.4924V35.4926H320V36.4924H321ZM321 134.469H320V135.469H321V134.469ZM342.695 134.469V135.469H343.695V134.469H342.695ZM342.695 66.3052L343.469 65.6719L341.695 63.5057V66.3052H342.695ZM385.665 118.793L384.891 119.426L385.191 119.792H385.665V118.793ZM386.784 118.793V119.792H387.258L387.558 119.426L386.784 118.793ZM429.754 66.3052H430.754V63.5057L428.98 65.6719L429.754 66.3052ZM429.754 134.469H428.754V135.469H429.754V134.469ZM452.149 134.469V135.469H453.148V134.469H452.149ZM452.149 36.4924H453.148V35.4926H452.149V36.4924ZM427.434 35.8678L386.004 87.6553L387.565 88.9044L428.995 37.1169L427.434 35.8678ZM387.565 87.6553L346.135 35.8678L344.574 37.1169L386.004 88.9044L387.565 87.6553ZM345.354 35.4926H321V37.4921H345.354V35.4926ZM320 36.4924V134.469H322V36.4924H320ZM321 135.469H342.695V133.469H321V135.469ZM343.695 134.469V66.3052H341.695V134.469H343.695ZM341.921 66.9385L384.891 119.426L386.438 118.159L343.469 65.6719L341.921 66.9385ZM385.665 119.792H386.784V117.793H385.665V119.792ZM387.558 119.426L430.528 66.9385L428.98 65.6719L386.011 118.159L387.558 119.426ZM428.754 66.3052V134.469H430.754V66.3052H428.754ZM429.754 135.469H452.149V133.469H429.754V135.469ZM453.148 134.469V36.4924H451.149V134.469H453.148ZM452.149 35.4926H428.214V37.4921H452.149V35.4926ZM500.717 115.713H499.717V116.713H500.717V115.713ZM500.717 94.1585V93.1587H499.717V94.1585H500.717ZM565.241 94.1585V95.1582H566.241V94.1585H565.241ZM565.241 75.403H566.241V74.4032H565.241V75.403ZM500.717 75.403H499.717V76.4027H500.717V75.403ZM500.717 55.2478V54.2481H499.717V55.2478H500.717ZM577.978 55.2478V56.2476H578.978V55.2478H577.978ZM577.978 36.4924H578.978V35.4926H577.978V36.4924ZM478.462 36.4924V35.4926H477.462V36.4924H478.462ZM478.462 134.469H477.462V135.469H478.462V134.469ZM579.378 134.469V135.469H580.378V134.469H579.378ZM579.378 115.713H580.378V114.714H579.378V115.713ZM501.717 115.713V94.1585H499.717V115.713H501.717ZM500.717 95.1582H565.241V93.1587H500.717V95.1582ZM566.241 94.1585V75.403H564.242V94.1585H566.241ZM565.241 74.4032H500.717V76.4027H565.241V74.4032ZM501.717 75.403V55.2478H499.717V75.403H501.717ZM500.717 56.2476H577.978V54.2481H500.717V56.2476ZM578.978 55.2478V36.4924H576.978V55.2478H578.978ZM577.978 35.4926H478.462V37.4921H577.978V35.4926ZM477.462 36.4924V134.469H479.462V36.4924H477.462ZM478.462 135.469H579.378V133.469H478.462V135.469ZM580.378 134.469V115.713H578.378V134.469H580.378ZM579.378 114.714H500.717V116.713H579.378V114.714ZM750.097 134.469V135.469H752.288L750.852 133.814L750.097 134.469ZM719.865 99.6171L719.638 98.6434L718.023 99.0194L719.109 100.272L719.865 99.6171ZM637.564 36.4924V35.4926H636.565V36.4924H637.564ZM637.564 134.469H636.565V135.469H637.564V134.469ZM659.819 134.469V135.469H660.819V134.469H659.819ZM659.819 101.157V100.157H658.819V101.157H659.819ZM695.231 101.157L695.994 100.512L695.695 100.157H695.231V101.157ZM723.364 134.469L722.6 135.114L722.899 135.469H723.364V134.469ZM659.679 82.6812H658.679V83.681H659.679V82.6812ZM659.679 55.2478V54.2481H658.679V55.2478H659.679ZM750.852 133.814L720.62 98.962L719.109 100.272L749.342 135.124L750.852 133.814ZM720.091 100.591C728.35 98.6685 735.369 95.0555 740.331 89.7313C745.307 84.3925 748.158 77.3915 748.158 68.8246H746.158C746.158 76.9136 743.48 83.4194 738.868 88.3681C734.243 93.3315 727.615 96.7867 719.638 98.6434L720.091 100.591ZM748.158 68.8246C748.158 57.864 743.488 49.4804 735.724 43.8701C727.997 38.2864 717.272 35.4926 705.168 35.4926V37.4921C716.998 37.4921 727.269 40.227 734.553 45.4907C741.8 50.7278 746.158 58.5103 746.158 68.8246H748.158ZM705.168 35.4926H637.564V37.4921H705.168V35.4926ZM636.565 36.4924V134.469H638.564V36.4924H636.565ZM637.564 135.469H659.819V133.469H637.564V135.469ZM660.819 134.469V101.157H658.819V134.469H660.819ZM659.819 102.157H695.231V100.157H659.819V102.157ZM694.467 101.802L722.6 135.114L724.128 133.824L695.994 100.512L694.467 101.802ZM723.364 135.469H750.097V133.469H723.364V135.469ZM660.679 82.6812V55.2478H658.679V82.6812H660.679ZM659.679 56.2476H703.908V54.2481H659.679V56.2476ZM703.908 56.2476C709.749 56.2476 714.638 56.9507 718.042 58.8818C719.723 59.8356 721.033 61.0842 721.93 62.7005C722.829 64.321 723.344 66.3685 723.344 68.9645H725.343C725.343 66.1019 724.774 63.7055 723.678 61.7306C722.58 59.7515 720.986 58.2532 719.028 57.1426C715.154 54.9447 709.825 54.2481 703.908 54.2481V56.2476ZM723.344 68.9645C723.344 71.5606 722.829 73.6081 721.93 75.2286C721.033 76.8449 719.723 78.0934 718.042 79.0473C714.638 80.9784 709.749 81.6815 703.908 81.6815V83.681C709.825 83.681 715.154 82.9844 719.028 80.7865C720.986 79.6759 722.58 78.1776 723.678 76.1985C724.774 74.2236 725.343 71.8272 725.343 68.9645H723.344ZM703.908 81.6815H659.679V83.681H703.908V81.6815ZM790.217 115.713H789.218V116.713H790.217V115.713ZM790.217 94.1585V93.1587H789.218V94.1585H790.217ZM854.742 94.1585V95.1582H855.742V94.1585H854.742ZM854.742 75.403H855.742V74.4032H854.742V75.403ZM790.217 75.403H789.218V76.4027H790.217V75.403ZM790.217 55.2478V54.2481H789.218V55.2478H790.217ZM867.479 55.2478V56.2476H868.478V55.2478H867.479ZM867.479 36.4924H868.478V35.4926H867.479V36.4924ZM767.963 36.4924V35.4926H766.963V36.4924H767.963ZM767.963 134.469H766.963V135.469H767.963V134.469ZM868.878 134.469V135.469H869.878V134.469H868.878ZM868.878 115.713H869.878V114.714H868.878V115.713ZM791.217 115.713V94.1585H789.218V115.713H791.217ZM790.217 95.1582H854.742V93.1587H790.217V95.1582ZM855.742 94.1585V75.403H853.742V94.1585H855.742ZM854.742 74.4032H790.217V76.4027H854.742V74.4032ZM791.217 75.403V55.2478H789.218V75.403H791.217ZM790.217 56.2476H867.479V54.2481H790.217V56.2476ZM868.478 55.2478V36.4924H866.479V55.2478H868.478ZM867.479 35.4926H767.963V37.4921H867.479V35.4926ZM766.963 36.4924V134.469H768.962V36.4924H766.963ZM767.963 135.469H868.878V133.469H767.963V135.469ZM869.878 134.469V115.713H867.879V134.469H869.878ZM868.878 114.714H790.217V116.713H868.878V114.714ZM910.641 115.153H909.641V116.153H910.641V115.153ZM910.641 36.4924H911.641V35.4926H910.641V36.4924ZM888.246 36.4924V35.4926H887.246V36.4924H888.246ZM888.246 134.469H887.246V135.469H888.246V134.469ZM979.924 134.469V135.469H980.924V134.469H979.924ZM979.924 115.153H980.924V114.154H979.924V115.153ZM911.641 115.153V36.4924H909.641V115.153H911.641ZM910.641 35.4926H888.246V37.4921H910.641V35.4926ZM887.246 36.4924V134.469H889.246V36.4924H887.246ZM888.246 135.469H979.924V133.469H888.246V135.469ZM980.924 134.469V115.153H978.924V134.469H980.924ZM979.924 114.154H910.641V116.153H979.924V114.154ZM1017.8 115.713H1016.8V116.713H1017.8V115.713ZM1017.8 94.1585V93.1587H1016.8V94.1585H1017.8ZM1082.32 94.1585V95.1582H1083.32V94.1585H1082.32ZM1082.32 75.403H1083.32V74.4032H1082.32V75.403ZM1017.8 75.403H1016.8V76.4027H1017.8V75.403ZM1017.8 55.2478V54.2481H1016.8V55.2478H1017.8ZM1095.06 55.2478V56.2476H1096.06V55.2478H1095.06ZM1095.06 36.4924H1096.06V35.4926H1095.06V36.4924ZM995.544 36.4924V35.4926H994.545V36.4924H995.544ZM995.544 134.469H994.545V135.469H995.544V134.469ZM1096.46 134.469V135.469H1097.46V134.469H1096.46ZM1096.46 115.713H1097.46V114.714H1096.46V115.713ZM1018.8 115.713V94.1585H1016.8V115.713H1018.8ZM1017.8 95.1582H1082.32V93.1587H1017.8V95.1582ZM1083.32 94.1585V75.403H1081.32V94.1585H1083.32ZM1082.32 74.4032H1017.8V76.4027H1082.32V74.4032ZM1018.8 75.403V55.2478H1016.8V75.403H1018.8ZM1017.8 56.2476H1095.06V54.2481H1017.8V56.2476ZM1096.06 55.2478V36.4924H1094.06V55.2478H1096.06ZM1095.06 35.4926H995.544V37.4921H1095.06V35.4926ZM994.545 36.4924V134.469H996.544V36.4924H994.545ZM995.544 135.469H1096.46V133.469H995.544V135.469ZM1097.46 134.469V115.713H1095.46V134.469H1097.46ZM1096.46 114.714H1017.8V116.713H1096.46V114.714ZM1207.09 134.469L1206.19 134.921L1206.47 135.469H1207.09V134.469ZM1231.3 134.469V135.469H1232.96L1232.18 134.001L1231.3 134.469ZM1179.37 36.4924L1180.26 36.0242L1179.97 35.4926H1179.37V36.4924ZM1154.88 36.4924V35.4926H1154.28L1154 36.0242L1154.88 36.4924ZM1102.95 134.469L1102.07 134.001L1101.29 135.469H1102.95V134.469ZM1126.89 134.469V135.469H1127.5L1127.78 134.921L1126.89 134.469ZM1137.38 113.754V112.754H1136.77L1136.49 113.302L1137.38 113.754ZM1196.59 113.754L1197.48 113.302L1197.2 112.754H1196.59V113.754ZM1146.62 95.5581L1145.73 95.1048L1144.99 96.5579H1146.62V95.5581ZM1166.92 55.6677L1167.81 55.2144L1166.92 53.463L1166.02 55.2144L1166.92 55.6677ZM1187.21 95.5581V96.5579H1188.84L1188.1 95.1048L1187.21 95.5581ZM1207.09 135.469H1231.3V133.469H1207.09V135.469ZM1232.18 134.001L1180.26 36.0242L1178.49 36.9606L1230.42 134.937L1232.18 134.001ZM1179.37 35.4926H1154.88V37.4921H1179.37V35.4926ZM1154 36.0242L1102.07 134.001L1103.83 134.937L1155.76 36.9606L1154 36.0242ZM1102.95 135.469H1126.89V133.469H1102.95V135.469ZM1127.78 134.921L1138.27 114.206L1136.49 113.302L1125.99 134.017L1127.78 134.921ZM1137.38 114.754H1196.59V112.754H1137.38V114.754ZM1195.7 114.206L1206.19 134.921L1207.98 134.017L1197.48 113.302L1195.7 114.206ZM1147.51 96.0115L1167.81 56.1211L1166.02 55.2144L1145.73 95.1048L1147.51 96.0115ZM1166.02 56.1211L1186.32 96.0115L1188.1 95.1048L1167.81 55.2144L1166.02 56.1211ZM1187.21 94.5584H1146.62V96.5579H1187.21V94.5584ZM1291.84 74.1433L1291.92 73.1468L1291.92 73.1467L1291.84 74.1433ZM1287.92 52.1686L1287.91 53.1683L1287.91 53.1683L1287.92 52.1686ZM1327.95 63.9258L1327.34 64.7193L1328.12 65.3174L1328.73 64.5469L1327.95 63.9258ZM1340.27 48.3895L1341.05 49.0106L1341.68 48.2186L1340.88 47.5994L1340.27 48.3895ZM1289.88 94.5784L1289.97 93.5824L1289.96 93.5822L1289.88 94.5784ZM1244.95 102.556L1245.63 101.82L1244.86 101.115L1244.19 101.912L1244.95 102.556ZM1232.07 117.813L1231.31 117.168L1230.67 117.929L1231.43 118.574L1232.07 117.813ZM1291.92 73.1467C1282.15 72.3734 1273.89 71.7833 1268.06 70.3554C1265.14 69.6418 1262.95 68.7439 1261.5 67.5934C1260.1 66.481 1259.39 65.1321 1259.39 63.3659H1257.39C1257.39 65.7986 1258.43 67.704 1260.26 69.1591C1262.04 70.5761 1264.56 71.559 1267.58 72.2975C1273.61 73.774 1282.08 74.3736 1291.76 75.1399L1291.92 73.1467ZM1259.39 63.3659C1259.39 61.4745 1260.23 59.9074 1261.78 58.5771C1263.36 57.2247 1265.66 56.1428 1268.45 55.314C1274.03 53.6581 1281.3 53.0988 1287.91 53.1683L1287.93 51.1689C1281.24 51.0985 1273.74 51.6589 1267.88 53.3971C1264.96 54.2654 1262.36 55.4492 1260.48 57.058C1258.58 58.6888 1257.39 60.7784 1257.39 63.3659H1259.39ZM1287.91 53.1683C1303.74 53.3071 1316.79 56.6364 1327.34 64.7193L1328.56 63.1322C1317.55 54.6991 1304.02 51.31 1287.93 51.1689L1287.91 53.1683ZM1328.73 64.5469L1341.05 49.0106L1339.48 47.7684L1327.17 63.3047L1328.73 64.5469ZM1340.88 47.5994C1328.2 37.7653 1309.48 32.4134 1287.92 32.4134V34.4129C1309.19 34.4129 1327.43 39.6983 1339.66 49.1796L1340.88 47.5994ZM1287.92 32.4134C1272.7 32.4134 1259.49 35.2286 1250.05 40.7012C1240.57 46.1951 1234.85 54.4005 1234.85 65.0455H1236.85C1236.85 55.2554 1242.06 47.6446 1251.05 42.4311C1260.08 37.1963 1272.91 34.4129 1287.92 34.4129V32.4134ZM1234.85 65.0455C1234.85 70.5203 1236.56 75.0639 1239.58 78.8104C1242.59 82.5394 1246.87 85.4347 1251.96 87.7059C1262.13 92.24 1275.78 94.3834 1289.8 95.5745L1289.96 93.5822C1275.98 92.3939 1262.62 90.2684 1252.78 85.8796C1247.86 83.6893 1243.88 80.9598 1241.14 77.5548C1238.4 74.1675 1236.85 70.0681 1236.85 65.0455H1234.85ZM1289.79 95.5744C1301.08 96.5558 1309.11 97.5997 1314.31 99.3737C1316.91 100.258 1318.7 101.292 1319.84 102.506C1320.95 103.688 1321.49 105.1 1321.49 106.895H1323.49C1323.49 104.632 1322.78 102.719 1321.29 101.138C1319.84 99.587 1317.7 98.4167 1314.96 97.4812C1309.49 95.616 1301.21 94.5604 1289.97 93.5824L1289.79 95.5744ZM1321.49 106.895C1321.49 108.699 1320.94 110.227 1319.84 111.536C1318.73 112.864 1317.01 114.016 1314.6 114.957C1309.78 116.847 1302.44 117.793 1292.54 117.793V119.792C1302.51 119.792 1310.15 118.849 1315.33 116.819C1317.93 115.801 1319.98 114.486 1321.37 112.822C1322.79 111.139 1323.49 109.151 1323.49 106.895H1321.49ZM1292.54 117.793C1272.71 117.793 1257.44 112.668 1245.63 101.82L1244.27 103.293C1256.54 114.56 1272.34 119.792 1292.54 119.792V117.793ZM1244.19 101.912L1231.31 117.168L1232.84 118.458L1245.72 103.201L1244.19 101.912ZM1231.43 118.574C1246.61 131.492 1267.01 138.548 1291.98 138.548V136.548C1267.4 136.548 1247.49 129.608 1232.72 117.051L1231.43 118.574ZM1291.98 138.548C1309.45 138.548 1322.92 135.17 1332.06 129.255C1341.25 123.313 1346.03 114.821 1346.03 104.796H1344.03C1344.03 114.086 1339.64 121.971 1330.98 127.576C1322.27 133.207 1309.23 136.548 1291.98 136.548V138.548ZM1346.03 104.796C1346.03 99.227 1344.6 94.5711 1341.93 90.699C1339.26 86.8363 1335.39 83.8156 1330.58 81.4354C1321 76.6908 1307.54 74.4076 1291.92 73.1468L1291.76 75.1398C1307.35 76.3984 1320.48 78.6641 1329.69 83.2272C1334.28 85.5009 1337.86 88.3238 1340.28 91.8356C1342.7 95.3379 1344.03 99.5874 1344.03 104.796H1346.03ZM1385.48 115.713H1384.48V116.713H1385.48V115.713ZM1385.48 94.1585V93.1587H1384.48V94.1585H1385.48ZM1450.01 94.1585V95.1582H1451.01V94.1585H1450.01ZM1450.01 75.403H1451.01V74.4032H1450.01V75.403ZM1385.48 75.403H1384.48V76.4027H1385.48V75.403ZM1385.48 55.2478V54.2481H1384.48V55.2478H1385.48ZM1462.75 55.2478V56.2476H1463.75V55.2478H1462.75ZM1462.75 36.4924H1463.75V35.4926H1462.75V36.4924ZM1363.23 36.4924V35.4926H1362.23V36.4924H1363.23ZM1363.23 134.469H1362.23V135.469H1363.23V134.469ZM1464.15 134.469V135.469H1465.14V134.469H1464.15ZM1464.15 115.713H1465.14V114.714H1464.15V115.713ZM1386.48 115.713V94.1585H1384.48V115.713H1386.48ZM1385.48 95.1582H1450.01V93.1587H1385.48V95.1582ZM1451.01 94.1585V75.403H1449.01V94.1585H1451.01ZM1450.01 74.4032H1385.48V76.4027H1450.01V74.4032ZM1386.48 75.403V55.2478H1384.48V75.403H1386.48ZM1385.48 56.2476H1462.75V54.2481H1385.48V56.2476ZM1463.75 55.2478V36.4924H1461.75V55.2478H1463.75ZM1462.75 35.4926H1363.23V37.4921H1462.75V35.4926ZM1362.23 36.4924V134.469H1364.23V36.4924H1362.23ZM1363.23 135.469H1464.15V133.469H1363.23V135.469ZM1465.14 134.469V115.713H1463.15V134.469H1465.14ZM1464.15 114.714H1385.48V116.713H1464.15V114.714Z" fill="#545454"/>
</g>
<defs>
<filter id="filter0_b_98_2" x="50.7245" y="27.6351" width="1419.2" height="115.691" filterUnits="userSpaceOnUse" color-interpolation-filters="sRGB">
<feFlood flood-opacity="0" result="BackgroundImageFix"/>
<feGaussianBlur in="BackgroundImage" stdDeviation="2.88899"/>
<feComposite in2="SourceAlpha" operator="in" result="effect1_backgroundBlur_98_2"/>
<feBlend mode="normal" in="SourceGraphic" in2="effect1_backgroundBlur_98_2" result="shape"/>
</filter>
</defs>
</svg>
