<svg width="407" height="175" viewBox="0 0 407 175" fill="none" xmlns="http://www.w3.org/2000/svg">
<path d="M0.626953 173.689L0.62696 90.1616L406.374 90.1617L406.374 141.861L365.463 173.689L0.626953 173.689Z" fill="black" stroke="#535353" stroke-width="0.999759"/>
<path d="M62.4785 129.986C59.3535 129.736 57.3285 129.586 57.3285 128.411C57.3285 127.161 59.8035 126.836 61.8535 126.836C64.5785 126.861 66.9285 127.411 68.8785 128.786L71.4535 125.611C69.0535 123.911 65.6035 123.011 61.8535 123.011C56.3035 123.011 52.2535 125.061 52.2535 128.811C52.2535 132.711 56.9785 133.861 62.1785 134.311C65.7785 134.611 67.1785 134.986 67.1785 136.111C67.1785 137.261 65.6785 137.811 62.6785 137.811C59.1785 137.811 56.3035 136.836 54.2285 135.086L51.5535 138.236C54.3035 140.436 58.0785 141.661 62.5785 141.661C68.9285 141.661 72.2535 139.211 72.2535 135.611C72.2535 131.586 68.2035 130.461 62.4785 129.986ZM85.2971 137.511C81.6971 137.511 79.2971 135.686 79.2971 132.336C79.2971 128.986 81.6971 127.161 85.2971 127.161C87.6471 127.161 89.4221 128.011 90.5721 129.811L94.9721 127.561C93.3971 125.061 89.8971 123.011 85.3721 123.011C78.5721 123.011 74.1221 126.436 74.1221 132.336C74.1221 138.236 78.5721 141.661 85.1721 141.661C89.8971 141.661 93.4221 139.661 95.0471 137.086L90.6721 134.836C89.4471 136.711 87.6471 137.511 85.2971 137.511ZM118.358 141.086L113.208 135.136C115.958 134.336 117.808 132.486 117.808 129.561C117.808 125.561 114.333 123.586 109.858 123.586H97.583V141.086H102.658V135.561H107.808L112.433 141.086H118.358ZM102.633 131.861V127.461H109.483C111.308 127.461 112.633 127.961 112.633 129.661C112.633 131.361 111.308 131.861 109.483 131.861H102.633ZM131.274 141.661C138.199 141.661 142.699 138.261 142.699 132.336C142.699 126.411 138.199 123.011 131.274 123.011C124.349 123.011 119.874 126.411 119.874 132.336C119.874 138.261 124.349 141.661 131.274 141.661ZM131.274 137.511C127.424 137.511 125.049 135.636 125.049 132.336C125.049 129.036 127.449 127.161 131.274 127.161C135.124 127.161 137.499 129.036 137.499 132.336C137.499 135.636 135.124 137.511 131.274 137.511ZM150.901 136.986V123.586H145.801V141.086H162.676V136.986H150.901ZM170.261 136.986V123.586H165.161V141.086H182.036V136.986H170.261ZM207.598 123.586H187.998V127.661H195.223V141.086H200.323V127.661H207.598V123.586ZM219.873 141.661C226.798 141.661 231.298 138.261 231.298 132.336C231.298 126.411 226.798 123.011 219.873 123.011C212.948 123.011 208.473 126.411 208.473 132.336C208.473 138.261 212.948 141.661 219.873 141.661ZM219.873 137.511C216.023 137.511 213.648 135.636 213.648 132.336C213.648 129.036 216.048 127.161 219.873 127.161C223.723 127.161 226.098 129.036 226.098 132.336C226.098 135.636 223.723 137.511 219.873 137.511ZM245.943 137.186V134.086H256.968V130.361H245.943V127.486H259.318V123.586H240.918V141.086H259.593V137.186H245.943ZM278.446 123.586V134.286L268.071 123.586H262.671V141.086H267.596V129.586L278.896 141.086H283.371V123.586H278.446ZM305.426 123.586H285.826V127.661H293.051V141.086H298.151V127.661H305.426V123.586ZM312.886 137.186V134.086H323.911V130.361H312.886V127.486H326.261V123.586H307.861V141.086H326.536V137.186H312.886ZM350.389 141.086L345.239 135.136C347.989 134.336 349.839 132.486 349.839 129.561C349.839 125.561 346.364 123.586 341.889 123.586H329.614V141.086H334.689V135.561H339.839L344.464 141.086H350.389ZM334.664 131.861V127.461H341.514C343.339 127.461 344.664 127.961 344.664 129.661C344.664 131.361 343.339 131.861 341.514 131.861H334.664Z" fill="white"/>
<path d="M221.804 20.1742H230.592L233.337 17.4359V9.70068L224.48 0.84668H206.205L203.813 3.23864H194.438L179.49 17.1163H218.751L221.804 20.1742Z" fill="#8EFE1C"/>
<path d="M212.703 22.3613L223.782 33.2397H237.878L227.001 22.3613H212.703Z" fill="#8EFE1C"/>
<path d="M197.559 33.3997L209.097 21.8608L207.002 19.7725H193.818L190.444 23.0594H186.426L164.123 45.3489H186.73L189.421 48.0392H201.257L197.559 44.342V33.3997Z" fill="#8EFE1C"/>
<path d="M203.172 31.2655L203.194 41.6431L212.701 48.0412H214.54L221.42 41.8988V34.6377L210.735 23.7061L203.172 31.2655Z" fill="#8EFE1C"/>
</svg>
