<svg width="256" height="125" viewBox="0 0 256 125" fill="none" xmlns="http://www.w3.org/2000/svg">
<path d="M47.1406 96.3044C45.1802 96.1476 43.9099 96.0535 43.9099 95.3164C43.9099 94.5322 45.4625 94.3284 46.7485 94.3284C48.4579 94.3441 49.9321 94.6891 51.1554 95.5516L52.7707 93.5599C51.2651 92.4935 49.1009 91.9289 46.7485 91.9289C43.2669 91.9289 40.7263 93.2149 40.7263 95.5673C40.7263 98.0138 43.6903 98.7352 46.9524 99.0175C49.2107 99.2057 50.0889 99.441 50.0889 100.147C50.0889 100.868 49.148 101.213 47.266 101.213C45.0704 101.213 43.2669 100.601 41.9652 99.5037L40.2872 101.48C42.0123 102.86 44.3804 103.628 47.2033 103.628C51.1867 103.628 53.2725 102.091 53.2725 99.833C53.2725 97.3081 50.7319 96.6024 47.1406 96.3044ZM69.7002 92.2896L67.3007 99.833L64.6817 92.2896H61.7333L59.1143 99.833L56.7148 92.2896H53.4371L57.4519 103.268H60.6041L63.1761 95.63L65.7324 103.268H68.916L72.9151 92.2896H69.7002ZM77.5379 103.268V92.2896H74.3386V103.268H77.5379ZM87.7496 92.2896H80.1278V103.268H83.3271V99.9742H87.7496C90.745 99.9742 92.7368 98.6882 92.7368 96.1319C92.7368 93.607 90.745 92.2896 87.7496 92.2896ZM87.483 97.6531H83.3271V94.7204H87.483C88.6749 94.7204 89.4904 95.0811 89.4904 96.1946C89.4904 97.2924 88.6749 97.6531 87.483 97.6531ZM97.5692 100.821V98.8764H104.485V96.5396H97.5692V94.7361H105.959V92.2896H94.4169V103.268H106.132V100.821H97.5692ZM122.968 92.2896H110.673V94.8459H115.205V103.268H118.404V94.8459H122.968V92.2896ZM130.668 103.628C135.012 103.628 137.835 101.495 137.835 97.7786C137.835 94.0618 135.012 91.9289 130.668 91.9289C126.324 91.9289 123.517 94.0618 123.517 97.7786C123.517 101.495 126.324 103.628 130.668 103.628ZM130.668 101.025C128.253 101.025 126.763 99.8487 126.763 97.7786C126.763 95.7085 128.268 94.5322 130.668 94.5322C133.083 94.5322 134.573 95.7085 134.573 97.7786C134.573 99.8487 133.083 101.025 130.668 101.025ZM147.022 100.821V98.8764H153.938V96.5396H147.022V94.7361H155.412V92.2896H143.87V103.268H155.585V100.821H147.022ZM167.412 92.2896V99.0019L160.903 92.2896H157.516V103.268H160.605V96.0535L167.694 103.268H170.501V92.2896H167.412ZM184.336 92.2896H172.041V94.8459H176.573V103.268H179.773V94.8459H184.336V92.2896ZM189.017 100.821V98.8764H195.933V96.5396H189.017V94.7361H197.407V92.2896H185.864V103.268H197.579V100.821H189.017ZM212.543 103.268L209.312 99.5351C211.037 99.0332 212.198 97.8727 212.198 96.0378C212.198 93.5285 210.018 92.2896 207.21 92.2896H199.51V103.268H202.694V99.8017H205.924L208.826 103.268H212.543ZM202.678 97.4806V94.7204H206.975C208.12 94.7204 208.951 95.0341 208.951 96.1005C208.951 97.167 208.12 97.4806 206.975 97.4806H202.678Z" fill="white"/>
<path d="M0.736328 123.812L0.736333 71.4144L255.267 71.4145L255.267 103.846L229.603 123.813L0.736328 123.812Z" stroke="#535353" stroke-width="0.999759"/>
<path d="M144.529 16.2514H151.511L153.692 14.0757V7.92957L146.654 0.894531H132.134L130.233 2.79509H122.785L110.907 13.8217H142.102L144.529 16.2514Z" fill="#8EFE1C"/>
<path d="M137.297 17.9893L146.1 26.6328H157.3L148.658 17.9893H137.297Z" fill="#8EFE1C"/>
<path d="M125.264 26.7603L134.432 17.5919L132.768 15.9326H122.292L119.611 18.5443H116.418L98.6973 36.2546H116.66L118.798 38.3922H128.203L125.264 35.4546V26.7603Z" fill="#8EFE1C"/>
<path d="M129.724 25.0636L129.741 33.3092L137.295 38.3929H138.756L144.223 33.5124V27.743L135.733 19.0571L129.724 25.0636Z" fill="#8EFE1C"/>
</svg>
