<svg width="711" height="145" viewBox="0 0 711 145" fill="none" xmlns="http://www.w3.org/2000/svg">
<path d="M377.166 101.294C377.166 90.2969 386.175 81.2988 397.162 81.2988H456.493V98.3811H397.162C395.571 98.3811 394.377 99.7034 394.248 101.294V124.203C394.377 125.794 395.571 127.117 397.162 127.117H456.493V144.199H397.162C386.164 144.199 377.166 135.19 377.166 124.203V101.294Z" fill="white"/>
<path d="M541.135 127.117V144.199H481.804C470.807 144.199 461.809 135.19 461.809 124.203V81.2881H478.891V124.203C478.891 125.794 480.213 127.117 481.804 127.117H541.135Z" fill="white"/>
<path d="M625.76 81.2988V124.214C625.76 135.212 616.752 144.21 605.765 144.21H566.429C555.432 144.21 546.434 135.201 546.434 124.214V81.2988H563.516V124.214C563.516 125.805 564.838 127.128 566.429 127.128H605.765C607.356 127.128 608.678 125.805 608.678 124.214V81.2988H625.76Z" fill="white"/>
<path d="M706.804 112.819C709.05 116.13 710.383 120.108 710.383 124.203C710.383 135.201 701.375 144.199 690.388 144.199H631.057V81.2881H690.388C701.385 81.2881 710.383 90.2969 710.383 101.284C710.383 105.401 709.061 109.368 706.804 112.819ZM690.388 104.208C691.979 104.208 693.301 102.886 693.301 101.294C693.301 99.7034 691.979 98.3811 690.388 98.3811H648.139V104.208H690.388ZM690.388 127.117C691.979 127.117 693.301 125.794 693.301 124.203C693.301 122.612 691.979 121.29 690.388 121.29H648.139V127.117H690.388Z" fill="white"/>
<path d="M20.5931 98.4544C18.9952 98.4544 17.6673 99.7824 17.6673 101.38C17.6673 102.978 18.9952 104.306 20.5931 104.306H80.1787V121.462H20.5931C18.9952 121.462 17.6673 122.79 17.6673 124.388V144.469H0.511719V124.388C0.511719 120.263 1.8397 116.279 4.10695 112.814C1.8505 109.488 0.511719 105.494 0.511719 101.369C0.511719 90.3247 9.55915 81.2881 20.5931 81.2881H80.1787V98.4436H20.5931V98.4544Z" fill="#8EFE1C"/>
<path d="M102.526 81.2988V144.21H85.5V81.2988H102.526Z" fill="#8EFE1C"/>
<path d="M187.524 104.306V124.387C187.524 135.432 178.617 144.469 167.573 144.469H127.939C116.894 144.469 107.987 135.421 107.857 124.387V101.38C107.987 90.3355 116.905 81.2988 127.939 81.2988H187.524V98.4544H127.939C126.341 98.4544 125.143 99.7824 125.143 101.38V124.387C125.143 125.985 126.341 127.313 127.939 127.313H167.573C169.17 127.313 170.369 125.985 170.369 124.387V121.462H147.761V104.306H187.524Z" fill="#8EFE1C"/>
<path d="M255.36 81.2988H272.516V144.48H255.36V121.472H209.993V144.48H192.838V81.2988H209.993V104.306H255.349V81.2988H255.36Z" fill="#8EFE1C"/>
<path d="M357.504 98.4544H326.248V144.48H308.952V98.4544H277.826V81.2988H357.504V98.4544Z" fill="#8EFE1C"/>
<path d="M80.1895 20.5816V63.5407H63.0231V20.4412C63.0231 18.8434 61.5656 17.5154 60.0973 17.5154H48.923V63.5407H31.7674V17.5154H17.6673V63.5407H0.511719V0.359863H60.0973C71.1421 0.37066 80.1895 9.40728 80.1895 20.5816Z" fill="white"/>
<path d="M105.585 0.370117H165.311V17.5257H105.585C103.987 17.5257 102.789 18.8536 102.789 20.4515C102.789 22.0494 103.987 23.3773 105.585 23.3773H165.311V40.5329H105.585C103.987 40.5329 102.789 41.8609 102.789 43.4587C102.789 45.0566 103.987 46.3846 105.585 46.3846H165.311V63.5401H105.585C94.5405 63.5401 85.6335 54.4927 85.5039 43.4587C85.5039 39.3345 86.8319 35.3506 89.2287 32.0253C86.8319 28.5704 85.5039 24.5758 85.5039 20.4515C85.6443 9.40675 94.5513 0.370117 105.585 0.370117Z" fill="white"/>
<path d="M170.631 20.4515C170.631 9.40675 179.678 0.370117 190.712 0.370117H250.298V17.5257H190.712C189.114 17.5257 187.916 18.8536 187.786 20.4515V43.4587C187.916 45.0566 189.114 46.3846 190.712 46.3846H250.298V63.5401H190.712C179.667 63.5401 170.631 54.4927 170.631 43.4587V20.4515Z" fill="white"/>
<path d="M318.133 0.370117H335.288V63.551H318.133V40.5437H272.777V63.551H255.621V0.370117H272.777V23.3773H318.133V0.370117Z" fill="white"/>
<path d="M400.197 0.370117C411.371 0.370117 420.278 9.27719 420.278 20.4515V63.551H403.252V40.5437H357.767V63.551H340.611V20.4515C340.611 9.27719 349.659 0.370117 360.693 0.370117H400.197ZM403.263 23.3773V20.4515C403.134 18.7241 401.806 17.5257 400.208 17.5257H360.704C359.106 17.5257 357.778 18.7241 357.778 20.4515V23.3773H403.263Z" fill="white"/>
</svg>
