<svg width="377" height="377" viewBox="0 0 377 377" fill="none" xmlns="http://www.w3.org/2000/svg">
<path opacity="0.2" d="M131.612 319.796C159.099 331.647 189.611 334.58 218.853 328.182C248.095 321.784 274.594 306.377 294.62 284.13C314.647 261.882 327.192 233.914 330.491 204.163C333.789 174.412 327.675 144.375 313.008 118.281C298.341 92.1869 275.86 71.3493 248.73 58.7013C221.6 46.0533 191.187 42.2317 161.771 47.7745M84.751 89.5996C64.0844 111.254 50.7289 138.844 46.5644 168.486" stroke="white" stroke-width="51"/>
<circle cx="188.268" cy="189.13" r="141.522" stroke="white" stroke-width="2"/>
<path d="M87.0254 92.4229C67.0699 113.448 54.1335 140.197 50.037 168.906" stroke="white" stroke-width="10"/>
<path d="M232.395 323.511C247.503 320.896 261.442 313.635 272.249 302.75" stroke="#8EFE1C" stroke-width="10"/>
</svg>
