<svg width="353" height="412" viewBox="0 0 353 412" fill="none" xmlns="http://www.w3.org/2000/svg">
<path d="M294.833 390.43L350.385 334.878C351.322 333.94 351.849 332.668 351.849 331.342V6.06689C351.849 3.30547 349.61 1.06689 346.849 1.06689H42.7611C41.435 1.06689 40.1632 1.59368 39.2255 2.53136L2.46447 39.2924C1.52678 40.2301 1 41.5019 1 42.828V386.894C1 389.656 3.23858 391.894 6 391.894H89.2005C90.5266 391.894 91.7983 392.421 92.736 393.359L108.976 409.598C109.913 410.536 111.185 411.063 112.511 411.063H216.658C217.984 411.063 219.256 410.536 220.194 409.598L236.433 393.359C237.371 392.421 238.643 391.894 239.969 391.894H291.297C292.623 391.894 293.895 391.367 294.833 390.43Z" fill="black" fill-opacity="0.2" stroke="url(#paint0_linear_5_113527)"/>
<defs>
<linearGradient id="paint0_linear_5_113527" x1="-56.6454" y1="233.092" x2="68.3348" y2="640.545" gradientUnits="userSpaceOnUse">
<stop stop-color="white" stop-opacity="0.5"/>
<stop offset="1" stop-color="white" stop-opacity="0.08"/>
</linearGradient>
</defs>
</svg>
