<svg width="596" height="434" viewBox="0 0 596 434" fill="none" xmlns="http://www.w3.org/2000/svg">
<g filter="url(#filter0_bd_5_141660)">
<path d="M279.426 55.4412H39.8633C37.1019 55.4412 34.8633 57.6798 34.8633 60.4412V368.296C34.8633 371.057 37.1019 373.296 39.8633 373.296H73.9482C75.2742 373.296 76.546 373.823 77.4837 374.76L96.7462 394.023C97.6839 394.96 98.9556 395.487 100.282 395.487H176.859C178.185 395.487 179.457 394.96 180.394 394.023L199.657 374.76C200.595 373.823 201.866 373.296 203.192 373.296H473.391C474.717 373.296 475.989 372.769 476.927 371.831L528.529 320.229C529.467 319.291 529.993 318.019 529.993 316.693V122.813C529.993 121.487 530.52 120.215 531.458 119.277L559.491 91.2435C560.429 90.3058 560.956 89.0341 560.956 87.708V35.7168C560.956 32.9554 558.717 30.7168 555.956 30.7168H499.982C498.656 30.7168 497.384 31.2436 496.447 32.1813L474.651 53.9767C473.714 54.9144 472.442 55.4412 471.116 55.4412H430.693C429.367 55.4412 428.095 55.968 427.158 56.9057L403.225 80.8378C402.288 81.7755 401.016 82.3023 399.69 82.3023H310.429C309.103 82.3023 307.831 81.7755 306.893 80.8378L282.961 56.9057C282.023 55.968 280.752 55.4412 279.426 55.4412Z" fill="black" fill-opacity="0.2" shape-rendering="crispEdges"/>
<path d="M279.426 55.4412H39.8633C37.1019 55.4412 34.8633 57.6798 34.8633 60.4412V368.296C34.8633 371.057 37.1019 373.296 39.8633 373.296H73.9482C75.2742 373.296 76.546 373.823 77.4837 374.76L96.7462 394.023C97.6839 394.96 98.9556 395.487 100.282 395.487H176.859C178.185 395.487 179.457 394.96 180.394 394.023L199.657 374.76C200.595 373.823 201.866 373.296 203.192 373.296H473.391C474.717 373.296 475.989 372.769 476.927 371.831L528.529 320.229C529.467 319.291 529.993 318.019 529.993 316.693V122.813C529.993 121.487 530.52 120.215 531.458 119.277L559.491 91.2435C560.429 90.3058 560.956 89.0341 560.956 87.708V35.7168C560.956 32.9554 558.717 30.7168 555.956 30.7168H499.982C498.656 30.7168 497.384 31.2436 496.447 32.1813L474.651 53.9767C473.714 54.9144 472.442 55.4412 471.116 55.4412H430.693C429.367 55.4412 428.095 55.968 427.158 56.9057L403.225 80.8378C402.288 81.7755 401.016 82.3023 399.69 82.3023H310.429C309.103 82.3023 307.831 81.7755 306.893 80.8378L282.961 56.9057C282.023 55.968 280.752 55.4412 279.426 55.4412Z" stroke="url(#paint0_linear_5_141660)" shape-rendering="crispEdges"/>
</g>
<defs>
<filter id="filter0_bd_5_141660" x="-129.637" y="-133.783" width="855.093" height="693.771" filterUnits="userSpaceOnUse" color-interpolation-filters="sRGB">
<feFlood flood-opacity="0" result="BackgroundImageFix"/>
<feGaussianBlur in="BackgroundImage" stdDeviation="82"/>
<feComposite in2="SourceAlpha" operator="in" result="effect1_backgroundBlur_5_141660"/>
<feColorMatrix in="SourceAlpha" type="matrix" values="0 0 0 0 0 0 0 0 0 0 0 0 0 0 0 0 0 0 127 0" result="hardAlpha"/>
<feOffset dy="4"/>
<feGaussianBlur stdDeviation="17"/>
<feComposite in2="hardAlpha" operator="out"/>
<feColorMatrix type="matrix" values="0 0 0 0 0 0 0 0 0 0 0 0 0 0 0 0 0 0 0.25 0"/>
<feBlend mode="normal" in2="effect1_backgroundBlur_5_141660" result="effect2_dropShadow_5_141660"/>
<feBlend mode="normal" in="SourceGraphic" in2="effect2_dropShadow_5_141660" result="shape"/>
</filter>
<linearGradient id="paint0_linear_5_141660" x1="46.429" y1="8.02894" x2="138.026" y2="271.545" gradientUnits="userSpaceOnUse">
<stop stop-color="white" stop-opacity="0.5"/>
<stop offset="1" stop-color="white" stop-opacity="0.08"/>
</linearGradient>
</defs>
</svg>
