<svg width="576" height="504" viewBox="0 0 576 504" fill="none" xmlns="http://www.w3.org/2000/svg">
<g filter="url(#filter0_bd_5_141656)">
<path d="M361.482 51.9196H39.7715C37.0101 51.9196 34.7715 54.1582 34.7715 56.9196V106.581C34.7715 107.907 35.2983 109.179 36.236 110.116L47.1218 121.002C48.0595 121.94 48.5863 123.212 48.5863 124.538V168.253C48.5863 169.579 48.0595 170.85 47.1218 171.788L36.236 182.674C35.2983 183.612 34.7715 184.883 34.7715 186.21V422.532C34.7715 423.858 35.2983 425.13 36.236 426.067L74.1884 464.02C75.126 464.957 76.3978 465.484 77.7239 465.484H535.721C538.482 465.484 540.721 463.246 540.721 460.484V412.408C540.721 411.082 540.194 409.81 539.256 408.873L523.938 393.554C523 392.616 522.473 391.345 522.473 390.019V323.214C522.473 321.887 523 320.616 523.938 319.678L539.256 304.359C540.194 303.422 540.721 302.15 540.721 300.824V115.056C540.721 113.73 540.194 112.458 539.256 111.52L460.328 32.5924C459.391 31.6547 458.119 31.1279 456.793 31.1279H386.416C385.09 31.1279 383.818 31.6547 382.88 32.5924L365.018 50.4551C364.08 51.3928 362.808 51.9196 361.482 51.9196Z" fill="black" fill-opacity="0.2" shape-rendering="crispEdges"/>
<path d="M361.482 51.9196H39.7715C37.0101 51.9196 34.7715 54.1582 34.7715 56.9196V106.581C34.7715 107.907 35.2983 109.179 36.236 110.116L47.1218 121.002C48.0595 121.94 48.5863 123.212 48.5863 124.538V168.253C48.5863 169.579 48.0595 170.85 47.1218 171.788L36.236 182.674C35.2983 183.612 34.7715 184.883 34.7715 186.21V422.532C34.7715 423.858 35.2983 425.13 36.236 426.067L74.1884 464.02C75.126 464.957 76.3978 465.484 77.7239 465.484H535.721C538.482 465.484 540.721 463.246 540.721 460.484V412.408C540.721 411.082 540.194 409.81 539.256 408.873L523.938 393.554C523 392.616 522.473 391.345 522.473 390.019V323.214C522.473 321.887 523 320.616 523.938 319.678L539.256 304.359C540.194 303.422 540.721 302.15 540.721 300.824V115.056C540.721 113.73 540.194 112.458 539.256 111.52L460.328 32.5924C459.391 31.6547 458.119 31.1279 456.793 31.1279H386.416C385.09 31.1279 383.818 31.6547 382.88 32.5924L365.018 50.4551C364.08 51.3928 362.808 51.9196 361.482 51.9196Z" stroke="url(#paint0_linear_5_141656)" shape-rendering="crispEdges"/>
</g>
<defs>
<filter id="filter0_bd_5_141656" x="-129.729" y="-133.372" width="834.949" height="763.356" filterUnits="userSpaceOnUse" color-interpolation-filters="sRGB">
<feFlood flood-opacity="0" result="BackgroundImageFix"/>
<feGaussianBlur in="BackgroundImage" stdDeviation="82"/>
<feComposite in2="SourceAlpha" operator="in" result="effect1_backgroundBlur_5_141656"/>
<feColorMatrix in="SourceAlpha" type="matrix" values="0 0 0 0 0 0 0 0 0 0 0 0 0 0 0 0 0 0 127 0" result="hardAlpha"/>
<feOffset dy="4"/>
<feGaussianBlur stdDeviation="17"/>
<feComposite in2="hardAlpha" operator="out"/>
<feColorMatrix type="matrix" values="0 0 0 0 0 0 0 0 0 0 0 0 0 0 0 0 0 0 0.25 0"/>
<feBlend mode="normal" in2="effect1_backgroundBlur_5_141656" result="effect2_dropShadow_5_141656"/>
<feBlend mode="normal" in="SourceGraphic" in2="effect2_dropShadow_5_141656" result="shape"/>
</filter>
<linearGradient id="paint0_linear_5_141656" x1="52.9173" y1="38.1066" x2="195.476" y2="601.628" gradientUnits="userSpaceOnUse">
<stop stop-color="white" stop-opacity="0.5"/>
<stop offset="1" stop-color="white" stop-opacity="0.08"/>
</linearGradient>
</defs>
</svg>
