<svg width="706" height="433" viewBox="0 0 706 433" fill="none" xmlns="http://www.w3.org/2000/svg">
<g filter="url(#filter0_bd_5_141668)">
<path d="M34.9141 203.515V361.653C34.9141 364.415 37.1526 366.653 39.9141 366.653H470.221C471.547 366.653 472.819 367.18 473.756 368.118L497.888 392.249C498.825 393.187 500.097 393.714 501.423 393.714H596.685C598.011 393.714 599.283 393.187 600.221 392.249L624.352 368.118C625.289 367.18 626.561 366.653 627.887 366.653H666.1C668.862 366.653 671.1 364.415 671.1 361.653V35.7695C671.1 33.0081 668.862 30.7695 666.1 30.7695H84.4781C83.152 30.7695 81.8802 31.2963 80.9426 32.234L36.3785 76.798C35.4408 77.7357 34.9141 79.0075 34.9141 80.3335V124.82C34.9141 126.146 35.4408 127.418 36.3785 128.355L43.9422 135.919C44.8798 136.857 45.4066 138.128 45.4066 139.454V188.88C45.4066 190.206 44.8798 191.478 43.9422 192.416L36.3785 199.979C35.4408 200.917 34.9141 202.189 34.9141 203.515Z" fill="black" fill-opacity="0.3" shape-rendering="crispEdges"/>
<path d="M34.9141 203.515V361.653C34.9141 364.415 37.1526 366.653 39.9141 366.653H470.221C471.547 366.653 472.819 367.18 473.756 368.118L497.888 392.249C498.825 393.187 500.097 393.714 501.423 393.714H596.685C598.011 393.714 599.283 393.187 600.221 392.249L624.352 368.118C625.289 367.18 626.561 366.653 627.887 366.653H666.1C668.862 366.653 671.1 364.415 671.1 361.653V35.7695C671.1 33.0081 668.862 30.7695 666.1 30.7695H84.4781C83.152 30.7695 81.8802 31.2963 80.9426 32.234L36.3785 76.798C35.4408 77.7357 34.9141 79.0075 34.9141 80.3335V124.82C34.9141 126.146 35.4408 127.418 36.3785 128.355L43.9422 135.919C44.8798 136.857 45.4066 138.128 45.4066 139.454V188.88C45.4066 190.206 44.8798 191.478 43.9422 192.416L36.3785 199.979C35.4408 200.917 34.9141 202.189 34.9141 203.515Z" stroke="#8EFE1C" shape-rendering="crispEdges"/>
</g>
<defs>
<filter id="filter0_bd_5_141668" x="-129.586" y="-133.73" width="965.187" height="691.944" filterUnits="userSpaceOnUse" color-interpolation-filters="sRGB">
<feFlood flood-opacity="0" result="BackgroundImageFix"/>
<feGaussianBlur in="BackgroundImage" stdDeviation="82"/>
<feComposite in2="SourceAlpha" operator="in" result="effect1_backgroundBlur_5_141668"/>
<feColorMatrix in="SourceAlpha" type="matrix" values="0 0 0 0 0 0 0 0 0 0 0 0 0 0 0 0 0 0 127 0" result="hardAlpha"/>
<feOffset dy="4"/>
<feGaussianBlur stdDeviation="17"/>
<feComposite in2="hardAlpha" operator="out"/>
<feColorMatrix type="matrix" values="0 0 0 0 0 0 0 0 0 0 0 0 0 0 0 0 0 0 0.25 0"/>
<feBlend mode="normal" in2="effect1_backgroundBlur_5_141668" result="effect2_dropShadow_5_141668"/>
<feBlend mode="normal" in="SourceGraphic" in2="effect2_dropShadow_5_141668" result="shape"/>
</filter>
</defs>
</svg>
