<svg width="830" height="346" viewBox="0 0 830 346" fill="none" xmlns="http://www.w3.org/2000/svg">
<g filter="url(#filter0_bd_356_36)">
<path d="M737.833 286.363L793.385 230.811C794.322 229.873 794.849 228.601 794.849 227.275V36C794.849 33.2386 792.61 31 789.849 31H76.7611C75.435 31 74.1632 31.5268 73.2255 32.4645L36.4645 69.2255C35.5268 70.1632 35 71.435 35 72.7611V282.827C35 285.589 37.2386 287.827 40 287.827H112.146C113.472 287.827 114.744 287.3 115.681 286.363L128.878 273.167C129.815 272.229 131.087 271.702 132.413 271.702H192.1C193.426 271.702 194.698 272.229 195.635 273.167L208.832 286.363C209.769 287.3 211.041 287.827 212.367 287.827H322.2C323.527 287.827 324.798 288.354 325.736 289.292L341.976 305.531C342.913 306.469 344.185 306.996 345.511 306.996H449.658C450.984 306.996 452.256 306.469 453.194 305.531L469.433 289.292C470.371 288.354 471.643 287.827 472.969 287.827H734.297C735.623 287.827 736.895 287.3 737.833 286.363Z" fill="black" fill-opacity="0.2" shape-rendering="crispEdges"/>
<path d="M737.833 286.363L793.385 230.811C794.322 229.873 794.849 228.601 794.849 227.275V36C794.849 33.2386 792.61 31 789.849 31H76.7611C75.435 31 74.1632 31.5268 73.2255 32.4645L36.4645 69.2255C35.5268 70.1632 35 71.435 35 72.7611V282.827C35 285.589 37.2386 287.827 40 287.827H112.146C113.472 287.827 114.744 287.3 115.681 286.363L128.878 273.167C129.815 272.229 131.087 271.702 132.413 271.702H192.1C193.426 271.702 194.698 272.229 195.635 273.167L208.832 286.363C209.769 287.3 211.041 287.827 212.367 287.827H322.2C323.527 287.827 324.798 288.354 325.736 289.292L341.976 305.531C342.913 306.469 344.185 306.996 345.511 306.996H449.658C450.984 306.996 452.256 306.469 453.194 305.531L469.433 289.292C470.371 288.354 471.643 287.827 472.969 287.827H734.297C735.623 287.827 736.895 287.3 737.833 286.363Z" stroke="#7F1CFE" shape-rendering="crispEdges"/>
</g>
<defs>
<filter id="filter0_bd_356_36" x="-129.5" y="-133.5" width="1088.85" height="604.996" filterUnits="userSpaceOnUse" color-interpolation-filters="sRGB">
<feFlood flood-opacity="0" result="BackgroundImageFix"/>
<feGaussianBlur in="BackgroundImage" stdDeviation="82"/>
<feComposite in2="SourceAlpha" operator="in" result="effect1_backgroundBlur_356_36"/>
<feColorMatrix in="SourceAlpha" type="matrix" values="0 0 0 0 0 0 0 0 0 0 0 0 0 0 0 0 0 0 127 0" result="hardAlpha"/>
<feOffset dy="4"/>
<feGaussianBlur stdDeviation="17"/>
<feComposite in2="hardAlpha" operator="out"/>
<feColorMatrix type="matrix" values="0 0 0 0 0 0 0 0 0 0 0 0 0 0 0 0 0 0 0.25 0"/>
<feBlend mode="normal" in2="effect1_backgroundBlur_356_36" result="effect2_dropShadow_356_36"/>
<feBlend mode="normal" in="SourceGraphic" in2="effect2_dropShadow_356_36" result="shape"/>
</filter>
</defs>
</svg>
