<svg width="323" height="80" viewBox="0 0 323 80" fill="none" xmlns="http://www.w3.org/2000/svg">
<path d="M19.7167 1.13183H0.11666V5.20684H7.34166V18.6318H12.4417V5.20684H19.7167V1.13183ZM37.7524 1.13183V7.65684H27.2524V1.13183H22.1524V18.6318H27.2524V11.8568H37.7524V18.6318H42.8524V1.13183H37.7524ZM51.9821 14.7318V11.6318H63.0071V7.90684H51.9821V5.03184H65.3571V1.13183H46.9571V18.6318H65.6321V14.7318H51.9821ZM90.7786 9.50684C93.4036 9.35684 94.7786 7.63184 94.7786 5.65683C94.7786 2.85683 92.0536 1.13183 87.7536 1.13183H75.2286V18.6318H88.7536C93.0536 18.6318 95.7786 16.8568 95.7786 13.8318C95.7786 11.1318 93.5286 9.68184 90.7786 9.50684ZM80.2786 4.68184H86.9036C88.6036 4.68184 89.7286 5.05683 89.7286 6.38184C89.7286 7.73184 88.6036 8.10684 86.9036 8.10684H80.2786V4.68184ZM87.6786 15.0818H80.2786V11.4068H87.6786C89.4786 11.4068 90.5536 11.8068 90.5536 13.2318C90.5536 14.6568 89.4786 15.0818 87.6786 15.0818ZM103.888 18.6318V1.13183H98.7881V18.6318H103.888ZM128.642 8.50684H118.117V12.0818H123.917V13.6568C122.692 14.7818 120.992 15.2068 118.842 15.2068C114.592 15.2068 112.192 13.3318 112.192 9.88184C112.192 6.45684 114.517 4.58184 118.767 4.58184C121.117 4.58184 122.692 5.18183 124.192 6.53184L127.917 3.78183C126.092 2.08183 122.967 0.556835 118.642 0.556835C111.467 0.556835 107.017 3.95684 107.017 9.88184C107.017 15.8068 111.467 19.2068 118.642 19.2068C123.317 19.2068 126.767 17.6568 128.642 15.3318V8.50684ZM152.519 8.50684H141.994V12.0818H147.794V13.6568C146.569 14.7818 144.869 15.2068 142.719 15.2068C138.469 15.2068 136.069 13.3318 136.069 9.88184C136.069 6.45684 138.394 4.58184 142.644 4.58184C144.994 4.58184 146.569 5.18183 148.069 6.53184L151.794 3.78183C149.969 2.08183 146.844 0.556835 142.519 0.556835C135.344 0.556835 130.894 3.95684 130.894 9.88184C130.894 15.8068 135.344 19.2068 142.519 19.2068C147.194 19.2068 150.644 17.6568 152.519 15.3318V8.50684ZM160.796 14.7318V11.6318H171.821V7.90684H160.796V5.03184H174.171V1.13183H155.771V18.6318H174.446V14.7318H160.796ZM187.023 7.53184C183.898 7.28184 181.873 7.13184 181.873 5.95684C181.873 4.70683 184.348 4.38183 186.398 4.38183C189.123 4.40684 191.473 4.95683 193.423 6.33184L195.998 3.15684C193.598 1.45684 190.148 0.556835 186.398 0.556835C180.848 0.556835 176.798 2.60684 176.798 6.35684C176.798 10.2568 181.523 11.4068 186.723 11.8568C190.323 12.1568 191.723 12.5318 191.723 13.6568C191.723 14.8068 190.223 15.3568 187.223 15.3568C183.723 15.3568 180.848 14.3818 178.773 12.6318L176.098 15.7818C178.848 17.9818 182.623 19.2068 187.123 19.2068C193.473 19.2068 196.798 16.7568 196.798 13.1568C196.798 9.13184 192.748 8.00684 187.023 7.53184ZM217.178 1.13183H197.578V5.20684H204.803V18.6318H209.903V5.20684H217.178V1.13183ZM243.749 5.15684V1.13183H225.424V18.6318H230.524V12.4568H241.574V8.48184H230.524V5.15684H243.749ZM251.496 18.6318V1.13183H246.396V18.6318H251.496ZM276.249 8.50684H265.724V12.0818H271.524V13.6568C270.299 14.7818 268.599 15.2068 266.449 15.2068C262.199 15.2068 259.799 13.3318 259.799 9.88184C259.799 6.45684 262.124 4.58184 266.374 4.58184C268.724 4.58184 270.299 5.18183 271.799 6.53184L275.524 3.78183C273.699 2.08183 270.574 0.556835 266.249 0.556835C259.074 0.556835 254.624 3.95684 254.624 9.88184C254.624 15.8068 259.074 19.2068 266.249 19.2068C270.924 19.2068 274.374 17.6568 276.249 15.3318V8.50684ZM295.101 1.13183V7.65684H284.601V1.13183H279.501V18.6318H284.601V11.8568H295.101V18.6318H300.201V1.13183H295.101ZM322.256 1.13183H302.656V5.20684H309.881V18.6318H314.981V5.20684H322.256V1.13183ZM72.5007 45.0568C68.9007 45.0568 66.5007 43.2318 66.5007 39.8818C66.5007 36.5318 68.9007 34.7068 72.5007 34.7068C74.8507 34.7068 76.6257 35.5568 77.7757 37.3568L82.1757 35.1068C80.6007 32.6068 77.1007 30.5568 72.5757 30.5568C65.7757 30.5568 61.3257 33.9818 61.3257 39.8818C61.3257 45.7818 65.7757 49.2068 72.3757 49.2068C77.1007 49.2068 80.6257 47.2068 82.2507 44.6318L77.8757 42.3818C76.6507 44.2568 74.8507 45.0568 72.5007 45.0568ZM89.8867 44.5318V31.1318H84.7867V48.6318H101.662V44.5318H89.8867ZM118.364 31.1318V39.9818C118.364 43.0318 116.689 45.0068 113.314 45.0068C109.939 45.0068 108.239 43.0318 108.239 39.9818V31.1318H103.139V40.3818C103.139 45.7068 106.789 49.2068 113.314 49.2068C119.839 49.2068 123.464 45.7068 123.464 40.3818V31.1318H118.364ZM142.817 39.5068C145.442 39.3568 146.817 37.6318 146.817 35.6568C146.817 32.8568 144.092 31.1318 139.792 31.1318H127.267V48.6318H140.792C145.092 48.6318 147.817 46.8568 147.817 43.8318C147.817 41.1318 145.567 39.6818 142.817 39.5068ZM132.317 34.6818H138.942C140.642 34.6818 141.767 35.0568 141.767 36.3818C141.767 37.7318 140.642 38.1068 138.942 38.1068H132.317V34.6818ZM139.717 45.0818H132.317V41.4068H139.717C141.517 41.4068 142.592 41.8068 142.592 43.2318C142.592 44.6568 141.517 45.0818 139.717 45.0818ZM162.445 48.6318V31.1318H157.345V48.6318H162.445ZM182.349 31.1318V41.8318L171.974 31.1318H166.574V48.6318H171.499V37.1318L182.799 48.6318H187.274V31.1318H182.349ZM215.139 31.1318H195.539V35.2068H202.764V48.6318H207.864V35.2068H215.139V31.1318ZM233.175 31.1318V37.6568H222.675V31.1318H217.575V48.6318H222.675V41.8568H233.175V48.6318H238.275V31.1318H233.175ZM247.404 44.7318V41.6318H258.429V37.9068H247.404V35.0318H260.779V31.1318H242.379V48.6318H261.054V44.7318H247.404Z" fill="white"/>
<path d="M77.9391 61.1318L71.3141 69.5318L64.7391 61.1318H59.1641V78.6318H64.0891V67.4568L71.0641 76.0068H71.3141L78.2891 67.4568V78.6318H83.3641V61.1318H77.9391ZM92.485 74.7318V71.6318H103.51V67.9068H92.485V65.0318H105.86V61.1318H87.46V78.6318H106.135V74.7318H92.485ZM127.163 61.1318H107.563V65.2068H114.788V78.6318H119.888V65.2068H127.163V61.1318ZM142.964 78.6318H148.389L139.339 61.1318H133.764L124.714 78.6318H130.064L131.714 75.2818H141.314L142.964 78.6318ZM133.464 71.6568L136.514 65.4568L139.539 71.6568H133.464ZM145.857 61.1318L154.407 78.6318H159.757L168.332 61.1318H162.882L157.132 73.7318L151.357 61.1318H145.857ZM175.273 74.7318V71.6318H186.298V67.9068H175.273V65.0318H188.648V61.1318H170.248V78.6318H188.923V74.7318H175.273ZM212.776 78.6318L207.626 72.6818C210.376 71.8818 212.226 70.0318 212.226 67.1068C212.226 63.1068 208.751 61.1318 204.276 61.1318H192.001V78.6318H197.076V73.1068H202.226L206.851 78.6318H212.776ZM197.051 69.4068V65.0068H203.901C205.726 65.0068 207.051 65.5068 207.051 67.2068C207.051 68.9068 205.726 69.4068 203.901 69.4068H197.051ZM224.914 67.5318C221.789 67.2818 219.764 67.1318 219.764 65.9568C219.764 64.7068 222.239 64.3818 224.289 64.3818C227.014 64.4068 229.364 64.9568 231.314 66.3318L233.889 63.1568C231.489 61.4568 228.039 60.5568 224.289 60.5568C218.739 60.5568 214.689 62.6068 214.689 66.3568C214.689 70.2568 219.414 71.4068 224.614 71.8568C228.214 72.1568 229.614 72.5318 229.614 73.6568C229.614 74.8068 228.114 75.3568 225.114 75.3568C221.614 75.3568 218.739 74.3818 216.664 72.6318L213.989 75.7818C216.739 77.9818 220.514 79.2068 225.014 79.2068C231.364 79.2068 234.689 76.7568 234.689 73.1568C234.689 69.1318 230.639 68.0068 224.914 67.5318ZM242.583 74.7318V71.6318H253.608V67.9068H242.583V65.0318H255.958V61.1318H237.558V78.6318H256.233V74.7318H242.583ZM261.261 78.9568C262.936 78.9568 264.111 77.9068 264.111 76.4818C264.111 75.0818 262.936 73.9818 261.261 73.9818C259.561 73.9818 258.386 75.0818 258.386 76.4818C258.386 77.9068 259.561 78.9568 261.261 78.9568Z" fill="#8EFE1C"/>
</svg>
