<svg width="902" height="106" viewBox="0 0 902 106" fill="none" xmlns="http://www.w3.org/2000/svg">
<path d="M143.224 1.46033H100.598V10.3227H116.311V39.5195H127.402V10.3227H143.224V1.46033ZM182.448 1.46033V15.651H159.613V1.46033H148.521V39.5195H159.613V24.7852H182.448V39.5195H193.54V1.46033H182.448ZM213.395 31.0378V24.2959H237.372V16.1947H213.395V9.94209H242.483V1.46033H202.467V39.5195H243.081V31.0378H213.395ZM297.77 19.6744C303.479 19.3482 306.469 15.5966 306.469 11.3013C306.469 5.21188 300.543 1.46033 291.191 1.46033H263.952V39.5195H293.366C302.718 39.5195 308.644 35.6592 308.644 29.0804C308.644 23.2084 303.751 20.055 297.77 19.6744ZM274.935 9.18091H289.343C293.04 9.18091 295.487 9.99646 295.487 12.8781C295.487 15.8141 293.04 16.6296 289.343 16.6296H274.935V9.18091ZM291.028 31.7989H274.935V23.8065H291.028C294.943 23.8065 297.281 24.6764 297.281 27.7755C297.281 30.8747 294.943 31.7989 291.028 31.7989ZM326.281 39.5195V1.46033H315.189V39.5195H326.281ZM380.115 17.4996H357.225V25.2745H369.839V28.6998C367.175 31.1465 363.478 32.0708 358.802 32.0708C349.559 32.0708 344.34 27.993 344.34 20.4899C344.34 13.0412 349.396 8.96343 358.639 8.96343C363.75 8.96343 367.175 10.2683 370.437 13.2043L378.538 7.22358C374.569 3.5264 367.773 0.20981 358.367 0.20981C342.763 0.20981 333.085 7.60417 333.085 20.4899C333.085 33.3757 342.763 40.77 358.367 40.77C368.534 40.77 376.037 37.3991 380.115 32.3427V17.4996ZM432.043 17.4996H409.153V25.2745H421.767V28.6998C419.103 31.1465 415.406 32.0708 410.73 32.0708C401.487 32.0708 396.267 27.993 396.267 20.4899C396.267 13.0412 401.324 8.96343 410.567 8.96343C415.678 8.96343 419.103 10.2683 422.365 13.2043L430.466 7.22358C426.497 3.5264 419.701 0.20981 410.295 0.20981C394.691 0.20981 385.013 7.60417 385.013 20.4899C385.013 33.3757 394.691 40.77 410.295 40.77C420.462 40.77 427.965 37.3991 432.043 32.3427V17.4996ZM450.044 31.0378V24.2959H474.021V16.1947H450.044V9.94209H479.132V1.46033H439.115V39.5195H479.73V31.0378H450.044ZM507.085 15.3791C500.288 14.8354 495.884 14.5092 495.884 11.9538C495.884 9.23528 501.267 8.52846 505.725 8.52846C511.652 8.58284 516.763 9.77898 521.003 12.7693L526.604 5.86432C521.384 2.16714 513.881 0.20981 505.725 0.20981C493.655 0.20981 484.847 4.66817 484.847 12.8237C484.847 21.3055 495.123 23.8065 506.432 24.7852C514.262 25.4376 517.306 26.2532 517.306 28.6998C517.306 31.2009 514.044 32.397 507.52 32.397C499.908 32.397 493.655 30.2766 489.142 26.4707L483.325 33.3213C489.306 38.1059 497.516 40.77 507.302 40.77C521.112 40.77 528.343 35.4418 528.343 27.6124C528.343 18.8588 519.535 16.4122 507.085 15.3791ZM572.664 1.46033H530.038V10.3227H545.751V39.5195H556.842V10.3227H572.664V1.46033ZM630.452 10.2139V1.46033H590.598V39.5195H601.69V26.0901H625.722V17.4452H601.69V10.2139H630.452ZM647.299 39.5195V1.46033H636.208V39.5195H647.299ZM701.134 17.4996H678.244V25.2745H690.858V28.6998C688.193 31.1465 684.496 32.0708 679.82 32.0708C670.577 32.0708 665.358 27.993 665.358 20.4899C665.358 13.0412 670.414 8.96343 679.657 8.96343C684.768 8.96343 688.193 10.2683 691.456 13.2043L699.557 7.22358C695.588 3.5264 688.791 0.20981 679.385 0.20981C663.781 0.20981 654.103 7.60417 654.103 20.4899C654.103 33.3757 663.781 40.77 679.385 40.77C689.553 40.77 697.056 37.3991 701.134 32.3427V17.4996ZM742.133 1.46033V15.651H719.297V1.46033H708.206V39.5195H719.297V24.7852H742.133V39.5195H753.225V1.46033H742.133ZM801.189 1.46033H758.563V10.3227H774.276V39.5195H785.368V10.3227H801.189V1.46033ZM24.6094 96.7446C16.78 96.7446 11.5605 92.7755 11.5605 85.4899C11.5605 78.2043 16.78 74.2353 24.6094 74.2353C29.7202 74.2353 33.5804 76.0839 36.0815 79.9985L45.6507 75.1052C42.2253 69.6682 34.6135 65.2098 24.7725 65.2098C9.98374 65.2098 0.30583 72.6585 0.30583 85.4899C0.30583 98.3213 9.98374 105.77 24.3375 105.77C34.6135 105.77 42.2797 101.42 45.8138 95.8203L36.299 90.927C33.6348 95.0047 29.7202 96.7446 24.6094 96.7446ZM62.4205 95.6028V66.4603H51.3289V104.52H88.0289V95.6028H62.4205ZM124.353 66.4603V85.7074C124.353 92.3406 120.711 96.6358 113.371 96.6358C106.031 96.6358 102.333 92.3406 102.333 85.7074V66.4603H91.2418V86.5773C91.2418 98.1582 99.1799 105.77 113.371 105.77C127.561 105.77 135.445 98.1582 135.445 86.5773V66.4603H124.353ZM177.534 84.6744C183.243 84.3482 186.234 80.5966 186.234 76.3013C186.234 70.2119 180.307 66.4603 170.955 66.4603H143.716V104.52H173.13C182.482 104.52 188.408 100.659 188.408 94.0804C188.408 88.2084 183.515 85.055 177.534 84.6744ZM154.699 74.1809H169.107C172.804 74.1809 175.251 74.9965 175.251 77.8781C175.251 80.8141 172.804 81.6296 169.107 81.6296H154.699V74.1809ZM170.792 96.7989H154.699V88.8065H170.792C174.707 88.8065 177.045 89.6764 177.045 92.7755C177.045 95.8747 174.707 96.7989 170.792 96.7989ZM220.222 104.52V66.4603H209.13V104.52H220.222ZM263.508 66.4603V89.7308L240.944 66.4603H229.2V104.52H239.911V79.5092L264.487 104.52H274.219V66.4603H263.508ZM334.821 66.4603H292.194V75.3227H307.907V104.52H318.999V75.3227H334.821V66.4603ZM374.045 66.4603V80.651H351.21V66.4603H340.118V104.52H351.21V89.7852H374.045V104.52H385.137V66.4603H374.045ZM404.992 96.0378V89.2959H428.969V81.1947H404.992V74.9421H434.08V66.4603H394.064V104.52H434.678V96.0378H404.992Z" fill="white"/>
<path d="M496.381 66.4603L481.973 84.7287L467.673 66.4603H455.549V104.52H466.26V80.216L481.429 98.8107H481.973L497.142 80.216V104.52H508.179V66.4603H496.381ZM528.015 96.0378V89.2959H551.993V81.1947H528.015V74.9421H557.103V66.4603H517.087V104.52H557.702V96.0378H528.015ZM603.433 66.4603H560.807V75.3227H576.52V104.52H587.612V75.3227H603.433V66.4603ZM637.798 104.52H649.597L629.915 66.4603H617.79L598.108 104.52H609.743L613.332 97.2339H634.21L637.798 104.52ZM617.138 89.3502L623.771 75.8664L630.35 89.3502H617.138ZM644.089 66.4603L662.684 104.52H674.319L692.968 66.4603H681.115L668.61 93.863L656.051 66.4603H644.089ZM708.064 96.0378V89.2959H732.041V81.1947H708.064V74.9421H737.152V66.4603H697.135V104.52H737.75V96.0378H708.064ZM789.626 104.52L778.425 91.5794C784.406 89.8396 788.43 85.8162 788.43 79.4548C788.43 70.7556 780.872 66.4603 771.14 66.4603H744.444V104.52H755.481V92.5037H766.681L776.74 104.52H789.626ZM755.427 84.4569V74.8877H770.324C774.293 74.8877 777.175 75.9751 777.175 79.6723C777.175 83.3695 774.293 84.4569 770.324 84.4569H755.427ZM816.024 80.3791C809.227 79.8354 804.823 79.5092 804.823 76.9538C804.823 74.2353 810.206 73.5285 814.664 73.5285C820.591 73.5828 825.702 74.779 829.942 77.7693L835.543 70.8643C830.323 67.1671 822.82 65.2098 814.664 65.2098C802.594 65.2098 793.786 69.6682 793.786 77.8237C793.786 86.3055 804.062 88.8065 815.371 89.7852C823.201 90.4376 826.245 91.2532 826.245 93.6998C826.245 96.2009 822.983 97.397 816.459 97.397C808.847 97.397 802.594 95.2766 798.081 91.4707L792.264 98.3213C798.245 103.106 806.455 105.77 816.241 105.77C830.051 105.77 837.282 100.442 837.282 92.6124C837.282 83.8588 828.474 81.4122 816.024 80.3791ZM854.449 96.0378V89.2959H878.427V81.1947H854.449V74.9421H883.538V66.4603H843.521V104.52H884.136V96.0378H854.449ZM895.07 105.226C898.713 105.226 901.269 102.943 901.269 99.8437C901.269 96.7989 898.713 94.4067 895.07 94.4067C891.373 94.4067 888.818 96.7989 888.818 99.8437C888.818 102.943 891.373 105.226 895.07 105.226Z" fill="#8EFE1C"/>
</svg>
