<svg width="288" height="171" viewBox="0 0 288 171" fill="none" xmlns="http://www.w3.org/2000/svg">
<path d="M30.0278 141.636C30.0278 134.111 36.1921 127.954 43.7098 127.954H84.307V139.642H43.7098C42.6211 139.642 41.8046 140.547 41.7164 141.636V157.311C41.8046 158.4 42.6211 159.304 43.7098 159.304H84.307V170.993H43.7098C36.1847 170.993 30.0278 164.829 30.0278 157.311V141.636Z" fill="white"/>
<path d="M142.224 159.304V170.992H101.627C94.1022 170.992 87.9453 164.828 87.9453 157.311V127.946H99.6338V157.311C99.6338 158.399 100.539 159.304 101.627 159.304H142.224V159.304Z" fill="white"/>
<path d="M200.126 127.954V157.318C200.126 164.843 193.962 171 186.444 171H159.529C152.004 171 145.847 164.836 145.847 157.318V127.954H157.535V157.318C157.535 158.407 158.44 159.312 159.529 159.312H186.444C187.533 159.312 188.437 158.407 188.437 157.318V127.954H200.126Z" fill="white"/>
<path d="M255.579 149.521C257.117 151.786 258.029 154.508 258.029 157.311C258.029 164.836 251.864 170.992 244.347 170.992H203.75V127.946H244.347C251.872 127.946 258.029 134.11 258.029 141.628C258.029 144.445 257.124 147.159 255.579 149.521ZM244.347 143.629C245.435 143.629 246.34 142.724 246.34 141.635C246.34 140.546 245.435 139.642 244.347 139.642H215.438V143.629H244.347V143.629ZM244.347 159.304C245.435 159.304 246.34 158.399 246.34 157.311C246.34 156.222 245.435 155.317 244.347 155.317H215.438V159.304H244.347V159.304Z" fill="white"/>
<path d="M34.6298 75.7192C33.5365 75.7192 32.6278 76.6278 32.6278 77.7212C32.6278 78.8145 33.5365 79.7232 34.6298 79.7232H75.4011V91.4618H34.6298C33.5365 91.4618 32.6278 92.3705 32.6278 93.4638V107.204H20.8892V93.4638C20.8892 90.6418 21.7978 87.9159 23.3492 85.5445C21.8052 83.2692 20.8892 80.5358 20.8892 77.7138C20.8892 70.1564 27.0798 63.9731 34.6298 63.9731H75.4011V75.7118H34.6298V75.7192Z" fill="#8EFE1C"/>
<path d="M90.692 63.981V107.028H79.042V63.981H90.692V63.981Z" fill="#8EFE1C"/>
<path d="M148.851 79.7236V93.4643C148.851 101.022 142.756 107.205 135.199 107.205H108.08C100.522 107.205 94.4275 101.014 94.3389 93.4643V77.7216C94.4275 70.1643 100.53 63.981 108.08 63.981H148.851V75.7196H108.08C106.986 75.7196 106.166 76.6283 106.166 77.7216V93.4643C106.166 94.5576 106.986 95.4663 108.08 95.4663H135.199C136.292 95.4663 137.112 94.5576 137.112 93.4643V91.4623H121.643V79.7236H148.851V79.7236Z" fill="#8EFE1C"/>
<path d="M195.271 63.981H207.01V107.212H195.271V91.4697H164.229V107.212H152.491V63.981H164.229V79.7236H195.264V63.981H195.271Z" fill="#8EFE1C"/>
<path d="M265.161 75.7196H243.775V107.212H231.94V75.7196H210.642V63.981H265.161V75.7196V75.7196Z" fill="#8EFE1C"/>
<path d="M54.5194 13.8367V43.2313H42.7733V13.7406C42.7733 12.6473 41.776 11.7387 40.7713 11.7387H33.1253V43.2313H21.3867V11.7387H11.7387V43.2313H0V0H40.7713C48.3287 0.00738745 54.5194 6.19068 54.5194 13.8367Z" fill="white"/>
<path d="M71.8959 0.0078125H112.763V11.7465H71.8959C70.8026 11.7465 69.9826 12.6551 69.9826 13.7485C69.9826 14.8418 70.8026 15.7505 71.8959 15.7505H112.763V27.4891H71.8959C70.8026 27.4891 69.9826 28.3978 69.9826 29.4911C69.9826 30.5845 70.8026 31.4931 71.8959 31.4931H112.763V43.2318H71.8959C64.3386 43.2318 58.2439 37.0411 58.1553 29.4911C58.1553 26.6691 59.0639 23.9431 60.7039 21.6678C59.0639 19.3038 58.1553 16.5705 58.1553 13.7485C58.2513 6.19111 64.346 0.0078125 71.8959 0.0078125Z" fill="white"/>
<path d="M116.401 13.7485C116.401 6.19111 122.592 0.0078125 130.142 0.0078125H170.913V11.7465H130.142C129.048 11.7465 128.228 12.6551 128.14 13.7485V29.4911C128.228 30.5845 129.048 31.4931 130.142 31.4931H170.913V43.2318H130.142C122.584 43.2318 116.401 37.0411 116.401 29.4911V13.7485Z" fill="white"/>
<path d="M217.329 0.0078125H229.068V43.2392H217.329V27.4965H186.295V43.2392H174.556V0.0078125H186.295V15.7505H217.329V0.0078125Z" fill="white"/>
<path d="M273.484 0.0078125C281.13 0.0078125 287.224 6.10246 287.224 13.7485V43.2392H275.574V27.4965H244.451V43.2392H232.712V13.7485C232.712 6.10246 238.903 0.0078125 246.453 0.0078125H273.484V0.0078125ZM275.582 15.7505V13.7485C275.493 12.5665 274.584 11.7465 273.491 11.7465H246.46C245.367 11.7465 244.458 12.5665 244.458 13.7485V15.7505H275.582Z" fill="white"/>
</svg>
