<svg width="1066" height="60" viewBox="0 0 1066 60" fill="none" xmlns="http://www.w3.org/2000/svg">
<path d="M751.667 19.1356C751.667 8.76573 760.162 0.28125 770.522 0.28125H826.467V16.3886H770.522C769.022 16.3886 767.896 17.6354 767.775 19.1356V40.7371C767.896 42.2373 769.022 43.4841 770.522 43.4841H826.467V59.5915H770.522C760.152 59.5915 751.667 51.0968 751.667 40.7371V19.1356Z" fill="white"/>
<path d="M906.279 43.484V59.5913H850.334C839.964 59.5913 831.479 51.0967 831.479 40.7369V0.270996H847.587V40.7369C847.587 42.2372 848.834 43.484 850.334 43.484H906.279Z" fill="white"/>
<path d="M986.071 0.28125V40.7472C986.071 51.1171 977.577 59.6016 967.217 59.6016H930.126C919.756 59.6016 911.272 51.107 911.272 40.7472V0.28125H927.379V40.7472C927.379 42.2475 928.626 43.4943 930.126 43.4943H967.217C968.717 43.4943 969.964 42.2475 969.964 40.7472V0.28125H986.071Z" fill="white"/>
<path d="M1062.49 30.0021C1064.61 33.1242 1065.86 36.8748 1065.86 40.7369C1065.86 51.1069 1057.37 59.5913 1047.01 59.5913H991.064V0.270996H1047.01C1057.38 0.270996 1065.86 8.76559 1065.86 19.1254C1065.86 23.0077 1064.62 26.7482 1062.49 30.0021ZM1047.01 21.8826C1048.51 21.8826 1049.76 20.6358 1049.76 19.1355C1049.76 17.6353 1048.51 16.3885 1047.01 16.3885H1007.17V21.8826H1047.01ZM1047.01 43.484C1048.51 43.484 1049.76 42.2372 1049.76 40.7369C1049.76 39.2367 1048.51 37.9899 1047.01 37.9899H1007.17V43.484H1047.01Z" fill="white"/>
<path d="M426.763 16.4576C425.256 16.4576 424.004 17.7098 424.004 19.2164C424.004 20.7231 425.256 21.9753 426.763 21.9753H482.948V38.1517H426.763C425.256 38.1517 424.004 39.4039 424.004 40.9105V59.8458H407.828V40.9105C407.828 37.0217 409.08 33.2652 411.218 29.9973C409.09 26.8618 407.828 23.0951 407.828 19.2062C407.828 8.79185 416.359 0.270996 426.763 0.270996H482.948V16.4474H426.763V16.4576Z" fill="#8EFE1C"/>
<path d="M504.018 0.28125V59.6016H487.963V0.28125H504.018Z" fill="#8EFE1C"/>
<path d="M584.165 21.9753V40.9106C584.165 51.325 575.766 59.8459 565.351 59.8459H527.98C517.565 59.8459 509.167 51.3148 509.044 40.9106V19.2165C509.167 8.80212 517.576 0.28125 527.98 0.28125H584.165V16.4577H527.98C526.473 16.4577 525.343 17.7098 525.343 19.2165V40.9106C525.343 42.4173 526.473 43.6694 527.98 43.6694H565.351C566.858 43.6694 567.988 42.4173 567.988 40.9106V38.1518H546.671V21.9753H584.165Z" fill="#8EFE1C"/>
<path d="M648.134 0.28125H664.311V59.8561H648.134V38.162H605.357V59.8561H589.181V0.28125H605.357V21.9753H648.124V0.28125H648.134Z" fill="#8EFE1C"/>
<path d="M744.447 16.4577H714.975V59.8561H698.666V16.4577H669.316V0.28125H744.447V16.4577Z" fill="#8EFE1C"/>
<path d="M75.1302 19.0676V59.5748H58.9436V18.9352C58.9436 17.4286 57.5693 16.1764 56.1848 16.1764H45.6482V59.5748H29.4718V16.1764H16.1764V59.5748H0V0H56.1848C66.5992 0.0101802 75.1302 8.53104 75.1302 19.0676Z" fill="white"/>
<path d="M99.0759 0.00976562H155.393V16.1862H99.0759C97.5692 16.1862 96.4392 17.4384 96.4392 18.945C96.4392 20.4517 97.5692 21.7039 99.0759 21.7039H155.393V37.8803H99.0759C97.5692 37.8803 96.4392 39.1325 96.4392 40.6391C96.4392 42.1458 97.5692 43.398 99.0759 43.398H155.393V59.5744H99.0759C88.6615 59.5744 80.2628 51.0433 80.1406 40.6391C80.1406 36.7503 81.3928 32.9938 83.6528 29.8582C81.3928 26.6006 80.1406 22.8339 80.1406 18.945C80.273 8.53064 88.6717 0.00976562 99.0759 0.00976562Z" fill="white"/>
<path d="M160.407 18.945C160.407 8.53064 168.938 0.00976562 179.342 0.00976562H235.527V16.1862H179.342C177.836 16.1862 176.706 17.4384 176.584 18.945V40.6391C176.706 42.1458 177.836 43.398 179.342 43.398H235.527V59.5744H179.342C168.928 59.5744 160.407 51.0433 160.407 40.6391V18.945Z" fill="white"/>
<path d="M299.491 0.00976562H315.668V59.5846H299.491V37.8905H256.724V59.5846H240.548V0.00976562H256.724V21.7039H299.491V0.00976562Z" fill="white"/>
<path d="M376.873 0.00976562C387.41 0.00976562 395.808 8.40847 395.808 18.945V59.5846H379.754V37.8905H336.865V59.5846H320.688V18.945C320.688 8.40847 329.219 0.00976562 339.624 0.00976562H376.873ZM379.764 21.7039V18.945C379.642 17.3162 378.39 16.1862 376.883 16.1862H339.634C338.127 16.1862 336.875 17.3162 336.875 18.945V21.7039H379.764Z" fill="white"/>
</svg>
