<svg width="270" height="188" viewBox="0 0 270 188" fill="none" xmlns="http://www.w3.org/2000/svg">
<path d="M13.0889 0.0214844V9.45826" stroke="#2E3539" stroke-width="1.5"/>
<path d="M13.0889 15.2219V24.6587" stroke="#2E3539" stroke-width="1.5"/>
<path d="M0.770508 12.3401L10.2073 12.3401" stroke="#2E3539" stroke-width="1.5"/>
<path d="M15.9697 12.3401L25.4065 12.3401" stroke="#2E3539" stroke-width="1.5"/>
<path d="M94.3936 0.0214844V9.45826" stroke="white" stroke-width="1.5"/>
<path d="M94.3936 15.2219V24.6587" stroke="white" stroke-width="1.5"/>
<path d="M82.0752 12.3401L91.512 12.3401" stroke="white" stroke-width="1.5"/>
<path d="M97.2744 12.3401L106.711 12.3401" stroke="white" stroke-width="1.5"/>
<path d="M175.699 0.0214844V9.45826" stroke="white" stroke-width="1.5"/>
<path d="M175.699 15.2219V24.6587" stroke="white" stroke-width="1.5"/>
<path d="M163.381 12.3401L172.818 12.3401" stroke="white" stroke-width="1.5"/>
<path d="M178.58 12.3401L188.017 12.3401" stroke="white" stroke-width="1.5"/>
<path d="M257.007 0.0214844V9.45826" stroke="#2E3539" stroke-width="1.5"/>
<path d="M257.007 15.2219V24.6587" stroke="#2E3539" stroke-width="1.5"/>
<path d="M244.688 12.3401L254.125 12.3401" stroke="#2E3539" stroke-width="1.5"/>
<path d="M259.888 12.3401L269.324 12.3401" stroke="#2E3539" stroke-width="1.5"/>
<path d="M13.0889 81.3267V90.7634" stroke="#2E3539" stroke-width="1.5"/>
<path d="M13.0889 96.5271V105.964" stroke="#2E3539" stroke-width="1.5"/>
<path d="M0.770508 93.6453L10.2073 93.6453" stroke="#2E3539" stroke-width="1.5"/>
<path d="M15.9697 93.6453L25.4065 93.6453" stroke="#2E3539" stroke-width="1.5"/>
<path d="M94.3936 81.3267V90.7634" stroke="#2E3539" stroke-width="1.5"/>
<path d="M94.3936 96.5271V105.964" stroke="#2E3539" stroke-width="1.5"/>
<path d="M82.0752 93.6453L91.512 93.6453" stroke="#2E3539" stroke-width="1.5"/>
<path d="M97.2744 93.6453L106.711 93.6453" stroke="#2E3539" stroke-width="1.5"/>
<path d="M175.699 81.3267V90.7634" stroke="white" stroke-width="1.5"/>
<path d="M175.699 96.5271V105.964" stroke="white" stroke-width="1.5"/>
<path d="M163.381 93.6453L172.818 93.6453" stroke="white" stroke-width="1.5"/>
<path d="M178.58 93.6453L188.017 93.6453" stroke="white" stroke-width="1.5"/>
<path d="M257.007 81.3267V90.7634" stroke="#2E3539" stroke-width="1.5"/>
<path d="M257.007 96.5271V105.964" stroke="#2E3539" stroke-width="1.5"/>
<path d="M244.688 93.6453L254.125 93.6453" stroke="#2E3539" stroke-width="1.5"/>
<path d="M259.888 93.6453L269.324 93.6453" stroke="#2E3539" stroke-width="1.5"/>
<path d="M13.0889 162.632V172.069" stroke="#2E3539" stroke-width="1.5"/>
<path d="M13.0889 177.832V187.269" stroke="#2E3539" stroke-width="1.5"/>
<path d="M0.770508 174.95L10.2073 174.95" stroke="#2E3539" stroke-width="1.5"/>
<path d="M15.9697 174.95L25.4065 174.95" stroke="#2E3539" stroke-width="1.5"/>
<path d="M94.3936 162.632V172.069" stroke="#2E3539" stroke-width="1.5"/>
<path d="M94.3936 177.832V187.269" stroke="#2E3539" stroke-width="1.5"/>
<path d="M82.0752 174.95L91.512 174.95" stroke="#2E3539" stroke-width="1.5"/>
<path d="M97.2744 174.95L106.711 174.95" stroke="#2E3539" stroke-width="1.5"/>
<path d="M175.699 162.632V172.069" stroke="#2E3539" stroke-width="1.5"/>
<path d="M175.699 177.832V187.269" stroke="#2E3539" stroke-width="1.5"/>
<path d="M163.381 174.95L172.818 174.95" stroke="#2E3539" stroke-width="1.5"/>
<path d="M178.58 174.95L188.017 174.95" stroke="#2E3539" stroke-width="1.5"/>
<path d="M257.007 162.632V172.069" stroke="#2E3539" stroke-width="1.5"/>
<path d="M257.007 177.832V187.269" stroke="#2E3539" stroke-width="1.5"/>
<path d="M244.688 174.95L254.125 174.95" stroke="#2E3539" stroke-width="1.5"/>
<path d="M259.888 174.95L269.324 174.95" stroke="#2E3539" stroke-width="1.5"/>
</svg>
