<svg width="97" height="20" viewBox="0 0 97 20" fill="none" xmlns="http://www.w3.org/2000/svg">
<mask id="path-1-inside-1_455_7" fill="white">
<path d="M14.8352 19.2253L0 4.39026H96.3651L81.53 19.2253H14.8352Z"/>
</mask>
<path d="M14.8352 19.2253L0 4.39026H96.3651L81.53 19.2253H14.8352Z" fill="black"/>
<path d="M14.8352 19.2253L14.128 19.9324L14.4209 20.2253H14.8352V19.2253ZM0 4.39026V3.39026H-2.41422L-0.707104 5.09737L0 4.39026ZM96.3651 4.39026L97.0722 5.09737L98.7793 3.39026H96.3651V4.39026ZM81.53 19.2253V20.2253H81.9443L82.2371 19.9324L81.53 19.2253ZM15.5423 18.5182L0.707104 3.68315L-0.707104 5.09737L14.128 19.9324L15.5423 18.5182ZM0 5.39026H96.3651V3.39026H0V5.39026ZM95.658 3.68315L80.8229 18.5182L82.2371 19.9324L97.0722 5.09737L95.658 3.68315ZM81.53 18.2253H14.8352V20.2253H81.53V18.2253Z" fill="#8EFE1C" mask="url(#path-1-inside-1_455_7)"/>
<path d="M48.1952 10.3904L53.3903 5.19519H43L48.1952 10.3904Z" fill="#8EFE1C"/>
</svg>
