<svg width="272" height="103" viewBox="0 0 272 103" fill="none" xmlns="http://www.w3.org/2000/svg">
<g opacity="0.6">
<path d="M260.856 36.9619H266.715L270.252 40.4988V47.0522" stroke="white" stroke-width="1.5"/>
<path d="M260.857 83.6631H266.716L270.253 80.1262V73.5728" stroke="white" stroke-width="1.5"/>
<rect x="15.8101" y="1" width="7.4972" height="16.4042" stroke="white" stroke-width="1.5"/>
<rect x="77.5466" y="1" width="7.4972" height="16.4042" stroke="white" stroke-width="1.5"/>
<rect x="139.283" y="1" width="7.4972" height="16.4042" stroke="white" stroke-width="1.5"/>
<rect x="201.02" y="1" width="7.4972" height="16.4042" stroke="white" stroke-width="1.5"/>
<rect x="262.756" y="1" width="7.4972" height="16.4042" stroke="white" stroke-width="1.5"/>
<path d="M15.8101 36.9619L203.995 36.9619" stroke="white" stroke-width="1.5"/>
<path d="M237.449 55.8867V59.2772" stroke="white" stroke-width="1.5"/>
<path d="M237.449 61.3477V64.7381" stroke="white" stroke-width="1.5"/>
<path d="M233.024 60.3125L236.414 60.3125" stroke="white" stroke-width="1.5"/>
<path d="M238.484 60.3125L241.874 60.3125" stroke="white" stroke-width="1.5"/>
<path d="M13.654 101.139C16.003 101.139 17.389 99.8702 17.389 97.8002C17.389 95.7302 16.003 94.4612 13.654 94.4612C11.314 94.4612 9.91905 95.7302 9.91905 97.8002C9.91905 99.8702 11.314 101.139 13.654 101.139ZM13.654 100.185C12.025 100.185 11.017 99.3752 11.017 97.8002C11.017 96.2252 12.025 95.4152 13.654 95.4152C15.274 95.4152 16.291 96.2252 16.291 97.8002C16.291 99.3752 15.274 100.185 13.654 100.185ZM18.892 101.049C19.297 101.049 19.585 100.788 19.585 100.437C19.585 100.086 19.297 99.8072 18.892 99.8072C18.496 99.8072 18.208 100.086 18.208 100.437C18.208 100.788 18.496 101.049 18.892 101.049ZM21.7886 100.95H22.8686V94.6502H22.0496C21.4556 95.1722 20.6546 95.6222 19.8536 95.7392V96.6752C20.5826 96.5582 21.2486 96.3242 21.7886 95.9012V100.95Z" fill="white"/>
<path d="M199.779 101.139C202.128 101.139 203.514 99.8702 203.514 97.8002C203.514 95.7302 202.128 94.4612 199.779 94.4612C197.439 94.4612 196.044 95.7302 196.044 97.8002C196.044 99.8702 197.439 101.139 199.779 101.139ZM199.779 100.185C198.15 100.185 197.142 99.3752 197.142 97.8002C197.142 96.2252 198.15 95.4152 199.779 95.4152C201.399 95.4152 202.416 96.2252 202.416 97.8002C202.416 99.3752 201.399 100.185 199.779 100.185ZM205.017 101.049C205.422 101.049 205.71 100.788 205.71 100.437C205.71 100.086 205.422 99.8072 205.017 99.8072C204.621 99.8072 204.333 100.086 204.333 100.437C204.333 100.788 204.621 101.049 205.017 101.049ZM213.698 98.6372H212.375V94.6502H211.412L206.417 98.8352V99.5012H211.304V100.95H212.375V99.5012H213.698V98.6372ZM207.929 98.6372L211.313 95.8112V98.6372H207.929Z" fill="white"/>
<path d="M138.165 101.139C140.514 101.139 141.9 99.8702 141.9 97.8002C141.9 95.7302 140.514 94.4612 138.165 94.4612C135.825 94.4612 134.43 95.7302 134.43 97.8002C134.43 99.8702 135.825 101.139 138.165 101.139ZM138.165 100.185C136.536 100.185 135.528 99.3752 135.528 97.8002C135.528 96.2252 136.536 95.4152 138.165 95.4152C139.785 95.4152 140.802 96.2252 140.802 97.8002C140.802 99.3752 139.785 100.185 138.165 100.185ZM143.403 101.049C143.808 101.049 144.096 100.788 144.096 100.437C144.096 100.086 143.808 99.8072 143.403 99.8072C143.007 99.8072 142.719 100.086 142.719 100.437C142.719 100.788 143.007 101.049 143.403 101.049ZM145.873 99.1142L144.973 99.6092C145.657 100.527 146.845 101.13 148.447 101.13C150.22 101.13 151.642 100.428 151.642 99.1952C151.642 98.1782 150.661 97.7552 149.86 97.6472C150.652 97.5662 151.399 97.0172 151.399 96.2072C151.399 95.0732 149.968 94.4702 148.348 94.4702C146.854 94.4702 145.783 95.0102 145.135 95.9012L145.972 96.4142C146.422 95.7752 147.196 95.3612 148.402 95.3612C149.302 95.3612 150.292 95.6402 150.292 96.3062C150.292 96.9722 149.32 97.2512 148.24 97.2512H147.367V98.0972H148.24C149.536 98.0972 150.499 98.3132 150.499 99.1142C150.499 99.9062 149.518 100.239 148.447 100.239C147.268 100.239 146.332 99.8252 145.873 99.1142Z" fill="white"/>
<path d="M76.4948 101.139C78.8438 101.139 80.2298 99.8702 80.2298 97.8002C80.2298 95.7302 78.8438 94.4612 76.4948 94.4612C74.1548 94.4612 72.7598 95.7302 72.7598 97.8002C72.7598 99.8702 74.1548 101.139 76.4948 101.139ZM76.4948 100.185C74.8658 100.185 73.8578 99.3752 73.8578 97.8002C73.8578 96.2252 74.8658 95.4152 76.4948 95.4152C78.1148 95.4152 79.1318 96.2252 79.1318 97.8002C79.1318 99.3752 78.1148 100.185 76.4948 100.185ZM81.7327 101.049C82.1377 101.049 82.4257 100.788 82.4257 100.437C82.4257 100.086 82.1377 99.8072 81.7327 99.8072C81.3367 99.8072 81.0487 100.086 81.0487 100.437C81.0487 100.788 81.3367 101.049 81.7327 101.049ZM83.5363 96.0092L84.2473 96.5672C84.8683 95.7752 85.6693 95.3612 86.6863 95.3612C87.6493 95.3612 88.6033 95.6942 88.6033 96.3962C88.6033 97.0172 87.7483 97.3142 86.5873 97.7192C84.7333 98.3582 83.5723 99.3302 83.3743 100.455V100.95H89.8453V100.05H84.7153C84.9313 99.4472 85.9033 98.9522 87.1993 98.5022C88.6663 98.0162 89.7013 97.4582 89.7013 96.3782C89.7013 95.1092 88.1983 94.4702 86.7223 94.4702C85.2733 94.4702 84.0943 95.1362 83.5363 96.0092Z" fill="white"/>
<line x1="16.5887" y1="36.9619" x2="16.5887" y2="83.6631" stroke="white" stroke-width="1.5"/>
<line x1="204.744" y1="36.9619" x2="204.744" y2="83.663" stroke="white" stroke-width="1.5"/>
<line x1="143.007" y1="47.0518" x2="143.007" y2="83.6626" stroke="white" stroke-width="1.5"/>
<line x1="81.2709" y1="47.0518" x2="81.2709" y2="83.6626" stroke="white" stroke-width="1.5"/>
</g>
</svg>
