<svg width="78" height="35" viewBox="0 0 78 35" fill="none" xmlns="http://www.w3.org/2000/svg">
<path fill-rule="evenodd" clip-rule="evenodd" d="M15.5963 0.173251C8.80851 1.09452 3.19873 5.68588 1.11329 12.0269C0.643537 13.4547 0.205078 16.0197 0.205078 17.3385C0.205078 19.4245 0.781804 22.4212 1.55772 24.3663C3.05576 28.1217 5.73536 31.0712 9.23629 32.8184C11.2118 33.8043 12.7689 34.2433 15.5246 34.5916C16.9183 34.7678 17.3851 34.7767 18.5774 34.6506C22.583 34.2265 25.7036 33.1119 29.0795 30.8993C31.4758 29.3288 33.439 27.6705 36.9045 24.2897L39.069 22.178L40.7841 23.8471C44.6828 27.6416 46.7746 29.4356 49.1131 30.9904C52.349 33.1418 54.9581 34.1507 58.4346 34.5948C60.1916 34.8195 61.4442 34.7404 63.8453 34.2536C70.5334 32.8979 75.6946 28.0752 77.4146 21.5744C77.5576 21.034 77.7634 19.8829 77.8721 19.0163C78.0928 17.2555 77.9878 15.476 77.5322 13.2477C76.3025 7.23524 72.1922 2.59939 66.5154 0.822388C62.3437 -0.483577 57.5012 -0.214721 53.2632 1.55799C49.7005 3.04799 46.3659 5.51597 41.2369 10.4582L39.124 12.4944L36.9955 10.4286C34.1797 7.69594 32.2585 5.99659 30.482 4.66768C25.4198 0.880874 20.7565 -0.527062 15.5963 0.173251ZM19.4985 7.17563C23.3794 7.69721 26.2136 9.49198 32.0051 15.096L34.3583 17.3729L32.0373 19.6393C27.4291 24.1391 24.2545 26.2764 20.8544 27.1683C19.1187 27.6237 16.5321 27.6534 15.0505 27.235C10.9316 26.0719 8.30276 22.8741 7.85426 18.4815C7.73787 17.3415 7.83556 15.8172 8.08729 14.8472C8.9623 11.4744 11.6058 8.65768 14.8728 7.61716C16.5738 7.07542 17.8477 6.95378 19.4985 7.17563ZM61.8562 7.176C63.9251 7.45482 65.7086 8.26605 67.1814 9.59836C68.5706 10.855 69.5079 12.3855 70.061 14.3003C70.48 15.7511 70.4838 18.6423 70.0685 20.0623C69.0152 23.6631 66.2521 26.3344 62.5967 27.2852C61.3175 27.6179 58.6383 27.5911 57.292 27.2319C55.0161 26.6248 52.6167 25.2731 50.1706 23.2203C48.8449 22.1078 44.0452 17.5192 43.9893 17.3108C43.9479 17.157 47.7395 13.4308 49.1711 12.2181C53.8413 8.26214 57.9113 6.64434 61.8562 7.176Z" fill="#8EFE1C"/>
</svg>
