<svg width="1259" height="169" viewBox="0 0 1259 169" fill="none" xmlns="http://www.w3.org/2000/svg">
<path d="M1245.77 1H1253.35L1257.92 5.57084V14.0399" stroke="#2E3539" stroke-width="1.5"/>
<path d="M1245.77 61.3525H1253.35L1257.92 56.7817V48.3127" stroke="#2E3539" stroke-width="1.5"/>
<path d="M1209.81 61.3525L1202.24 61.3525L1197.67 56.7817L1197.67 48.3127" stroke="#2E3539" stroke-width="1.5"/>
<path d="M1209.81 1L1202.24 1L1197.67 5.57085L1197.67 14.0399" stroke="#2E3539" stroke-width="1.5"/>
<path opacity="0.6" d="M893.541 135.478V123.819L903.318 109.792H907.811L968.656 24.901V18.5858L980.011 2.79785H1000.17L904.957 135.478H893.541Z" fill="#2E3539"/>
<path opacity="0.6" d="M952.159 135.478V123.819L961.936 109.792H966.429L1027.27 24.901V18.5858L1038.63 2.79785H1058.79L963.575 135.478H952.159Z" fill="#2E3539"/>
<path opacity="0.6" d="M1010.01 135.478V123.819L1019.79 109.792H1024.28L1085.13 24.901V18.5858L1096.48 2.79785H1116.64L1021.43 135.478H1010.01Z" fill="#2E3539"/>
<path opacity="0.6" d="M1068.14 135.478V123.819L1077.92 109.792H1082.41L1143.26 24.901V18.5858L1154.61 2.79785H1174.77L1079.56 135.478H1068.14Z" fill="#2E3539"/>
<path d="M889 167.564H1181.15L1194.67 154.045V139.473L1230.04 104.095H1244L1257.92 90.1812" stroke="#2E3539" stroke-width="1.5"/>
<path d="M1171.71 79.8926V75.5061H1171.66L1169.86 76.1749V76.8106L1170.98 76.3979V79.8926H1171.71ZM1176.28 78.2205V77.1812C1176.28 76.9 1176.25 76.6519 1176.18 76.437C1176.11 76.2201 1176.02 76.0373 1175.9 75.8887C1175.77 75.7421 1175.62 75.6316 1175.45 75.5573C1175.27 75.481 1175.07 75.4428 1174.85 75.4428C1174.63 75.4428 1174.43 75.481 1174.25 75.5573C1174.08 75.6316 1173.93 75.7421 1173.81 75.8887C1173.69 76.0373 1173.59 76.2201 1173.52 76.437C1173.46 76.6519 1173.43 76.9 1173.43 77.1812V78.2205C1173.43 78.5017 1173.46 78.7508 1173.52 78.9677C1173.59 79.1826 1173.69 79.3633 1173.81 79.51C1173.93 79.6566 1174.08 79.7681 1174.26 79.8444C1174.44 79.9187 1174.64 79.9558 1174.86 79.9558C1175.08 79.9558 1175.28 79.9187 1175.45 79.8444C1175.63 79.7681 1175.78 79.6566 1175.9 79.51C1176.02 79.3633 1176.11 79.1826 1176.18 78.9677C1176.25 78.7508 1176.28 78.5017 1176.28 78.2205ZM1174.15 77.9645C1174.15 77.9062 1174.15 77.857 1174.15 77.8168C1174.15 77.7767 1174.15 77.7184 1174.15 77.6421V77.0516C1174.15 76.8709 1174.17 76.7142 1174.2 76.5816C1174.23 76.4471 1174.28 76.3376 1174.35 76.2533C1174.4 76.1789 1174.47 76.1227 1174.56 76.0845C1174.64 76.0464 1174.74 76.0273 1174.85 76.0273C1174.95 76.0273 1175.05 76.0434 1175.13 76.0755C1175.21 76.1076 1175.28 76.1558 1175.33 76.2201C1175.4 76.2924 1175.45 76.3858 1175.48 76.5003C1175.52 76.6148 1175.54 76.7503 1175.55 76.907L1174.15 77.9645ZM1175.55 78.341C1175.55 78.5258 1175.54 78.6865 1175.5 78.8231C1175.47 78.9596 1175.42 79.0701 1175.35 79.1545C1175.3 79.2268 1175.22 79.282 1175.14 79.3202C1175.06 79.3563 1174.96 79.3744 1174.86 79.3744C1174.75 79.3744 1174.65 79.3553 1174.56 79.3172C1174.48 79.279 1174.41 79.2218 1174.36 79.1454C1174.3 79.0751 1174.25 78.9868 1174.22 78.8803C1174.19 78.7739 1174.17 78.6514 1174.16 78.5128L1175.55 77.4613C1175.55 77.5196 1175.55 77.5758 1175.55 77.63C1175.55 77.6823 1175.55 77.7345 1175.55 77.7867V78.341ZM1177.75 79.2991H1177.7V79.9137H1177.76C1178.14 79.9137 1178.46 79.8584 1178.72 79.748C1178.99 79.6375 1179.21 79.4859 1179.38 79.2931C1179.58 79.0581 1179.72 78.7839 1179.8 78.4706C1179.88 78.1573 1179.92 77.8279 1179.92 77.4824V77.2294C1179.92 76.9783 1179.89 76.7393 1179.82 76.5123C1179.75 76.2834 1179.66 76.0886 1179.53 75.9279C1179.41 75.7793 1179.26 75.6618 1179.08 75.5754C1178.91 75.489 1178.7 75.4458 1178.48 75.4458C1178.25 75.4458 1178.05 75.487 1177.87 75.5694C1177.7 75.6497 1177.55 75.7592 1177.43 75.8978C1177.31 76.0383 1177.22 76.202 1177.15 76.3888C1177.09 76.5736 1177.06 76.7714 1177.06 76.9823C1177.06 77.1751 1177.09 77.3609 1177.14 77.5397C1177.19 77.7164 1177.27 77.8731 1177.38 78.0096C1177.48 78.1442 1177.61 78.2517 1177.77 78.332C1177.93 78.4123 1178.11 78.4525 1178.33 78.4525C1178.43 78.4525 1178.53 78.4425 1178.61 78.4224C1178.7 78.4023 1178.78 78.3752 1178.85 78.341C1178.92 78.3089 1178.98 78.2718 1179.04 78.2296C1179.1 78.1854 1179.15 78.1382 1179.19 78.088V78.103C1179.18 78.2738 1179.14 78.4334 1179.09 78.5821C1179.03 78.7287 1178.94 78.8592 1178.82 78.9737C1178.71 79.0781 1178.56 79.1585 1178.39 79.2147C1178.22 79.271 1178 79.2991 1177.75 79.2991ZM1178.48 77.8831C1178.36 77.8831 1178.26 77.858 1178.17 77.8078C1178.08 77.7556 1178.01 77.6873 1177.95 77.6029C1177.89 77.5166 1177.85 77.4182 1177.82 77.3077C1177.79 77.1972 1177.78 77.0817 1177.78 76.9612C1177.78 76.8367 1177.79 76.7182 1177.82 76.6057C1177.85 76.4913 1177.9 76.3918 1177.96 76.3075C1178.02 76.2231 1178.09 76.1568 1178.18 76.1086C1178.26 76.0584 1178.36 76.0333 1178.48 76.0333C1178.58 76.0333 1178.67 76.0574 1178.76 76.1056C1178.85 76.1518 1178.93 76.2201 1178.99 76.3105C1179.06 76.4009 1179.11 76.5133 1179.15 76.6479C1179.19 76.7825 1179.21 76.9371 1179.21 77.1119V77.3619C1179.18 77.4362 1179.14 77.5055 1179.09 77.5698C1179.04 77.6321 1178.99 77.6873 1178.93 77.7355C1178.86 77.7817 1178.79 77.8178 1178.72 77.8439C1178.64 77.8701 1178.56 77.8831 1178.48 77.8831ZM1181.64 77.374V77.9404H1182.07C1182.19 77.9404 1182.31 77.9554 1182.41 77.9855C1182.51 78.0137 1182.6 78.0568 1182.67 78.1151C1182.74 78.1753 1182.8 78.2507 1182.83 78.341C1182.87 78.4314 1182.89 78.5399 1182.89 78.6664C1182.89 78.7789 1182.87 78.8793 1182.84 78.9677C1182.81 79.054 1182.76 79.1264 1182.7 79.1846C1182.63 79.2469 1182.55 79.2941 1182.46 79.3262C1182.37 79.3563 1182.26 79.3714 1182.15 79.3714C1182.04 79.3714 1181.94 79.3553 1181.85 79.3232C1181.76 79.291 1181.68 79.2459 1181.62 79.1876C1181.55 79.1314 1181.5 79.0631 1181.47 78.9827C1181.43 78.9004 1181.41 78.811 1181.41 78.7146H1180.69C1180.69 78.9195 1180.73 79.0992 1180.81 79.2539C1180.89 79.4065 1181 79.5351 1181.13 79.6395C1181.26 79.744 1181.42 79.8223 1181.59 79.8745C1181.77 79.9267 1181.95 79.9528 1182.14 79.9528C1182.35 79.9528 1182.54 79.9247 1182.72 79.8685C1182.9 79.8102 1183.06 79.7259 1183.19 79.6154C1183.32 79.507 1183.42 79.3734 1183.5 79.2147C1183.57 79.054 1183.61 78.8713 1183.61 78.6664C1183.61 78.5559 1183.6 78.4495 1183.57 78.3471C1183.55 78.2426 1183.5 78.1452 1183.45 78.0548C1183.39 77.9665 1183.31 77.8871 1183.22 77.8168C1183.13 77.7445 1183.02 77.6863 1182.89 77.6421C1183 77.5919 1183.09 77.5306 1183.18 77.4583C1183.26 77.386 1183.33 77.3087 1183.38 77.2263C1183.44 77.142 1183.48 77.0546 1183.5 76.9642C1183.53 76.8739 1183.54 76.7835 1183.54 76.6931C1183.54 76.4882 1183.51 76.3085 1183.44 76.1538C1183.37 75.9992 1183.28 75.8686 1183.15 75.7622C1183.03 75.6577 1182.88 75.5794 1182.71 75.5272C1182.53 75.473 1182.34 75.4458 1182.14 75.4458C1181.94 75.4458 1181.75 75.476 1181.58 75.5362C1181.41 75.5965 1181.26 75.6798 1181.14 75.7863C1181.01 75.8947 1180.92 76.0223 1180.85 76.1689C1180.78 76.3155 1180.74 76.4762 1180.74 76.6509H1181.46C1181.46 76.5565 1181.48 76.4712 1181.51 76.3948C1181.55 76.3185 1181.6 76.2533 1181.66 76.199C1181.72 76.1448 1181.79 76.1036 1181.87 76.0755C1181.96 76.0454 1182.05 76.0303 1182.15 76.0303C1182.26 76.0303 1182.35 76.0454 1182.44 76.0755C1182.53 76.1056 1182.6 76.1478 1182.65 76.202C1182.71 76.2603 1182.75 76.3306 1182.78 76.4129C1182.81 76.4953 1182.82 76.5887 1182.82 76.6931C1182.82 76.7895 1182.81 76.8799 1182.78 76.9642C1182.75 77.0466 1182.7 77.1159 1182.64 77.1721C1182.58 77.2364 1182.5 77.2866 1182.41 77.3228C1182.31 77.3569 1182.2 77.374 1182.07 77.374H1181.64ZM1187.37 79.8926V79.3111H1185.33L1186.31 78.2687C1186.44 78.1322 1186.55 77.9996 1186.66 77.8711C1186.77 77.7425 1186.87 77.615 1186.95 77.4885C1187.03 77.3619 1187.09 77.2344 1187.13 77.1058C1187.18 76.9753 1187.2 76.8407 1187.2 76.7021C1187.2 76.5174 1187.17 76.3487 1187.11 76.196C1187.05 76.0414 1186.96 75.9088 1186.85 75.7983C1186.73 75.6879 1186.59 75.6015 1186.42 75.5392C1186.25 75.477 1186.06 75.4458 1185.84 75.4458C1185.61 75.4458 1185.41 75.483 1185.22 75.5573C1185.04 75.6316 1184.88 75.7321 1184.75 75.8586C1184.62 75.9851 1184.52 76.1337 1184.45 76.3045C1184.38 76.4732 1184.34 76.6529 1184.34 76.8437H1185.07C1185.07 76.7172 1185.08 76.6047 1185.11 76.5063C1185.15 76.4059 1185.19 76.3215 1185.26 76.2533C1185.32 76.185 1185.4 76.1327 1185.49 76.0966C1185.59 76.0604 1185.7 76.0424 1185.83 76.0424C1185.93 76.0424 1186.02 76.0594 1186.1 76.0936C1186.18 76.1277 1186.25 76.1749 1186.31 76.2352C1186.37 76.2954 1186.41 76.3677 1186.44 76.4521C1186.47 76.5364 1186.49 76.6298 1186.49 76.7323C1186.49 76.8086 1186.48 76.8849 1186.46 76.9612C1186.43 77.0355 1186.4 77.1159 1186.35 77.2022C1186.3 77.2886 1186.24 77.384 1186.16 77.4885C1186.08 77.5909 1185.98 77.7074 1185.86 77.8379L1184.43 79.3925V79.8926H1187.37ZM1190.24 79.8926V75.5061H1190.19L1188.39 76.1749V76.8106L1189.51 76.3979V79.8926H1190.24ZM1194.72 76.663C1194.72 76.4682 1194.69 76.2954 1194.62 76.1448C1194.55 75.9942 1194.46 75.8666 1194.34 75.7622C1194.22 75.6577 1194.08 75.5794 1193.91 75.5272C1193.75 75.473 1193.57 75.4458 1193.38 75.4458C1193.18 75.4458 1193 75.473 1192.84 75.5272C1192.67 75.5794 1192.53 75.6577 1192.42 75.7622C1192.3 75.8666 1192.21 75.9942 1192.14 76.1448C1192.07 76.2954 1192.04 76.4682 1192.04 76.663C1192.04 76.7714 1192.05 76.8749 1192.08 76.9733C1192.11 77.0717 1192.16 77.1621 1192.21 77.2444C1192.26 77.3248 1192.32 77.3981 1192.4 77.4644C1192.48 77.5306 1192.56 77.5869 1192.65 77.6331C1192.54 77.6833 1192.45 77.7445 1192.36 77.8168C1192.27 77.8871 1192.2 77.9665 1192.13 78.0548C1192.07 78.1472 1192.02 78.2477 1191.99 78.3561C1191.96 78.4646 1191.94 78.579 1191.94 78.6996C1191.94 78.9044 1191.98 79.0852 1192.05 79.2418C1192.12 79.3965 1192.23 79.526 1192.36 79.6305C1192.49 79.7369 1192.64 79.8173 1192.81 79.8715C1192.99 79.9257 1193.18 79.9528 1193.38 79.9528C1193.59 79.9528 1193.77 79.9257 1193.95 79.8715C1194.12 79.8173 1194.27 79.7369 1194.4 79.6305C1194.53 79.526 1194.63 79.3955 1194.71 79.2388C1194.78 79.0822 1194.82 78.9024 1194.82 78.6996C1194.82 78.557 1194.8 78.4244 1194.75 78.3019C1194.7 78.1794 1194.64 78.0699 1194.56 77.9735C1194.5 77.9012 1194.43 77.8379 1194.35 77.7837C1194.28 77.7275 1194.19 77.6783 1194.1 77.6361C1194.18 77.5979 1194.25 77.5537 1194.31 77.5035C1194.37 77.4533 1194.43 77.3991 1194.47 77.3408C1194.55 77.2505 1194.61 77.148 1194.66 77.0335C1194.7 76.9191 1194.72 76.7955 1194.72 76.663ZM1194.1 78.6604C1194.1 78.7729 1194.08 78.8733 1194.04 78.9617C1194.01 79.048 1193.96 79.1223 1193.9 79.1846C1193.83 79.2449 1193.76 79.291 1193.67 79.3232C1193.58 79.3553 1193.49 79.3714 1193.38 79.3714C1193.28 79.3714 1193.18 79.3563 1193.09 79.3262C1193 79.2941 1192.93 79.2489 1192.86 79.1906C1192.8 79.1304 1192.75 79.0561 1192.72 78.9677C1192.68 78.8773 1192.66 78.7749 1192.66 78.6604C1192.66 78.5519 1192.68 78.4535 1192.71 78.3651C1192.75 78.2748 1192.79 78.1964 1192.86 78.1302C1192.92 78.0679 1192.99 78.0197 1193.08 77.9855C1193.17 77.9514 1193.27 77.9343 1193.38 77.9343C1193.48 77.9343 1193.58 77.9514 1193.67 77.9855C1193.76 78.0197 1193.84 78.0679 1193.9 78.1302C1193.96 78.1964 1194.01 78.2748 1194.04 78.3651C1194.08 78.4535 1194.1 78.5519 1194.1 78.6604ZM1194 76.6901C1194 76.7885 1193.99 76.8789 1193.96 76.9612C1193.93 77.0416 1193.89 77.1109 1193.83 77.1691C1193.78 77.2253 1193.71 77.2695 1193.64 77.3017C1193.56 77.3338 1193.48 77.3499 1193.38 77.3499C1193.29 77.3499 1193.2 77.3338 1193.13 77.3017C1193.05 77.2695 1192.98 77.2253 1192.93 77.1691C1192.87 77.1109 1192.83 77.0416 1192.8 76.9612C1192.77 76.8789 1192.76 76.7885 1192.76 76.6901C1192.76 76.5897 1192.77 76.4983 1192.8 76.4159C1192.83 76.3336 1192.87 76.2643 1192.93 76.2081C1192.98 76.1518 1193.04 76.1086 1193.12 76.0785C1193.19 76.0464 1193.28 76.0303 1193.38 76.0303C1193.47 76.0303 1193.55 76.0464 1193.63 76.0785C1193.71 76.1106 1193.77 76.1558 1193.83 76.2141C1193.88 76.2723 1193.93 76.3416 1193.96 76.422C1193.99 76.5023 1194 76.5917 1194 76.6901ZM1196.46 77.374V77.9404H1196.89C1197.02 77.9404 1197.13 77.9554 1197.23 77.9855C1197.33 78.0137 1197.42 78.0568 1197.49 78.1151C1197.56 78.1753 1197.62 78.2507 1197.66 78.341C1197.69 78.4314 1197.71 78.5399 1197.71 78.6664C1197.71 78.7789 1197.7 78.8793 1197.66 78.9677C1197.63 79.054 1197.58 79.1264 1197.52 79.1846C1197.46 79.2469 1197.38 79.2941 1197.28 79.3262C1197.19 79.3563 1197.09 79.3714 1196.97 79.3714C1196.86 79.3714 1196.76 79.3553 1196.67 79.3232C1196.58 79.291 1196.51 79.2459 1196.44 79.1876C1196.38 79.1314 1196.32 79.0631 1196.29 78.9827C1196.25 78.9004 1196.24 78.811 1196.24 78.7146H1195.52C1195.52 78.9195 1195.56 79.0992 1195.63 79.2539C1195.72 79.4065 1195.82 79.5351 1195.95 79.6395C1196.09 79.744 1196.24 79.8223 1196.42 79.8745C1196.59 79.9267 1196.77 79.9528 1196.96 79.9528C1197.17 79.9528 1197.36 79.9247 1197.54 79.8685C1197.72 79.8102 1197.88 79.7259 1198.01 79.6154C1198.14 79.507 1198.24 79.3734 1198.32 79.2147C1198.4 79.054 1198.43 78.8713 1198.43 78.6664C1198.43 78.5559 1198.42 78.4495 1198.39 78.3471C1198.37 78.2426 1198.33 78.1452 1198.27 78.0548C1198.21 77.9665 1198.13 77.8871 1198.04 77.8168C1197.95 77.7445 1197.84 77.6863 1197.71 77.6421C1197.82 77.5919 1197.92 77.5306 1198 77.4583C1198.08 77.386 1198.15 77.3087 1198.2 77.2263C1198.26 77.142 1198.3 77.0546 1198.33 76.9642C1198.35 76.8739 1198.37 76.7835 1198.37 76.6931C1198.37 76.4882 1198.33 76.3085 1198.26 76.1538C1198.2 75.9992 1198.1 75.8686 1197.98 75.7622C1197.85 75.6577 1197.7 75.5794 1197.53 75.5272C1197.36 75.473 1197.17 75.4458 1196.96 75.4458C1196.76 75.4458 1196.57 75.476 1196.4 75.5362C1196.23 75.5965 1196.08 75.6798 1195.96 75.7863C1195.84 75.8947 1195.74 76.0223 1195.67 76.1689C1195.6 76.3155 1195.56 76.4762 1195.56 76.6509H1196.28C1196.28 76.5565 1196.3 76.4712 1196.33 76.3948C1196.37 76.3185 1196.42 76.2533 1196.48 76.199C1196.54 76.1448 1196.61 76.1036 1196.7 76.0755C1196.78 76.0454 1196.87 76.0303 1196.97 76.0303C1197.08 76.0303 1197.18 76.0454 1197.26 76.0755C1197.35 76.1056 1197.42 76.1478 1197.48 76.202C1197.53 76.2603 1197.57 76.3306 1197.6 76.4129C1197.63 76.4953 1197.65 76.5887 1197.65 76.6931C1197.65 76.7895 1197.63 76.8799 1197.6 76.9642C1197.57 77.0466 1197.52 77.1159 1197.47 77.1721C1197.4 77.2364 1197.32 77.2866 1197.23 77.3228C1197.13 77.3569 1197.02 77.374 1196.89 77.374H1196.46ZM1202.22 78.2205V77.1812C1202.22 76.9 1202.18 76.6519 1202.12 76.437C1202.05 76.2201 1201.96 76.0373 1201.84 75.8887C1201.71 75.7421 1201.56 75.6316 1201.39 75.5573C1201.21 75.481 1201.01 75.4428 1200.79 75.4428C1200.57 75.4428 1200.37 75.481 1200.19 75.5573C1200.02 75.6316 1199.87 75.7421 1199.75 75.8887C1199.62 76.0373 1199.53 76.2201 1199.46 76.437C1199.4 76.6519 1199.37 76.9 1199.37 77.1812V78.2205C1199.37 78.5017 1199.4 78.7508 1199.46 78.9677C1199.53 79.1826 1199.63 79.3633 1199.75 79.51C1199.87 79.6566 1200.02 79.7681 1200.2 79.8444C1200.38 79.9187 1200.57 79.9558 1200.8 79.9558C1201.02 79.9558 1201.22 79.9187 1201.39 79.8444C1201.57 79.7681 1201.72 79.6566 1201.84 79.51C1201.96 79.3633 1202.05 79.1826 1202.12 78.9677C1202.18 78.7508 1202.22 78.5017 1202.22 78.2205ZM1200.09 77.9645C1200.09 77.9062 1200.09 77.857 1200.09 77.8168C1200.09 77.7767 1200.09 77.7184 1200.09 77.6421V77.0516C1200.09 76.8709 1200.11 76.7142 1200.14 76.5816C1200.17 76.4471 1200.22 76.3376 1200.29 76.2533C1200.34 76.1789 1200.41 76.1227 1200.5 76.0845C1200.58 76.0464 1200.68 76.0273 1200.79 76.0273C1200.89 76.0273 1200.99 76.0434 1201.07 76.0755C1201.15 76.1076 1201.22 76.1558 1201.27 76.2201C1201.34 76.2924 1201.38 76.3858 1201.42 76.5003C1201.46 76.6148 1201.48 76.7503 1201.49 76.907L1200.09 77.9645ZM1201.49 78.341C1201.49 78.5258 1201.48 78.6865 1201.44 78.8231C1201.41 78.9596 1201.36 79.0701 1201.29 79.1545C1201.23 79.2268 1201.16 79.282 1201.08 79.3202C1201 79.3563 1200.9 79.3744 1200.8 79.3744C1200.68 79.3744 1200.59 79.3553 1200.5 79.3172C1200.42 79.279 1200.35 79.2218 1200.3 79.1454C1200.24 79.0751 1200.19 78.9868 1200.16 78.8803C1200.13 78.7739 1200.11 78.6514 1200.1 78.5128L1201.49 77.4613C1201.49 77.5196 1201.49 77.5758 1201.49 77.63C1201.49 77.6823 1201.49 77.7345 1201.49 77.7867V78.341Z" fill="#2E3539"/>
<path d="M1164.85 86.9856H1164.8V87.6002H1164.86C1165.23 87.6002 1165.56 87.545 1165.82 87.4345C1166.09 87.324 1166.31 87.1724 1166.47 86.9796C1166.68 86.7446 1166.82 86.4704 1166.9 86.1571C1166.98 85.8438 1167.02 85.5144 1167.02 85.169V84.9159C1167.02 84.6648 1166.99 84.4258 1166.92 84.1989C1166.85 83.9699 1166.76 83.7751 1166.63 83.6144C1166.5 83.4658 1166.35 83.3483 1166.18 83.2619C1166 83.1756 1165.8 83.1324 1165.58 83.1324C1165.35 83.1324 1165.15 83.1735 1164.97 83.2559C1164.8 83.3362 1164.65 83.4457 1164.53 83.5843C1164.41 83.7249 1164.32 83.8886 1164.25 84.0753C1164.19 84.2601 1164.16 84.458 1164.16 84.6688C1164.16 84.8617 1164.19 85.0474 1164.24 85.2262C1164.29 85.4029 1164.37 85.5596 1164.48 85.6962C1164.58 85.8307 1164.71 85.9382 1164.87 86.0185C1165.03 86.0989 1165.21 86.139 1165.42 86.139C1165.53 86.139 1165.62 86.129 1165.71 86.1089C1165.8 86.0888 1165.88 86.0617 1165.95 86.0276C1166.02 85.9954 1166.08 85.9583 1166.14 85.9161C1166.2 85.8719 1166.25 85.8247 1166.29 85.7745V85.7896C1166.28 85.9603 1166.24 86.12 1166.18 86.2686C1166.13 86.4152 1166.04 86.5457 1165.92 86.6602C1165.81 86.7647 1165.66 86.845 1165.49 86.9012C1165.31 86.9575 1165.1 86.9856 1164.85 86.9856ZM1165.58 85.5696C1165.46 85.5696 1165.35 85.5445 1165.27 85.4943C1165.18 85.4421 1165.11 85.3738 1165.05 85.2895C1164.99 85.2031 1164.94 85.1047 1164.92 84.9942C1164.89 84.8837 1164.87 84.7683 1164.87 84.6478C1164.87 84.5232 1164.89 84.4047 1164.92 84.2923C1164.95 84.1778 1165 84.0784 1165.06 83.994C1165.12 83.9096 1165.19 83.8434 1165.27 83.7952C1165.36 83.745 1165.46 83.7198 1165.58 83.7198C1165.68 83.7198 1165.77 83.7439 1165.86 83.7922C1165.95 83.8383 1166.02 83.9066 1166.09 83.997C1166.16 84.0874 1166.21 84.1999 1166.25 84.3344C1166.29 84.469 1166.3 84.6237 1166.3 84.7984V85.0484C1166.27 85.1228 1166.24 85.192 1166.19 85.2563C1166.14 85.3186 1166.09 85.3738 1166.02 85.422C1165.96 85.4682 1165.89 85.5044 1165.82 85.5305C1165.74 85.5566 1165.66 85.5696 1165.58 85.5696ZM1170.8 83.5963V83.1926H1167.77V83.7952H1170.04L1168.29 87.5791H1169.05L1170.8 83.5963ZM1174.05 86.0155V83.1926H1173.31L1171.41 86.1571L1171.43 86.6H1173.33V87.5791H1174.05V86.6H1174.6V86.0155H1174.05ZM1172.15 86.0155L1173.24 84.3133L1173.33 84.1567V86.0155H1172.15ZM1177.54 83.1715H1177.45C1177.11 83.1715 1176.81 83.2248 1176.54 83.3312C1176.28 83.4377 1176.05 83.5903 1175.87 83.7891C1175.66 84.0201 1175.51 84.2963 1175.41 84.6176C1175.32 84.937 1175.28 85.2734 1175.28 85.6269V85.9251C1175.28 86.1601 1175.31 86.3841 1175.38 86.597C1175.45 86.8079 1175.55 86.9916 1175.68 87.1483C1175.81 87.2989 1175.96 87.4184 1176.14 87.5068C1176.32 87.5952 1176.53 87.6394 1176.76 87.6394C1176.98 87.6394 1177.18 87.6012 1177.36 87.5249C1177.53 87.4465 1177.68 87.3391 1177.81 87.2025C1177.93 87.0679 1178.02 86.9103 1178.08 86.7295C1178.15 86.5468 1178.18 86.3509 1178.18 86.142C1178.18 85.9512 1178.15 85.7675 1178.1 85.5907C1178.05 85.414 1177.98 85.2573 1177.87 85.1207C1177.77 84.9842 1177.64 84.8757 1177.48 84.7954C1177.32 84.715 1177.14 84.6749 1176.93 84.6749C1176.83 84.6749 1176.73 84.6869 1176.64 84.711C1176.55 84.7331 1176.47 84.7642 1176.39 84.8044C1176.31 84.8426 1176.24 84.8878 1176.18 84.94C1176.12 84.9902 1176.06 85.0424 1176.01 85.0966C1176.03 84.9099 1176.07 84.7351 1176.13 84.5724C1176.2 84.4098 1176.3 84.2702 1176.42 84.1537C1176.54 84.0372 1176.69 83.9468 1176.86 83.8825C1177.04 83.8163 1177.25 83.7831 1177.49 83.7831H1177.54V83.1715ZM1176.75 85.2593C1176.87 85.2593 1176.97 85.2834 1177.06 85.3316C1177.15 85.3778 1177.22 85.4421 1177.28 85.5244C1177.34 85.6068 1177.39 85.7032 1177.42 85.8137C1177.45 85.9221 1177.47 86.0376 1177.47 86.1601C1177.47 86.2887 1177.45 86.4082 1177.42 86.5186C1177.39 86.6271 1177.34 86.7215 1177.28 86.8018C1177.21 86.8802 1177.14 86.9424 1177.05 86.9886C1176.96 87.0328 1176.86 87.0549 1176.75 87.0549C1176.65 87.0549 1176.55 87.0318 1176.46 86.9856C1176.37 86.9394 1176.29 86.8721 1176.22 86.7838C1176.15 86.6954 1176.1 86.5849 1176.06 86.4524C1176.02 86.3198 1176 86.1662 1176 85.9914V85.7685C1176.03 85.6942 1176.07 85.6269 1176.12 85.5666C1176.17 85.5064 1176.23 85.4531 1176.29 85.407C1176.35 85.3608 1176.42 85.3246 1176.5 85.2985C1176.58 85.2724 1176.66 85.2593 1176.75 85.2593ZM1179.67 86.9856H1179.62V87.6002H1179.68C1180.06 87.6002 1180.38 87.545 1180.64 87.4345C1180.91 87.324 1181.13 87.1724 1181.3 86.9796C1181.5 86.7446 1181.64 86.4704 1181.72 86.1571C1181.8 85.8438 1181.84 85.5144 1181.84 85.169V84.9159C1181.84 84.6648 1181.81 84.4258 1181.74 84.1989C1181.68 83.9699 1181.58 83.7751 1181.45 83.6144C1181.33 83.4658 1181.18 83.3483 1181 83.2619C1180.83 83.1756 1180.62 83.1324 1180.4 83.1324C1180.17 83.1324 1179.97 83.1735 1179.8 83.2559C1179.62 83.3362 1179.47 83.4457 1179.35 83.5843C1179.23 83.7249 1179.14 83.8886 1179.08 84.0753C1179.01 84.2601 1178.98 84.458 1178.98 84.6688C1178.98 84.8617 1179.01 85.0474 1179.06 85.2262C1179.11 85.4029 1179.19 85.5596 1179.3 85.6962C1179.4 85.8307 1179.53 85.9382 1179.69 86.0185C1179.85 86.0989 1180.03 86.139 1180.25 86.139C1180.35 86.139 1180.45 86.129 1180.53 86.1089C1180.62 86.0888 1180.7 86.0617 1180.77 86.0276C1180.84 85.9954 1180.9 85.9583 1180.96 85.9161C1181.02 85.8719 1181.07 85.8247 1181.11 85.7745V85.7896C1181.1 85.9603 1181.06 86.12 1181.01 86.2686C1180.95 86.4152 1180.86 86.5457 1180.74 86.6602C1180.63 86.7647 1180.49 86.845 1180.31 86.9012C1180.14 86.9575 1179.92 86.9856 1179.67 86.9856ZM1180.4 85.5696C1180.28 85.5696 1180.18 85.5445 1180.09 85.4943C1180 85.4421 1179.93 85.3738 1179.87 85.2895C1179.81 85.2031 1179.77 85.1047 1179.74 84.9942C1179.71 84.8837 1179.7 84.7683 1179.7 84.6478C1179.7 84.5232 1179.71 84.4047 1179.74 84.2923C1179.77 84.1778 1179.82 84.0784 1179.88 83.994C1179.94 83.9096 1180.01 83.8434 1180.1 83.7952C1180.18 83.745 1180.29 83.7198 1180.4 83.7198C1180.5 83.7198 1180.59 83.7439 1180.68 83.7922C1180.77 83.8383 1180.85 83.9066 1180.91 83.997C1180.98 84.0874 1181.03 84.1999 1181.07 84.3344C1181.11 84.469 1181.13 84.6237 1181.13 84.7984V85.0484C1181.1 85.1228 1181.06 85.192 1181.01 85.2563C1180.96 85.3186 1180.91 85.3738 1180.85 85.422C1180.78 85.4682 1180.72 85.5044 1180.64 85.5305C1180.56 85.5566 1180.49 85.5696 1180.4 85.5696ZM1185.59 87.5791V86.9977H1183.55L1184.52 85.9553C1184.65 85.8187 1184.77 85.6861 1184.88 85.5576C1184.99 85.429 1185.08 85.3015 1185.16 85.175C1185.24 85.0484 1185.3 84.9209 1185.35 84.7924C1185.39 84.6618 1185.42 84.5272 1185.42 84.3887C1185.42 84.2039 1185.39 84.0352 1185.33 83.8825C1185.27 83.7279 1185.18 83.5953 1185.06 83.4849C1184.95 83.3744 1184.8 83.288 1184.63 83.2258C1184.46 83.1635 1184.27 83.1324 1184.06 83.1324C1183.83 83.1324 1183.62 83.1695 1183.43 83.2438C1183.25 83.3182 1183.09 83.4186 1182.96 83.5451C1182.83 83.6716 1182.73 83.8203 1182.66 83.991C1182.59 84.1597 1182.56 84.3395 1182.56 84.5303H1183.28C1183.28 84.4037 1183.3 84.2913 1183.33 84.1928C1183.36 84.0924 1183.41 84.0081 1183.47 83.9398C1183.54 83.8715 1183.61 83.8193 1183.71 83.7831C1183.8 83.747 1183.91 83.7289 1184.04 83.7289C1184.14 83.7289 1184.23 83.746 1184.31 83.7801C1184.4 83.8142 1184.47 83.8614 1184.53 83.9217C1184.58 83.982 1184.63 84.0543 1184.66 84.1386C1184.69 84.223 1184.7 84.3164 1184.7 84.4188C1184.7 84.4951 1184.69 84.5714 1184.67 84.6478C1184.65 84.7221 1184.62 84.8024 1184.57 84.8888C1184.52 84.9751 1184.45 85.0705 1184.37 85.175C1184.29 85.2774 1184.19 85.3939 1184.07 85.5244L1182.65 87.079V87.5791H1185.59ZM1188.65 83.1715H1188.57C1188.23 83.1715 1187.92 83.2248 1187.66 83.3312C1187.39 83.4377 1187.17 83.5903 1186.99 83.7891C1186.78 84.0201 1186.62 84.2963 1186.53 84.6176C1186.44 84.937 1186.4 85.2734 1186.4 85.6269V85.9251C1186.4 86.1601 1186.43 86.3841 1186.5 86.597C1186.57 86.8079 1186.67 86.9916 1186.8 87.1483C1186.92 87.2989 1187.08 87.4184 1187.26 87.5068C1187.44 87.5952 1187.64 87.6394 1187.88 87.6394C1188.1 87.6394 1188.3 87.6012 1188.47 87.5249C1188.65 87.4465 1188.8 87.3391 1188.92 87.2025C1189.04 87.0679 1189.14 86.9103 1189.2 86.7295C1189.26 86.5468 1189.29 86.3509 1189.29 86.142C1189.29 85.9512 1189.27 85.7675 1189.22 85.5907C1189.17 85.414 1189.09 85.2573 1188.99 85.1207C1188.89 84.9842 1188.76 84.8757 1188.6 84.7954C1188.44 84.715 1188.26 84.6749 1188.04 84.6749C1187.94 84.6749 1187.85 84.6869 1187.76 84.711C1187.67 84.7331 1187.58 84.7642 1187.51 84.8044C1187.43 84.8426 1187.36 84.8878 1187.3 84.94C1187.23 84.9902 1187.18 85.0424 1187.13 85.0966C1187.14 84.9099 1187.19 84.7351 1187.25 84.5724C1187.32 84.4098 1187.42 84.2702 1187.54 84.1537C1187.66 84.0372 1187.81 83.9468 1187.98 83.8825C1188.16 83.8163 1188.37 83.7831 1188.6 83.7831H1188.65V83.1715ZM1187.87 85.2593C1187.98 85.2593 1188.09 85.2834 1188.17 85.3316C1188.26 85.3778 1188.34 85.4421 1188.4 85.5244C1188.46 85.6068 1188.5 85.7032 1188.54 85.8137C1188.57 85.9221 1188.58 86.0376 1188.58 86.1601C1188.58 86.2887 1188.57 86.4082 1188.54 86.5186C1188.5 86.6271 1188.46 86.7215 1188.39 86.8018C1188.33 86.8802 1188.26 86.9424 1188.17 86.9886C1188.08 87.0328 1187.98 87.0549 1187.87 87.0549C1187.76 87.0549 1187.67 87.0318 1187.58 86.9856C1187.49 86.9394 1187.41 86.8721 1187.34 86.7838C1187.27 86.6954 1187.22 86.5849 1187.18 86.4524C1187.14 86.3198 1187.12 86.1662 1187.12 85.9914V85.7685C1187.15 85.6942 1187.19 85.6269 1187.24 85.5666C1187.29 85.5064 1187.34 85.4531 1187.4 85.407C1187.47 85.3608 1187.54 85.3246 1187.62 85.2985C1187.7 85.2724 1187.78 85.2593 1187.87 85.2593ZM1192.16 87.5791V83.1926H1192.11L1190.31 83.8614V84.4971L1191.43 84.0844V87.5791H1192.16Z" fill="#2E3539"/>
<path d="M1160.68 95.2656V90.8792H1160.63L1158.83 91.548V92.1836L1159.95 91.7709V95.2656H1160.68ZM1165.25 93.5936V92.5542C1165.25 92.273 1165.21 92.025 1165.15 91.8101C1165.08 91.5932 1164.99 91.4104 1164.87 91.2618C1164.74 91.1151 1164.59 91.0047 1164.41 90.9304C1164.24 90.854 1164.04 90.8159 1163.82 90.8159C1163.6 90.8159 1163.4 90.854 1163.22 90.9304C1163.05 91.0047 1162.9 91.1151 1162.77 91.2618C1162.65 91.4104 1162.56 91.5932 1162.49 91.8101C1162.43 92.025 1162.4 92.273 1162.4 92.5542V93.5936C1162.4 93.8748 1162.43 94.1238 1162.49 94.3407C1162.56 94.5556 1162.65 94.7364 1162.78 94.883C1162.9 95.0296 1163.05 95.1411 1163.23 95.2174C1163.4 95.2917 1163.6 95.3289 1163.82 95.3289C1164.05 95.3289 1164.25 95.2917 1164.42 95.2174C1164.6 95.1411 1164.75 95.0296 1164.87 94.883C1164.99 94.7364 1165.08 94.5556 1165.15 94.3407C1165.21 94.1238 1165.25 93.8748 1165.25 93.5936ZM1163.12 93.3375C1163.12 93.2793 1163.12 93.2301 1163.12 93.1899C1163.12 93.1497 1163.12 93.0915 1163.12 93.0151V92.4247C1163.12 92.2439 1163.13 92.0872 1163.17 91.9547C1163.2 91.8201 1163.25 91.7107 1163.31 91.6263C1163.37 91.552 1163.44 91.4957 1163.53 91.4576C1163.61 91.4194 1163.71 91.4003 1163.82 91.4003C1163.92 91.4003 1164.01 91.4164 1164.09 91.4485C1164.17 91.4807 1164.24 91.5289 1164.3 91.5932C1164.36 91.6655 1164.41 91.7589 1164.45 91.8733C1164.48 91.9878 1164.51 92.1234 1164.51 92.2801L1163.12 93.3375ZM1164.52 93.7141C1164.52 93.8989 1164.5 94.0595 1164.47 94.1961C1164.44 94.3327 1164.39 94.4432 1164.32 94.5275C1164.26 94.5998 1164.19 94.6551 1164.11 94.6932C1164.03 94.7294 1163.93 94.7474 1163.82 94.7474C1163.71 94.7474 1163.62 94.7284 1163.53 94.6902C1163.45 94.652 1163.38 94.5948 1163.32 94.5185C1163.27 94.4482 1163.22 94.3598 1163.19 94.2534C1163.16 94.1469 1163.13 94.0244 1163.12 93.8858L1164.52 92.8344C1164.52 92.8926 1164.52 92.9489 1164.52 93.0031C1164.52 93.0553 1164.52 93.1075 1164.52 93.1598V93.7141ZM1168.09 95.2656V90.8792H1168.04L1166.24 91.548V92.1836L1167.36 91.7709V95.2656H1168.09ZM1171.79 95.2656V90.8792H1171.75L1169.94 91.548V92.1836L1171.07 91.7709V95.2656H1171.79ZM1176.28 92.036C1176.28 91.8412 1176.24 91.6685 1176.18 91.5178C1176.11 91.3672 1176.02 91.2397 1175.9 91.1352C1175.77 91.0308 1175.63 90.9525 1175.47 90.9002C1175.3 90.846 1175.12 90.8189 1174.93 90.8189C1174.74 90.8189 1174.56 90.846 1174.39 90.9002C1174.23 90.9525 1174.09 91.0308 1173.97 91.1352C1173.85 91.2397 1173.76 91.3672 1173.69 91.5178C1173.63 91.6685 1173.59 91.8412 1173.59 92.036C1173.59 92.1445 1173.61 92.2479 1173.64 92.3463C1173.67 92.4447 1173.71 92.5351 1173.77 92.6175C1173.82 92.6978 1173.88 92.7711 1173.96 92.8374C1174.03 92.9037 1174.12 92.9599 1174.21 93.0061C1174.1 93.0563 1174 93.1176 1173.91 93.1899C1173.83 93.2602 1173.75 93.3395 1173.69 93.4279C1173.63 93.5203 1173.58 93.6207 1173.55 93.7292C1173.51 93.8376 1173.5 93.9521 1173.5 94.0726C1173.5 94.2775 1173.53 94.4582 1173.61 94.6149C1173.68 94.7695 1173.78 94.8991 1173.91 95.0035C1174.04 95.11 1174.19 95.1903 1174.37 95.2445C1174.54 95.2988 1174.74 95.3259 1174.94 95.3259C1175.14 95.3259 1175.33 95.2988 1175.5 95.2445C1175.68 95.1903 1175.83 95.11 1175.96 95.0035C1176.09 94.8991 1176.19 94.7685 1176.26 94.6119C1176.34 94.4552 1176.37 94.2755 1176.37 94.0726C1176.37 93.93 1176.35 93.7974 1176.3 93.6749C1176.26 93.5524 1176.19 93.4429 1176.11 93.3465C1176.05 93.2742 1175.99 93.211 1175.91 93.1567C1175.83 93.1005 1175.75 93.0513 1175.66 93.0091C1175.73 92.971 1175.8 92.9268 1175.87 92.8766C1175.93 92.8264 1175.98 92.7721 1176.03 92.7139C1176.11 92.6235 1176.17 92.5211 1176.21 92.4066C1176.26 92.2921 1176.28 92.1686 1176.28 92.036ZM1175.65 94.0334C1175.65 94.1459 1175.64 94.2463 1175.6 94.3347C1175.56 94.4211 1175.51 94.4954 1175.45 94.5576C1175.39 94.6179 1175.31 94.6641 1175.23 94.6962C1175.14 94.7284 1175.04 94.7444 1174.94 94.7444C1174.83 94.7444 1174.73 94.7294 1174.64 94.6992C1174.56 94.6671 1174.48 94.6219 1174.42 94.5637C1174.35 94.5034 1174.31 94.4291 1174.27 94.3407C1174.24 94.2503 1174.22 94.1479 1174.22 94.0334C1174.22 93.925 1174.24 93.8266 1174.27 93.7382C1174.3 93.6478 1174.35 93.5695 1174.41 93.5032C1174.48 93.4409 1174.55 93.3927 1174.64 93.3586C1174.72 93.3244 1174.82 93.3074 1174.93 93.3074C1175.04 93.3074 1175.14 93.3244 1175.23 93.3586C1175.31 93.3927 1175.39 93.4409 1175.46 93.5032C1175.52 93.5695 1175.57 93.6478 1175.6 93.7382C1175.64 93.8266 1175.65 93.925 1175.65 94.0334ZM1175.56 92.0631C1175.56 92.1616 1175.55 92.2519 1175.52 92.3343C1175.49 92.4146 1175.44 92.4839 1175.39 92.5422C1175.33 92.5984 1175.27 92.6426 1175.19 92.6747C1175.12 92.7068 1175.03 92.7229 1174.94 92.7229C1174.84 92.7229 1174.76 92.7068 1174.68 92.6747C1174.6 92.6426 1174.54 92.5984 1174.49 92.5422C1174.43 92.4839 1174.39 92.4146 1174.36 92.3343C1174.33 92.2519 1174.32 92.1616 1174.32 92.0631C1174.32 91.9627 1174.33 91.8713 1174.36 91.789C1174.39 91.7066 1174.43 91.6373 1174.48 91.5811C1174.53 91.5249 1174.6 91.4817 1174.67 91.4516C1174.75 91.4194 1174.83 91.4034 1174.93 91.4034C1175.03 91.4034 1175.11 91.4194 1175.19 91.4516C1175.26 91.4837 1175.33 91.5289 1175.39 91.5871C1175.44 91.6454 1175.48 91.7147 1175.51 91.795C1175.54 91.8753 1175.56 91.9647 1175.56 92.0631ZM1180.08 91.2829V90.8792H1177.05V91.4817H1179.32L1177.57 95.2656H1178.33L1180.08 91.2829ZM1182.91 95.2656V90.8792H1182.86L1181.06 91.548V92.1836L1182.18 91.7709V95.2656H1182.91ZM1185.43 92.747V93.3134H1185.86C1185.98 93.3134 1186.1 93.3285 1186.2 93.3586C1186.3 93.3867 1186.39 93.4299 1186.46 93.4881C1186.53 93.5484 1186.59 93.6237 1186.62 93.7141C1186.66 93.8045 1186.68 93.9129 1186.68 94.0395C1186.68 94.1519 1186.66 94.2524 1186.63 94.3407C1186.6 94.4271 1186.55 94.4994 1186.49 94.5576C1186.42 94.6199 1186.34 94.6671 1186.25 94.6992C1186.16 94.7294 1186.05 94.7444 1185.94 94.7444C1185.83 94.7444 1185.73 94.7284 1185.64 94.6962C1185.55 94.6641 1185.47 94.6189 1185.41 94.5607C1185.34 94.5044 1185.29 94.4361 1185.26 94.3558C1185.22 94.2734 1185.2 94.1841 1185.2 94.0877H1184.48C1184.48 94.2925 1184.52 94.4723 1184.6 94.6269C1184.68 94.7796 1184.79 94.9081 1184.92 95.0126C1185.05 95.117 1185.21 95.1953 1185.38 95.2475C1185.56 95.2998 1185.74 95.3259 1185.93 95.3259C1186.14 95.3259 1186.33 95.2978 1186.51 95.2415C1186.69 95.1833 1186.85 95.0989 1186.98 94.9885C1187.11 94.88 1187.21 94.7464 1187.29 94.5878C1187.36 94.4271 1187.4 94.2443 1187.4 94.0395C1187.4 93.929 1187.39 93.8225 1187.36 93.7201C1187.34 93.6157 1187.29 93.5183 1187.23 93.4279C1187.18 93.3395 1187.1 93.2602 1187.01 93.1899C1186.92 93.1176 1186.81 93.0593 1186.68 93.0151C1186.79 92.9649 1186.88 92.9037 1186.97 92.8314C1187.05 92.7591 1187.12 92.6817 1187.17 92.5994C1187.23 92.515 1187.27 92.4277 1187.29 92.3373C1187.32 92.2469 1187.33 92.1565 1187.33 92.0661C1187.33 91.8613 1187.3 91.6815 1187.23 91.5269C1187.16 91.3722 1187.07 91.2417 1186.94 91.1352C1186.82 91.0308 1186.67 90.9525 1186.5 90.9002C1186.32 90.846 1186.13 90.8189 1185.93 90.8189C1185.72 90.8189 1185.54 90.849 1185.37 90.9093C1185.2 90.9695 1185.05 91.0529 1184.93 91.1593C1184.8 91.2678 1184.71 91.3953 1184.64 91.5419C1184.56 91.6886 1184.53 91.8492 1184.53 92.024H1185.25C1185.25 91.9296 1185.27 91.8442 1185.3 91.7679C1185.34 91.6916 1185.39 91.6263 1185.45 91.5721C1185.51 91.5178 1185.58 91.4767 1185.66 91.4485C1185.75 91.4184 1185.84 91.4034 1185.94 91.4034C1186.05 91.4034 1186.14 91.4184 1186.23 91.4485C1186.32 91.4787 1186.39 91.5209 1186.44 91.5751C1186.5 91.6333 1186.54 91.7036 1186.57 91.786C1186.6 91.8683 1186.61 91.9617 1186.61 92.0661C1186.61 92.1626 1186.6 92.2529 1186.57 92.3373C1186.54 92.4196 1186.49 92.4889 1186.43 92.5452C1186.37 92.6094 1186.29 92.6596 1186.2 92.6958C1186.1 92.7299 1185.99 92.747 1185.86 92.747H1185.43ZM1188.48 93.0905L1189.05 93.2321C1189.09 93.1959 1189.13 93.1628 1189.17 93.1326C1189.21 93.1005 1189.26 93.0724 1189.31 93.0483C1189.36 93.0262 1189.41 93.0081 1189.48 92.9941C1189.54 92.98 1189.62 92.973 1189.7 92.973C1189.83 92.973 1189.95 92.9951 1190.05 93.0392C1190.14 93.0814 1190.23 93.1417 1190.29 93.22C1190.36 93.2983 1190.41 93.3907 1190.44 93.4972C1190.47 93.6016 1190.49 93.7171 1190.49 93.8436C1190.49 93.9742 1190.48 94.0957 1190.45 94.2082C1190.42 94.3186 1190.38 94.413 1190.32 94.4914C1190.26 94.5717 1190.19 94.634 1190.1 94.6782C1190.01 94.7223 1189.91 94.7444 1189.79 94.7444C1189.58 94.7444 1189.41 94.6872 1189.28 94.5727C1189.15 94.4582 1189.07 94.2935 1189.05 94.0786H1188.34C1188.36 94.2815 1188.4 94.4612 1188.49 94.6179C1188.57 94.7725 1188.68 94.9021 1188.81 95.0065C1188.94 95.113 1189.09 95.1933 1189.26 95.2475C1189.43 95.2998 1189.6 95.3259 1189.79 95.3259C1190.03 95.3259 1190.24 95.2877 1190.42 95.2114C1190.6 95.1351 1190.75 95.0306 1190.86 94.8981C1190.98 94.7655 1191.07 94.6109 1191.12 94.4341C1191.18 94.2554 1191.21 94.0656 1191.21 93.8647C1191.21 93.6378 1191.18 93.4339 1191.12 93.2531C1191.06 93.0704 1190.97 92.9157 1190.86 92.7892C1190.75 92.6607 1190.61 92.5622 1190.44 92.494C1190.28 92.4257 1190.1 92.3915 1189.89 92.3915C1189.74 92.3915 1189.6 92.4106 1189.48 92.4488C1189.37 92.4869 1189.27 92.5271 1189.2 92.5693L1189.31 91.5178H1191.07V90.8792H1188.72L1188.48 93.0905Z" fill="#2E3539"/>
<path d="M1154.24 102.359H1154.18V102.973H1154.24C1154.62 102.973 1154.94 102.918 1155.21 102.808C1155.47 102.697 1155.69 102.545 1155.86 102.353C1156.06 102.118 1156.2 101.843 1156.28 101.53C1156.36 101.217 1156.4 100.887 1156.4 100.542V100.289C1156.4 100.038 1156.37 99.7989 1156.3 99.5719C1156.24 99.3429 1156.14 99.1481 1156.01 98.9874C1155.89 98.8388 1155.74 98.7213 1155.56 98.635C1155.39 98.5486 1155.19 98.5054 1154.96 98.5054C1154.73 98.5054 1154.53 98.5466 1154.36 98.6289C1154.18 98.7093 1154.03 98.8187 1153.91 98.9573C1153.79 99.0979 1153.7 99.2616 1153.64 99.4484C1153.57 99.6332 1153.54 99.831 1153.54 100.042C1153.54 100.235 1153.57 100.42 1153.62 100.599C1153.67 100.776 1153.75 100.933 1153.86 101.069C1153.96 101.204 1154.09 101.311 1154.25 101.392C1154.41 101.472 1154.59 101.512 1154.81 101.512C1154.91 101.512 1155.01 101.502 1155.09 101.482C1155.18 101.462 1155.26 101.435 1155.33 101.401C1155.4 101.368 1155.47 101.331 1155.52 101.289C1155.58 101.245 1155.63 101.198 1155.68 101.148V101.163C1155.66 101.333 1155.62 101.493 1155.57 101.642C1155.51 101.788 1155.42 101.919 1155.3 102.033C1155.19 102.138 1155.05 102.218 1154.87 102.274C1154.7 102.331 1154.48 102.359 1154.24 102.359ZM1154.96 100.943C1154.84 100.943 1154.74 100.918 1154.65 100.867C1154.56 100.815 1154.49 100.747 1154.43 100.663C1154.37 100.576 1154.33 100.478 1154.3 100.367C1154.27 100.257 1154.26 100.141 1154.26 100.021C1154.26 99.8963 1154.27 99.7778 1154.3 99.6653C1154.33 99.5508 1154.38 99.4514 1154.44 99.367C1154.5 99.2827 1154.57 99.2164 1154.66 99.1682C1154.75 99.118 1154.85 99.0929 1154.96 99.0929C1155.06 99.0929 1155.15 99.117 1155.24 99.1652C1155.33 99.2114 1155.41 99.2797 1155.47 99.3701C1155.54 99.4604 1155.59 99.5729 1155.63 99.7075C1155.67 99.842 1155.69 99.9967 1155.69 100.171V100.421C1155.66 100.496 1155.62 100.565 1155.57 100.629C1155.52 100.692 1155.47 100.747 1155.41 100.795C1155.34 100.841 1155.28 100.877 1155.2 100.904C1155.12 100.93 1155.05 100.943 1154.96 100.943ZM1159.51 98.5446H1159.42C1159.08 98.5446 1158.78 98.5978 1158.51 98.7043C1158.25 98.8107 1158.02 98.9633 1157.84 99.1622C1157.63 99.3932 1157.48 99.6693 1157.39 99.9907C1157.3 100.31 1157.25 100.646 1157.25 101V101.298C1157.25 101.533 1157.28 101.757 1157.35 101.97C1157.42 102.181 1157.52 102.365 1157.65 102.521C1157.78 102.672 1157.93 102.791 1158.11 102.88C1158.29 102.968 1158.5 103.012 1158.73 103.012C1158.95 103.012 1159.15 102.974 1159.33 102.898C1159.51 102.82 1159.66 102.712 1159.78 102.576C1159.9 102.441 1159.99 102.283 1160.05 102.103C1160.12 101.92 1160.15 101.724 1160.15 101.515C1160.15 101.324 1160.12 101.141 1160.07 100.964C1160.03 100.787 1159.95 100.63 1159.84 100.494C1159.74 100.357 1159.61 100.249 1159.45 100.168C1159.3 100.088 1159.11 100.048 1158.9 100.048C1158.8 100.048 1158.7 100.06 1158.61 100.084C1158.52 100.106 1158.44 100.137 1158.36 100.177C1158.29 100.216 1158.22 100.261 1158.15 100.313C1158.09 100.363 1158.03 100.415 1157.98 100.47C1158 100.283 1158.04 100.108 1158.11 99.9455C1158.17 99.7828 1158.27 99.6432 1158.39 99.5267C1158.51 99.4102 1158.66 99.3198 1158.84 99.2556C1159.01 99.1893 1159.22 99.1562 1159.46 99.1562H1159.51V98.5446ZM1158.72 100.632C1158.84 100.632 1158.94 100.656 1159.03 100.705C1159.12 100.751 1159.19 100.815 1159.25 100.897C1159.31 100.98 1159.36 101.076 1159.39 101.187C1159.42 101.295 1159.44 101.411 1159.44 101.533C1159.44 101.662 1159.42 101.781 1159.39 101.892C1159.36 102 1159.31 102.095 1159.25 102.175C1159.19 102.253 1159.11 102.315 1159.02 102.362C1158.93 102.406 1158.83 102.428 1158.72 102.428C1158.62 102.428 1158.52 102.405 1158.43 102.359C1158.34 102.312 1158.26 102.245 1158.19 102.157C1158.13 102.068 1158.07 101.958 1158.03 101.825C1157.99 101.693 1157.97 101.539 1157.97 101.364V101.142C1158.01 101.067 1158.05 101 1158.09 100.94C1158.14 100.879 1158.2 100.826 1158.26 100.78C1158.32 100.734 1158.4 100.698 1158.47 100.672C1158.55 100.645 1158.63 100.632 1158.72 100.632ZM1163.88 101.28V100.241C1163.88 99.9595 1163.84 99.7115 1163.78 99.4966C1163.71 99.2797 1163.62 99.0969 1163.5 98.9483C1163.37 98.8017 1163.22 98.6912 1163.04 98.6169C1162.87 98.5406 1162.67 98.5024 1162.45 98.5024C1162.23 98.5024 1162.03 98.5406 1161.85 98.6169C1161.68 98.6912 1161.53 98.8017 1161.41 98.9483C1161.28 99.0969 1161.19 99.2797 1161.12 99.4966C1161.06 99.7115 1161.03 99.9595 1161.03 100.241V101.28C1161.03 101.561 1161.06 101.81 1161.12 102.027C1161.19 102.242 1161.28 102.423 1161.41 102.57C1161.53 102.716 1161.68 102.828 1161.86 102.904C1162.03 102.978 1162.23 103.015 1162.45 103.015C1162.68 103.015 1162.88 102.978 1163.05 102.904C1163.23 102.828 1163.38 102.716 1163.5 102.57C1163.62 102.423 1163.71 102.242 1163.78 102.027C1163.84 101.81 1163.88 101.561 1163.88 101.28ZM1161.75 101.024C1161.75 100.966 1161.75 100.917 1161.75 100.876C1161.75 100.836 1161.75 100.778 1161.75 100.702V100.111C1161.75 99.9304 1161.76 99.7738 1161.8 99.6412C1161.83 99.5066 1161.88 99.3972 1161.94 99.3128C1162 99.2385 1162.07 99.1823 1162.16 99.1441C1162.24 99.1059 1162.34 99.0869 1162.45 99.0869C1162.55 99.0869 1162.64 99.1029 1162.72 99.1351C1162.81 99.1672 1162.87 99.2154 1162.93 99.2797C1162.99 99.352 1163.04 99.4454 1163.08 99.5599C1163.11 99.6743 1163.14 99.8099 1163.14 99.9666L1161.75 101.024ZM1163.15 101.401C1163.15 101.585 1163.13 101.746 1163.1 101.883C1163.07 102.019 1163.02 102.13 1162.95 102.214C1162.89 102.286 1162.82 102.342 1162.74 102.38C1162.66 102.416 1162.56 102.434 1162.45 102.434C1162.34 102.434 1162.25 102.415 1162.16 102.377C1162.08 102.339 1162.01 102.281 1161.95 102.205C1161.9 102.135 1161.85 102.046 1161.82 101.94C1161.79 101.833 1161.76 101.711 1161.75 101.572L1163.15 100.521C1163.15 100.579 1163.15 100.635 1163.15 100.69C1163.15 100.742 1163.15 100.794 1163.15 100.846V101.401ZM1165.35 102.359H1165.29V102.973H1165.35C1165.73 102.973 1166.05 102.918 1166.32 102.808C1166.59 102.697 1166.81 102.545 1166.97 102.353C1167.18 102.118 1167.32 101.843 1167.4 101.53C1167.48 101.217 1167.52 100.887 1167.52 100.542V100.289C1167.52 100.038 1167.48 99.7989 1167.42 99.5719C1167.35 99.3429 1167.25 99.1481 1167.13 98.9874C1167 98.8388 1166.85 98.7213 1166.68 98.635C1166.5 98.5486 1166.3 98.5054 1166.07 98.5054C1165.85 98.5054 1165.65 98.5466 1165.47 98.6289C1165.3 98.7093 1165.15 98.8187 1165.03 98.9573C1164.91 99.0979 1164.82 99.2616 1164.75 99.4484C1164.69 99.6332 1164.66 99.831 1164.66 100.042C1164.66 100.235 1164.69 100.42 1164.74 100.599C1164.79 100.776 1164.87 100.933 1164.98 101.069C1165.08 101.204 1165.21 101.311 1165.37 101.392C1165.53 101.472 1165.71 101.512 1165.92 101.512C1166.03 101.512 1166.12 101.502 1166.21 101.482C1166.3 101.462 1166.38 101.435 1166.45 101.401C1166.52 101.368 1166.58 101.331 1166.64 101.289C1166.7 101.245 1166.75 101.198 1166.79 101.148V101.163C1166.78 101.333 1166.74 101.493 1166.68 101.642C1166.63 101.788 1166.54 101.919 1166.42 102.033C1166.31 102.138 1166.16 102.218 1165.99 102.274C1165.81 102.331 1165.6 102.359 1165.35 102.359ZM1166.08 100.943C1165.96 100.943 1165.85 100.918 1165.76 100.867C1165.68 100.815 1165.6 100.747 1165.54 100.663C1165.49 100.576 1165.44 100.478 1165.42 100.367C1165.39 100.257 1165.37 100.141 1165.37 100.021C1165.37 99.8963 1165.39 99.7778 1165.42 99.6653C1165.45 99.5508 1165.5 99.4514 1165.56 99.367C1165.61 99.2827 1165.69 99.2164 1165.77 99.1682C1165.86 99.118 1165.96 99.0929 1166.07 99.0929C1166.18 99.0929 1166.27 99.117 1166.36 99.1652C1166.45 99.2114 1166.52 99.2797 1166.59 99.3701C1166.66 99.4604 1166.71 99.5729 1166.75 99.7075C1166.78 99.842 1166.8 99.9967 1166.8 100.171V100.421C1166.77 100.496 1166.73 100.565 1166.69 100.629C1166.64 100.692 1166.59 100.747 1166.52 100.795C1166.46 100.841 1166.39 100.877 1166.32 100.904C1166.24 100.93 1166.16 100.943 1166.08 100.943ZM1168.58 100.777L1169.16 100.919C1169.2 100.882 1169.23 100.849 1169.27 100.819C1169.32 100.787 1169.36 100.759 1169.41 100.735C1169.46 100.713 1169.52 100.695 1169.58 100.681C1169.64 100.667 1169.72 100.659 1169.8 100.659C1169.94 100.659 1170.05 100.682 1170.15 100.726C1170.25 100.768 1170.33 100.828 1170.4 100.907C1170.46 100.985 1170.51 101.077 1170.54 101.184C1170.58 101.288 1170.59 101.404 1170.59 101.53C1170.59 101.661 1170.58 101.782 1170.55 101.895C1170.52 102.005 1170.48 102.1 1170.42 102.178C1170.36 102.258 1170.29 102.32 1170.2 102.365C1170.11 102.409 1170.01 102.431 1169.89 102.431C1169.68 102.431 1169.52 102.374 1169.38 102.259C1169.25 102.145 1169.17 101.98 1169.15 101.765H1168.45C1168.46 101.968 1168.51 102.148 1168.59 102.304C1168.67 102.459 1168.78 102.589 1168.91 102.693C1169.04 102.8 1169.19 102.88 1169.36 102.934C1169.53 102.986 1169.7 103.012 1169.89 103.012C1170.13 103.012 1170.34 102.974 1170.52 102.898C1170.7 102.822 1170.85 102.717 1170.96 102.585C1171.08 102.452 1171.17 102.297 1171.23 102.121C1171.28 101.942 1171.31 101.752 1171.31 101.551C1171.31 101.324 1171.28 101.12 1171.22 100.94C1171.16 100.757 1171.08 100.602 1170.96 100.476C1170.85 100.347 1170.71 100.249 1170.55 100.18C1170.38 100.112 1170.2 100.078 1169.99 100.078C1169.84 100.078 1169.7 100.097 1169.58 100.135C1169.47 100.173 1169.37 100.214 1169.3 100.256L1169.42 99.2044H1171.18V98.5657H1168.82L1168.58 100.777ZM1174.97 102.952V102.371H1172.93L1173.9 101.328C1174.03 101.192 1174.15 101.059 1174.26 100.931C1174.37 100.802 1174.47 100.675 1174.55 100.548C1174.62 100.421 1174.69 100.294 1174.73 100.165C1174.78 100.035 1174.8 99.9003 1174.8 99.7617C1174.8 99.5769 1174.77 99.4082 1174.71 99.2556C1174.65 99.1009 1174.56 98.9684 1174.45 98.8579C1174.33 98.7474 1174.19 98.6611 1174.02 98.5988C1173.85 98.5366 1173.66 98.5054 1173.44 98.5054C1173.21 98.5054 1173 98.5426 1172.82 98.6169C1172.63 98.6912 1172.48 98.7916 1172.35 98.9182C1172.22 99.0447 1172.12 99.1933 1172.05 99.364C1171.98 99.5327 1171.94 99.7125 1171.94 99.9033H1172.66C1172.66 99.7768 1172.68 99.6643 1172.71 99.5659C1172.74 99.4655 1172.79 99.3811 1172.86 99.3128C1172.92 99.2445 1173 99.1923 1173.09 99.1562C1173.19 99.12 1173.3 99.1019 1173.43 99.1019C1173.53 99.1019 1173.62 99.119 1173.7 99.1531C1173.78 99.1873 1173.85 99.2345 1173.91 99.2947C1173.97 99.355 1174.01 99.4273 1174.04 99.5117C1174.07 99.596 1174.09 99.6894 1174.09 99.7918C1174.09 99.8682 1174.07 99.9445 1174.05 100.021C1174.03 100.095 1174 100.175 1173.95 100.262C1173.9 100.348 1173.83 100.444 1173.75 100.548C1173.67 100.65 1173.57 100.767 1173.46 100.897L1172.03 102.452V102.952H1174.97ZM1176.47 102.359H1176.41V102.973H1176.47C1176.85 102.973 1177.17 102.918 1177.44 102.808C1177.71 102.697 1177.92 102.545 1178.09 102.353C1178.29 102.118 1178.43 101.843 1178.51 101.53C1178.59 101.217 1178.63 100.887 1178.63 100.542V100.289C1178.63 100.038 1178.6 99.7989 1178.54 99.5719C1178.47 99.3429 1178.37 99.1481 1178.24 98.9874C1178.12 98.8388 1177.97 98.7213 1177.79 98.635C1177.62 98.5486 1177.42 98.5054 1177.19 98.5054C1176.97 98.5054 1176.77 98.5466 1176.59 98.6289C1176.41 98.7093 1176.27 98.8187 1176.15 98.9573C1176.03 99.0979 1175.93 99.2616 1175.87 99.4484C1175.81 99.6332 1175.78 99.831 1175.78 100.042C1175.78 100.235 1175.8 100.42 1175.85 100.599C1175.91 100.776 1175.99 100.933 1176.09 101.069C1176.2 101.204 1176.33 101.311 1176.48 101.392C1176.64 101.472 1176.83 101.512 1177.04 101.512C1177.15 101.512 1177.24 101.502 1177.33 101.482C1177.42 101.462 1177.5 101.435 1177.57 101.401C1177.64 101.368 1177.7 101.331 1177.76 101.289C1177.81 101.245 1177.86 101.198 1177.91 101.148V101.163C1177.89 101.333 1177.86 101.493 1177.8 101.642C1177.74 101.788 1177.66 101.919 1177.54 102.033C1177.42 102.138 1177.28 102.218 1177.1 102.274C1176.93 102.331 1176.72 102.359 1176.47 102.359ZM1177.19 100.943C1177.07 100.943 1176.97 100.918 1176.88 100.867C1176.8 100.815 1176.72 100.747 1176.66 100.663C1176.6 100.576 1176.56 100.478 1176.53 100.367C1176.5 100.257 1176.49 100.141 1176.49 100.021C1176.49 99.8963 1176.5 99.7778 1176.53 99.6653C1176.57 99.5508 1176.61 99.4514 1176.67 99.367C1176.73 99.2827 1176.8 99.2164 1176.89 99.1682C1176.98 99.118 1177.08 99.0929 1177.19 99.0929C1177.29 99.0929 1177.39 99.117 1177.47 99.1652C1177.56 99.2114 1177.64 99.2797 1177.71 99.3701C1177.77 99.4604 1177.83 99.5729 1177.86 99.7075C1177.9 99.842 1177.92 99.9967 1177.92 100.171V100.421C1177.89 100.496 1177.85 100.565 1177.8 100.629C1177.76 100.692 1177.7 100.747 1177.64 100.795C1177.58 100.841 1177.51 100.877 1177.43 100.904C1177.36 100.93 1177.28 100.943 1177.19 100.943ZM1182.4 101.28V100.241C1182.4 99.9595 1182.37 99.7115 1182.3 99.4966C1182.24 99.2797 1182.14 99.0969 1182.02 98.9483C1181.9 98.8017 1181.75 98.6912 1181.57 98.6169C1181.4 98.5406 1181.2 98.5024 1180.98 98.5024C1180.75 98.5024 1180.56 98.5406 1180.38 98.6169C1180.2 98.6912 1180.06 98.8017 1179.93 98.9483C1179.81 99.0969 1179.72 99.2797 1179.65 99.4966C1179.59 99.7115 1179.55 99.9595 1179.55 100.241V101.28C1179.55 101.561 1179.59 101.81 1179.65 102.027C1179.72 102.242 1179.81 102.423 1179.94 102.57C1180.06 102.716 1180.21 102.828 1180.39 102.904C1180.56 102.978 1180.76 103.015 1180.98 103.015C1181.2 103.015 1181.4 102.978 1181.58 102.904C1181.75 102.828 1181.9 102.716 1182.02 102.57C1182.15 102.423 1182.24 102.242 1182.3 102.027C1182.37 101.81 1182.4 101.561 1182.4 101.28ZM1180.28 101.024C1180.28 100.966 1180.28 100.917 1180.28 100.876C1180.28 100.836 1180.28 100.778 1180.28 100.702V100.111C1180.28 99.9304 1180.29 99.7738 1180.32 99.6412C1180.36 99.5066 1180.41 99.3972 1180.47 99.3128C1180.53 99.2385 1180.6 99.1823 1180.68 99.1441C1180.77 99.1059 1180.87 99.0869 1180.98 99.0869C1181.08 99.0869 1181.17 99.1029 1181.25 99.1351C1181.33 99.1672 1181.4 99.2154 1181.46 99.2797C1181.52 99.352 1181.57 99.4454 1181.61 99.5599C1181.64 99.6743 1181.66 99.8099 1181.67 99.9666L1180.28 101.024ZM1181.68 101.401C1181.68 101.585 1181.66 101.746 1181.63 101.883C1181.6 102.019 1181.55 102.13 1181.48 102.214C1181.42 102.286 1181.35 102.342 1181.27 102.38C1181.19 102.416 1181.09 102.434 1180.98 102.434C1180.87 102.434 1180.77 102.415 1180.69 102.377C1180.61 102.339 1180.54 102.281 1180.48 102.205C1180.43 102.135 1180.38 102.046 1180.35 101.94C1180.31 101.833 1180.29 101.711 1180.28 101.572L1181.68 100.521C1181.68 100.579 1181.68 100.635 1181.68 100.69C1181.68 100.742 1181.68 100.794 1181.68 100.846V101.401Z" fill="#2E3539"/>
<path d="M1148.74 110.045H1148.68V110.66H1148.74C1149.12 110.66 1149.44 110.605 1149.71 110.494C1149.98 110.384 1150.19 110.232 1150.36 110.039C1150.56 109.804 1150.7 109.53 1150.78 109.217C1150.86 108.903 1150.9 108.574 1150.9 108.229V107.975C1150.9 107.724 1150.87 107.485 1150.8 107.258C1150.74 107.029 1150.64 106.835 1150.51 106.674C1150.39 106.525 1150.24 106.408 1150.06 106.321C1149.89 106.235 1149.69 106.192 1149.46 106.192C1149.24 106.192 1149.03 106.233 1148.86 106.315C1148.68 106.396 1148.54 106.505 1148.42 106.644C1148.29 106.784 1148.2 106.948 1148.14 107.135C1148.08 107.32 1148.04 107.518 1148.04 107.728C1148.04 107.921 1148.07 108.107 1148.12 108.286C1148.18 108.463 1148.25 108.619 1148.36 108.756C1148.47 108.89 1148.6 108.998 1148.75 109.078C1148.91 109.158 1149.1 109.199 1149.31 109.199C1149.41 109.199 1149.51 109.189 1149.6 109.168C1149.68 109.148 1149.76 109.121 1149.84 109.087C1149.91 109.055 1149.97 109.018 1150.02 108.976C1150.08 108.931 1150.13 108.884 1150.18 108.834V108.849C1150.16 109.02 1150.13 109.18 1150.07 109.328C1150.01 109.475 1149.92 109.605 1149.8 109.72C1149.69 109.824 1149.55 109.905 1149.37 109.961C1149.2 110.017 1148.99 110.045 1148.74 110.045ZM1149.46 108.629C1149.34 108.629 1149.24 108.604 1149.15 108.554C1149.06 108.502 1148.99 108.433 1148.93 108.349C1148.87 108.263 1148.83 108.164 1148.8 108.054C1148.77 107.943 1148.76 107.828 1148.76 107.707C1148.76 107.583 1148.77 107.464 1148.8 107.352C1148.84 107.237 1148.88 107.138 1148.94 107.054C1149 106.969 1149.07 106.903 1149.16 106.855C1149.25 106.805 1149.35 106.779 1149.46 106.779C1149.56 106.779 1149.66 106.804 1149.74 106.852C1149.83 106.898 1149.91 106.966 1149.98 107.057C1150.04 107.147 1150.09 107.259 1150.13 107.394C1150.17 107.529 1150.19 107.683 1150.19 107.858V108.108C1150.16 108.182 1150.12 108.252 1150.07 108.316C1150.03 108.378 1149.97 108.433 1149.91 108.482C1149.85 108.528 1149.78 108.564 1149.7 108.59C1149.63 108.616 1149.55 108.629 1149.46 108.629ZM1154.59 107.409C1154.59 107.214 1154.55 107.042 1154.49 106.891C1154.42 106.74 1154.33 106.613 1154.21 106.508C1154.09 106.404 1153.94 106.326 1153.78 106.273C1153.61 106.219 1153.43 106.192 1153.24 106.192C1153.05 106.192 1152.87 106.219 1152.7 106.273C1152.54 106.326 1152.4 106.404 1152.28 106.508C1152.17 106.613 1152.07 106.74 1152 106.891C1151.94 107.042 1151.9 107.214 1151.9 107.409C1151.9 107.518 1151.92 107.621 1151.95 107.719C1151.98 107.818 1152.02 107.908 1152.08 107.991C1152.13 108.071 1152.19 108.144 1152.27 108.21C1152.34 108.277 1152.43 108.333 1152.52 108.379C1152.41 108.429 1152.31 108.491 1152.22 108.563C1152.14 108.633 1152.06 108.713 1152 108.801C1151.94 108.893 1151.89 108.994 1151.86 109.102C1151.82 109.211 1151.81 109.325 1151.81 109.446C1151.81 109.651 1151.84 109.831 1151.92 109.988C1151.99 110.143 1152.09 110.272 1152.22 110.377C1152.35 110.483 1152.5 110.563 1152.68 110.618C1152.85 110.672 1153.05 110.699 1153.25 110.699C1153.45 110.699 1153.64 110.672 1153.81 110.618C1153.99 110.563 1154.14 110.483 1154.27 110.377C1154.4 110.272 1154.5 110.142 1154.57 109.985C1154.65 109.828 1154.68 109.649 1154.68 109.446C1154.68 109.303 1154.66 109.17 1154.62 109.048C1154.57 108.925 1154.5 108.816 1154.42 108.72C1154.36 108.647 1154.3 108.584 1154.22 108.53C1154.14 108.474 1154.06 108.424 1153.97 108.382C1154.04 108.344 1154.11 108.3 1154.18 108.25C1154.24 108.199 1154.29 108.145 1154.34 108.087C1154.42 107.997 1154.48 107.894 1154.52 107.78C1154.57 107.665 1154.59 107.542 1154.59 107.409ZM1153.96 109.406C1153.96 109.519 1153.95 109.619 1153.91 109.708C1153.87 109.794 1153.82 109.868 1153.76 109.931C1153.7 109.991 1153.63 110.037 1153.54 110.069C1153.45 110.101 1153.36 110.117 1153.25 110.117C1153.14 110.117 1153.04 110.102 1152.96 110.072C1152.87 110.04 1152.79 109.995 1152.73 109.937C1152.67 109.876 1152.62 109.802 1152.58 109.714C1152.55 109.623 1152.53 109.521 1152.53 109.406C1152.53 109.298 1152.55 109.2 1152.58 109.111C1152.61 109.021 1152.66 108.943 1152.72 108.876C1152.79 108.814 1152.86 108.766 1152.95 108.732C1153.03 108.697 1153.13 108.68 1153.24 108.68C1153.35 108.68 1153.45 108.697 1153.54 108.732C1153.63 108.766 1153.7 108.814 1153.77 108.876C1153.83 108.943 1153.88 109.021 1153.91 109.111C1153.95 109.2 1153.96 109.298 1153.96 109.406ZM1153.87 107.436C1153.87 107.535 1153.86 107.625 1153.83 107.707C1153.8 107.788 1153.75 107.857 1153.7 107.915C1153.65 107.971 1153.58 108.016 1153.5 108.048C1153.43 108.08 1153.34 108.096 1153.25 108.096C1153.15 108.096 1153.07 108.08 1152.99 108.048C1152.92 108.016 1152.85 107.971 1152.8 107.915C1152.74 107.857 1152.7 107.788 1152.67 107.707C1152.64 107.625 1152.63 107.535 1152.63 107.436C1152.63 107.336 1152.64 107.244 1152.67 107.162C1152.7 107.08 1152.74 107.01 1152.79 106.954C1152.84 106.898 1152.91 106.855 1152.98 106.825C1153.06 106.792 1153.15 106.776 1153.24 106.776C1153.34 106.776 1153.42 106.792 1153.5 106.825C1153.57 106.857 1153.64 106.902 1153.7 106.96C1153.75 107.018 1153.79 107.088 1153.82 107.168C1153.86 107.248 1153.87 107.338 1153.87 107.436ZM1157.51 110.639V106.252H1157.47L1155.66 106.921V107.557L1156.79 107.144V110.639H1157.51ZM1159.38 108.464L1159.95 108.605C1159.99 108.569 1160.03 108.536 1160.07 108.506C1160.11 108.474 1160.16 108.445 1160.21 108.421C1160.26 108.399 1160.31 108.381 1160.38 108.367C1160.44 108.353 1160.52 108.346 1160.6 108.346C1160.73 108.346 1160.85 108.368 1160.94 108.412C1161.04 108.454 1161.13 108.515 1161.19 108.593C1161.26 108.671 1161.31 108.764 1161.34 108.87C1161.37 108.975 1161.39 109.09 1161.39 109.217C1161.39 109.347 1161.38 109.469 1161.35 109.581C1161.32 109.692 1161.28 109.786 1161.22 109.864C1161.16 109.945 1161.09 110.007 1161 110.051C1160.91 110.095 1160.81 110.117 1160.69 110.117C1160.48 110.117 1160.31 110.06 1160.18 109.946C1160.05 109.831 1159.97 109.667 1159.94 109.452H1159.24C1159.25 109.655 1159.3 109.834 1159.38 109.991C1159.47 110.146 1159.58 110.275 1159.71 110.38C1159.84 110.486 1159.99 110.566 1160.16 110.621C1160.32 110.673 1160.5 110.699 1160.69 110.699C1160.93 110.699 1161.14 110.661 1161.32 110.584C1161.5 110.508 1161.64 110.404 1161.76 110.271C1161.88 110.139 1161.97 109.984 1162.02 109.807C1162.08 109.628 1162.11 109.439 1162.11 109.238C1162.11 109.011 1162.08 108.807 1162.02 108.626C1161.96 108.443 1161.87 108.289 1161.76 108.162C1161.65 108.034 1161.51 107.935 1161.34 107.867C1161.18 107.799 1161 107.765 1160.79 107.765C1160.64 107.765 1160.5 107.784 1160.38 107.822C1160.27 107.86 1160.17 107.9 1160.1 107.942L1160.21 106.891H1161.97V106.252H1159.62L1159.38 108.464ZM1164.92 110.639V106.252H1164.88L1163.07 106.921V107.557L1164.2 107.144V110.639H1164.92ZM1168.83 106.231H1168.75C1168.41 106.231 1168.1 106.284 1167.84 106.391C1167.57 106.497 1167.35 106.65 1167.17 106.849C1166.96 107.08 1166.8 107.356 1166.71 107.677C1166.62 107.997 1166.58 108.333 1166.58 108.686V108.985C1166.58 109.22 1166.61 109.444 1166.68 109.657C1166.75 109.867 1166.85 110.051 1166.98 110.208C1167.1 110.358 1167.26 110.478 1167.44 110.566C1167.62 110.655 1167.82 110.699 1168.05 110.699C1168.28 110.699 1168.48 110.661 1168.65 110.584C1168.83 110.506 1168.98 110.399 1169.1 110.262C1169.22 110.128 1169.32 109.97 1169.38 109.789C1169.44 109.606 1169.47 109.41 1169.47 109.202C1169.47 109.011 1169.45 108.827 1169.4 108.65C1169.35 108.474 1169.27 108.317 1169.17 108.18C1169.07 108.044 1168.94 107.935 1168.78 107.855C1168.62 107.775 1168.44 107.734 1168.22 107.734C1168.12 107.734 1168.03 107.746 1167.94 107.771C1167.85 107.793 1167.76 107.824 1167.69 107.864C1167.61 107.902 1167.54 107.947 1167.48 108C1167.41 108.05 1167.36 108.102 1167.31 108.156C1167.32 107.969 1167.37 107.795 1167.43 107.632C1167.5 107.469 1167.59 107.33 1167.72 107.213C1167.84 107.097 1167.99 107.006 1168.16 106.942C1168.34 106.876 1168.54 106.843 1168.78 106.843H1168.83V106.231ZM1168.05 108.319C1168.16 108.319 1168.26 108.343 1168.35 108.391C1168.44 108.437 1168.52 108.502 1168.58 108.584C1168.64 108.666 1168.68 108.763 1168.71 108.873C1168.75 108.982 1168.76 109.097 1168.76 109.22C1168.76 109.348 1168.75 109.468 1168.71 109.578C1168.68 109.687 1168.64 109.781 1168.57 109.861C1168.51 109.94 1168.44 110.002 1168.35 110.048C1168.26 110.092 1168.16 110.114 1168.05 110.114C1167.94 110.114 1167.85 110.091 1167.76 110.045C1167.67 109.999 1167.59 109.932 1167.52 109.843C1167.45 109.755 1167.4 109.644 1167.36 109.512C1167.32 109.379 1167.3 109.226 1167.3 109.051V108.828C1167.33 108.754 1167.37 108.686 1167.42 108.626C1167.47 108.566 1167.52 108.513 1167.58 108.467C1167.65 108.42 1167.72 108.384 1167.8 108.358C1167.88 108.332 1167.96 108.319 1168.05 108.319ZM1172.54 106.231H1172.45C1172.11 106.231 1171.81 106.284 1171.54 106.391C1171.28 106.497 1171.06 106.65 1170.87 106.849C1170.66 107.08 1170.51 107.356 1170.42 107.677C1170.33 107.997 1170.28 108.333 1170.28 108.686V108.985C1170.28 109.22 1170.32 109.444 1170.38 109.657C1170.45 109.867 1170.55 110.051 1170.68 110.208C1170.81 110.358 1170.96 110.478 1171.14 110.566C1171.32 110.655 1171.53 110.699 1171.76 110.699C1171.99 110.699 1172.19 110.661 1172.36 110.584C1172.54 110.506 1172.69 110.399 1172.81 110.262C1172.93 110.128 1173.02 109.97 1173.08 109.789C1173.15 109.606 1173.18 109.41 1173.18 109.202C1173.18 109.011 1173.15 108.827 1173.1 108.65C1173.06 108.474 1172.98 108.317 1172.88 108.18C1172.77 108.044 1172.64 107.935 1172.48 107.855C1172.33 107.775 1172.14 107.734 1171.93 107.734C1171.83 107.734 1171.73 107.746 1171.64 107.771C1171.55 107.793 1171.47 107.824 1171.39 107.864C1171.32 107.902 1171.25 107.947 1171.18 108C1171.12 108.05 1171.06 108.102 1171.01 108.156C1171.03 107.969 1171.07 107.795 1171.14 107.632C1171.21 107.469 1171.3 107.33 1171.42 107.213C1171.54 107.097 1171.69 107.006 1171.87 106.942C1172.04 106.876 1172.25 106.843 1172.49 106.843H1172.54V106.231ZM1171.75 108.319C1171.87 108.319 1171.97 108.343 1172.06 108.391C1172.15 108.437 1172.22 108.502 1172.28 108.584C1172.34 108.666 1172.39 108.763 1172.42 108.873C1172.45 108.982 1172.47 109.097 1172.47 109.22C1172.47 109.348 1172.45 109.468 1172.42 109.578C1172.39 109.687 1172.34 109.781 1172.28 109.861C1172.22 109.94 1172.14 110.002 1172.05 110.048C1171.96 110.092 1171.86 110.114 1171.75 110.114C1171.65 110.114 1171.55 110.091 1171.46 110.045C1171.37 109.999 1171.29 109.932 1171.22 109.843C1171.16 109.755 1171.1 109.644 1171.06 109.512C1171.02 109.379 1171 109.226 1171 109.051V108.828C1171.04 108.754 1171.08 108.686 1171.12 108.626C1171.17 108.566 1171.23 108.513 1171.29 108.467C1171.35 108.42 1171.43 108.384 1171.5 108.358C1171.58 108.332 1171.67 108.319 1171.75 108.319ZM1176.04 110.639V106.252H1176L1174.19 106.921V107.557L1175.32 107.144V110.639H1176.04Z" fill="#2E3539"/>
<path d="M1142.6 118.325V113.939H1142.55L1140.75 114.608V115.243L1141.87 114.83V118.325H1142.6ZM1146.31 118.325V113.939H1146.26L1144.46 114.608V115.243L1145.58 114.83V118.325H1146.31ZM1148.82 115.807V116.373H1149.25C1149.38 116.373 1149.49 116.388 1149.59 116.418C1149.69 116.446 1149.78 116.489 1149.85 116.548C1149.93 116.608 1149.98 116.683 1150.02 116.774C1150.06 116.864 1150.08 116.972 1150.08 117.099C1150.08 117.212 1150.06 117.312 1150.03 117.4C1149.99 117.487 1149.95 117.559 1149.88 117.617C1149.82 117.679 1149.74 117.727 1149.65 117.759C1149.55 117.789 1149.45 117.804 1149.33 117.804C1149.22 117.804 1149.12 117.788 1149.03 117.756C1148.95 117.724 1148.87 117.678 1148.81 117.62C1148.74 117.564 1148.69 117.496 1148.65 117.415C1148.62 117.333 1148.6 117.244 1148.6 117.147H1147.88C1147.88 117.352 1147.92 117.532 1148 117.687C1148.08 117.839 1148.19 117.968 1148.32 118.072C1148.45 118.177 1148.6 118.255 1148.78 118.307C1148.95 118.359 1149.14 118.385 1149.32 118.385C1149.53 118.385 1149.73 118.357 1149.91 118.301C1150.09 118.243 1150.24 118.158 1150.38 118.048C1150.51 117.94 1150.61 117.806 1150.68 117.647C1150.76 117.487 1150.8 117.304 1150.8 117.099C1150.8 116.989 1150.78 116.882 1150.76 116.78C1150.73 116.675 1150.69 116.578 1150.63 116.487C1150.57 116.399 1150.5 116.32 1150.41 116.249C1150.31 116.177 1150.2 116.119 1150.07 116.075C1150.18 116.025 1150.28 115.963 1150.36 115.891C1150.45 115.819 1150.51 115.741 1150.57 115.659C1150.62 115.575 1150.66 115.487 1150.69 115.397C1150.72 115.306 1150.73 115.216 1150.73 115.126C1150.73 114.921 1150.7 114.741 1150.63 114.586C1150.56 114.432 1150.46 114.301 1150.34 114.195C1150.22 114.09 1150.07 114.012 1149.89 113.96C1149.72 113.906 1149.53 113.878 1149.32 113.878C1149.12 113.878 1148.93 113.909 1148.76 113.969C1148.59 114.029 1148.45 114.112 1148.32 114.219C1148.2 114.327 1148.1 114.455 1148.03 114.602C1147.96 114.748 1147.93 114.909 1147.93 115.084H1148.65C1148.65 114.989 1148.66 114.904 1148.7 114.827C1148.73 114.751 1148.78 114.686 1148.84 114.632C1148.91 114.577 1148.98 114.536 1149.06 114.508C1149.14 114.478 1149.23 114.463 1149.33 114.463C1149.44 114.463 1149.54 114.478 1149.63 114.508C1149.71 114.538 1149.78 114.58 1149.84 114.635C1149.9 114.693 1149.94 114.763 1149.97 114.846C1150 114.928 1150.01 115.021 1150.01 115.126C1150.01 115.222 1149.99 115.313 1149.96 115.397C1149.93 115.479 1149.89 115.549 1149.83 115.605C1149.77 115.669 1149.69 115.719 1149.59 115.755C1149.5 115.79 1149.38 115.807 1149.25 115.807H1148.82ZM1154.14 116.762V113.939H1153.39L1151.5 116.903L1151.52 117.346H1153.42V118.325H1154.14V117.346H1154.69V116.762H1154.14ZM1152.23 116.762L1153.33 115.059L1153.42 114.903V116.762H1152.23ZM1157.62 113.918H1157.54C1157.2 113.918 1156.89 113.971 1156.63 114.077C1156.36 114.184 1156.14 114.336 1155.96 114.535C1155.75 114.766 1155.6 115.042 1155.5 115.364C1155.41 115.683 1155.37 116.019 1155.37 116.373V116.671C1155.37 116.906 1155.4 117.13 1155.47 117.343C1155.54 117.554 1155.64 117.738 1155.77 117.894C1155.89 118.045 1156.05 118.165 1156.23 118.253C1156.41 118.341 1156.62 118.385 1156.85 118.385C1157.07 118.385 1157.27 118.347 1157.45 118.271C1157.62 118.193 1157.77 118.085 1157.89 117.949C1158.02 117.814 1158.11 117.656 1158.17 117.476C1158.23 117.293 1158.27 117.097 1158.27 116.888C1158.27 116.697 1158.24 116.514 1158.19 116.337C1158.14 116.16 1158.07 116.003 1157.96 115.867C1157.86 115.73 1157.73 115.622 1157.57 115.541C1157.41 115.461 1157.23 115.421 1157.02 115.421C1156.91 115.421 1156.82 115.433 1156.73 115.457C1156.64 115.479 1156.56 115.51 1156.48 115.551C1156.4 115.589 1156.33 115.634 1156.27 115.686C1156.2 115.736 1156.15 115.789 1156.1 115.843C1156.12 115.656 1156.16 115.481 1156.22 115.319C1156.29 115.156 1156.39 115.016 1156.51 114.9C1156.63 114.783 1156.78 114.693 1156.95 114.629C1157.13 114.562 1157.34 114.529 1157.58 114.529H1157.62V113.918ZM1156.84 116.005C1156.95 116.005 1157.06 116.03 1157.14 116.078C1157.24 116.124 1157.31 116.188 1157.37 116.271C1157.43 116.353 1157.48 116.449 1157.51 116.56C1157.54 116.668 1157.55 116.784 1157.55 116.906C1157.55 117.035 1157.54 117.154 1157.51 117.265C1157.47 117.373 1157.43 117.468 1157.36 117.548C1157.3 117.626 1157.23 117.689 1157.14 117.735C1157.05 117.779 1156.95 117.801 1156.84 117.801C1156.74 117.801 1156.64 117.778 1156.55 117.732C1156.46 117.686 1156.38 117.618 1156.31 117.53C1156.24 117.441 1156.19 117.331 1156.15 117.198C1156.11 117.066 1156.09 116.912 1156.09 116.738V116.515C1156.12 116.44 1156.16 116.373 1156.21 116.313C1156.26 116.252 1156.31 116.199 1156.37 116.153C1156.44 116.107 1156.51 116.071 1156.59 116.045C1156.67 116.018 1156.75 116.005 1156.84 116.005ZM1161.55 116.762V113.939H1160.81L1158.91 116.903L1158.93 117.346H1160.83V118.325H1161.55V117.346H1162.1V116.762H1161.55ZM1159.65 116.762L1160.74 115.059L1160.83 114.903V116.762H1159.65ZM1165.25 116.762V113.939H1164.51L1162.62 116.903L1162.63 117.346H1164.53V118.325H1165.25V117.346H1165.8V116.762H1165.25ZM1163.35 116.762L1164.45 115.059L1164.53 114.903V116.762H1163.35ZM1168.54 118.325V113.939H1168.49L1166.69 114.608V115.243L1167.81 114.83V118.325H1168.54ZM1171.06 115.807V116.373H1171.49C1171.61 116.373 1171.73 116.388 1171.83 116.418C1171.93 116.446 1172.02 116.489 1172.09 116.548C1172.16 116.608 1172.22 116.683 1172.25 116.774C1172.29 116.864 1172.31 116.972 1172.31 117.099C1172.31 117.212 1172.29 117.312 1172.26 117.4C1172.23 117.487 1172.18 117.559 1172.12 117.617C1172.05 117.679 1171.97 117.727 1171.88 117.759C1171.79 117.789 1171.68 117.804 1171.57 117.804C1171.46 117.804 1171.36 117.788 1171.27 117.756C1171.18 117.724 1171.1 117.678 1171.04 117.62C1170.97 117.564 1170.92 117.496 1170.89 117.415C1170.85 117.333 1170.83 117.244 1170.83 117.147H1170.11C1170.11 117.352 1170.15 117.532 1170.23 117.687C1170.31 117.839 1170.42 117.968 1170.55 118.072C1170.68 118.177 1170.84 118.255 1171.01 118.307C1171.19 118.359 1171.37 118.385 1171.56 118.385C1171.77 118.385 1171.96 118.357 1172.14 118.301C1172.32 118.243 1172.48 118.158 1172.61 118.048C1172.74 117.94 1172.84 117.806 1172.92 117.647C1172.99 117.487 1173.03 117.304 1173.03 117.099C1173.03 116.989 1173.02 116.882 1172.99 116.78C1172.97 116.675 1172.92 116.578 1172.86 116.487C1172.81 116.399 1172.73 116.32 1172.64 116.249C1172.55 116.177 1172.44 116.119 1172.31 116.075C1172.42 116.025 1172.51 115.963 1172.6 115.891C1172.68 115.819 1172.75 115.741 1172.8 115.659C1172.86 115.575 1172.9 115.487 1172.92 115.397C1172.95 115.306 1172.96 115.216 1172.96 115.126C1172.96 114.921 1172.93 114.741 1172.86 114.586C1172.79 114.432 1172.7 114.301 1172.57 114.195C1172.45 114.09 1172.3 114.012 1172.13 113.96C1171.95 113.906 1171.76 113.878 1171.56 113.878C1171.35 113.878 1171.17 113.909 1171 113.969C1170.83 114.029 1170.68 114.112 1170.56 114.219C1170.43 114.327 1170.34 114.455 1170.27 114.602C1170.19 114.748 1170.16 114.909 1170.16 115.084H1170.88C1170.88 114.989 1170.9 114.904 1170.93 114.827C1170.97 114.751 1171.02 114.686 1171.08 114.632C1171.14 114.577 1171.21 114.536 1171.29 114.508C1171.38 114.478 1171.47 114.463 1171.57 114.463C1171.68 114.463 1171.77 114.478 1171.86 114.508C1171.95 114.538 1172.02 114.58 1172.07 114.635C1172.13 114.693 1172.17 114.763 1172.2 114.846C1172.23 114.928 1172.24 115.021 1172.24 115.126C1172.24 115.222 1172.23 115.313 1172.2 115.397C1172.17 115.479 1172.12 115.549 1172.06 115.605C1172 115.669 1171.92 115.719 1171.83 115.755C1171.73 115.79 1171.62 115.807 1171.49 115.807H1171.06Z" fill="#2E3539"/>
<path d="M1137.92 126.012V121.625H1137.88L1136.07 122.294V122.93L1137.2 122.517V126.012H1137.92ZM1142.47 126.012V125.43H1140.43L1141.4 124.388C1141.53 124.251 1141.65 124.119 1141.76 123.99C1141.87 123.862 1141.97 123.734 1142.05 123.608C1142.12 123.481 1142.19 123.354 1142.23 123.225C1142.28 123.094 1142.3 122.96 1142.3 122.821C1142.3 122.637 1142.27 122.468 1142.21 122.315C1142.15 122.16 1142.06 122.028 1141.95 121.917C1141.83 121.807 1141.69 121.721 1141.52 121.658C1141.35 121.596 1141.15 121.565 1140.94 121.565C1140.71 121.565 1140.5 121.602 1140.32 121.676C1140.13 121.751 1139.97 121.851 1139.85 121.978C1139.72 122.104 1139.62 122.253 1139.55 122.424C1139.47 122.592 1139.44 122.772 1139.44 122.963H1140.16C1140.16 122.836 1140.18 122.724 1140.21 122.625C1140.24 122.525 1140.29 122.441 1140.36 122.372C1140.42 122.304 1140.5 122.252 1140.59 122.216C1140.68 122.18 1140.8 122.162 1140.92 122.162C1141.03 122.162 1141.12 122.179 1141.2 122.213C1141.28 122.247 1141.35 122.294 1141.41 122.354C1141.47 122.415 1141.51 122.487 1141.54 122.571C1141.57 122.656 1141.58 122.749 1141.58 122.851C1141.58 122.928 1141.57 123.004 1141.55 123.08C1141.53 123.155 1141.5 123.235 1141.45 123.321C1141.4 123.408 1141.33 123.503 1141.25 123.608C1141.17 123.71 1141.07 123.827 1140.96 123.957L1139.53 125.512V126.012H1142.47ZM1145.33 126.012V121.625H1145.29L1143.48 122.294V122.93L1144.61 122.517V126.012H1145.33ZM1147.67 125.418H1147.62V126.033H1147.68C1148.05 126.033 1148.38 125.978 1148.64 125.867C1148.91 125.757 1149.13 125.605 1149.29 125.412C1149.5 125.177 1149.64 124.903 1149.72 124.59C1149.8 124.276 1149.84 123.947 1149.84 123.602V123.349C1149.84 123.097 1149.81 122.858 1149.74 122.631C1149.67 122.403 1149.58 122.208 1149.45 122.047C1149.33 121.898 1149.18 121.781 1149 121.695C1148.82 121.608 1148.62 121.565 1148.4 121.565C1148.17 121.565 1147.97 121.606 1147.79 121.689C1147.62 121.769 1147.47 121.878 1147.35 122.017C1147.23 122.157 1147.14 122.321 1147.07 122.508C1147.01 122.693 1146.98 122.891 1146.98 123.101C1146.98 123.294 1147.01 123.48 1147.06 123.659C1147.11 123.836 1147.19 123.992 1147.3 124.129C1147.4 124.263 1147.53 124.371 1147.69 124.451C1147.85 124.531 1148.03 124.572 1148.25 124.572C1148.35 124.572 1148.45 124.562 1148.53 124.542C1148.62 124.521 1148.7 124.494 1148.77 124.46C1148.84 124.428 1148.9 124.391 1148.96 124.349C1149.02 124.305 1149.07 124.257 1149.11 124.207V124.222C1149.1 124.393 1149.06 124.553 1149.01 124.701C1148.95 124.848 1148.86 124.978 1148.74 125.093C1148.63 125.197 1148.48 125.278 1148.31 125.334C1148.13 125.39 1147.92 125.418 1147.67 125.418ZM1148.4 124.002C1148.28 124.002 1148.17 123.977 1148.09 123.927C1148 123.875 1147.93 123.806 1147.87 123.722C1147.81 123.636 1147.76 123.537 1147.74 123.427C1147.71 123.316 1147.69 123.201 1147.69 123.08C1147.69 122.956 1147.71 122.837 1147.74 122.725C1147.77 122.61 1147.82 122.511 1147.88 122.427C1147.94 122.342 1148.01 122.276 1148.1 122.228C1148.18 122.178 1148.28 122.152 1148.4 122.152C1148.5 122.152 1148.59 122.177 1148.68 122.225C1148.77 122.271 1148.85 122.339 1148.91 122.43C1148.98 122.52 1149.03 122.632 1149.07 122.767C1149.11 122.902 1149.13 123.056 1149.13 123.231V123.481C1149.1 123.555 1149.06 123.625 1149.01 123.689C1148.96 123.751 1148.91 123.806 1148.85 123.855C1148.78 123.901 1148.71 123.937 1148.64 123.963C1148.56 123.989 1148.48 124.002 1148.4 124.002ZM1151.56 123.493V124.059H1151.99C1152.11 124.059 1152.22 124.075 1152.32 124.105C1152.43 124.133 1152.51 124.176 1152.59 124.234C1152.66 124.294 1152.71 124.37 1152.75 124.46C1152.79 124.551 1152.81 124.659 1152.81 124.786C1152.81 124.898 1152.79 124.998 1152.76 125.087C1152.73 125.173 1152.68 125.245 1152.62 125.304C1152.55 125.366 1152.47 125.413 1152.38 125.445C1152.29 125.475 1152.18 125.491 1152.07 125.491C1151.96 125.491 1151.86 125.474 1151.77 125.442C1151.68 125.41 1151.6 125.365 1151.54 125.307C1151.47 125.251 1151.42 125.182 1151.39 125.102C1151.35 125.02 1151.33 124.93 1151.33 124.834H1150.61C1150.61 125.039 1150.65 125.218 1150.73 125.373C1150.81 125.526 1150.92 125.654 1151.05 125.759C1151.18 125.863 1151.34 125.941 1151.51 125.994C1151.69 126.046 1151.87 126.072 1152.06 126.072C1152.27 126.072 1152.46 126.044 1152.64 125.988C1152.82 125.929 1152.98 125.845 1153.11 125.735C1153.24 125.626 1153.34 125.493 1153.42 125.334C1153.49 125.173 1153.53 124.99 1153.53 124.786C1153.53 124.675 1153.52 124.569 1153.49 124.466C1153.46 124.362 1153.42 124.264 1153.36 124.174C1153.31 124.086 1153.23 124.006 1153.14 123.936C1153.05 123.864 1152.94 123.805 1152.81 123.761C1152.92 123.711 1153.01 123.65 1153.1 123.577C1153.18 123.505 1153.25 123.428 1153.3 123.345C1153.36 123.261 1153.4 123.174 1153.42 123.083C1153.45 122.993 1153.46 122.903 1153.46 122.812C1153.46 122.607 1153.43 122.428 1153.36 122.273C1153.29 122.118 1153.2 121.988 1153.07 121.881C1152.95 121.777 1152.8 121.699 1152.63 121.646C1152.45 121.592 1152.26 121.565 1152.06 121.565C1151.85 121.565 1151.67 121.595 1151.5 121.655C1151.33 121.716 1151.18 121.799 1151.06 121.905C1150.93 122.014 1150.83 122.141 1150.76 122.288C1150.69 122.435 1150.66 122.595 1150.66 122.77H1151.38C1151.38 122.676 1151.4 122.59 1151.43 122.514C1151.47 122.438 1151.52 122.372 1151.58 122.318C1151.64 122.264 1151.71 122.223 1151.79 122.195C1151.88 122.165 1151.97 122.149 1152.07 122.149C1152.18 122.149 1152.27 122.165 1152.36 122.195C1152.44 122.225 1152.52 122.267 1152.57 122.321C1152.63 122.379 1152.67 122.45 1152.7 122.532C1152.73 122.614 1152.74 122.708 1152.74 122.812C1152.74 122.909 1152.73 122.999 1152.7 123.083C1152.67 123.166 1152.62 123.235 1152.56 123.291C1152.5 123.356 1152.42 123.406 1152.32 123.442C1152.23 123.476 1152.12 123.493 1151.99 123.493H1151.56ZM1155.26 123.493V124.059H1155.69C1155.82 124.059 1155.93 124.075 1156.03 124.105C1156.13 124.133 1156.22 124.176 1156.29 124.234C1156.37 124.294 1156.42 124.37 1156.46 124.46C1156.5 124.551 1156.52 124.659 1156.52 124.786C1156.52 124.898 1156.5 124.998 1156.46 125.087C1156.43 125.173 1156.39 125.245 1156.32 125.304C1156.26 125.366 1156.18 125.413 1156.08 125.445C1155.99 125.475 1155.89 125.491 1155.77 125.491C1155.66 125.491 1155.56 125.474 1155.47 125.442C1155.38 125.41 1155.31 125.365 1155.24 125.307C1155.18 125.251 1155.13 125.182 1155.09 125.102C1155.06 125.02 1155.04 124.93 1155.04 124.834H1154.32C1154.32 125.039 1154.36 125.218 1154.44 125.373C1154.52 125.526 1154.62 125.654 1154.76 125.759C1154.89 125.863 1155.04 125.941 1155.22 125.994C1155.39 126.046 1155.57 126.072 1155.76 126.072C1155.97 126.072 1156.17 126.044 1156.34 125.988C1156.52 125.929 1156.68 125.845 1156.81 125.735C1156.94 125.626 1157.05 125.493 1157.12 125.334C1157.2 125.173 1157.24 124.99 1157.24 124.786C1157.24 124.675 1157.22 124.569 1157.2 124.466C1157.17 124.362 1157.13 124.264 1157.07 124.174C1157.01 124.086 1156.94 124.006 1156.84 123.936C1156.75 123.864 1156.64 123.805 1156.51 123.761C1156.62 123.711 1156.72 123.65 1156.8 123.577C1156.88 123.505 1156.95 123.428 1157.01 123.345C1157.06 123.261 1157.1 123.174 1157.13 123.083C1157.16 122.993 1157.17 122.903 1157.17 122.812C1157.17 122.607 1157.14 122.428 1157.07 122.273C1157 122.118 1156.9 121.988 1156.78 121.881C1156.66 121.777 1156.51 121.699 1156.33 121.646C1156.16 121.592 1155.97 121.565 1155.76 121.565C1155.56 121.565 1155.37 121.595 1155.2 121.655C1155.03 121.716 1154.89 121.799 1154.76 121.905C1154.64 122.014 1154.54 122.141 1154.47 122.288C1154.4 122.435 1154.36 122.595 1154.36 122.77H1155.08C1155.08 122.676 1155.1 122.59 1155.14 122.514C1155.17 122.438 1155.22 122.372 1155.28 122.318C1155.34 122.264 1155.42 122.223 1155.5 122.195C1155.58 122.165 1155.67 122.149 1155.77 122.149C1155.88 122.149 1155.98 122.165 1156.06 122.195C1156.15 122.225 1156.22 122.267 1156.28 122.321C1156.33 122.379 1156.38 122.45 1156.4 122.532C1156.43 122.614 1156.45 122.708 1156.45 122.812C1156.45 122.909 1156.43 122.999 1156.4 123.083C1156.37 123.166 1156.33 123.235 1156.27 123.291C1156.21 123.356 1156.13 123.406 1156.03 123.442C1155.93 123.476 1155.82 123.493 1155.69 123.493H1155.26ZM1161.03 122.029V121.625H1158V122.228H1160.28L1158.52 126.012H1159.28L1161.03 122.029ZM1164.28 124.448V121.625H1163.54L1161.64 124.59L1161.66 125.033H1163.56V126.012H1164.28V125.033H1164.83V124.448H1164.28ZM1162.38 124.448L1163.47 122.746L1163.56 122.589V124.448H1162.38ZM1168.35 122.782C1168.35 122.587 1168.31 122.415 1168.24 122.264C1168.18 122.113 1168.08 121.986 1167.96 121.881C1167.84 121.777 1167.7 121.699 1167.54 121.646C1167.37 121.592 1167.19 121.565 1167 121.565C1166.8 121.565 1166.63 121.592 1166.46 121.646C1166.3 121.699 1166.16 121.777 1166.04 121.881C1165.92 121.986 1165.83 122.113 1165.76 122.264C1165.7 122.415 1165.66 122.587 1165.66 122.782C1165.66 122.891 1165.68 122.994 1165.71 123.092C1165.74 123.191 1165.78 123.281 1165.83 123.364C1165.89 123.444 1165.95 123.517 1166.02 123.583C1166.1 123.65 1166.18 123.706 1166.28 123.752C1166.17 123.802 1166.07 123.864 1165.98 123.936C1165.9 124.006 1165.82 124.086 1165.76 124.174C1165.7 124.266 1165.65 124.367 1165.61 124.475C1165.58 124.584 1165.57 124.698 1165.57 124.819C1165.57 125.024 1165.6 125.204 1165.67 125.361C1165.75 125.516 1165.85 125.645 1165.98 125.75C1166.11 125.856 1166.26 125.936 1166.44 125.991C1166.61 126.045 1166.8 126.072 1167.01 126.072C1167.21 126.072 1167.4 126.045 1167.57 125.991C1167.75 125.936 1167.9 125.856 1168.03 125.75C1168.16 125.645 1168.26 125.515 1168.33 125.358C1168.41 125.201 1168.44 125.022 1168.44 124.819C1168.44 124.676 1168.42 124.544 1168.37 124.421C1168.33 124.299 1168.26 124.189 1168.18 124.093C1168.12 124.02 1168.05 123.957 1167.98 123.903C1167.9 123.847 1167.82 123.797 1167.73 123.755C1167.8 123.717 1167.87 123.673 1167.93 123.623C1168 123.572 1168.05 123.518 1168.1 123.46C1168.18 123.37 1168.24 123.267 1168.28 123.153C1168.32 123.038 1168.35 122.915 1168.35 122.782ZM1167.72 124.78C1167.72 124.892 1167.7 124.992 1167.67 125.081C1167.63 125.167 1167.58 125.241 1167.52 125.304C1167.46 125.364 1167.38 125.41 1167.3 125.442C1167.21 125.474 1167.11 125.491 1167.01 125.491C1166.9 125.491 1166.8 125.475 1166.71 125.445C1166.63 125.413 1166.55 125.368 1166.49 125.31C1166.42 125.25 1166.37 125.175 1166.34 125.087C1166.31 124.996 1166.29 124.894 1166.29 124.78C1166.29 124.671 1166.3 124.573 1166.34 124.484C1166.37 124.394 1166.42 124.316 1166.48 124.249C1166.54 124.187 1166.62 124.139 1166.7 124.105C1166.79 124.071 1166.89 124.053 1167 124.053C1167.11 124.053 1167.21 124.071 1167.3 124.105C1167.38 124.139 1167.46 124.187 1167.52 124.249C1167.59 124.316 1167.63 124.394 1167.67 124.484C1167.7 124.573 1167.72 124.671 1167.72 124.78ZM1167.63 122.809C1167.63 122.908 1167.61 122.998 1167.58 123.08C1167.55 123.161 1167.51 123.23 1167.46 123.288C1167.4 123.344 1167.34 123.389 1167.26 123.421C1167.19 123.453 1167.1 123.469 1167.01 123.469C1166.91 123.469 1166.83 123.453 1166.75 123.421C1166.67 123.389 1166.61 123.344 1166.55 123.288C1166.5 123.23 1166.46 123.161 1166.43 123.08C1166.4 122.998 1166.39 122.908 1166.39 122.809C1166.39 122.709 1166.4 122.617 1166.43 122.535C1166.46 122.453 1166.5 122.383 1166.55 122.327C1166.6 122.271 1166.67 122.228 1166.74 122.198C1166.82 122.166 1166.9 122.149 1167 122.149C1167.09 122.149 1167.18 122.166 1167.26 122.198C1167.33 122.23 1167.4 122.275 1167.45 122.333C1167.51 122.391 1167.55 122.461 1167.58 122.541C1167.61 122.621 1167.63 122.711 1167.63 122.809Z" fill="#2E3539"/>
<path d="M1132.29 133.698V129.312H1132.24L1130.44 129.981V130.616L1131.56 130.204V133.698H1132.29ZM1135.99 133.698V129.312H1135.95L1134.14 129.981V130.616L1135.27 130.204V133.698H1135.99ZM1139.7 133.698V129.312H1139.65L1137.85 129.981V130.616L1138.97 130.204V133.698H1139.7ZM1142.22 131.18V131.746H1142.65C1142.77 131.746 1142.89 131.761 1142.99 131.791C1143.09 131.819 1143.18 131.863 1143.25 131.921C1143.32 131.981 1143.38 132.056 1143.41 132.147C1143.45 132.237 1143.47 132.346 1143.47 132.472C1143.47 132.585 1143.45 132.685 1143.42 132.773C1143.39 132.86 1143.34 132.932 1143.28 132.99C1143.21 133.053 1143.13 133.1 1143.04 133.132C1142.95 133.162 1142.84 133.177 1142.73 133.177C1142.62 133.177 1142.52 133.161 1142.43 133.129C1142.34 133.097 1142.26 133.052 1142.2 132.993C1142.13 132.937 1142.08 132.869 1142.05 132.788C1142.01 132.706 1142 132.617 1142 132.52H1141.28C1141.28 132.725 1141.31 132.905 1141.39 133.06C1141.47 133.212 1141.58 133.341 1141.71 133.445C1141.84 133.55 1142 133.628 1142.17 133.68C1142.35 133.732 1142.53 133.758 1142.72 133.758C1142.93 133.758 1143.12 133.73 1143.3 133.674C1143.48 133.616 1143.64 133.532 1143.77 133.421C1143.9 133.313 1144 133.179 1144.08 133.02C1144.15 132.86 1144.19 132.677 1144.19 132.472C1144.19 132.362 1144.18 132.255 1144.15 132.153C1144.13 132.048 1144.08 131.951 1144.03 131.861C1143.97 131.772 1143.89 131.693 1143.8 131.622C1143.71 131.55 1143.6 131.492 1143.47 131.448C1143.58 131.398 1143.68 131.336 1143.76 131.264C1143.84 131.192 1143.91 131.114 1143.96 131.032C1144.02 130.948 1144.06 130.86 1144.08 130.77C1144.11 130.68 1144.13 130.589 1144.13 130.499C1144.13 130.294 1144.09 130.114 1144.02 129.959C1143.95 129.805 1143.86 129.674 1143.73 129.568C1143.61 129.463 1143.46 129.385 1143.29 129.333C1143.11 129.279 1142.93 129.252 1142.72 129.252C1142.52 129.252 1142.33 129.282 1142.16 129.342C1141.99 129.402 1141.84 129.485 1141.72 129.592C1141.59 129.7 1141.5 129.828 1141.43 129.975C1141.36 130.121 1141.32 130.282 1141.32 130.457H1142.04C1142.04 130.362 1142.06 130.277 1142.09 130.201C1142.13 130.124 1142.18 130.059 1142.24 130.005C1142.3 129.95 1142.37 129.909 1142.45 129.881C1142.54 129.851 1142.63 129.836 1142.73 129.836C1142.84 129.836 1142.94 129.851 1143.02 129.881C1143.11 129.911 1143.18 129.953 1143.23 130.008C1143.29 130.066 1143.33 130.136 1143.36 130.219C1143.39 130.301 1143.41 130.394 1143.41 130.499C1143.41 130.595 1143.39 130.686 1143.36 130.77C1143.33 130.852 1143.28 130.922 1143.22 130.978C1143.16 131.042 1143.08 131.092 1142.99 131.128C1142.89 131.163 1142.78 131.18 1142.65 131.18H1142.22ZM1147.95 133.698V133.117H1145.91L1146.89 132.074C1147.02 131.938 1147.13 131.805 1147.24 131.677C1147.35 131.548 1147.45 131.421 1147.53 131.294C1147.61 131.168 1147.67 131.04 1147.71 130.912C1147.76 130.781 1147.78 130.646 1147.78 130.508C1147.78 130.323 1147.75 130.154 1147.69 130.002C1147.63 129.847 1147.54 129.714 1147.43 129.604C1147.31 129.494 1147.17 129.407 1147 129.345C1146.83 129.283 1146.64 129.252 1146.42 129.252C1146.19 129.252 1145.99 129.289 1145.8 129.363C1145.62 129.437 1145.46 129.538 1145.33 129.664C1145.2 129.791 1145.1 129.939 1145.03 130.11C1144.96 130.279 1144.92 130.459 1144.92 130.649H1145.65C1145.65 130.523 1145.66 130.41 1145.69 130.312C1145.73 130.212 1145.78 130.127 1145.84 130.059C1145.9 129.991 1145.98 129.938 1146.07 129.902C1146.17 129.866 1146.28 129.848 1146.41 129.848C1146.51 129.848 1146.6 129.865 1146.68 129.899C1146.76 129.933 1146.83 129.981 1146.89 130.041C1146.95 130.101 1146.99 130.173 1147.02 130.258C1147.05 130.342 1147.07 130.436 1147.07 130.538C1147.07 130.614 1147.06 130.691 1147.04 130.767C1147.02 130.841 1146.98 130.922 1146.93 131.008C1146.88 131.094 1146.82 131.19 1146.74 131.294C1146.66 131.397 1146.56 131.513 1146.44 131.644L1145.01 133.198V133.698H1147.95ZM1151.66 133.698V133.117H1149.62L1150.59 132.074C1150.72 131.938 1150.84 131.805 1150.95 131.677C1151.06 131.548 1151.15 131.421 1151.24 131.294C1151.31 131.168 1151.37 131.04 1151.42 130.912C1151.47 130.781 1151.49 130.646 1151.49 130.508C1151.49 130.323 1151.46 130.154 1151.4 130.002C1151.34 129.847 1151.25 129.714 1151.14 129.604C1151.02 129.494 1150.88 129.407 1150.7 129.345C1150.54 129.283 1150.34 129.252 1150.13 129.252C1149.9 129.252 1149.69 129.289 1149.51 129.363C1149.32 129.437 1149.16 129.538 1149.04 129.664C1148.91 129.791 1148.8 129.939 1148.73 130.11C1148.66 130.279 1148.63 130.459 1148.63 130.649H1149.35C1149.35 130.523 1149.37 130.41 1149.4 130.312C1149.43 130.212 1149.48 130.127 1149.54 130.059C1149.61 129.991 1149.69 129.938 1149.78 129.902C1149.87 129.866 1149.99 129.848 1150.11 129.848C1150.21 129.848 1150.31 129.865 1150.39 129.899C1150.47 129.933 1150.54 129.981 1150.6 130.041C1150.65 130.101 1150.7 130.173 1150.73 130.258C1150.76 130.342 1150.77 130.436 1150.77 130.538C1150.77 130.614 1150.76 130.691 1150.74 130.767C1150.72 130.841 1150.69 130.922 1150.64 131.008C1150.59 131.094 1150.52 131.19 1150.44 131.294C1150.36 131.397 1150.26 131.513 1150.14 131.644L1148.72 133.198V133.698H1151.66ZM1152.68 131.523L1153.26 131.665C1153.29 131.629 1153.33 131.595 1153.37 131.565C1153.42 131.533 1153.46 131.505 1153.51 131.481C1153.56 131.459 1153.62 131.441 1153.68 131.427C1153.74 131.413 1153.82 131.406 1153.9 131.406C1154.03 131.406 1154.15 131.428 1154.25 131.472C1154.35 131.514 1154.43 131.574 1154.49 131.653C1154.56 131.731 1154.61 131.823 1154.64 131.93C1154.68 132.034 1154.69 132.15 1154.69 132.276C1154.69 132.407 1154.68 132.528 1154.65 132.641C1154.62 132.751 1154.58 132.846 1154.52 132.924C1154.46 133.004 1154.39 133.067 1154.3 133.111C1154.21 133.155 1154.11 133.177 1153.99 133.177C1153.78 133.177 1153.62 133.12 1153.48 133.005C1153.35 132.891 1153.27 132.726 1153.25 132.511H1152.55C1152.56 132.714 1152.6 132.894 1152.69 133.051C1152.77 133.205 1152.88 133.335 1153.01 133.439C1153.14 133.546 1153.29 133.626 1153.46 133.68C1153.63 133.732 1153.8 133.758 1153.99 133.758C1154.23 133.758 1154.44 133.72 1154.62 133.644C1154.8 133.568 1154.95 133.463 1155.06 133.331C1155.18 133.198 1155.27 133.043 1155.33 132.867C1155.38 132.688 1155.41 132.498 1155.41 132.297C1155.41 132.07 1155.38 131.867 1155.32 131.686C1155.26 131.503 1155.18 131.348 1155.06 131.222C1154.95 131.093 1154.81 130.995 1154.65 130.927C1154.48 130.858 1154.3 130.824 1154.09 130.824C1153.94 130.824 1153.8 130.843 1153.68 130.881C1153.57 130.92 1153.47 130.96 1153.4 131.002L1153.52 129.95H1155.28V129.312H1152.92L1152.68 131.523ZM1156.39 131.523L1156.96 131.665C1157 131.629 1157.04 131.595 1157.08 131.565C1157.12 131.533 1157.17 131.505 1157.22 131.481C1157.27 131.459 1157.32 131.441 1157.38 131.427C1157.45 131.413 1157.52 131.406 1157.61 131.406C1157.74 131.406 1157.85 131.428 1157.95 131.472C1158.05 131.514 1158.13 131.574 1158.2 131.653C1158.27 131.731 1158.32 131.823 1158.35 131.93C1158.38 132.034 1158.4 132.15 1158.4 132.276C1158.4 132.407 1158.39 132.528 1158.36 132.641C1158.33 132.751 1158.29 132.846 1158.23 132.924C1158.17 133.004 1158.1 133.067 1158.01 133.111C1157.92 133.155 1157.81 133.177 1157.69 133.177C1157.49 133.177 1157.32 133.12 1157.19 133.005C1157.06 132.891 1156.98 132.726 1156.95 132.511H1156.25C1156.26 132.714 1156.31 132.894 1156.39 133.051C1156.48 133.205 1156.58 133.335 1156.72 133.439C1156.85 133.546 1157 133.626 1157.16 133.68C1157.33 133.732 1157.51 133.758 1157.69 133.758C1157.94 133.758 1158.15 133.72 1158.33 133.644C1158.51 133.568 1158.65 133.463 1158.77 133.331C1158.89 133.198 1158.98 133.043 1159.03 132.867C1159.09 132.688 1159.12 132.498 1159.12 132.297C1159.12 132.07 1159.09 131.867 1159.03 131.686C1158.97 131.503 1158.88 131.348 1158.77 131.222C1158.65 131.093 1158.52 130.995 1158.35 130.927C1158.19 130.858 1158 130.824 1157.8 130.824C1157.64 130.824 1157.51 130.843 1157.39 130.881C1157.27 130.92 1157.18 130.96 1157.11 131.002L1157.22 129.95H1158.98V129.312H1156.62L1156.39 131.523ZM1162.13 129.291H1162.05C1161.71 129.291 1161.41 129.344 1161.14 129.45C1160.88 129.557 1160.65 129.709 1160.47 129.908C1160.26 130.139 1160.11 130.415 1160.01 130.737C1159.92 131.056 1159.88 131.393 1159.88 131.746V132.044C1159.88 132.279 1159.91 132.503 1159.98 132.716C1160.05 132.927 1160.15 133.111 1160.28 133.267C1160.41 133.418 1160.56 133.538 1160.74 133.626C1160.92 133.714 1161.13 133.758 1161.36 133.758C1161.58 133.758 1161.78 133.72 1161.96 133.644C1162.13 133.566 1162.28 133.458 1162.41 133.322C1162.53 133.187 1162.62 133.029 1162.68 132.849C1162.74 132.666 1162.78 132.47 1162.78 132.261C1162.78 132.07 1162.75 131.887 1162.7 131.71C1162.65 131.533 1162.58 131.376 1162.47 131.24C1162.37 131.103 1162.24 130.995 1162.08 130.915C1161.92 130.834 1161.74 130.794 1161.53 130.794C1161.43 130.794 1161.33 130.806 1161.24 130.83C1161.15 130.852 1161.07 130.883 1160.99 130.924C1160.91 130.962 1160.84 131.007 1160.78 131.059C1160.71 131.109 1160.66 131.162 1160.61 131.216C1160.63 131.029 1160.67 130.854 1160.73 130.692C1160.8 130.529 1160.9 130.389 1161.02 130.273C1161.14 130.156 1161.29 130.066 1161.46 130.002C1161.64 129.935 1161.85 129.902 1162.09 129.902H1162.13V129.291ZM1161.35 131.378C1161.47 131.378 1161.57 131.403 1161.66 131.451C1161.75 131.497 1161.82 131.561 1161.88 131.644C1161.94 131.726 1161.99 131.822 1162.02 131.933C1162.05 132.041 1162.07 132.157 1162.07 132.279C1162.07 132.408 1162.05 132.527 1162.02 132.638C1161.99 132.746 1161.94 132.841 1161.88 132.921C1161.81 132.999 1161.74 133.062 1161.65 133.108C1161.56 133.152 1161.46 133.174 1161.35 133.174C1161.25 133.174 1161.15 133.151 1161.06 133.105C1160.97 133.059 1160.89 132.991 1160.82 132.903C1160.75 132.815 1160.7 132.704 1160.66 132.571C1160.62 132.439 1160.6 132.285 1160.6 132.111V131.888C1160.63 131.813 1160.67 131.746 1160.72 131.686C1160.77 131.626 1160.82 131.572 1160.88 131.526C1160.95 131.48 1161.02 131.444 1161.1 131.418C1161.18 131.392 1161.26 131.378 1161.35 131.378Z" fill="#2E3539"/>
<path d="M1228.7 50.449L1224.05 32.2446H1228.7V50.449Z" fill="#8EFE1C"/>
<path d="M1228.7 50.449L1233.34 32.2446H1228.7V50.449Z" fill="#8EFE1C"/>
<path d="M1228.7 14.0402L1233.34 32.2446L1228.7 32.2446L1228.7 14.0402Z" fill="#8EFE1C"/>
<path d="M1228.7 14.0402L1224.05 32.2446L1228.7 32.2446L1228.7 14.0402Z" fill="#8EFE1C"/>
<path d="M1246.9 32.2444L1228.7 36.8901L1228.7 32.2444L1246.9 32.2444Z" fill="#8EFE1C"/>
<path d="M1246.9 32.2443L1228.7 27.5986L1228.7 32.2443L1246.9 32.2443Z" fill="#8EFE1C"/>
<path d="M1210.49 32.2443L1228.7 27.5986L1228.7 32.2443L1210.49 32.2443Z" fill="#8EFE1C"/>
<path d="M1210.49 32.2444L1228.7 36.8901L1228.7 32.2444L1210.49 32.2444Z" fill="#8EFE1C"/>
<path d="M1237.82 41.3731L1226.37 34.5742L1228.7 32.2447L1237.82 41.3731Z" fill="#8EFE1C"/>
<path d="M1237.82 41.3731L1231.03 29.915L1228.7 32.2446L1237.82 41.3731Z" fill="#8EFE1C"/>
<path d="M1219.57 23.1161L1231.03 29.915L1228.7 32.2446L1219.57 23.1161Z" fill="#8EFE1C"/>
<path d="M1219.57 23.1162L1226.37 34.5742L1228.7 32.2447L1219.57 23.1162Z" fill="#8EFE1C"/>
<path d="M1237.82 23.1162L1231.03 34.5742L1228.7 32.2447L1237.82 23.1162Z" fill="#8EFE1C"/>
<path d="M1237.82 23.1161L1226.37 29.915L1228.7 32.2446L1237.82 23.1161Z" fill="#8EFE1C"/>
<path d="M1219.57 41.3731L1226.37 29.915L1228.7 32.2446L1219.57 41.3731Z" fill="#8EFE1C"/>
<path d="M1219.57 41.3731L1231.03 34.5742L1228.7 32.2447L1219.57 41.3731Z" fill="#8EFE1C"/>
<rect y="22" width="37.1566" height="8.61666" fill="#8EFE1C"/>
<rect y="115.601" width="37.1566" height="8.61666" fill="#8EFE1C"/>
<path d="M59.2998 22H74.4434L83.5851 31.1417V48.0799" stroke="#2E3539" stroke-width="1.5"/>
<path d="M59.2998 122.709H74.4434L83.5851 113.568V96.6296" stroke="#2E3539" stroke-width="1.5"/>
<line x1="83.9805" y1="71.0049" x2="139.151" y2="71.0049" stroke="#2E3539" stroke-width="1.5"/>
<path d="M154.031 76.7051C157.685 76.7051 159.841 74.7311 159.841 71.5111C159.841 68.2911 157.685 66.3171 154.031 66.3171C150.391 66.3171 148.221 68.2911 148.221 71.5111C148.221 74.7311 150.391 76.7051 154.031 76.7051ZM154.031 75.2211C151.497 75.2211 149.929 73.9611 149.929 71.5111C149.929 69.0611 151.497 67.8011 154.031 67.8011C156.551 67.8011 158.133 69.0611 158.133 71.5111C158.133 73.9611 156.551 75.2211 154.031 75.2211ZM162.179 76.5651C162.809 76.5651 163.257 76.1591 163.257 75.6131C163.257 75.0671 162.809 74.6331 162.179 74.6331C161.563 74.6331 161.115 75.0671 161.115 75.6131C161.115 76.1591 161.563 76.5651 162.179 76.5651ZM166.685 76.4111H168.365V66.6111H167.091C166.167 67.4231 164.921 68.1231 163.675 68.3051V69.7611C164.809 69.5791 165.845 69.2151 166.685 68.5571V76.4111Z" fill="#2E3539"/>
</svg>
