<svg width="390" height="272" viewBox="0 0 390 272" fill="none" xmlns="http://www.w3.org/2000/svg">
<g opacity="0.7">
<path d="M18.5664 0.734619V14.3899" stroke="#323232" stroke-width="1.5"/>
<path d="M18.5664 22.7297V36.385" stroke="#323232" stroke-width="1.5"/>
<path d="M0.742188 18.5598L14.3975 18.5598" stroke="#323232" stroke-width="1.5"/>
<path d="M22.7363 18.5598L36.3916 18.5598" stroke="#323232" stroke-width="1.5"/>
<path d="M136.219 0.734619V14.3899" stroke="white" stroke-width="1.5"/>
<path d="M136.219 22.7297V36.385" stroke="white" stroke-width="1.5"/>
<path d="M118.395 18.5598L132.05 18.5598" stroke="white" stroke-width="1.5"/>
<path d="M140.389 18.5598L154.044 18.5598" stroke="white" stroke-width="1.5"/>
<path d="M253.871 0.734619V14.3899" stroke="white" stroke-width="1.5"/>
<path d="M253.871 22.7297V36.385" stroke="white" stroke-width="1.5"/>
<path d="M236.047 18.5598L249.702 18.5598" stroke="white" stroke-width="1.5"/>
<path d="M258.041 18.5598L271.696 18.5598" stroke="white" stroke-width="1.5"/>
<path d="M371.523 0.734619V14.3899" stroke="#323232" stroke-width="1.5"/>
<path d="M371.523 22.7297V36.385" stroke="#323232" stroke-width="1.5"/>
<path d="M353.699 18.5598L367.354 18.5598" stroke="#323232" stroke-width="1.5"/>
<path d="M375.693 18.5598L389.349 18.5598" stroke="#323232" stroke-width="1.5"/>
<path d="M18.5664 118.385V132.041" stroke="#323232" stroke-width="1.5"/>
<path d="M18.5664 140.38V154.036" stroke="#323232" stroke-width="1.5"/>
<path d="M0.742188 136.21L14.3975 136.21" stroke="#323232" stroke-width="1.5"/>
<path d="M22.7363 136.21L36.3916 136.21" stroke="#323232" stroke-width="1.5"/>
<path d="M136.219 118.386V132.041" stroke="#323232" stroke-width="1.5"/>
<path d="M136.219 140.381V154.036" stroke="#323232" stroke-width="1.5"/>
<path d="M118.395 136.211L132.05 136.211" stroke="#323232" stroke-width="1.5"/>
<path d="M140.389 136.211L154.044 136.211" stroke="#323232" stroke-width="1.5"/>
<path d="M253.871 118.386V132.041" stroke="white" stroke-width="1.5"/>
<path d="M253.871 140.381V154.036" stroke="white" stroke-width="1.5"/>
<path d="M236.047 136.211L249.702 136.211" stroke="white" stroke-width="1.5"/>
<path d="M258.041 136.211L271.696 136.211" stroke="white" stroke-width="1.5"/>
<path d="M371.523 118.385V132.041" stroke="#8EFE1C" stroke-width="1.5"/>
<path d="M371.523 140.38V154.036" stroke="#8EFE1C" stroke-width="1.5"/>
<path d="M353.699 136.21L367.354 136.21" stroke="#8EFE1C" stroke-width="1.5"/>
<path d="M375.693 136.21L389.349 136.21" stroke="#8EFE1C" stroke-width="1.5"/>
<path d="M18.5664 236.035V249.69" stroke="#8EFE1C" stroke-width="1.5"/>
<path d="M18.5664 258.03V271.686" stroke="#8EFE1C" stroke-width="1.5"/>
<path d="M0.742188 253.86L14.3975 253.86" stroke="#8EFE1C" stroke-width="1.5"/>
<path d="M22.7363 253.86L36.3916 253.86" stroke="#8EFE1C" stroke-width="1.5"/>
<path d="M136.219 236.036V249.691" stroke="#323232" stroke-width="1.5"/>
<path d="M136.219 258.031V271.687" stroke="#323232" stroke-width="1.5"/>
<path d="M118.395 253.861L132.05 253.861" stroke="#323232" stroke-width="1.5"/>
<path d="M140.389 253.861L154.044 253.861" stroke="#323232" stroke-width="1.5"/>
<path d="M253.871 236.035V249.69" stroke="#323232" stroke-width="1.5"/>
<path d="M253.871 258.03V271.686" stroke="#323232" stroke-width="1.5"/>
<path d="M236.047 253.86L249.702 253.86" stroke="#323232" stroke-width="1.5"/>
<path d="M258.041 253.86L271.696 253.86" stroke="#323232" stroke-width="1.5"/>
<path d="M371.523 236.036V249.691" stroke="#323232" stroke-width="1.5"/>
<path d="M371.523 258.031V271.687" stroke="#323232" stroke-width="1.5"/>
<path d="M353.699 253.861L367.354 253.861" stroke="#323232" stroke-width="1.5"/>
<path d="M375.693 253.861L389.349 253.861" stroke="#323232" stroke-width="1.5"/>
</g>
</svg>
