<svg width="1165" height="381" viewBox="0 0 1165 381" fill="none" xmlns="http://www.w3.org/2000/svg">
<path opacity="0.4" d="M102.943 65.8542L103.097 63.9879L103.092 63.9875L102.943 65.8542ZM97.1031 36.4233L97.1203 34.5507L97.1117 34.5506H97.1031V36.4233ZM162.739 54.6425L161.659 56.173L163.09 57.1819L164.193 55.8221L162.739 54.6425ZM186.797 24.978L188.252 26.1576L189.511 24.6052L187.88 23.4498L186.797 24.978ZM100.14 106.263L99.9782 108.129L99.9841 108.13L100.14 106.263ZM25.8618 113.504L27.0691 112.073L25.6424 110.869L24.4343 112.292L25.8618 113.504ZM0.868881 142.935L-0.558578 141.723L-1.80682 143.193L-0.300995 144.397L0.868881 142.935ZM103.092 63.9875C88.4221 62.8139 76.574 61.8883 68.3728 59.9166C64.2707 58.9303 61.2969 57.7283 59.3782 56.2555C57.5521 54.8538 56.6982 53.2319 56.6982 51.1388H52.9527C52.9527 54.5348 54.4638 57.2049 57.0976 59.2266C59.6388 61.1772 63.2198 62.5299 67.4973 63.5582C76.0553 65.6157 88.2658 66.5588 102.793 67.721L103.092 63.9875ZM56.6982 51.1388C56.6982 48.9395 57.7509 47.0596 59.8907 45.3883C62.0771 43.6806 65.2944 42.2885 69.2723 41.2088C77.2107 39.0541 87.5869 38.2961 97.1031 38.2961V34.5506C87.4659 34.5506 76.7033 35.3109 68.2912 37.5942C64.0939 38.7334 60.3331 40.2902 57.5851 42.4366C54.7905 44.6193 52.9527 47.4986 52.9527 51.1388H56.6982ZM97.086 38.296C122.31 38.5274 143.852 43.6161 161.659 56.173L163.818 53.112C145.188 39.9752 122.816 34.7865 97.1203 34.5507L97.086 38.296ZM164.193 55.8221L188.252 26.1576L185.343 23.7984L161.284 53.4628L164.193 55.8221ZM187.88 23.4498C165.048 7.2776 132.398 -1.18685 97.1031 -1.18685V2.55859C131.882 2.55859 163.699 10.9118 185.715 26.5062L187.88 23.4498ZM97.1031 -1.18685C70.9836 -1.18685 48.2008 3.63114 31.8771 13.0188C15.4866 22.4448 5.53635 36.5478 5.53635 54.876H9.28178C9.28178 38.1676 18.2514 25.1754 33.7443 16.2656C49.304 7.31731 71.3683 2.55859 97.1031 2.55859V-1.18685ZM5.53635 54.876C5.53635 64.3979 8.43204 72.3128 13.5968 78.8476C18.7368 85.3512 26.0532 90.4007 34.7812 94.3626C52.2002 102.27 75.6559 106.024 99.9782 108.129L100.301 104.398C76.0391 102.298 53.1295 98.5781 36.3293 90.9521C27.9477 87.1475 21.191 82.4159 16.5353 76.5252C11.9044 70.6658 9.28178 63.5733 9.28178 54.876H5.53635ZM99.9841 108.13C116.828 109.533 128.283 111.099 135.508 113.555C139.107 114.778 141.471 116.163 142.926 117.7C144.324 119.177 144.983 120.894 144.983 123.081H148.728C148.728 120.012 147.752 117.35 145.646 115.125C143.598 112.962 140.589 111.325 136.713 110.008C128.989 107.383 117.087 105.796 100.295 104.397L99.9841 108.13ZM144.983 123.081C144.983 125.317 144.269 127.212 142.821 128.859C141.34 130.544 139.015 132.05 135.687 133.298C129.003 135.805 118.767 137.092 104.811 137.092V140.837C118.885 140.837 129.671 139.554 137.002 136.805C140.681 135.426 143.612 133.632 145.634 131.332C147.69 128.993 148.728 126.217 148.728 123.081H144.983ZM104.811 137.092C72.456 137.092 46.0514 128.082 27.0691 112.073L24.6544 114.936C44.4461 131.628 71.7645 140.837 104.811 140.837V137.092ZM24.4343 112.292L-0.558578 141.723L2.29633 144.147L27.2892 114.716L24.4343 112.292ZM-0.300995 144.397C25.7895 165.27 61.4988 176.808 103.877 176.808V173.063C62.1668 173.063 27.3354 161.71 2.03876 141.473L-0.300995 144.397ZM103.877 176.808C133.744 176.808 156.749 171.052 172.347 160.853C188.027 150.601 196.144 135.897 196.144 118.409H192.399C192.399 134.557 184.984 148.116 170.298 157.718C155.531 167.373 133.338 173.063 103.877 173.063V176.808ZM196.144 118.409C196.144 108.675 193.689 100.585 189.064 93.892C184.451 87.2159 177.764 82.0517 169.487 78.0109C152.999 69.9604 129.855 66.208 103.097 63.9879L102.788 67.7205C129.52 69.9385 152.04 73.6605 167.844 81.3766C175.714 85.219 181.83 90.0111 185.983 96.0212C190.124 102.014 192.399 109.34 192.399 118.409H196.144ZM221.073 6.05817V4.18546H219.2V6.05817H221.073ZM221.073 169.563H219.2V171.436H221.073V169.563ZM268.723 169.563V171.436H270.596V169.563H268.723ZM268.723 120.512V118.639H266.85V120.512H268.723ZM268.723 85.942H266.85V87.8147H268.723V85.942ZM268.723 42.2628V40.3901H266.85V42.2628H268.723ZM334.592 4.18546H221.073V7.93089H334.592V4.18546ZM219.2 6.05817V169.563H222.946V6.05817H219.2ZM221.073 171.436H268.723V167.69H221.073V171.436ZM270.596 169.563V120.512H266.85V169.563H270.596ZM268.723 122.384H334.592V118.639H268.723V122.384ZM334.592 122.384C357.13 122.384 376.143 117.552 389.57 107.685C403.078 97.7587 410.743 82.8726 410.743 63.2849H406.997C406.997 81.7704 399.83 95.4977 387.352 104.667C374.794 113.895 356.668 118.639 334.592 118.639V122.384ZM410.743 63.2849C410.743 43.925 403.074 29.0439 389.574 19.0634C376.15 9.13858 357.139 4.18546 334.592 4.18546V7.93089C356.659 7.93089 374.786 12.7881 387.348 22.0751C399.834 31.3064 406.997 45.0387 406.997 63.2849H410.743ZM330.621 84.0692H268.723V87.8147H330.621V84.0692ZM270.596 85.942V42.2628H266.85V85.942H270.596ZM268.723 44.1355H330.621V40.3901H268.723V44.1355ZM330.621 44.1355C339.376 44.1355 346.408 45.473 351.207 48.5921C355.852 51.6117 358.646 56.4612 358.646 64.2192H362.392C362.392 55.3931 359.113 49.2644 353.248 45.4518C347.535 41.7388 339.619 40.3901 330.621 40.3901V44.1355ZM358.646 64.2192C358.646 71.8497 355.86 76.6427 351.213 79.6378C346.411 82.7321 339.375 84.0692 330.621 84.0692V87.8147C339.62 87.8147 347.532 86.4657 353.242 82.7861C359.105 79.0076 362.392 72.9391 362.392 64.2192H358.646ZM627.997 169.563V171.436H632.095L629.413 168.337L627.997 169.563ZM579.88 113.971L579.357 112.173L576.553 112.989L578.464 115.197L579.88 113.971ZM433.894 6.05817V4.18546H432.021V6.05817H433.894ZM433.894 169.563H432.021V171.436H433.894V169.563ZM481.31 169.563V171.436H483.183V169.563H481.31ZM481.31 117.942V116.069H479.438V117.942H481.31ZM529.427 117.942L530.863 116.74L530.302 116.069H529.427V117.942ZM572.639 169.563L571.203 170.765L571.765 171.436H572.639V169.563ZM481.077 83.3726H479.204V85.2453H481.077V83.3726ZM481.077 42.2628V40.3901H479.204V42.2628H481.077ZM629.413 168.337L581.296 112.746L578.464 115.197L626.581 170.789L629.413 168.337ZM580.403 115.77C593.504 111.959 604.594 105.608 612.418 96.6008C620.264 87.5686 624.731 75.972 624.731 61.8834H620.986C620.986 75.1235 616.81 85.8335 609.591 94.1446C602.35 102.48 591.951 108.51 579.357 112.173L580.403 115.77ZM624.731 61.8834C624.731 42.5692 616.302 28.0451 602.468 18.4189C588.712 8.84666 569.727 4.18546 548.581 4.18546V7.93089C569.246 7.93089 587.399 12.496 600.329 21.4933C613.182 30.4366 620.986 43.8251 620.986 61.8834H624.731ZM548.581 4.18546H433.894V7.93089H548.581V4.18546ZM432.021 6.05817V169.563H435.767V6.05817H432.021ZM433.894 171.436H481.31V167.69H433.894V171.436ZM483.183 169.563V117.942H479.438V169.563H483.183ZM481.31 119.815H529.427V116.069H481.31V119.815ZM527.991 119.144L571.203 170.765L574.075 168.361L530.863 116.74L527.991 119.144ZM572.639 171.436H627.997V167.69H572.639V171.436ZM482.949 83.3726V42.2628H479.204V83.3726H482.949ZM481.077 44.1355H545.077V40.3901H481.077V44.1355ZM545.077 44.1355C553.502 44.1355 560.438 45.3028 565.219 48.1875C569.828 50.9679 572.635 55.4638 572.635 62.8177H576.381C576.381 54.2882 572.999 48.5067 567.154 44.9805C561.483 41.5586 553.704 40.3901 545.077 40.3901V44.1355ZM572.635 62.8177C572.635 70.1716 569.828 74.6675 565.219 77.4479C560.438 80.3326 553.502 81.4999 545.077 81.4999V85.2453C553.704 85.2453 561.483 84.0768 567.154 80.6549C572.999 77.1287 576.381 71.3472 576.381 62.8177H572.635ZM545.077 81.4999H481.077V85.2453H545.077V81.4999ZM701.208 169.563V171.436H703.08V169.563H701.208ZM701.208 6.05817H703.08V4.18546H701.208V6.05817ZM653.558 6.05817V4.18546H651.685V6.05817H653.558ZM653.558 169.563H651.685V171.436H653.558V169.563ZM703.08 169.563V6.05817H699.335V169.563H703.08ZM701.208 4.18546H653.558V7.93089H701.208V4.18546ZM651.685 6.05817V169.563H655.43V6.05817H651.685ZM653.558 171.436H701.208V167.69H653.558V171.436ZM887.169 6.05817V4.18546H885.296V6.05817H887.169ZM887.169 106.03L885.824 107.333L889.042 110.651V106.03H887.169ZM790.234 6.05817L791.578 4.75454L791.027 4.18546H790.234V6.05817ZM739.781 6.05817V4.18546H737.908V6.05817H739.781ZM739.781 169.563H737.908V171.436H739.781V169.563ZM785.796 169.563V171.436H787.669V169.563H785.796ZM785.796 62.117L787.132 60.8044L783.923 57.5391V62.117H785.796ZM891.373 169.563L890.038 170.876L890.588 171.436H891.373V169.563ZM933.184 169.563V171.436H935.057V169.563H933.184ZM933.184 6.05817H935.057V4.18546H933.184V6.05817ZM885.296 6.05817V106.03H889.042V6.05817H885.296ZM888.513 104.726L791.578 4.75454L788.889 7.36181L885.824 107.333L888.513 104.726ZM790.234 4.18546H739.781V7.93089H790.234V4.18546ZM737.908 6.05817V169.563H741.654V6.05817H737.908ZM739.781 171.436H785.796V167.69H739.781V171.436ZM787.669 169.563V62.117H783.923V169.563H787.669ZM784.46 63.4295L890.038 170.876L892.709 168.25L787.132 60.8044L784.46 63.4295ZM891.373 171.436H933.184V167.69H891.373V171.436ZM935.057 169.563V6.05817H931.311V169.563H935.057ZM933.184 4.18546H887.169V7.93089H933.184V4.18546ZM1164.24 74.9638H1166.11V73.0911H1164.24V74.9638ZM1065.9 74.9638V73.0911H1064.03V74.9638H1065.9ZM1065.9 108.365H1064.03V110.238H1065.9V108.365ZM1120.09 108.365H1121.96V106.493H1120.09V108.365ZM1120.09 123.081L1121.36 124.46L1121.96 123.904V123.081H1120.09ZM1122.66 56.5111L1121.41 57.9031L1122.54 58.9252L1123.77 58.0177L1122.66 56.5111ZM1157.46 30.8175L1158.58 32.3241L1160.39 30.9845L1158.74 29.4472L1157.46 30.8175ZM1164.24 138.731L1165.69 139.906L1166.11 139.392V138.731H1164.24ZM1164.24 73.0911H1065.9V76.8365H1164.24V73.0911ZM1064.03 74.9638V108.365H1067.77V74.9638H1064.03ZM1065.9 110.238H1120.09V106.493H1065.9V110.238ZM1118.22 108.365V123.081H1121.96V108.365H1118.22ZM1118.82 121.702C1107.88 131.754 1092.55 135.69 1072.67 135.69V139.435C1092.97 139.435 1109.41 135.43 1121.36 124.46L1118.82 121.702ZM1072.67 135.69C1053.06 135.69 1038 131.359 1027.88 123.309C1017.83 115.312 1012.41 103.455 1012.41 87.8106H1008.67C1008.67 104.4 1014.46 117.419 1025.55 126.24C1036.57 135.008 1052.58 139.435 1072.67 139.435V135.69ZM1012.41 87.8106C1012.41 72.2679 1017.67 60.47 1027.54 52.5091C1037.48 44.4962 1052.36 40.1647 1071.97 40.1647V36.4193C1051.88 36.4193 1036.04 40.847 1025.19 49.5933C1014.28 58.3916 1008.67 71.353 1008.67 87.8106H1012.41ZM1071.97 40.1647C1093.51 40.1647 1107.77 45.6292 1121.41 57.9031L1123.91 55.1191C1109.52 42.1665 1094.35 36.4193 1071.97 36.4193V40.1647ZM1123.77 58.0177L1158.58 32.3241L1156.35 29.3108L1121.55 55.0045L1123.77 58.0177ZM1158.74 29.4472C1141.32 13.2244 1111.66 -1.18685 1070.81 -1.18685V2.55859C1110.77 2.55859 1139.5 16.6439 1156.19 32.1878L1158.74 29.4472ZM1070.81 -1.18685C1037.02 -1.18685 1009.41 6.81561 990.197 22.0206C970.932 37.2708 960.319 59.6156 960.319 87.8106H964.064C964.064 60.6475 974.239 39.43 992.522 24.9573C1010.86 10.4395 1037.55 2.55859 1070.81 2.55859V-1.18685ZM960.319 87.8106C960.319 116.006 970.932 138.35 990.197 153.601C1009.41 168.806 1037.02 176.808 1070.81 176.808V173.063C1037.55 173.063 1010.86 165.182 992.522 150.664C974.239 136.191 964.064 114.974 964.064 87.8106H960.319ZM1070.81 176.808C1114.87 176.808 1147.72 162.196 1165.69 139.906L1162.78 137.555C1145.72 158.711 1114.1 173.063 1070.81 173.063V176.808ZM1166.11 138.731V74.9638H1162.36V138.731H1166.11ZM192.363 243.591L190.907 242.413L189.827 243.748L191.063 244.94L192.363 243.591ZM218.29 268.584L216.99 269.932L218.305 271.2L219.605 269.917L218.29 268.584ZM271.78 282.365L272.314 284.16L272.33 284.155L272.345 284.151L271.78 282.365ZM190.027 355.008L188.171 354.761L188.154 354.884V355.008H190.027ZM190.027 375.563H188.154V377.436H190.027V375.563ZM365.444 375.563V377.436H367.317V375.563H365.444ZM365.444 339.592H367.317V337.719H365.444V339.592ZM246.086 339.592L244.508 338.584L242.667 341.465H246.086V339.592ZM300.276 312.964L299.729 311.173L299.717 311.177L300.276 312.964ZM191.063 244.94L216.99 269.932L219.59 267.236L193.663 242.243L191.063 244.94ZM219.605 269.917C236.593 253.159 256.693 244.062 278.553 244.062V240.317C255.567 240.317 234.556 249.907 216.975 267.251L219.605 269.917ZM278.553 244.062C287.388 244.062 295.998 245.444 302.327 248.093C308.758 250.784 312.185 254.464 312.185 258.774H315.93C315.93 252.106 310.598 247.494 303.773 244.637C296.846 241.738 287.705 240.317 278.553 240.317V244.062ZM312.185 258.774C312.185 260.916 311.296 262.845 309.438 264.723C307.542 266.639 304.695 268.432 300.967 270.189C293.492 273.712 283.091 276.817 271.214 280.58L272.345 284.151C284.06 280.439 294.797 277.237 302.563 273.577C306.456 271.743 309.755 269.727 312.1 267.358C314.482 264.951 315.93 262.121 315.93 258.774H312.185ZM271.245 280.571C222.371 295.139 192.519 322.146 188.171 354.761L191.883 355.256C195.944 324.804 224.02 298.555 272.314 284.16L271.245 280.571ZM188.154 355.008V375.563H191.9V355.008H188.154ZM190.027 377.436H365.444V373.69H190.027V377.436ZM367.317 375.563V339.592H363.572V375.563H367.317ZM365.444 337.719H246.086V341.465H365.444V337.719ZM247.664 340.6C248.811 338.806 250.954 336.785 254.107 334.607C257.232 332.448 261.225 330.219 265.931 327.967C275.34 323.465 287.453 318.94 300.836 314.751L299.717 311.177C286.238 315.396 273.942 319.982 264.314 324.589C259.501 326.892 255.32 329.217 251.978 331.525C248.663 333.815 246.047 336.174 244.508 338.584L247.664 340.6ZM300.823 314.755C318.894 309.24 334.639 302.38 345.894 293.25C357.211 284.07 364.047 272.536 364.047 257.84H360.302C360.302 271.173 354.174 281.711 343.535 290.342C332.833 299.022 317.629 305.71 299.729 311.173L300.823 314.755ZM364.047 257.84C364.047 239.3 352.941 226.092 337.101 217.619C321.304 209.167 300.595 205.28 280.656 205.28V209.026C300.191 209.026 320.241 212.847 335.335 220.921C350.386 228.973 360.302 241.109 360.302 257.84H364.047ZM280.656 205.28C241.428 205.28 208.145 221.105 190.907 242.413L193.819 244.769C210.216 224.5 242.335 209.026 280.656 209.026V205.28ZM487.841 382.808C519.555 382.808 545.549 374.733 563.647 359.476C581.787 344.185 591.788 321.851 591.788 293.811H588.042C588.042 320.895 578.422 342.123 561.233 356.613C544.003 371.138 518.961 379.063 487.841 379.063V382.808ZM591.788 293.811C591.788 265.77 581.787 243.436 563.647 228.145C545.549 212.888 519.555 204.813 487.841 204.813V208.559C518.961 208.559 544.003 216.484 561.233 231.008C578.422 245.498 588.042 266.726 588.042 293.811H591.788ZM487.841 204.813C456.243 204.813 430.307 212.889 412.238 228.146C394.129 243.437 384.128 265.771 384.128 293.811H387.874C387.874 266.726 397.494 245.497 414.655 231.007C431.856 216.483 456.84 208.559 487.841 208.559V204.813ZM384.128 293.811C384.128 321.851 394.129 344.184 412.238 359.475C430.307 374.732 456.243 382.808 487.841 382.808V379.063C456.84 379.063 431.856 371.138 414.655 356.614C397.494 342.124 387.874 320.895 387.874 293.811H384.128ZM488.075 340.289C471.552 340.289 458.621 336.1 449.842 328.322C441.097 320.573 436.225 309.042 436.225 293.811H432.479C432.479 309.879 437.65 322.523 447.358 331.125C457.032 339.697 470.962 344.034 488.075 344.034V340.289ZM436.225 293.811C436.225 278.579 441.097 267.048 449.842 259.3C458.621 251.521 471.552 247.333 488.075 247.333V243.587C470.962 243.587 457.032 247.925 447.358 256.496C437.65 265.098 432.479 277.743 432.479 293.811H436.225ZM488.075 247.333C504.478 247.333 517.35 251.519 526.101 259.298C534.819 267.047 539.692 278.579 539.692 293.811H543.437C543.437 277.743 538.266 265.1 528.589 256.498C518.946 247.926 505.073 243.587 488.075 243.587V247.333ZM539.692 293.811C539.692 309.042 534.819 320.575 526.101 328.324C517.35 336.102 504.478 340.289 488.075 340.289V344.034C505.073 344.034 518.946 339.695 528.589 331.123C538.266 322.521 543.437 309.878 543.437 293.811H539.692ZM610.477 243.591L609.021 242.413L607.941 243.748L609.177 244.94L610.477 243.591ZM636.404 268.584L635.105 269.932L636.419 271.2L637.719 269.917L636.404 268.584ZM689.894 282.365L690.429 284.16L690.444 284.155L690.459 284.151L689.894 282.365ZM608.141 355.008L606.285 354.761L606.269 354.884V355.008H608.141ZM608.141 375.563H606.269V377.436H608.141V375.563ZM783.559 375.563V377.436H785.431V375.563H783.559ZM783.559 339.592H785.431V337.719H783.559V339.592ZM664.2 339.592L662.622 338.584L660.781 341.465H664.2V339.592ZM718.39 312.964L717.844 311.173L717.831 311.177L718.39 312.964ZM609.177 244.94L635.105 269.932L637.704 267.236L611.777 242.243L609.177 244.94ZM637.719 269.917C654.708 253.159 674.807 244.062 696.668 244.062V240.317C673.681 240.317 652.671 249.907 635.089 267.251L637.719 269.917ZM696.668 244.062C705.502 244.062 714.113 245.444 720.441 248.093C726.872 250.784 730.299 254.464 730.299 258.774H734.044C734.044 252.106 728.712 247.494 721.887 244.637C714.96 241.738 705.819 240.317 696.668 240.317V244.062ZM730.299 258.774C730.299 260.916 729.411 262.845 727.552 264.723C725.656 266.639 722.809 268.432 719.081 270.189C711.606 273.712 701.205 276.817 689.328 280.58L690.459 284.151C702.174 280.439 712.911 277.237 720.678 273.577C724.57 271.743 727.869 269.727 730.214 267.358C732.596 264.951 734.044 262.121 734.044 258.774H730.299ZM689.359 280.571C640.485 295.139 610.634 322.146 606.285 354.761L609.998 355.256C614.058 324.804 642.134 298.555 690.429 284.16L689.359 280.571ZM606.269 355.008V375.563H610.014V355.008H606.269ZM608.141 377.436H783.559V373.69H608.141V377.436ZM785.431 375.563V339.592H781.686V375.563H785.431ZM783.559 337.719H664.2V341.465H783.559V337.719ZM665.778 340.6C666.925 338.806 669.068 336.785 672.221 334.607C675.346 332.448 679.34 330.219 684.045 327.967C693.454 323.465 705.567 318.94 718.95 314.751L717.831 311.177C704.352 315.396 692.056 319.982 682.428 324.589C677.616 326.892 673.434 329.217 670.092 331.525C666.777 333.815 664.162 336.174 662.622 338.584L665.778 340.6ZM718.937 314.755C737.008 309.24 752.753 302.38 764.008 293.25C775.325 284.07 782.161 272.536 782.161 257.84H778.416C778.416 271.173 772.288 281.711 761.649 290.342C750.948 299.022 735.743 305.71 717.844 311.173L718.937 314.755ZM782.161 257.84C782.161 239.3 771.055 226.092 755.216 217.619C739.418 209.167 718.709 205.28 698.77 205.28V209.026C718.305 209.026 738.356 212.847 753.449 220.921C768.5 228.973 778.416 241.109 778.416 257.84H782.161ZM698.77 205.28C659.542 205.28 626.259 221.105 609.021 242.413L611.933 244.769C628.33 224.5 660.449 209.026 698.77 209.026V205.28ZM805.05 243.591L803.594 242.413L802.514 243.748L803.75 244.94L805.05 243.591ZM830.977 268.584L829.677 269.932L830.992 271.2L832.292 269.917L830.977 268.584ZM884.466 282.365L885.001 284.16L885.017 284.155L885.032 284.151L884.466 282.365ZM802.714 355.008L800.858 354.761L800.841 354.884V355.008H802.714ZM802.714 375.563H800.841V377.436H802.714V375.563ZM978.131 375.563V377.436H980.004V375.563H978.131ZM978.131 339.592H980.004V337.719H978.131V339.592ZM858.773 339.592L857.195 338.584L855.354 341.465H858.773V339.592ZM912.963 312.964L912.416 311.173L912.403 311.177L912.963 312.964ZM803.75 244.94L829.677 269.932L832.277 267.236L806.349 242.243L803.75 244.94ZM832.292 269.917C849.28 253.159 869.38 244.062 891.24 244.062V240.317C868.254 240.317 847.243 249.907 829.662 267.251L832.292 269.917ZM891.24 244.062C900.074 244.062 908.685 245.444 915.014 248.093C921.445 250.784 924.871 254.464 924.871 258.774H928.617C928.617 252.106 923.284 247.494 916.46 244.637C909.533 241.738 900.391 240.317 891.24 240.317V244.062ZM924.871 258.774C924.871 260.916 923.983 262.845 922.125 264.723C920.229 266.639 917.382 268.432 913.654 270.189C906.179 273.712 895.778 276.817 883.901 280.58L885.032 284.151C896.746 280.439 907.484 277.237 915.25 273.577C919.142 271.743 922.442 269.727 924.787 267.358C927.169 264.951 928.617 262.121 928.617 258.774H924.871ZM883.931 280.571C835.057 295.139 805.206 322.146 800.858 354.761L804.57 355.256C808.63 324.804 836.707 298.555 885.001 284.16L883.931 280.571ZM800.841 355.008V375.563H804.587V355.008H800.841ZM802.714 377.436H978.131V373.69H802.714V377.436ZM980.004 375.563V339.592H976.259V375.563H980.004ZM978.131 337.719H858.773V341.465H978.131V337.719ZM860.351 340.6C861.497 338.806 863.641 336.785 866.793 334.607C869.919 332.448 873.912 330.219 878.618 327.967C888.027 323.465 900.14 318.94 913.522 314.751L912.403 311.177C898.924 315.396 886.629 319.982 877.001 324.589C872.188 326.892 868.006 329.217 864.665 331.525C861.35 333.815 858.734 336.174 857.195 338.584L860.351 340.6ZM913.51 314.755C931.581 309.24 947.326 302.38 958.581 293.25C969.898 284.07 976.734 272.536 976.734 257.84H972.989C972.989 271.173 966.861 281.711 956.221 290.342C945.52 299.022 930.316 305.71 912.416 311.173L913.51 314.755ZM976.734 257.84C976.734 239.3 965.627 226.092 949.788 217.619C933.991 209.167 913.282 205.28 893.342 205.28V209.026C912.878 209.026 932.928 212.847 948.021 220.921C963.073 228.973 972.989 241.109 972.989 257.84H976.734ZM893.342 205.28C854.115 205.28 820.832 221.105 803.594 242.413L806.506 244.769C822.903 224.5 855.022 209.026 893.342 209.026V205.28Z" fill="url(#paint0_linear_247_50)"/>
<defs>
<linearGradient id="paint0_linear_247_50" x1="244.831" y1="384.015" x2="244.831" y2="-88.3691" gradientUnits="userSpaceOnUse">
<stop stop-color="white"/>
<stop offset="1" stop-color="white" stop-opacity="0"/>
</linearGradient>
</defs>
</svg>
