<svg width="102" height="66" viewBox="0 0 102 66" fill="none" xmlns="http://www.w3.org/2000/svg">
<path d="M79.5576 27.4075H91.6103L95.3745 23.652V13.0431L83.2268 0.899902H58.1639L54.8821 4.18047H42.0254L21.5234 23.2136H75.3695L79.5576 27.4075Z" fill="#8EFE1C"/>
<path d="M67.0684 30.4102L82.264 45.3298H101.597L86.6787 30.4102H67.0684Z" fill="#8EFE1C"/>
<path d="M46.3025 45.5501L62.1267 29.7245L59.2542 26.8604H41.1716L36.5449 31.3684H31.0339L0.445312 61.9383H31.4505L35.1416 65.628H51.375L46.3025 60.5574V45.5501Z" fill="#8EFE1C"/>
<path d="M53.998 42.6207L54.0273 56.8535L67.0667 65.6285H69.5884L79.0244 57.2042V47.2456L64.3697 32.2529L53.998 42.6207Z" fill="#8EFE1C"/>
</svg>
