<svg width="239" height="168" viewBox="0 0 239 168" fill="none" xmlns="http://www.w3.org/2000/svg">
<g opacity="0.3">
<path d="M11.3418 0.9375V9.31139" stroke="#323232" stroke-width="1.5"/>
<path d="M11.3418 14.4258V22.7997" stroke="#323232" stroke-width="1.5"/>
<path d="M0.410156 11.8687L8.78404 11.8687" stroke="#323232" stroke-width="1.5"/>
<path d="M13.8984 11.8687L22.2723 11.8687" stroke="#323232" stroke-width="1.5"/>
<path d="M83.4902 0.9375V9.31139" stroke="white" stroke-width="1.5"/>
<path d="M83.4902 14.4258V22.7997" stroke="white" stroke-width="1.5"/>
<path d="M72.5586 11.8687L80.9325 11.8687" stroke="white" stroke-width="1.5"/>
<path d="M86.0469 11.8687L94.4208 11.8687" stroke="white" stroke-width="1.5"/>
<path d="M155.639 0.9375V9.31139" stroke="white" stroke-width="1.5"/>
<path d="M155.639 14.4258V22.7997" stroke="white" stroke-width="1.5"/>
<path d="M144.707 11.8687L153.081 11.8687" stroke="white" stroke-width="1.5"/>
<path d="M158.195 11.8687L166.569 11.8687" stroke="white" stroke-width="1.5"/>
<path d="M227.787 0.9375V9.31139" stroke="#323232" stroke-width="1.5"/>
<path d="M227.787 14.4258V22.7997" stroke="#323232" stroke-width="1.5"/>
<path d="M216.855 11.8687L225.229 11.8687" stroke="#323232" stroke-width="1.5"/>
<path d="M230.344 11.8687L238.718 11.8687" stroke="#323232" stroke-width="1.5"/>
<path d="M11.3418 73.085V81.4588" stroke="#323232" stroke-width="1.5"/>
<path d="M11.3418 86.5732V94.9471" stroke="#323232" stroke-width="1.5"/>
<path d="M0.410156 84.0161L8.78404 84.0161" stroke="#323232" stroke-width="1.5"/>
<path d="M13.8984 84.0161L22.2723 84.0161" stroke="#323232" stroke-width="1.5"/>
<path d="M83.4902 73.0854V81.4593" stroke="#323232" stroke-width="1.5"/>
<path d="M83.4902 86.5737V94.9476" stroke="#323232" stroke-width="1.5"/>
<path d="M72.5586 84.0166L80.9325 84.0166" stroke="#323232" stroke-width="1.5"/>
<path d="M86.0469 84.0166L94.4208 84.0166" stroke="#323232" stroke-width="1.5"/>
<path d="M155.639 73.0854V81.4593" stroke="white" stroke-width="1.5"/>
<path d="M155.639 86.5737V94.9476" stroke="white" stroke-width="1.5"/>
<path d="M144.707 84.0166L153.081 84.0166" stroke="white" stroke-width="1.5"/>
<path d="M158.195 84.0166L166.569 84.0166" stroke="white" stroke-width="1.5"/>
<path d="M227.787 73.085V81.4588" stroke="#8EFE1C" stroke-width="1.5"/>
<path d="M227.787 86.5732V94.9471" stroke="#8EFE1C" stroke-width="1.5"/>
<path d="M216.855 84.0161L225.229 84.0161" stroke="#8EFE1C" stroke-width="1.5"/>
<path d="M230.344 84.0161L238.718 84.0161" stroke="#8EFE1C" stroke-width="1.5"/>
<path d="M11.3418 145.232V153.606" stroke="#8EFE1C" stroke-width="1.5"/>
<path d="M11.3418 158.721V167.095" stroke="#8EFE1C" stroke-width="1.5"/>
<path d="M0.410156 156.164L8.78404 156.164" stroke="#8EFE1C" stroke-width="1.5"/>
<path d="M13.8984 156.164L22.2723 156.164" stroke="#8EFE1C" stroke-width="1.5"/>
<path d="M83.4902 145.233V153.607" stroke="#323232" stroke-width="1.5"/>
<path d="M83.4902 158.721V167.095" stroke="#323232" stroke-width="1.5"/>
<path d="M72.5586 156.164L80.9325 156.164" stroke="#323232" stroke-width="1.5"/>
<path d="M86.0469 156.164L94.4208 156.164" stroke="#323232" stroke-width="1.5"/>
<path d="M155.639 145.232V153.606" stroke="#323232" stroke-width="1.5"/>
<path d="M155.639 158.721V167.095" stroke="#323232" stroke-width="1.5"/>
<path d="M144.707 156.164L153.081 156.164" stroke="#323232" stroke-width="1.5"/>
<path d="M158.195 156.164L166.569 156.164" stroke="#323232" stroke-width="1.5"/>
<path d="M227.787 145.233V153.607" stroke="#323232" stroke-width="1.5"/>
<path d="M227.787 158.721V167.095" stroke="#323232" stroke-width="1.5"/>
<path d="M216.855 156.164L225.229 156.164" stroke="#323232" stroke-width="1.5"/>
<path d="M230.344 156.164L238.718 156.164" stroke="#323232" stroke-width="1.5"/>
</g>
</svg>
