<svg width="490" height="667" viewBox="0 0 490 667" fill="none" xmlns="http://www.w3.org/2000/svg">
<path d="M160.777 1.52344H168.349L172.92 6.09428V14.5633" stroke="white" stroke-width="1.5"/>
<path d="M160.777 269.885H168.349L172.92 265.314V256.845" stroke="white" stroke-width="1.5"/>
<line x1="35.2871" y1="3.91016" x2="102.815" y2="3.91016" stroke="#2E3539" stroke-width="1.5"/>
<line x1="35.2871" y1="272.196" x2="102.815" y2="272.196" stroke="#2E3539" stroke-width="1.5"/>
<line x1="54.2891" y1="253.033" x2="102.816" y2="253.033" stroke="#2E3539" stroke-width="1.5"/>
<line x1="70.582" y1="224.289" x2="102.816" y2="224.289" stroke="#2E3539" stroke-width="1.5"/>
<line x1="54.2891" y1="195.544" x2="102.816" y2="195.544" stroke="#2E3539" stroke-width="1.5"/>
<line x1="70.582" y1="166.799" x2="102.816" y2="166.799" stroke="#2E3539" stroke-width="1.5"/>
<line x1="54.2891" y1="138.055" x2="102.816" y2="138.055" stroke="#2E3539" stroke-width="1.5"/>
<line x1="70.582" y1="109.31" x2="102.816" y2="109.31" stroke="#2E3539" stroke-width="1.5"/>
<line x1="54.2891" y1="80.5645" x2="102.816" y2="80.5645" stroke="#2E3539" stroke-width="1.5"/>
<line x1="70.582" y1="51.8184" x2="102.816" y2="51.8184" stroke="#2E3539" stroke-width="1.5"/>
<line x1="70.582" y1="32.6553" x2="102.816" y2="32.6553" stroke="#2E3539" stroke-width="1.5"/>
<line x1="70.582" y1="243.451" x2="102.816" y2="243.451" stroke="#2E3539" stroke-width="1.5"/>
<line x1="54.2891" y1="214.707" x2="102.816" y2="214.707" stroke="#2E3539" stroke-width="1.5"/>
<line x1="54.2891" y1="176.381" x2="102.816" y2="176.381" stroke="#2E3539" stroke-width="1.5"/>
<line x1="54.2891" y1="157.218" x2="102.816" y2="157.218" stroke="#2E3539" stroke-width="1.5"/>
<line x1="70.582" y1="128.473" x2="102.816" y2="128.473" stroke="#2E3539" stroke-width="1.5"/>
<line x1="54.2891" y1="99.7275" x2="102.816" y2="99.7275" stroke="#2E3539" stroke-width="1.5"/>
<line x1="70.582" y1="70.9824" x2="102.816" y2="70.9824" stroke="#2E3539" stroke-width="1.5"/>
<line x1="54.2891" y1="23.0732" x2="102.816" y2="23.0732" stroke="#2E3539" stroke-width="1.5"/>
<line x1="70.582" y1="13.4922" x2="102.816" y2="13.4922" stroke="#2E3539" stroke-width="1.5"/>
<line x1="70.582" y1="262.615" x2="102.816" y2="262.615" stroke="#2E3539" stroke-width="1.5"/>
<line x1="54.2891" y1="233.87" x2="102.816" y2="233.87" stroke="#2E3539" stroke-width="1.5"/>
<line x1="70.582" y1="205.125" x2="102.816" y2="205.125" stroke="#2E3539" stroke-width="1.5"/>
<line x1="70.582" y1="185.963" x2="102.816" y2="185.963" stroke="#2E3539" stroke-width="1.5"/>
<line x1="70.582" y1="147.637" x2="102.816" y2="147.637" stroke="#2E3539" stroke-width="1.5"/>
<line x1="54.2891" y1="118.892" x2="102.816" y2="118.892" stroke="#2E3539" stroke-width="1.5"/>
<line x1="70.582" y1="90.1465" x2="102.816" y2="90.1465" stroke="#2E3539" stroke-width="1.5"/>
<line x1="54.2891" y1="61.4004" x2="102.816" y2="61.4004" stroke="#2E3539" stroke-width="1.5"/>
<line x1="54.2891" y1="42.2373" x2="102.816" y2="42.2373" stroke="#2E3539" stroke-width="1.5"/>
<path d="M133.045 18.1363C135.394 18.1363 136.78 16.8673 136.78 14.7973C136.78 12.7273 135.394 11.4583 133.045 11.4583C130.705 11.4583 129.31 12.7273 129.31 14.7973C129.31 16.8673 130.705 18.1363 133.045 18.1363ZM133.045 17.1823C131.416 17.1823 130.408 16.3723 130.408 14.7973C130.408 13.2223 131.416 12.4123 133.045 12.4123C134.665 12.4123 135.682 13.2223 135.682 14.7973C135.682 16.3723 134.665 17.1823 133.045 17.1823ZM138.283 18.0463C138.688 18.0463 138.976 17.7853 138.976 17.4343C138.976 17.0833 138.688 16.8043 138.283 16.8043C137.887 16.8043 137.599 17.0833 137.599 17.4343C137.599 17.7853 137.887 18.0463 138.283 18.0463ZM141.179 17.9473H142.259V11.6473H141.44C140.846 12.1693 140.045 12.6193 139.244 12.7363V13.6723C139.973 13.5553 140.639 13.3213 141.179 12.8983V17.9473Z" fill="#2E3539"/>
<path d="M133.045 263.553C135.394 263.553 136.78 262.284 136.78 260.214C136.78 258.144 135.394 256.875 133.045 256.875C130.705 256.875 129.31 258.144 129.31 260.214C129.31 262.284 130.705 263.553 133.045 263.553ZM133.045 262.599C131.416 262.599 130.408 261.789 130.408 260.214C130.408 258.639 131.416 257.829 133.045 257.829C134.665 257.829 135.682 258.639 135.682 260.214C135.682 261.789 134.665 262.599 133.045 262.599ZM138.283 263.463C138.688 263.463 138.976 263.202 138.976 262.851C138.976 262.5 138.688 262.221 138.283 262.221C137.887 262.221 137.599 262.5 137.599 262.851C137.599 263.202 137.887 263.463 138.283 263.463ZM141.179 263.364H142.259V257.064H141.44C140.846 257.586 140.045 258.036 139.244 258.153V259.089C139.973 258.972 140.639 258.738 141.179 258.315V263.364Z" fill="#2E3539"/>
<path d="M133.045 202.2C135.394 202.2 136.78 200.931 136.78 198.861C136.78 196.791 135.394 195.522 133.045 195.522C130.705 195.522 129.31 196.791 129.31 198.861C129.31 200.931 130.705 202.2 133.045 202.2ZM133.045 201.246C131.416 201.246 130.408 200.436 130.408 198.861C130.408 197.286 131.416 196.476 133.045 196.476C134.665 196.476 135.682 197.286 135.682 198.861C135.682 200.436 134.665 201.246 133.045 201.246ZM138.283 202.11C138.688 202.11 138.976 201.849 138.976 201.498C138.976 201.147 138.688 200.868 138.283 200.868C137.887 200.868 137.599 201.147 137.599 201.498C137.599 201.849 137.887 202.11 138.283 202.11ZM141.179 202.011H142.259V195.711H141.44C140.846 196.233 140.045 196.683 139.244 196.8V197.736C139.973 197.619 140.639 197.385 141.179 196.962V202.011Z" fill="#2E3539"/>
<path d="M133.045 140.845C135.394 140.845 136.78 139.576 136.78 137.506C136.78 135.436 135.394 134.167 133.045 134.167C130.705 134.167 129.31 135.436 129.31 137.506C129.31 139.576 130.705 140.845 133.045 140.845ZM133.045 139.891C131.416 139.891 130.408 139.081 130.408 137.506C130.408 135.931 131.416 135.121 133.045 135.121C134.665 135.121 135.682 135.931 135.682 137.506C135.682 139.081 134.665 139.891 133.045 139.891ZM138.283 140.755C138.688 140.755 138.976 140.494 138.976 140.143C138.976 139.792 138.688 139.513 138.283 139.513C137.887 139.513 137.599 139.792 137.599 140.143C137.599 140.494 137.887 140.755 138.283 140.755ZM141.179 140.656H142.259V134.356H141.44C140.846 134.878 140.045 135.328 139.244 135.445V136.381C139.973 136.264 140.639 136.03 141.179 135.607V140.656Z" fill="#2E3539"/>
<path d="M133.045 79.4908C135.394 79.4908 136.78 78.2218 136.78 76.1518C136.78 74.0818 135.394 72.8128 133.045 72.8128C130.705 72.8128 129.31 74.0818 129.31 76.1518C129.31 78.2218 130.705 79.4908 133.045 79.4908ZM133.045 78.5368C131.416 78.5368 130.408 77.7268 130.408 76.1518C130.408 74.5768 131.416 73.7668 133.045 73.7668C134.665 73.7668 135.682 74.5768 135.682 76.1518C135.682 77.7268 134.665 78.5368 133.045 78.5368ZM138.283 79.4008C138.688 79.4008 138.976 79.1398 138.976 78.7888C138.976 78.4378 138.688 78.1588 138.283 78.1588C137.887 78.1588 137.599 78.4378 137.599 78.7888C137.599 79.1398 137.887 79.4008 138.283 79.4008ZM141.179 79.3018H142.259V73.0018H141.44C140.846 73.5238 140.045 73.9738 139.244 74.0908V75.0268C139.973 74.9098 140.639 74.6758 141.179 74.2528V79.3018Z" fill="#2E3539"/>
<path d="M134.516 161.908V166.29" stroke="white" stroke-width="1.5"/>
<path d="M134.516 168.966V173.347" stroke="white" stroke-width="1.5"/>
<path d="M128.797 167.628L133.178 167.628" stroke="white" stroke-width="1.5"/>
<path d="M135.854 167.628L140.236 167.628" stroke="white" stroke-width="1.5"/>
<path d="M134.516 100.554V104.935" stroke="white" stroke-width="1.5"/>
<path d="M134.516 107.611V111.993" stroke="white" stroke-width="1.5"/>
<path d="M128.797 106.273L133.178 106.273" stroke="white" stroke-width="1.5"/>
<path d="M135.854 106.273L140.236 106.273" stroke="white" stroke-width="1.5"/>
<path d="M134.516 39.1992V43.5808" stroke="white" stroke-width="1.5"/>
<path d="M134.516 46.2568V50.6384" stroke="white" stroke-width="1.5"/>
<path d="M128.797 44.9189L133.178 44.9189" stroke="white" stroke-width="1.5"/>
<path d="M135.854 44.9189L140.236 44.9189" stroke="white" stroke-width="1.5"/>
<path d="M134.516 223.262V227.643" stroke="white" stroke-width="1.5"/>
<path d="M134.516 230.319V234.701" stroke="white" stroke-width="1.5"/>
<path d="M128.797 228.981L133.178 228.981" stroke="white" stroke-width="1.5"/>
<path d="M135.854 228.981L140.236 228.981" stroke="white" stroke-width="1.5"/>
<path d="M0.0130226 260.039C5.6278 260.198 9.37784 256.643 10.551 254.809C11.7242 256.643 15.4742 260.198 21.089 260.039C21.2856 265.318 19.2657 275.11 10.551 277.881C1.77896 275.086 -0.183627 265.318 0.0130226 260.039Z" fill="#0E1011"/>
<rect x="11.5516" y="254.269" width="24.674" height="2.00253" transform="rotate(90 11.5516 254.269)" fill="black"/>
<path opacity="0.3" d="M127.391 620.523H81V648.916L98.1112 666.027H127.391V620.523Z" stroke="white"/>
<path d="M405.212 620.523H426.354V633.463L418.555 641.261H405.212V620.523Z" fill="#0E1011"/>
<path d="M141.314 645.29H315.727V658.229L307.928 666.027H141.314V645.29Z" fill="#0E1011"/>
<rect x="141.113" y="620.523" width="273.729" height="20.7376" fill="#0E1011"/>
<line x1="328.045" y1="658.631" x2="381.541" y2="658.631" stroke="#2E3539" stroke-width="2.01351"/>
<path d="M401.6 661.314V654.992H401.535L398.934 655.956V656.872L400.553 656.277V661.314H401.6ZM408.188 658.904V657.406C408.188 657.001 408.14 656.643 408.044 656.334C407.949 656.021 407.814 655.757 407.64 655.543C407.461 655.332 407.244 655.173 406.989 655.066C406.737 654.956 406.451 654.901 406.129 654.901C405.811 654.901 405.524 654.956 405.269 655.066C405.017 655.173 404.803 655.332 404.627 655.543C404.45 655.757 404.314 656.021 404.218 656.334C404.126 656.643 404.079 657.001 404.079 657.406V658.904C404.079 659.31 404.126 659.669 404.218 659.981C404.314 660.291 404.451 660.552 404.631 660.763C404.808 660.974 405.023 661.135 405.278 661.245C405.533 661.352 405.819 661.406 406.138 661.406C406.459 661.406 406.746 661.352 406.998 661.245C407.252 661.135 407.467 660.974 407.64 660.763C407.817 660.552 407.952 660.291 408.044 659.981C408.14 659.669 408.188 659.31 408.188 658.904ZM405.122 658.535C405.122 658.451 405.122 658.38 405.122 658.322C405.122 658.265 405.122 658.181 405.122 658.071V657.219C405.122 656.959 405.145 656.733 405.191 656.542C405.237 656.348 405.308 656.19 405.404 656.069C405.485 655.962 405.586 655.88 405.708 655.825C405.83 655.77 405.97 655.743 406.129 655.743C406.28 655.743 406.413 655.766 406.529 655.812C406.644 655.859 406.743 655.928 406.824 656.021C406.917 656.125 406.988 656.26 407.037 656.425C407.089 656.59 407.121 656.785 407.132 657.011L405.122 658.535ZM407.141 659.078C407.141 659.344 407.118 659.576 407.071 659.773C407.025 659.97 406.953 660.129 406.854 660.251C406.77 660.355 406.669 660.434 406.55 660.489C406.432 660.541 406.294 660.568 406.138 660.568C405.979 660.568 405.838 660.54 405.717 660.485C405.598 660.43 405.498 660.348 405.417 660.238C405.336 660.136 405.271 660.009 405.222 659.855C405.175 659.702 405.145 659.525 405.13 659.326L407.141 657.81C407.141 657.894 407.141 657.975 407.141 658.053C407.141 658.128 407.141 658.204 407.141 658.279V659.078ZM410.315 660.459H410.233V661.345H410.32C410.864 661.345 411.329 661.265 411.714 661.106C412.102 660.947 412.414 660.728 412.652 660.45C412.944 660.112 413.148 659.716 413.264 659.265C413.38 658.813 413.438 658.338 413.438 657.84V657.476C413.438 657.114 413.39 656.769 413.294 656.442C413.199 656.112 413.058 655.831 412.873 655.6C412.697 655.385 412.481 655.216 412.226 655.092C411.974 654.967 411.685 654.905 411.358 654.905C411.033 654.905 410.744 654.964 410.489 655.083C410.237 655.199 410.024 655.357 409.851 655.556C409.677 655.759 409.544 655.995 409.451 656.264C409.361 656.53 409.317 656.816 409.317 657.12C409.317 657.397 409.354 657.665 409.429 657.923C409.505 658.178 409.619 658.404 409.773 658.6C409.923 658.794 410.111 658.949 410.337 659.065C410.566 659.181 410.834 659.239 411.14 659.239C411.291 659.239 411.428 659.224 411.553 659.195C411.68 659.166 411.796 659.127 411.9 659.078C411.999 659.032 412.089 658.978 412.17 658.917C412.254 658.854 412.327 658.786 412.391 658.713V658.735C412.368 658.981 412.316 659.211 412.235 659.425C412.154 659.637 412.026 659.825 411.853 659.99C411.69 660.141 411.483 660.256 411.232 660.337C410.98 660.418 410.674 660.459 410.315 660.459ZM411.362 658.418C411.188 658.418 411.038 658.382 410.91 658.309C410.786 658.234 410.68 658.136 410.593 658.014C410.509 657.89 410.447 657.748 410.407 657.589C410.366 657.429 410.346 657.263 410.346 657.089C410.346 656.91 410.367 656.739 410.411 656.577C410.457 656.412 410.524 656.268 410.611 656.147C410.695 656.025 410.799 655.93 410.923 655.86C411.051 655.788 411.195 655.752 411.358 655.752C411.502 655.752 411.638 655.786 411.766 655.856C411.893 655.922 412.005 656.021 412.1 656.151C412.196 656.281 412.271 656.444 412.326 656.638C412.381 656.832 412.408 657.054 412.408 657.306V657.667C412.365 657.774 412.309 657.874 412.239 657.966C412.173 658.056 412.094 658.136 412.005 658.205C411.915 658.272 411.815 658.324 411.705 658.362C411.598 658.399 411.483 658.418 411.362 658.418ZM415.913 657.684V658.5H416.534C416.713 658.5 416.875 658.522 417.02 658.566C417.168 658.606 417.294 658.668 417.398 658.752C417.502 658.839 417.582 658.948 417.637 659.078C417.692 659.208 417.719 659.365 417.719 659.547C417.719 659.709 417.695 659.854 417.646 659.981C417.599 660.106 417.531 660.21 417.441 660.294C417.349 660.384 417.234 660.452 417.098 660.498C416.965 660.541 416.815 660.563 416.647 660.563C416.49 660.563 416.347 660.54 416.217 660.494C416.089 660.447 415.979 660.382 415.887 660.298C415.791 660.217 415.717 660.119 415.665 660.003C415.616 659.884 415.592 659.755 415.592 659.617H414.554C414.554 659.912 414.61 660.171 414.723 660.394C414.839 660.614 414.992 660.799 415.183 660.95C415.374 661.1 415.596 661.213 415.848 661.288C416.1 661.364 416.362 661.401 416.634 661.401C416.935 661.401 417.214 661.361 417.472 661.28C417.732 661.196 417.958 661.074 418.149 660.915C418.337 660.759 418.485 660.566 418.592 660.337C418.702 660.106 418.757 659.842 418.757 659.547C418.757 659.388 418.738 659.234 418.701 659.087C418.663 658.936 418.602 658.796 418.518 658.666C418.434 658.538 418.326 658.424 418.193 658.322C418.062 658.218 417.903 658.134 417.715 658.071C417.874 657.998 418.013 657.91 418.132 657.806C418.251 657.701 418.349 657.59 418.427 657.471C418.505 657.35 418.563 657.224 418.601 657.094C418.641 656.963 418.662 656.833 418.662 656.703C418.662 656.407 418.612 656.148 418.514 655.925C418.416 655.702 418.277 655.514 418.097 655.361C417.921 655.21 417.706 655.097 417.454 655.022C417.206 654.944 416.932 654.905 416.634 654.905C416.341 654.905 416.072 654.948 415.826 655.035C415.583 655.122 415.372 655.242 415.192 655.396C415.013 655.552 414.872 655.736 414.771 655.947C414.669 656.158 414.619 656.39 414.619 656.642H415.657C415.657 656.506 415.681 656.383 415.73 656.273C415.783 656.163 415.854 656.069 415.943 655.991C416.03 655.912 416.133 655.853 416.252 655.812C416.373 655.769 416.505 655.747 416.647 655.747C416.806 655.747 416.946 655.769 417.068 655.812C417.192 655.856 417.295 655.917 417.376 655.995C417.457 656.079 417.518 656.18 417.559 656.299C417.602 656.418 417.624 656.552 417.624 656.703C417.624 656.842 417.601 656.972 417.554 657.094C417.511 657.212 417.447 657.312 417.363 657.393C417.274 657.486 417.159 657.558 417.02 657.61C416.881 657.659 416.719 657.684 416.534 657.684H415.913ZM424.181 661.314V660.476H421.237L422.644 658.974C422.829 658.777 423 658.586 423.156 658.401C423.315 658.215 423.453 658.031 423.569 657.849C423.682 657.667 423.77 657.483 423.834 657.298C423.9 657.109 423.934 656.915 423.934 656.716C423.934 656.449 423.89 656.206 423.803 655.986C423.716 655.763 423.59 655.572 423.425 655.413C423.258 655.254 423.051 655.129 422.804 655.039C422.561 654.95 422.285 654.905 421.975 654.905C421.645 654.905 421.345 654.958 421.076 655.066C420.81 655.173 420.584 655.317 420.399 655.5C420.211 655.682 420.066 655.896 419.964 656.142C419.863 656.386 419.812 656.645 419.812 656.92H420.855C420.855 656.737 420.878 656.575 420.924 656.433C420.97 656.289 421.04 656.167 421.133 656.069C421.222 655.97 421.335 655.895 421.471 655.843C421.607 655.791 421.768 655.765 421.953 655.765C422.098 655.765 422.228 655.789 422.344 655.839C422.463 655.888 422.564 655.956 422.648 656.043C422.732 656.129 422.796 656.234 422.839 656.355C422.883 656.477 422.904 656.611 422.904 656.759C422.904 656.869 422.888 656.979 422.857 657.089C422.828 657.196 422.778 657.312 422.709 657.437C422.637 657.561 422.542 657.699 422.427 657.849C422.311 657.997 422.168 658.165 421.997 658.353L419.938 660.594V661.314H424.181ZM428.306 661.314V654.992H428.241L425.64 655.956V656.872L427.26 656.277V661.314H428.306ZM434.772 656.659C434.772 656.378 434.723 656.129 434.625 655.912C434.529 655.695 434.395 655.511 434.221 655.361C434.047 655.21 433.842 655.097 433.604 655.022C433.367 654.944 433.109 654.905 432.831 654.905C432.551 654.905 432.291 654.944 432.054 655.022C431.82 655.097 431.618 655.21 431.45 655.361C431.28 655.511 431.145 655.695 431.047 655.912C430.951 656.129 430.903 656.378 430.903 656.659C430.903 656.816 430.925 656.965 430.968 657.107C431.012 657.248 431.073 657.379 431.151 657.497C431.226 657.613 431.317 657.719 431.424 657.814C431.534 657.91 431.656 657.991 431.789 658.058C431.633 658.13 431.491 658.218 431.364 658.322C431.239 658.424 431.132 658.538 431.042 658.666C430.953 658.799 430.883 658.943 430.834 659.1C430.787 659.256 430.764 659.421 430.764 659.595C430.764 659.89 430.816 660.151 430.921 660.376C431.028 660.599 431.175 660.786 431.364 660.937C431.549 661.09 431.767 661.206 432.019 661.284C432.274 661.362 432.549 661.401 432.844 661.401C433.134 661.401 433.405 661.362 433.656 661.284C433.908 661.206 434.127 661.09 434.312 660.937C434.497 660.786 434.644 660.598 434.751 660.372C434.858 660.146 434.911 659.887 434.911 659.595C434.911 659.389 434.878 659.198 434.812 659.022C434.745 658.845 434.652 658.687 434.534 658.548C434.45 658.444 434.351 658.353 434.238 658.275C434.128 658.194 434.008 658.123 433.878 658.062C433.988 658.007 434.088 657.943 434.178 657.871C434.267 657.798 434.347 657.72 434.416 657.636C434.529 657.506 434.616 657.358 434.677 657.193C434.741 657.028 434.772 656.85 434.772 656.659ZM433.874 659.538C433.874 659.7 433.848 659.845 433.795 659.973C433.743 660.097 433.672 660.204 433.583 660.294C433.493 660.381 433.384 660.447 433.257 660.494C433.132 660.54 432.995 660.563 432.844 660.563C432.688 660.563 432.546 660.541 432.419 660.498C432.291 660.452 432.183 660.387 432.093 660.303C432.001 660.216 431.93 660.109 431.88 659.981C431.831 659.851 431.807 659.703 431.807 659.538C431.807 659.382 431.83 659.24 431.876 659.113C431.925 658.983 431.995 658.87 432.084 658.774C432.174 658.684 432.281 658.615 432.406 658.566C432.533 658.516 432.677 658.492 432.836 658.492C432.989 658.492 433.13 658.516 433.257 658.566C433.384 658.615 433.494 658.684 433.587 658.774C433.677 658.87 433.746 658.983 433.795 659.113C433.848 659.24 433.874 659.382 433.874 659.538ZM433.739 656.698C433.739 656.84 433.717 656.97 433.674 657.089C433.63 657.205 433.57 657.305 433.491 657.389C433.413 657.47 433.319 657.534 433.209 657.58C433.099 657.626 432.976 657.649 432.84 657.649C432.704 657.649 432.581 657.626 432.471 657.58C432.361 657.534 432.267 657.47 432.189 657.389C432.108 657.305 432.047 657.205 432.006 657.089C431.966 656.97 431.946 656.84 431.946 656.698C431.946 656.554 431.966 656.422 432.006 656.303C432.047 656.184 432.106 656.085 432.184 656.004C432.26 655.922 432.351 655.86 432.458 655.817C432.568 655.77 432.692 655.747 432.831 655.747C432.967 655.747 433.09 655.77 433.2 655.817C433.311 655.863 433.406 655.928 433.487 656.012C433.565 656.096 433.626 656.196 433.669 656.312C433.716 656.428 433.739 656.556 433.739 656.698ZM437.278 657.684V658.5H437.899C438.079 658.5 438.241 658.522 438.385 658.566C438.533 658.606 438.659 658.668 438.763 658.752C438.868 658.839 438.947 658.948 439.002 659.078C439.057 659.208 439.085 659.365 439.085 659.547C439.085 659.709 439.06 659.854 439.011 659.981C438.964 660.106 438.896 660.21 438.807 660.294C438.714 660.384 438.6 660.452 438.464 660.498C438.33 660.541 438.18 660.563 438.012 660.563C437.856 660.563 437.712 660.54 437.582 660.494C437.455 660.447 437.345 660.382 437.252 660.298C437.157 660.217 437.083 660.119 437.031 660.003C436.981 659.884 436.957 659.755 436.957 659.617H435.919C435.919 659.912 435.975 660.171 436.088 660.394C436.204 660.614 436.358 660.799 436.549 660.95C436.74 661.1 436.961 661.213 437.213 661.288C437.465 661.364 437.727 661.401 437.999 661.401C438.3 661.401 438.579 661.361 438.837 661.28C439.098 661.196 439.323 661.074 439.515 660.915C439.703 660.759 439.85 660.566 439.957 660.337C440.067 660.106 440.122 659.842 440.122 659.547C440.122 659.388 440.104 659.234 440.066 659.087C440.028 658.936 439.968 658.796 439.884 658.666C439.8 658.538 439.691 658.424 439.558 658.322C439.428 658.218 439.268 658.134 439.08 658.071C439.24 657.998 439.378 657.91 439.497 657.806C439.616 657.701 439.714 657.59 439.792 657.471C439.871 657.35 439.929 657.224 439.966 657.094C440.007 656.963 440.027 656.833 440.027 656.703C440.027 656.407 439.978 656.148 439.879 655.925C439.781 655.702 439.642 655.514 439.462 655.361C439.286 655.21 439.072 655.097 438.82 655.022C438.571 654.944 438.297 654.905 437.999 654.905C437.707 654.905 437.437 654.948 437.191 655.035C436.948 655.122 436.737 655.242 436.557 655.396C436.378 655.552 436.237 655.736 436.136 655.947C436.035 656.158 435.984 656.39 435.984 656.642H437.022C437.022 656.506 437.047 656.383 437.096 656.273C437.148 656.163 437.219 656.069 437.309 655.991C437.395 655.912 437.498 655.853 437.617 655.812C437.738 655.769 437.87 655.747 438.012 655.747C438.171 655.747 438.312 655.769 438.433 655.812C438.558 655.856 438.661 655.917 438.742 655.995C438.823 656.079 438.883 656.18 438.924 656.299C438.967 656.418 438.989 656.552 438.989 656.703C438.989 656.842 438.966 656.972 438.92 657.094C438.876 657.212 438.812 657.312 438.729 657.393C438.639 657.486 438.524 657.558 438.385 657.61C438.247 657.659 438.084 657.684 437.899 657.684H437.278ZM445.577 658.904V657.406C445.577 657.001 445.529 656.643 445.433 656.334C445.338 656.021 445.203 655.757 445.03 655.543C444.85 655.332 444.633 655.173 444.378 655.066C444.126 654.956 443.84 654.901 443.518 654.901C443.2 654.901 442.913 654.956 442.659 655.066C442.407 655.173 442.192 655.332 442.016 655.543C441.839 655.757 441.703 656.021 441.608 656.334C441.515 656.643 441.469 657.001 441.469 657.406V658.904C441.469 659.31 441.515 659.669 441.608 659.981C441.703 660.291 441.841 660.552 442.02 660.763C442.197 660.974 442.412 661.135 442.667 661.245C442.922 661.352 443.209 661.406 443.527 661.406C443.848 661.406 444.135 661.352 444.387 661.245C444.642 661.135 444.856 660.974 445.03 660.763C445.206 660.552 445.341 660.291 445.433 659.981C445.529 659.669 445.577 659.31 445.577 658.904ZM442.511 658.535C442.511 658.451 442.511 658.38 442.511 658.322C442.511 658.265 442.511 658.181 442.511 658.071V657.219C442.511 656.959 442.534 656.733 442.58 656.542C442.627 656.348 442.698 656.19 442.793 656.069C442.874 655.962 442.976 655.88 443.097 655.825C443.219 655.77 443.359 655.743 443.518 655.743C443.669 655.743 443.802 655.766 443.918 655.812C444.034 655.859 444.132 655.928 444.213 656.021C444.306 656.125 444.377 656.26 444.426 656.425C444.478 656.59 444.51 656.785 444.521 657.011L442.511 658.535ZM444.53 659.078C444.53 659.344 444.507 659.576 444.461 659.773C444.414 659.97 444.342 660.129 444.244 660.251C444.16 660.355 444.058 660.434 443.94 660.489C443.821 660.541 443.683 660.568 443.527 660.568C443.368 660.568 443.227 660.54 443.106 660.485C442.987 660.43 442.887 660.348 442.806 660.238C442.725 660.136 442.66 660.009 442.611 659.855C442.564 659.702 442.534 659.525 442.52 659.326L444.53 657.81C444.53 657.894 444.53 657.975 444.53 658.053C444.53 658.128 444.53 658.204 444.53 658.279V659.078ZM447.705 660.459H447.622V661.345H447.709C448.253 661.345 448.718 661.265 449.103 661.106C449.491 660.947 449.803 660.728 450.041 660.45C450.333 660.112 450.537 659.716 450.653 659.265C450.769 658.813 450.827 658.338 450.827 657.84V657.476C450.827 657.114 450.779 656.769 450.684 656.442C450.588 656.112 450.448 655.831 450.262 655.6C450.086 655.385 449.87 655.216 449.615 655.092C449.363 654.967 449.074 654.905 448.747 654.905C448.423 654.905 448.133 654.964 447.878 655.083C447.626 655.199 447.414 655.357 447.24 655.556C447.066 655.759 446.933 655.995 446.84 656.264C446.751 656.53 446.706 656.816 446.706 657.12C446.706 657.397 446.743 657.665 446.819 657.923C446.894 658.178 447.008 658.404 447.162 658.6C447.312 658.794 447.5 658.949 447.726 659.065C447.955 659.181 448.223 659.239 448.53 659.239C448.68 659.239 448.818 659.224 448.942 659.195C449.07 659.166 449.185 659.127 449.29 659.078C449.388 659.032 449.478 658.978 449.559 658.917C449.643 658.854 449.717 658.786 449.78 658.713V658.735C449.757 658.981 449.705 659.211 449.624 659.425C449.543 659.637 449.416 659.825 449.242 659.99C449.08 660.141 448.873 660.256 448.621 660.337C448.369 660.418 448.064 660.459 447.705 660.459ZM448.751 658.418C448.577 658.418 448.427 658.382 448.299 658.309C448.175 658.234 448.069 658.136 447.982 658.014C447.899 657.89 447.836 657.748 447.796 657.589C447.755 657.429 447.735 657.263 447.735 657.089C447.735 656.91 447.757 656.739 447.8 656.577C447.846 656.412 447.913 656.268 448 656.147C448.084 656.025 448.188 655.93 448.313 655.86C448.44 655.788 448.585 655.752 448.747 655.752C448.892 655.752 449.028 655.786 449.155 655.856C449.282 655.922 449.394 656.021 449.489 656.151C449.585 656.281 449.66 656.444 449.715 656.638C449.77 656.832 449.798 657.054 449.798 657.306V657.667C449.754 657.774 449.698 657.874 449.628 657.966C449.562 658.056 449.484 658.136 449.394 658.205C449.304 658.272 449.204 658.324 449.094 658.362C448.987 658.399 448.873 658.418 448.751 658.418ZM456.281 655.574V654.992H451.908V655.86H455.187L452.659 661.314H453.754L456.281 655.574ZM460.958 659.061V654.992H459.89L457.158 659.265L457.184 659.903H459.92V661.314H460.958V659.903H461.753V659.061H460.958ZM458.218 659.061L459.799 656.607L459.92 656.381V659.061H458.218ZM465.987 654.961H465.865C465.373 654.961 464.936 655.038 464.554 655.191C464.171 655.345 463.85 655.565 463.59 655.852C463.283 656.184 463.063 656.583 462.929 657.046C462.799 657.506 462.734 657.991 462.734 658.5V658.93C462.734 659.269 462.783 659.592 462.882 659.899C462.98 660.203 463.123 660.468 463.312 660.693C463.494 660.911 463.715 661.083 463.976 661.21C464.237 661.338 464.533 661.401 464.866 661.401C465.19 661.401 465.479 661.346 465.73 661.236C465.985 661.123 466.201 660.968 466.377 660.772C466.551 660.578 466.683 660.35 466.773 660.09C466.865 659.826 466.912 659.544 466.912 659.243C466.912 658.968 466.875 658.703 466.803 658.448C466.734 658.194 466.624 657.968 466.473 657.771C466.325 657.574 466.137 657.418 465.908 657.302C465.683 657.186 465.416 657.128 465.109 657.128C464.965 657.128 464.827 657.146 464.697 657.18C464.567 657.212 464.446 657.257 464.336 657.315C464.226 657.37 464.125 657.435 464.032 657.51C463.94 657.583 463.859 657.658 463.789 657.736C463.812 657.467 463.872 657.215 463.967 656.981C464.066 656.746 464.203 656.545 464.38 656.377C464.554 656.209 464.766 656.079 465.018 655.986C465.273 655.891 465.573 655.843 465.917 655.843H465.987V654.961ZM464.853 657.971C465.021 657.971 465.169 658.005 465.296 658.075C465.426 658.142 465.535 658.234 465.622 658.353C465.709 658.472 465.774 658.611 465.817 658.77C465.864 658.926 465.887 659.093 465.887 659.269C465.887 659.454 465.864 659.627 465.817 659.786C465.771 659.942 465.703 660.078 465.613 660.194C465.523 660.307 465.415 660.397 465.287 660.463C465.16 660.527 465.015 660.559 464.853 660.559C464.706 660.559 464.567 660.526 464.436 660.459C464.306 660.392 464.192 660.295 464.093 660.168C463.995 660.041 463.917 659.881 463.859 659.69C463.804 659.499 463.776 659.278 463.776 659.026V658.705C463.823 658.597 463.88 658.5 463.95 658.414C464.019 658.327 464.098 658.25 464.184 658.183C464.28 658.117 464.384 658.065 464.497 658.027C464.61 657.99 464.729 657.971 464.853 657.971ZM469.07 660.459H468.987V661.345H469.074C469.618 661.345 470.083 661.265 470.468 661.106C470.856 660.947 471.169 660.728 471.406 660.45C471.698 660.112 471.903 659.716 472.018 659.265C472.134 658.813 472.192 658.338 472.192 657.84V657.476C472.192 657.114 472.144 656.769 472.049 656.442C471.953 656.112 471.813 655.831 471.628 655.6C471.451 655.385 471.235 655.216 470.981 655.092C470.729 654.967 470.439 654.905 470.112 654.905C469.788 654.905 469.498 654.964 469.244 655.083C468.992 655.199 468.779 655.357 468.605 655.556C468.431 655.759 468.298 655.995 468.206 656.264C468.116 656.53 468.071 656.816 468.071 657.12C468.071 657.397 468.109 657.665 468.184 657.923C468.259 658.178 468.374 658.404 468.527 658.6C468.678 658.794 468.866 658.949 469.092 659.065C469.32 659.181 469.588 659.239 469.895 659.239C470.045 659.239 470.183 659.224 470.307 659.195C470.435 659.166 470.551 659.127 470.655 659.078C470.753 659.032 470.843 658.978 470.924 658.917C471.008 658.854 471.082 658.786 471.146 658.713V658.735C471.122 658.981 471.07 659.211 470.989 659.425C470.908 659.637 470.781 659.825 470.607 659.99C470.445 660.141 470.238 660.256 469.986 660.337C469.734 660.418 469.429 660.459 469.07 660.459ZM470.116 658.418C469.943 658.418 469.792 658.382 469.665 658.309C469.54 658.234 469.435 658.136 469.348 658.014C469.264 657.89 469.202 657.748 469.161 657.589C469.12 657.429 469.1 657.263 469.1 657.089C469.1 656.91 469.122 656.739 469.165 656.577C469.212 656.412 469.278 656.268 469.365 656.147C469.449 656.025 469.553 655.93 469.678 655.86C469.805 655.788 469.95 655.752 470.112 655.752C470.257 655.752 470.393 655.786 470.52 655.856C470.648 655.922 470.759 656.021 470.855 656.151C470.95 656.281 471.025 656.444 471.08 656.638C471.135 656.832 471.163 657.054 471.163 657.306V657.667C471.119 657.774 471.063 657.874 470.994 657.966C470.927 658.056 470.849 658.136 470.759 658.205C470.669 658.272 470.569 658.324 470.459 658.362C470.352 658.399 470.238 658.418 470.116 658.418ZM477.594 661.314V660.476H474.65L476.057 658.974C476.242 658.777 476.413 658.586 476.569 658.401C476.729 658.215 476.866 658.031 476.982 657.849C477.095 657.667 477.183 657.483 477.247 657.298C477.313 657.109 477.347 656.915 477.347 656.716C477.347 656.449 477.303 656.206 477.216 655.986C477.13 655.763 477.004 655.572 476.839 655.413C476.671 655.254 476.464 655.129 476.218 655.039C475.974 654.95 475.698 654.905 475.388 654.905C475.058 654.905 474.759 654.958 474.489 655.066C474.223 655.173 473.997 655.317 473.812 655.5C473.624 655.682 473.479 655.896 473.378 656.142C473.276 656.386 473.226 656.645 473.226 656.92H474.268C474.268 656.737 474.291 656.575 474.337 656.433C474.384 656.289 474.453 656.167 474.546 656.069C474.635 655.97 474.748 655.895 474.884 655.843C475.021 655.791 475.181 655.765 475.366 655.765C475.511 655.765 475.642 655.789 475.757 655.839C475.876 655.888 475.977 655.956 476.061 656.043C476.145 656.129 476.209 656.234 476.252 656.355C476.296 656.477 476.317 656.611 476.317 656.759C476.317 656.869 476.302 656.979 476.27 657.089C476.241 657.196 476.192 657.312 476.122 657.437C476.05 657.561 475.956 657.699 475.84 657.849C475.724 657.997 475.581 658.165 475.41 658.353L473.352 660.594V661.314H477.594ZM482.011 654.961H481.889C481.397 654.961 480.96 655.038 480.578 655.191C480.195 655.345 479.874 655.565 479.613 655.852C479.307 656.184 479.087 656.583 478.953 657.046C478.823 657.506 478.758 657.991 478.758 658.5V658.93C478.758 659.269 478.807 659.592 478.906 659.899C479.004 660.203 479.147 660.468 479.336 660.693C479.518 660.911 479.739 661.083 480 661.21C480.261 661.338 480.557 661.401 480.89 661.401C481.214 661.401 481.502 661.346 481.754 661.236C482.009 661.123 482.225 660.968 482.401 660.772C482.575 660.578 482.707 660.35 482.797 660.09C482.889 659.826 482.936 659.544 482.936 659.243C482.936 658.968 482.899 658.703 482.827 658.448C482.757 658.194 482.647 657.968 482.497 657.771C482.349 657.574 482.161 657.418 481.932 657.302C481.707 657.186 481.44 657.128 481.133 657.128C480.989 657.128 480.851 657.146 480.721 657.18C480.591 657.212 480.47 657.257 480.36 657.315C480.25 657.37 480.149 657.435 480.056 657.51C479.964 657.583 479.883 657.658 479.813 657.736C479.836 657.467 479.896 657.215 479.991 656.981C480.09 656.746 480.227 656.545 480.404 656.377C480.578 656.209 480.79 656.079 481.042 655.986C481.297 655.891 481.597 655.843 481.941 655.843H482.011V654.961ZM480.877 657.971C481.045 657.971 481.193 658.005 481.32 658.075C481.45 658.142 481.559 658.234 481.646 658.353C481.733 658.472 481.798 658.611 481.841 658.77C481.888 658.926 481.911 659.093 481.911 659.269C481.911 659.454 481.888 659.627 481.841 659.786C481.795 659.942 481.727 660.078 481.637 660.194C481.547 660.307 481.439 660.397 481.311 660.463C481.184 660.527 481.039 660.559 480.877 660.559C480.729 660.559 480.591 660.526 480.46 660.459C480.33 660.392 480.216 660.295 480.117 660.168C480.019 660.041 479.941 659.881 479.883 659.69C479.828 659.499 479.8 659.278 479.8 659.026V658.705C479.847 658.597 479.904 658.5 479.974 658.414C480.043 658.327 480.122 658.25 480.208 658.183C480.304 658.117 480.408 658.065 480.521 658.027C480.634 657.99 480.753 657.971 480.877 657.971ZM487.061 661.314V654.992H486.996L484.395 655.956V656.872L486.014 656.277V661.314H487.061Z" fill="#2E3539"/>
</svg>
