<svg width="69" height="374" viewBox="0 0 69 374" fill="none" xmlns="http://www.w3.org/2000/svg">
<line x1="34.4139" y1="1.80932e-08" x2="34.4139" y2="210" stroke="#5C5C5C" stroke-width="0.827847"/>
<path d="M68.6197 373.04L0 373.04L9.73712 358.143L58.7305 358.143L68.6197 373.04Z" fill="#0E1011"/>
<path d="M58.3281 210.75L67.2216 224.147L1.38623 224.147L10.1429 210.75L58.3281 210.75Z" stroke="#2E3539" stroke-width="1.5"/>
<path d="M58.3281 240.379L67.2216 253.776L1.38623 253.776L10.1429 240.379L58.3281 240.379Z" stroke="#2E3539" stroke-width="1.5"/>
<path d="M58.3281 270.007L67.2216 283.404L1.38623 283.404L10.1429 270.007L58.3281 270.007Z" stroke="#2E3539" stroke-width="1.5"/>
<path d="M68.6197 313.783L0 313.783L9.73712 298.886L58.7305 298.886L68.6197 313.783Z" fill="#0E1011"/>
<path d="M68.6197 343.411L0 343.411L9.73712 328.514L58.7305 328.514L68.6197 343.411Z" fill="#0E1011"/>
</svg>
