<svg width="6" height="54" viewBox="0 0 6 54" fill="none" xmlns="http://www.w3.org/2000/svg">
<path opacity="0.3" d="M2.77222 53.3749L2.9318 52.7264C2.89106 52.6834 2.85371 52.6393 2.81976 52.594C2.78354 52.5465 2.75185 52.4944 2.72469 52.4378C2.69979 52.3835 2.67942 52.3213 2.66357 52.2511C2.64773 52.1787 2.63981 52.0938 2.63981 51.9964C2.63981 51.8493 2.6647 51.7203 2.7145 51.6094C2.76204 51.4985 2.82994 51.4057 2.91822 51.331C3.0065 51.2563 3.11062 51.2008 3.23059 51.1646C3.34829 51.1261 3.47845 51.1069 3.62105 51.1069C3.76818 51.1069 3.90512 51.1227 4.03188 51.1544C4.15638 51.1861 4.26276 51.2336 4.35104 51.297C4.44158 51.3649 4.51175 51.4487 4.56155 51.5483C4.61135 51.6479 4.63624 51.7656 4.63624 51.9014C4.63624 52.1323 4.57173 52.3224 4.44271 52.4718C4.31369 52.6189 4.12808 52.7072 3.88588 52.7366L3.88588 53.5277C4.1145 53.5141 4.31709 53.4609 4.49364 53.3681C4.66793 53.2731 4.81393 53.152 4.93164 53.0048C5.0516 52.8577 5.14215 52.6891 5.20326 52.4989C5.26211 52.3088 5.29154 52.1096 5.29154 51.9014C5.29154 51.6275 5.24853 51.3898 5.16252 51.1884C5.0765 50.9869 4.9588 50.8205 4.80941 50.6892C4.66001 50.5557 4.48572 50.4572 4.28653 50.3939C4.08507 50.3282 3.87117 50.2954 3.64482 50.2954C3.38904 50.2954 3.15929 50.3293 2.95557 50.3973C2.74959 50.4652 2.57416 50.5625 2.4293 50.6892C2.28669 50.8183 2.17691 50.9756 2.09995 51.1612C2.02299 51.3445 1.98451 51.5528 1.98451 51.7859C1.98451 51.958 2.00602 52.1107 2.04902 52.2443C2.09203 52.3756 2.1373 52.482 2.18483 52.5635L0.999873 52.4344L0.999873 50.4516L0.280069 50.4516L0.280069 53.1101L2.77222 53.3749ZM0.735039 46.1327L0.280068 46.1327L0.280069 49.5518L0.95913 49.5518L0.959129 46.9884L5.22363 48.9644L5.22363 48.1088L0.735039 46.1327ZM2.38516 44.2857L3.02347 44.2857L3.02347 43.8002C3.02347 43.6598 3.04045 43.5331 3.0744 43.4199C3.10609 43.3045 3.15476 43.206 3.2204 43.1245C3.28831 43.043 3.37319 42.9808 3.47505 42.9378C3.57691 42.8948 3.69914 42.8733 3.84174 42.8733C3.9685 42.8733 4.08168 42.8925 4.18127 42.931C4.27861 42.9672 4.36009 43.0204 4.42574 43.0906C4.49591 43.163 4.5491 43.2524 4.58532 43.3588C4.61927 43.4629 4.63624 43.5806 4.63624 43.7119C4.63624 43.8341 4.61814 43.9462 4.58192 44.048C4.5457 44.1476 4.49477 44.2336 4.42913 44.3061C4.36575 44.3808 4.28879 44.4385 4.19825 44.4792C4.10545 44.5177 4.00472 44.537 3.89607 44.537L3.89607 45.3484C4.12695 45.3484 4.32954 45.3043 4.50383 45.216C4.67586 45.1255 4.82072 45.0055 4.93843 44.8561C5.05613 44.7067 5.14441 44.5336 5.20326 44.3366C5.26211 44.1397 5.29154 43.9349 5.29154 43.7221C5.29154 43.4867 5.25985 43.2682 5.19647 43.0668C5.13083 42.8631 5.03576 42.6865 4.91126 42.5371C4.78903 42.39 4.63851 42.2745 4.45969 42.1908C4.27861 42.1048 4.07262 42.0618 3.84174 42.0618C3.71725 42.0618 3.59728 42.0765 3.48184 42.1059C3.36414 42.1353 3.25436 42.1829 3.1525 42.2485C3.0529 42.3142 2.96349 42.399 2.88427 42.5032C2.80278 42.605 2.73714 42.7295 2.68734 42.8767C2.63075 42.7522 2.56171 42.6435 2.48023 42.5507C2.39874 42.4579 2.31159 42.3809 2.21879 42.3198C2.12372 42.2587 2.02525 42.2134 1.9234 42.184C1.82154 42.1523 1.71968 42.1365 1.61782 42.1365C1.38694 42.1365 1.18435 42.175 1.01006 42.2519C0.835766 42.3289 0.688637 42.4375 0.568669 42.5779C0.450965 42.7159 0.362687 42.8834 0.303835 43.0804C0.24272 43.275 0.212162 43.4889 0.212162 43.7221C0.212162 43.9507 0.246115 44.1612 0.314021 44.3536C0.381927 44.5437 0.475864 44.709 0.595832 44.8493C0.718063 44.9897 0.861797 45.0994 1.02704 45.1787C1.19227 45.2579 1.37336 45.2975 1.57028 45.2975L1.57028 44.486C1.4639 44.486 1.3677 44.4668 1.28168 44.4283C1.19567 44.3876 1.1221 44.3321 1.06099 44.2619C0.999873 44.194 0.95347 44.1137 0.921781 44.0209C0.887828 43.9258 0.870851 43.8228 0.870851 43.7119C0.870851 43.5874 0.887828 43.4776 0.921781 43.3826C0.955734 43.2852 1.00327 43.2049 1.06438 43.1415C1.13003 43.0781 1.20925 43.0306 1.30206 42.9989C1.39486 42.9649 1.50011 42.948 1.61782 42.948C1.72647 42.948 1.82833 42.9661 1.9234 43.0023C2.0162 43.0362 2.09429 43.086 2.15767 43.1517C2.23011 43.2218 2.28669 43.3112 2.32744 43.4199C2.36592 43.5285 2.38516 43.6553 2.38516 43.8002L2.38516 44.2857ZM2.38516 40.1095L3.02347 40.1095L3.02347 39.6239C3.02347 39.4836 3.04045 39.3569 3.0744 39.2437C3.10609 39.1282 3.15476 39.0298 3.2204 38.9483C3.28831 38.8668 3.37319 38.8045 3.47505 38.7615C3.57691 38.7185 3.69914 38.697 3.84174 38.697C3.9685 38.697 4.08168 38.7163 4.18127 38.7548C4.27861 38.791 4.36009 38.8442 4.42574 38.9143C4.49591 38.9868 4.5491 39.0762 4.58531 39.1826C4.61927 39.2867 4.63624 39.4044 4.63624 39.5357C4.63624 39.6579 4.61814 39.7699 4.58192 39.8718C4.5457 39.9714 4.49477 40.0574 4.42913 40.1298C4.36575 40.2045 4.28879 40.2623 4.19825 40.303C4.10545 40.3415 4.00472 40.3607 3.89607 40.3607L3.89607 41.1722C4.12695 41.1722 4.32954 41.1281 4.50383 41.0398C4.67586 40.9492 4.82072 40.8293 4.93843 40.6799C5.05613 40.5305 5.14441 40.3573 5.20326 40.1604C5.26211 39.9635 5.29154 39.7586 5.29154 39.5459C5.29154 39.3104 5.25985 39.092 5.19647 38.8906C5.13083 38.6868 5.03576 38.5103 4.91126 38.3609C4.78903 38.2138 4.63851 38.0983 4.45969 38.0146C4.27861 37.9286 4.07262 37.8856 3.84174 37.8856C3.71725 37.8856 3.59728 37.9003 3.48184 37.9297C3.36414 37.9591 3.25436 38.0067 3.1525 38.0723C3.0529 38.1379 2.96349 38.2228 2.88427 38.3269C2.80278 38.4288 2.73714 38.5533 2.68734 38.7004C2.63075 38.5759 2.56171 38.4673 2.48023 38.3745C2.39874 38.2817 2.31159 38.2047 2.21879 38.1436C2.12372 38.0825 2.02525 38.0372 1.9234 38.0078C1.82154 37.9761 1.71968 37.9602 1.61782 37.9602C1.38694 37.9602 1.18435 37.9987 1.01006 38.0757C0.835766 38.1527 0.688636 38.2613 0.568669 38.4016C0.450965 38.5397 0.362687 38.7072 0.303835 38.9041C0.24272 39.0988 0.212162 39.3127 0.212162 39.5459C0.212162 39.7745 0.246115 39.985 0.314021 40.1774C0.381927 40.3675 0.475864 40.5328 0.595831 40.6731C0.718062 40.8134 0.861797 40.9232 1.02704 41.0024C1.19227 41.0817 1.37336 41.1213 1.57028 41.1213L1.57028 40.3098C1.4639 40.3098 1.3677 40.2906 1.28168 40.2521C1.19567 40.2113 1.1221 40.1559 1.06099 40.0857C0.999873 40.0178 0.95347 39.9374 0.921781 39.8446C0.887828 39.7496 0.870851 39.6466 0.870851 39.5357C0.870851 39.4112 0.887828 39.3014 0.921781 39.2063C0.955734 39.109 1.00327 39.0286 1.06438 38.9653C1.13003 38.9019 1.20925 38.8543 1.30205 38.8227C1.39486 38.7887 1.50011 38.7717 1.61782 38.7717C1.72647 38.7717 1.82833 38.7898 1.9234 38.8261C2.0162 38.86 2.09429 38.9098 2.15767 38.9754C2.2301 39.0456 2.28669 39.135 2.32744 39.2437C2.36592 39.3523 2.38516 39.4791 2.38516 39.6239L2.38516 40.1095ZM2.38516 35.9333L3.02347 35.9333L3.02347 35.4477C3.02347 35.3074 3.04045 35.1806 3.0744 35.0674C3.10609 34.952 3.15476 34.8535 3.2204 34.7721C3.28831 34.6906 3.37319 34.6283 3.47505 34.5853C3.57691 34.5423 3.69914 34.5208 3.84174 34.5208C3.9685 34.5208 4.08168 34.54 4.18127 34.5785C4.27861 34.6147 4.36009 34.6679 4.42574 34.7381C4.4959 34.8105 4.5491 34.8999 4.58531 35.0063C4.61927 35.1105 4.63624 35.2282 4.63624 35.3594C4.63624 35.4817 4.61814 35.5937 4.58192 35.6956C4.5457 35.7952 4.49477 35.8812 4.42913 35.9536C4.36575 36.0283 4.28879 36.086 4.19825 36.1268C4.10544 36.1653 4.00472 36.1845 3.89607 36.1845L3.89607 36.996C4.12695 36.996 4.32954 36.9518 4.50383 36.8636C4.67586 36.773 4.82072 36.6531 4.93843 36.5037C5.05613 36.3543 5.14441 36.1811 5.20326 35.9842C5.26211 35.7873 5.29154 35.5824 5.29154 35.3696C5.29154 35.1342 5.25985 34.9158 5.19647 34.7143C5.13083 34.5106 5.03576 34.3341 4.91126 34.1847C4.78903 34.0375 4.63851 33.9221 4.45969 33.8383C4.27861 33.7523 4.07262 33.7093 3.84174 33.7093C3.71725 33.7093 3.59728 33.724 3.48184 33.7535C3.36414 33.7829 3.25436 33.8304 3.1525 33.8961C3.0529 33.9617 2.96349 34.0466 2.88427 34.1507C2.80278 34.2526 2.73714 34.3771 2.68734 34.5242C2.63075 34.3997 2.56171 34.2911 2.48023 34.1983C2.39874 34.1054 2.31159 34.0285 2.21879 33.9674C2.12372 33.9063 2.02525 33.861 1.9234 33.8316C1.82154 33.7999 1.71968 33.784 1.61782 33.784C1.38694 33.784 1.18435 33.8225 1.01006 33.8995C0.835766 33.9764 0.688636 34.0851 0.568669 34.2254C0.450965 34.3635 0.362687 34.531 0.303835 34.7279C0.24272 34.9226 0.212162 35.1365 0.212162 35.3696C0.212162 35.5982 0.246115 35.8088 0.314021 36.0012C0.381927 36.1913 0.475864 36.3565 0.595831 36.4969C0.718062 36.6372 0.861797 36.747 1.02704 36.8262C1.19227 36.9054 1.37336 36.9451 1.57028 36.9451L1.57028 36.1336C1.4639 36.1336 1.3677 36.1143 1.28168 36.0759C1.19567 36.0351 1.1221 35.9797 1.06099 35.9095C0.999873 35.8416 0.95347 35.7612 0.921781 35.6684C0.887828 35.5733 0.870851 35.4704 0.870851 35.3594C0.870851 35.235 0.887827 35.1252 0.921781 35.0301C0.955734 34.9328 1.00327 34.8524 1.06438 34.789C1.13003 34.7257 1.20925 34.6781 1.30205 34.6464C1.39486 34.6125 1.50011 34.5955 1.61782 34.5955C1.72647 34.5955 1.82833 34.6136 1.9234 34.6498C2.0162 34.6838 2.09429 34.7336 2.15767 34.7992C2.2301 34.8694 2.28669 34.9588 2.32744 35.0674C2.36592 35.1761 2.38516 35.3029 2.38516 35.4477L2.38516 35.9333ZM3.46147 29.9473L0.280068 29.9473L0.280068 30.7826L3.62105 32.9182L4.12016 32.8978L4.12016 30.7588L5.22363 30.7588L5.22363 29.9473L4.12016 29.9473L4.12016 29.326L3.46147 29.326L3.46147 29.9473ZM3.46147 32.0898L1.54312 30.8539L1.36657 30.7588L3.46147 30.7588L3.46147 32.0898ZM2.77222 28.3176L2.9318 27.6691C2.89106 27.6261 2.85371 27.5819 2.81976 27.5367C2.78354 27.4891 2.75185 27.4371 2.72469 27.3805C2.69979 27.3262 2.67942 27.2639 2.66357 27.1937C2.64773 27.1213 2.6398 27.0364 2.6398 26.9391C2.6398 26.792 2.6647 26.6629 2.7145 26.552C2.76204 26.4411 2.82994 26.3483 2.91822 26.2736C3.0065 26.1989 3.11062 26.1435 3.23059 26.1072C3.34829 26.0688 3.47844 26.0495 3.62105 26.0495C3.76818 26.0495 3.90512 26.0654 4.03188 26.0971C4.15637 26.1287 4.26276 26.1763 4.35104 26.2397C4.44158 26.3076 4.51175 26.3913 4.56155 26.4909C4.61134 26.5905 4.63624 26.7082 4.63624 26.844C4.63624 27.0749 4.57173 27.265 4.44271 27.4144C4.31369 27.5616 4.12808 27.6498 3.88588 27.6793L3.88588 28.4704C4.1145 28.4568 4.31709 28.4036 4.49364 28.3108C4.66793 28.2157 4.81393 28.0946 4.93164 27.9475C5.0516 27.8004 5.14214 27.6317 5.20326 27.4416C5.26211 27.2515 5.29154 27.0523 5.29154 26.844C5.29154 26.5701 5.24853 26.3325 5.16252 26.131C5.0765 25.9296 4.9588 25.7632 4.8094 25.6319C4.66001 25.4983 4.48572 25.3999 4.28653 25.3365C4.08507 25.2709 3.87117 25.238 3.64481 25.238C3.38904 25.238 3.15929 25.272 2.95557 25.3399C2.74959 25.4078 2.57416 25.5051 2.4293 25.6319C2.28669 25.7609 2.17691 25.9182 2.09995 26.1038C2.02299 26.2872 1.98451 26.4954 1.98451 26.7286C1.98451 26.9006 2.00601 27.0534 2.04902 27.1869C2.09203 27.3182 2.1373 27.4246 2.18483 27.5061L0.999872 27.3771L0.999872 25.3942L0.280067 25.3942L0.280068 28.0527L2.77222 28.3176ZM4.55476 23.6049L4.55476 23.6694L5.2474 23.6694L5.2474 23.6015C5.2474 23.176 5.18515 22.8127 5.06066 22.5116C4.93616 22.2083 4.76527 21.9638 4.54797 21.7782C4.28313 21.5496 3.97416 21.39 3.62105 21.2995C3.26794 21.2089 2.89672 21.1637 2.50739 21.1637L2.22218 21.1637C1.93924 21.1637 1.66988 21.201 1.4141 21.2757C1.15606 21.3504 0.936493 21.4602 0.75541 21.6051C0.587908 21.7431 0.455491 21.9118 0.358159 22.111C0.260827 22.3079 0.212161 22.5342 0.212161 22.79C0.212161 23.0435 0.258564 23.2699 0.351369 23.4691C0.44191 23.666 0.565273 23.8324 0.721457 23.9682C0.879905 24.104 1.06438 24.2081 1.27489 24.2806C1.48314 24.3507 1.7061 24.3858 1.94377 24.3858C2.16333 24.3858 2.37271 24.3564 2.5719 24.2975C2.77109 24.2387 2.94765 24.1493 3.10157 24.0293C3.25322 23.9116 3.37432 23.7645 3.46486 23.5879C3.5554 23.4091 3.60068 23.1997 3.60068 22.9598C3.60068 22.8421 3.58936 22.7346 3.56672 22.6372C3.54409 22.5376 3.51353 22.4471 3.47505 22.3656C3.43883 22.2887 3.39696 22.2185 3.34942 22.1551C3.29963 22.0895 3.24643 22.0317 3.18984 21.9819L3.20682 21.9819C3.39922 22.0001 3.57917 22.0408 3.74667 22.1042C3.91191 22.1676 4.05904 22.2671 4.18806 22.403C4.30577 22.5297 4.39631 22.6916 4.45969 22.8885C4.52307 23.0854 4.55476 23.3242 4.55476 23.6049ZM2.95896 22.7866C2.95896 22.9224 2.93067 23.0401 2.87408 23.1397C2.81523 23.2371 2.73827 23.3186 2.6432 23.3842C2.54587 23.4521 2.43495 23.5019 2.31046 23.5336C2.18597 23.5653 2.05581 23.5811 1.92 23.5811C1.77966 23.5811 1.64611 23.5642 1.51935 23.5302C1.39033 23.494 1.27829 23.4419 1.18322 23.374C1.08815 23.3084 1.01345 23.2269 0.959128 23.1296C0.90254 23.03 0.874246 22.9168 0.874246 22.79C0.874246 22.6768 0.901408 22.5705 0.955733 22.4709C1.00779 22.3713 1.08475 22.2841 1.18661 22.2094C1.28847 22.137 1.41523 22.0793 1.56689 22.0363C1.71854 21.991 1.89284 21.9684 2.08976 21.9684L2.37158 21.9684C2.45533 22.0023 2.53342 22.0465 2.60585 22.1008C2.67602 22.1528 2.73714 22.214 2.7892 22.2841C2.84352 22.3543 2.8854 22.4324 2.91482 22.5184C2.94425 22.6022 2.95896 22.6916 2.95896 22.7866ZM0.735038 12.7229L0.280067 12.7229L0.280067 16.142L0.959128 16.142L0.959128 13.5786L5.22363 15.5546L5.22363 14.699L0.735038 12.7229ZM3.46147 9.0662L0.280067 9.0662L0.280067 9.90145L3.62105 12.0371L4.12016 12.0167L4.12016 9.87768L5.22363 9.87768L5.22363 9.0662L4.12016 9.0662L4.12016 8.44486L3.46147 8.44486L3.46147 9.0662ZM3.46147 11.2086L1.54312 9.97275L1.36656 9.87768L3.46147 9.87768L3.46147 11.2086ZM2.77222 7.43646L2.9318 6.78795C2.89106 6.74495 2.85371 6.70081 2.81975 6.65554C2.78354 6.608 2.75185 6.55594 2.72469 6.49935C2.69979 6.44503 2.67942 6.38278 2.66357 6.31261C2.64773 6.24018 2.6398 6.1553 2.6398 6.05796C2.6398 5.91083 2.6647 5.78181 2.7145 5.6709C2.76203 5.55999 2.82994 5.46718 2.91822 5.39248C3.0065 5.31779 3.11062 5.26233 3.23059 5.22611C3.34829 5.18763 3.47844 5.16839 3.62105 5.16839C3.76818 5.16839 3.90512 5.18424 4.03188 5.21593C4.15637 5.24762 4.26276 5.29515 4.35104 5.35853C4.44158 5.42644 4.51175 5.51019 4.56155 5.60978C4.61134 5.70938 4.63624 5.82708 4.63624 5.96289C4.63624 6.19378 4.57173 6.38391 4.44271 6.53331C4.31369 6.68044 4.12808 6.76871 3.88588 6.79814L3.88588 7.58925C4.1145 7.57566 4.31708 7.52247 4.49364 7.42967C4.66793 7.3346 4.81393 7.2135 4.93163 7.06637C5.0516 6.91924 5.14214 6.75061 5.20326 6.56047C5.26211 6.37033 5.29154 6.17114 5.29154 5.96289C5.29154 5.68901 5.24853 5.45134 5.16252 5.24988C5.0765 5.04843 4.9588 4.88206 4.8094 4.75077C4.66001 4.61722 4.48572 4.51876 4.28653 4.45538C4.08507 4.38974 3.87117 4.35692 3.64481 4.35692C3.38903 4.35692 3.15929 4.39087 2.95557 4.45877C2.74959 4.52668 2.57416 4.62401 2.42929 4.75077C2.28669 4.87979 2.17691 5.03711 2.09995 5.22272C2.02299 5.40606 1.98451 5.61431 1.98451 5.84745C1.98451 6.01948 2.00601 6.17227 2.04902 6.30582C2.09203 6.43711 2.1373 6.54349 2.18483 6.62498L0.999871 6.49596L0.999871 4.5131L0.280067 4.5131L0.280067 7.17162L2.77222 7.43646ZM2.77222 3.26023L2.9318 2.61173C2.89106 2.56872 2.85371 2.52458 2.81975 2.47931C2.78354 2.43178 2.75185 2.37972 2.72469 2.32313C2.69979 2.2688 2.67942 2.20656 2.66357 2.13639C2.64773 2.06395 2.6398 1.97907 2.6398 1.88174C2.6398 1.73461 2.6647 1.60559 2.7145 1.49467C2.76203 1.38376 2.82994 1.29096 2.91822 1.21626C3.0065 1.14156 3.11062 1.08611 3.23059 1.04989C3.34829 1.01141 3.47844 0.99217 3.62105 0.99217C3.76818 0.99217 3.90512 1.00801 4.03188 1.0397C4.15637 1.07139 4.26276 1.11893 4.35104 1.18231C4.44158 1.25021 4.51175 1.33396 4.56155 1.43356C4.61134 1.53315 4.63624 1.65086 4.63624 1.78667C4.63624 2.01755 4.57173 2.20769 4.44271 2.35708C4.31369 2.50421 4.12808 2.59249 3.88588 2.62192L3.88588 3.41302C4.1145 3.39944 4.31708 3.34625 4.49364 3.25344C4.66793 3.15837 4.81393 3.03727 4.93163 2.89014C5.0516 2.74302 5.14214 2.57438 5.20326 2.38424C5.26211 2.19411 5.29154 1.99492 5.29154 1.78667C5.29154 1.51278 5.24853 1.27511 5.16252 1.07366C5.0765 0.872202 4.9588 0.705832 4.8094 0.574547C4.66001 0.440998 4.48572 0.342534 4.28653 0.279155C4.08507 0.213513 3.87117 0.180692 3.64481 0.180692C3.38903 0.180692 3.15929 0.214645 2.95557 0.282551C2.74958 0.350457 2.57416 0.447789 2.42929 0.574547C2.28669 0.703569 2.17691 0.860884 2.09995 1.04649C2.02299 1.22984 1.98451 1.43809 1.98451 1.67123C1.98451 1.84326 2.00601 1.99605 2.04902 2.1296C2.09203 2.26088 2.1373 2.36727 2.18483 2.44876L0.999871 2.31973L0.999871 0.336876L0.280066 0.336876L0.280066 2.9954L2.77222 3.26023Z" fill="white"/>
</svg>
