<svg width="210" height="18" viewBox="0 0 210 18" fill="none" xmlns="http://www.w3.org/2000/svg">
<path d="M7.92188 11.8789H6.39209C6.3667 12.1582 6.31169 12.4058 6.22705 12.6216C6.14242 12.8374 6.03027 13.0173 5.89062 13.1611C5.74674 13.3092 5.57324 13.4214 5.37012 13.4976C5.16699 13.5737 4.93424 13.6118 4.67188 13.6118C4.45182 13.6118 4.25505 13.5822 4.08154 13.5229C3.91227 13.4595 3.76204 13.3685 3.63086 13.25C3.50391 13.14 3.39388 13.0088 3.30078 12.8564C3.21191 12.7041 3.13786 12.5348 3.07861 12.3486C3.00244 12.1243 2.94531 11.8768 2.90723 11.606C2.87337 11.3351 2.85645 11.0452 2.85645 10.7363V9.46045C2.85645 9.21077 2.86914 8.96745 2.89453 8.73047C2.92415 8.48926 2.96647 8.26286 3.02148 8.05127C3.09342 7.81006 3.18441 7.59212 3.29443 7.39746C3.40869 7.19857 3.55046 7.03776 3.71973 6.91504C3.84245 6.81348 3.9821 6.73519 4.13867 6.68018C4.29948 6.62516 4.47933 6.59766 4.67822 6.59766C4.96175 6.59766 5.20508 6.63997 5.4082 6.72461C5.61133 6.80501 5.78271 6.9235 5.92236 7.08008C6.05778 7.23665 6.16357 7.42708 6.23975 7.65137C6.32015 7.87142 6.37305 8.11898 6.39844 8.39404H7.92188C7.87533 7.93278 7.77165 7.51383 7.61084 7.13721C7.45426 6.76058 7.23844 6.43896 6.96338 6.17236C6.69255 5.90999 6.36458 5.70687 5.97949 5.56299C5.59863 5.41911 5.16488 5.34717 4.67822 5.34717C4.31852 5.34717 3.98633 5.39583 3.68164 5.49316C3.38118 5.59049 3.10612 5.72591 2.85645 5.89941C2.59408 6.08984 2.36133 6.32048 2.1582 6.59131C1.95931 6.85791 1.79639 7.15625 1.66943 7.48633C1.55094 7.78255 1.46208 8.09782 1.40283 8.43213C1.34359 8.76644 1.31396 9.11344 1.31396 9.47314V10.7363C1.31396 11.113 1.34359 11.4748 1.40283 11.8218C1.46631 12.1688 1.55941 12.4904 1.68213 12.7866C1.80485 13.0871 1.95508 13.3643 2.13281 13.6182C2.31478 13.8678 2.52637 14.0815 2.76758 14.2593C3.01725 14.4497 3.30078 14.5978 3.61816 14.7036C3.93978 14.8052 4.29102 14.856 4.67188 14.856C5.13737 14.856 5.56055 14.7861 5.94141 14.6465C6.3265 14.5026 6.65869 14.2995 6.93799 14.0371C7.21305 13.779 7.43522 13.4679 7.60449 13.104C7.77376 12.7358 7.87956 12.3275 7.92188 11.8789ZM15.7549 10.7173V9.49854C15.7549 9.11344 15.721 8.74316 15.6533 8.3877C15.5856 8.02799 15.484 7.69157 15.3486 7.37842C15.2259 7.08643 15.0736 6.81771 14.8916 6.57227C14.7096 6.32682 14.4959 6.11312 14.2505 5.93115C14.005 5.74919 13.7279 5.60742 13.4189 5.50586C13.11 5.4043 12.7715 5.35352 12.4033 5.35352C12.0394 5.35352 11.7051 5.4043 11.4004 5.50586C11.0999 5.60319 10.8312 5.74284 10.5942 5.9248C10.3488 6.111 10.1351 6.33105 9.95312 6.58496C9.77539 6.83464 9.62516 7.1097 9.50244 7.41016C9.37549 7.72331 9.28027 8.0555 9.2168 8.40674C9.15332 8.75798 9.12158 9.12191 9.12158 9.49854V10.7173C9.12158 11.077 9.1512 11.4282 9.21045 11.771C9.26969 12.1095 9.35856 12.429 9.47705 12.7295C9.59977 13.0426 9.75212 13.3304 9.93408 13.5928C10.1203 13.8551 10.3361 14.0794 10.5815 14.2656C10.8228 14.4476 11.0957 14.5915 11.4004 14.6973C11.7093 14.7988 12.0479 14.8496 12.416 14.8496C12.7715 14.8496 13.0973 14.8009 13.3936 14.7036C13.694 14.6063 13.967 14.473 14.2124 14.3037C14.4663 14.1175 14.6906 13.8953 14.8853 13.6372C15.0799 13.3748 15.2428 13.0892 15.374 12.7803C15.4967 12.4714 15.5898 12.1434 15.6533 11.7964C15.721 11.4494 15.7549 11.0897 15.7549 10.7173ZM14.2188 9.48584V10.7173C14.2145 10.9458 14.1997 11.1722 14.1743 11.3965C14.1532 11.6165 14.1172 11.8281 14.0664 12.0312C14.0072 12.264 13.9268 12.4777 13.8252 12.6724C13.7279 12.8628 13.6051 13.0278 13.457 13.1675C13.3301 13.2902 13.1777 13.3875 13 13.4595C12.8265 13.5314 12.6318 13.5674 12.416 13.5674C12.1917 13.5674 11.9928 13.5314 11.8193 13.4595C11.6501 13.3833 11.4998 13.2817 11.3687 13.1548C11.2332 13.0194 11.1169 12.8543 11.0195 12.6597C10.9264 12.4608 10.8524 12.2471 10.7974 12.0186C10.7466 11.8154 10.7106 11.6038 10.6895 11.3838C10.6683 11.1637 10.6577 10.9416 10.6577 10.7173V9.48584C10.6577 9.25732 10.6683 9.03092 10.6895 8.80664C10.7148 8.57812 10.7529 8.3623 10.8037 8.15918C10.8587 7.9222 10.937 7.7085 11.0386 7.51807C11.1401 7.3234 11.265 7.15625 11.4131 7.0166C11.5358 6.90234 11.6797 6.81348 11.8447 6.75C12.0098 6.68229 12.196 6.64844 12.4033 6.64844C12.6191 6.64844 12.8117 6.68229 12.981 6.75C13.1502 6.81771 13.3005 6.91081 13.4316 7.0293C13.5798 7.16471 13.7046 7.32975 13.8062 7.52441C13.9119 7.71484 13.9966 7.92643 14.0601 8.15918C14.1151 8.3623 14.1532 8.57601 14.1743 8.80029C14.1997 9.02458 14.2145 9.25309 14.2188 9.48584ZM23.2642 14.7227V5.48047H21.728L21.7153 11.8154L18.7319 5.48047H17.1831V14.7227H18.7256L18.7319 8.3623L21.7344 14.7227H23.2642ZM31.6621 6.74365V5.48047H24.4639V6.74365H27.2949V14.7227H28.812V6.74365H31.6621ZM33.1411 5.48047V6.74365H35.0708V13.4658H33.1411V14.7227H38.5874V13.4658H36.6133V6.74365H38.5874V5.48047H33.1411ZM46.687 14.7227V5.48047H45.1509L45.1382 11.8154L42.1548 5.48047H40.606V14.7227H42.1484L42.1548 8.3623L45.1572 14.7227H46.687ZM54.5391 5.48047H53.0347L53.022 11.6631C53.0135 11.9508 52.9754 12.2153 52.9077 12.4565C52.84 12.6935 52.7406 12.8988 52.6094 13.0723C52.4782 13.2415 52.3153 13.3727 52.1206 13.4658C51.9302 13.5547 51.7101 13.5991 51.4604 13.5991C51.215 13.5991 50.9992 13.5547 50.813 13.4658C50.631 13.3727 50.4766 13.2458 50.3496 13.085C50.2184 12.9157 50.119 12.7104 50.0513 12.4692C49.9836 12.2238 49.9476 11.9551 49.9434 11.6631L49.9307 5.48047H48.4263L48.4136 11.6631C48.4178 12.1413 48.4919 12.5771 48.6357 12.9707C48.7839 13.3643 48.9912 13.7007 49.2578 13.98C49.5202 14.2593 49.8376 14.4751 50.21 14.6274C50.5824 14.7756 50.9992 14.8496 51.4604 14.8496C51.9302 14.8496 52.3534 14.7734 52.73 14.6211C53.1108 14.4688 53.4367 14.2529 53.7075 13.9736C53.9741 13.6943 54.1794 13.36 54.3232 12.9707C54.4714 12.5771 54.5454 12.1413 54.5454 11.6631L54.5391 5.48047ZM61.769 10.5776V9.34619H57.9478V6.74365H62.3784V5.48047H56.418V14.7227H62.4102V13.4658H57.9478V10.5776H61.769Z" fill="white"/>
<path d="M144.025 12.3423C144.025 12.5454 143.981 12.7253 143.892 12.8818C143.807 13.0384 143.693 13.1696 143.549 13.2754C143.401 13.3854 143.226 13.4679 143.022 13.5229C142.824 13.578 142.608 13.6055 142.375 13.6055C142.1 13.6055 141.846 13.5716 141.613 13.5039C141.385 13.4362 141.186 13.3325 141.017 13.1929C140.843 13.0575 140.706 12.8861 140.604 12.6787C140.507 12.4671 140.447 12.2196 140.426 11.936H138.903C138.907 12.3804 138.996 12.7739 139.169 13.1167C139.347 13.4595 139.586 13.7578 139.887 14.0117C140.213 14.2826 140.596 14.4899 141.036 14.6338C141.476 14.7734 141.922 14.8433 142.375 14.8433C142.802 14.8433 143.209 14.7904 143.594 14.6846C143.979 14.5745 144.317 14.4116 144.609 14.1958C144.897 13.9884 145.126 13.7282 145.295 13.415C145.468 13.1019 145.555 12.7401 145.555 12.3296C145.555 11.8853 145.456 11.4938 145.257 11.1553C145.062 10.8125 144.802 10.5184 144.476 10.2729C144.214 10.0783 143.926 9.91325 143.613 9.77783C143.304 9.63818 142.986 9.52181 142.661 9.42871C142.403 9.35254 142.155 9.27002 141.918 9.18115C141.685 9.09229 141.478 8.98861 141.296 8.87012C141.118 8.75163 140.976 8.6141 140.871 8.45752C140.765 8.29671 140.71 8.11051 140.706 7.89893C140.706 7.70003 140.746 7.52018 140.826 7.35938C140.907 7.19857 141.019 7.06104 141.163 6.94678C141.306 6.83675 141.476 6.75212 141.67 6.69287C141.869 6.62939 142.085 6.59766 142.318 6.59766C142.584 6.59766 142.819 6.63786 143.022 6.71826C143.23 6.79443 143.405 6.90023 143.549 7.03564C143.689 7.17529 143.797 7.34245 143.873 7.53711C143.953 7.72754 144.004 7.93913 144.025 8.17188H145.536C145.536 7.75293 145.451 7.37207 145.282 7.0293C145.117 6.68229 144.891 6.38395 144.603 6.13428C144.315 5.88883 143.977 5.6984 143.587 5.56299C143.202 5.42334 142.785 5.35352 142.337 5.35352C141.914 5.35352 141.51 5.41276 141.125 5.53125C140.744 5.64551 140.409 5.81266 140.122 6.03271C139.834 6.257 139.605 6.52783 139.436 6.84521C139.267 7.15837 139.182 7.51172 139.182 7.90527C139.182 8.26921 139.254 8.59717 139.398 8.88916C139.546 9.17692 139.749 9.43506 140.007 9.66357C140.265 9.88786 140.576 10.091 140.94 10.2729C141.309 10.4507 141.711 10.6009 142.146 10.7236C142.43 10.804 142.686 10.895 142.915 10.9966C143.147 11.0939 143.348 11.2039 143.518 11.3267C143.678 11.4578 143.803 11.606 143.892 11.771C143.981 11.936 144.025 12.1265 144.025 12.3423ZM153.255 11.8789H151.725C151.7 12.1582 151.645 12.4058 151.56 12.6216C151.475 12.8374 151.363 13.0173 151.224 13.1611C151.08 13.3092 150.906 13.4214 150.703 13.4976C150.5 13.5737 150.267 13.6118 150.005 13.6118C149.785 13.6118 149.588 13.5822 149.415 13.5229C149.245 13.4595 149.095 13.3685 148.964 13.25C148.837 13.14 148.727 13.0088 148.634 12.8564C148.545 12.7041 148.471 12.5348 148.412 12.3486C148.335 12.1243 148.278 11.8768 148.24 11.606C148.206 11.3351 148.189 11.0452 148.189 10.7363V9.46045C148.189 9.21077 148.202 8.96745 148.228 8.73047C148.257 8.48926 148.299 8.26286 148.354 8.05127C148.426 7.81006 148.517 7.59212 148.627 7.39746C148.742 7.19857 148.883 7.03776 149.053 6.91504C149.175 6.81348 149.315 6.73519 149.472 6.68018C149.632 6.62516 149.812 6.59766 150.011 6.59766C150.295 6.59766 150.538 6.63997 150.741 6.72461C150.944 6.80501 151.116 6.9235 151.255 7.08008C151.391 7.23665 151.497 7.42708 151.573 7.65137C151.653 7.87142 151.706 8.11898 151.731 8.39404H153.255C153.208 7.93278 153.105 7.51383 152.944 7.13721C152.787 6.76058 152.571 6.43896 152.296 6.17236C152.026 5.90999 151.698 5.70687 151.312 5.56299C150.932 5.41911 150.498 5.34717 150.011 5.34717C149.652 5.34717 149.319 5.39583 149.015 5.49316C148.714 5.59049 148.439 5.72591 148.189 5.89941C147.927 6.08984 147.694 6.32048 147.491 6.59131C147.292 6.85791 147.129 7.15625 147.002 7.48633C146.884 7.78255 146.795 8.09782 146.736 8.43213C146.677 8.76644 146.647 9.11344 146.647 9.47314V10.7363C146.647 11.113 146.677 11.4748 146.736 11.8218C146.799 12.1688 146.892 12.4904 147.015 12.7866C147.138 13.0871 147.288 13.3643 147.466 13.6182C147.648 13.8678 147.859 14.0815 148.101 14.2593C148.35 14.4497 148.634 14.5978 148.951 14.7036C149.273 14.8052 149.624 14.856 150.005 14.856C150.47 14.856 150.894 14.7861 151.274 14.6465C151.66 14.5026 151.992 14.2995 152.271 14.0371C152.546 13.779 152.768 13.4679 152.938 13.104C153.107 12.7358 153.213 12.3275 153.255 11.8789ZM157.927 11.1362L159.698 14.7227H161.329V14.6401L159.355 10.7744C159.609 10.6602 159.84 10.5247 160.047 10.3682C160.254 10.2116 160.432 10.0296 160.58 9.82227C160.728 9.61491 160.842 9.38216 160.923 9.12402C161.007 8.86589 161.05 8.57812 161.05 8.26074C161.05 7.79948 160.969 7.39746 160.809 7.05469C160.648 6.70768 160.424 6.41781 160.136 6.18506C159.844 5.95654 159.497 5.78304 159.095 5.66455C158.693 5.54606 158.253 5.4847 157.774 5.48047H154.842V14.7227H156.365V11.1362H157.927ZM156.365 9.89209V6.72461H157.774C158.037 6.72884 158.274 6.76481 158.485 6.83252C158.697 6.896 158.877 6.99121 159.025 7.11816C159.186 7.25358 159.306 7.42285 159.387 7.62598C159.471 7.82487 159.514 8.05762 159.514 8.32422C159.514 8.5612 159.476 8.77279 159.399 8.95898C159.323 9.14518 159.217 9.30176 159.082 9.42871C158.93 9.57682 158.743 9.69108 158.523 9.77148C158.308 9.84766 158.064 9.88786 157.793 9.89209H156.365ZM168.896 10.7173V9.49854C168.896 9.11344 168.862 8.74316 168.794 8.3877C168.726 8.02799 168.625 7.69157 168.489 7.37842C168.367 7.08643 168.214 6.81771 168.032 6.57227C167.85 6.32682 167.637 6.11312 167.391 5.93115C167.146 5.74919 166.868 5.60742 166.56 5.50586C166.251 5.4043 165.912 5.35352 165.544 5.35352C165.18 5.35352 164.846 5.4043 164.541 5.50586C164.241 5.60319 163.972 5.74284 163.735 5.9248C163.489 6.111 163.276 6.33105 163.094 6.58496C162.916 6.83464 162.766 7.1097 162.643 7.41016C162.516 7.72331 162.421 8.0555 162.357 8.40674C162.294 8.75798 162.262 9.12191 162.262 9.49854V10.7173C162.262 11.077 162.292 11.4282 162.351 11.771C162.41 12.1095 162.499 12.429 162.618 12.7295C162.74 13.0426 162.893 13.3304 163.075 13.5928C163.261 13.8551 163.477 14.0794 163.722 14.2656C163.963 14.4476 164.236 14.5915 164.541 14.6973C164.85 14.7988 165.188 14.8496 165.557 14.8496C165.912 14.8496 166.238 14.8009 166.534 14.7036C166.835 14.6063 167.108 14.473 167.353 14.3037C167.607 14.1175 167.831 13.8953 168.026 13.6372C168.221 13.3748 168.383 13.0892 168.515 12.7803C168.637 12.4714 168.73 12.1434 168.794 11.7964C168.862 11.4494 168.896 11.0897 168.896 10.7173ZM167.359 9.48584V10.7173C167.355 10.9458 167.34 11.1722 167.315 11.3965C167.294 11.6165 167.258 11.8281 167.207 12.0312C167.148 12.264 167.067 12.4777 166.966 12.6724C166.868 12.8628 166.746 13.0278 166.598 13.1675C166.471 13.2902 166.318 13.3875 166.141 13.4595C165.967 13.5314 165.772 13.5674 165.557 13.5674C165.332 13.5674 165.133 13.5314 164.96 13.4595C164.791 13.3833 164.64 13.2817 164.509 13.1548C164.374 13.0194 164.257 12.8543 164.16 12.6597C164.067 12.4608 163.993 12.2471 163.938 12.0186C163.887 11.8154 163.851 11.6038 163.83 11.3838C163.809 11.1637 163.798 10.9416 163.798 10.7173V9.48584C163.798 9.25732 163.809 9.03092 163.83 8.80664C163.855 8.57812 163.894 8.3623 163.944 8.15918C163.999 7.9222 164.078 7.7085 164.179 7.51807C164.281 7.3234 164.406 7.15625 164.554 7.0166C164.676 6.90234 164.82 6.81348 164.985 6.75C165.15 6.68229 165.337 6.64844 165.544 6.64844C165.76 6.64844 165.952 6.68229 166.122 6.75C166.291 6.81771 166.441 6.91081 166.572 7.0293C166.72 7.16471 166.845 7.32975 166.947 7.52441C167.053 7.71484 167.137 7.92643 167.201 8.15918C167.256 8.3623 167.294 8.57601 167.315 8.80029C167.34 9.02458 167.355 9.25309 167.359 9.48584ZM172.101 13.4658V5.48047H170.571V14.7227H176.513V13.4658H172.101ZM179.909 13.4658V5.48047H178.379V14.7227H184.32V13.4658H179.909ZM186.282 5.48047V6.74365H188.211V13.4658H186.282V14.7227H191.728V13.4658H189.754V6.74365H191.728V5.48047H186.282ZM199.828 14.7227V5.48047H198.292L198.279 11.8154L195.295 5.48047H193.747V14.7227H195.289L195.295 8.3623L198.298 14.7227H199.828ZM207.864 13.5864L207.851 10.0508H204.677V11.2378H206.353L206.347 13.085C206.279 13.1738 206.188 13.2521 206.074 13.3198C205.959 13.3833 205.835 13.4362 205.699 13.4785C205.56 13.5208 205.414 13.5526 205.261 13.5737C205.109 13.5907 204.959 13.5991 204.811 13.5991C204.561 13.5949 204.337 13.5526 204.138 13.4722C203.943 13.3918 203.772 13.2775 203.624 13.1294C203.505 13.0151 203.401 12.884 203.312 12.7358C203.228 12.5877 203.154 12.429 203.09 12.2598C203.01 12.0355 202.949 11.7922 202.906 11.5298C202.868 11.2674 202.849 10.9902 202.849 10.6982V9.50488C202.849 9.25521 202.864 9.01188 202.894 8.7749C202.923 8.53792 202.97 8.31576 203.033 8.1084C203.105 7.87142 203.196 7.65771 203.306 7.46729C203.42 7.27262 203.554 7.1097 203.706 6.97852C203.837 6.86426 203.985 6.77539 204.15 6.71191C204.315 6.64421 204.495 6.61035 204.69 6.61035C204.957 6.61035 205.187 6.64844 205.382 6.72461C205.581 6.80078 205.748 6.91081 205.883 7.05469C206.01 7.1901 206.112 7.35726 206.188 7.55615C206.264 7.75081 206.321 7.96875 206.359 8.20996H207.857C207.815 7.76986 207.716 7.37419 207.559 7.02295C207.403 6.66748 207.189 6.36491 206.918 6.11523C206.651 5.86979 206.33 5.68148 205.953 5.55029C205.576 5.41911 205.145 5.35352 204.658 5.35352C204.299 5.35352 203.964 5.4043 203.655 5.50586C203.351 5.60742 203.071 5.7513 202.817 5.9375C202.585 6.11523 202.377 6.32471 202.195 6.56592C202.013 6.80713 201.857 7.07373 201.726 7.36572C201.59 7.67464 201.486 8.01107 201.415 8.375C201.347 8.73893 201.311 9.11979 201.307 9.51758V10.6982C201.311 11.1087 201.351 11.5002 201.427 11.8726C201.503 12.245 201.616 12.5856 201.764 12.8945C201.895 13.1908 202.058 13.4595 202.252 13.7007C202.451 13.9419 202.676 14.1471 202.925 14.3164C203.175 14.4857 203.454 14.6169 203.763 14.71C204.072 14.8031 204.404 14.8496 204.76 14.8496C205.145 14.8496 205.507 14.8094 205.845 14.729C206.184 14.6528 206.497 14.5449 206.785 14.4053C207.013 14.2952 207.218 14.1704 207.4 14.0308C207.582 13.8869 207.737 13.7388 207.864 13.5864Z" fill="white"/>
</svg>
