<svg width="193" height="18" viewBox="0 0 193 18" fill="none" xmlns="http://www.w3.org/2000/svg">
<path d="M7.57031 11.229H6.04053C6.01514 11.5083 5.96012 11.7559 5.87549 11.9717C5.79085 12.1875 5.67871 12.3674 5.53906 12.5112C5.39518 12.6593 5.22168 12.7715 5.01855 12.8477C4.81543 12.9238 4.58268 12.9619 4.32031 12.9619C4.10026 12.9619 3.90348 12.9323 3.72998 12.873C3.56071 12.8096 3.41048 12.7186 3.2793 12.6001C3.15234 12.4901 3.04232 12.3589 2.94922 12.2065C2.86035 12.0542 2.7863 11.8849 2.72705 11.6987C2.65088 11.4744 2.59375 11.2269 2.55566 10.9561C2.52181 10.6852 2.50488 10.3953 2.50488 10.0864V8.81055C2.50488 8.56087 2.51758 8.31755 2.54297 8.08057C2.57259 7.83936 2.61491 7.61296 2.66992 7.40137C2.74186 7.16016 2.83285 6.94222 2.94287 6.74756C3.05713 6.54867 3.19889 6.38786 3.36816 6.26514C3.49089 6.16357 3.63053 6.08529 3.78711 6.03027C3.94792 5.97526 4.12777 5.94775 4.32666 5.94775C4.61019 5.94775 4.85352 5.99007 5.05664 6.07471C5.25977 6.15511 5.43115 6.2736 5.5708 6.43018C5.70622 6.58675 5.81201 6.77718 5.88818 7.00146C5.96859 7.22152 6.02148 7.46908 6.04688 7.74414H7.57031C7.52376 7.28288 7.42008 6.86393 7.25928 6.4873C7.1027 6.11068 6.88688 5.78906 6.61182 5.52246C6.34098 5.26009 6.01302 5.05697 5.62793 4.91309C5.24707 4.76921 4.81331 4.69727 4.32666 4.69727C3.96696 4.69727 3.63477 4.74593 3.33008 4.84326C3.02962 4.94059 2.75456 5.07601 2.50488 5.24951C2.24251 5.43994 2.00977 5.67057 1.80664 5.94141C1.60775 6.20801 1.44482 6.50635 1.31787 6.83643C1.19938 7.13265 1.11051 7.44792 1.05127 7.78223C0.992025 8.11654 0.962402 8.46354 0.962402 8.82324V10.0864C0.962402 10.4631 0.992025 10.8249 1.05127 11.1719C1.11475 11.5189 1.20785 11.8405 1.33057 12.1367C1.45329 12.4372 1.60352 12.7144 1.78125 12.9683C1.96322 13.2179 2.1748 13.4316 2.41602 13.6094C2.66569 13.7998 2.94922 13.9479 3.2666 14.0537C3.58822 14.1553 3.93945 14.2061 4.32031 14.2061C4.78581 14.2061 5.20898 14.1362 5.58984 13.9966C5.97493 13.8527 6.30713 13.6496 6.58643 13.3872C6.86149 13.1291 7.08366 12.818 7.25293 12.4541C7.4222 12.0859 7.52799 11.6776 7.57031 11.229ZM15.4033 10.0674V8.84863C15.4033 8.46354 15.3695 8.09326 15.3018 7.73779C15.234 7.37809 15.1325 7.04167 14.9971 6.72852C14.8743 6.43652 14.722 6.16781 14.54 5.92236C14.3581 5.67692 14.1444 5.46322 13.8989 5.28125C13.6535 5.09928 13.3763 4.95752 13.0674 4.85596C12.7585 4.75439 12.4199 4.70361 12.0518 4.70361C11.6878 4.70361 11.3535 4.75439 11.0488 4.85596C10.7484 4.95329 10.4797 5.09294 10.2427 5.2749C9.99723 5.4611 9.78353 5.68115 9.60156 5.93506C9.42383 6.18473 9.2736 6.4598 9.15088 6.76025C9.02393 7.0734 8.92871 7.4056 8.86523 7.75684C8.80176 8.10807 8.77002 8.47201 8.77002 8.84863V10.0674C8.77002 10.4271 8.79964 10.7783 8.85889 11.1211C8.91813 11.4596 9.007 11.7791 9.12549 12.0796C9.24821 12.3927 9.40055 12.6805 9.58252 12.9429C9.76872 13.2052 9.98454 13.4295 10.23 13.6157C10.4712 13.7977 10.7441 13.9416 11.0488 14.0474C11.3577 14.1489 11.6963 14.1997 12.0645 14.1997C12.4199 14.1997 12.7458 14.151 13.042 14.0537C13.3424 13.9564 13.6154 13.8231 13.8608 13.6538C14.1147 13.4676 14.339 13.2454 14.5337 12.9873C14.7284 12.7249 14.8913 12.4393 15.0225 12.1304C15.1452 11.8215 15.2383 11.4935 15.3018 11.1465C15.3695 10.7995 15.4033 10.4398 15.4033 10.0674ZM13.8672 8.83594V10.0674C13.863 10.2959 13.8481 10.5223 13.8228 10.7466C13.8016 10.9666 13.7656 11.1782 13.7148 11.3813C13.6556 11.6141 13.5752 11.8278 13.4736 12.0225C13.3763 12.2129 13.2536 12.3779 13.1055 12.5176C12.9785 12.6403 12.8262 12.7376 12.6484 12.8096C12.4749 12.8815 12.2803 12.9175 12.0645 12.9175C11.8402 12.9175 11.6413 12.8815 11.4678 12.8096C11.2985 12.7334 11.1483 12.6318 11.0171 12.5049C10.8817 12.3695 10.7653 12.2044 10.668 12.0098C10.5749 11.8109 10.5008 11.5972 10.4458 11.3687C10.395 11.1655 10.359 10.9539 10.3379 10.7339C10.3167 10.5138 10.3062 10.2917 10.3062 10.0674V8.83594C10.3062 8.60742 10.3167 8.38102 10.3379 8.15674C10.3633 7.92822 10.4014 7.7124 10.4521 7.50928C10.5072 7.2723 10.5854 7.05859 10.687 6.86816C10.7886 6.6735 10.9134 6.50635 11.0615 6.3667C11.1842 6.25244 11.3281 6.16357 11.4932 6.1001C11.6582 6.03239 11.8444 5.99854 12.0518 5.99854C12.2676 5.99854 12.4601 6.03239 12.6294 6.1001C12.7987 6.16781 12.9489 6.2609 13.0801 6.37939C13.2282 6.51481 13.353 6.67985 13.4546 6.87451C13.5604 7.06494 13.645 7.27653 13.7085 7.50928C13.7635 7.7124 13.8016 7.92611 13.8228 8.15039C13.8481 8.37467 13.863 8.60319 13.8672 8.83594ZM22.9126 14.0728V4.83057H21.3765L21.3638 11.1655L18.3804 4.83057H16.8315V14.0728H18.374L18.3804 7.7124L21.3828 14.0728H22.9126ZM31.3105 6.09375V4.83057H24.1123V6.09375H26.9434V14.0728H28.4604V6.09375H31.3105ZM32.7896 4.83057V6.09375H34.7192V12.8159H32.7896V14.0728H38.2358V12.8159H36.2617V6.09375H38.2358V4.83057H32.7896ZM46.3354 14.0728V4.83057H44.7993L44.7866 11.1655L41.8032 4.83057H40.2544V14.0728H41.7969L41.8032 7.7124L44.8057 14.0728H46.3354ZM54.1875 4.83057H52.6831L52.6704 11.0132C52.6619 11.3009 52.6239 11.5654 52.5562 11.8066C52.4884 12.0436 52.389 12.2489 52.2578 12.4224C52.1266 12.5916 51.9637 12.7228 51.769 12.8159C51.5786 12.9048 51.3586 12.9492 51.1089 12.9492C50.8634 12.9492 50.6476 12.9048 50.4614 12.8159C50.2795 12.7228 50.125 12.5959 49.998 12.4351C49.8669 12.2658 49.7674 12.0605 49.6997 11.8193C49.632 11.5739 49.596 11.3052 49.5918 11.0132L49.5791 4.83057H48.0747L48.062 11.0132C48.0662 11.4914 48.1403 11.9272 48.2842 12.3208C48.4323 12.7144 48.6396 13.0508 48.9062 13.3301C49.1686 13.6094 49.486 13.8252 49.8584 13.9775C50.2308 14.1257 50.6476 14.1997 51.1089 14.1997C51.5786 14.1997 52.0018 14.1235 52.3784 13.9712C52.7593 13.8188 53.0851 13.603 53.356 13.3237C53.6226 13.0444 53.8278 12.7101 53.9717 12.3208C54.1198 11.9272 54.1938 11.4914 54.1938 11.0132L54.1875 4.83057ZM61.4175 9.92773V8.69629H57.5962V6.09375H62.0269V4.83057H56.0664V14.0728H62.0586V12.8159H57.5962V9.92773H61.4175Z" fill="white"/>
<path d="M143.672 11.6924C143.672 11.8955 143.627 12.0754 143.539 12.2319C143.454 12.3885 143.34 12.5197 143.196 12.6255C143.048 12.7355 142.872 12.818 142.669 12.873C142.47 12.9281 142.254 12.9556 142.021 12.9556C141.746 12.9556 141.493 12.9217 141.26 12.854C141.031 12.7863 140.832 12.6826 140.663 12.543C140.49 12.4076 140.352 12.2362 140.25 12.0288C140.153 11.8172 140.094 11.5697 140.073 11.2861H138.549C138.554 11.7305 138.642 12.124 138.816 12.4668C138.994 12.8096 139.233 13.1079 139.533 13.3618C139.859 13.6326 140.242 13.84 140.682 13.9839C141.122 14.1235 141.569 14.1934 142.021 14.1934C142.449 14.1934 142.855 14.1405 143.24 14.0347C143.625 13.9246 143.964 13.7617 144.256 13.5459C144.544 13.3385 144.772 13.0783 144.941 12.7651C145.115 12.452 145.202 12.0902 145.202 11.6797C145.202 11.2354 145.102 10.8439 144.903 10.5054C144.709 10.1626 144.448 9.86849 144.123 9.62305C143.86 9.42839 143.572 9.26335 143.259 9.12793C142.95 8.98828 142.633 8.87191 142.307 8.77881C142.049 8.70264 141.801 8.62012 141.564 8.53125C141.332 8.44238 141.124 8.3387 140.942 8.22021C140.765 8.10173 140.623 7.96419 140.517 7.80762C140.411 7.64681 140.356 7.46061 140.352 7.24902C140.352 7.05013 140.392 6.87028 140.473 6.70947C140.553 6.54867 140.665 6.41113 140.809 6.29688C140.953 6.18685 141.122 6.10221 141.317 6.04297C141.516 5.97949 141.732 5.94775 141.964 5.94775C142.231 5.94775 142.466 5.98796 142.669 6.06836C142.876 6.14453 143.052 6.25033 143.196 6.38574C143.335 6.52539 143.443 6.69255 143.52 6.88721C143.6 7.07764 143.651 7.28923 143.672 7.52197H145.183C145.183 7.10303 145.098 6.72217 144.929 6.37939C144.764 6.03239 144.537 5.73405 144.25 5.48438C143.962 5.23893 143.623 5.0485 143.234 4.91309C142.849 4.77344 142.432 4.70361 141.983 4.70361C141.56 4.70361 141.156 4.76286 140.771 4.88135C140.39 4.99561 140.056 5.16276 139.768 5.38281C139.48 5.6071 139.252 5.87793 139.083 6.19531C138.913 6.50846 138.829 6.86182 138.829 7.25537C138.829 7.6193 138.901 7.94727 139.044 8.23926C139.193 8.52702 139.396 8.78516 139.654 9.01367C139.912 9.23796 140.223 9.44108 140.587 9.62305C140.955 9.80078 141.357 9.95101 141.793 10.0737C142.076 10.1541 142.333 10.2451 142.561 10.3467C142.794 10.444 142.995 10.554 143.164 10.6768C143.325 10.8079 143.45 10.9561 143.539 11.1211C143.627 11.2861 143.672 11.4766 143.672 11.6924ZM147.214 14.0728H148.655L149.582 8.41699L149.651 7.979L149.715 8.41699L150.654 14.0728H152.095L153.314 4.83057H151.892L151.251 10.5054L151.207 10.8926L151.143 10.5117L150.223 4.83057H149.055L148.166 10.4863L148.103 10.8672L148.058 10.5054L147.423 4.83057H146.008L147.214 14.0728ZM154.698 4.83057V6.09375H156.627V12.8159H154.698V14.0728H160.144V12.8159H158.17V6.09375H160.144V4.83057H154.698ZM163.915 10.5498H165.482C165.948 10.5498 166.375 10.4821 166.765 10.3467C167.158 10.2113 167.497 10.0187 167.78 9.76904C168.064 9.5236 168.284 9.22949 168.44 8.88672C168.597 8.53971 168.675 8.15251 168.675 7.7251C168.675 7.28076 168.597 6.88086 168.44 6.52539C168.284 6.16992 168.064 5.86735 167.78 5.61768C167.497 5.368 167.158 5.17546 166.765 5.04004C166.375 4.90462 165.948 4.8348 165.482 4.83057H162.391V14.0728H163.915V10.5498ZM163.915 9.30566V6.07471H165.482C165.741 6.07894 165.971 6.12126 166.174 6.20166C166.382 6.28206 166.557 6.39632 166.701 6.54443C166.845 6.69255 166.953 6.86816 167.025 7.07129C167.101 7.27018 167.139 7.49235 167.139 7.73779C167.139 7.96208 167.101 8.16943 167.025 8.35986C166.953 8.55029 166.845 8.71533 166.701 8.85498C166.557 8.99463 166.382 9.10465 166.174 9.18506C165.971 9.26123 165.741 9.30143 165.482 9.30566H163.915ZM170.313 4.83057V6.09375H172.243V12.8159H170.313V14.0728H175.759V12.8159H173.785V6.09375H175.759V4.83057H170.313ZM183.859 14.0728V4.83057H182.323L182.31 11.1655L179.327 4.83057H177.778V14.0728H179.32L179.327 7.7124L182.329 14.0728H183.859ZM191.895 12.9365L191.882 9.40088H188.708V10.5879H190.384L190.378 12.4351C190.31 12.5239 190.219 12.6022 190.105 12.6699C189.991 12.7334 189.866 12.7863 189.73 12.8286C189.591 12.8709 189.445 12.9027 189.292 12.9238C189.14 12.9408 188.99 12.9492 188.842 12.9492C188.592 12.945 188.368 12.9027 188.169 12.8223C187.974 12.7419 187.803 12.6276 187.655 12.4795C187.536 12.3652 187.433 12.234 187.344 12.0859C187.259 11.9378 187.185 11.7791 187.122 11.6099C187.041 11.3856 186.98 11.1423 186.938 10.8799C186.899 10.6175 186.88 10.3403 186.88 10.0483V8.85498C186.88 8.60531 186.895 8.36198 186.925 8.125C186.954 7.88802 187.001 7.66585 187.064 7.4585C187.136 7.22152 187.227 7.00781 187.337 6.81738C187.452 6.62272 187.585 6.4598 187.737 6.32861C187.868 6.21436 188.017 6.12549 188.182 6.06201C188.347 5.9943 188.527 5.96045 188.721 5.96045C188.988 5.96045 189.218 5.99854 189.413 6.07471C189.612 6.15088 189.779 6.2609 189.915 6.40479C190.042 6.5402 190.143 6.70736 190.219 6.90625C190.295 7.10091 190.353 7.31885 190.391 7.56006H191.889C191.846 7.11995 191.747 6.72428 191.59 6.37305C191.434 6.01758 191.22 5.71501 190.949 5.46533C190.683 5.21989 190.361 5.03158 189.984 4.90039C189.608 4.76921 189.176 4.70361 188.689 4.70361C188.33 4.70361 187.995 4.75439 187.687 4.85596C187.382 4.95752 187.103 5.1014 186.849 5.2876C186.616 5.46533 186.409 5.6748 186.227 5.91602C186.045 6.15723 185.888 6.42383 185.757 6.71582C185.621 7.02474 185.518 7.36117 185.446 7.7251C185.378 8.08903 185.342 8.46989 185.338 8.86768V10.0483C185.342 10.4588 185.382 10.8503 185.458 11.2227C185.535 11.5951 185.647 11.9357 185.795 12.2446C185.926 12.5409 186.089 12.8096 186.284 13.0508C186.483 13.292 186.707 13.4972 186.957 13.6665C187.206 13.8358 187.486 13.967 187.794 14.0601C188.103 14.1532 188.436 14.1997 188.791 14.1997C189.176 14.1997 189.538 14.1595 189.876 14.0791C190.215 14.0029 190.528 13.895 190.816 13.7554C191.044 13.6453 191.25 13.5205 191.432 13.3809C191.614 13.237 191.768 13.0889 191.895 12.9365Z" fill="white"/>
</svg>
