<svg width="177" height="17" viewBox="0 0 177 17" fill="none" xmlns="http://www.w3.org/2000/svg">
<path d="M6.94932 10.6769V8.66522C6.94932 8.121 6.88518 7.64091 6.7569 7.22497C6.62862 6.80514 6.44786 6.4514 6.21462 6.16374C5.9736 5.87996 5.68206 5.66616 5.33997 5.52233C5.00178 5.37461 4.61693 5.30075 4.18544 5.30075C3.75784 5.30075 3.373 5.37461 3.03091 5.52233C2.69272 5.66616 2.40506 5.87996 2.16793 6.16374C1.9308 6.4514 1.7481 6.80514 1.61982 7.22497C1.49543 7.64091 1.43323 8.121 1.43323 8.66522V10.6769C1.43323 11.2211 1.49543 11.7032 1.61982 12.123C1.7481 12.5389 1.93275 12.8868 2.17376 13.1667C2.41089 13.4544 2.70049 13.6721 3.04257 13.8198C3.38466 13.9636 3.7695 14.0355 4.1971 14.0355C4.6286 14.0355 5.01344 13.9636 5.35164 13.8198C5.69372 13.6721 5.98138 13.4544 6.21462 13.1667C6.45174 12.8868 6.6325 12.5389 6.7569 12.123C6.88518 11.7032 6.94932 11.2211 6.94932 10.6769ZM2.83266 10.1813C2.83266 10.0685 2.83266 9.9733 2.83266 9.89555C2.83266 9.81781 2.83266 9.70507 2.83266 9.55736V8.41449C2.83266 8.06463 2.86376 7.76142 2.92595 7.50486C2.98815 7.24441 3.08339 7.03255 3.21167 6.86928C3.32052 6.72545 3.45657 6.61661 3.61984 6.54275C3.78311 6.46889 3.97164 6.43196 4.18544 6.43196C4.3837 6.43196 4.56057 6.46306 4.71606 6.52526C4.87544 6.58745 5.00955 6.68075 5.1184 6.80514C5.24279 6.94509 5.33803 7.12585 5.40411 7.34742C5.47409 7.569 5.51685 7.83139 5.53239 8.1346L2.83266 10.1813ZM5.54406 10.9101C5.54406 11.2678 5.51101 11.5788 5.44493 11.8431C5.38273 12.1074 5.28749 12.3212 5.15921 12.4845C5.04648 12.6244 4.91043 12.7313 4.75105 12.8052C4.59167 12.8752 4.40702 12.9102 4.1971 12.9102C3.9833 12.9102 3.79477 12.8732 3.6315 12.7994C3.47212 12.7255 3.33801 12.6147 3.22916 12.467C3.12032 12.331 3.03286 12.1599 2.96677 11.9539C2.90457 11.7479 2.86376 11.5107 2.84432 11.2425L5.54406 9.2075C5.54406 9.32023 5.54406 9.42908 5.54406 9.53403C5.54406 9.63899 5.54406 9.74006 5.54406 9.83724V10.9101ZM12.4479 13.9131V5.4232H12.3605L8.86771 6.71768V7.94801L11.0427 7.14917V13.9131H12.4479Z" fill="#535353"/>
<path d="M60.6075 10.6769V8.66522C60.6075 8.121 60.5434 7.64091 60.4151 7.22497C60.2868 6.80514 60.1061 6.4514 59.8728 6.16374C59.6318 5.87996 59.3403 5.66616 58.9982 5.52233C58.66 5.37461 58.2751 5.30075 57.8436 5.30075C57.416 5.30075 57.0312 5.37461 56.6891 5.52233C56.3509 5.66616 56.0633 5.87996 55.8261 6.16374C55.589 6.4514 55.4063 6.80514 55.278 7.22497C55.1536 7.64091 55.0914 8.121 55.0914 8.66522V10.6769C55.0914 11.2211 55.1536 11.7032 55.278 12.123C55.4063 12.5389 55.591 12.8868 55.832 13.1667C56.0691 13.4544 56.3587 13.6721 56.7008 13.8198C57.0429 13.9636 57.4277 14.0355 57.8553 14.0355C58.2868 14.0355 58.6716 13.9636 59.0098 13.8198C59.3519 13.6721 59.6396 13.4544 59.8728 13.1667C60.1099 12.8868 60.2907 12.5389 60.4151 12.123C60.5434 11.7032 60.6075 11.2211 60.6075 10.6769ZM56.4909 10.1813C56.4909 10.0685 56.4909 9.9733 56.4909 9.89555C56.4909 9.81781 56.4909 9.70507 56.4909 9.55736V8.41449C56.4909 8.06463 56.522 7.76142 56.5842 7.50486C56.6464 7.24441 56.7416 7.03255 56.8699 6.86928C56.9787 6.72545 57.1148 6.61661 57.278 6.54275C57.4413 6.46889 57.6298 6.43196 57.8436 6.43196C58.0419 6.43196 58.2188 6.46306 58.3743 6.52526C58.5336 6.58745 58.6678 6.68075 58.7766 6.80514C58.901 6.94509 58.9962 7.12585 59.0623 7.34742C59.1323 7.569 59.175 7.83139 59.1906 8.1346L56.4909 10.1813ZM59.2023 10.9101C59.2023 11.2678 59.1692 11.5788 59.1031 11.8431C59.0409 12.1074 58.9457 12.3212 58.8174 12.4845C58.7047 12.6244 58.5686 12.7313 58.4092 12.8052C58.2499 12.8752 58.0652 12.9102 57.8553 12.9102C57.6415 12.9102 57.453 12.8732 57.2897 12.7994C57.1303 12.7255 56.9962 12.6147 56.8874 12.467C56.7785 12.331 56.6911 12.1599 56.625 11.9539C56.5628 11.7479 56.522 11.5107 56.5025 11.2425L59.2023 9.2075C59.2023 9.32023 59.2023 9.42908 59.2023 9.53403C59.2023 9.63899 59.2023 9.74006 59.2023 9.83724V10.9101ZM67.7388 13.9131V12.7877H63.7854L65.6746 10.7702C65.9234 10.5059 66.1528 10.2493 66.3627 10.0005C66.5765 9.75172 66.7611 9.50488 66.9166 9.25998C67.0682 9.01508 67.1868 8.76823 67.2723 8.51945C67.3617 8.26677 67.4064 8.00632 67.4064 7.7381C67.4064 7.38046 67.3481 7.05393 67.2315 6.75849C67.1149 6.45917 66.9458 6.20261 66.7242 5.98881C66.4987 5.77501 66.2208 5.60785 65.8904 5.48734C65.5638 5.36684 65.1926 5.30659 64.7767 5.30659C64.3335 5.30659 63.9312 5.3785 63.5697 5.52233C63.212 5.66616 62.9088 5.86053 62.66 6.10543C62.4073 6.35033 62.213 6.63799 62.0769 6.96841C61.9409 7.29494 61.8728 7.64286 61.8728 8.01215H63.2723C63.2723 7.76725 63.3034 7.54956 63.3656 7.35908C63.4278 7.16472 63.5211 6.99951 63.6455 6.86345C63.766 6.73517 63.9176 6.63604 64.1003 6.56607C64.283 6.4961 64.4987 6.46112 64.7475 6.46112C64.9419 6.46112 65.1168 6.49416 65.2723 6.56024C65.4317 6.62633 65.5677 6.71768 65.6805 6.8343C65.7932 6.95092 65.8787 7.09086 65.937 7.25413C65.9953 7.41739 66.0245 7.59815 66.0245 7.79641C66.0245 7.94412 66.0031 8.09184 65.9603 8.23956C65.9215 8.38339 65.8554 8.53888 65.7621 8.70604C65.6649 8.87319 65.5386 9.05784 65.3831 9.25998C65.2276 9.45823 65.0352 9.68369 64.8058 9.93637L62.0419 12.9451V13.9131H67.7388Z" fill="#535353"/>
<path d="M114.266 10.6769V8.66522C114.266 8.121 114.202 7.64091 114.073 7.22497C113.945 6.80514 113.764 6.4514 113.531 6.16374C113.29 5.87996 112.998 5.66616 112.656 5.52233C112.318 5.37461 111.933 5.30075 111.502 5.30075C111.074 5.30075 110.689 5.37461 110.347 5.52233C110.009 5.66616 109.721 5.87996 109.484 6.16374C109.247 6.4514 109.065 6.80514 108.936 7.22497C108.812 7.64091 108.75 8.121 108.75 8.66522V10.6769C108.75 11.2211 108.812 11.7032 108.936 12.123C109.065 12.5389 109.249 12.8868 109.49 13.1667C109.727 13.4544 110.017 13.6721 110.359 13.8198C110.701 13.9636 111.086 14.0355 111.514 14.0355C111.945 14.0355 112.33 13.9636 112.668 13.8198C113.01 13.6721 113.298 13.4544 113.531 13.1667C113.768 12.8868 113.949 12.5389 114.073 12.123C114.202 11.7032 114.266 11.2211 114.266 10.6769ZM110.149 10.1813C110.149 10.0685 110.149 9.9733 110.149 9.89555C110.149 9.81781 110.149 9.70507 110.149 9.55736V8.41449C110.149 8.06463 110.18 7.76142 110.242 7.50486C110.305 7.24441 110.4 7.03255 110.528 6.86928C110.637 6.72545 110.773 6.61661 110.936 6.54275C111.1 6.46889 111.288 6.43196 111.502 6.43196C111.7 6.43196 111.877 6.46306 112.032 6.52526C112.192 6.58745 112.326 6.68075 112.435 6.80514C112.559 6.94509 112.654 7.12585 112.721 7.34742C112.79 7.569 112.833 7.83139 112.849 8.1346L110.149 10.1813ZM112.86 10.9101C112.86 11.2678 112.827 11.5788 112.761 11.8431C112.699 12.1074 112.604 12.3212 112.476 12.4845C112.363 12.6244 112.227 12.7313 112.067 12.8052C111.908 12.8752 111.723 12.9102 111.514 12.9102C111.3 12.9102 111.111 12.8732 110.948 12.7994C110.789 12.7255 110.654 12.6147 110.546 12.467C110.437 12.331 110.349 12.1599 110.283 11.9539C110.221 11.7479 110.18 11.5107 110.161 11.2425L112.86 9.2075C112.86 9.32023 112.86 9.42908 112.86 9.53403C112.86 9.63899 112.86 9.74006 112.86 9.83724V10.9101ZM117.467 9.0384V10.1346H118.301C118.542 10.1346 118.759 10.1638 118.954 10.2221C119.152 10.2765 119.321 10.3601 119.461 10.4728C119.601 10.5894 119.708 10.7352 119.782 10.9101C119.856 11.0851 119.893 11.295 119.893 11.5399C119.893 11.7576 119.86 11.9519 119.793 12.123C119.731 12.2901 119.64 12.4301 119.519 12.5428C119.395 12.6633 119.241 12.7547 119.059 12.8169C118.88 12.8752 118.678 12.9043 118.452 12.9043C118.242 12.9043 118.05 12.8732 117.875 12.811C117.704 12.7488 117.556 12.6614 117.432 12.5486C117.304 12.4398 117.205 12.3076 117.135 12.1521C117.068 11.9928 117.035 11.8198 117.035 11.6332H115.642C115.642 12.0297 115.718 12.3776 115.869 12.6769C116.025 12.9724 116.231 13.2211 116.487 13.4233C116.744 13.6254 117.041 13.777 117.379 13.8781C117.718 13.9792 118.069 14.0297 118.435 14.0297C118.839 14.0297 119.214 13.9753 119.56 13.8664C119.91 13.7537 120.213 13.5904 120.47 13.3766C120.723 13.1667 120.921 12.9082 121.065 12.6011C121.212 12.2901 121.286 11.9364 121.286 11.5399C121.286 11.3261 121.261 11.1201 121.21 10.9218C121.16 10.7197 121.078 10.5311 120.966 10.3562C120.853 10.1852 120.707 10.0316 120.528 9.89555C120.353 9.75561 120.139 9.64288 119.887 9.55736C120.101 9.46017 120.287 9.34161 120.447 9.20167C120.606 9.06172 120.738 8.91206 120.843 8.75268C120.948 8.58942 121.026 8.42032 121.076 8.24539C121.131 8.07046 121.158 7.89553 121.158 7.7206C121.158 7.3241 121.092 6.97618 120.96 6.67686C120.828 6.37754 120.641 6.12486 120.4 5.91884C120.163 5.7167 119.875 5.56509 119.537 5.46402C119.203 5.35906 118.835 5.30659 118.435 5.30659C118.042 5.30659 117.681 5.36489 117.35 5.48151C117.024 5.59813 116.74 5.75946 116.499 5.96548C116.258 6.1754 116.069 6.42224 115.933 6.70602C115.797 6.98979 115.729 7.30077 115.729 7.63897H117.123C117.123 7.45627 117.156 7.29106 117.222 7.14334C117.292 6.99562 117.387 6.86928 117.508 6.76433C117.624 6.65937 117.762 6.57968 117.922 6.52526C118.085 6.46695 118.262 6.43779 118.452 6.43779C118.666 6.43779 118.855 6.46695 119.018 6.52526C119.185 6.58357 119.323 6.6652 119.432 6.77016C119.541 6.88289 119.622 7.01894 119.677 7.17832C119.735 7.3377 119.764 7.51846 119.764 7.7206C119.764 7.90719 119.733 8.08212 119.671 8.24539C119.613 8.40477 119.527 8.53888 119.414 8.64773C119.294 8.77212 119.14 8.8693 118.954 8.93927C118.767 9.00536 118.55 9.0384 118.301 9.0384H117.467Z" fill="#535353"/>
<path d="M167.923 10.6769V8.66522C167.923 8.121 167.859 7.64091 167.731 7.22497C167.602 6.80514 167.421 6.4514 167.188 6.16374C166.947 5.87996 166.656 5.66616 166.314 5.52233C165.975 5.37461 165.591 5.30075 165.159 5.30075C164.731 5.30075 164.347 5.37461 164.005 5.52233C163.666 5.66616 163.379 5.87996 163.142 6.16374C162.904 6.4514 162.722 6.80514 162.593 7.22497C162.469 7.64091 162.407 8.121 162.407 8.66522V10.6769C162.407 11.2211 162.469 11.7032 162.593 12.123C162.722 12.5389 162.906 12.8868 163.147 13.1667C163.385 13.4544 163.674 13.6721 164.016 13.8198C164.358 13.9636 164.743 14.0355 165.171 14.0355C165.602 14.0355 165.987 13.9636 166.325 13.8198C166.667 13.6721 166.955 13.4544 167.188 13.1667C167.425 12.8868 167.606 12.5389 167.731 12.123C167.859 11.7032 167.923 11.2211 167.923 10.6769ZM163.806 10.1813C163.806 10.0685 163.806 9.9733 163.806 9.89555C163.806 9.81781 163.806 9.70507 163.806 9.55736V8.41449C163.806 8.06463 163.837 7.76142 163.9 7.50486C163.962 7.24441 164.057 7.03255 164.185 6.86928C164.294 6.72545 164.43 6.61661 164.593 6.54275C164.757 6.46889 164.945 6.43196 165.159 6.43196C165.357 6.43196 165.534 6.46306 165.69 6.52526C165.849 6.58745 165.983 6.68075 166.092 6.80514C166.216 6.94509 166.312 7.12585 166.378 7.34742C166.448 7.569 166.49 7.83139 166.506 8.1346L163.806 10.1813ZM166.518 10.9101C166.518 11.2678 166.485 11.5788 166.419 11.8431C166.356 12.1074 166.261 12.3212 166.133 12.4845C166.02 12.6244 165.884 12.7313 165.725 12.8052C165.565 12.8752 165.381 12.9102 165.171 12.9102C164.957 12.9102 164.768 12.8732 164.605 12.7994C164.446 12.7255 164.312 12.6147 164.203 12.467C164.094 12.331 164.006 12.1599 163.94 11.9539C163.878 11.7479 163.837 11.5107 163.818 11.2425L166.518 9.2075C166.518 9.32023 166.518 9.42908 166.518 9.53403C166.518 9.63899 166.518 9.74006 166.518 9.83724V10.9101ZM174.232 10.8868V5.4232H172.798L169.13 11.1609L169.165 12.018H172.838V13.9131H174.232V12.018H175.299V10.8868H174.232ZM170.553 10.8868L172.675 7.59232L172.838 7.28911V10.8868H170.553Z" fill="#535353"/>
</svg>
