<svg width="441" height="462" viewBox="0 0 441 462" fill="none" xmlns="http://www.w3.org/2000/svg">
<path d="M438.005 67.9681H374.805V1.56812H376.305V66.4681H438.005V67.9681Z" fill="#1D2225"/>
<path d="M376.307 67.9681H312.407V0.768066H376.307V67.9681ZM313.907 66.4681H374.807V2.26807H313.907V66.4681Z" fill="#1D2225"/>
<path d="M313.904 67.9681H250.004V0.768066H313.904V67.9681ZM251.404 66.4681H312.304V2.26807H251.404V66.4681V66.4681Z" fill="#1D2225"/>
<path d="M251.404 67.9681H187.504V0.768066H251.404V67.9681ZM189.004 66.4681H249.904V2.26807H189.004V66.4681Z" fill="#1D2225"/>
<path d="M189.006 67.9681H125.106V0.768066H189.006V67.9681ZM126.606 66.4681H187.506V2.26807H126.606V66.4681Z" fill="#1D2225"/>
<path d="M126.606 67.9681H62.606V0.768066H126.506V67.9681H126.606ZM64.106 66.4681H125.006V2.26807H64.106V66.4681Z" fill="#1D2225"/>
<path d="M64.1056 67.9681H0.205566V0.768066H64.1056V67.9681ZM1.70557 66.4681H62.6056V2.26807H1.70557V66.4681Z" fill="#1D2225"/>
<path d="M438.705 133.568H374.805V66.3682H438.705V133.568ZM376.305 132.068H437.205V67.8682H376.305V132.068Z" fill="#1D2225"/>
<path d="M376.307 133.568H312.407V66.3682H376.307V133.568ZM313.907 132.068H374.807V67.8682H313.907V132.068Z" fill="#1D2225"/>
<path d="M313.904 133.568H250.004V66.3682H313.904V133.568ZM251.404 132.068H312.304V67.8682H251.404V132.068V132.068Z" fill="#1D2225"/>
<path d="M251.404 133.568H187.504V66.3682H251.404V133.568ZM189.004 132.068H249.904V67.8682H189.004V132.068Z" fill="#1D2225"/>
<path d="M189.006 133.568H125.106V66.3682H189.006V133.568ZM126.606 132.068H187.506V67.8682H126.606V132.068Z" fill="#1D2225"/>
<path d="M126.606 133.568H62.606V66.3682H126.506V133.568H126.606ZM64.106 132.068H125.006V67.8682H64.106V132.068Z" fill="#1D2225"/>
<path d="M64.1056 133.568H0.205566V66.3682H64.1056V133.568ZM1.70557 132.068H62.6056V67.8682H1.70557V132.068Z" fill="#1D2225"/>
<path d="M438.705 199.368H374.805V132.168H438.705V199.368ZM376.305 197.868H437.205V133.668H376.305V197.868Z" fill="#1D2225"/>
<path d="M376.307 199.368H312.407V132.168H376.307V199.368ZM313.907 197.868H374.807V133.668H313.907V197.868Z" fill="#1D2225"/>
<path d="M313.904 199.368H250.004V132.168H313.904V199.368ZM251.404 197.868H312.304V133.668H251.404V197.868V197.868Z" fill="#1D2225"/>
<path d="M251.404 199.368H187.504V132.168H251.404V199.368ZM189.004 197.868H249.904V133.668H189.004V197.868Z" fill="#1D2225"/>
<path d="M189.006 199.368H125.106V132.168H189.006V199.368ZM126.606 197.868H187.506V133.668H126.606V197.868Z" fill="#1D2225"/>
<path d="M126.606 199.368H62.606V132.168H126.506V199.368H126.606ZM64.106 197.868H125.006V133.668H64.106V197.868Z" fill="#1D2225"/>
<path d="M64.1056 199.368H0.205566V132.168H64.1056V199.368ZM1.70557 197.868H62.6056V133.668H1.70557V197.868Z" fill="#1D2225"/>
<path d="M438.705 264.968H374.805V197.768H438.705V264.968ZM376.305 263.468H437.205V199.268H376.305V263.468Z" fill="#1D2225"/>
<path d="M376.307 264.968H312.407V197.768H376.307V264.968ZM313.907 263.468H374.807V199.268H313.907V263.468Z" fill="#1D2225"/>
<path d="M313.904 264.968H250.004V197.768H313.904V264.968ZM251.404 263.468H312.304V199.268H251.404V263.468V263.468Z" fill="#1D2225"/>
<path d="M251.404 264.968H187.504V197.768H251.404V264.968ZM189.004 263.468H249.904V199.268H189.004V263.468Z" fill="#1D2225"/>
<path d="M189.006 264.968H125.106V197.768H189.006V264.968ZM126.606 263.468H187.506V199.268H126.606V263.468Z" fill="#1D2225"/>
<path d="M126.606 264.968H62.606V197.768H126.506V264.968H126.606ZM64.106 263.468H125.006V199.268H64.106V263.468Z" fill="#1D2225"/>
<path d="M64.1056 264.968H0.205566V197.768H64.1056V264.968ZM1.70557 263.468H62.6056V199.268H1.70557V263.468Z" fill="#1D2225"/>
<path d="M438.705 330.568H374.805V263.368H438.705V330.568ZM376.305 329.068H437.205V264.868H376.305V329.068Z" fill="#1D2225"/>
<path d="M376.307 330.568H312.407V263.368H376.307V330.568ZM313.907 329.068H374.807V264.868H313.907V329.068Z" fill="#1D2225"/>
<path d="M313.904 330.568H250.004V263.368H313.904V330.568ZM251.404 329.068H312.304V264.868H251.404V329.068V329.068Z" fill="#1D2225"/>
<path d="M251.404 330.568H187.504V263.368H251.404V330.568ZM189.004 329.068H249.904V264.868H189.004V329.068Z" fill="#1D2225"/>
<path d="M189.006 330.568H125.106V263.368H189.006V330.568ZM126.606 329.068H187.506V264.868H126.606V329.068Z" fill="#1D2225"/>
<path d="M126.606 330.568H62.606V263.368H126.506V330.568H126.606ZM64.106 329.068H125.006V264.868H64.106V329.068Z" fill="#1D2225"/>
<path d="M64.1056 330.568H0.205566V263.368H64.1056V330.568ZM1.70557 329.068H62.6056V264.868H1.70557V329.068Z" fill="#1D2225"/>
<path d="M438.705 396.168H374.805V328.968H438.705V396.168ZM376.305 394.668H437.205V330.468H376.305V394.668Z" fill="#1D2225"/>
<path d="M376.307 396.168H312.407V328.968H376.307V396.168ZM313.907 394.668H374.807V330.468H313.907V394.668Z" fill="#1D2225"/>
<path d="M313.904 396.168H250.004V328.968H313.904V396.168ZM251.404 394.668H312.304V330.468H251.404V394.668V394.668Z" fill="#1D2225"/>
<path d="M251.404 396.168H187.504V328.968H251.404V396.168ZM189.004 394.668H249.904V330.468H189.004V394.668Z" fill="#1D2225"/>
<path d="M189.006 396.168H125.106V328.968H189.006V396.168ZM126.606 394.668H187.506V330.468H126.606V394.668Z" fill="#1D2225"/>
<path d="M126.606 396.168H62.606V328.968H126.506V396.168H126.606ZM64.106 394.668H125.006V330.468H64.106V394.668Z" fill="#1D2225"/>
<path d="M64.1056 396.168H0.205566V328.968H64.1056V396.168ZM1.70557 394.668H62.6056V330.468H1.70557V394.668Z" fill="#1D2225"/>
<path d="M438.705 461.768H374.805V394.568H438.705V461.768ZM376.305 460.268H437.205V396.068H376.305V460.268Z" fill="#1D2225"/>
<path d="M376.307 461.768H312.407V394.568H376.307V461.768ZM313.907 460.268H374.807V396.068H313.907V460.268Z" fill="#1D2225"/>
<path d="M313.904 461.768H250.004V394.568H313.904V461.768ZM251.404 460.268H312.304V396.068H251.404V460.268V460.268Z" fill="#1D2225"/>
<path d="M251.404 461.768H187.504V394.568H251.404V461.768ZM189.004 460.268H249.904V396.068H189.004V460.268Z" fill="#1D2225"/>
<path d="M189.006 461.768H125.106V394.568H189.006V461.768ZM126.606 460.268H187.506V396.068H126.606V460.268Z" fill="#1D2225"/>
<path d="M126.606 461.768H62.606V394.568H126.506V461.768H126.606ZM64.106 460.268H125.006V396.068H64.106V460.268Z" fill="#1D2225"/>
<path d="M64.1056 461.768H0.205566V394.568H64.1056V461.768ZM1.70557 460.268H62.6056V396.068H1.70557V460.268Z" fill="#1D2225"/>
<path d="M79.3071 340.968H77.8071V345.768H79.3071V340.968Z" fill="#2E3539"/>
<path d="M79.3071 348.568H77.8071V353.368H79.3071V348.568Z" fill="#2E3539"/>
<path d="M77.2067 346.368H72.4067V347.868H77.2067V346.368Z" fill="#2E3539"/>
<path d="M84.8063 346.368H80.0063V347.868H84.8063V346.368Z" fill="#2E3539"/>
<path d="M111.506 340.968H110.006V345.768H111.506V340.968Z" fill="#2E3539"/>
<path d="M111.506 348.568H110.006V353.368H111.506V348.568Z" fill="#2E3539"/>
<path d="M109.306 346.368H104.506V347.868H109.306V346.368Z" fill="#2E3539"/>
<path d="M117.008 346.368H112.208V347.868H117.008V346.368Z" fill="#2E3539"/>
<path d="M111.506 373.068H110.006V377.868H111.506V373.068Z" fill="#2E3539"/>
<path d="M111.506 380.668H110.006V385.468H111.506V380.668Z" fill="#2E3539"/>
<path d="M109.306 378.468H104.506V379.968H109.306V378.468Z" fill="#2E3539"/>
<path d="M117.008 378.468H112.208V379.968H117.008V378.468Z" fill="#2E3539"/>
<path d="M79.3071 373.068H77.8071V377.868H79.3071V373.068Z" fill="#2E3539"/>
<path d="M79.3071 380.668H77.8071V385.468H79.3071V380.668Z" fill="#2E3539"/>
<path d="M77.2067 378.468H72.4067V379.968H77.2067V378.468Z" fill="#2E3539"/>
<path d="M84.8063 378.468H80.0063V379.968H84.8063V378.468Z" fill="#2E3539"/>
<path d="M141.606 373.068H140.106V377.868H141.606V373.068Z" fill="#2E3539"/>
<path d="M141.606 380.668H140.106V385.468H141.606V380.668Z" fill="#2E3539"/>
<path d="M139.406 378.468H134.606V379.968H139.406V378.468Z" fill="#2E3539"/>
<path d="M147.107 378.468H142.307V379.968H147.107V378.468Z" fill="#2E3539"/>
<path d="M157.307 165.668C157.307 182.668 143.607 196.368 126.607 196.368C109.607 196.368 95.9067 182.668 95.9067 165.668C95.9067 148.668 109.607 113.968 126.607 113.968C143.607 113.968 157.307 148.668 157.307 165.668Z" fill="black"/>
<path d="M126.606 197.068C109.306 197.068 95.2056 182.968 95.2056 165.668C95.2056 147.968 109.406 113.168 126.606 113.168C143.806 113.168 158.006 147.868 158.006 165.668C158.006 182.968 143.906 197.068 126.606 197.068ZM126.606 114.668C110.506 114.668 96.7056 148.868 96.7056 165.668C96.7056 182.168 110.106 195.568 126.606 195.568C143.106 195.568 156.506 182.168 156.506 165.668C156.506 148.868 142.706 114.668 126.606 114.668Z" fill="#8EFE1C"/>
<path d="M126.607 178.068C119.307 178.068 113.407 172.168 113.407 164.868C113.407 154.268 119.407 138.068 126.607 138.068C133.907 138.068 139.807 154.168 139.807 164.868C139.707 172.168 133.807 178.068 126.607 178.068Z" fill="#8EFE1C"/>
<path d="M146.208 157.368C146.908 160.668 147.208 163.468 147.208 165.668Z" fill="black"/>
<path d="M147.907 165.668H146.407C146.407 163.468 146.107 160.668 145.407 157.568L146.907 157.268C147.607 160.468 147.907 163.368 147.907 165.668Z" fill="#8EFE1C"/>
<path d="M131.805 127.168C134.005 129.368 136.705 132.868 139.305 138.068C141.205 141.768 142.705 145.568 143.905 149.168" fill="black"/>
<path d="M143.206 149.368C141.906 145.568 140.406 141.868 138.606 138.368C135.706 132.668 133.006 129.468 131.206 127.668L132.306 126.568C134.906 129.168 137.606 132.968 139.906 137.568C141.706 141.068 143.306 144.868 144.606 148.768L143.206 149.368Z" fill="#8EFE1C"/>
<path d="M218.604 165.668C218.604 182.668 204.904 196.368 187.904 196.368C170.904 196.368 157.204 182.568 157.204 165.668C157.204 148.768 170.904 113.968 187.904 113.968C204.904 113.968 218.604 148.668 218.604 165.668Z" fill="black"/>
<path d="M187.904 197.068C170.604 197.068 156.504 182.968 156.504 165.668C156.504 147.968 170.704 113.168 187.904 113.168C205.104 113.168 219.304 147.868 219.304 165.668C219.304 182.968 205.204 197.068 187.904 197.068ZM187.904 114.668C171.804 114.668 158.004 148.868 158.004 165.668C158.004 182.168 171.404 195.568 187.904 195.568C204.404 195.568 217.804 182.168 217.804 165.668C217.804 148.868 204.004 114.668 187.904 114.668Z" fill="#8EFE1C"/>
<path d="M207.504 157.368C208.204 160.668 208.504 163.468 208.504 165.668Z" fill="black"/>
<path d="M209.204 165.668H207.704C207.704 163.468 207.404 160.668 206.704 157.568L208.204 157.268C208.904 160.468 209.204 163.368 209.204 165.668Z" fill="#8EFE1C"/>
<path d="M193.104 127.168C195.304 129.368 198.004 132.868 200.604 138.068C202.504 141.768 204.004 145.568 205.204 149.168" fill="black"/>
<path d="M204.504 149.368C203.204 145.568 201.704 141.868 199.904 138.368C197.004 132.668 194.304 129.468 192.504 127.668L193.604 126.568C196.204 129.168 198.904 132.968 201.204 137.568C203.004 141.068 204.604 144.868 205.904 148.768L204.504 149.368Z" fill="#8EFE1C"/>
<path d="M279.904 165.668C279.904 182.668 266.204 196.368 249.204 196.368C232.204 196.368 218.504 182.668 218.504 165.668C218.504 148.668 232.204 113.968 249.204 113.968C266.204 113.968 279.904 148.668 279.904 165.668Z" fill="black"/>
<path d="M249.205 197.068C231.905 197.068 217.805 182.968 217.805 165.668C217.805 147.968 232.005 113.168 249.205 113.168C266.405 113.168 280.605 147.868 280.605 165.668C280.605 182.968 266.505 197.068 249.205 197.068ZM249.205 114.668C233.105 114.668 219.305 148.868 219.305 165.668C219.305 182.168 232.705 195.568 249.205 195.568C265.705 195.568 279.105 182.168 279.105 165.668C279.105 148.868 265.305 114.668 249.205 114.668Z" fill="#8EFE1C"/>
<path d="M268.805 157.368C269.505 160.668 269.805 163.468 269.805 165.668Z" fill="black"/>
<path d="M270.504 165.668H269.004C269.004 163.468 268.704 160.668 268.004 157.568L269.504 157.268C270.204 160.468 270.504 163.368 270.504 165.668Z" fill="#8EFE1C"/>
<path d="M254.407 127.168C256.607 129.368 259.307 132.868 261.907 138.068C263.807 141.768 265.307 145.568 266.507 149.168" fill="black"/>
<path d="M265.805 149.368C264.505 145.568 263.005 141.868 261.205 138.368C258.305 132.668 255.605 129.468 253.805 127.668L254.905 126.568C257.505 129.168 260.205 132.968 262.505 137.568C264.305 141.068 265.905 144.868 267.205 148.768L265.805 149.368Z" fill="#8EFE1C"/>
<path d="M341.205 165.668C341.205 182.668 327.505 196.368 310.505 196.368C293.505 196.368 279.805 182.668 279.805 165.668C279.805 148.668 293.505 113.968 310.505 113.968C327.505 113.968 341.205 148.668 341.205 165.668Z" fill="black"/>
<path d="M310.506 197.068C293.206 197.068 279.106 182.968 279.106 165.668C279.106 147.968 293.306 113.168 310.506 113.168C327.706 113.168 341.906 147.868 341.906 165.668C341.906 182.968 327.806 197.068 310.506 197.068ZM310.506 114.668C294.406 114.668 280.606 148.868 280.606 165.668C280.606 182.168 294.006 195.568 310.506 195.568C327.006 195.568 340.406 182.168 340.406 165.668C340.406 148.868 326.506 114.668 310.506 114.668Z" fill="#8EFE1C"/>
<path d="M330.004 157.368C330.704 160.668 331.004 163.468 331.004 165.668Z" fill="black"/>
<path d="M331.805 165.668H330.305C330.305 163.468 330.005 160.668 329.305 157.568L330.805 157.268C331.405 160.468 331.805 163.368 331.805 165.668Z" fill="#8EFE1C"/>
<path d="M315.706 127.168C317.906 129.368 320.606 132.868 323.206 138.068C325.106 141.768 326.606 145.568 327.806 149.168" fill="black"/>
<path d="M327.106 149.368C325.806 145.568 324.306 141.868 322.506 138.368C319.606 132.668 316.906 129.468 315.106 127.668L316.206 126.568C318.806 129.168 321.506 132.968 323.806 137.568C325.606 141.068 327.206 144.868 328.506 148.768L327.106 149.368Z" fill="#8EFE1C"/>
<path d="M157.307 248.068C157.307 265.068 143.607 278.768 126.607 278.768C109.607 278.768 95.9067 265.068 95.9067 248.068C95.9067 231.068 109.607 196.368 126.607 196.368C143.607 196.368 157.307 231.068 157.307 248.068Z" fill="black"/>
<path d="M126.606 279.468C109.306 279.468 95.2056 265.368 95.2056 248.068C95.2056 230.368 109.406 195.568 126.606 195.568C143.806 195.568 158.006 230.268 158.006 248.068C158.006 265.368 143.906 279.468 126.606 279.468ZM126.606 197.068C110.506 197.068 96.7056 231.268 96.7056 248.068C96.7056 264.568 110.106 277.968 126.606 277.968C143.106 277.968 156.506 264.568 156.506 248.068C156.506 231.268 142.706 197.068 126.606 197.068Z" fill="#8EFE1C"/>
<path d="M146.208 239.768C146.908 243.068 147.208 245.868 147.208 248.068Z" fill="black"/>
<path d="M147.907 248.068H146.407C146.407 245.868 146.107 243.068 145.407 239.968L146.907 239.668C147.607 242.868 147.907 245.768 147.907 248.068Z" fill="#8EFE1C"/>
<path d="M131.805 209.568C134.005 211.768 136.705 215.268 139.305 220.468C141.205 224.168 142.705 227.968 143.905 231.568" fill="black"/>
<path d="M143.206 231.768C141.906 227.968 140.406 224.268 138.606 220.768C135.706 215.068 133.006 211.868 131.206 210.068L132.306 208.968C134.906 211.568 137.606 215.368 139.906 220.068C141.706 223.568 143.306 227.368 144.606 231.268L143.206 231.768Z" fill="#8EFE1C"/>
<path d="M218.604 248.068C218.604 265.068 204.904 278.768 187.904 278.768C170.904 278.768 157.204 264.968 157.204 248.068C157.204 231.168 170.904 196.368 187.904 196.368C204.904 196.368 218.604 231.068 218.604 248.068Z" fill="black"/>
<path d="M187.904 279.468C170.604 279.468 156.504 265.368 156.504 248.068C156.504 230.368 170.704 195.568 187.904 195.568C205.104 195.568 219.304 230.268 219.304 248.068C219.304 265.368 205.204 279.468 187.904 279.468ZM187.904 197.068C171.804 197.068 158.004 231.268 158.004 248.068C158.004 264.568 171.404 277.968 187.904 277.968C204.404 277.968 217.804 264.568 217.804 248.068C217.804 231.268 204.004 197.068 187.904 197.068Z" fill="#8EFE1C"/>
<path d="M207.504 239.768C208.204 243.068 208.504 245.868 208.504 248.068Z" fill="black"/>
<path d="M209.204 248.068H207.704C207.704 245.868 207.404 243.068 206.704 239.968L208.204 239.668C208.904 242.868 209.204 245.768 209.204 248.068Z" fill="#8EFE1C"/>
<path d="M193.104 209.568C195.304 211.768 198.004 215.268 200.604 220.468C202.504 224.168 204.004 227.968 205.204 231.568" fill="black"/>
<path d="M204.504 231.768C203.204 227.968 201.704 224.268 199.904 220.768C197.004 215.068 194.304 211.868 192.504 210.068L193.604 208.968C196.204 211.568 198.904 215.368 201.204 220.068C203.004 223.568 204.604 227.368 205.904 231.268L204.504 231.768Z" fill="#8EFE1C"/>
<path d="M279.904 248.068C279.904 265.068 266.204 278.768 249.204 278.768C232.204 278.768 218.504 265.068 218.504 248.068C218.504 231.068 232.204 196.368 249.204 196.368C266.204 196.368 279.904 231.068 279.904 248.068Z" fill="black"/>
<path d="M249.205 279.468C231.905 279.468 217.805 265.368 217.805 248.068C217.805 230.368 232.005 195.568 249.205 195.568C266.405 195.568 280.605 230.268 280.605 248.068C280.605 265.368 266.505 279.468 249.205 279.468ZM249.205 197.068C233.105 197.068 219.305 231.268 219.305 248.068C219.305 264.568 232.705 277.968 249.205 277.968C265.705 277.968 279.105 264.568 279.105 248.068C279.105 231.268 265.305 197.068 249.205 197.068Z" fill="#8EFE1C"/>
<path d="M268.805 239.768C269.505 243.068 269.805 245.868 269.805 248.068Z" fill="black"/>
<path d="M270.504 248.068H269.004C269.004 245.868 268.704 243.068 268.004 239.968L269.504 239.668C270.204 242.868 270.504 245.768 270.504 248.068Z" fill="#8EFE1C"/>
<path d="M254.407 209.568C256.607 211.768 259.307 215.268 261.907 220.468C263.807 224.168 265.307 227.968 266.507 231.568" fill="black"/>
<path d="M265.805 231.768C264.505 227.968 263.005 224.268 261.205 220.768C258.305 215.068 255.605 211.868 253.805 210.068L254.905 208.968C257.505 211.568 260.205 215.368 262.505 220.068C264.305 223.568 265.905 227.368 267.205 231.268L265.805 231.768Z" fill="#8EFE1C"/>
<path d="M341.205 248.068C341.205 265.068 327.505 278.768 310.505 278.768C293.505 278.768 279.805 265.068 279.805 248.068C279.805 231.068 293.505 196.368 310.505 196.368C327.505 196.368 341.205 231.068 341.205 248.068Z" fill="black"/>
<path d="M310.506 279.468C293.206 279.468 279.106 265.368 279.106 248.068C279.106 230.368 293.306 195.568 310.506 195.568C327.706 195.568 341.906 230.268 341.906 248.068C341.906 265.368 327.806 279.468 310.506 279.468ZM310.506 197.068C294.406 197.068 280.606 231.268 280.606 248.068C280.606 264.568 294.006 277.968 310.506 277.968C327.006 277.968 340.406 264.568 340.406 248.068C340.406 231.268 326.506 197.068 310.506 197.068Z" fill="#8EFE1C"/>
<path d="M330.004 239.768C330.704 243.068 331.004 245.868 331.004 248.068Z" fill="black"/>
<path d="M331.805 248.068H330.305C330.305 245.868 330.005 243.068 329.305 239.968L330.805 239.668C331.405 242.868 331.805 245.768 331.805 248.068Z" fill="#8EFE1C"/>
<path d="M315.706 209.568C317.906 211.768 320.606 215.268 323.206 220.468C325.106 224.168 326.606 227.968 327.806 231.568" fill="black"/>
<path d="M327.106 231.768C325.806 227.968 324.306 224.268 322.506 220.768C319.606 215.068 316.906 211.868 315.106 210.068L316.206 208.968C318.806 211.568 321.506 215.368 323.806 220.068C325.606 223.568 327.206 227.368 328.506 231.268L327.106 231.768Z" fill="#8EFE1C"/>
<path d="M157.307 330.468C157.307 347.468 143.607 361.168 126.607 361.168C109.607 361.168 95.9067 347.468 95.9067 330.468C95.9067 313.468 109.607 278.768 126.607 278.768C143.607 278.768 157.307 313.468 157.307 330.468Z" fill="black"/>
<path d="M126.606 361.868C109.306 361.868 95.2056 347.768 95.2056 330.468C95.2056 312.768 109.406 277.968 126.606 277.968C143.806 277.968 158.006 312.668 158.006 330.468C158.006 347.768 143.906 361.868 126.606 361.868ZM126.606 279.468C110.506 279.468 96.7056 313.668 96.7056 330.468C96.7056 346.968 110.106 360.368 126.606 360.368C143.106 360.368 156.506 346.968 156.506 330.468C156.506 313.668 142.706 279.468 126.606 279.468Z" fill="#8EFE1C"/>
<path d="M146.208 322.168C146.908 325.468 147.208 328.268 147.208 330.468Z" fill="black"/>
<path d="M147.907 330.468H146.407C146.407 328.268 146.107 325.468 145.407 322.368L146.907 322.068C147.607 325.268 147.907 328.168 147.907 330.468Z" fill="#8EFE1C"/>
<path d="M131.805 291.968C134.005 294.168 136.705 297.668 139.305 302.868C141.205 306.568 142.705 310.368 143.905 313.968" fill="black"/>
<path d="M143.206 314.168C141.906 310.368 140.406 306.668 138.606 303.168C135.706 297.468 133.006 294.268 131.206 292.468L132.306 291.368C134.906 293.968 137.606 297.768 139.906 302.468C141.706 305.968 143.306 309.768 144.606 313.668L143.206 314.168Z" fill="#8EFE1C"/>
<path d="M218.606 330.468C218.606 347.468 204.906 361.168 187.906 361.168C170.906 361.168 157.206 347.368 157.206 330.468C157.206 313.468 170.906 278.768 187.906 278.768C204.906 278.768 218.606 313.468 218.606 330.468Z" fill="#8EFE1C"/>
<path d="M209.206 330.468H207.706C207.706 328.268 207.406 325.468 206.706 322.368L208.206 322.068C208.906 325.268 209.206 328.168 209.206 330.468Z" fill="black"/>
<path d="M204.504 314.168C203.204 310.368 201.704 306.668 199.904 303.168C197.004 297.468 194.304 294.268 192.504 292.468L193.604 291.368C196.204 293.968 198.904 297.768 201.204 302.468C203.004 305.968 204.604 309.768 205.904 313.668L204.504 314.168Z" fill="black"/>
<path d="M279.904 330.468C279.904 347.468 266.204 361.168 249.204 361.168C232.204 361.168 218.504 347.468 218.504 330.468C218.504 313.468 232.204 278.768 249.204 278.768C266.204 278.768 279.904 313.468 279.904 330.468Z" fill="black"/>
<path d="M249.205 361.868C231.905 361.868 217.805 347.768 217.805 330.468C217.805 312.768 232.005 277.968 249.205 277.968C266.405 277.968 280.605 312.668 280.605 330.468C280.605 347.768 266.505 361.868 249.205 361.868ZM249.205 279.468C233.105 279.468 219.305 313.668 219.305 330.468C219.305 346.968 232.705 360.368 249.205 360.368C265.705 360.368 279.105 346.968 279.105 330.468C279.105 313.668 265.305 279.468 249.205 279.468Z" fill="#8EFE1C"/>
<path d="M268.805 322.168C269.505 325.468 269.805 328.268 269.805 330.468Z" fill="black"/>
<path d="M270.504 330.468H269.004C269.004 328.268 268.704 325.468 268.004 322.368L269.504 322.068C270.204 325.268 270.504 328.168 270.504 330.468Z" fill="#8EFE1C"/>
<path d="M254.407 291.968C256.607 294.168 259.307 297.668 261.907 302.868C263.807 306.568 265.307 310.368 266.507 313.968" fill="black"/>
<path d="M265.805 314.168C264.505 310.368 263.005 306.668 261.205 303.168C258.305 297.468 255.605 294.268 253.805 292.468L254.905 291.368C257.505 293.968 260.205 297.768 262.505 302.468C264.305 305.968 265.905 309.768 267.205 313.668L265.805 314.168Z" fill="#8EFE1C"/>
<path d="M341.205 330.468C341.205 347.468 327.505 361.168 310.505 361.168C293.505 361.168 279.805 347.468 279.805 330.468C279.805 313.468 293.505 278.768 310.505 278.768C327.505 278.768 341.205 313.468 341.205 330.468Z" fill="black"/>
<path d="M310.506 361.868C293.206 361.868 279.106 347.768 279.106 330.468C279.106 312.768 293.306 277.968 310.506 277.968C327.706 277.968 341.906 312.668 341.906 330.468C341.906 347.768 327.806 361.868 310.506 361.868ZM310.506 279.468C294.406 279.468 280.606 313.668 280.606 330.468C280.606 346.968 294.006 360.368 310.506 360.368C327.006 360.368 340.406 346.968 340.406 330.468C340.406 313.668 326.506 279.468 310.506 279.468Z" fill="#8EFE1C"/>
<path d="M330.004 322.168C330.704 325.468 331.004 328.268 331.004 330.468Z" fill="black"/>
<path d="M331.805 330.468H330.305C330.305 328.268 330.005 325.468 329.305 322.368L330.805 322.068C331.405 325.268 331.805 328.168 331.805 330.468Z" fill="#8EFE1C"/>
<path d="M315.706 291.968C317.906 294.168 320.606 297.668 323.206 302.868C325.106 306.568 326.606 310.368 327.806 313.968" fill="black"/>
<path d="M327.106 314.168C325.806 310.368 324.306 306.668 322.506 303.168C319.606 297.468 316.906 294.268 315.106 292.468L316.206 291.368C318.806 293.968 321.506 297.768 323.806 302.468C325.606 305.968 327.206 309.768 328.506 313.668L327.106 314.168Z" fill="#8EFE1C"/>
<path d="M187.906 259.368C180.606 259.368 174.706 253.468 174.706 246.168C174.706 235.568 180.706 219.368 187.906 219.368C195.206 219.368 201.106 235.468 201.106 246.168C201.006 253.468 195.106 259.368 187.906 259.368Z" fill="#8EFE1C"/>
<path d="M249.204 259.368C241.904 259.368 236.004 253.468 236.004 246.168C236.004 235.568 242.004 219.368 249.204 219.368C256.504 219.368 262.404 235.468 262.404 246.168C262.304 253.468 256.404 259.368 249.204 259.368Z" fill="#8EFE1C"/>
<path d="M310.505 341.768C303.205 341.768 297.305 335.868 297.305 328.568C297.305 317.968 303.305 301.768 310.505 301.768C317.805 301.768 323.705 317.868 323.705 328.568C323.605 335.868 317.705 341.768 310.505 341.768Z" fill="#8EFE1C"/>
<path d="M188.606 151.468H187.106V167.468H188.606V151.468Z" fill="#8EFE1C"/>
<path d="M195.907 158.768H179.907V160.268H195.907V158.768Z" fill="#8EFE1C"/>
<path d="M127.305 316.668H125.805V332.668H127.305V316.668Z" fill="#8EFE1C"/>
<path d="M134.606 323.968H118.606V325.468H134.606V323.968Z" fill="#8EFE1C"/>
<path d="M249.907 151.468H248.407V167.468H249.907V151.468Z" fill="#8EFE1C"/>
<path d="M257.106 158.768H241.106V160.268H257.106V158.768Z" fill="#8EFE1C"/>
<path d="M361.405 355.068H359.905V361.068H361.405V355.068Z" fill="#8EFE1C"/>
<path d="M361.405 342.768H359.905V330.468H361.405V342.768ZM361.405 318.068H359.905V305.768H361.405V318.068ZM361.405 293.368H359.905V281.068H361.405V293.368ZM361.405 268.668H359.905V256.368H361.405V268.668ZM361.405 243.968H359.905V231.668H361.405V243.968ZM361.405 219.268H359.905V206.968H361.405V219.268ZM361.405 194.568H359.905V182.268H361.405V194.568ZM361.405 169.868H359.905V157.568H361.405V169.868ZM361.405 145.268H359.905V132.968H361.405V145.268Z" fill="#8EFE1C"/>
<path d="M361.405 114.568H359.905V120.568H361.405V114.568Z" fill="#8EFE1C"/>
<path d="M374.605 360.468H346.805V361.968H374.605V360.468Z" fill="#8EFE1C"/>
<path d="M374.605 113.368H346.805V114.868H374.605V113.368Z" fill="#8EFE1C"/>
<path d="M189.004 60.8682H187.504V65.6682H189.004V60.8682Z" fill="#8EFE1C"/>
<path d="M189.004 68.5681H187.504V73.3681H189.004V68.5681Z" fill="#8EFE1C"/>
<path d="M186.804 66.3682H182.004V67.8682H186.804V66.3682Z" fill="#8EFE1C"/>
<path d="M194.504 66.3682H189.704V67.8682H194.504V66.3682Z" fill="#8EFE1C"/>
<path d="M313.907 389.068H312.407V393.868H313.907V389.068Z" fill="#8EFE1C"/>
<path d="M313.907 396.768H312.407V401.568H313.907V396.768Z" fill="#8EFE1C"/>
<path d="M311.707 394.568H306.907V396.068H311.707V394.568Z" fill="#8EFE1C"/>
<path d="M319.406 394.568H314.606V396.068H319.406V394.568Z" fill="#8EFE1C"/>
<path d="M187.906 402.768C191.938 402.768 195.206 399.5 195.206 395.468C195.206 391.436 191.938 388.168 187.906 388.168C183.874 388.168 180.606 391.436 180.606 395.468C180.606 399.5 183.874 402.768 187.906 402.768Z" fill="black"/>
<path d="M187.907 403.468C183.507 403.468 179.907 399.868 179.907 395.468C179.907 391.068 183.507 387.468 187.907 387.468C192.307 387.468 195.907 391.068 195.907 395.468C195.907 399.868 192.307 403.468 187.907 403.468ZM187.907 388.968C184.307 388.968 181.407 391.868 181.407 395.468C181.407 399.068 184.307 401.968 187.907 401.968C191.507 401.968 194.407 399.068 194.407 395.468C194.407 391.868 191.507 388.968 187.907 388.968Z" fill="#1D2225"/>
<path d="M313.105 74.568C317.137 74.568 320.405 71.2997 320.405 67.268C320.405 63.2363 317.137 59.968 313.105 59.968C309.073 59.968 305.805 63.2363 305.805 67.268C305.805 71.2997 309.073 74.568 313.105 74.568Z" fill="black"/>
<path d="M313.106 75.2681C308.706 75.2681 305.106 71.6681 305.106 67.2681C305.106 62.8681 308.706 59.2681 313.106 59.2681C317.506 59.2681 321.106 62.8681 321.106 67.2681C321.106 71.6681 317.506 75.2681 313.106 75.2681ZM313.106 60.7681C309.506 60.7681 306.606 63.6681 306.606 67.2681C306.606 70.8681 309.506 73.7681 313.106 73.7681C316.706 73.7681 319.606 70.8681 319.606 67.2681C319.606 63.6681 316.706 60.7681 313.106 60.7681Z" fill="#1D2225"/>
<path d="M63.406 271.568C67.4376 271.568 70.706 268.3 70.706 264.268C70.706 260.236 67.4376 256.968 63.406 256.968C59.3743 256.968 56.106 260.236 56.106 264.268C56.106 268.3 59.3743 271.568 63.406 271.568Z" fill="black"/>
<path d="M63.4067 272.268C59.0067 272.268 55.4067 268.668 55.4067 264.268C55.4067 259.868 59.0067 256.268 63.4067 256.268C67.8067 256.268 71.4067 259.868 71.4067 264.268C71.4067 268.668 67.8067 272.268 63.4067 272.268ZM63.4067 257.768C59.8067 257.768 56.9067 260.668 56.9067 264.268C56.9067 267.868 59.8067 270.768 63.4067 270.768C67.0067 270.768 69.9067 267.868 69.9067 264.268C69.9067 260.668 67.0067 257.768 63.4067 257.768Z" fill="#1D2225"/>
<path d="M376.307 0.768066L438.699 66.3804L437.637 67.4426L375.244 1.83034L376.307 0.768066Z" fill="#1D2225"/>
</svg>
