<svg width="741" height="30" viewBox="0 0 741 30" fill="none" xmlns="http://www.w3.org/2000/svg">
<path d="M14.5096 0.532227L0.901855 29.5181H13.4395L27.0472 0.532227H14.5096Z" fill="#1D2225"/>
<path d="M489.692 0.532227L476.084 29.5181H488.622L502.23 0.532227H489.692Z" fill="#1D2225"/>
<path d="M252.385 0.532227L238.777 29.5181H251.314L264.922 0.532227H252.385Z" fill="#1D2225"/>
<path d="M727.567 0.532227L713.959 29.5181H726.497L740.105 0.532227H727.567Z" fill="#1D2225"/>
<path d="M143.901 0.532227L130.293 29.5181H142.831L156.439 0.532227H143.901Z" fill="#1D2225"/>
<path d="M619.084 0.532227L605.477 29.5181H618.014L631.622 0.532227H619.084Z" fill="#1D2225"/>
<path d="M381.777 0.532227L368.169 29.5181H380.707L394.314 0.532227H381.777Z" fill="#1D2225"/>
<path d="M36.035 0.532227L22.4272 29.5181H34.9649L48.5726 0.532227H36.035Z" fill="#1D2225"/>
<path d="M511.218 0.532227L497.61 29.5181H510.148L523.756 0.532227H511.218Z" fill="#1D2225"/>
<path d="M273.911 0.532227L260.303 29.5181H272.841L286.449 0.532227H273.911Z" fill="#1D2225"/>
<path d="M165.426 0.532227L151.818 29.5181H164.355L177.963 0.532227H165.426Z" fill="#1D2225"/>
<path d="M640.611 0.532227L627.003 29.5181H639.541L653.149 0.532227H640.611Z" fill="#1D2225"/>
<path d="M403.303 0.532227L389.695 29.5181H402.232L415.84 0.532227H403.303Z" fill="#1D2225"/>
<path d="M57.5545 0.532227L43.9468 29.5181H56.4844L70.1054 0.532227H57.5545Z" fill="#1D2225"/>
<path d="M532.737 0.532227L519.129 29.5181H531.667L545.287 0.532227H532.737Z" fill="#1D2225"/>
<path d="M295.429 0.532227L281.821 29.5181H294.359L307.98 0.532227H295.429Z" fill="#1D2225"/>
<path d="M186.945 0.532227L173.337 29.5181H185.875L199.496 0.532227H186.945Z" fill="#1D2225"/>
<path d="M662.128 0.532227L648.521 29.5181H661.058L674.679 0.532227H662.128Z" fill="#1D2225"/>
<path d="M424.821 0.532227L411.213 29.5181H423.751L437.372 0.532227H424.821Z" fill="#1D2225"/>
<path d="M79.0731 0.532227L65.4653 29.5181H78.0162L91.6239 0.532227H79.0731Z" fill="#1D2225"/>
<path d="M554.256 0.532227L540.648 29.5181H553.199L566.807 0.532227H554.256Z" fill="#1D2225"/>
<path d="M316.948 0.532227L303.34 29.5181H315.891L329.499 0.532227H316.948Z" fill="#1D2225"/>
<path d="M208.464 0.532227L194.856 29.5181H207.407L221.015 0.532227H208.464Z" fill="#1D2225"/>
<path d="M683.647 0.532227L670.04 29.5181H682.59L696.198 0.532227H683.647Z" fill="#1D2225"/>
<path d="M446.339 0.532227L432.731 29.5181H445.282L458.89 0.532227H446.339Z" fill="#1D2225"/>
<path d="M100.612 0.532227L87.0044 29.5181H99.542L113.15 0.532227H100.612Z" fill="#1D2225"/>
<path d="M575.797 0.532227L562.189 29.5181H574.727L588.334 0.532227H575.797Z" fill="#1D2225"/>
<path d="M338.489 0.532227L324.881 29.5181H337.418L351.026 0.532227H338.489Z" fill="#1D2225"/>
<path d="M230.004 0.532227L216.396 29.5181H228.934L242.542 0.532227H230.004Z" fill="#1D2225"/>
<path d="M705.188 0.532227L691.58 29.5181H704.118L717.725 0.532227H705.188Z" fill="#1D2225"/>
<path d="M467.88 0.532227L454.272 29.5181H466.81L480.417 0.532227H467.88Z" fill="#1D2225"/>
<path d="M134.894 0.532227H122.356L108.749 29.5181H121.286L134.894 0.532227Z" fill="#1D2225"/>
<path d="M610.077 0.532227H597.54L583.932 29.5181H596.47L610.077 0.532227Z" fill="#1D2225"/>
<path d="M372.769 0.532227H360.232L346.624 29.5181H359.162L372.769 0.532227Z" fill="#1D2225"/>
</svg>
