<svg width="740" height="30" viewBox="0 0 740 30" fill="none" xmlns="http://www.w3.org/2000/svg">
<path d="M14.1405 0.0546875L0.532715 29.0405H13.0703L26.6781 0.0546875H14.1405Z" fill="#8EFE1C"/>
<path d="M489.323 0.0546875L475.715 29.0405H488.253L501.861 0.0546875H489.323Z" fill="#8EFE1C"/>
<path d="M252.015 0.0546875L238.408 29.0405H250.945L264.553 0.0546875H252.015Z" fill="#8EFE1C"/>
<path d="M727.198 0.0546875L713.59 29.0405H726.128L739.736 0.0546875H727.198Z" fill="#1D2225"/>
<path d="M143.532 0.0546875L129.924 29.0405H142.462L156.07 0.0546875H143.532Z" fill="#8EFE1C"/>
<path d="M618.715 0.0546875L605.108 29.0405H617.645L631.253 0.0546875H618.715Z" fill="#1D2225"/>
<path d="M381.408 0.0546875L367.8 29.0405H380.337L393.945 0.0546875H381.408Z" fill="#8EFE1C"/>
<path d="M35.6657 0.0546875L22.058 29.0405H34.5956L48.2033 0.0546875H35.6657Z" fill="#8EFE1C"/>
<path d="M510.849 0.0546875L497.241 29.0405H509.779L523.387 0.0546875H510.849Z" fill="#8EFE1C"/>
<path d="M273.542 0.0546875L259.934 29.0405H272.472L286.079 0.0546875H273.542Z" fill="#8EFE1C"/>
<path d="M165.056 0.0546875L151.449 29.0405H163.986L177.594 0.0546875H165.056Z" fill="#8EFE1C"/>
<path d="M640.242 0.0546875L626.634 29.0405H639.172L652.78 0.0546875H640.242Z" fill="#1D2225"/>
<path d="M402.933 0.0546875L389.326 29.0405H401.863L415.471 0.0546875H402.933Z" fill="#8EFE1C"/>
<path d="M57.1854 0.0546875L43.5776 29.0405H56.1153L69.7362 0.0546875H57.1854Z" fill="#8EFE1C"/>
<path d="M532.367 0.0546875L518.76 29.0405H531.297L544.918 0.0546875H532.367Z" fill="#1D2225"/>
<path d="M295.06 0.0546875L281.452 29.0405H293.99L307.611 0.0546875H295.06Z" fill="#8EFE1C"/>
<path d="M186.576 0.0546875L172.968 29.0405H185.506L199.127 0.0546875H186.576Z" fill="#8EFE1C"/>
<path d="M661.759 0.0546875L648.151 29.0405H660.689L674.31 0.0546875H661.759Z" fill="#1D2225"/>
<path d="M424.452 0.0546875L410.844 29.0405H423.382L437.003 0.0546875H424.452Z" fill="#8EFE1C"/>
<path d="M78.7039 0.0546875L65.0962 29.0405H77.647L91.2548 0.0546875H78.7039Z" fill="#8EFE1C"/>
<path d="M553.887 0.0546875L540.279 29.0405H552.83L566.438 0.0546875H553.887Z" fill="#1D2225"/>
<path d="M316.579 0.0546875L302.971 29.0405H315.522L329.13 0.0546875H316.579Z" fill="#8EFE1C"/>
<path d="M208.095 0.0546875L194.487 29.0405H207.038L220.645 0.0546875H208.095Z" fill="#8EFE1C"/>
<path d="M683.278 0.0546875L669.67 29.0405H682.221L695.829 0.0546875H683.278Z" fill="#1D2225"/>
<path d="M445.97 0.0546875L432.362 29.0405H444.913L458.521 0.0546875H445.97Z" fill="#8EFE1C"/>
<path d="M100.243 0.0546875L86.6353 29.0405H99.1729L112.781 0.0546875H100.243Z" fill="#8EFE1C"/>
<path d="M575.428 0.0546875L561.82 29.0405H574.358L587.965 0.0546875H575.428Z" fill="#1D2225"/>
<path d="M338.119 0.0546875L324.512 29.0405H337.049L350.657 0.0546875H338.119Z" fill="#8EFE1C"/>
<path d="M229.635 0.0546875L216.027 29.0405H228.565L242.173 0.0546875H229.635Z" fill="#8EFE1C"/>
<path d="M704.819 0.0546875L691.211 29.0405H703.749L717.356 0.0546875H704.819Z" fill="#1D2225"/>
<path d="M467.511 0.0546875L453.903 29.0405H466.44L480.048 0.0546875H467.511Z" fill="#8EFE1C"/>
<path d="M134.525 0.0546875H121.987L108.379 29.0405H120.917L134.525 0.0546875Z" fill="#8EFE1C"/>
<path d="M609.708 0.0546875H597.171L583.563 29.0405H596.101L609.708 0.0546875Z" fill="#1D2225"/>
<path d="M372.4 0.0546875H359.863L346.255 29.0405H358.793L372.4 0.0546875Z" fill="#8EFE1C"/>
</svg>
