<svg width="740" height="30" viewBox="0 0 740 30" fill="none" xmlns="http://www.w3.org/2000/svg">
<path d="M14.3748 0.532227L0.76709 29.5181H13.3047L26.9125 0.532227H14.3748Z" fill="#8EFE1C"/>
<path d="M489.557 0.532227L475.95 29.5181H488.487L502.095 0.532227H489.557Z" fill="#1D2225"/>
<path d="M252.25 0.532227L238.642 29.5181H251.18L264.787 0.532227H252.25Z" fill="#8EFE1C"/>
<path d="M727.432 0.532227L713.825 29.5181H726.362L739.97 0.532227H727.432Z" fill="#1D2225"/>
<path d="M143.766 0.532227L130.159 29.5181H142.696L156.304 0.532227H143.766Z" fill="#8EFE1C"/>
<path d="M618.95 0.532227L605.342 29.5181H617.879L631.487 0.532227H618.95Z" fill="#1D2225"/>
<path d="M381.642 0.532227L368.034 29.5181H380.572L394.18 0.532227H381.642Z" fill="#1D2225"/>
<path d="M35.9002 0.532227L22.2925 29.5181H34.8301L48.4378 0.532227H35.9002Z" fill="#8EFE1C"/>
<path d="M511.083 0.532227L497.476 29.5181H510.013L523.621 0.532227H511.083Z" fill="#1D2225"/>
<path d="M273.776 0.532227L260.168 29.5181H272.706L286.314 0.532227H273.776Z" fill="#8EFE1C"/>
<path d="M165.291 0.532227L151.683 29.5181H164.221L177.828 0.532227H165.291Z" fill="#8EFE1C"/>
<path d="M640.476 0.532227L626.869 29.5181H639.406L653.014 0.532227H640.476Z" fill="#1D2225"/>
<path d="M403.168 0.532227L389.56 29.5181H402.098L415.705 0.532227H403.168Z" fill="#1D2225"/>
<path d="M57.4198 0.532227L43.812 29.5181H56.3496L69.9706 0.532227H57.4198Z" fill="#8EFE1C"/>
<path d="M532.602 0.532227L518.994 29.5181H531.532L545.153 0.532227H532.602Z" fill="#1D2225"/>
<path d="M295.294 0.532227L281.687 29.5181H294.224L307.845 0.532227H295.294Z" fill="#1D2225"/>
<path d="M186.81 0.532227L173.203 29.5181H185.74L199.361 0.532227H186.81Z" fill="#8EFE1C"/>
<path d="M661.993 0.532227L648.386 29.5181H660.923L674.544 0.532227H661.993Z" fill="#1D2225"/>
<path d="M424.686 0.532227L411.079 29.5181H423.616L437.237 0.532227H424.686Z" fill="#1D2225"/>
<path d="M78.9383 0.532227L65.3306 29.5181H77.8814L91.4892 0.532227H78.9383Z" fill="#8EFE1C"/>
<path d="M554.121 0.532227L540.514 29.5181H553.065L566.672 0.532227H554.121Z" fill="#1D2225"/>
<path d="M316.813 0.532227L303.206 29.5181H315.756L329.364 0.532227H316.813Z" fill="#1D2225"/>
<path d="M208.329 0.532227L194.721 29.5181H207.272L220.88 0.532227H208.329Z" fill="#8EFE1C"/>
<path d="M683.513 0.532227L669.905 29.5181H682.456L696.063 0.532227H683.513Z" fill="#1D2225"/>
<path d="M446.204 0.532227L432.597 29.5181H445.148L458.755 0.532227H446.204Z" fill="#1D2225"/>
<path d="M100.477 0.532227L86.8696 29.5181H99.4072L113.015 0.532227H100.477Z" fill="#8EFE1C"/>
<path d="M575.662 0.532227L562.054 29.5181H574.592L588.2 0.532227H575.662Z" fill="#1D2225"/>
<path d="M338.354 0.532227L324.746 29.5181H337.284L350.891 0.532227H338.354Z" fill="#1D2225"/>
<path d="M229.869 0.532227L216.262 29.5181H228.799L242.407 0.532227H229.869Z" fill="#8EFE1C"/>
<path d="M705.053 0.532227L691.445 29.5181H703.983L717.591 0.532227H705.053Z" fill="#1D2225"/>
<path d="M467.745 0.532227L454.137 29.5181H466.675L480.283 0.532227H467.745Z" fill="#1D2225"/>
<path d="M134.759 0.532227H122.222L108.614 29.5181H121.151L134.759 0.532227Z" fill="#8EFE1C"/>
<path d="M609.943 0.532227H597.405L583.797 29.5181H596.335L609.943 0.532227Z" fill="#1D2225"/>
<path d="M372.635 0.532227H360.097L346.489 29.5181H359.027L372.635 0.532227Z" fill="#1D2225"/>
</svg>
