<svg width="43" height="43" viewBox="0 0 43 43" fill="none" xmlns="http://www.w3.org/2000/svg">
<path d="M21.9038 42.4795L16.5254 21.4038H21.9038V42.4795Z" fill="#8EFE1C"/>
<path d="M21.9047 42.4795L27.2832 21.4038H21.9047V42.4795Z" fill="#8EFE1C"/>
<path d="M21.9047 0.328125L27.2832 21.4038L21.9047 21.4038L21.9047 0.328125Z" fill="#8EFE1C"/>
<path d="M21.9038 0.328125L16.5254 21.4038L21.9038 21.4038L21.9038 0.328125Z" fill="#8EFE1C"/>
<path d="M42.978 21.4013L21.9023 26.7798L21.9023 21.4013L42.978 21.4013Z" fill="#8EFE1C"/>
<path d="M42.978 21.4024L21.9023 16.0239L21.9023 21.4024L42.978 21.4024Z" fill="#8EFE1C"/>
<path d="M0.826661 21.4024L21.9023 16.0239L21.9023 21.4024L0.826661 21.4024Z" fill="#8EFE1C"/>
<path d="M0.826659 21.4013L21.9023 26.7798L21.9023 21.4013L0.826659 21.4013Z" fill="#8EFE1C"/>
<path d="M32.4703 31.9728L19.2051 24.1016L21.9021 21.4046L32.4703 31.9728Z" fill="#8EFE1C"/>
<path d="M32.4709 31.9713L24.5996 18.7061L21.9026 21.403L32.4709 31.9713Z" fill="#8EFE1C"/>
<path d="M11.3343 10.8348L24.5996 18.7061L21.9026 21.403L11.3343 10.8348Z" fill="#8EFE1C"/>
<path d="M11.3338 10.8363L19.2051 24.1016L21.9021 21.4046L11.3338 10.8363Z" fill="#8EFE1C"/>
<path d="M32.4709 10.8363L24.5996 24.1016L21.9026 21.4046L32.4709 10.8363Z" fill="#8EFE1C"/>
<path d="M32.4703 10.8348L19.2051 18.7061L21.9021 21.403L32.4703 10.8348Z" fill="#8EFE1C"/>
<path d="M11.3338 31.9713L19.2051 18.7061L21.9021 21.403L11.3338 31.9713Z" fill="#8EFE1C"/>
<path d="M11.3343 31.9728L24.5996 24.1016L21.9026 21.4046L11.3343 31.9728Z" fill="#8EFE1C"/>
</svg>
