<svg width="180" height="94" viewBox="0 0 180 94" fill="none" xmlns="http://www.w3.org/2000/svg">
<rect x="1.33398" y="1.17334" width="90.8813" height="90.8813" stroke="#8EFE1C" stroke-width="2"/>
<path d="M93.2275 1.29443V91.3118H152.453L178.394 65.3713V1.29443H93.2275Z" fill="#8EFE1C" stroke="#8EFE1C" stroke-width="2.17113"/>
<path d="M120.447 55.0555C128.397 55.0555 133.227 50.8855 133.227 43.8955C133.227 36.9055 128.397 32.7355 120.447 32.7355C112.527 32.7355 107.697 36.9055 107.697 43.8955C107.697 50.8855 112.527 55.0555 120.447 55.0555ZM120.477 50.9155C115.587 50.9155 112.587 48.5155 112.587 43.8955C112.587 39.2755 115.587 36.8755 120.477 36.8755C125.337 36.8755 128.337 39.2755 128.337 43.8955C128.337 48.5155 125.337 50.9155 120.477 50.9155ZM136.324 37.6855L139.174 40.2355C141.334 37.8955 143.914 36.5755 147.094 36.5755C149.854 36.5755 152.584 37.5055 152.584 39.3055C152.584 41.0455 149.944 41.8255 146.494 42.9955C140.284 45.0055 136.474 48.3655 135.874 52.2655V54.3955H157.894V50.5255H141.754C142.444 49.0555 145.384 47.6455 149.284 46.3555C154.054 44.8255 157.444 42.8155 157.444 39.2155C157.444 34.8355 152.254 32.7655 147.244 32.7655C142.354 32.7655 138.334 34.8955 136.324 37.6855Z" fill="black"/>
<path d="M58.6056 29.5995C58.1274 28.711 56.923 28.1707 55.9158 28.3926L32.8613 33.4743H60.6901L58.6056 29.5995Z" fill="#8EFE1C"/>
<path d="M65.4738 45.5137H55.3148C55.2431 45.5136 55.1722 45.5272 55.106 45.5538C55.0398 45.5805 54.9796 45.6195 54.9289 45.6688C54.8781 45.7181 54.8379 45.7766 54.8104 45.8411C54.7829 45.9055 54.7687 45.9746 54.7686 46.0444V53.469C54.7686 53.5389 54.7827 53.608 54.8101 53.6726C54.8376 53.7371 54.8778 53.7957 54.9286 53.8451C54.9793 53.8944 55.0395 53.9336 55.1058 53.9602C55.1721 53.9869 55.2431 54.0006 55.3148 54.0005H65.4738C65.5454 54.0006 65.6164 53.9869 65.6825 53.9602C65.7487 53.9335 65.8088 53.8944 65.8594 53.845C65.9101 53.7956 65.9502 53.737 65.9774 53.6724C66.0047 53.6079 66.0187 53.5388 66.0185 53.469V46.0444C66.0187 45.9746 66.0047 45.9055 65.9774 45.8411C65.9501 45.7766 65.91 45.718 65.8594 45.6687C65.8088 45.6194 65.7487 45.5803 65.6825 45.5537C65.6163 45.5271 65.5454 45.5135 65.4738 45.5137ZM59.1235 51.7012C58.7288 51.7012 58.3428 51.5872 58.0146 51.3735C57.6863 51.1597 57.4305 50.856 57.2794 50.5006C57.1283 50.1452 57.0888 49.7542 57.1658 49.3769C57.2428 48.9996 57.433 48.653 57.7121 48.381C57.9913 48.109 58.3469 47.9238 58.7341 47.8488C59.1213 47.7737 59.5227 47.8122 59.8874 47.9594C60.2521 48.1066 60.5639 48.3559 60.7832 48.6758C61.0025 48.9956 61.1196 49.3716 61.1196 49.7563C61.1196 50.2721 60.9093 50.7668 60.535 51.1316C60.1606 51.4963 59.6529 51.7012 59.1235 51.7012Z" fill="#8EFE1C"/>
<path d="M29.3283 64.2611H61.6585C62.1342 64.2607 62.5903 64.0711 62.9267 63.7339C63.2631 63.3967 63.4524 62.9395 63.453 62.4626V55.9769H55.3689C54.7496 55.9765 54.1557 55.7297 53.7176 55.2908C53.2795 54.8518 53.033 54.2565 53.0322 53.6356V46.0725C53.0324 45.7644 53.0931 45.4595 53.2109 45.175C53.3287 44.8905 53.5012 44.632 53.7186 44.4144C53.9361 44.1967 54.1941 44.0242 54.4781 43.9066C54.762 43.7889 55.0663 43.7285 55.3735 43.7288H63.453V37.2485C63.453 37.0119 63.4066 36.7777 63.3162 36.5592C63.2259 36.3407 63.0936 36.1421 62.9267 35.9749C62.7599 35.8077 62.5618 35.6751 62.3438 35.5846C62.1258 35.4942 61.8922 35.4477 61.6562 35.4478H29.3275C28.8513 35.448 28.3947 35.6378 28.058 35.9754C27.7213 36.3131 27.5322 36.771 27.5322 37.2485V62.4626C27.5322 62.9402 27.7215 63.3982 28.0583 63.7359C28.3951 64.0736 28.8519 64.2633 29.3283 64.2633V64.2611Z" fill="#8EFE1C"/>
</svg>
