<svg width="69" height="72" viewBox="0 0 69 72" fill="none" xmlns="http://www.w3.org/2000/svg">
<path d="M1.02246 0.5625V71.241H47.5242L67.8918 50.8734V0.5625H1.02246Z" fill="#1D2225" stroke="#1D2225" stroke-width="0.815476"/>
<path d="M24.3595 44.3729C30.3097 44.3729 33.9247 41.2519 33.9247 36.0202C33.9247 30.7886 30.3097 27.6676 24.3595 27.6676C18.4318 27.6676 14.8169 30.7886 14.8169 36.0202C14.8169 41.2519 18.4318 44.3729 24.3595 44.3729ZM24.382 41.2743C20.7221 41.2743 18.4768 39.478 18.4768 36.0202C18.4768 32.5624 20.7221 30.7661 24.382 30.7661C28.0194 30.7661 30.2648 32.5624 30.2648 36.0202C30.2648 39.478 28.0194 41.2743 24.382 41.2743ZM38.5101 38.9841L35.6585 40.6232C37.4099 42.8685 40.4411 44.3504 44.348 44.3504C48.9509 44.3504 52.6108 42.6215 52.6108 39.5005C52.6108 37.0755 50.343 35.9753 48.2324 35.661C50.3206 35.4364 52.0046 33.9994 52.0046 32.0684C52.0046 29.127 48.2773 27.69 44.1683 27.69C40.4635 27.69 37.6344 29.127 35.9953 31.2377L38.5999 32.9666C39.6103 31.5745 41.4739 30.5641 44.1683 30.5641C46.1442 30.5641 48.3447 31.0131 48.3447 32.4726C48.3447 33.9096 46.2116 34.4036 43.9213 34.4036H41.5862V37.0531H43.9213C46.6607 37.0531 48.8162 37.4123 48.8162 39.1637C48.8162 40.8926 46.5933 41.4764 44.2581 41.4764C41.6086 41.4764 39.6103 40.5783 38.5101 38.9841Z" fill="black"/>
</svg>
