<svg width="69" height="64" viewBox="0 0 69 64" fill="none" xmlns="http://www.w3.org/2000/svg">
<path d="M55.6237 2.27418C54.7728 0.69319 52.6299 -0.268166 50.8378 0.126748L9.81738 9.16856H59.3326L55.6237 2.27418Z" fill="#1D2225"/>
<path d="M67.845 30.5894H49.7692C49.6418 30.5892 49.5155 30.6135 49.3977 30.6608C49.2799 30.7082 49.1728 30.7777 49.0826 30.8654C48.9923 30.9531 48.9207 31.0572 48.8718 31.1719C48.8228 31.2865 48.7975 31.4095 48.7974 31.5336V44.7441C48.7974 44.8684 48.8225 44.9915 48.8714 45.1063C48.9202 45.2211 48.9918 45.3254 49.0821 45.4133C49.1724 45.5011 49.2795 45.5707 49.3974 45.6181C49.5153 45.6656 49.6417 45.6899 49.7692 45.6897H67.845C67.9725 45.6899 68.0987 45.6656 68.2164 45.6181C68.3342 45.5706 68.4412 45.501 68.5312 45.4131C68.6212 45.3252 68.6926 45.2209 68.7411 45.1061C68.7897 44.9913 68.8145 44.8683 68.8142 44.7441V31.5336C68.8145 31.4095 68.7897 31.2866 68.7411 31.1719C68.6926 31.0571 68.6212 30.9529 68.5311 30.8651C68.4411 30.7774 68.3341 30.7078 68.2163 30.6605C68.0986 30.6132 67.9724 30.589 67.845 30.5894ZM56.5461 41.5988C55.8437 41.5988 55.157 41.3958 54.573 41.0156C53.9889 40.6353 53.5337 40.0949 53.2649 39.4625C52.9961 38.8302 52.9257 38.1344 53.0628 37.4631C53.1998 36.7918 53.5381 36.1752 54.0348 35.6912C54.5315 35.2073 55.1643 34.8777 55.8532 34.7441C56.5422 34.6106 57.2563 34.6792 57.9052 34.9411C58.5542 35.203 59.1089 35.6465 59.4991 36.2156C59.8894 36.7847 60.0977 37.4538 60.0977 38.1382C60.0977 39.056 59.7235 39.9362 59.0574 40.5852C58.3914 41.2342 57.488 41.5988 56.5461 41.5988Z" fill="#1D2225"/>
<path d="M3.5316 63.9472H61.0563C61.9026 63.9465 62.7142 63.6092 63.3128 63.0092C63.9114 62.4093 64.2481 61.5958 64.2492 60.7473V49.2073H49.8653C48.7633 49.2066 47.7066 48.7676 46.9271 47.9866C46.1476 47.2055 45.709 46.1463 45.7076 45.0414V31.5846C45.7079 31.0365 45.816 30.4938 46.0256 29.9876C46.2351 29.4814 46.5421 29.0216 46.929 28.6343C47.3158 28.2471 47.775 27.9401 48.2802 27.7308C48.7854 27.5215 49.3268 27.414 49.8735 27.4146H64.2492V15.8842C64.2492 15.4633 64.1665 15.0466 64.0058 14.6578C63.8452 14.2689 63.6096 13.9157 63.3128 13.6181C63.0159 13.3206 62.6634 13.0846 62.2756 12.9237C61.8877 12.7627 61.472 12.68 61.0522 12.6802H3.53025C2.68294 12.6805 1.87046 13.0183 1.27145 13.6191C0.672436 14.2199 0.335937 15.0347 0.335938 15.8842V60.7473C0.335938 61.597 0.672623 62.412 1.27193 63.0128C1.87123 63.6137 2.68406 63.9513 3.5316 63.9513V63.9472Z" fill="#1D2225"/>
</svg>
