<svg width="76" height="63" viewBox="0 0 76 63" fill="none" xmlns="http://www.w3.org/2000/svg">
<path fill-rule="evenodd" clip-rule="evenodd" d="M75.3493 7.96806C72.59 9.20568 69.6205 10.0392 66.506 10.4155C69.6856 8.49088 72.1272 5.44481 73.2754 1.8153C70.3035 3.59848 67.0038 4.88915 63.499 5.58879C60.6897 2.56798 56.6845 0.678711 52.2591 0.678711C43.756 0.678711 36.8615 7.6397 36.8615 16.2248C36.8615 17.4422 36.9991 18.6293 37.2618 19.7684C24.4633 19.1218 13.1184 12.9312 5.52336 3.52524C4.19749 5.82116 3.43949 8.49091 3.43949 11.34C3.43949 16.7325 6.15378 21.491 10.289 24.2794C7.76233 24.1986 5.39077 23.499 3.3119 22.3346V22.5291C3.3119 30.0634 8.6229 36.345 15.6625 37.7771C14.3717 38.1307 13.0108 38.3227 11.6074 38.3227C10.6142 38.3227 9.64858 38.2241 8.70796 38.0423C10.6667 44.2178 16.3555 48.7136 23.0924 48.8399C17.824 53.0074 11.1846 55.4953 3.96984 55.4953C2.72402 55.4953 1.49821 55.422 0.294922 55.2755C7.10941 59.6855 15.2022 62.2618 23.898 62.2618C52.2191 62.2618 67.7068 38.5727 67.7068 18.0307C67.7068 17.3563 67.6943 16.6845 67.6618 16.0202C70.6737 13.8228 73.2855 11.0848 75.3493 7.96806Z" fill="#8EFE1C"/>
</svg>
