<svg width="69" height="73" viewBox="0 0 69 73" fill="none" xmlns="http://www.w3.org/2000/svg">
<path d="M1 1V71.6785H47.5018L67.8693 51.3109V1H1Z" fill="#8EFE1C" stroke="#8EFE1C" stroke-width="0.815476"/>
<path d="M24.3371 44.8104C30.2872 44.8104 33.9022 41.6894 33.9022 36.4577C33.9022 31.2261 30.2872 28.1051 24.3371 28.1051C18.4094 28.1051 14.7944 31.2261 14.7944 36.4577C14.7944 41.6894 18.4094 44.8104 24.3371 44.8104ZM24.3595 41.7118C20.6996 41.7118 18.4543 39.9155 18.4543 36.4577C18.4543 32.9999 20.6996 31.2036 24.3595 31.2036C27.997 31.2036 30.2423 32.9999 30.2423 36.4577C30.2423 39.9155 27.997 41.7118 24.3595 41.7118ZM38.4876 39.4216L35.636 41.0607C37.3874 43.306 40.4186 44.7879 44.3255 44.7879C48.9284 44.7879 52.5883 43.059 52.5883 39.938C52.5883 37.513 50.3206 36.4128 48.2099 36.0985C50.2981 35.8739 51.9821 34.4369 51.9821 32.5059C51.9821 29.5645 48.2548 28.1275 44.1459 28.1275C40.4411 28.1275 37.6119 29.5645 35.9728 31.6752L38.5774 33.4041C39.5878 32.012 41.4515 31.0016 44.1459 31.0016C46.1218 31.0016 48.3222 31.4506 48.3222 32.9101C48.3222 34.3471 46.1891 34.8411 43.8989 34.8411H41.5637V37.4906H43.8989C46.6382 37.4906 48.7937 37.8498 48.7937 39.6012C48.7937 41.3301 46.5708 41.9139 44.2357 41.9139C41.5862 41.9139 39.5878 41.0158 38.4876 39.4216Z" fill="black"/>
</svg>
