<svg width="68" height="72" viewBox="0 0 68 72" fill="none" xmlns="http://www.w3.org/2000/svg">
<path d="M0.463867 0.538086V71.2166H46.9656L67.3332 50.849V0.538086H0.463867Z" fill="#8EFE1C" stroke="#8EFE1C" stroke-width="0.815476"/>
<path d="M27.6163 44.3485C33.5664 44.3485 37.1814 41.2274 37.1814 35.9958C37.1814 30.7642 33.5664 27.6432 27.6163 27.6432C21.6886 27.6432 18.0736 30.7642 18.0736 35.9958C18.0736 41.2274 21.6886 44.3485 27.6163 44.3485ZM27.6387 41.2499C23.9788 41.2499 21.7335 39.4536 21.7335 35.9958C21.7335 32.538 23.9788 30.7417 27.6387 30.7417C31.2762 30.7417 33.5215 32.538 33.5215 35.9958C33.5215 39.4536 31.2762 41.2499 27.6387 41.2499ZM43.6304 43.8545H47.223V28.1371H44.5061C43.0242 29.4394 40.8911 30.5621 38.8703 30.854V33.8852C40.6441 33.5933 42.3057 33.0769 43.6304 32.1114V43.8545Z" fill="black"/>
</svg>
