<svg width="68" height="73" viewBox="0 0 68 73" fill="none" xmlns="http://www.w3.org/2000/svg">
<path d="M0.463867 0.958984V71.6375H46.9656L67.3332 51.2699V0.958984H0.463867Z" fill="#1D2225" stroke="#1D2225" stroke-width="0.815476"/>
<path d="M23.8996 44.7694C29.8498 44.7694 33.4648 41.6483 33.4648 36.4167C33.4648 31.1851 29.8498 28.064 23.8996 28.064C17.9719 28.064 14.3569 31.1851 14.3569 36.4167C14.3569 41.6483 17.9719 44.7694 23.8996 44.7694ZM23.9221 41.6708C20.2622 41.6708 18.0168 39.8745 18.0168 36.4167C18.0168 32.9589 20.2622 31.1626 23.9221 31.1626C27.5595 31.1626 29.8049 32.9589 29.8049 36.4167C29.8049 39.8745 27.5595 41.6708 23.9221 41.6708ZM35.7824 31.7689L37.9154 33.6774C39.5321 31.926 41.4631 30.9381 43.8431 30.9381C45.9088 30.9381 47.9521 31.6341 47.9521 32.9813C47.9521 34.2836 45.9762 34.8674 43.3941 35.7431C38.7462 37.2475 35.8946 39.7623 35.4456 42.6812V44.2754H51.9263V41.3789H39.8464C40.3629 40.2787 42.5633 39.2234 45.4822 38.2579C49.0523 37.1128 51.5895 35.6084 51.5895 32.914C51.5895 29.6358 47.7051 28.0865 43.9554 28.0865C40.2955 28.0865 37.2867 29.6807 35.7824 31.7689Z" fill="black"/>
</svg>
