<svg width="46" height="56" viewBox="0 0 46 56" fill="none" xmlns="http://www.w3.org/2000/svg">
<path fill-rule="evenodd" clip-rule="evenodd" d="M22.7779 0.661621C25.1274 3.55453 27.7179 6.24083 30.5213 8.69131C26.6913 21.2452 26.6913 34.6647 30.5213 47.2186C27.7177 49.6695 25.1267 52.3557 22.7761 55.2482C20.4267 52.3553 17.8362 49.669 15.0327 47.2186C16.9425 40.9777 17.9107 34.4844 17.9053 27.9549C17.9109 21.4255 16.9426 14.9321 15.0327 8.69131C17.8363 6.24038 20.4274 3.55413 22.7779 0.661621V0.661621ZM9.66957 43.0099C6.69145 40.9096 3.54295 39.0648 0.257324 37.4949C1.19411 34.4025 1.66869 31.1875 1.66554 27.9549C1.66869 24.7224 1.19411 21.5073 0.257324 18.415C3.54255 16.845 6.69099 15.0008 9.66957 12.9018C10.8278 17.8348 11.4122 22.8864 11.4108 27.9549C11.412 33.0241 10.8277 38.0763 9.66957 43.0099V43.0099ZM34.1432 27.9549C34.1401 33.0233 34.7226 38.0749 35.879 43.0081C38.857 40.908 42.0055 39.0638 45.2913 37.4949C43.4112 31.2753 43.4112 24.6346 45.2913 18.415C42.0059 16.8454 38.8574 15.0012 35.879 12.9018C34.7226 17.835 34.1401 22.8866 34.1432 27.9549V27.9549Z" fill="#1D2225"/>
</svg>
