<svg width="180" height="93" viewBox="0 0 180 93" fill="none" xmlns="http://www.w3.org/2000/svg">
<rect x="1" y="1" width="90.8813" height="90.8813" stroke="#8EFE1C" stroke-width="2"/>
<path d="M92.8936 1.12109V91.1385H152.119L178.06 65.198V1.12109H92.8936Z" fill="#8EFE1C" stroke="#8EFE1C" stroke-width="2.17113"/>
<path d="M119.981 54.8822C127.931 54.8822 132.761 50.7122 132.761 43.7222C132.761 36.7322 127.931 32.5622 119.981 32.5622C112.061 32.5622 107.231 36.7322 107.231 43.7222C107.231 50.7122 112.061 54.8822 119.981 54.8822ZM120.011 50.7422C115.121 50.7422 112.121 48.3422 112.121 43.7222C112.121 39.1022 115.121 36.7022 120.011 36.7022C124.871 36.7022 127.871 39.1022 127.871 43.7222C127.871 48.3422 124.871 50.7422 120.011 50.7422ZM138.887 47.6822L135.077 49.8722C137.417 52.8722 141.467 54.8522 146.687 54.8522C152.837 54.8522 157.727 52.5422 157.727 48.3722C157.727 45.1322 154.697 43.6622 151.877 43.2422C154.667 42.9422 156.917 41.0222 156.917 38.4422C156.917 34.5122 151.937 32.5922 146.447 32.5922C141.497 32.5922 137.717 34.5122 135.527 37.3322L139.007 39.6422C140.357 37.7822 142.847 36.4322 146.447 36.4322C149.087 36.4322 152.027 37.0322 152.027 38.9822C152.027 40.9022 149.177 41.5622 146.117 41.5622H142.997V45.1022H146.117C149.777 45.1022 152.657 45.5822 152.657 47.9222C152.657 50.2322 149.687 51.0122 146.567 51.0122C143.027 51.0122 140.357 49.8122 138.887 47.6822Z" fill="black"/>
<path fill-rule="evenodd" clip-rule="evenodd" d="M69.2668 34.9951C67.7692 35.6657 66.1575 36.1173 64.4671 36.3212C66.1928 35.2784 67.518 33.6279 68.1412 31.6613C66.5282 32.6275 64.7373 33.3268 62.8351 33.7059C61.3103 32.0691 59.1365 31.0454 56.7346 31.0454C52.1196 31.0454 48.3776 34.8172 48.3776 39.469C48.3776 40.1286 48.4523 40.7718 48.5949 41.3891C41.6486 41.0387 35.4911 37.6843 31.369 32.5878C30.6494 33.8318 30.238 35.2784 30.238 36.8222C30.238 39.744 31.7111 42.3224 33.9555 43.8333C32.5842 43.7895 31.297 43.4104 30.1687 42.7795V42.8849C30.1687 46.9673 33.0512 50.371 36.872 51.147C36.1714 51.3386 35.4327 51.4426 34.671 51.4426C34.132 51.4426 33.6079 51.3892 33.0974 51.2906C34.1605 54.6368 37.2481 57.0729 40.9045 57.1413C38.0451 59.3994 34.4416 60.7475 30.5258 60.7475C29.8496 60.7475 29.1843 60.7078 28.5312 60.6284C32.2298 63.0179 36.6221 64.4139 41.3417 64.4139C56.7129 64.4139 65.1188 51.578 65.1188 40.4475C65.1188 40.0821 65.112 39.718 65.0944 39.3581C66.7291 38.1674 68.1466 36.6839 69.2668 34.9951Z" fill="#8EFE1C"/>
</svg>
