<svg width="68" height="72" viewBox="0 0 68 72" fill="none" xmlns="http://www.w3.org/2000/svg">
<path d="M0.598633 0.538086V71.2166H47.1004L67.468 50.849V0.538086H0.598633Z" fill="#1D2225" stroke="#1D2225" stroke-width="0.815476"/>
<path d="M27.751 44.3485C33.7012 44.3485 37.3162 41.2274 37.3162 35.9958C37.3162 30.7642 33.7012 27.6432 27.751 27.6432C21.8233 27.6432 18.2083 30.7642 18.2083 35.9958C18.2083 41.2274 21.8233 44.3485 27.751 44.3485ZM27.7735 41.2499C24.1136 41.2499 21.8682 39.4536 21.8682 35.9958C21.8682 32.538 24.1136 30.7417 27.7735 30.7417C31.4109 30.7417 33.6563 32.538 33.6563 35.9958C33.6563 39.4536 31.4109 41.2499 27.7735 41.2499ZM43.7652 43.8545H47.3577V28.1371H44.6409C43.159 29.4394 41.0259 30.5621 39.0051 30.854V33.8852C40.7789 33.5933 42.4405 33.0769 43.7652 32.1114V43.8545Z" fill="black"/>
</svg>
