<svg width="70" height="65" viewBox="0 0 70 65" fill="none" xmlns="http://www.w3.org/2000/svg">
<path d="M56.1829 3.13648C55.332 1.55549 53.1891 0.594138 51.397 0.989053L10.3766 10.0309H59.8918L56.1829 3.13648Z" fill="#8EFE1C"/>
<path d="M68.4041 31.4517H50.3283C50.2008 31.4515 50.0746 31.4758 49.9568 31.5231C49.839 31.5705 49.7319 31.64 49.6417 31.7277C49.5514 31.8154 49.4798 31.9195 49.4308 32.0342C49.3819 32.1488 49.3566 32.2718 49.3564 32.3959V45.6064C49.3564 45.7307 49.3816 45.8538 49.4304 45.9686C49.4793 46.0834 49.5509 46.1877 49.6412 46.2756C49.7314 46.3634 49.8386 46.433 49.9565 46.4805C50.0744 46.5279 50.2007 46.5522 50.3283 46.5521H68.4041C68.5316 46.5522 68.6578 46.5279 68.7755 46.4804C68.8933 46.4329 69.0002 46.3633 69.0903 46.2754C69.1803 46.1875 69.2517 46.0832 69.3002 45.9684C69.3488 45.8536 69.3736 45.7306 69.3732 45.6064V32.3959C69.3736 32.2718 69.3488 32.1489 69.3002 32.0342C69.2516 31.9194 69.1803 31.8152 69.0902 31.7274C69.0001 31.6397 68.8932 31.5702 68.7754 31.5228C68.6577 31.4755 68.5315 31.4513 68.4041 31.4517ZM57.1052 42.4611C56.4028 42.4611 55.7161 42.2581 55.132 41.8779C54.548 41.4976 54.0928 40.9572 53.824 40.3248C53.5552 39.6925 53.4848 38.9967 53.6219 38.3254C53.7589 37.6541 54.0972 37.0375 54.5939 36.5535C55.0905 36.0696 55.7234 35.74 56.4123 35.6065C57.1013 35.4729 57.8154 35.5415 58.4643 35.8034C59.1133 36.0653 59.668 36.5089 60.0582 37.0779C60.4485 37.647 60.6568 38.3161 60.6568 39.0005C60.6568 39.9183 60.2826 40.7985 59.6165 41.4475C58.9505 42.0965 58.0471 42.4611 57.1052 42.4611Z" fill="#8EFE1C"/>
<path d="M4.09068 64.8095H61.6154C62.4617 64.8088 63.2732 64.4715 63.8718 63.8715C64.4704 63.2716 64.8072 62.4581 64.8083 61.6096V50.0697H50.4244C49.3224 50.0689 48.2657 49.6299 47.4862 48.8489C46.7067 48.0678 46.2681 47.0086 46.2667 45.9037V32.4469C46.267 31.8988 46.3751 31.3561 46.5846 30.8499C46.7942 30.3437 47.1012 29.8839 47.488 29.4966C47.8749 29.1094 48.3341 28.8024 48.8393 28.5931C49.3445 28.3838 49.8859 28.2763 50.4326 28.2769H64.8083V16.7465C64.8083 16.3256 64.7256 15.9089 64.5649 15.5201C64.4042 15.1312 64.1687 14.778 63.8718 14.4804C63.575 14.1829 63.2225 13.9469 62.8346 13.786C62.4468 13.625 62.0311 13.5423 61.6113 13.5425H4.08933C3.24202 13.5428 2.42954 13.8806 1.83053 14.4814C1.23152 15.0822 0.895019 15.897 0.89502 16.7465V61.6096C0.89502 62.4593 1.2317 63.2743 1.83101 63.8751C2.43031 64.476 3.24314 64.8136 4.09068 64.8136V64.8095Z" fill="#8EFE1C"/>
</svg>
