<svg width="355" height="172" viewBox="0 0 355 172" fill="none" xmlns="http://www.w3.org/2000/svg">
<path d="M1.26562 1.37256V161.428L141.29 161.499L280.579 161.472L289.612 170.485H329.582L338.588 161.498H354V31.3648L324.039 1.47188L1.26562 1.37256Z" stroke="#1D2225" stroke-width="2"/>
<path d="M77.4086 47.1577C74.7526 47.1577 72.9926 45.8777 72.9926 43.4137C72.9926 40.9497 74.7526 39.6697 77.4086 39.6697C79.0726 39.6697 80.2886 40.2297 81.0886 41.4777L83.4406 40.3097C82.4166 38.7577 80.2566 37.4617 77.4406 37.4617C73.1206 37.4617 70.3846 39.6857 70.3846 43.4137C70.3846 47.1417 73.1206 49.3657 77.3286 49.3657C80.2566 49.3657 82.4166 48.0857 83.4726 46.5017L81.1366 45.3337C80.3046 46.6137 79.0726 47.1577 77.4086 47.1577ZM91.6765 49.3657C96.0445 49.3657 98.7965 47.1577 98.7965 43.4137C98.7965 39.6697 96.0445 37.4617 91.6765 37.4617C87.3085 37.4617 84.5565 39.6697 84.5565 43.4137C84.5565 47.1577 87.3085 49.3657 91.6765 49.3657ZM91.6765 47.1577C88.8925 47.1577 87.1645 45.8137 87.1645 43.4137C87.1645 41.0137 88.9085 39.6697 91.6765 39.6697C94.4445 39.6697 96.1885 41.0137 96.1885 43.4137C96.1885 45.8137 94.4445 47.1577 91.6765 47.1577ZM111.377 37.8137V45.4937L103.825 37.8137H101.105V49.0137H103.585V40.9177L111.617 49.0137H113.857V37.8137H111.377ZM127.142 37.8137V45.4937L119.59 37.8137H116.87V49.0137H119.35V40.9177L127.382 49.0137H129.622V37.8137H127.142ZM135.18 46.8697V44.4057H142.556V42.2617H135.18V39.9577H144.012V37.8137H132.636V49.0137H144.172V46.8697H135.18ZM152.409 47.1577C149.753 47.1577 147.993 45.8777 147.993 43.4137C147.993 40.9497 149.753 39.6697 152.409 39.6697C154.073 39.6697 155.289 40.2297 156.089 41.4777L158.441 40.3097C157.417 38.7577 155.257 37.4617 152.441 37.4617C148.121 37.4617 145.385 39.6857 145.385 43.4137C145.385 47.1417 148.121 49.3657 152.329 49.3657C155.257 49.3657 157.417 48.0857 158.473 46.5017L156.137 45.3337C155.305 46.6137 154.073 47.1577 152.409 47.1577ZM171.474 37.8137H159.154V40.0217H164.018V49.0137H166.578V40.0217H171.474V37.8137ZM187.786 37.8137H175.466V40.0217H180.33V49.0137H182.89V40.0217H187.786V37.8137ZM204.95 37.8137L202.182 46.1017L199.206 37.8137H196.726L193.734 46.1017L190.982 37.8137H188.294L192.39 49.0137H194.966L197.942 40.5657L200.886 49.0137H203.494L207.59 37.8137H204.95ZM211.899 49.0137V37.8137H209.339V49.0137H211.899ZM225.989 37.8137H213.669V40.0217H218.533V49.0137H221.093V40.0217H225.989V37.8137ZM238.833 37.8137H226.513V40.0217H231.377V49.0137H233.937V40.0217H238.833V37.8137ZM243.133 46.8697V44.4057H250.509V42.2617H243.133V39.9577H251.965V37.8137H240.589V49.0137H252.125V46.8697H243.133ZM267.203 49.0137L263.747 45.0297C265.603 44.5977 266.867 43.4137 266.867 41.5097C266.867 39.0777 264.803 37.8137 262.067 37.8137H254.339V49.0137H256.883V45.2057H260.931L264.147 49.0137H267.203ZM256.867 43.0937V39.9577H261.923C263.267 39.9577 264.259 40.2777 264.259 41.5257C264.259 42.7737 263.267 43.0937 261.923 43.0937H256.867Z" fill="#1D2225"/>
<path d="M65.104 123.429L65.104 71.4287L290.523 71.4287L290.523 107.211L274.305 123.429L65.104 123.429Z" fill="#1D2225"/>
<path d="M119.502 100.785L120.275 103.429H122.24L118.563 91.9388H116.882L113.141 103.429H115.114L115.895 100.785H119.502ZM116.377 99.1594L117.718 94.614L119.036 99.1594H116.377ZM129.271 103.429H130.984V94.8902H129.09V100.935C129.016 101.093 128.927 101.238 128.822 101.369C128.716 101.495 128.595 101.606 128.459 101.7C128.296 101.806 128.106 101.89 127.89 101.953C127.675 102.011 127.43 102.04 127.157 102.04C126.893 102.04 126.665 102.006 126.47 101.937C126.275 101.869 126.115 101.753 125.989 101.59C125.862 101.432 125.77 101.222 125.712 100.959C125.655 100.69 125.626 100.359 125.626 99.9644V94.8902H123.74V99.9486C123.74 100.59 123.811 101.143 123.953 101.606C124.095 102.063 124.295 102.44 124.552 102.734C124.815 103.029 125.128 103.247 125.491 103.389C125.86 103.526 126.265 103.594 126.707 103.594C127.222 103.594 127.688 103.476 128.104 103.239C128.519 102.997 128.872 102.663 129.161 102.237L129.271 103.429ZM137.171 92.8068H135.277V94.8902H133.209V96.3027H135.277V100.501C135.277 101.048 135.348 101.516 135.49 101.906C135.637 102.295 135.84 102.613 136.098 102.861C136.355 103.113 136.663 103.3 137.021 103.421C137.384 103.537 137.781 103.594 138.212 103.594C138.449 103.594 138.686 103.581 138.923 103.555C139.165 103.534 139.396 103.502 139.617 103.46C139.838 103.418 140.043 103.368 140.233 103.31C140.427 103.247 140.593 103.174 140.73 103.089L140.525 101.787C140.43 101.808 140.312 101.835 140.17 101.866C140.033 101.893 139.885 101.916 139.728 101.937C139.565 101.964 139.396 101.985 139.223 102C139.049 102.016 138.881 102.024 138.718 102.024C138.491 102.024 138.283 101.998 138.094 101.945C137.905 101.893 137.742 101.803 137.605 101.677C137.468 101.556 137.36 101.39 137.281 101.18C137.208 100.964 137.171 100.698 137.171 100.383V96.3027H140.383V94.8902H137.171V92.8068ZM144.975 96.1054V91.3074H143.089V103.429H144.975V97.2497C145.065 97.1129 145.167 96.9893 145.283 96.8788C145.404 96.7683 145.533 96.6736 145.67 96.5947C145.833 96.4948 146.012 96.4185 146.206 96.3659C146.406 96.3133 146.617 96.2869 146.838 96.2869C147.122 96.2869 147.372 96.3264 147.588 96.4053C147.808 96.479 147.995 96.5947 148.148 96.7525C148.295 96.8999 148.406 97.0919 148.479 97.3286C148.558 97.5654 148.598 97.8416 148.598 98.1572V103.429H150.484V98.173C150.484 97.568 150.41 97.0498 150.263 96.6184C150.121 96.1817 149.918 95.824 149.655 95.5452C149.392 95.2663 149.074 95.0611 148.7 94.9296C148.332 94.7981 147.924 94.7323 147.477 94.7323C147.156 94.7323 146.851 94.7797 146.562 94.8744C146.278 94.9638 146.017 95.0953 145.78 95.269C145.628 95.3742 145.483 95.4978 145.346 95.6398C145.21 95.7819 145.086 95.9371 144.975 96.1054ZM152.449 99.0805V99.2462C152.449 99.8723 152.538 100.448 152.717 100.974C152.896 101.501 153.156 101.958 153.498 102.348C153.835 102.737 154.251 103.042 154.745 103.263C155.24 103.484 155.8 103.594 156.426 103.594C157.047 103.594 157.602 103.484 158.091 103.263C158.586 103.042 159.001 102.737 159.338 102.348C159.675 101.958 159.932 101.501 160.111 100.974C160.29 100.448 160.38 99.8723 160.38 99.2462V99.0805C160.38 98.4597 160.29 97.8863 160.111 97.3602C159.932 96.8288 159.675 96.3685 159.338 95.9792C158.996 95.5899 158.578 95.2847 158.083 95.0638C157.594 94.8428 157.036 94.7323 156.41 94.7323C155.784 94.7323 155.226 94.8428 154.737 95.0638C154.248 95.2847 153.835 95.5899 153.498 95.9792C153.156 96.3685 152.896 96.8288 152.717 97.3602C152.538 97.8863 152.449 98.4597 152.449 99.0805ZM154.335 99.2462V99.0805C154.335 98.707 154.374 98.3492 154.453 98.0073C154.537 97.6653 154.666 97.3654 154.84 97.1077C155.008 96.8499 155.221 96.6447 155.479 96.4921C155.742 96.3396 156.052 96.2633 156.41 96.2633C156.773 96.2633 157.084 96.3396 157.341 96.4921C157.604 96.6447 157.823 96.8499 157.996 97.1077C158.159 97.3654 158.283 97.6653 158.367 98.0073C158.451 98.3492 158.493 98.707 158.493 99.0805V99.2462C158.493 99.6303 158.451 99.9933 158.367 100.335C158.288 100.677 158.165 100.977 157.996 101.235C157.828 101.493 157.612 101.698 157.349 101.85C157.086 101.998 156.778 102.071 156.426 102.071C156.063 102.071 155.75 101.998 155.487 101.85C155.224 101.698 155.008 101.493 154.84 101.235C154.666 100.977 154.537 100.677 154.453 100.335C154.374 99.9933 154.335 99.6303 154.335 99.2462ZM168.405 94.7323C167.816 94.7323 167.277 94.8691 166.787 95.1427C166.303 95.4163 165.888 95.7924 165.541 96.2712L165.533 96.0739L165.454 94.8902H163.686V103.429H165.572V98.1572C165.672 97.9047 165.796 97.6811 165.943 97.4864C166.09 97.2918 166.269 97.1313 166.48 97.0051C166.674 96.8735 166.898 96.7762 167.15 96.7131C167.403 96.65 167.687 96.6184 168.003 96.6184C168.282 96.6184 168.56 96.6342 168.839 96.6657C169.123 96.6973 169.41 96.7447 169.699 96.8078L169.968 94.9454C169.805 94.8875 169.578 94.8376 169.289 94.7955C169.005 94.7534 168.71 94.7323 168.405 94.7323ZM172.643 94.8902V96.4606H175.271V101.866H172.643V103.429H179.682V101.866H177.173V94.8902H172.643ZM175.097 92.6806C175.097 92.8805 175.144 93.0567 175.239 93.2093C175.339 93.3566 175.484 93.4592 175.673 93.517C175.857 93.5749 176.026 93.5881 176.178 93.5565C176.331 93.5249 176.462 93.4592 176.573 93.3592C176.794 93.3013 176.962 93.1882 177.078 93.0199C177.194 92.8463 177.233 92.6437 177.196 92.4122C177.17 92.186 177.067 92.0019 176.888 91.8598C176.715 91.7125 176.486 91.6389 176.202 91.6389C176.034 91.6389 175.881 91.6652 175.744 91.7178C175.613 91.7651 175.5 91.8335 175.405 91.923C175.305 92.0177 175.229 92.1308 175.176 92.2623C175.123 92.3886 175.097 92.528 175.097 92.6806ZM184.283 101.906L189.246 96.0897V94.8902H181.86V96.429H186.674L181.765 102.19V103.429H189.483V101.906H184.283ZM195.607 103.587C196.438 103.587 197.146 103.423 197.73 103.097C198.319 102.771 198.756 102.403 199.04 101.992L198.03 101.014C197.767 101.351 197.433 101.611 197.027 101.795C196.622 101.974 196.186 102.063 195.717 102.063C195.375 102.063 195.06 102.006 194.77 101.89C194.486 101.774 194.239 101.611 194.029 101.401C193.818 101.201 193.653 100.974 193.532 100.722C193.411 100.469 193.321 100.156 193.263 99.7829V99.7434H199.182V98.9306C199.182 98.3203 199.1 97.7574 198.937 97.2418C198.774 96.7262 198.532 96.2817 198.211 95.9082C197.89 95.5399 197.493 95.2532 197.02 95.048C196.546 94.8376 196.002 94.7323 195.386 94.7323C194.834 94.7323 194.313 94.8376 193.824 95.048C193.34 95.2532 192.913 95.5478 192.545 95.9318C192.177 96.3159 191.887 96.7788 191.677 97.3207C191.467 97.8626 191.361 98.4676 191.361 99.1358V99.4593C191.361 100.043 191.461 100.588 191.661 101.093C191.866 101.593 192.156 102.027 192.529 102.395C192.903 102.768 193.35 103.06 193.871 103.271C194.397 103.481 194.976 103.587 195.607 103.587ZM195.378 96.2633C195.694 96.2633 195.97 96.3185 196.207 96.429C196.449 96.5342 196.649 96.6763 196.806 96.8551C196.97 97.0393 197.096 97.255 197.185 97.5022C197.275 97.7442 197.319 97.9889 197.319 98.2361V98.3624H193.303C193.361 98.0362 193.45 97.7442 193.571 97.4864C193.692 97.2287 193.842 97.0077 194.021 96.8236C194.2 96.6447 194.402 96.5079 194.628 96.4132C194.86 96.3133 195.11 96.2633 195.378 96.2633ZM213.236 91.9388H210.885V103.429H212.66V99.5303L212.558 94.5903L214.16 99.8854H215.146L216.914 94.4009L216.803 99.5303V103.429H218.587V91.9388H216.227L214.657 96.8551L213.236 91.9388ZM227.607 98.536V96.9735H222.746V93.5092H228.301V91.9388H220.836V103.429H222.746V98.536H227.607ZM238.158 99.8933H236.256C236.224 100.241 236.156 100.548 236.051 100.817C235.945 101.085 235.806 101.309 235.632 101.487C235.454 101.672 235.238 101.811 234.985 101.906C234.733 102 234.443 102.048 234.117 102.048C233.844 102.048 233.599 102.011 233.383 101.937C233.173 101.858 232.986 101.745 232.823 101.598C232.665 101.461 232.528 101.298 232.413 101.109C232.302 100.919 232.21 100.709 232.137 100.477C232.042 100.198 231.971 99.8907 231.923 99.554C231.881 99.2173 231.86 98.8569 231.86 98.4729V96.8867C231.86 96.5763 231.876 96.2738 231.908 95.9792C231.944 95.6793 231.997 95.3978 232.065 95.1348C232.155 94.8349 232.268 94.564 232.405 94.322C232.547 94.0747 232.723 93.8748 232.934 93.7222C233.086 93.596 233.26 93.4986 233.454 93.4302C233.654 93.3618 233.878 93.3277 234.125 93.3277C234.478 93.3277 234.78 93.3803 235.033 93.4855C235.285 93.5854 235.498 93.7327 235.672 93.9274C235.84 94.1221 235.972 94.3588 236.066 94.6376C236.166 94.9112 236.232 95.219 236.264 95.5609H238.158C238.1 94.9875 237.971 94.4667 237.771 93.9984C237.576 93.5302 237.308 93.1304 236.966 92.7989C236.629 92.4727 236.222 92.2202 235.743 92.0413C235.269 91.8625 234.73 91.773 234.125 91.773C233.678 91.773 233.265 91.8335 232.886 91.9545C232.513 92.0755 232.171 92.2439 231.86 92.4596C231.534 92.6963 231.245 92.9831 230.992 93.3198C230.745 93.6512 230.542 94.0221 230.385 94.4325C230.237 94.8007 230.127 95.1927 230.053 95.6083C229.98 96.0239 229.943 96.4553 229.943 96.9025V98.4729C229.943 98.9411 229.98 99.3909 230.053 99.8223C230.132 100.254 230.248 100.654 230.4 101.022C230.553 101.395 230.74 101.74 230.961 102.056C231.187 102.366 231.45 102.632 231.75 102.853C232.06 103.089 232.413 103.274 232.807 103.405C233.207 103.531 233.644 103.594 234.117 103.594C234.696 103.594 235.222 103.508 235.696 103.334C236.174 103.155 236.587 102.903 236.935 102.576C237.276 102.256 237.553 101.869 237.763 101.416C237.974 100.959 238.105 100.451 238.158 99.8933Z" fill="black"/>
</svg>
