<svg width="70" height="83" viewBox="0 0 70 83" fill="none" xmlns="http://www.w3.org/2000/svg">
<path fill-rule="evenodd" clip-rule="evenodd" d="M35.1396 0.138672C38.7122 4.50526 42.6513 8.55997 46.9141 12.2588C41.0902 31.2076 41.0902 51.4632 46.9141 70.4121C42.6511 74.1116 38.7111 78.1662 35.1369 82.5322C31.5643 78.1656 27.6252 74.1109 23.3624 70.4121C26.2663 60.9922 27.7386 51.191 27.7303 41.3354C27.7389 31.4799 26.2665 21.6787 23.3624 12.2588C27.6254 8.5593 31.5654 4.50465 35.1396 0.138672V0.138672ZM15.2072 64.0596C10.6787 60.8894 5.89111 58.1048 0.89502 55.7351C2.31948 51.0675 3.04113 46.2147 3.03634 41.3354C3.04113 36.4562 2.31948 31.6034 0.89502 26.9358C5.89049 24.566 10.678 21.7823 15.2072 18.614C16.9684 26.06 17.8569 33.6849 17.8549 41.3354C17.8568 48.9869 16.9683 56.6127 15.2072 64.0596ZM52.4216 41.3354C52.4169 48.9857 53.3026 56.6106 55.0611 64.0568C59.5892 60.887 64.3769 58.1032 69.3732 55.7351C66.5144 46.3473 66.5144 36.3236 69.3732 26.9358C64.3774 24.5666 59.5899 21.7829 55.0611 18.614C53.3026 26.0603 52.4169 33.6852 52.4216 41.3354Z" fill="#8EFE1C"/>
</svg>
