<svg width="76" height="62" viewBox="0 0 76 62" fill="none" xmlns="http://www.w3.org/2000/svg">
<path fill-rule="evenodd" clip-rule="evenodd" d="M75.3732 7.53056C72.6139 8.76818 69.6445 9.60167 66.5299 9.97801C69.7095 8.05338 72.1511 5.00731 73.2994 1.3778C70.3274 3.16098 67.0278 4.45165 63.5229 5.15129C60.7136 2.13048 56.7085 0.241211 52.283 0.241211C43.7799 0.241211 36.8854 7.2022 36.8854 15.7873C36.8854 17.0047 37.023 18.1918 37.2857 19.3309C24.4873 18.6843 13.1423 12.4937 5.54729 3.08774C4.22142 5.38366 3.46342 8.05341 3.46342 10.9025C3.46342 16.295 6.1777 21.0535 10.3129 23.8419C7.78626 23.7611 5.4147 23.0615 3.33583 21.8971V22.0916C3.33583 29.6259 8.64682 35.9075 15.6865 37.3396C14.3956 37.6932 13.0347 37.8852 11.6313 37.8852C10.6381 37.8852 9.6725 37.7866 8.73188 37.6048C10.6907 43.7803 16.3794 48.2761 23.1164 48.4024C17.8479 52.5699 11.2085 55.0578 3.99376 55.0578C2.74794 55.0578 1.52214 54.9845 0.318848 54.838C7.13333 59.248 15.2262 61.8243 23.9219 61.8243C52.243 61.8243 67.7307 38.1352 67.7307 17.5932C67.7307 16.9188 67.7182 16.247 67.6857 15.5827C70.6977 13.3853 73.3094 10.6473 75.3732 7.53056Z" fill="#1D2225"/>
</svg>
