<svg width="69" height="72" viewBox="0 0 69 72" fill="none" xmlns="http://www.w3.org/2000/svg">
<path d="M1.02246 0.821289V71.4998H47.5242L67.8918 51.1322V0.821289H1.02246Z" fill="#8EFE1C" stroke="#8EFE1C" stroke-width="0.815476"/>
<path d="M24.4582 44.6317C30.4084 44.6317 34.0234 41.5106 34.0234 36.279C34.0234 31.0474 30.4084 27.9264 24.4582 27.9264C18.5305 27.9264 14.9155 31.0474 14.9155 36.279C14.9155 41.5106 18.5305 44.6317 24.4582 44.6317ZM24.4807 41.5331C20.8208 41.5331 18.5754 39.7368 18.5754 36.279C18.5754 32.8212 20.8208 31.0249 24.4807 31.0249C28.1181 31.0249 30.3635 32.8212 30.3635 36.279C30.3635 39.7368 28.1181 41.5331 24.4807 41.5331ZM36.341 31.6312L38.474 33.5397C40.0907 31.7883 42.0217 30.8004 44.4017 30.8004C46.4674 30.8004 48.5107 31.4964 48.5107 32.8436C48.5107 34.1459 46.5348 34.7297 43.9527 35.6054C39.3048 37.1098 36.4532 39.6246 36.0042 42.5435V44.1377H52.4849V41.2412H40.405C40.9215 40.141 43.1219 39.0857 46.0408 38.1202C49.6109 36.9751 52.1481 35.4707 52.1481 32.7763C52.1481 29.4981 48.2637 27.9488 44.514 27.9488C40.8541 27.9488 37.8453 29.543 36.341 31.6312Z" fill="black"/>
</svg>
