<svg width="180" height="94" viewBox="0 0 180 94" fill="none" xmlns="http://www.w3.org/2000/svg">
<rect x="1.33398" y="1.59033" width="90.8813" height="90.8813" stroke="#1D2225" stroke-width="2"/>
<path d="M93.2275 1.71143V91.7288H152.453L178.394 65.7883V1.71143H93.2275Z" fill="#1D2225" stroke="#1D2225" stroke-width="2.17113"/>
<path d="M120.315 55.4725C128.265 55.4725 133.095 51.3025 133.095 44.3125C133.095 37.3225 128.265 33.1525 120.315 33.1525C112.395 33.1525 107.565 37.3225 107.565 44.3125C107.565 51.3025 112.395 55.4725 120.315 55.4725ZM120.345 51.3325C115.455 51.3325 112.455 48.9325 112.455 44.3125C112.455 39.6925 115.455 37.2925 120.345 37.2925C125.205 37.2925 128.205 39.6925 128.205 44.3125C128.205 48.9325 125.205 51.3325 120.345 51.3325ZM139.221 48.2725L135.411 50.4625C137.751 53.4625 141.801 55.4425 147.021 55.4425C153.171 55.4425 158.061 53.1325 158.061 48.9625C158.061 45.7225 155.031 44.2525 152.211 43.8325C155.001 43.5325 157.251 41.6125 157.251 39.0325C157.251 35.1025 152.271 33.1825 146.781 33.1825C141.831 33.1825 138.051 35.1025 135.861 37.9225L139.341 40.2325C140.691 38.3725 143.181 37.0225 146.781 37.0225C149.421 37.0225 152.361 37.6225 152.361 39.5725C152.361 41.4925 149.511 42.1525 146.451 42.1525H143.331V45.6925H146.451C150.111 45.6925 152.991 46.1725 152.991 48.5125C152.991 50.8225 150.021 51.6025 146.901 51.6025C143.361 51.6025 140.691 50.4025 139.221 48.2725Z" fill="black"/>
<path fill-rule="evenodd" clip-rule="evenodd" d="M69.6008 35.5854C68.1031 36.256 66.4915 36.7077 64.8011 36.9116C66.5268 35.8687 67.852 34.2182 68.4752 32.2516C66.8621 33.2178 65.0713 33.9171 63.169 34.2962C61.6443 32.6594 59.4705 31.6357 57.0686 31.6357C52.4536 31.6357 48.7116 35.4075 48.7116 40.0593C48.7116 40.7189 48.7863 41.3622 48.9289 41.9794C41.9826 41.629 35.8251 38.2747 31.703 33.1781C30.9833 34.4221 30.5719 35.8687 30.5719 37.4125C30.5719 40.3344 32.0451 42.9128 34.2895 44.4237C32.9181 44.3799 31.631 44.0008 30.5027 43.3699V43.4752C30.5027 47.5577 33.3852 50.9613 37.206 51.7373C36.5053 51.9289 35.7667 52.0329 35.005 52.0329C34.466 52.0329 33.9419 51.9795 33.4314 51.881C34.4945 55.2271 37.5821 57.6632 41.2385 57.7316C38.3791 59.9898 34.7756 61.3378 30.8598 61.3378C30.1836 61.3378 29.5183 61.2981 28.8652 61.2187C32.5638 63.6082 36.9561 65.0042 41.6757 65.0042C57.0469 65.0042 65.4528 52.1684 65.4528 41.0378C65.4528 40.6724 65.446 40.3084 65.4284 39.9484C67.0631 38.7578 68.4806 37.2742 69.6008 35.5854Z" fill="#1D2225"/>
</svg>
