<svg width="180" height="93" viewBox="0 0 180 93" fill="none" xmlns="http://www.w3.org/2000/svg">
<rect x="1.33398" y="1.05225" width="90.8813" height="90.8813" stroke="#1D2225" stroke-width="2"/>
<path d="M93.2275 1.17334V91.1907H152.453L178.394 65.2502V1.17334H93.2275Z" fill="#1D2225" stroke="#1D2225" stroke-width="2.17113"/>
<path d="M120.447 54.9344C128.397 54.9344 133.227 50.7644 133.227 43.7744C133.227 36.7844 128.397 32.6144 120.447 32.6144C112.527 32.6144 107.697 36.7844 107.697 43.7744C107.697 50.7644 112.527 54.9344 120.447 54.9344ZM120.477 50.7944C115.587 50.7944 112.587 48.3944 112.587 43.7744C112.587 39.1544 115.587 36.7544 120.477 36.7544C125.337 36.7544 128.337 39.1544 128.337 43.7744C128.337 48.3944 125.337 50.7944 120.477 50.7944ZM136.323 37.5644L139.173 40.1144C141.333 37.7744 143.913 36.4544 147.093 36.4544C149.853 36.4544 152.583 37.3844 152.583 39.1844C152.583 40.9244 149.943 41.7044 146.493 42.8744C140.283 44.8844 136.473 48.2444 135.873 52.1444V54.2744H157.893V50.4044H141.753C142.443 48.9344 145.383 47.5244 149.283 46.2344C154.053 44.7044 157.443 42.6944 157.443 39.0944C157.443 34.7144 152.253 32.6444 147.243 32.6444C142.353 32.6444 138.333 34.7744 136.323 37.5644Z" fill="black"/>
<path d="M58.6046 29.789C58.1264 28.9004 56.922 28.3601 55.9148 28.5821L32.8604 33.6638H60.6891L58.6046 29.789Z" fill="#1D2225"/>
<path d="M65.4733 45.7031H55.3143C55.2426 45.703 55.1717 45.7167 55.1055 45.7433C55.0393 45.7699 54.9791 45.809 54.9284 45.8583C54.8776 45.9075 54.8374 45.9661 54.8099 46.0305C54.7824 46.095 54.7682 46.164 54.7681 46.2338V53.6585C54.7681 53.7283 54.7822 53.7975 54.8097 53.862C54.8371 53.9265 54.8774 53.9852 54.9281 54.0345C54.9788 54.0839 55.039 54.123 55.1053 54.1497C55.1716 54.1763 55.2426 54.19 55.3143 54.1899H65.4733C65.5449 54.19 65.6159 54.1763 65.6821 54.1496C65.7482 54.123 65.8084 54.0838 65.859 54.0344C65.9096 53.985 65.9497 53.9264 65.977 53.8619C66.0042 53.7974 66.0182 53.7282 66.018 53.6585V46.2338C66.0182 46.1641 66.0042 46.095 65.9769 46.0305C65.9496 45.966 65.9095 45.9074 65.8589 45.8581C65.8083 45.8088 65.7482 45.7697 65.682 45.7431C65.6158 45.7165 65.5449 45.7029 65.4733 45.7031ZM59.123 51.8907C58.7283 51.8907 58.3423 51.7766 58.0141 51.5629C57.6858 51.3492 57.43 51.0454 57.2789 50.6901C57.1278 50.3347 57.0883 49.9436 57.1653 49.5663C57.2424 49.1891 57.4325 48.8425 57.7116 48.5705C57.9908 48.2985 58.3464 48.1133 58.7336 48.0382C59.1208 47.9632 59.5222 48.0017 59.8869 48.1489C60.2516 48.2961 60.5634 48.5454 60.7827 48.8652C61.002 49.1851 61.1191 49.5611 61.1191 49.9458C61.1191 50.4616 60.9088 50.9563 60.5345 51.321C60.1601 51.6858 59.6524 51.8907 59.123 51.8907Z" fill="#1D2225"/>
<path d="M29.3278 64.4505H61.658C62.1337 64.4501 62.5898 64.2605 62.9262 63.9234C63.2627 63.5862 63.4519 63.129 63.4525 62.6521V56.1664H55.3685C54.7491 56.166 54.1552 55.9192 53.7171 55.4802C53.279 55.0413 53.0325 54.446 53.0317 53.825V46.2619C53.0319 45.9539 53.0926 45.6489 53.2104 45.3644C53.3282 45.0799 53.5007 44.8215 53.7181 44.6038C53.9356 44.3862 54.1936 44.2136 54.4776 44.096C54.7615 43.9784 55.0658 43.918 55.373 43.9183H63.4525V37.4379C63.4525 37.2014 63.4061 36.9672 63.3158 36.7487C63.2255 36.5301 63.0931 36.3316 62.9262 36.1644C62.7594 35.9971 62.5613 35.8645 62.3433 35.7741C62.1253 35.6836 61.8917 35.6371 61.6557 35.6372H29.327C28.8508 35.6374 28.3942 35.8272 28.0575 36.1649C27.7209 36.5026 27.5317 36.9605 27.5317 37.4379V62.6521C27.5317 63.1297 27.721 63.5877 28.0578 63.9254C28.3946 64.2631 28.8514 64.4528 29.3278 64.4528V64.4505Z" fill="#1D2225"/>
</svg>
