<svg width="180" height="94" viewBox="0 0 180 94" fill="none" xmlns="http://www.w3.org/2000/svg">
<path fill-rule="evenodd" clip-rule="evenodd" d="M46.7779 19.6616C49.1274 22.5545 51.7179 25.2408 54.5213 27.6913C50.6913 40.2452 50.6913 53.6647 54.5213 66.2186C51.7177 68.6695 49.1267 71.3557 46.7761 74.2482C44.4267 71.3553 41.8362 68.669 39.0327 66.2186C40.9425 59.9777 41.9107 53.4844 41.9053 46.9549C41.9109 40.4255 40.9426 33.9321 39.0327 27.6913C41.8363 25.2404 44.4274 22.5541 46.7779 19.6616V19.6616ZM33.6696 62.0099C30.6915 59.9096 27.543 58.0648 24.2573 56.4949C25.1941 53.4025 25.6687 50.1875 25.6655 46.9549C25.6687 43.7224 25.1941 40.5073 24.2573 37.415C27.5425 35.845 30.691 34.0008 33.6696 31.9018C34.8278 36.8348 35.4122 41.8864 35.4108 46.9549C35.412 52.0241 34.8277 57.0763 33.6696 62.0099ZM58.1432 46.9549C58.1401 52.0233 58.7226 57.0749 59.879 62.0081C62.857 59.908 66.0055 58.0638 69.2913 56.4949C67.4112 50.2753 67.4112 43.6346 69.2913 37.415C66.0059 35.8454 62.8574 34.0012 59.879 31.9018C58.7226 36.835 58.1401 41.8866 58.1432 46.9549Z" fill="#8EFE1C"/>
<rect x="1.33398" y="1.51416" width="90.8813" height="90.8813" stroke="#8EFE1C" stroke-width="2"/>
<path d="M93.2275 1.63525V91.6526H152.453L178.394 65.7121V1.63525H93.2275Z" fill="#8EFE1C" stroke="#8EFE1C" stroke-width="2.17113"/>
<path d="M125.412 55.3963C133.362 55.3963 138.192 51.2263 138.192 44.2363C138.192 37.2463 133.362 33.0763 125.412 33.0763C117.492 33.0763 112.662 37.2463 112.662 44.2363C112.662 51.2263 117.492 55.3963 125.412 55.3963ZM125.442 51.2563C120.552 51.2563 117.552 48.8563 117.552 44.2363C117.552 39.6163 120.552 37.2163 125.442 37.2163C130.302 37.2163 133.302 39.6163 133.302 44.2363C133.302 48.8563 130.302 51.2563 125.442 51.2563ZM146.809 54.7363H151.609V33.7363H147.979C145.999 35.4763 143.149 36.9763 140.449 37.3663V41.4163C142.819 41.0263 145.039 40.3363 146.809 39.0463V54.7363Z" fill="black"/>
</svg>
