<svg width="182" height="39" viewBox="0 0 182 39" fill="none" xmlns="http://www.w3.org/2000/svg">
<path d="M1.31348 1.27734V38.0533H180.533V21.7623L158.558 1.27734H1.31348Z" fill="black" stroke="white" stroke-width="1.02156"/>
<path d="M34.2095 23.7071C34.2095 23.8587 34.1784 23.9986 34.1162 24.1269C34.054 24.2513 33.9646 24.3582 33.848 24.4476C33.7314 24.537 33.5875 24.607 33.4165 24.6575C33.2493 24.7081 33.0569 24.7333 32.8392 24.7333C32.5943 24.7333 32.3689 24.7061 32.1628 24.6517C31.9607 24.5973 31.7877 24.5118 31.6439 24.3951C31.4962 24.2785 31.3815 24.1289 31.2999 23.9462C31.2182 23.7635 31.1735 23.5438 31.1657 23.2873H29.5564C29.5564 23.7265 29.64 24.1094 29.8071 24.436C29.9782 24.7625 30.2095 25.0463 30.501 25.2873C30.8081 25.5322 31.1677 25.7188 31.5797 25.847C31.9957 25.9714 32.4155 26.0336 32.8392 26.0336C33.2707 26.0336 33.6692 25.9831 34.0346 25.882C34.4 25.7771 34.7149 25.6235 34.9792 25.4214C35.2435 25.2231 35.4496 24.9802 35.5973 24.6925C35.7489 24.401 35.8247 24.0686 35.8247 23.6954C35.8247 23.2639 35.7256 22.883 35.5273 22.5526C35.3291 22.2221 35.0628 21.9325 34.7285 21.6837C34.5069 21.5321 34.2639 21.398 33.9996 21.2814C33.7353 21.1648 33.4573 21.0657 33.1658 20.984C32.8937 20.9102 32.6488 20.8305 32.4311 20.745C32.2173 20.6594 32.0346 20.5642 31.883 20.4592C31.7313 20.3582 31.6147 20.2435 31.5331 20.1152C31.4554 19.9869 31.4165 19.8431 31.4165 19.6837C31.4165 19.5321 31.4456 19.3922 31.5039 19.2639C31.5661 19.1317 31.6555 19.017 31.7722 18.9199C31.8888 18.8266 32.0307 18.7547 32.1978 18.7041C32.3689 18.6497 32.5632 18.6225 32.7809 18.6225C33.018 18.6225 33.2241 18.6555 33.399 18.7216C33.5778 18.7838 33.7275 18.8713 33.848 18.984C33.9646 19.1006 34.0521 19.2386 34.1104 19.398C34.1726 19.5574 34.2076 19.7323 34.2153 19.9228H35.813C35.813 19.5418 35.7392 19.192 35.5914 18.8732C35.4437 18.5545 35.2377 18.2785 34.9734 18.0452C34.709 17.8159 34.3922 17.6371 34.0229 17.5088C33.6575 17.3805 33.2532 17.3164 32.8101 17.3164C32.3825 17.3164 31.986 17.3727 31.6206 17.4854C31.2552 17.5943 30.9383 17.7517 30.6701 17.9578C30.4019 18.1638 30.192 18.4126 30.0404 18.7041C29.8888 18.9957 29.813 19.3203 29.813 19.6779C29.813 19.9889 29.8693 20.2765 29.9821 20.5409C30.0987 20.8052 30.2697 21.0462 30.4952 21.2639C30.7206 21.4816 31.0103 21.6818 31.364 21.8645C31.7216 22.0472 32.1356 22.2027 32.606 22.331C32.9092 22.4126 33.1619 22.502 33.364 22.5992C33.57 22.6925 33.7372 22.7955 33.8655 22.9082C33.9899 23.0249 34.0773 23.1493 34.1279 23.2814C34.1823 23.4136 34.2095 23.5555 34.2095 23.7071ZM37.3349 17.433V18.7566H38.9501V24.6051H37.3349V25.9229H42.2446V24.6051H40.5886V18.7566H42.2446V17.433H37.3349ZM49.9823 24.9316L49.9764 21.5846H46.9385V22.8091H48.3438L48.3379 24.3485C48.2952 24.399 48.231 24.4476 48.1455 24.4943C48.0639 24.537 47.9686 24.5759 47.8598 24.6109C47.7509 24.6459 47.6343 24.6731 47.5099 24.6925C47.3855 24.712 47.2592 24.7217 47.1309 24.7217C46.921 24.7178 46.7325 24.6847 46.5653 24.6225C46.4021 24.5565 46.2582 24.4612 46.1338 24.3368C46.06 24.263 45.9919 24.1794 45.9297 24.0861C45.8714 23.9889 45.819 23.884 45.7723 23.7712C45.6984 23.5769 45.6401 23.3533 45.5974 23.1007C45.5585 22.848 45.5391 22.5681 45.5391 22.261V21.0948C45.5391 20.8499 45.5527 20.6225 45.5799 20.4126C45.611 20.2027 45.6537 20.0122 45.7082 19.8412C45.7781 19.6196 45.8656 19.4272 45.9706 19.2639C46.0794 19.1006 46.1999 18.9685 46.3321 18.8674C46.4331 18.7935 46.542 18.7372 46.6586 18.6983C46.7752 18.6594 46.8957 18.64 47.0201 18.64C47.2495 18.64 47.4458 18.6711 47.6091 18.7333C47.7762 18.7916 47.9142 18.881 48.0231 19.0015C48.1202 19.1103 48.196 19.2445 48.2505 19.4038C48.3088 19.5632 48.3515 19.7459 48.3787 19.9519H49.9764C49.9337 19.5438 49.8423 19.1764 49.7024 18.8499C49.5663 18.5234 49.3758 18.2454 49.1309 18.0161C48.886 17.7906 48.5848 17.6176 48.2271 17.4971C47.8734 17.3766 47.4575 17.3164 46.9793 17.3164C46.6683 17.3164 46.3729 17.3591 46.093 17.4446C45.8131 17.5302 45.5546 17.6565 45.3175 17.8236C45.1154 17.9714 44.9288 18.1463 44.7577 18.3484C44.5906 18.5506 44.4428 18.778 44.3146 19.0307C44.1785 19.3144 44.0736 19.6312 43.9997 19.9811C43.9258 20.3271 43.8889 20.7022 43.8889 21.1065V22.261C43.8889 22.6847 43.9258 23.0773 43.9997 23.4389C44.0774 23.8004 44.1902 24.125 44.3379 24.4126C44.4662 24.6731 44.6217 24.9044 44.8044 25.1065C44.991 25.3087 45.197 25.4797 45.4224 25.6196C45.6518 25.7557 45.9025 25.8587 46.1746 25.9287C46.4506 26.0025 46.7441 26.0395 47.0551 26.0395C47.4128 26.0395 47.7471 26.0064 48.058 25.9403C48.369 25.8743 48.6509 25.7868 48.9035 25.678C49.1523 25.573 49.3681 25.4544 49.5508 25.3223C49.7335 25.1901 49.8773 25.0599 49.9823 24.9316ZM56.9153 25.9229V17.433H55.2709L55.2651 22.8849L52.9211 17.433H51.2709V25.9229H52.9211V20.4476L55.2826 25.9229H56.9153ZM71.3178 17.433H69.6909L69.6851 23.0598C69.6812 23.3358 69.652 23.5788 69.5976 23.7887C69.5432 23.9986 69.4616 24.1736 69.3527 24.3135C69.2517 24.4496 69.1234 24.5526 68.9679 24.6225C68.8163 24.6886 68.6413 24.7217 68.4431 24.7217C68.2604 24.7217 68.0991 24.6906 67.9591 24.6284C67.8192 24.5623 67.7006 24.4651 67.6034 24.3368C67.4985 24.1969 67.4188 24.02 67.3644 23.8062C67.3138 23.5924 67.2866 23.3436 67.2827 23.0598L67.2769 17.433H65.6384L65.6326 23.0598C65.6326 23.5341 65.6987 23.9578 65.8308 24.331C65.9669 24.7003 66.1574 25.0113 66.4023 25.264C66.6472 25.5166 66.9406 25.709 67.2827 25.8412C67.6287 25.9734 68.0155 26.0395 68.4431 26.0395C68.8979 26.0395 69.3022 25.9734 69.6559 25.8412C70.0136 25.709 70.3168 25.5147 70.5656 25.2581C70.8105 25.0054 70.9971 24.6945 71.1253 24.3252C71.2575 23.9559 71.3236 23.5341 71.3236 23.0598L71.3178 17.433ZM74.5773 22.8091H75.8426C76.3052 22.8091 76.7231 22.743 77.0962 22.6109C77.4694 22.4787 77.7882 22.294 78.0525 22.0569C78.313 21.8237 78.5132 21.5457 78.6531 21.2231C78.7969 20.9004 78.8688 20.5486 78.8688 20.1677C78.8688 19.7595 78.7969 19.3883 78.6531 19.054C78.5132 18.7197 78.313 18.432 78.0525 18.191C77.7882 17.9539 77.4694 17.7692 77.0962 17.6371C76.7231 17.501 76.3052 17.433 75.8426 17.433H72.9388V25.9229H74.5773V22.8091ZM74.5773 21.4797V18.7624H75.8426C76.0758 18.7624 76.278 18.7994 76.449 18.8732C76.62 18.9471 76.7639 19.0481 76.8805 19.1764C76.9932 19.3047 77.0768 19.4544 77.1312 19.6254C77.1895 19.7965 77.2187 19.9811 77.2187 20.1794C77.2187 20.3504 77.1895 20.5156 77.1312 20.675C77.0768 20.8305 76.9932 20.9685 76.8805 21.089C76.7639 21.2095 76.62 21.3047 76.449 21.3747C76.278 21.4447 76.0758 21.4797 75.8426 21.4797H74.5773ZM89.2071 26.6517L92.385 17.433H90.8748L87.6969 26.6517H89.2071ZM103.277 24.5992V17.433H101.633V25.9229H107.254V24.5992H103.277ZM114.618 22.3018V21.0657C114.618 20.6808 114.582 20.3174 114.508 19.9753C114.438 19.6332 114.335 19.3183 114.199 19.0307C114.074 18.778 113.925 18.5467 113.75 18.3368C113.579 18.1269 113.378 17.948 113.149 17.8003C112.92 17.6448 112.661 17.5263 112.374 17.4446C112.09 17.3591 111.785 17.3164 111.458 17.3164C111.135 17.3164 110.836 17.3572 110.56 17.4388C110.284 17.5204 110.035 17.6371 109.814 17.7887C109.588 17.9442 109.388 18.1307 109.213 18.3484C109.042 18.5661 108.896 18.8091 108.776 19.0773C108.651 19.3611 108.556 19.6701 108.49 20.0044C108.428 20.3387 108.397 20.6925 108.397 21.0657V22.3018C108.397 22.6517 108.424 22.984 108.478 23.2989C108.537 23.6138 108.62 23.9053 108.729 24.1736C108.85 24.4651 108.999 24.7275 109.178 24.9607C109.357 25.1901 109.559 25.3864 109.785 25.5497C110.014 25.7052 110.269 25.8257 110.548 25.9112C110.828 25.9967 111.134 26.0395 111.464 26.0395C111.775 26.0395 112.065 26.0006 112.333 25.9229C112.605 25.849 112.854 25.744 113.079 25.608C113.328 25.4525 113.549 25.2581 113.744 25.0249C113.938 24.7916 114.101 24.5351 114.234 24.2552C114.358 23.9753 114.453 23.6721 114.519 23.3456C114.585 23.0151 114.618 22.6672 114.618 22.3018ZM112.957 21.054V22.3018C112.957 22.5117 112.945 22.7139 112.922 22.9082C112.902 23.1026 112.871 23.2814 112.828 23.4447C112.774 23.6546 112.7 23.8431 112.607 24.0103C112.517 24.1736 112.407 24.3096 112.274 24.4185C112.169 24.5079 112.049 24.5759 111.913 24.6225C111.777 24.6692 111.627 24.6925 111.464 24.6925C111.293 24.6925 111.139 24.6673 111.003 24.6167C110.871 24.5662 110.753 24.4943 110.648 24.401C110.535 24.296 110.436 24.16 110.35 23.9928C110.269 23.8218 110.206 23.6332 110.164 23.4272C110.125 23.2639 110.098 23.0871 110.082 22.8966C110.066 22.7061 110.059 22.5079 110.059 22.3018V21.054C110.059 20.8363 110.066 20.6283 110.082 20.4301C110.101 20.2318 110.131 20.0491 110.169 19.882C110.22 19.6643 110.29 19.4738 110.379 19.3105C110.473 19.1473 110.585 19.0112 110.718 18.9024C110.815 18.8285 110.924 18.7721 111.044 18.7333C111.168 18.6944 111.306 18.675 111.458 18.675C111.617 18.675 111.761 18.6963 111.89 18.7391C112.022 18.7819 112.14 18.8421 112.245 18.9199C112.377 19.0248 112.492 19.1609 112.589 19.328C112.686 19.4913 112.764 19.6779 112.823 19.8878C112.869 20.055 112.902 20.2377 112.922 20.4359C112.945 20.6303 112.957 20.8363 112.957 21.054ZM121.703 24.9316L121.697 21.5846H118.659V22.8091H120.065L120.059 24.3485C120.016 24.399 119.952 24.4476 119.866 24.4943C119.785 24.537 119.689 24.5759 119.581 24.6109C119.472 24.6459 119.355 24.6731 119.231 24.6925C119.106 24.712 118.98 24.7217 118.852 24.7217C118.642 24.7178 118.453 24.6847 118.286 24.6225C118.123 24.5565 117.979 24.4612 117.855 24.3368C117.781 24.263 117.713 24.1794 117.651 24.0861C117.592 23.9889 117.54 23.884 117.493 23.7712C117.419 23.5769 117.361 23.3533 117.318 23.1007C117.279 22.848 117.26 22.5681 117.26 22.261V21.0948C117.26 20.8499 117.274 20.6225 117.301 20.4126C117.332 20.2027 117.375 20.0122 117.429 19.8412C117.499 19.6196 117.586 19.4272 117.691 19.2639C117.8 19.1006 117.921 18.9685 118.053 18.8674C118.154 18.7935 118.263 18.7372 118.379 18.6983C118.496 18.6594 118.617 18.64 118.741 18.64C118.97 18.64 119.167 18.6711 119.33 18.7333C119.497 18.7916 119.635 18.881 119.744 19.0015C119.841 19.1103 119.917 19.2445 119.971 19.4038C120.03 19.5632 120.072 19.7459 120.1 19.9519H121.697C121.655 19.5438 121.563 19.1764 121.423 18.8499C121.287 18.5234 121.097 18.2454 120.852 18.0161C120.607 17.7906 120.306 17.6176 119.948 17.4971C119.594 17.3766 119.178 17.3164 118.7 17.3164C118.389 17.3164 118.094 17.3591 117.814 17.4446C117.534 17.5302 117.275 17.6565 117.038 17.8236C116.836 17.9714 116.65 18.1463 116.479 18.3484C116.311 18.5506 116.164 18.778 116.035 19.0307C115.899 19.3144 115.794 19.6312 115.721 19.9811C115.647 20.3271 115.61 20.7022 115.61 21.1065V22.261C115.61 22.6847 115.647 23.0773 115.721 23.4389C115.798 23.8004 115.911 24.125 116.059 24.4126C116.187 24.6731 116.342 24.9044 116.525 25.1065C116.712 25.3087 116.918 25.4797 117.143 25.6196C117.373 25.7557 117.623 25.8587 117.895 25.9287C118.171 26.0025 118.465 26.0395 118.776 26.0395C119.134 26.0395 119.468 26.0064 119.779 25.9403C120.09 25.8743 120.372 25.7868 120.624 25.678C120.873 25.573 121.089 25.4544 121.272 25.3223C121.454 25.1901 121.598 25.0599 121.703 24.9316ZM130.572 17.433V18.7566H132.187V24.6051H130.572V25.9229H135.482V24.6051H133.826V18.7566H135.482V17.433H130.572ZM142.98 25.9229V17.433H141.336L141.33 22.8849L138.986 17.433H137.336V25.9229H138.986V20.4476L141.348 25.9229H142.98Z" fill="white"/>
</svg>
