<svg width="143" height="39" viewBox="0 0 143 39" fill="none" xmlns="http://www.w3.org/2000/svg">
<path d="M1.09375 1.27734V38.0533H142.313V21.7623L120.338 1.27734H1.09375Z" fill="black" stroke="#8EFE1C" stroke-width="1.02156"/>
<path d="M35.4301 17.433H33.3951V25.9229H34.8995V23.4097L34.8295 19.5963L35.8266 23.124H36.6371L37.7508 19.4388L37.6809 23.4097V25.9229H39.1852V17.433H37.1502L36.2348 20.6225L35.4301 17.433ZM42.6239 17.433V18.7566H44.2391V24.6051H42.6239V25.9229H47.5336V24.6051H45.8776V18.7566H47.5336V17.433H42.6239ZM56.704 25.9229V17.433H55.0597L55.0539 22.8849L52.7098 17.433H51.0597V25.9229H52.7098V20.4476L55.0714 25.9229H56.704ZM66.1894 18.7683V17.433H59.3438V18.7683H61.9269V25.9229H63.5713V18.7683H66.1894ZM83.2358 25.9229V17.433H81.5915L81.5857 22.8849L79.2416 17.433H77.5915V25.9229H79.2416V20.4476L81.6032 25.9229H83.2358ZM92.4063 22.3018V21.0657C92.4063 20.6808 92.3694 20.3174 92.2955 19.9753C92.2255 19.6332 92.1225 19.3183 91.9865 19.0307C91.8621 18.778 91.7124 18.5467 91.5375 18.3368C91.3665 18.1269 91.1663 17.948 90.9369 17.8003C90.7076 17.6448 90.449 17.5263 90.1614 17.4446C89.8776 17.3591 89.5725 17.3164 89.2459 17.3164C88.9233 17.3164 88.624 17.3572 88.348 17.4388C88.072 17.5204 87.8232 17.6371 87.6016 17.7887C87.3761 17.9442 87.1759 18.1307 87.001 18.3484C86.83 18.5661 86.6842 18.8091 86.5637 19.0773C86.4393 19.3611 86.344 19.6701 86.278 20.0044C86.2158 20.3387 86.1847 20.6925 86.1847 21.0657V22.3018C86.1847 22.6517 86.2119 22.984 86.2663 23.2989C86.3246 23.6138 86.4082 23.9053 86.517 24.1736C86.6375 24.4651 86.7872 24.7275 86.966 24.9607C87.1448 25.1901 87.347 25.3864 87.5724 25.5497C87.8018 25.7052 88.0564 25.8257 88.3363 25.9112C88.6162 25.9967 88.9213 26.0395 89.2518 26.0395C89.5627 26.0395 89.8523 26.0006 90.1206 25.9229C90.3927 25.849 90.6415 25.744 90.8669 25.608C91.1157 25.4525 91.3373 25.2581 91.5317 25.0249C91.726 24.7916 91.8893 24.5351 92.0215 24.2552C92.1459 23.9753 92.2411 23.6721 92.3072 23.3456C92.3733 23.0151 92.4063 22.6672 92.4063 22.3018ZM90.7445 21.054V22.3018C90.7445 22.5117 90.7328 22.7139 90.7095 22.9082C90.6901 23.1026 90.659 23.2814 90.6162 23.4447C90.5618 23.6546 90.4879 23.8431 90.3946 24.0103C90.3052 24.1736 90.1944 24.3096 90.0623 24.4185C89.9573 24.5079 89.8368 24.5759 89.7007 24.6225C89.5647 24.6692 89.415 24.6925 89.2518 24.6925C89.0807 24.6925 88.9272 24.6673 88.7911 24.6167C88.6589 24.5662 88.5404 24.4943 88.4354 24.401C88.3227 24.296 88.2236 24.16 88.138 23.9928C88.0564 23.8218 87.9942 23.6332 87.9515 23.4272C87.9126 23.2639 87.8854 23.0871 87.8698 22.8966C87.8543 22.7061 87.8465 22.5079 87.8465 22.3018V21.054C87.8465 20.8363 87.8543 20.6283 87.8698 20.4301C87.8893 20.2318 87.9184 20.0491 87.9573 19.882C88.0078 19.6643 88.0778 19.4738 88.1672 19.3105C88.2605 19.1473 88.3732 19.0112 88.5054 18.9024C88.6026 18.8285 88.7114 18.7721 88.8319 18.7333C88.9563 18.6944 89.0943 18.675 89.2459 18.675C89.4053 18.675 89.5491 18.6963 89.6774 18.7391C89.8096 18.7819 89.9281 18.8421 90.0331 18.9199C90.1653 19.0248 90.2799 19.1609 90.3771 19.328C90.4743 19.4913 90.5521 19.6779 90.6104 19.8878C90.657 20.055 90.6901 20.2377 90.7095 20.4359C90.7328 20.6303 90.7445 20.8363 90.7445 21.054ZM95.8799 25.9229H97.361L98.0724 21.3397L98.1365 20.9082L98.2007 21.3397L98.9412 25.9229H100.422L101.6 17.433H100.096L99.5185 22.191L99.4776 22.5467L99.4252 22.1969L98.7138 17.433H97.5418L96.8712 22.1619L96.8187 22.5117L96.7779 22.1794L96.2123 17.433H94.7137L95.8799 25.9229Z" fill="#8EFE1C"/>
</svg>
