<svg width="143" height="39" viewBox="0 0 143 39" fill="none" xmlns="http://www.w3.org/2000/svg">
<path d="M1 1V37.7759H142.22V21.4849L120.245 1H1Z" fill="black" stroke="#8EFE1C" stroke-width="1.02156"/>
<path d="M39.5809 15.4688H37.536V24H39.0477V21.4746L38.9774 17.6426L39.9794 21.1875H40.7938L41.913 17.4844L41.8427 21.4746V24H43.3544V15.4688H41.3095L40.3895 18.6738L39.5809 15.4688ZM46.8098 15.4688V16.7988H48.4328V22.6758H46.8098V24H51.7434V22.6758H50.0793V16.7988H51.7434V15.4688H46.8098ZM60.9585 24V15.4688H59.3062L59.3003 20.9473L56.9448 15.4688H55.2866V24H56.9448V18.498L59.3179 24H60.9585ZM70.4901 16.8105V15.4688H63.6112V16.8105H66.2069V24H67.8592V16.8105H70.4901ZM87.6196 24V15.4688H85.9673L85.9614 20.9473L83.6059 15.4688H81.9477V24H83.6059V18.498L85.979 24H87.6196ZM96.8348 20.3613V19.1191C96.8348 18.7324 96.7977 18.3672 96.7234 18.0234C96.6531 17.6797 96.5496 17.3633 96.4129 17.0742C96.2879 16.8203 96.1375 16.5879 95.9617 16.377C95.7898 16.166 95.5887 15.9863 95.3582 15.8379C95.1277 15.6816 94.868 15.5625 94.5789 15.4805C94.2937 15.3945 93.9871 15.3516 93.659 15.3516C93.3348 15.3516 93.034 15.3926 92.7566 15.4746C92.4793 15.5566 92.2293 15.6738 92.0066 15.8262C91.7801 15.9824 91.5789 16.1699 91.4031 16.3887C91.2312 16.6074 91.0848 16.8516 90.9637 17.1211C90.8387 17.4062 90.743 17.7168 90.6766 18.0527C90.6141 18.3887 90.5828 18.7441 90.5828 19.1191V20.3613C90.5828 20.7129 90.6102 21.0469 90.6648 21.3633C90.7234 21.6797 90.8074 21.9727 90.9168 22.2422C91.0379 22.5352 91.1883 22.7988 91.368 23.0332C91.5477 23.2637 91.7508 23.4609 91.9773 23.625C92.2078 23.7812 92.4637 23.9023 92.7449 23.9883C93.0262 24.0742 93.3328 24.1172 93.6648 24.1172C93.9773 24.1172 94.2684 24.0781 94.5379 24C94.8113 23.9258 95.0613 23.8203 95.2879 23.6836C95.5379 23.5273 95.7605 23.332 95.9559 23.0977C96.1512 22.8633 96.3152 22.6055 96.448 22.3242C96.573 22.043 96.6687 21.7383 96.7352 21.4102C96.8016 21.0781 96.8348 20.7285 96.8348 20.3613ZM95.1648 19.1074V20.3613C95.1648 20.5723 95.1531 20.7754 95.1297 20.9707C95.1102 21.166 95.0789 21.3457 95.0359 21.5098C94.9812 21.7207 94.907 21.9102 94.8133 22.0781C94.7234 22.2422 94.6121 22.3789 94.4793 22.4883C94.3738 22.5781 94.2527 22.6465 94.116 22.6934C93.9793 22.7402 93.8289 22.7637 93.6648 22.7637C93.493 22.7637 93.3387 22.7383 93.202 22.6875C93.0691 22.6367 92.95 22.5645 92.8445 22.4707C92.7312 22.3652 92.6316 22.2285 92.5457 22.0605C92.4637 21.8887 92.4012 21.6992 92.3582 21.4922C92.3191 21.3281 92.2918 21.1504 92.2762 20.959C92.2605 20.7676 92.2527 20.5684 92.2527 20.3613V19.1074C92.2527 18.8887 92.2605 18.6797 92.2762 18.4805C92.2957 18.2812 92.325 18.0977 92.3641 17.9297C92.4148 17.7109 92.4852 17.5195 92.575 17.3555C92.6687 17.1914 92.782 17.0547 92.9148 16.9453C93.0125 16.8711 93.1219 16.8145 93.243 16.7754C93.368 16.7363 93.5066 16.7168 93.659 16.7168C93.8191 16.7168 93.9637 16.7383 94.0926 16.7812C94.2254 16.8242 94.3445 16.8848 94.45 16.9629C94.5828 17.0684 94.698 17.2051 94.7957 17.373C94.8934 17.5371 94.9715 17.7246 95.0301 17.9355C95.077 18.1035 95.1102 18.2871 95.1297 18.4863C95.1531 18.6816 95.1648 18.8887 95.1648 19.1074ZM100.325 24H101.814L102.528 19.3945L102.593 18.9609L102.657 19.3945L103.401 24H104.89L106.073 15.4688H104.562L103.982 20.25L103.941 20.6074L103.888 20.2559L103.173 15.4688H101.995L101.321 20.2207L101.269 20.5723L101.228 20.2383L100.659 15.4688H99.1534L100.325 24Z" fill="#8EFE1C"/>
</svg>
